G04 #@! TF.GenerationSoftware,KiCad,Pcbnew,7.0.7*
G04 #@! TF.CreationDate,2024-03-11T23:00:31+01:00*
G04 #@! TF.ProjectId,RocketBoard,526f636b-6574-4426-9f61-72642e6b6963,rev?*
G04 #@! TF.SameCoordinates,Original*
G04 #@! TF.FileFunction,Soldermask,Top*
G04 #@! TF.FilePolarity,Negative*
%FSLAX46Y46*%
G04 Gerber Fmt 4.6, Leading zero omitted, Abs format (unit mm)*
G04 Created by KiCad (PCBNEW 7.0.7) date 2024-03-11 23:00:31*
%MOMM*%
%LPD*%
G01*
G04 APERTURE LIST*
G04 Aperture macros list*
%AMRoundRect*
0 Rectangle with rounded corners*
0 $1 Rounding radius*
0 $2 $3 $4 $5 $6 $7 $8 $9 X,Y pos of 4 corners*
0 Add a 4 corners polygon primitive as box body*
4,1,4,$2,$3,$4,$5,$6,$7,$8,$9,$2,$3,0*
0 Add four circle primitives for the rounded corners*
1,1,$1+$1,$2,$3*
1,1,$1+$1,$4,$5*
1,1,$1+$1,$6,$7*
1,1,$1+$1,$8,$9*
0 Add four rect primitives between the rounded corners*
20,1,$1+$1,$2,$3,$4,$5,0*
20,1,$1+$1,$4,$5,$6,$7,0*
20,1,$1+$1,$6,$7,$8,$9,0*
20,1,$1+$1,$8,$9,$2,$3,0*%
G04 Aperture macros list end*
%ADD10R,2.000000X2.000000*%
%ADD11C,2.000000*%
%ADD12R,1.700000X1.700000*%
%ADD13O,1.700000X1.700000*%
%ADD14RoundRect,0.250000X-0.725000X0.600000X-0.725000X-0.600000X0.725000X-0.600000X0.725000X0.600000X0*%
%ADD15O,1.950000X1.700000*%
%ADD16R,3.500000X1.700000*%
%ADD17R,1.700000X3.500000*%
%ADD18C,2.200000*%
%ADD19RoundRect,0.250000X0.725000X-0.600000X0.725000X0.600000X-0.725000X0.600000X-0.725000X-0.600000X0*%
%ADD20RoundRect,0.102000X0.762000X0.762000X-0.762000X0.762000X-0.762000X-0.762000X0.762000X-0.762000X0*%
%ADD21O,3.252000X1.728000*%
%ADD22C,1.600000*%
%ADD23O,1.600000X1.600000*%
%ADD24C,1.524000*%
%ADD25R,1.120000X2.440000*%
%ADD26O,3.500000X3.500000*%
%ADD27R,2.000000X1.905000*%
%ADD28O,2.000000X1.905000*%
G04 APERTURE END LIST*
D10*
X133300000Y-138250000D03*
D11*
X133300000Y-135250000D03*
D12*
X132410000Y-106300000D03*
D13*
X132410000Y-108840000D03*
X132410000Y-111380000D03*
X132410000Y-113920000D03*
D14*
X140167500Y-134400000D03*
D15*
X140167500Y-136900000D03*
X140167500Y-139400000D03*
X140167500Y-141900000D03*
D13*
X123390000Y-142280000D03*
D16*
X124290000Y-142280000D03*
D13*
X123390000Y-139740000D03*
D16*
X124290000Y-139740000D03*
D12*
X123390000Y-137200000D03*
D16*
X124290000Y-137200000D03*
D13*
X123390000Y-134660000D03*
D16*
X124290000Y-134660000D03*
D13*
X123390000Y-132120000D03*
D16*
X124290000Y-132120000D03*
D13*
X123390000Y-129580000D03*
D16*
X124290000Y-129580000D03*
D13*
X123390000Y-127040000D03*
D16*
X124290000Y-127040000D03*
D12*
X123390000Y-124500000D03*
D16*
X124290000Y-124500000D03*
D13*
X123390000Y-121960000D03*
D16*
X124290000Y-121960000D03*
D13*
X123390000Y-119420000D03*
D16*
X124290000Y-119420000D03*
D13*
X123390000Y-116880000D03*
D16*
X124290000Y-116880000D03*
D13*
X123390000Y-114340000D03*
D16*
X124290000Y-114340000D03*
D12*
X123390000Y-111800000D03*
D16*
X124290000Y-111800000D03*
D13*
X123390000Y-109260000D03*
D16*
X124290000Y-109260000D03*
D13*
X123390000Y-106720000D03*
D16*
X124290000Y-106720000D03*
D13*
X123390000Y-104180000D03*
D16*
X124290000Y-104180000D03*
D13*
X123390000Y-101640000D03*
D16*
X124290000Y-101640000D03*
D12*
X123390000Y-99100000D03*
D16*
X124290000Y-99100000D03*
D13*
X123390000Y-96560000D03*
D16*
X124290000Y-96560000D03*
D13*
X123390000Y-94020000D03*
D16*
X124290000Y-94020000D03*
D13*
X105610000Y-94020000D03*
D16*
X104710000Y-94020000D03*
D13*
X105610000Y-96560000D03*
D16*
X104710000Y-96560000D03*
D12*
X105610000Y-99100000D03*
D16*
X104710000Y-99100000D03*
D13*
X105610000Y-101640000D03*
D16*
X104710000Y-101640000D03*
D13*
X105610000Y-104180000D03*
D16*
X104710000Y-104180000D03*
D13*
X105610000Y-106720000D03*
D16*
X104710000Y-106720000D03*
D13*
X105610000Y-109260000D03*
D16*
X104710000Y-109260000D03*
D12*
X105610000Y-111800000D03*
D16*
X104710000Y-111800000D03*
D13*
X105610000Y-114340000D03*
D16*
X104710000Y-114340000D03*
D13*
X105610000Y-116880000D03*
D16*
X104710000Y-116880000D03*
D13*
X105610000Y-119420000D03*
D16*
X104710000Y-119420000D03*
D13*
X105610000Y-121960000D03*
D16*
X104710000Y-121960000D03*
D12*
X105610000Y-124500000D03*
D16*
X104710000Y-124500000D03*
D13*
X105610000Y-127040000D03*
D16*
X104710000Y-127040000D03*
D13*
X105610000Y-129580000D03*
D16*
X104710000Y-129580000D03*
D13*
X105610000Y-132120000D03*
D16*
X104710000Y-132120000D03*
D13*
X105610000Y-134660000D03*
D16*
X104710000Y-134660000D03*
D12*
X105610000Y-137200000D03*
D16*
X104710000Y-137200000D03*
D13*
X105610000Y-139740000D03*
D16*
X104710000Y-139740000D03*
D13*
X105610000Y-142280000D03*
D16*
X104710000Y-142280000D03*
D13*
X117040000Y-94250000D03*
D17*
X117040000Y-93350000D03*
D12*
X114500000Y-94250000D03*
D17*
X114500000Y-93350000D03*
D13*
X111960000Y-94250000D03*
D17*
X111960000Y-93350000D03*
D18*
X102300000Y-147750000D03*
D19*
X105500000Y-85250000D03*
D15*
X105500000Y-82750000D03*
X105500000Y-80250000D03*
D20*
X138430000Y-64837500D03*
D21*
X138430000Y-62297500D03*
X138430000Y-59757500D03*
X138430000Y-57217500D03*
D20*
X138430000Y-54677500D03*
D21*
X138430000Y-52137500D03*
X138430000Y-49597500D03*
X138430000Y-47057500D03*
X115570000Y-47057500D03*
D20*
X115570000Y-49597500D03*
D21*
X115570000Y-52137500D03*
X115570000Y-54677500D03*
X115570000Y-57217500D03*
X115570000Y-59757500D03*
X115570000Y-62297500D03*
X115570000Y-64837500D03*
D22*
X119440000Y-89930000D03*
D23*
X129600000Y-89930000D03*
D24*
X106750000Y-57000000D03*
X106750000Y-61850000D03*
X106750000Y-66650000D03*
D12*
X100500000Y-52210000D03*
D13*
X100500000Y-54750000D03*
D25*
X107500000Y-54055000D03*
X107500000Y-45445000D03*
D18*
X101500000Y-46750000D03*
D22*
X108920000Y-86250000D03*
D23*
X119080000Y-86250000D03*
D18*
X143700000Y-147950000D03*
D26*
X118180000Y-73750000D03*
D27*
X101520000Y-76290000D03*
D28*
X101520000Y-73750000D03*
X101520000Y-71210000D03*
D12*
X142740000Y-85750000D03*
D13*
X140200000Y-85750000D03*
X137660000Y-85750000D03*
X135120000Y-85750000D03*
X132580000Y-85750000D03*
X130040000Y-85750000D03*
X127500000Y-85750000D03*
M02*
