G04 #@! TF.GenerationSoftware,KiCad,Pcbnew,7.0.7*
G04 #@! TF.CreationDate,2024-03-11T23:00:31+01:00*
G04 #@! TF.ProjectId,RocketBoard,526f636b-6574-4426-9f61-72642e6b6963,rev?*
G04 #@! TF.SameCoordinates,Original*
G04 #@! TF.FileFunction,Legend,Bot*
G04 #@! TF.FilePolarity,Positive*
%FSLAX46Y46*%
G04 Gerber Fmt 4.6, Leading zero omitted, Abs format (unit mm)*
G04 Created by KiCad (PCBNEW 7.0.7) date 2024-03-11 23:00:31*
%MOMM*%
%LPD*%
G01*
G04 APERTURE LIST*
G04 Aperture macros list*
%AMRoundRect*
0 Rectangle with rounded corners*
0 $1 Rounding radius*
0 $2 $3 $4 $5 $6 $7 $8 $9 X,Y pos of 4 corners*
0 Add a 4 corners polygon primitive as box body*
4,1,4,$2,$3,$4,$5,$6,$7,$8,$9,$2,$3,0*
0 Add four circle primitives for the rounded corners*
1,1,$1+$1,$2,$3*
1,1,$1+$1,$4,$5*
1,1,$1+$1,$6,$7*
1,1,$1+$1,$8,$9*
0 Add four rect primitives between the rounded corners*
20,1,$1+$1,$2,$3,$4,$5,0*
20,1,$1+$1,$4,$5,$6,$7,0*
20,1,$1+$1,$6,$7,$8,$9,0*
20,1,$1+$1,$8,$9,$2,$3,0*%
G04 Aperture macros list end*
%ADD10C,0.150000*%
%ADD11C,0.300000*%
%ADD12C,0.120000*%
%ADD13R,2.000000X2.000000*%
%ADD14C,2.000000*%
%ADD15R,1.700000X1.700000*%
%ADD16O,1.700000X1.700000*%
%ADD17RoundRect,0.250000X-0.725000X0.600000X-0.725000X-0.600000X0.725000X-0.600000X0.725000X0.600000X0*%
%ADD18O,1.950000X1.700000*%
%ADD19C,2.200000*%
%ADD20RoundRect,0.250000X0.725000X-0.600000X0.725000X0.600000X-0.725000X0.600000X-0.725000X-0.600000X0*%
%ADD21RoundRect,0.102000X0.762000X0.762000X-0.762000X0.762000X-0.762000X-0.762000X0.762000X-0.762000X0*%
%ADD22O,3.252000X1.728000*%
%ADD23C,1.600000*%
%ADD24O,1.600000X1.600000*%
%ADD25C,1.524000*%
%ADD26O,3.500000X3.500000*%
%ADD27R,2.000000X1.905000*%
%ADD28O,2.000000X1.905000*%
G04 APERTURE END LIST*
D10*
X122400000Y-44150000D02*
X146400000Y-44150000D01*
X146400000Y-87975400D01*
X122400000Y-87975400D01*
X122400000Y-44150000D01*
D11*
X137540572Y-146277828D02*
X137540572Y-144777828D01*
X137540572Y-144777828D02*
X137040572Y-145849257D01*
X137040572Y-145849257D02*
X136540572Y-144777828D01*
X136540572Y-144777828D02*
X136540572Y-146277828D01*
X135183429Y-146277828D02*
X135183429Y-145492114D01*
X135183429Y-145492114D02*
X135254857Y-145349257D01*
X135254857Y-145349257D02*
X135397714Y-145277828D01*
X135397714Y-145277828D02*
X135683429Y-145277828D01*
X135683429Y-145277828D02*
X135826286Y-145349257D01*
X135183429Y-146206400D02*
X135326286Y-146277828D01*
X135326286Y-146277828D02*
X135683429Y-146277828D01*
X135683429Y-146277828D02*
X135826286Y-146206400D01*
X135826286Y-146206400D02*
X135897714Y-146063542D01*
X135897714Y-146063542D02*
X135897714Y-145920685D01*
X135897714Y-145920685D02*
X135826286Y-145777828D01*
X135826286Y-145777828D02*
X135683429Y-145706400D01*
X135683429Y-145706400D02*
X135326286Y-145706400D01*
X135326286Y-145706400D02*
X135183429Y-145634971D01*
X133826286Y-146277828D02*
X133826286Y-144777828D01*
X133826286Y-146206400D02*
X133969143Y-146277828D01*
X133969143Y-146277828D02*
X134254857Y-146277828D01*
X134254857Y-146277828D02*
X134397714Y-146206400D01*
X134397714Y-146206400D02*
X134469143Y-146134971D01*
X134469143Y-146134971D02*
X134540571Y-145992114D01*
X134540571Y-145992114D02*
X134540571Y-145563542D01*
X134540571Y-145563542D02*
X134469143Y-145420685D01*
X134469143Y-145420685D02*
X134397714Y-145349257D01*
X134397714Y-145349257D02*
X134254857Y-145277828D01*
X134254857Y-145277828D02*
X133969143Y-145277828D01*
X133969143Y-145277828D02*
X133826286Y-145349257D01*
X132540571Y-146206400D02*
X132683428Y-146277828D01*
X132683428Y-146277828D02*
X132969143Y-146277828D01*
X132969143Y-146277828D02*
X133112000Y-146206400D01*
X133112000Y-146206400D02*
X133183428Y-146063542D01*
X133183428Y-146063542D02*
X133183428Y-145492114D01*
X133183428Y-145492114D02*
X133112000Y-145349257D01*
X133112000Y-145349257D02*
X132969143Y-145277828D01*
X132969143Y-145277828D02*
X132683428Y-145277828D01*
X132683428Y-145277828D02*
X132540571Y-145349257D01*
X132540571Y-145349257D02*
X132469143Y-145492114D01*
X132469143Y-145492114D02*
X132469143Y-145634971D01*
X132469143Y-145634971D02*
X133183428Y-145777828D01*
X130683429Y-146277828D02*
X130683429Y-145277828D01*
X130683429Y-144777828D02*
X130754857Y-144849257D01*
X130754857Y-144849257D02*
X130683429Y-144920685D01*
X130683429Y-144920685D02*
X130612000Y-144849257D01*
X130612000Y-144849257D02*
X130683429Y-144777828D01*
X130683429Y-144777828D02*
X130683429Y-144920685D01*
X129969143Y-145277828D02*
X129969143Y-146277828D01*
X129969143Y-145420685D02*
X129897714Y-145349257D01*
X129897714Y-145349257D02*
X129754857Y-145277828D01*
X129754857Y-145277828D02*
X129540571Y-145277828D01*
X129540571Y-145277828D02*
X129397714Y-145349257D01*
X129397714Y-145349257D02*
X129326286Y-145492114D01*
X129326286Y-145492114D02*
X129326286Y-146277828D01*
X126826286Y-146206400D02*
X126969143Y-146277828D01*
X126969143Y-146277828D02*
X127254857Y-146277828D01*
X127254857Y-146277828D02*
X127397714Y-146206400D01*
X127397714Y-146206400D02*
X127469143Y-146134971D01*
X127469143Y-146134971D02*
X127540571Y-145992114D01*
X127540571Y-145992114D02*
X127540571Y-145563542D01*
X127540571Y-145563542D02*
X127469143Y-145420685D01*
X127469143Y-145420685D02*
X127397714Y-145349257D01*
X127397714Y-145349257D02*
X127254857Y-145277828D01*
X127254857Y-145277828D02*
X126969143Y-145277828D01*
X126969143Y-145277828D02*
X126826286Y-145349257D01*
X125969143Y-146277828D02*
X126112000Y-146206400D01*
X126112000Y-146206400D02*
X126183429Y-146134971D01*
X126183429Y-146134971D02*
X126254857Y-145992114D01*
X126254857Y-145992114D02*
X126254857Y-145563542D01*
X126254857Y-145563542D02*
X126183429Y-145420685D01*
X126183429Y-145420685D02*
X126112000Y-145349257D01*
X126112000Y-145349257D02*
X125969143Y-145277828D01*
X125969143Y-145277828D02*
X125754857Y-145277828D01*
X125754857Y-145277828D02*
X125612000Y-145349257D01*
X125612000Y-145349257D02*
X125540572Y-145420685D01*
X125540572Y-145420685D02*
X125469143Y-145563542D01*
X125469143Y-145563542D02*
X125469143Y-145992114D01*
X125469143Y-145992114D02*
X125540572Y-146134971D01*
X125540572Y-146134971D02*
X125612000Y-146206400D01*
X125612000Y-146206400D02*
X125754857Y-146277828D01*
X125754857Y-146277828D02*
X125969143Y-146277828D01*
X124612000Y-146277828D02*
X124754857Y-146206400D01*
X124754857Y-146206400D02*
X124826286Y-146063542D01*
X124826286Y-146063542D02*
X124826286Y-144777828D01*
X123826286Y-146277828D02*
X123969143Y-146206400D01*
X123969143Y-146206400D02*
X124040572Y-146063542D01*
X124040572Y-146063542D02*
X124040572Y-144777828D01*
X122612001Y-146277828D02*
X122612001Y-145492114D01*
X122612001Y-145492114D02*
X122683429Y-145349257D01*
X122683429Y-145349257D02*
X122826286Y-145277828D01*
X122826286Y-145277828D02*
X123112001Y-145277828D01*
X123112001Y-145277828D02*
X123254858Y-145349257D01*
X122612001Y-146206400D02*
X122754858Y-146277828D01*
X122754858Y-146277828D02*
X123112001Y-146277828D01*
X123112001Y-146277828D02*
X123254858Y-146206400D01*
X123254858Y-146206400D02*
X123326286Y-146063542D01*
X123326286Y-146063542D02*
X123326286Y-145920685D01*
X123326286Y-145920685D02*
X123254858Y-145777828D01*
X123254858Y-145777828D02*
X123112001Y-145706400D01*
X123112001Y-145706400D02*
X122754858Y-145706400D01*
X122754858Y-145706400D02*
X122612001Y-145634971D01*
X121897715Y-146277828D02*
X121897715Y-144777828D01*
X121897715Y-145349257D02*
X121754858Y-145277828D01*
X121754858Y-145277828D02*
X121469143Y-145277828D01*
X121469143Y-145277828D02*
X121326286Y-145349257D01*
X121326286Y-145349257D02*
X121254858Y-145420685D01*
X121254858Y-145420685D02*
X121183429Y-145563542D01*
X121183429Y-145563542D02*
X121183429Y-145992114D01*
X121183429Y-145992114D02*
X121254858Y-146134971D01*
X121254858Y-146134971D02*
X121326286Y-146206400D01*
X121326286Y-146206400D02*
X121469143Y-146277828D01*
X121469143Y-146277828D02*
X121754858Y-146277828D01*
X121754858Y-146277828D02*
X121897715Y-146206400D01*
X120326286Y-146277828D02*
X120469143Y-146206400D01*
X120469143Y-146206400D02*
X120540572Y-146134971D01*
X120540572Y-146134971D02*
X120612000Y-145992114D01*
X120612000Y-145992114D02*
X120612000Y-145563542D01*
X120612000Y-145563542D02*
X120540572Y-145420685D01*
X120540572Y-145420685D02*
X120469143Y-145349257D01*
X120469143Y-145349257D02*
X120326286Y-145277828D01*
X120326286Y-145277828D02*
X120112000Y-145277828D01*
X120112000Y-145277828D02*
X119969143Y-145349257D01*
X119969143Y-145349257D02*
X119897715Y-145420685D01*
X119897715Y-145420685D02*
X119826286Y-145563542D01*
X119826286Y-145563542D02*
X119826286Y-145992114D01*
X119826286Y-145992114D02*
X119897715Y-146134971D01*
X119897715Y-146134971D02*
X119969143Y-146206400D01*
X119969143Y-146206400D02*
X120112000Y-146277828D01*
X120112000Y-146277828D02*
X120326286Y-146277828D01*
X119183429Y-146277828D02*
X119183429Y-145277828D01*
X119183429Y-145563542D02*
X119112000Y-145420685D01*
X119112000Y-145420685D02*
X119040572Y-145349257D01*
X119040572Y-145349257D02*
X118897714Y-145277828D01*
X118897714Y-145277828D02*
X118754857Y-145277828D01*
X117612001Y-146277828D02*
X117612001Y-145492114D01*
X117612001Y-145492114D02*
X117683429Y-145349257D01*
X117683429Y-145349257D02*
X117826286Y-145277828D01*
X117826286Y-145277828D02*
X118112001Y-145277828D01*
X118112001Y-145277828D02*
X118254858Y-145349257D01*
X117612001Y-146206400D02*
X117754858Y-146277828D01*
X117754858Y-146277828D02*
X118112001Y-146277828D01*
X118112001Y-146277828D02*
X118254858Y-146206400D01*
X118254858Y-146206400D02*
X118326286Y-146063542D01*
X118326286Y-146063542D02*
X118326286Y-145920685D01*
X118326286Y-145920685D02*
X118254858Y-145777828D01*
X118254858Y-145777828D02*
X118112001Y-145706400D01*
X118112001Y-145706400D02*
X117754858Y-145706400D01*
X117754858Y-145706400D02*
X117612001Y-145634971D01*
X117112000Y-145277828D02*
X116540572Y-145277828D01*
X116897715Y-144777828D02*
X116897715Y-146063542D01*
X116897715Y-146063542D02*
X116826286Y-146206400D01*
X116826286Y-146206400D02*
X116683429Y-146277828D01*
X116683429Y-146277828D02*
X116540572Y-146277828D01*
X116040572Y-146277828D02*
X116040572Y-145277828D01*
X116040572Y-144777828D02*
X116112000Y-144849257D01*
X116112000Y-144849257D02*
X116040572Y-144920685D01*
X116040572Y-144920685D02*
X115969143Y-144849257D01*
X115969143Y-144849257D02*
X116040572Y-144777828D01*
X116040572Y-144777828D02*
X116040572Y-144920685D01*
X115112000Y-146277828D02*
X115254857Y-146206400D01*
X115254857Y-146206400D02*
X115326286Y-146134971D01*
X115326286Y-146134971D02*
X115397714Y-145992114D01*
X115397714Y-145992114D02*
X115397714Y-145563542D01*
X115397714Y-145563542D02*
X115326286Y-145420685D01*
X115326286Y-145420685D02*
X115254857Y-145349257D01*
X115254857Y-145349257D02*
X115112000Y-145277828D01*
X115112000Y-145277828D02*
X114897714Y-145277828D01*
X114897714Y-145277828D02*
X114754857Y-145349257D01*
X114754857Y-145349257D02*
X114683429Y-145420685D01*
X114683429Y-145420685D02*
X114612000Y-145563542D01*
X114612000Y-145563542D02*
X114612000Y-145992114D01*
X114612000Y-145992114D02*
X114683429Y-146134971D01*
X114683429Y-146134971D02*
X114754857Y-146206400D01*
X114754857Y-146206400D02*
X114897714Y-146277828D01*
X114897714Y-146277828D02*
X115112000Y-146277828D01*
X113969143Y-145277828D02*
X113969143Y-146277828D01*
X113969143Y-145420685D02*
X113897714Y-145349257D01*
X113897714Y-145349257D02*
X113754857Y-145277828D01*
X113754857Y-145277828D02*
X113540571Y-145277828D01*
X113540571Y-145277828D02*
X113397714Y-145349257D01*
X113397714Y-145349257D02*
X113326286Y-145492114D01*
X113326286Y-145492114D02*
X113326286Y-146277828D01*
X111612000Y-145277828D02*
X111326286Y-146277828D01*
X111326286Y-146277828D02*
X111040571Y-145563542D01*
X111040571Y-145563542D02*
X110754857Y-146277828D01*
X110754857Y-146277828D02*
X110469143Y-145277828D01*
X109897714Y-146277828D02*
X109897714Y-145277828D01*
X109897714Y-144777828D02*
X109969142Y-144849257D01*
X109969142Y-144849257D02*
X109897714Y-144920685D01*
X109897714Y-144920685D02*
X109826285Y-144849257D01*
X109826285Y-144849257D02*
X109897714Y-144777828D01*
X109897714Y-144777828D02*
X109897714Y-144920685D01*
X109397713Y-145277828D02*
X108826285Y-145277828D01*
X109183428Y-144777828D02*
X109183428Y-146063542D01*
X109183428Y-146063542D02*
X109111999Y-146206400D01*
X109111999Y-146206400D02*
X108969142Y-146277828D01*
X108969142Y-146277828D02*
X108826285Y-146277828D01*
X108326285Y-146277828D02*
X108326285Y-144777828D01*
X107683428Y-146277828D02*
X107683428Y-145492114D01*
X107683428Y-145492114D02*
X107754856Y-145349257D01*
X107754856Y-145349257D02*
X107897713Y-145277828D01*
X107897713Y-145277828D02*
X108111999Y-145277828D01*
X108111999Y-145277828D02*
X108254856Y-145349257D01*
X108254856Y-145349257D02*
X108326285Y-145420685D01*
X141326285Y-148621400D02*
X141112000Y-148692828D01*
X141112000Y-148692828D02*
X140754857Y-148692828D01*
X140754857Y-148692828D02*
X140612000Y-148621400D01*
X140612000Y-148621400D02*
X140540571Y-148549971D01*
X140540571Y-148549971D02*
X140469142Y-148407114D01*
X140469142Y-148407114D02*
X140469142Y-148264257D01*
X140469142Y-148264257D02*
X140540571Y-148121400D01*
X140540571Y-148121400D02*
X140612000Y-148049971D01*
X140612000Y-148049971D02*
X140754857Y-147978542D01*
X140754857Y-147978542D02*
X141040571Y-147907114D01*
X141040571Y-147907114D02*
X141183428Y-147835685D01*
X141183428Y-147835685D02*
X141254857Y-147764257D01*
X141254857Y-147764257D02*
X141326285Y-147621400D01*
X141326285Y-147621400D02*
X141326285Y-147478542D01*
X141326285Y-147478542D02*
X141254857Y-147335685D01*
X141254857Y-147335685D02*
X141183428Y-147264257D01*
X141183428Y-147264257D02*
X141040571Y-147192828D01*
X141040571Y-147192828D02*
X140683428Y-147192828D01*
X140683428Y-147192828D02*
X140469142Y-147264257D01*
X139826286Y-148692828D02*
X139826286Y-147692828D01*
X139826286Y-147192828D02*
X139897714Y-147264257D01*
X139897714Y-147264257D02*
X139826286Y-147335685D01*
X139826286Y-147335685D02*
X139754857Y-147264257D01*
X139754857Y-147264257D02*
X139826286Y-147192828D01*
X139826286Y-147192828D02*
X139826286Y-147335685D01*
X139112000Y-148692828D02*
X139112000Y-147692828D01*
X139112000Y-147835685D02*
X139040571Y-147764257D01*
X139040571Y-147764257D02*
X138897714Y-147692828D01*
X138897714Y-147692828D02*
X138683428Y-147692828D01*
X138683428Y-147692828D02*
X138540571Y-147764257D01*
X138540571Y-147764257D02*
X138469143Y-147907114D01*
X138469143Y-147907114D02*
X138469143Y-148692828D01*
X138469143Y-147907114D02*
X138397714Y-147764257D01*
X138397714Y-147764257D02*
X138254857Y-147692828D01*
X138254857Y-147692828D02*
X138040571Y-147692828D01*
X138040571Y-147692828D02*
X137897714Y-147764257D01*
X137897714Y-147764257D02*
X137826285Y-147907114D01*
X137826285Y-147907114D02*
X137826285Y-148692828D01*
X136897714Y-148692828D02*
X137040571Y-148621400D01*
X137040571Y-148621400D02*
X137112000Y-148549971D01*
X137112000Y-148549971D02*
X137183428Y-148407114D01*
X137183428Y-148407114D02*
X137183428Y-147978542D01*
X137183428Y-147978542D02*
X137112000Y-147835685D01*
X137112000Y-147835685D02*
X137040571Y-147764257D01*
X137040571Y-147764257D02*
X136897714Y-147692828D01*
X136897714Y-147692828D02*
X136683428Y-147692828D01*
X136683428Y-147692828D02*
X136540571Y-147764257D01*
X136540571Y-147764257D02*
X136469143Y-147835685D01*
X136469143Y-147835685D02*
X136397714Y-147978542D01*
X136397714Y-147978542D02*
X136397714Y-148407114D01*
X136397714Y-148407114D02*
X136469143Y-148549971D01*
X136469143Y-148549971D02*
X136540571Y-148621400D01*
X136540571Y-148621400D02*
X136683428Y-148692828D01*
X136683428Y-148692828D02*
X136897714Y-148692828D01*
X135754857Y-147692828D02*
X135754857Y-148692828D01*
X135754857Y-147835685D02*
X135683428Y-147764257D01*
X135683428Y-147764257D02*
X135540571Y-147692828D01*
X135540571Y-147692828D02*
X135326285Y-147692828D01*
X135326285Y-147692828D02*
X135183428Y-147764257D01*
X135183428Y-147764257D02*
X135112000Y-147907114D01*
X135112000Y-147907114D02*
X135112000Y-148692828D01*
X133826285Y-148621400D02*
X133969142Y-148692828D01*
X133969142Y-148692828D02*
X134254857Y-148692828D01*
X134254857Y-148692828D02*
X134397714Y-148621400D01*
X134397714Y-148621400D02*
X134469142Y-148478542D01*
X134469142Y-148478542D02*
X134469142Y-147907114D01*
X134469142Y-147907114D02*
X134397714Y-147764257D01*
X134397714Y-147764257D02*
X134254857Y-147692828D01*
X134254857Y-147692828D02*
X133969142Y-147692828D01*
X133969142Y-147692828D02*
X133826285Y-147764257D01*
X133826285Y-147764257D02*
X133754857Y-147907114D01*
X133754857Y-147907114D02*
X133754857Y-148049971D01*
X133754857Y-148049971D02*
X134469142Y-148192828D01*
X131112000Y-148549971D02*
X131183428Y-148621400D01*
X131183428Y-148621400D02*
X131397714Y-148692828D01*
X131397714Y-148692828D02*
X131540571Y-148692828D01*
X131540571Y-148692828D02*
X131754857Y-148621400D01*
X131754857Y-148621400D02*
X131897714Y-148478542D01*
X131897714Y-148478542D02*
X131969143Y-148335685D01*
X131969143Y-148335685D02*
X132040571Y-148049971D01*
X132040571Y-148049971D02*
X132040571Y-147835685D01*
X132040571Y-147835685D02*
X131969143Y-147549971D01*
X131969143Y-147549971D02*
X131897714Y-147407114D01*
X131897714Y-147407114D02*
X131754857Y-147264257D01*
X131754857Y-147264257D02*
X131540571Y-147192828D01*
X131540571Y-147192828D02*
X131397714Y-147192828D01*
X131397714Y-147192828D02*
X131183428Y-147264257D01*
X131183428Y-147264257D02*
X131112000Y-147335685D01*
X129826286Y-148692828D02*
X129826286Y-147907114D01*
X129826286Y-147907114D02*
X129897714Y-147764257D01*
X129897714Y-147764257D02*
X130040571Y-147692828D01*
X130040571Y-147692828D02*
X130326286Y-147692828D01*
X130326286Y-147692828D02*
X130469143Y-147764257D01*
X129826286Y-148621400D02*
X129969143Y-148692828D01*
X129969143Y-148692828D02*
X130326286Y-148692828D01*
X130326286Y-148692828D02*
X130469143Y-148621400D01*
X130469143Y-148621400D02*
X130540571Y-148478542D01*
X130540571Y-148478542D02*
X130540571Y-148335685D01*
X130540571Y-148335685D02*
X130469143Y-148192828D01*
X130469143Y-148192828D02*
X130326286Y-148121400D01*
X130326286Y-148121400D02*
X129969143Y-148121400D01*
X129969143Y-148121400D02*
X129826286Y-148049971D01*
X129112000Y-148692828D02*
X129112000Y-147692828D01*
X129112000Y-147978542D02*
X129040571Y-147835685D01*
X129040571Y-147835685D02*
X128969143Y-147764257D01*
X128969143Y-147764257D02*
X128826285Y-147692828D01*
X128826285Y-147692828D02*
X128683428Y-147692828D01*
X127540572Y-147692828D02*
X127540572Y-148907114D01*
X127540572Y-148907114D02*
X127612000Y-149049971D01*
X127612000Y-149049971D02*
X127683429Y-149121400D01*
X127683429Y-149121400D02*
X127826286Y-149192828D01*
X127826286Y-149192828D02*
X128040572Y-149192828D01*
X128040572Y-149192828D02*
X128183429Y-149121400D01*
X127540572Y-148621400D02*
X127683429Y-148692828D01*
X127683429Y-148692828D02*
X127969143Y-148692828D01*
X127969143Y-148692828D02*
X128112000Y-148621400D01*
X128112000Y-148621400D02*
X128183429Y-148549971D01*
X128183429Y-148549971D02*
X128254857Y-148407114D01*
X128254857Y-148407114D02*
X128254857Y-147978542D01*
X128254857Y-147978542D02*
X128183429Y-147835685D01*
X128183429Y-147835685D02*
X128112000Y-147764257D01*
X128112000Y-147764257D02*
X127969143Y-147692828D01*
X127969143Y-147692828D02*
X127683429Y-147692828D01*
X127683429Y-147692828D02*
X127540572Y-147764257D01*
X126826286Y-147692828D02*
X126826286Y-148692828D01*
X126826286Y-147835685D02*
X126754857Y-147764257D01*
X126754857Y-147764257D02*
X126612000Y-147692828D01*
X126612000Y-147692828D02*
X126397714Y-147692828D01*
X126397714Y-147692828D02*
X126254857Y-147764257D01*
X126254857Y-147764257D02*
X126183429Y-147907114D01*
X126183429Y-147907114D02*
X126183429Y-148692828D01*
X125469143Y-148692828D02*
X125469143Y-147692828D01*
X125469143Y-147192828D02*
X125540571Y-147264257D01*
X125540571Y-147264257D02*
X125469143Y-147335685D01*
X125469143Y-147335685D02*
X125397714Y-147264257D01*
X125397714Y-147264257D02*
X125469143Y-147192828D01*
X125469143Y-147192828D02*
X125469143Y-147335685D01*
X124754857Y-147692828D02*
X124754857Y-148692828D01*
X124754857Y-147835685D02*
X124683428Y-147764257D01*
X124683428Y-147764257D02*
X124540571Y-147692828D01*
X124540571Y-147692828D02*
X124326285Y-147692828D01*
X124326285Y-147692828D02*
X124183428Y-147764257D01*
X124183428Y-147764257D02*
X124112000Y-147907114D01*
X124112000Y-147907114D02*
X124112000Y-148692828D01*
X121040571Y-148692828D02*
X121112000Y-148692828D01*
X121112000Y-148692828D02*
X121254857Y-148621400D01*
X121254857Y-148621400D02*
X121469142Y-148407114D01*
X121469142Y-148407114D02*
X121826285Y-147978542D01*
X121826285Y-147978542D02*
X121969142Y-147764257D01*
X121969142Y-147764257D02*
X122040571Y-147549971D01*
X122040571Y-147549971D02*
X122040571Y-147407114D01*
X122040571Y-147407114D02*
X121969142Y-147264257D01*
X121969142Y-147264257D02*
X121826285Y-147192828D01*
X121826285Y-147192828D02*
X121754857Y-147192828D01*
X121754857Y-147192828D02*
X121612000Y-147264257D01*
X121612000Y-147264257D02*
X121540571Y-147407114D01*
X121540571Y-147407114D02*
X121540571Y-147478542D01*
X121540571Y-147478542D02*
X121612000Y-147621400D01*
X121612000Y-147621400D02*
X121683428Y-147692828D01*
X121683428Y-147692828D02*
X122112000Y-147978542D01*
X122112000Y-147978542D02*
X122183428Y-148049971D01*
X122183428Y-148049971D02*
X122254857Y-148192828D01*
X122254857Y-148192828D02*
X122254857Y-148407114D01*
X122254857Y-148407114D02*
X122183428Y-148549971D01*
X122183428Y-148549971D02*
X122112000Y-148621400D01*
X122112000Y-148621400D02*
X121969142Y-148692828D01*
X121969142Y-148692828D02*
X121754857Y-148692828D01*
X121754857Y-148692828D02*
X121612000Y-148621400D01*
X121612000Y-148621400D02*
X121540571Y-148549971D01*
X121540571Y-148549971D02*
X121326285Y-148264257D01*
X121326285Y-148264257D02*
X121254857Y-148049971D01*
X121254857Y-148049971D02*
X121254857Y-147907114D01*
X119469142Y-147192828D02*
X118969142Y-148692828D01*
X118969142Y-148692828D02*
X118469142Y-147192828D01*
X117969143Y-148692828D02*
X117969143Y-147692828D01*
X117969143Y-147192828D02*
X118040571Y-147264257D01*
X118040571Y-147264257D02*
X117969143Y-147335685D01*
X117969143Y-147335685D02*
X117897714Y-147264257D01*
X117897714Y-147264257D02*
X117969143Y-147192828D01*
X117969143Y-147192828D02*
X117969143Y-147335685D01*
X117469142Y-147692828D02*
X116897714Y-147692828D01*
X117254857Y-147192828D02*
X117254857Y-148478542D01*
X117254857Y-148478542D02*
X117183428Y-148621400D01*
X117183428Y-148621400D02*
X117040571Y-148692828D01*
X117040571Y-148692828D02*
X116897714Y-148692828D01*
X116611999Y-147692828D02*
X116040571Y-147692828D01*
X116397714Y-147192828D02*
X116397714Y-148478542D01*
X116397714Y-148478542D02*
X116326285Y-148621400D01*
X116326285Y-148621400D02*
X116183428Y-148692828D01*
X116183428Y-148692828D02*
X116040571Y-148692828D01*
X115326285Y-148692828D02*
X115469142Y-148621400D01*
X115469142Y-148621400D02*
X115540571Y-148549971D01*
X115540571Y-148549971D02*
X115611999Y-148407114D01*
X115611999Y-148407114D02*
X115611999Y-147978542D01*
X115611999Y-147978542D02*
X115540571Y-147835685D01*
X115540571Y-147835685D02*
X115469142Y-147764257D01*
X115469142Y-147764257D02*
X115326285Y-147692828D01*
X115326285Y-147692828D02*
X115111999Y-147692828D01*
X115111999Y-147692828D02*
X114969142Y-147764257D01*
X114969142Y-147764257D02*
X114897714Y-147835685D01*
X114897714Y-147835685D02*
X114826285Y-147978542D01*
X114826285Y-147978542D02*
X114826285Y-148407114D01*
X114826285Y-148407114D02*
X114897714Y-148549971D01*
X114897714Y-148549971D02*
X114969142Y-148621400D01*
X114969142Y-148621400D02*
X115111999Y-148692828D01*
X115111999Y-148692828D02*
X115326285Y-148692828D01*
X114183428Y-148692828D02*
X114183428Y-147692828D01*
X114183428Y-147978542D02*
X114111999Y-147835685D01*
X114111999Y-147835685D02*
X114040571Y-147764257D01*
X114040571Y-147764257D02*
X113897713Y-147692828D01*
X113897713Y-147692828D02*
X113754856Y-147692828D01*
X113254857Y-148692828D02*
X113254857Y-147692828D01*
X113254857Y-147192828D02*
X113326285Y-147264257D01*
X113326285Y-147264257D02*
X113254857Y-147335685D01*
X113254857Y-147335685D02*
X113183428Y-147264257D01*
X113183428Y-147264257D02*
X113254857Y-147192828D01*
X113254857Y-147192828D02*
X113254857Y-147335685D01*
X112326285Y-148692828D02*
X112469142Y-148621400D01*
X112469142Y-148621400D02*
X112540571Y-148549971D01*
X112540571Y-148549971D02*
X112611999Y-148407114D01*
X112611999Y-148407114D02*
X112611999Y-147978542D01*
X112611999Y-147978542D02*
X112540571Y-147835685D01*
X112540571Y-147835685D02*
X112469142Y-147764257D01*
X112469142Y-147764257D02*
X112326285Y-147692828D01*
X112326285Y-147692828D02*
X112111999Y-147692828D01*
X112111999Y-147692828D02*
X111969142Y-147764257D01*
X111969142Y-147764257D02*
X111897714Y-147835685D01*
X111897714Y-147835685D02*
X111826285Y-147978542D01*
X111826285Y-147978542D02*
X111826285Y-148407114D01*
X111826285Y-148407114D02*
X111897714Y-148549971D01*
X111897714Y-148549971D02*
X111969142Y-148621400D01*
X111969142Y-148621400D02*
X112111999Y-148692828D01*
X112111999Y-148692828D02*
X112326285Y-148692828D01*
X110111999Y-148621400D02*
X109897714Y-148692828D01*
X109897714Y-148692828D02*
X109540571Y-148692828D01*
X109540571Y-148692828D02*
X109397714Y-148621400D01*
X109397714Y-148621400D02*
X109326285Y-148549971D01*
X109326285Y-148549971D02*
X109254856Y-148407114D01*
X109254856Y-148407114D02*
X109254856Y-148264257D01*
X109254856Y-148264257D02*
X109326285Y-148121400D01*
X109326285Y-148121400D02*
X109397714Y-148049971D01*
X109397714Y-148049971D02*
X109540571Y-147978542D01*
X109540571Y-147978542D02*
X109826285Y-147907114D01*
X109826285Y-147907114D02*
X109969142Y-147835685D01*
X109969142Y-147835685D02*
X110040571Y-147764257D01*
X110040571Y-147764257D02*
X110111999Y-147621400D01*
X110111999Y-147621400D02*
X110111999Y-147478542D01*
X110111999Y-147478542D02*
X110040571Y-147335685D01*
X110040571Y-147335685D02*
X109969142Y-147264257D01*
X109969142Y-147264257D02*
X109826285Y-147192828D01*
X109826285Y-147192828D02*
X109469142Y-147192828D01*
X109469142Y-147192828D02*
X109254856Y-147264257D01*
X108040571Y-148621400D02*
X108183428Y-148692828D01*
X108183428Y-148692828D02*
X108469143Y-148692828D01*
X108469143Y-148692828D02*
X108612000Y-148621400D01*
X108612000Y-148621400D02*
X108683428Y-148478542D01*
X108683428Y-148478542D02*
X108683428Y-147907114D01*
X108683428Y-147907114D02*
X108612000Y-147764257D01*
X108612000Y-147764257D02*
X108469143Y-147692828D01*
X108469143Y-147692828D02*
X108183428Y-147692828D01*
X108183428Y-147692828D02*
X108040571Y-147764257D01*
X108040571Y-147764257D02*
X107969143Y-147907114D01*
X107969143Y-147907114D02*
X107969143Y-148049971D01*
X107969143Y-148049971D02*
X108683428Y-148192828D01*
X106683429Y-148692828D02*
X106683429Y-147192828D01*
X106683429Y-148621400D02*
X106826286Y-148692828D01*
X106826286Y-148692828D02*
X107112000Y-148692828D01*
X107112000Y-148692828D02*
X107254857Y-148621400D01*
X107254857Y-148621400D02*
X107326286Y-148549971D01*
X107326286Y-148549971D02*
X107397714Y-148407114D01*
X107397714Y-148407114D02*
X107397714Y-147978542D01*
X107397714Y-147978542D02*
X107326286Y-147835685D01*
X107326286Y-147835685D02*
X107254857Y-147764257D01*
X107254857Y-147764257D02*
X107112000Y-147692828D01*
X107112000Y-147692828D02*
X106826286Y-147692828D01*
X106826286Y-147692828D02*
X106683429Y-147764257D01*
X105326286Y-148692828D02*
X105326286Y-147192828D01*
X105326286Y-148621400D02*
X105469143Y-148692828D01*
X105469143Y-148692828D02*
X105754857Y-148692828D01*
X105754857Y-148692828D02*
X105897714Y-148621400D01*
X105897714Y-148621400D02*
X105969143Y-148549971D01*
X105969143Y-148549971D02*
X106040571Y-148407114D01*
X106040571Y-148407114D02*
X106040571Y-147978542D01*
X106040571Y-147978542D02*
X105969143Y-147835685D01*
X105969143Y-147835685D02*
X105897714Y-147764257D01*
X105897714Y-147764257D02*
X105754857Y-147692828D01*
X105754857Y-147692828D02*
X105469143Y-147692828D01*
X105469143Y-147692828D02*
X105326286Y-147764257D01*
X103969143Y-148692828D02*
X103969143Y-147907114D01*
X103969143Y-147907114D02*
X104040571Y-147764257D01*
X104040571Y-147764257D02*
X104183428Y-147692828D01*
X104183428Y-147692828D02*
X104469143Y-147692828D01*
X104469143Y-147692828D02*
X104612000Y-147764257D01*
X103969143Y-148621400D02*
X104112000Y-148692828D01*
X104112000Y-148692828D02*
X104469143Y-148692828D01*
X104469143Y-148692828D02*
X104612000Y-148621400D01*
X104612000Y-148621400D02*
X104683428Y-148478542D01*
X104683428Y-148478542D02*
X104683428Y-148335685D01*
X104683428Y-148335685D02*
X104612000Y-148192828D01*
X104612000Y-148192828D02*
X104469143Y-148121400D01*
X104469143Y-148121400D02*
X104112000Y-148121400D01*
X104112000Y-148121400D02*
X103969143Y-148049971D01*
D10*
X111154657Y-75044173D02*
X111154657Y-75615601D01*
X111154657Y-75615601D02*
X112354657Y-75615601D01*
X112354657Y-74758458D02*
X112354657Y-73958458D01*
X112354657Y-73958458D02*
X111154657Y-74472744D01*
X111840371Y-73329887D02*
X111897514Y-73444172D01*
X111897514Y-73444172D02*
X111954657Y-73501315D01*
X111954657Y-73501315D02*
X112068942Y-73558458D01*
X112068942Y-73558458D02*
X112126085Y-73558458D01*
X112126085Y-73558458D02*
X112240371Y-73501315D01*
X112240371Y-73501315D02*
X112297514Y-73444172D01*
X112297514Y-73444172D02*
X112354657Y-73329887D01*
X112354657Y-73329887D02*
X112354657Y-73101315D01*
X112354657Y-73101315D02*
X112297514Y-72987030D01*
X112297514Y-72987030D02*
X112240371Y-72929887D01*
X112240371Y-72929887D02*
X112126085Y-72872744D01*
X112126085Y-72872744D02*
X112068942Y-72872744D01*
X112068942Y-72872744D02*
X111954657Y-72929887D01*
X111954657Y-72929887D02*
X111897514Y-72987030D01*
X111897514Y-72987030D02*
X111840371Y-73101315D01*
X111840371Y-73101315D02*
X111840371Y-73329887D01*
X111840371Y-73329887D02*
X111783228Y-73444172D01*
X111783228Y-73444172D02*
X111726085Y-73501315D01*
X111726085Y-73501315D02*
X111611800Y-73558458D01*
X111611800Y-73558458D02*
X111383228Y-73558458D01*
X111383228Y-73558458D02*
X111268942Y-73501315D01*
X111268942Y-73501315D02*
X111211800Y-73444172D01*
X111211800Y-73444172D02*
X111154657Y-73329887D01*
X111154657Y-73329887D02*
X111154657Y-73101315D01*
X111154657Y-73101315D02*
X111211800Y-72987030D01*
X111211800Y-72987030D02*
X111268942Y-72929887D01*
X111268942Y-72929887D02*
X111383228Y-72872744D01*
X111383228Y-72872744D02*
X111611800Y-72872744D01*
X111611800Y-72872744D02*
X111726085Y-72929887D01*
X111726085Y-72929887D02*
X111783228Y-72987030D01*
X111783228Y-72987030D02*
X111840371Y-73101315D01*
X112354657Y-72129887D02*
X112354657Y-72015601D01*
X112354657Y-72015601D02*
X112297514Y-71901315D01*
X112297514Y-71901315D02*
X112240371Y-71844173D01*
X112240371Y-71844173D02*
X112126085Y-71787030D01*
X112126085Y-71787030D02*
X111897514Y-71729887D01*
X111897514Y-71729887D02*
X111611800Y-71729887D01*
X111611800Y-71729887D02*
X111383228Y-71787030D01*
X111383228Y-71787030D02*
X111268942Y-71844173D01*
X111268942Y-71844173D02*
X111211800Y-71901315D01*
X111211800Y-71901315D02*
X111154657Y-72015601D01*
X111154657Y-72015601D02*
X111154657Y-72129887D01*
X111154657Y-72129887D02*
X111211800Y-72244173D01*
X111211800Y-72244173D02*
X111268942Y-72301315D01*
X111268942Y-72301315D02*
X111383228Y-72358458D01*
X111383228Y-72358458D02*
X111611800Y-72415601D01*
X111611800Y-72415601D02*
X111897514Y-72415601D01*
X111897514Y-72415601D02*
X112126085Y-72358458D01*
X112126085Y-72358458D02*
X112240371Y-72301315D01*
X112240371Y-72301315D02*
X112297514Y-72244173D01*
X112297514Y-72244173D02*
X112354657Y-72129887D01*
X112354657Y-70644173D02*
X112354657Y-71215601D01*
X112354657Y-71215601D02*
X111783228Y-71272744D01*
X111783228Y-71272744D02*
X111840371Y-71215601D01*
X111840371Y-71215601D02*
X111897514Y-71101316D01*
X111897514Y-71101316D02*
X111897514Y-70815601D01*
X111897514Y-70815601D02*
X111840371Y-70701316D01*
X111840371Y-70701316D02*
X111783228Y-70644173D01*
X111783228Y-70644173D02*
X111668942Y-70587030D01*
X111668942Y-70587030D02*
X111383228Y-70587030D01*
X111383228Y-70587030D02*
X111268942Y-70644173D01*
X111268942Y-70644173D02*
X111211800Y-70701316D01*
X111211800Y-70701316D02*
X111154657Y-70815601D01*
X111154657Y-70815601D02*
X111154657Y-71101316D01*
X111154657Y-71101316D02*
X111211800Y-71215601D01*
X111211800Y-71215601D02*
X111268942Y-71272744D01*
D11*
X145185600Y-144499999D02*
X145114171Y-144285714D01*
X145114171Y-144285714D02*
X145114171Y-143928571D01*
X145114171Y-143928571D02*
X145185600Y-143785714D01*
X145185600Y-143785714D02*
X145257028Y-143714285D01*
X145257028Y-143714285D02*
X145399885Y-143642856D01*
X145399885Y-143642856D02*
X145542742Y-143642856D01*
X145542742Y-143642856D02*
X145685600Y-143714285D01*
X145685600Y-143714285D02*
X145757028Y-143785714D01*
X145757028Y-143785714D02*
X145828457Y-143928571D01*
X145828457Y-143928571D02*
X145899885Y-144214285D01*
X145899885Y-144214285D02*
X145971314Y-144357142D01*
X145971314Y-144357142D02*
X146042742Y-144428571D01*
X146042742Y-144428571D02*
X146185600Y-144499999D01*
X146185600Y-144499999D02*
X146328457Y-144499999D01*
X146328457Y-144499999D02*
X146471314Y-144428571D01*
X146471314Y-144428571D02*
X146542742Y-144357142D01*
X146542742Y-144357142D02*
X146614171Y-144214285D01*
X146614171Y-144214285D02*
X146614171Y-143857142D01*
X146614171Y-143857142D02*
X146542742Y-143642856D01*
X145114171Y-143000000D02*
X146614171Y-143000000D01*
X146042742Y-143000000D02*
X146114171Y-142857143D01*
X146114171Y-142857143D02*
X146114171Y-142571428D01*
X146114171Y-142571428D02*
X146042742Y-142428571D01*
X146042742Y-142428571D02*
X145971314Y-142357143D01*
X145971314Y-142357143D02*
X145828457Y-142285714D01*
X145828457Y-142285714D02*
X145399885Y-142285714D01*
X145399885Y-142285714D02*
X145257028Y-142357143D01*
X145257028Y-142357143D02*
X145185600Y-142428571D01*
X145185600Y-142428571D02*
X145114171Y-142571428D01*
X145114171Y-142571428D02*
X145114171Y-142857143D01*
X145114171Y-142857143D02*
X145185600Y-143000000D01*
X145114171Y-141642857D02*
X146114171Y-141642857D01*
X146614171Y-141642857D02*
X146542742Y-141714285D01*
X146542742Y-141714285D02*
X146471314Y-141642857D01*
X146471314Y-141642857D02*
X146542742Y-141571428D01*
X146542742Y-141571428D02*
X146614171Y-141642857D01*
X146614171Y-141642857D02*
X146471314Y-141642857D01*
X145114171Y-140928571D02*
X146114171Y-140928571D01*
X145828457Y-140928571D02*
X145971314Y-140857142D01*
X145971314Y-140857142D02*
X146042742Y-140785714D01*
X146042742Y-140785714D02*
X146114171Y-140642856D01*
X146114171Y-140642856D02*
X146114171Y-140499999D01*
X145114171Y-140000000D02*
X146114171Y-140000000D01*
X145828457Y-140000000D02*
X145971314Y-139928571D01*
X145971314Y-139928571D02*
X146042742Y-139857143D01*
X146042742Y-139857143D02*
X146114171Y-139714285D01*
X146114171Y-139714285D02*
X146114171Y-139571428D01*
X145114171Y-138857143D02*
X145185600Y-139000000D01*
X145185600Y-139000000D02*
X145257028Y-139071429D01*
X145257028Y-139071429D02*
X145399885Y-139142857D01*
X145399885Y-139142857D02*
X145828457Y-139142857D01*
X145828457Y-139142857D02*
X145971314Y-139071429D01*
X145971314Y-139071429D02*
X146042742Y-139000000D01*
X146042742Y-139000000D02*
X146114171Y-138857143D01*
X146114171Y-138857143D02*
X146114171Y-138642857D01*
X146114171Y-138642857D02*
X146042742Y-138500000D01*
X146042742Y-138500000D02*
X145971314Y-138428572D01*
X145971314Y-138428572D02*
X145828457Y-138357143D01*
X145828457Y-138357143D02*
X145399885Y-138357143D01*
X145399885Y-138357143D02*
X145257028Y-138428572D01*
X145257028Y-138428572D02*
X145185600Y-138500000D01*
X145185600Y-138500000D02*
X145114171Y-138642857D01*
X145114171Y-138642857D02*
X145114171Y-138857143D01*
X146114171Y-135928572D02*
X144899885Y-135928572D01*
X144899885Y-135928572D02*
X144757028Y-136000000D01*
X144757028Y-136000000D02*
X144685600Y-136071429D01*
X144685600Y-136071429D02*
X144614171Y-136214286D01*
X144614171Y-136214286D02*
X144614171Y-136428572D01*
X144614171Y-136428572D02*
X144685600Y-136571429D01*
X145185600Y-135928572D02*
X145114171Y-136071429D01*
X145114171Y-136071429D02*
X145114171Y-136357143D01*
X145114171Y-136357143D02*
X145185600Y-136500000D01*
X145185600Y-136500000D02*
X145257028Y-136571429D01*
X145257028Y-136571429D02*
X145399885Y-136642857D01*
X145399885Y-136642857D02*
X145828457Y-136642857D01*
X145828457Y-136642857D02*
X145971314Y-136571429D01*
X145971314Y-136571429D02*
X146042742Y-136500000D01*
X146042742Y-136500000D02*
X146114171Y-136357143D01*
X146114171Y-136357143D02*
X146114171Y-136071429D01*
X146114171Y-136071429D02*
X146042742Y-135928572D01*
X146114171Y-134571429D02*
X145114171Y-134571429D01*
X146114171Y-135214286D02*
X145328457Y-135214286D01*
X145328457Y-135214286D02*
X145185600Y-135142857D01*
X145185600Y-135142857D02*
X145114171Y-135000000D01*
X145114171Y-135000000D02*
X145114171Y-134785714D01*
X145114171Y-134785714D02*
X145185600Y-134642857D01*
X145185600Y-134642857D02*
X145257028Y-134571429D01*
X145114171Y-133214286D02*
X145899885Y-133214286D01*
X145899885Y-133214286D02*
X146042742Y-133285714D01*
X146042742Y-133285714D02*
X146114171Y-133428571D01*
X146114171Y-133428571D02*
X146114171Y-133714286D01*
X146114171Y-133714286D02*
X146042742Y-133857143D01*
X145185600Y-133214286D02*
X145114171Y-133357143D01*
X145114171Y-133357143D02*
X145114171Y-133714286D01*
X145114171Y-133714286D02*
X145185600Y-133857143D01*
X145185600Y-133857143D02*
X145328457Y-133928571D01*
X145328457Y-133928571D02*
X145471314Y-133928571D01*
X145471314Y-133928571D02*
X145614171Y-133857143D01*
X145614171Y-133857143D02*
X145685600Y-133714286D01*
X145685600Y-133714286D02*
X145685600Y-133357143D01*
X145685600Y-133357143D02*
X145757028Y-133214286D01*
X145114171Y-132500000D02*
X146114171Y-132500000D01*
X145828457Y-132500000D02*
X145971314Y-132428571D01*
X145971314Y-132428571D02*
X146042742Y-132357143D01*
X146042742Y-132357143D02*
X146114171Y-132214285D01*
X146114171Y-132214285D02*
X146114171Y-132071428D01*
X145114171Y-130928572D02*
X146614171Y-130928572D01*
X145185600Y-130928572D02*
X145114171Y-131071429D01*
X145114171Y-131071429D02*
X145114171Y-131357143D01*
X145114171Y-131357143D02*
X145185600Y-131500000D01*
X145185600Y-131500000D02*
X145257028Y-131571429D01*
X145257028Y-131571429D02*
X145399885Y-131642857D01*
X145399885Y-131642857D02*
X145828457Y-131642857D01*
X145828457Y-131642857D02*
X145971314Y-131571429D01*
X145971314Y-131571429D02*
X146042742Y-131500000D01*
X146042742Y-131500000D02*
X146114171Y-131357143D01*
X146114171Y-131357143D02*
X146114171Y-131071429D01*
X146114171Y-131071429D02*
X146042742Y-130928572D01*
X145114171Y-129571429D02*
X145899885Y-129571429D01*
X145899885Y-129571429D02*
X146042742Y-129642857D01*
X146042742Y-129642857D02*
X146114171Y-129785714D01*
X146114171Y-129785714D02*
X146114171Y-130071429D01*
X146114171Y-130071429D02*
X146042742Y-130214286D01*
X145185600Y-129571429D02*
X145114171Y-129714286D01*
X145114171Y-129714286D02*
X145114171Y-130071429D01*
X145114171Y-130071429D02*
X145185600Y-130214286D01*
X145185600Y-130214286D02*
X145328457Y-130285714D01*
X145328457Y-130285714D02*
X145471314Y-130285714D01*
X145471314Y-130285714D02*
X145614171Y-130214286D01*
X145614171Y-130214286D02*
X145685600Y-130071429D01*
X145685600Y-130071429D02*
X145685600Y-129714286D01*
X145685600Y-129714286D02*
X145757028Y-129571429D01*
X146114171Y-127071429D02*
X145114171Y-127071429D01*
X146114171Y-127714286D02*
X145328457Y-127714286D01*
X145328457Y-127714286D02*
X145185600Y-127642857D01*
X145185600Y-127642857D02*
X145114171Y-127500000D01*
X145114171Y-127500000D02*
X145114171Y-127285714D01*
X145114171Y-127285714D02*
X145185600Y-127142857D01*
X145185600Y-127142857D02*
X145257028Y-127071429D01*
X146114171Y-126357143D02*
X145114171Y-126357143D01*
X145971314Y-126357143D02*
X146042742Y-126285714D01*
X146042742Y-126285714D02*
X146114171Y-126142857D01*
X146114171Y-126142857D02*
X146114171Y-125928571D01*
X146114171Y-125928571D02*
X146042742Y-125785714D01*
X146042742Y-125785714D02*
X145899885Y-125714286D01*
X145899885Y-125714286D02*
X145114171Y-125714286D01*
X146114171Y-123857143D02*
X144614171Y-123857143D01*
X146042742Y-123857143D02*
X146114171Y-123714286D01*
X146114171Y-123714286D02*
X146114171Y-123428571D01*
X146114171Y-123428571D02*
X146042742Y-123285714D01*
X146042742Y-123285714D02*
X145971314Y-123214286D01*
X145971314Y-123214286D02*
X145828457Y-123142857D01*
X145828457Y-123142857D02*
X145399885Y-123142857D01*
X145399885Y-123142857D02*
X145257028Y-123214286D01*
X145257028Y-123214286D02*
X145185600Y-123285714D01*
X145185600Y-123285714D02*
X145114171Y-123428571D01*
X145114171Y-123428571D02*
X145114171Y-123714286D01*
X145114171Y-123714286D02*
X145185600Y-123857143D01*
X145114171Y-122285714D02*
X145185600Y-122428571D01*
X145185600Y-122428571D02*
X145257028Y-122500000D01*
X145257028Y-122500000D02*
X145399885Y-122571428D01*
X145399885Y-122571428D02*
X145828457Y-122571428D01*
X145828457Y-122571428D02*
X145971314Y-122500000D01*
X145971314Y-122500000D02*
X146042742Y-122428571D01*
X146042742Y-122428571D02*
X146114171Y-122285714D01*
X146114171Y-122285714D02*
X146114171Y-122071428D01*
X146114171Y-122071428D02*
X146042742Y-121928571D01*
X146042742Y-121928571D02*
X145971314Y-121857143D01*
X145971314Y-121857143D02*
X145828457Y-121785714D01*
X145828457Y-121785714D02*
X145399885Y-121785714D01*
X145399885Y-121785714D02*
X145257028Y-121857143D01*
X145257028Y-121857143D02*
X145185600Y-121928571D01*
X145185600Y-121928571D02*
X145114171Y-122071428D01*
X145114171Y-122071428D02*
X145114171Y-122285714D01*
X146614171Y-121071428D02*
X146328457Y-121214285D01*
X146114171Y-119285714D02*
X144614171Y-119285714D01*
X146042742Y-119285714D02*
X146114171Y-119142857D01*
X146114171Y-119142857D02*
X146114171Y-118857142D01*
X146114171Y-118857142D02*
X146042742Y-118714285D01*
X146042742Y-118714285D02*
X145971314Y-118642857D01*
X145971314Y-118642857D02*
X145828457Y-118571428D01*
X145828457Y-118571428D02*
X145399885Y-118571428D01*
X145399885Y-118571428D02*
X145257028Y-118642857D01*
X145257028Y-118642857D02*
X145185600Y-118714285D01*
X145185600Y-118714285D02*
X145114171Y-118857142D01*
X145114171Y-118857142D02*
X145114171Y-119142857D01*
X145114171Y-119142857D02*
X145185600Y-119285714D01*
X145114171Y-117928571D02*
X146114171Y-117928571D01*
X146614171Y-117928571D02*
X146542742Y-117999999D01*
X146542742Y-117999999D02*
X146471314Y-117928571D01*
X146471314Y-117928571D02*
X146542742Y-117857142D01*
X146542742Y-117857142D02*
X146614171Y-117928571D01*
X146614171Y-117928571D02*
X146471314Y-117928571D01*
X146114171Y-116571428D02*
X145114171Y-116571428D01*
X146114171Y-117214285D02*
X145328457Y-117214285D01*
X145328457Y-117214285D02*
X145185600Y-117142856D01*
X145185600Y-117142856D02*
X145114171Y-116999999D01*
X145114171Y-116999999D02*
X145114171Y-116785713D01*
X145114171Y-116785713D02*
X145185600Y-116642856D01*
X145185600Y-116642856D02*
X145257028Y-116571428D01*
X146685600Y-116999999D02*
X146471314Y-116785713D01*
X145114171Y-114714285D02*
X146114171Y-114714285D01*
X146614171Y-114714285D02*
X146542742Y-114785713D01*
X146542742Y-114785713D02*
X146471314Y-114714285D01*
X146471314Y-114714285D02*
X146542742Y-114642856D01*
X146542742Y-114642856D02*
X146614171Y-114714285D01*
X146614171Y-114714285D02*
X146471314Y-114714285D01*
X146114171Y-113999999D02*
X145114171Y-113999999D01*
X145971314Y-113999999D02*
X146042742Y-113928570D01*
X146042742Y-113928570D02*
X146114171Y-113785713D01*
X146114171Y-113785713D02*
X146114171Y-113571427D01*
X146114171Y-113571427D02*
X146042742Y-113428570D01*
X146042742Y-113428570D02*
X145899885Y-113357142D01*
X145899885Y-113357142D02*
X145114171Y-113357142D01*
X145114171Y-111285713D02*
X145185600Y-111428570D01*
X145185600Y-111428570D02*
X145328457Y-111499999D01*
X145328457Y-111499999D02*
X146614171Y-111499999D01*
X145114171Y-110071428D02*
X145899885Y-110071428D01*
X145899885Y-110071428D02*
X146042742Y-110142856D01*
X146042742Y-110142856D02*
X146114171Y-110285713D01*
X146114171Y-110285713D02*
X146114171Y-110571428D01*
X146114171Y-110571428D02*
X146042742Y-110714285D01*
X145185600Y-110071428D02*
X145114171Y-110214285D01*
X145114171Y-110214285D02*
X145114171Y-110571428D01*
X145114171Y-110571428D02*
X145185600Y-110714285D01*
X145185600Y-110714285D02*
X145328457Y-110785713D01*
X145328457Y-110785713D02*
X145471314Y-110785713D01*
X145471314Y-110785713D02*
X145614171Y-110714285D01*
X145614171Y-110714285D02*
X145685600Y-110571428D01*
X145685600Y-110571428D02*
X145685600Y-110214285D01*
X145685600Y-110214285D02*
X145757028Y-110071428D01*
X145114171Y-107571428D02*
X146614171Y-107571428D01*
X145185600Y-107571428D02*
X145114171Y-107714285D01*
X145114171Y-107714285D02*
X145114171Y-107999999D01*
X145114171Y-107999999D02*
X145185600Y-108142856D01*
X145185600Y-108142856D02*
X145257028Y-108214285D01*
X145257028Y-108214285D02*
X145399885Y-108285713D01*
X145399885Y-108285713D02*
X145828457Y-108285713D01*
X145828457Y-108285713D02*
X145971314Y-108214285D01*
X145971314Y-108214285D02*
X146042742Y-108142856D01*
X146042742Y-108142856D02*
X146114171Y-107999999D01*
X146114171Y-107999999D02*
X146114171Y-107714285D01*
X146114171Y-107714285D02*
X146042742Y-107571428D01*
X145185600Y-106285713D02*
X145114171Y-106428570D01*
X145114171Y-106428570D02*
X145114171Y-106714285D01*
X145114171Y-106714285D02*
X145185600Y-106857142D01*
X145185600Y-106857142D02*
X145328457Y-106928570D01*
X145328457Y-106928570D02*
X145899885Y-106928570D01*
X145899885Y-106928570D02*
X146042742Y-106857142D01*
X146042742Y-106857142D02*
X146114171Y-106714285D01*
X146114171Y-106714285D02*
X146114171Y-106428570D01*
X146114171Y-106428570D02*
X146042742Y-106285713D01*
X146042742Y-106285713D02*
X145899885Y-106214285D01*
X145899885Y-106214285D02*
X145757028Y-106214285D01*
X145757028Y-106214285D02*
X145614171Y-106928570D01*
X145114171Y-105357142D02*
X145185600Y-105499999D01*
X145185600Y-105499999D02*
X145328457Y-105571428D01*
X145328457Y-105571428D02*
X146614171Y-105571428D01*
X146114171Y-103857142D02*
X146114171Y-103285714D01*
X146614171Y-103642857D02*
X145328457Y-103642857D01*
X145328457Y-103642857D02*
X145185600Y-103571428D01*
X145185600Y-103571428D02*
X145114171Y-103428571D01*
X145114171Y-103428571D02*
X145114171Y-103285714D01*
X146114171Y-102142857D02*
X145114171Y-102142857D01*
X146114171Y-102785714D02*
X145328457Y-102785714D01*
X145328457Y-102785714D02*
X145185600Y-102714285D01*
X145185600Y-102714285D02*
X145114171Y-102571428D01*
X145114171Y-102571428D02*
X145114171Y-102357142D01*
X145114171Y-102357142D02*
X145185600Y-102214285D01*
X145185600Y-102214285D02*
X145257028Y-102142857D01*
X145114171Y-101214285D02*
X145185600Y-101357142D01*
X145185600Y-101357142D02*
X145257028Y-101428571D01*
X145257028Y-101428571D02*
X145399885Y-101499999D01*
X145399885Y-101499999D02*
X145828457Y-101499999D01*
X145828457Y-101499999D02*
X145971314Y-101428571D01*
X145971314Y-101428571D02*
X146042742Y-101357142D01*
X146042742Y-101357142D02*
X146114171Y-101214285D01*
X146114171Y-101214285D02*
X146114171Y-100999999D01*
X146114171Y-100999999D02*
X146042742Y-100857142D01*
X146042742Y-100857142D02*
X145971314Y-100785714D01*
X145971314Y-100785714D02*
X145828457Y-100714285D01*
X145828457Y-100714285D02*
X145399885Y-100714285D01*
X145399885Y-100714285D02*
X145257028Y-100785714D01*
X145257028Y-100785714D02*
X145185600Y-100857142D01*
X145185600Y-100857142D02*
X145114171Y-100999999D01*
X145114171Y-100999999D02*
X145114171Y-101214285D01*
X145114171Y-98928571D02*
X146614171Y-98928571D01*
X146042742Y-98928571D02*
X146114171Y-98785714D01*
X146114171Y-98785714D02*
X146114171Y-98499999D01*
X146114171Y-98499999D02*
X146042742Y-98357142D01*
X146042742Y-98357142D02*
X145971314Y-98285714D01*
X145971314Y-98285714D02*
X145828457Y-98214285D01*
X145828457Y-98214285D02*
X145399885Y-98214285D01*
X145399885Y-98214285D02*
X145257028Y-98285714D01*
X145257028Y-98285714D02*
X145185600Y-98357142D01*
X145185600Y-98357142D02*
X145114171Y-98499999D01*
X145114171Y-98499999D02*
X145114171Y-98785714D01*
X145114171Y-98785714D02*
X145185600Y-98928571D01*
X145114171Y-97571428D02*
X146114171Y-97571428D01*
X146614171Y-97571428D02*
X146542742Y-97642856D01*
X146542742Y-97642856D02*
X146471314Y-97571428D01*
X146471314Y-97571428D02*
X146542742Y-97499999D01*
X146542742Y-97499999D02*
X146614171Y-97571428D01*
X146614171Y-97571428D02*
X146471314Y-97571428D01*
X146114171Y-96857142D02*
X145114171Y-96857142D01*
X145971314Y-96857142D02*
X146042742Y-96785713D01*
X146042742Y-96785713D02*
X146114171Y-96642856D01*
X146114171Y-96642856D02*
X146114171Y-96428570D01*
X146114171Y-96428570D02*
X146042742Y-96285713D01*
X146042742Y-96285713D02*
X145899885Y-96214285D01*
X145899885Y-96214285D02*
X145114171Y-96214285D01*
X145114171Y-95285713D02*
X145185600Y-95428570D01*
X145185600Y-95428570D02*
X145257028Y-95499999D01*
X145257028Y-95499999D02*
X145399885Y-95571427D01*
X145399885Y-95571427D02*
X145828457Y-95571427D01*
X145828457Y-95571427D02*
X145971314Y-95499999D01*
X145971314Y-95499999D02*
X146042742Y-95428570D01*
X146042742Y-95428570D02*
X146114171Y-95285713D01*
X146114171Y-95285713D02*
X146114171Y-95071427D01*
X146114171Y-95071427D02*
X146042742Y-94928570D01*
X146042742Y-94928570D02*
X145971314Y-94857142D01*
X145971314Y-94857142D02*
X145828457Y-94785713D01*
X145828457Y-94785713D02*
X145399885Y-94785713D01*
X145399885Y-94785713D02*
X145257028Y-94857142D01*
X145257028Y-94857142D02*
X145185600Y-94928570D01*
X145185600Y-94928570D02*
X145114171Y-95071427D01*
X145114171Y-95071427D02*
X145114171Y-95285713D01*
X145185600Y-93499999D02*
X145114171Y-93642856D01*
X145114171Y-93642856D02*
X145114171Y-93928570D01*
X145114171Y-93928570D02*
X145185600Y-94071427D01*
X145185600Y-94071427D02*
X145257028Y-94142856D01*
X145257028Y-94142856D02*
X145399885Y-94214284D01*
X145399885Y-94214284D02*
X145828457Y-94214284D01*
X145828457Y-94214284D02*
X145971314Y-94142856D01*
X145971314Y-94142856D02*
X146042742Y-94071427D01*
X146042742Y-94071427D02*
X146114171Y-93928570D01*
X146114171Y-93928570D02*
X146114171Y-93642856D01*
X146114171Y-93642856D02*
X146042742Y-93499999D01*
X145114171Y-92642856D02*
X145185600Y-92785713D01*
X145185600Y-92785713D02*
X145257028Y-92857142D01*
X145257028Y-92857142D02*
X145399885Y-92928570D01*
X145399885Y-92928570D02*
X145828457Y-92928570D01*
X145828457Y-92928570D02*
X145971314Y-92857142D01*
X145971314Y-92857142D02*
X146042742Y-92785713D01*
X146042742Y-92785713D02*
X146114171Y-92642856D01*
X146114171Y-92642856D02*
X146114171Y-92428570D01*
X146114171Y-92428570D02*
X146042742Y-92285713D01*
X146042742Y-92285713D02*
X145971314Y-92214285D01*
X145971314Y-92214285D02*
X145828457Y-92142856D01*
X145828457Y-92142856D02*
X145399885Y-92142856D01*
X145399885Y-92142856D02*
X145257028Y-92214285D01*
X145257028Y-92214285D02*
X145185600Y-92285713D01*
X145185600Y-92285713D02*
X145114171Y-92428570D01*
X145114171Y-92428570D02*
X145114171Y-92642856D01*
X145114171Y-91285713D02*
X145185600Y-91428570D01*
X145185600Y-91428570D02*
X145328457Y-91499999D01*
X145328457Y-91499999D02*
X146614171Y-91499999D01*
X145114171Y-90499999D02*
X145185600Y-90642856D01*
X145185600Y-90642856D02*
X145257028Y-90714285D01*
X145257028Y-90714285D02*
X145399885Y-90785713D01*
X145399885Y-90785713D02*
X145828457Y-90785713D01*
X145828457Y-90785713D02*
X145971314Y-90714285D01*
X145971314Y-90714285D02*
X146042742Y-90642856D01*
X146042742Y-90642856D02*
X146114171Y-90499999D01*
X146114171Y-90499999D02*
X146114171Y-90285713D01*
X146114171Y-90285713D02*
X146042742Y-90142856D01*
X146042742Y-90142856D02*
X145971314Y-90071428D01*
X145971314Y-90071428D02*
X145828457Y-89999999D01*
X145828457Y-89999999D02*
X145399885Y-89999999D01*
X145399885Y-89999999D02*
X145257028Y-90071428D01*
X145257028Y-90071428D02*
X145185600Y-90142856D01*
X145185600Y-90142856D02*
X145114171Y-90285713D01*
X145114171Y-90285713D02*
X145114171Y-90499999D01*
X142699171Y-144821429D02*
X144199171Y-144821429D01*
X144199171Y-144821429D02*
X142699171Y-143964286D01*
X142699171Y-143964286D02*
X144199171Y-143964286D01*
X142699171Y-143035714D02*
X142770600Y-143178571D01*
X142770600Y-143178571D02*
X142842028Y-143250000D01*
X142842028Y-143250000D02*
X142984885Y-143321428D01*
X142984885Y-143321428D02*
X143413457Y-143321428D01*
X143413457Y-143321428D02*
X143556314Y-143250000D01*
X143556314Y-143250000D02*
X143627742Y-143178571D01*
X143627742Y-143178571D02*
X143699171Y-143035714D01*
X143699171Y-143035714D02*
X143699171Y-142821428D01*
X143699171Y-142821428D02*
X143627742Y-142678571D01*
X143627742Y-142678571D02*
X143556314Y-142607143D01*
X143556314Y-142607143D02*
X143413457Y-142535714D01*
X143413457Y-142535714D02*
X142984885Y-142535714D01*
X142984885Y-142535714D02*
X142842028Y-142607143D01*
X142842028Y-142607143D02*
X142770600Y-142678571D01*
X142770600Y-142678571D02*
X142699171Y-142821428D01*
X142699171Y-142821428D02*
X142699171Y-143035714D01*
X143699171Y-141892857D02*
X142699171Y-141892857D01*
X143556314Y-141892857D02*
X143627742Y-141821428D01*
X143627742Y-141821428D02*
X143699171Y-141678571D01*
X143699171Y-141678571D02*
X143699171Y-141464285D01*
X143699171Y-141464285D02*
X143627742Y-141321428D01*
X143627742Y-141321428D02*
X143484885Y-141250000D01*
X143484885Y-141250000D02*
X142699171Y-141250000D01*
X142770600Y-138750000D02*
X142699171Y-138892857D01*
X142699171Y-138892857D02*
X142699171Y-139178571D01*
X142699171Y-139178571D02*
X142770600Y-139321428D01*
X142770600Y-139321428D02*
X142842028Y-139392857D01*
X142842028Y-139392857D02*
X142984885Y-139464285D01*
X142984885Y-139464285D02*
X143413457Y-139464285D01*
X143413457Y-139464285D02*
X143556314Y-139392857D01*
X143556314Y-139392857D02*
X143627742Y-139321428D01*
X143627742Y-139321428D02*
X143699171Y-139178571D01*
X143699171Y-139178571D02*
X143699171Y-138892857D01*
X143699171Y-138892857D02*
X143627742Y-138750000D01*
X144199171Y-138035714D02*
X143913457Y-138178571D01*
X142770600Y-136821428D02*
X142699171Y-136964285D01*
X142699171Y-136964285D02*
X142699171Y-137250000D01*
X142699171Y-137250000D02*
X142770600Y-137392857D01*
X142770600Y-137392857D02*
X142913457Y-137464285D01*
X142913457Y-137464285D02*
X143484885Y-137464285D01*
X143484885Y-137464285D02*
X143627742Y-137392857D01*
X143627742Y-137392857D02*
X143699171Y-137250000D01*
X143699171Y-137250000D02*
X143699171Y-136964285D01*
X143699171Y-136964285D02*
X143627742Y-136821428D01*
X143627742Y-136821428D02*
X143484885Y-136750000D01*
X143484885Y-136750000D02*
X143342028Y-136750000D01*
X143342028Y-136750000D02*
X143199171Y-137464285D01*
X144270600Y-137250000D02*
X144056314Y-137035714D01*
X143699171Y-134321429D02*
X142699171Y-134321429D01*
X143699171Y-134964286D02*
X142913457Y-134964286D01*
X142913457Y-134964286D02*
X142770600Y-134892857D01*
X142770600Y-134892857D02*
X142699171Y-134750000D01*
X142699171Y-134750000D02*
X142699171Y-134535714D01*
X142699171Y-134535714D02*
X142770600Y-134392857D01*
X142770600Y-134392857D02*
X142842028Y-134321429D01*
X143699171Y-133607143D02*
X142699171Y-133607143D01*
X143556314Y-133607143D02*
X143627742Y-133535714D01*
X143627742Y-133535714D02*
X143699171Y-133392857D01*
X143699171Y-133392857D02*
X143699171Y-133178571D01*
X143699171Y-133178571D02*
X143627742Y-133035714D01*
X143627742Y-133035714D02*
X143484885Y-132964286D01*
X143484885Y-132964286D02*
X142699171Y-132964286D01*
X142699171Y-131607143D02*
X143484885Y-131607143D01*
X143484885Y-131607143D02*
X143627742Y-131678571D01*
X143627742Y-131678571D02*
X143699171Y-131821428D01*
X143699171Y-131821428D02*
X143699171Y-132107143D01*
X143699171Y-132107143D02*
X143627742Y-132250000D01*
X142770600Y-131607143D02*
X142699171Y-131750000D01*
X142699171Y-131750000D02*
X142699171Y-132107143D01*
X142699171Y-132107143D02*
X142770600Y-132250000D01*
X142770600Y-132250000D02*
X142913457Y-132321428D01*
X142913457Y-132321428D02*
X143056314Y-132321428D01*
X143056314Y-132321428D02*
X143199171Y-132250000D01*
X143199171Y-132250000D02*
X143270600Y-132107143D01*
X143270600Y-132107143D02*
X143270600Y-131750000D01*
X143270600Y-131750000D02*
X143342028Y-131607143D01*
X142770600Y-129821428D02*
X142699171Y-129678571D01*
X142699171Y-129678571D02*
X142699171Y-129392857D01*
X142699171Y-129392857D02*
X142770600Y-129250000D01*
X142770600Y-129250000D02*
X142913457Y-129178571D01*
X142913457Y-129178571D02*
X142984885Y-129178571D01*
X142984885Y-129178571D02*
X143127742Y-129250000D01*
X143127742Y-129250000D02*
X143199171Y-129392857D01*
X143199171Y-129392857D02*
X143199171Y-129607143D01*
X143199171Y-129607143D02*
X143270600Y-129750000D01*
X143270600Y-129750000D02*
X143413457Y-129821428D01*
X143413457Y-129821428D02*
X143484885Y-129821428D01*
X143484885Y-129821428D02*
X143627742Y-129750000D01*
X143627742Y-129750000D02*
X143699171Y-129607143D01*
X143699171Y-129607143D02*
X143699171Y-129392857D01*
X143699171Y-129392857D02*
X143627742Y-129250000D01*
X142770600Y-127892857D02*
X142699171Y-128035714D01*
X142699171Y-128035714D02*
X142699171Y-128321428D01*
X142699171Y-128321428D02*
X142770600Y-128464285D01*
X142770600Y-128464285D02*
X142842028Y-128535714D01*
X142842028Y-128535714D02*
X142984885Y-128607142D01*
X142984885Y-128607142D02*
X143413457Y-128607142D01*
X143413457Y-128607142D02*
X143556314Y-128535714D01*
X143556314Y-128535714D02*
X143627742Y-128464285D01*
X143627742Y-128464285D02*
X143699171Y-128321428D01*
X143699171Y-128321428D02*
X143699171Y-128035714D01*
X143699171Y-128035714D02*
X143627742Y-127892857D01*
X142770600Y-126678571D02*
X142699171Y-126821428D01*
X142699171Y-126821428D02*
X142699171Y-127107143D01*
X142699171Y-127107143D02*
X142770600Y-127250000D01*
X142770600Y-127250000D02*
X142913457Y-127321428D01*
X142913457Y-127321428D02*
X143484885Y-127321428D01*
X143484885Y-127321428D02*
X143627742Y-127250000D01*
X143627742Y-127250000D02*
X143699171Y-127107143D01*
X143699171Y-127107143D02*
X143699171Y-126821428D01*
X143699171Y-126821428D02*
X143627742Y-126678571D01*
X143627742Y-126678571D02*
X143484885Y-126607143D01*
X143484885Y-126607143D02*
X143342028Y-126607143D01*
X143342028Y-126607143D02*
X143199171Y-127321428D01*
X142699171Y-125750000D02*
X142770600Y-125892857D01*
X142770600Y-125892857D02*
X142913457Y-125964286D01*
X142913457Y-125964286D02*
X144199171Y-125964286D01*
X143699171Y-125392857D02*
X143699171Y-124821429D01*
X144199171Y-125178572D02*
X142913457Y-125178572D01*
X142913457Y-125178572D02*
X142770600Y-125107143D01*
X142770600Y-125107143D02*
X142699171Y-124964286D01*
X142699171Y-124964286D02*
X142699171Y-124821429D01*
X142699171Y-123678572D02*
X143484885Y-123678572D01*
X143484885Y-123678572D02*
X143627742Y-123750000D01*
X143627742Y-123750000D02*
X143699171Y-123892857D01*
X143699171Y-123892857D02*
X143699171Y-124178572D01*
X143699171Y-124178572D02*
X143627742Y-124321429D01*
X142770600Y-123678572D02*
X142699171Y-123821429D01*
X142699171Y-123821429D02*
X142699171Y-124178572D01*
X142699171Y-124178572D02*
X142770600Y-124321429D01*
X142770600Y-124321429D02*
X142913457Y-124392857D01*
X142913457Y-124392857D02*
X143056314Y-124392857D01*
X143056314Y-124392857D02*
X143199171Y-124321429D01*
X143199171Y-124321429D02*
X143270600Y-124178572D01*
X143270600Y-124178572D02*
X143270600Y-123821429D01*
X143270600Y-123821429D02*
X143342028Y-123678572D01*
X142770600Y-121892857D02*
X142699171Y-121750000D01*
X142699171Y-121750000D02*
X142699171Y-121464286D01*
X142699171Y-121464286D02*
X142770600Y-121321429D01*
X142770600Y-121321429D02*
X142913457Y-121250000D01*
X142913457Y-121250000D02*
X142984885Y-121250000D01*
X142984885Y-121250000D02*
X143127742Y-121321429D01*
X143127742Y-121321429D02*
X143199171Y-121464286D01*
X143199171Y-121464286D02*
X143199171Y-121678572D01*
X143199171Y-121678572D02*
X143270600Y-121821429D01*
X143270600Y-121821429D02*
X143413457Y-121892857D01*
X143413457Y-121892857D02*
X143484885Y-121892857D01*
X143484885Y-121892857D02*
X143627742Y-121821429D01*
X143627742Y-121821429D02*
X143699171Y-121678572D01*
X143699171Y-121678572D02*
X143699171Y-121464286D01*
X143699171Y-121464286D02*
X143627742Y-121321429D01*
X142770600Y-120035714D02*
X142699171Y-120178571D01*
X142699171Y-120178571D02*
X142699171Y-120464286D01*
X142699171Y-120464286D02*
X142770600Y-120607143D01*
X142770600Y-120607143D02*
X142913457Y-120678571D01*
X142913457Y-120678571D02*
X143484885Y-120678571D01*
X143484885Y-120678571D02*
X143627742Y-120607143D01*
X143627742Y-120607143D02*
X143699171Y-120464286D01*
X143699171Y-120464286D02*
X143699171Y-120178571D01*
X143699171Y-120178571D02*
X143627742Y-120035714D01*
X143627742Y-120035714D02*
X143484885Y-119964286D01*
X143484885Y-119964286D02*
X143342028Y-119964286D01*
X143342028Y-119964286D02*
X143199171Y-120678571D01*
X142699171Y-118178572D02*
X143699171Y-118178572D01*
X144199171Y-118178572D02*
X144127742Y-118250000D01*
X144127742Y-118250000D02*
X144056314Y-118178572D01*
X144056314Y-118178572D02*
X144127742Y-118107143D01*
X144127742Y-118107143D02*
X144199171Y-118178572D01*
X144199171Y-118178572D02*
X144056314Y-118178572D01*
X142699171Y-116321429D02*
X144199171Y-116321429D01*
X143627742Y-116321429D02*
X143699171Y-116178572D01*
X143699171Y-116178572D02*
X143699171Y-115892857D01*
X143699171Y-115892857D02*
X143627742Y-115750000D01*
X143627742Y-115750000D02*
X143556314Y-115678572D01*
X143556314Y-115678572D02*
X143413457Y-115607143D01*
X143413457Y-115607143D02*
X142984885Y-115607143D01*
X142984885Y-115607143D02*
X142842028Y-115678572D01*
X142842028Y-115678572D02*
X142770600Y-115750000D01*
X142770600Y-115750000D02*
X142699171Y-115892857D01*
X142699171Y-115892857D02*
X142699171Y-116178572D01*
X142699171Y-116178572D02*
X142770600Y-116321429D01*
X142699171Y-114964286D02*
X143699171Y-114964286D01*
X144199171Y-114964286D02*
X144127742Y-115035714D01*
X144127742Y-115035714D02*
X144056314Y-114964286D01*
X144056314Y-114964286D02*
X144127742Y-114892857D01*
X144127742Y-114892857D02*
X144199171Y-114964286D01*
X144199171Y-114964286D02*
X144056314Y-114964286D01*
X142770600Y-114321428D02*
X142699171Y-114178571D01*
X142699171Y-114178571D02*
X142699171Y-113892857D01*
X142699171Y-113892857D02*
X142770600Y-113750000D01*
X142770600Y-113750000D02*
X142913457Y-113678571D01*
X142913457Y-113678571D02*
X142984885Y-113678571D01*
X142984885Y-113678571D02*
X143127742Y-113750000D01*
X143127742Y-113750000D02*
X143199171Y-113892857D01*
X143199171Y-113892857D02*
X143199171Y-114107143D01*
X143199171Y-114107143D02*
X143270600Y-114250000D01*
X143270600Y-114250000D02*
X143413457Y-114321428D01*
X143413457Y-114321428D02*
X143484885Y-114321428D01*
X143484885Y-114321428D02*
X143627742Y-114250000D01*
X143627742Y-114250000D02*
X143699171Y-114107143D01*
X143699171Y-114107143D02*
X143699171Y-113892857D01*
X143699171Y-113892857D02*
X143627742Y-113750000D01*
X142699171Y-112821428D02*
X142770600Y-112964285D01*
X142770600Y-112964285D02*
X142842028Y-113035714D01*
X142842028Y-113035714D02*
X142984885Y-113107142D01*
X142984885Y-113107142D02*
X143413457Y-113107142D01*
X143413457Y-113107142D02*
X143556314Y-113035714D01*
X143556314Y-113035714D02*
X143627742Y-112964285D01*
X143627742Y-112964285D02*
X143699171Y-112821428D01*
X143699171Y-112821428D02*
X143699171Y-112607142D01*
X143699171Y-112607142D02*
X143627742Y-112464285D01*
X143627742Y-112464285D02*
X143556314Y-112392857D01*
X143556314Y-112392857D02*
X143413457Y-112321428D01*
X143413457Y-112321428D02*
X142984885Y-112321428D01*
X142984885Y-112321428D02*
X142842028Y-112392857D01*
X142842028Y-112392857D02*
X142770600Y-112464285D01*
X142770600Y-112464285D02*
X142699171Y-112607142D01*
X142699171Y-112607142D02*
X142699171Y-112821428D01*
X143699171Y-111035714D02*
X142484885Y-111035714D01*
X142484885Y-111035714D02*
X142342028Y-111107142D01*
X142342028Y-111107142D02*
X142270600Y-111178571D01*
X142270600Y-111178571D02*
X142199171Y-111321428D01*
X142199171Y-111321428D02*
X142199171Y-111535714D01*
X142199171Y-111535714D02*
X142270600Y-111678571D01*
X142770600Y-111035714D02*
X142699171Y-111178571D01*
X142699171Y-111178571D02*
X142699171Y-111464285D01*
X142699171Y-111464285D02*
X142770600Y-111607142D01*
X142770600Y-111607142D02*
X142842028Y-111678571D01*
X142842028Y-111678571D02*
X142984885Y-111749999D01*
X142984885Y-111749999D02*
X143413457Y-111749999D01*
X143413457Y-111749999D02*
X143556314Y-111678571D01*
X143556314Y-111678571D02*
X143627742Y-111607142D01*
X143627742Y-111607142D02*
X143699171Y-111464285D01*
X143699171Y-111464285D02*
X143699171Y-111178571D01*
X143699171Y-111178571D02*
X143627742Y-111035714D01*
X143699171Y-110321428D02*
X142699171Y-110321428D01*
X143556314Y-110321428D02*
X143627742Y-110249999D01*
X143627742Y-110249999D02*
X143699171Y-110107142D01*
X143699171Y-110107142D02*
X143699171Y-109892856D01*
X143699171Y-109892856D02*
X143627742Y-109749999D01*
X143627742Y-109749999D02*
X143484885Y-109678571D01*
X143484885Y-109678571D02*
X142699171Y-109678571D01*
X142699171Y-108964285D02*
X143699171Y-108964285D01*
X144199171Y-108964285D02*
X144127742Y-109035713D01*
X144127742Y-109035713D02*
X144056314Y-108964285D01*
X144056314Y-108964285D02*
X144127742Y-108892856D01*
X144127742Y-108892856D02*
X144199171Y-108964285D01*
X144199171Y-108964285D02*
X144056314Y-108964285D01*
X143699171Y-107321427D02*
X143699171Y-106749999D01*
X144199171Y-107107142D02*
X142913457Y-107107142D01*
X142913457Y-107107142D02*
X142770600Y-107035713D01*
X142770600Y-107035713D02*
X142699171Y-106892856D01*
X142699171Y-106892856D02*
X142699171Y-106749999D01*
X142770600Y-105678570D02*
X142699171Y-105821427D01*
X142699171Y-105821427D02*
X142699171Y-106107142D01*
X142699171Y-106107142D02*
X142770600Y-106249999D01*
X142770600Y-106249999D02*
X142913457Y-106321427D01*
X142913457Y-106321427D02*
X143484885Y-106321427D01*
X143484885Y-106321427D02*
X143627742Y-106249999D01*
X143627742Y-106249999D02*
X143699171Y-106107142D01*
X143699171Y-106107142D02*
X143699171Y-105821427D01*
X143699171Y-105821427D02*
X143627742Y-105678570D01*
X143627742Y-105678570D02*
X143484885Y-105607142D01*
X143484885Y-105607142D02*
X143342028Y-105607142D01*
X143342028Y-105607142D02*
X143199171Y-106321427D01*
X142699171Y-103607142D02*
X142770600Y-103749999D01*
X142770600Y-103749999D02*
X142913457Y-103821428D01*
X142913457Y-103821428D02*
X144199171Y-103821428D01*
X142699171Y-103035714D02*
X143699171Y-103035714D01*
X144199171Y-103035714D02*
X144127742Y-103107142D01*
X144127742Y-103107142D02*
X144056314Y-103035714D01*
X144056314Y-103035714D02*
X144127742Y-102964285D01*
X144127742Y-102964285D02*
X144199171Y-103035714D01*
X144199171Y-103035714D02*
X144056314Y-103035714D01*
X142699171Y-101178571D02*
X143699171Y-101178571D01*
X144199171Y-101178571D02*
X144127742Y-101249999D01*
X144127742Y-101249999D02*
X144056314Y-101178571D01*
X144056314Y-101178571D02*
X144127742Y-101107142D01*
X144127742Y-101107142D02*
X144199171Y-101178571D01*
X144199171Y-101178571D02*
X144056314Y-101178571D01*
X142699171Y-100464285D02*
X143699171Y-100464285D01*
X143556314Y-100464285D02*
X143627742Y-100392856D01*
X143627742Y-100392856D02*
X143699171Y-100249999D01*
X143699171Y-100249999D02*
X143699171Y-100035713D01*
X143699171Y-100035713D02*
X143627742Y-99892856D01*
X143627742Y-99892856D02*
X143484885Y-99821428D01*
X143484885Y-99821428D02*
X142699171Y-99821428D01*
X143484885Y-99821428D02*
X143627742Y-99749999D01*
X143627742Y-99749999D02*
X143699171Y-99607142D01*
X143699171Y-99607142D02*
X143699171Y-99392856D01*
X143699171Y-99392856D02*
X143627742Y-99249999D01*
X143627742Y-99249999D02*
X143484885Y-99178570D01*
X143484885Y-99178570D02*
X142699171Y-99178570D01*
X143699171Y-98464285D02*
X142199171Y-98464285D01*
X143627742Y-98464285D02*
X143699171Y-98321428D01*
X143699171Y-98321428D02*
X143699171Y-98035713D01*
X143699171Y-98035713D02*
X143627742Y-97892856D01*
X143627742Y-97892856D02*
X143556314Y-97821428D01*
X143556314Y-97821428D02*
X143413457Y-97749999D01*
X143413457Y-97749999D02*
X142984885Y-97749999D01*
X142984885Y-97749999D02*
X142842028Y-97821428D01*
X142842028Y-97821428D02*
X142770600Y-97892856D01*
X142770600Y-97892856D02*
X142699171Y-98035713D01*
X142699171Y-98035713D02*
X142699171Y-98321428D01*
X142699171Y-98321428D02*
X142770600Y-98464285D01*
X142699171Y-96892856D02*
X142770600Y-97035713D01*
X142770600Y-97035713D02*
X142842028Y-97107142D01*
X142842028Y-97107142D02*
X142984885Y-97178570D01*
X142984885Y-97178570D02*
X143413457Y-97178570D01*
X143413457Y-97178570D02*
X143556314Y-97107142D01*
X143556314Y-97107142D02*
X143627742Y-97035713D01*
X143627742Y-97035713D02*
X143699171Y-96892856D01*
X143699171Y-96892856D02*
X143699171Y-96678570D01*
X143699171Y-96678570D02*
X143627742Y-96535713D01*
X143627742Y-96535713D02*
X143556314Y-96464285D01*
X143556314Y-96464285D02*
X143413457Y-96392856D01*
X143413457Y-96392856D02*
X142984885Y-96392856D01*
X142984885Y-96392856D02*
X142842028Y-96464285D01*
X142842028Y-96464285D02*
X142770600Y-96535713D01*
X142770600Y-96535713D02*
X142699171Y-96678570D01*
X142699171Y-96678570D02*
X142699171Y-96892856D01*
X143699171Y-95749999D02*
X142699171Y-95749999D01*
X143556314Y-95749999D02*
X143627742Y-95678570D01*
X143627742Y-95678570D02*
X143699171Y-95535713D01*
X143699171Y-95535713D02*
X143699171Y-95321427D01*
X143699171Y-95321427D02*
X143627742Y-95178570D01*
X143627742Y-95178570D02*
X143484885Y-95107142D01*
X143484885Y-95107142D02*
X142699171Y-95107142D01*
X143699171Y-93749999D02*
X142484885Y-93749999D01*
X142484885Y-93749999D02*
X142342028Y-93821427D01*
X142342028Y-93821427D02*
X142270600Y-93892856D01*
X142270600Y-93892856D02*
X142199171Y-94035713D01*
X142199171Y-94035713D02*
X142199171Y-94249999D01*
X142199171Y-94249999D02*
X142270600Y-94392856D01*
X142770600Y-93749999D02*
X142699171Y-93892856D01*
X142699171Y-93892856D02*
X142699171Y-94178570D01*
X142699171Y-94178570D02*
X142770600Y-94321427D01*
X142770600Y-94321427D02*
X142842028Y-94392856D01*
X142842028Y-94392856D02*
X142984885Y-94464284D01*
X142984885Y-94464284D02*
X143413457Y-94464284D01*
X143413457Y-94464284D02*
X143556314Y-94392856D01*
X143556314Y-94392856D02*
X143627742Y-94321427D01*
X143627742Y-94321427D02*
X143699171Y-94178570D01*
X143699171Y-94178570D02*
X143699171Y-93892856D01*
X143699171Y-93892856D02*
X143627742Y-93749999D01*
X142699171Y-92821427D02*
X142770600Y-92964284D01*
X142770600Y-92964284D02*
X142842028Y-93035713D01*
X142842028Y-93035713D02*
X142984885Y-93107141D01*
X142984885Y-93107141D02*
X143413457Y-93107141D01*
X143413457Y-93107141D02*
X143556314Y-93035713D01*
X143556314Y-93035713D02*
X143627742Y-92964284D01*
X143627742Y-92964284D02*
X143699171Y-92821427D01*
X143699171Y-92821427D02*
X143699171Y-92607141D01*
X143699171Y-92607141D02*
X143627742Y-92464284D01*
X143627742Y-92464284D02*
X143556314Y-92392856D01*
X143556314Y-92392856D02*
X143413457Y-92321427D01*
X143413457Y-92321427D02*
X142984885Y-92321427D01*
X142984885Y-92321427D02*
X142842028Y-92392856D01*
X142842028Y-92392856D02*
X142770600Y-92464284D01*
X142770600Y-92464284D02*
X142699171Y-92607141D01*
X142699171Y-92607141D02*
X142699171Y-92821427D01*
X143699171Y-91678570D02*
X142699171Y-91678570D01*
X143556314Y-91678570D02*
X143627742Y-91607141D01*
X143627742Y-91607141D02*
X143699171Y-91464284D01*
X143699171Y-91464284D02*
X143699171Y-91249998D01*
X143699171Y-91249998D02*
X143627742Y-91107141D01*
X143627742Y-91107141D02*
X143484885Y-91035713D01*
X143484885Y-91035713D02*
X142699171Y-91035713D01*
X142699171Y-90107141D02*
X142770600Y-90249998D01*
X142770600Y-90249998D02*
X142842028Y-90321427D01*
X142842028Y-90321427D02*
X142984885Y-90392855D01*
X142984885Y-90392855D02*
X143413457Y-90392855D01*
X143413457Y-90392855D02*
X143556314Y-90321427D01*
X143556314Y-90321427D02*
X143627742Y-90249998D01*
X143627742Y-90249998D02*
X143699171Y-90107141D01*
X143699171Y-90107141D02*
X143699171Y-89892855D01*
X143699171Y-89892855D02*
X143627742Y-89749998D01*
X143627742Y-89749998D02*
X143556314Y-89678570D01*
X143556314Y-89678570D02*
X143413457Y-89607141D01*
X143413457Y-89607141D02*
X142984885Y-89607141D01*
X142984885Y-89607141D02*
X142842028Y-89678570D01*
X142842028Y-89678570D02*
X142770600Y-89749998D01*
X142770600Y-89749998D02*
X142699171Y-89892855D01*
X142699171Y-89892855D02*
X142699171Y-90107141D01*
D10*
X141476191Y-89454819D02*
X141952381Y-89454819D01*
X141952381Y-89454819D02*
X141952381Y-88454819D01*
X140952381Y-88454819D02*
X140761905Y-88454819D01*
X140761905Y-88454819D02*
X140666667Y-88502438D01*
X140666667Y-88502438D02*
X140571429Y-88597676D01*
X140571429Y-88597676D02*
X140523810Y-88788152D01*
X140523810Y-88788152D02*
X140523810Y-89121485D01*
X140523810Y-89121485D02*
X140571429Y-89311961D01*
X140571429Y-89311961D02*
X140666667Y-89407200D01*
X140666667Y-89407200D02*
X140761905Y-89454819D01*
X140761905Y-89454819D02*
X140952381Y-89454819D01*
X140952381Y-89454819D02*
X141047619Y-89407200D01*
X141047619Y-89407200D02*
X141142857Y-89311961D01*
X141142857Y-89311961D02*
X141190476Y-89121485D01*
X141190476Y-89121485D02*
X141190476Y-88788152D01*
X141190476Y-88788152D02*
X141142857Y-88597676D01*
X141142857Y-88597676D02*
X141047619Y-88502438D01*
X141047619Y-88502438D02*
X140952381Y-88454819D01*
X139523810Y-89454819D02*
X139857143Y-88978628D01*
X140095238Y-89454819D02*
X140095238Y-88454819D01*
X140095238Y-88454819D02*
X139714286Y-88454819D01*
X139714286Y-88454819D02*
X139619048Y-88502438D01*
X139619048Y-88502438D02*
X139571429Y-88550057D01*
X139571429Y-88550057D02*
X139523810Y-88645295D01*
X139523810Y-88645295D02*
X139523810Y-88788152D01*
X139523810Y-88788152D02*
X139571429Y-88883390D01*
X139571429Y-88883390D02*
X139619048Y-88931009D01*
X139619048Y-88931009D02*
X139714286Y-88978628D01*
X139714286Y-88978628D02*
X140095238Y-88978628D01*
X139142857Y-89169104D02*
X138666667Y-89169104D01*
X139238095Y-89454819D02*
X138904762Y-88454819D01*
X138904762Y-88454819D02*
X138571429Y-89454819D01*
X138476191Y-89550057D02*
X137714286Y-89550057D01*
X137523809Y-89407200D02*
X137380952Y-89454819D01*
X137380952Y-89454819D02*
X137142857Y-89454819D01*
X137142857Y-89454819D02*
X137047619Y-89407200D01*
X137047619Y-89407200D02*
X137000000Y-89359580D01*
X137000000Y-89359580D02*
X136952381Y-89264342D01*
X136952381Y-89264342D02*
X136952381Y-89169104D01*
X136952381Y-89169104D02*
X137000000Y-89073866D01*
X137000000Y-89073866D02*
X137047619Y-89026247D01*
X137047619Y-89026247D02*
X137142857Y-88978628D01*
X137142857Y-88978628D02*
X137333333Y-88931009D01*
X137333333Y-88931009D02*
X137428571Y-88883390D01*
X137428571Y-88883390D02*
X137476190Y-88835771D01*
X137476190Y-88835771D02*
X137523809Y-88740533D01*
X137523809Y-88740533D02*
X137523809Y-88645295D01*
X137523809Y-88645295D02*
X137476190Y-88550057D01*
X137476190Y-88550057D02*
X137428571Y-88502438D01*
X137428571Y-88502438D02*
X137333333Y-88454819D01*
X137333333Y-88454819D02*
X137095238Y-88454819D01*
X137095238Y-88454819D02*
X136952381Y-88502438D01*
X136380952Y-89454819D02*
X136476190Y-89407200D01*
X136476190Y-89407200D02*
X136523809Y-89359580D01*
X136523809Y-89359580D02*
X136571428Y-89264342D01*
X136571428Y-89264342D02*
X136571428Y-88978628D01*
X136571428Y-88978628D02*
X136523809Y-88883390D01*
X136523809Y-88883390D02*
X136476190Y-88835771D01*
X136476190Y-88835771D02*
X136380952Y-88788152D01*
X136380952Y-88788152D02*
X136238095Y-88788152D01*
X136238095Y-88788152D02*
X136142857Y-88835771D01*
X136142857Y-88835771D02*
X136095238Y-88883390D01*
X136095238Y-88883390D02*
X136047619Y-88978628D01*
X136047619Y-88978628D02*
X136047619Y-89264342D01*
X136047619Y-89264342D02*
X136095238Y-89359580D01*
X136095238Y-89359580D02*
X136142857Y-89407200D01*
X136142857Y-89407200D02*
X136238095Y-89454819D01*
X136238095Y-89454819D02*
X136380952Y-89454819D01*
X135190476Y-89407200D02*
X135285714Y-89454819D01*
X135285714Y-89454819D02*
X135476190Y-89454819D01*
X135476190Y-89454819D02*
X135571428Y-89407200D01*
X135571428Y-89407200D02*
X135619047Y-89359580D01*
X135619047Y-89359580D02*
X135666666Y-89264342D01*
X135666666Y-89264342D02*
X135666666Y-88978628D01*
X135666666Y-88978628D02*
X135619047Y-88883390D01*
X135619047Y-88883390D02*
X135571428Y-88835771D01*
X135571428Y-88835771D02*
X135476190Y-88788152D01*
X135476190Y-88788152D02*
X135285714Y-88788152D01*
X135285714Y-88788152D02*
X135190476Y-88835771D01*
X134761904Y-89454819D02*
X134761904Y-88454819D01*
X134666666Y-89073866D02*
X134380952Y-89454819D01*
X134380952Y-88788152D02*
X134761904Y-89169104D01*
X133571428Y-89407200D02*
X133666666Y-89454819D01*
X133666666Y-89454819D02*
X133857142Y-89454819D01*
X133857142Y-89454819D02*
X133952380Y-89407200D01*
X133952380Y-89407200D02*
X133999999Y-89311961D01*
X133999999Y-89311961D02*
X133999999Y-88931009D01*
X133999999Y-88931009D02*
X133952380Y-88835771D01*
X133952380Y-88835771D02*
X133857142Y-88788152D01*
X133857142Y-88788152D02*
X133666666Y-88788152D01*
X133666666Y-88788152D02*
X133571428Y-88835771D01*
X133571428Y-88835771D02*
X133523809Y-88931009D01*
X133523809Y-88931009D02*
X133523809Y-89026247D01*
X133523809Y-89026247D02*
X133999999Y-89121485D01*
X133238094Y-88788152D02*
X132857142Y-88788152D01*
X133095237Y-88454819D02*
X133095237Y-89311961D01*
X133095237Y-89311961D02*
X133047618Y-89407200D01*
X133047618Y-89407200D02*
X132952380Y-89454819D01*
X132952380Y-89454819D02*
X132857142Y-89454819D01*
X131999999Y-89454819D02*
X132571427Y-89454819D01*
X132285713Y-89454819D02*
X132285713Y-88454819D01*
X132285713Y-88454819D02*
X132380951Y-88597676D01*
X132380951Y-88597676D02*
X132476189Y-88692914D01*
X132476189Y-88692914D02*
X132571427Y-88740533D01*
D12*
X105210000Y-78870000D02*
X105210000Y-68630000D01*
X121100000Y-78870000D02*
X105210000Y-78870000D01*
X121100000Y-78870000D02*
X121100000Y-68630000D01*
X105210000Y-76290000D02*
X102670000Y-76290000D01*
X105210000Y-73750000D02*
X102670000Y-73750000D01*
X105210000Y-71210000D02*
X102670000Y-71210000D01*
X121100000Y-68630000D02*
X105210000Y-68630000D01*
X126170000Y-87080000D02*
X126170000Y-84420000D01*
X141470000Y-87080000D02*
X126170000Y-87080000D01*
X141470000Y-87080000D02*
X141470000Y-84420000D01*
X144070000Y-85750000D02*
X144070000Y-84420000D01*
X141470000Y-84420000D02*
X126170000Y-84420000D01*
X144070000Y-84420000D02*
X142740000Y-84420000D01*
%LPC*%
D13*
X133300000Y-138250000D03*
D14*
X133300000Y-135250000D03*
D15*
X132410000Y-106300000D03*
D16*
X132410000Y-108840000D03*
X132410000Y-111380000D03*
X132410000Y-113920000D03*
D17*
X140167500Y-134400000D03*
D18*
X140167500Y-136900000D03*
X140167500Y-139400000D03*
X140167500Y-141900000D03*
D16*
X123390000Y-142280000D03*
X123390000Y-139740000D03*
D15*
X123390000Y-137200000D03*
D16*
X123390000Y-134660000D03*
X123390000Y-132120000D03*
X123390000Y-129580000D03*
X123390000Y-127040000D03*
D15*
X123390000Y-124500000D03*
D16*
X123390000Y-121960000D03*
X123390000Y-119420000D03*
X123390000Y-116880000D03*
X123390000Y-114340000D03*
D15*
X123390000Y-111800000D03*
D16*
X123390000Y-109260000D03*
X123390000Y-106720000D03*
X123390000Y-104180000D03*
X123390000Y-101640000D03*
D15*
X123390000Y-99100000D03*
D16*
X123390000Y-96560000D03*
X123390000Y-94020000D03*
X105610000Y-94020000D03*
X105610000Y-96560000D03*
D15*
X105610000Y-99100000D03*
D16*
X105610000Y-101640000D03*
X105610000Y-104180000D03*
X105610000Y-106720000D03*
X105610000Y-109260000D03*
D15*
X105610000Y-111800000D03*
D16*
X105610000Y-114340000D03*
X105610000Y-116880000D03*
X105610000Y-119420000D03*
X105610000Y-121960000D03*
D15*
X105610000Y-124500000D03*
D16*
X105610000Y-127040000D03*
X105610000Y-129580000D03*
X105610000Y-132120000D03*
X105610000Y-134660000D03*
D15*
X105610000Y-137200000D03*
D16*
X105610000Y-139740000D03*
X105610000Y-142280000D03*
X117040000Y-94250000D03*
D15*
X114500000Y-94250000D03*
D16*
X111960000Y-94250000D03*
D19*
X102300000Y-147750000D03*
D20*
X105500000Y-85250000D03*
D18*
X105500000Y-82750000D03*
X105500000Y-80250000D03*
D21*
X138430000Y-64837500D03*
D22*
X138430000Y-62297500D03*
X138430000Y-59757500D03*
X138430000Y-57217500D03*
D21*
X138430000Y-54677500D03*
D22*
X138430000Y-52137500D03*
X138430000Y-49597500D03*
X138430000Y-47057500D03*
X115570000Y-47057500D03*
D21*
X115570000Y-49597500D03*
D22*
X115570000Y-52137500D03*
X115570000Y-54677500D03*
X115570000Y-57217500D03*
X115570000Y-59757500D03*
X115570000Y-62297500D03*
X115570000Y-64837500D03*
D23*
X119440000Y-89930000D03*
D24*
X129600000Y-89930000D03*
D25*
X106750000Y-57000000D03*
X106750000Y-61850000D03*
X106750000Y-66650000D03*
D15*
X100500000Y-52210000D03*
D16*
X100500000Y-54750000D03*
D19*
X101500000Y-46750000D03*
D23*
X108920000Y-86250000D03*
D24*
X119080000Y-86250000D03*
D19*
X143700000Y-147950000D03*
D26*
X118180000Y-73750000D03*
D27*
X101520000Y-76290000D03*
D28*
X101520000Y-73750000D03*
X101520000Y-71210000D03*
D15*
X142740000Y-85750000D03*
D16*
X140200000Y-85750000D03*
X137660000Y-85750000D03*
X135120000Y-85750000D03*
X132580000Y-85750000D03*
X130040000Y-85750000D03*
X127500000Y-85750000D03*
%LPD*%
M02*
