G04 #@! TF.GenerationSoftware,KiCad,Pcbnew,7.0.7*
G04 #@! TF.CreationDate,2024-03-11T23:00:31+01:00*
G04 #@! TF.ProjectId,RocketBoard,526f636b-6574-4426-9f61-72642e6b6963,rev?*
G04 #@! TF.SameCoordinates,Original*
G04 #@! TF.FileFunction,Legend,Top*
G04 #@! TF.FilePolarity,Positive*
%FSLAX46Y46*%
G04 Gerber Fmt 4.6, Leading zero omitted, Abs format (unit mm)*
G04 Created by KiCad (PCBNEW 7.0.7) date 2024-03-11 23:00:31*
%MOMM*%
%LPD*%
G01*
G04 APERTURE LIST*
G04 Aperture macros list*
%AMRoundRect*
0 Rectangle with rounded corners*
0 $1 Rounding radius*
0 $2 $3 $4 $5 $6 $7 $8 $9 X,Y pos of 4 corners*
0 Add a 4 corners polygon primitive as box body*
4,1,4,$2,$3,$4,$5,$6,$7,$8,$9,$2,$3,0*
0 Add four circle primitives for the rounded corners*
1,1,$1+$1,$2,$3*
1,1,$1+$1,$4,$5*
1,1,$1+$1,$6,$7*
1,1,$1+$1,$8,$9*
0 Add four rect primitives between the rounded corners*
20,1,$1+$1,$2,$3,$4,$5,0*
20,1,$1+$1,$4,$5,$6,$7,0*
20,1,$1+$1,$6,$7,$8,$9,0*
20,1,$1+$1,$8,$9,$2,$3,0*%
G04 Aperture macros list end*
%ADD10C,0.150000*%
%ADD11C,0.200000*%
%ADD12C,0.100000*%
%ADD13C,0.120000*%
%ADD14C,0.127000*%
%ADD15R,2.000000X2.000000*%
%ADD16C,2.000000*%
%ADD17R,1.700000X1.700000*%
%ADD18O,1.700000X1.700000*%
%ADD19RoundRect,0.250000X-0.725000X0.600000X-0.725000X-0.600000X0.725000X-0.600000X0.725000X0.600000X0*%
%ADD20O,1.950000X1.700000*%
%ADD21R,3.500000X1.700000*%
%ADD22R,1.700000X3.500000*%
%ADD23C,2.200000*%
%ADD24RoundRect,0.250000X0.725000X-0.600000X0.725000X0.600000X-0.725000X0.600000X-0.725000X-0.600000X0*%
%ADD25RoundRect,0.102000X0.762000X0.762000X-0.762000X0.762000X-0.762000X-0.762000X0.762000X-0.762000X0*%
%ADD26O,3.252000X1.728000*%
%ADD27C,1.600000*%
%ADD28O,1.600000X1.600000*%
%ADD29C,1.524000*%
%ADD30R,1.120000X2.440000*%
%ADD31O,3.500000X3.500000*%
%ADD32R,2.000000X1.905000*%
%ADD33O,2.000000X1.905000*%
G04 APERTURE END LIST*
D10*
X136900000Y-123950000D02*
X139500000Y-123950000D01*
X140500000Y-123950000D02*
G75*
G03*
X140500000Y-123950000I-1000000J0D01*
G01*
X139500000Y-123950000D02*
X139500000Y-121150000D01*
X137900000Y-99950000D02*
X139400000Y-99950000D01*
X141300000Y-99350000D02*
X139700000Y-100550000D01*
X129785000Y-103900000D02*
X145385000Y-103900000D01*
X145385000Y-129700000D01*
X129785000Y-129700000D01*
X129785000Y-103900000D01*
X139900000Y-99150000D02*
X141100000Y-100750000D01*
X140500000Y-98950000D02*
X140500000Y-97150000D01*
X141500000Y-99950000D02*
G75*
G03*
X141500000Y-99950000I-1000000J0D01*
G01*
X137227255Y-99943628D02*
X137227255Y-100419819D01*
X136893922Y-99419819D02*
X137227255Y-99943628D01*
X137227255Y-99943628D02*
X137560588Y-99419819D01*
X139141541Y-119419819D02*
X139808207Y-120419819D01*
X139808207Y-119419819D02*
X139141541Y-120419819D01*
X136427255Y-123743628D02*
X136427255Y-124219819D01*
X136093922Y-123219819D02*
X136427255Y-123743628D01*
X136427255Y-123743628D02*
X136760588Y-123219819D01*
X141941541Y-100819819D02*
X142608207Y-101819819D01*
X142608207Y-100819819D02*
X141941541Y-101819819D01*
D11*
X131014285Y-141860742D02*
X131014285Y-140660742D01*
X131014285Y-140660742D02*
X131471428Y-140660742D01*
X131471428Y-140660742D02*
X131585713Y-140717885D01*
X131585713Y-140717885D02*
X131642856Y-140775028D01*
X131642856Y-140775028D02*
X131699999Y-140889314D01*
X131699999Y-140889314D02*
X131699999Y-141060742D01*
X131699999Y-141060742D02*
X131642856Y-141175028D01*
X131642856Y-141175028D02*
X131585713Y-141232171D01*
X131585713Y-141232171D02*
X131471428Y-141289314D01*
X131471428Y-141289314D02*
X131014285Y-141289314D01*
X132728571Y-141860742D02*
X132728571Y-141232171D01*
X132728571Y-141232171D02*
X132671428Y-141117885D01*
X132671428Y-141117885D02*
X132557142Y-141060742D01*
X132557142Y-141060742D02*
X132328571Y-141060742D01*
X132328571Y-141060742D02*
X132214285Y-141117885D01*
X132728571Y-141803600D02*
X132614285Y-141860742D01*
X132614285Y-141860742D02*
X132328571Y-141860742D01*
X132328571Y-141860742D02*
X132214285Y-141803600D01*
X132214285Y-141803600D02*
X132157142Y-141689314D01*
X132157142Y-141689314D02*
X132157142Y-141575028D01*
X132157142Y-141575028D02*
X132214285Y-141460742D01*
X132214285Y-141460742D02*
X132328571Y-141403600D01*
X132328571Y-141403600D02*
X132614285Y-141403600D01*
X132614285Y-141403600D02*
X132728571Y-141346457D01*
X133242856Y-141803600D02*
X133357142Y-141860742D01*
X133357142Y-141860742D02*
X133585713Y-141860742D01*
X133585713Y-141860742D02*
X133699999Y-141803600D01*
X133699999Y-141803600D02*
X133757142Y-141689314D01*
X133757142Y-141689314D02*
X133757142Y-141632171D01*
X133757142Y-141632171D02*
X133699999Y-141517885D01*
X133699999Y-141517885D02*
X133585713Y-141460742D01*
X133585713Y-141460742D02*
X133414285Y-141460742D01*
X133414285Y-141460742D02*
X133299999Y-141403600D01*
X133299999Y-141403600D02*
X133242856Y-141289314D01*
X133242856Y-141289314D02*
X133242856Y-141232171D01*
X133242856Y-141232171D02*
X133299999Y-141117885D01*
X133299999Y-141117885D02*
X133414285Y-141060742D01*
X133414285Y-141060742D02*
X133585713Y-141060742D01*
X133585713Y-141060742D02*
X133699999Y-141117885D01*
X134214285Y-141803600D02*
X134328571Y-141860742D01*
X134328571Y-141860742D02*
X134557142Y-141860742D01*
X134557142Y-141860742D02*
X134671428Y-141803600D01*
X134671428Y-141803600D02*
X134728571Y-141689314D01*
X134728571Y-141689314D02*
X134728571Y-141632171D01*
X134728571Y-141632171D02*
X134671428Y-141517885D01*
X134671428Y-141517885D02*
X134557142Y-141460742D01*
X134557142Y-141460742D02*
X134385714Y-141460742D01*
X134385714Y-141460742D02*
X134271428Y-141403600D01*
X134271428Y-141403600D02*
X134214285Y-141289314D01*
X134214285Y-141289314D02*
X134214285Y-141232171D01*
X134214285Y-141232171D02*
X134271428Y-141117885D01*
X134271428Y-141117885D02*
X134385714Y-141060742D01*
X134385714Y-141060742D02*
X134557142Y-141060742D01*
X134557142Y-141060742D02*
X134671428Y-141117885D01*
X135242857Y-141860742D02*
X135242857Y-141060742D01*
X135242857Y-140660742D02*
X135185714Y-140717885D01*
X135185714Y-140717885D02*
X135242857Y-140775028D01*
X135242857Y-140775028D02*
X135300000Y-140717885D01*
X135300000Y-140717885D02*
X135242857Y-140660742D01*
X135242857Y-140660742D02*
X135242857Y-140775028D01*
X135700000Y-141060742D02*
X135985714Y-141860742D01*
X135985714Y-141860742D02*
X136271429Y-141060742D01*
X137185715Y-141803600D02*
X137071429Y-141860742D01*
X137071429Y-141860742D02*
X136842858Y-141860742D01*
X136842858Y-141860742D02*
X136728572Y-141803600D01*
X136728572Y-141803600D02*
X136671429Y-141689314D01*
X136671429Y-141689314D02*
X136671429Y-141232171D01*
X136671429Y-141232171D02*
X136728572Y-141117885D01*
X136728572Y-141117885D02*
X136842858Y-141060742D01*
X136842858Y-141060742D02*
X137071429Y-141060742D01*
X137071429Y-141060742D02*
X137185715Y-141117885D01*
X137185715Y-141117885D02*
X137242858Y-141232171D01*
X137242858Y-141232171D02*
X137242858Y-141346457D01*
X137242858Y-141346457D02*
X136671429Y-141460742D01*
X131785714Y-143164171D02*
X131957142Y-143221314D01*
X131957142Y-143221314D02*
X132014285Y-143278457D01*
X132014285Y-143278457D02*
X132071428Y-143392742D01*
X132071428Y-143392742D02*
X132071428Y-143564171D01*
X132071428Y-143564171D02*
X132014285Y-143678457D01*
X132014285Y-143678457D02*
X131957142Y-143735600D01*
X131957142Y-143735600D02*
X131842857Y-143792742D01*
X131842857Y-143792742D02*
X131385714Y-143792742D01*
X131385714Y-143792742D02*
X131385714Y-142592742D01*
X131385714Y-142592742D02*
X131785714Y-142592742D01*
X131785714Y-142592742D02*
X131900000Y-142649885D01*
X131900000Y-142649885D02*
X131957142Y-142707028D01*
X131957142Y-142707028D02*
X132014285Y-142821314D01*
X132014285Y-142821314D02*
X132014285Y-142935600D01*
X132014285Y-142935600D02*
X131957142Y-143049885D01*
X131957142Y-143049885D02*
X131900000Y-143107028D01*
X131900000Y-143107028D02*
X131785714Y-143164171D01*
X131785714Y-143164171D02*
X131385714Y-143164171D01*
X133100000Y-142992742D02*
X133100000Y-143792742D01*
X132585714Y-142992742D02*
X132585714Y-143621314D01*
X132585714Y-143621314D02*
X132642857Y-143735600D01*
X132642857Y-143735600D02*
X132757142Y-143792742D01*
X132757142Y-143792742D02*
X132928571Y-143792742D01*
X132928571Y-143792742D02*
X133042857Y-143735600D01*
X133042857Y-143735600D02*
X133100000Y-143678457D01*
X133557142Y-142992742D02*
X134185714Y-142992742D01*
X134185714Y-142992742D02*
X133557142Y-143792742D01*
X133557142Y-143792742D02*
X134185714Y-143792742D01*
X134528571Y-142992742D02*
X135157143Y-142992742D01*
X135157143Y-142992742D02*
X134528571Y-143792742D01*
X134528571Y-143792742D02*
X135157143Y-143792742D01*
X136071429Y-143735600D02*
X135957143Y-143792742D01*
X135957143Y-143792742D02*
X135728572Y-143792742D01*
X135728572Y-143792742D02*
X135614286Y-143735600D01*
X135614286Y-143735600D02*
X135557143Y-143621314D01*
X135557143Y-143621314D02*
X135557143Y-143164171D01*
X135557143Y-143164171D02*
X135614286Y-143049885D01*
X135614286Y-143049885D02*
X135728572Y-142992742D01*
X135728572Y-142992742D02*
X135957143Y-142992742D01*
X135957143Y-142992742D02*
X136071429Y-143049885D01*
X136071429Y-143049885D02*
X136128572Y-143164171D01*
X136128572Y-143164171D02*
X136128572Y-143278457D01*
X136128572Y-143278457D02*
X135557143Y-143392742D01*
X136642857Y-143792742D02*
X136642857Y-142992742D01*
X136642857Y-143221314D02*
X136700000Y-143107028D01*
X136700000Y-143107028D02*
X136757143Y-143049885D01*
X136757143Y-143049885D02*
X136871428Y-142992742D01*
X136871428Y-142992742D02*
X136985714Y-142992742D01*
D10*
X145830180Y-89658207D02*
X146306371Y-89324874D01*
X145830180Y-89086779D02*
X146830180Y-89086779D01*
X146830180Y-89086779D02*
X146830180Y-89467731D01*
X146830180Y-89467731D02*
X146782561Y-89562969D01*
X146782561Y-89562969D02*
X146734942Y-89610588D01*
X146734942Y-89610588D02*
X146639704Y-89658207D01*
X146639704Y-89658207D02*
X146496847Y-89658207D01*
X146496847Y-89658207D02*
X146401609Y-89610588D01*
X146401609Y-89610588D02*
X146353990Y-89562969D01*
X146353990Y-89562969D02*
X146306371Y-89467731D01*
X146306371Y-89467731D02*
X146306371Y-89086779D01*
X145830180Y-90229636D02*
X145877800Y-90134398D01*
X145877800Y-90134398D02*
X145925419Y-90086779D01*
X145925419Y-90086779D02*
X146020657Y-90039160D01*
X146020657Y-90039160D02*
X146306371Y-90039160D01*
X146306371Y-90039160D02*
X146401609Y-90086779D01*
X146401609Y-90086779D02*
X146449228Y-90134398D01*
X146449228Y-90134398D02*
X146496847Y-90229636D01*
X146496847Y-90229636D02*
X146496847Y-90372493D01*
X146496847Y-90372493D02*
X146449228Y-90467731D01*
X146449228Y-90467731D02*
X146401609Y-90515350D01*
X146401609Y-90515350D02*
X146306371Y-90562969D01*
X146306371Y-90562969D02*
X146020657Y-90562969D01*
X146020657Y-90562969D02*
X145925419Y-90515350D01*
X145925419Y-90515350D02*
X145877800Y-90467731D01*
X145877800Y-90467731D02*
X145830180Y-90372493D01*
X145830180Y-90372493D02*
X145830180Y-90229636D01*
X145877800Y-91420112D02*
X145830180Y-91324874D01*
X145830180Y-91324874D02*
X145830180Y-91134398D01*
X145830180Y-91134398D02*
X145877800Y-91039160D01*
X145877800Y-91039160D02*
X145925419Y-90991541D01*
X145925419Y-90991541D02*
X146020657Y-90943922D01*
X146020657Y-90943922D02*
X146306371Y-90943922D01*
X146306371Y-90943922D02*
X146401609Y-90991541D01*
X146401609Y-90991541D02*
X146449228Y-91039160D01*
X146449228Y-91039160D02*
X146496847Y-91134398D01*
X146496847Y-91134398D02*
X146496847Y-91324874D01*
X146496847Y-91324874D02*
X146449228Y-91420112D01*
X145830180Y-91848684D02*
X146830180Y-91848684D01*
X146211133Y-91943922D02*
X145830180Y-92229636D01*
X146496847Y-92229636D02*
X146115895Y-91848684D01*
X145877800Y-93039160D02*
X145830180Y-92943922D01*
X145830180Y-92943922D02*
X145830180Y-92753446D01*
X145830180Y-92753446D02*
X145877800Y-92658208D01*
X145877800Y-92658208D02*
X145973038Y-92610589D01*
X145973038Y-92610589D02*
X146353990Y-92610589D01*
X146353990Y-92610589D02*
X146449228Y-92658208D01*
X146449228Y-92658208D02*
X146496847Y-92753446D01*
X146496847Y-92753446D02*
X146496847Y-92943922D01*
X146496847Y-92943922D02*
X146449228Y-93039160D01*
X146449228Y-93039160D02*
X146353990Y-93086779D01*
X146353990Y-93086779D02*
X146258752Y-93086779D01*
X146258752Y-93086779D02*
X146163514Y-92610589D01*
X146496847Y-93372494D02*
X146496847Y-93753446D01*
X146830180Y-93515351D02*
X145973038Y-93515351D01*
X145973038Y-93515351D02*
X145877800Y-93562970D01*
X145877800Y-93562970D02*
X145830180Y-93658208D01*
X145830180Y-93658208D02*
X145830180Y-93753446D01*
X146211133Y-94086780D02*
X146211133Y-94848685D01*
X145925419Y-95896303D02*
X145877800Y-95848684D01*
X145877800Y-95848684D02*
X145830180Y-95705827D01*
X145830180Y-95705827D02*
X145830180Y-95610589D01*
X145830180Y-95610589D02*
X145877800Y-95467732D01*
X145877800Y-95467732D02*
X145973038Y-95372494D01*
X145973038Y-95372494D02*
X146068276Y-95324875D01*
X146068276Y-95324875D02*
X146258752Y-95277256D01*
X146258752Y-95277256D02*
X146401609Y-95277256D01*
X146401609Y-95277256D02*
X146592085Y-95324875D01*
X146592085Y-95324875D02*
X146687323Y-95372494D01*
X146687323Y-95372494D02*
X146782561Y-95467732D01*
X146782561Y-95467732D02*
X146830180Y-95610589D01*
X146830180Y-95610589D02*
X146830180Y-95705827D01*
X146830180Y-95705827D02*
X146782561Y-95848684D01*
X146782561Y-95848684D02*
X146734942Y-95896303D01*
X145830180Y-96467732D02*
X145877800Y-96372494D01*
X145877800Y-96372494D02*
X145925419Y-96324875D01*
X145925419Y-96324875D02*
X146020657Y-96277256D01*
X146020657Y-96277256D02*
X146306371Y-96277256D01*
X146306371Y-96277256D02*
X146401609Y-96324875D01*
X146401609Y-96324875D02*
X146449228Y-96372494D01*
X146449228Y-96372494D02*
X146496847Y-96467732D01*
X146496847Y-96467732D02*
X146496847Y-96610589D01*
X146496847Y-96610589D02*
X146449228Y-96705827D01*
X146449228Y-96705827D02*
X146401609Y-96753446D01*
X146401609Y-96753446D02*
X146306371Y-96801065D01*
X146306371Y-96801065D02*
X146020657Y-96801065D01*
X146020657Y-96801065D02*
X145925419Y-96753446D01*
X145925419Y-96753446D02*
X145877800Y-96705827D01*
X145877800Y-96705827D02*
X145830180Y-96610589D01*
X145830180Y-96610589D02*
X145830180Y-96467732D01*
X146496847Y-97229637D02*
X145830180Y-97229637D01*
X146401609Y-97229637D02*
X146449228Y-97277256D01*
X146449228Y-97277256D02*
X146496847Y-97372494D01*
X146496847Y-97372494D02*
X146496847Y-97515351D01*
X146496847Y-97515351D02*
X146449228Y-97610589D01*
X146449228Y-97610589D02*
X146353990Y-97658208D01*
X146353990Y-97658208D02*
X145830180Y-97658208D01*
X146496847Y-97991542D02*
X146496847Y-98372494D01*
X146830180Y-98134399D02*
X145973038Y-98134399D01*
X145973038Y-98134399D02*
X145877800Y-98182018D01*
X145877800Y-98182018D02*
X145830180Y-98277256D01*
X145830180Y-98277256D02*
X145830180Y-98372494D01*
X145830180Y-98705828D02*
X146496847Y-98705828D01*
X146306371Y-98705828D02*
X146401609Y-98753447D01*
X146401609Y-98753447D02*
X146449228Y-98801066D01*
X146449228Y-98801066D02*
X146496847Y-98896304D01*
X146496847Y-98896304D02*
X146496847Y-98991542D01*
X145830180Y-99467733D02*
X145877800Y-99372495D01*
X145877800Y-99372495D02*
X145925419Y-99324876D01*
X145925419Y-99324876D02*
X146020657Y-99277257D01*
X146020657Y-99277257D02*
X146306371Y-99277257D01*
X146306371Y-99277257D02*
X146401609Y-99324876D01*
X146401609Y-99324876D02*
X146449228Y-99372495D01*
X146449228Y-99372495D02*
X146496847Y-99467733D01*
X146496847Y-99467733D02*
X146496847Y-99610590D01*
X146496847Y-99610590D02*
X146449228Y-99705828D01*
X146449228Y-99705828D02*
X146401609Y-99753447D01*
X146401609Y-99753447D02*
X146306371Y-99801066D01*
X146306371Y-99801066D02*
X146020657Y-99801066D01*
X146020657Y-99801066D02*
X145925419Y-99753447D01*
X145925419Y-99753447D02*
X145877800Y-99705828D01*
X145877800Y-99705828D02*
X145830180Y-99610590D01*
X145830180Y-99610590D02*
X145830180Y-99467733D01*
X145830180Y-100372495D02*
X145877800Y-100277257D01*
X145877800Y-100277257D02*
X145973038Y-100229638D01*
X145973038Y-100229638D02*
X146830180Y-100229638D01*
X146353990Y-101848686D02*
X146306371Y-101991543D01*
X146306371Y-101991543D02*
X146258752Y-102039162D01*
X146258752Y-102039162D02*
X146163514Y-102086781D01*
X146163514Y-102086781D02*
X146020657Y-102086781D01*
X146020657Y-102086781D02*
X145925419Y-102039162D01*
X145925419Y-102039162D02*
X145877800Y-101991543D01*
X145877800Y-101991543D02*
X145830180Y-101896305D01*
X145830180Y-101896305D02*
X145830180Y-101515353D01*
X145830180Y-101515353D02*
X146830180Y-101515353D01*
X146830180Y-101515353D02*
X146830180Y-101848686D01*
X146830180Y-101848686D02*
X146782561Y-101943924D01*
X146782561Y-101943924D02*
X146734942Y-101991543D01*
X146734942Y-101991543D02*
X146639704Y-102039162D01*
X146639704Y-102039162D02*
X146544466Y-102039162D01*
X146544466Y-102039162D02*
X146449228Y-101991543D01*
X146449228Y-101991543D02*
X146401609Y-101943924D01*
X146401609Y-101943924D02*
X146353990Y-101848686D01*
X146353990Y-101848686D02*
X146353990Y-101515353D01*
X145830180Y-102658210D02*
X145877800Y-102562972D01*
X145877800Y-102562972D02*
X145925419Y-102515353D01*
X145925419Y-102515353D02*
X146020657Y-102467734D01*
X146020657Y-102467734D02*
X146306371Y-102467734D01*
X146306371Y-102467734D02*
X146401609Y-102515353D01*
X146401609Y-102515353D02*
X146449228Y-102562972D01*
X146449228Y-102562972D02*
X146496847Y-102658210D01*
X146496847Y-102658210D02*
X146496847Y-102801067D01*
X146496847Y-102801067D02*
X146449228Y-102896305D01*
X146449228Y-102896305D02*
X146401609Y-102943924D01*
X146401609Y-102943924D02*
X146306371Y-102991543D01*
X146306371Y-102991543D02*
X146020657Y-102991543D01*
X146020657Y-102991543D02*
X145925419Y-102943924D01*
X145925419Y-102943924D02*
X145877800Y-102896305D01*
X145877800Y-102896305D02*
X145830180Y-102801067D01*
X145830180Y-102801067D02*
X145830180Y-102658210D01*
X145830180Y-103848686D02*
X146353990Y-103848686D01*
X146353990Y-103848686D02*
X146449228Y-103801067D01*
X146449228Y-103801067D02*
X146496847Y-103705829D01*
X146496847Y-103705829D02*
X146496847Y-103515353D01*
X146496847Y-103515353D02*
X146449228Y-103420115D01*
X145877800Y-103848686D02*
X145830180Y-103753448D01*
X145830180Y-103753448D02*
X145830180Y-103515353D01*
X145830180Y-103515353D02*
X145877800Y-103420115D01*
X145877800Y-103420115D02*
X145973038Y-103372496D01*
X145973038Y-103372496D02*
X146068276Y-103372496D01*
X146068276Y-103372496D02*
X146163514Y-103420115D01*
X146163514Y-103420115D02*
X146211133Y-103515353D01*
X146211133Y-103515353D02*
X146211133Y-103753448D01*
X146211133Y-103753448D02*
X146258752Y-103848686D01*
X145830180Y-104324877D02*
X146496847Y-104324877D01*
X146306371Y-104324877D02*
X146401609Y-104372496D01*
X146401609Y-104372496D02*
X146449228Y-104420115D01*
X146449228Y-104420115D02*
X146496847Y-104515353D01*
X146496847Y-104515353D02*
X146496847Y-104610591D01*
X145830180Y-105372496D02*
X146830180Y-105372496D01*
X145877800Y-105372496D02*
X145830180Y-105277258D01*
X145830180Y-105277258D02*
X145830180Y-105086782D01*
X145830180Y-105086782D02*
X145877800Y-104991544D01*
X145877800Y-104991544D02*
X145925419Y-104943925D01*
X145925419Y-104943925D02*
X146020657Y-104896306D01*
X146020657Y-104896306D02*
X146306371Y-104896306D01*
X146306371Y-104896306D02*
X146401609Y-104943925D01*
X146401609Y-104943925D02*
X146449228Y-104991544D01*
X146449228Y-104991544D02*
X146496847Y-105086782D01*
X146496847Y-105086782D02*
X146496847Y-105277258D01*
X146496847Y-105277258D02*
X146449228Y-105372496D01*
X144030180Y-89086779D02*
X145030180Y-89086779D01*
X145030180Y-89086779D02*
X145030180Y-89324874D01*
X145030180Y-89324874D02*
X144982561Y-89467731D01*
X144982561Y-89467731D02*
X144887323Y-89562969D01*
X144887323Y-89562969D02*
X144792085Y-89610588D01*
X144792085Y-89610588D02*
X144601609Y-89658207D01*
X144601609Y-89658207D02*
X144458752Y-89658207D01*
X144458752Y-89658207D02*
X144268276Y-89610588D01*
X144268276Y-89610588D02*
X144173038Y-89562969D01*
X144173038Y-89562969D02*
X144077800Y-89467731D01*
X144077800Y-89467731D02*
X144030180Y-89324874D01*
X144030180Y-89324874D02*
X144030180Y-89086779D01*
X144077800Y-90467731D02*
X144030180Y-90372493D01*
X144030180Y-90372493D02*
X144030180Y-90182017D01*
X144030180Y-90182017D02*
X144077800Y-90086779D01*
X144077800Y-90086779D02*
X144173038Y-90039160D01*
X144173038Y-90039160D02*
X144553990Y-90039160D01*
X144553990Y-90039160D02*
X144649228Y-90086779D01*
X144649228Y-90086779D02*
X144696847Y-90182017D01*
X144696847Y-90182017D02*
X144696847Y-90372493D01*
X144696847Y-90372493D02*
X144649228Y-90467731D01*
X144649228Y-90467731D02*
X144553990Y-90515350D01*
X144553990Y-90515350D02*
X144458752Y-90515350D01*
X144458752Y-90515350D02*
X144363514Y-90039160D01*
X144077800Y-90896303D02*
X144030180Y-90991541D01*
X144030180Y-90991541D02*
X144030180Y-91182017D01*
X144030180Y-91182017D02*
X144077800Y-91277255D01*
X144077800Y-91277255D02*
X144173038Y-91324874D01*
X144173038Y-91324874D02*
X144220657Y-91324874D01*
X144220657Y-91324874D02*
X144315895Y-91277255D01*
X144315895Y-91277255D02*
X144363514Y-91182017D01*
X144363514Y-91182017D02*
X144363514Y-91039160D01*
X144363514Y-91039160D02*
X144411133Y-90943922D01*
X144411133Y-90943922D02*
X144506371Y-90896303D01*
X144506371Y-90896303D02*
X144553990Y-90896303D01*
X144553990Y-90896303D02*
X144649228Y-90943922D01*
X144649228Y-90943922D02*
X144696847Y-91039160D01*
X144696847Y-91039160D02*
X144696847Y-91182017D01*
X144696847Y-91182017D02*
X144649228Y-91277255D01*
X144030180Y-91753446D02*
X144696847Y-91753446D01*
X145030180Y-91753446D02*
X144982561Y-91705827D01*
X144982561Y-91705827D02*
X144934942Y-91753446D01*
X144934942Y-91753446D02*
X144982561Y-91801065D01*
X144982561Y-91801065D02*
X145030180Y-91753446D01*
X145030180Y-91753446D02*
X144934942Y-91753446D01*
X144696847Y-92658207D02*
X143887323Y-92658207D01*
X143887323Y-92658207D02*
X143792085Y-92610588D01*
X143792085Y-92610588D02*
X143744466Y-92562969D01*
X143744466Y-92562969D02*
X143696847Y-92467731D01*
X143696847Y-92467731D02*
X143696847Y-92324874D01*
X143696847Y-92324874D02*
X143744466Y-92229636D01*
X144077800Y-92658207D02*
X144030180Y-92562969D01*
X144030180Y-92562969D02*
X144030180Y-92372493D01*
X144030180Y-92372493D02*
X144077800Y-92277255D01*
X144077800Y-92277255D02*
X144125419Y-92229636D01*
X144125419Y-92229636D02*
X144220657Y-92182017D01*
X144220657Y-92182017D02*
X144506371Y-92182017D01*
X144506371Y-92182017D02*
X144601609Y-92229636D01*
X144601609Y-92229636D02*
X144649228Y-92277255D01*
X144649228Y-92277255D02*
X144696847Y-92372493D01*
X144696847Y-92372493D02*
X144696847Y-92562969D01*
X144696847Y-92562969D02*
X144649228Y-92658207D01*
X144696847Y-93134398D02*
X144030180Y-93134398D01*
X144601609Y-93134398D02*
X144649228Y-93182017D01*
X144649228Y-93182017D02*
X144696847Y-93277255D01*
X144696847Y-93277255D02*
X144696847Y-93420112D01*
X144696847Y-93420112D02*
X144649228Y-93515350D01*
X144649228Y-93515350D02*
X144553990Y-93562969D01*
X144553990Y-93562969D02*
X144030180Y-93562969D01*
X144077800Y-94420112D02*
X144030180Y-94324874D01*
X144030180Y-94324874D02*
X144030180Y-94134398D01*
X144030180Y-94134398D02*
X144077800Y-94039160D01*
X144077800Y-94039160D02*
X144173038Y-93991541D01*
X144173038Y-93991541D02*
X144553990Y-93991541D01*
X144553990Y-93991541D02*
X144649228Y-94039160D01*
X144649228Y-94039160D02*
X144696847Y-94134398D01*
X144696847Y-94134398D02*
X144696847Y-94324874D01*
X144696847Y-94324874D02*
X144649228Y-94420112D01*
X144649228Y-94420112D02*
X144553990Y-94467731D01*
X144553990Y-94467731D02*
X144458752Y-94467731D01*
X144458752Y-94467731D02*
X144363514Y-93991541D01*
X144030180Y-95324874D02*
X145030180Y-95324874D01*
X144077800Y-95324874D02*
X144030180Y-95229636D01*
X144030180Y-95229636D02*
X144030180Y-95039160D01*
X144030180Y-95039160D02*
X144077800Y-94943922D01*
X144077800Y-94943922D02*
X144125419Y-94896303D01*
X144125419Y-94896303D02*
X144220657Y-94848684D01*
X144220657Y-94848684D02*
X144506371Y-94848684D01*
X144506371Y-94848684D02*
X144601609Y-94896303D01*
X144601609Y-94896303D02*
X144649228Y-94943922D01*
X144649228Y-94943922D02*
X144696847Y-95039160D01*
X144696847Y-95039160D02*
X144696847Y-95229636D01*
X144696847Y-95229636D02*
X144649228Y-95324874D01*
X144030180Y-96562970D02*
X145030180Y-96562970D01*
X144649228Y-96562970D02*
X144696847Y-96658208D01*
X144696847Y-96658208D02*
X144696847Y-96848684D01*
X144696847Y-96848684D02*
X144649228Y-96943922D01*
X144649228Y-96943922D02*
X144601609Y-96991541D01*
X144601609Y-96991541D02*
X144506371Y-97039160D01*
X144506371Y-97039160D02*
X144220657Y-97039160D01*
X144220657Y-97039160D02*
X144125419Y-96991541D01*
X144125419Y-96991541D02*
X144077800Y-96943922D01*
X144077800Y-96943922D02*
X144030180Y-96848684D01*
X144030180Y-96848684D02*
X144030180Y-96658208D01*
X144030180Y-96658208D02*
X144077800Y-96562970D01*
X144696847Y-97372494D02*
X144030180Y-97610589D01*
X144696847Y-97848684D02*
X144030180Y-97610589D01*
X144030180Y-97610589D02*
X143792085Y-97515351D01*
X143792085Y-97515351D02*
X143744466Y-97467732D01*
X143744466Y-97467732D02*
X143696847Y-97372494D01*
X144030180Y-99467732D02*
X144030180Y-98991542D01*
X144030180Y-98991542D02*
X145030180Y-98991542D01*
X144696847Y-100229637D02*
X144030180Y-100229637D01*
X144696847Y-99801066D02*
X144173038Y-99801066D01*
X144173038Y-99801066D02*
X144077800Y-99848685D01*
X144077800Y-99848685D02*
X144030180Y-99943923D01*
X144030180Y-99943923D02*
X144030180Y-100086780D01*
X144030180Y-100086780D02*
X144077800Y-100182018D01*
X144077800Y-100182018D02*
X144125419Y-100229637D01*
X144030180Y-101134399D02*
X145030180Y-101134399D01*
X144077800Y-101134399D02*
X144030180Y-101039161D01*
X144030180Y-101039161D02*
X144030180Y-100848685D01*
X144030180Y-100848685D02*
X144077800Y-100753447D01*
X144077800Y-100753447D02*
X144125419Y-100705828D01*
X144125419Y-100705828D02*
X144220657Y-100658209D01*
X144220657Y-100658209D02*
X144506371Y-100658209D01*
X144506371Y-100658209D02*
X144601609Y-100705828D01*
X144601609Y-100705828D02*
X144649228Y-100753447D01*
X144649228Y-100753447D02*
X144696847Y-100848685D01*
X144696847Y-100848685D02*
X144696847Y-101039161D01*
X144696847Y-101039161D02*
X144649228Y-101134399D01*
X140741541Y-124419819D02*
X141408207Y-124419819D01*
X141408207Y-124419819D02*
X140741541Y-125419819D01*
X140741541Y-125419819D02*
X141408207Y-125419819D01*
X140341541Y-95419819D02*
X141008207Y-95419819D01*
X141008207Y-95419819D02*
X140341541Y-96419819D01*
X140341541Y-96419819D02*
X141008207Y-96419819D01*
X136019047Y-102881009D02*
X136161904Y-102928628D01*
X136161904Y-102928628D02*
X136209523Y-102976247D01*
X136209523Y-102976247D02*
X136257142Y-103071485D01*
X136257142Y-103071485D02*
X136257142Y-103214342D01*
X136257142Y-103214342D02*
X136209523Y-103309580D01*
X136209523Y-103309580D02*
X136161904Y-103357200D01*
X136161904Y-103357200D02*
X136066666Y-103404819D01*
X136066666Y-103404819D02*
X135685714Y-103404819D01*
X135685714Y-103404819D02*
X135685714Y-102404819D01*
X135685714Y-102404819D02*
X136019047Y-102404819D01*
X136019047Y-102404819D02*
X136114285Y-102452438D01*
X136114285Y-102452438D02*
X136161904Y-102500057D01*
X136161904Y-102500057D02*
X136209523Y-102595295D01*
X136209523Y-102595295D02*
X136209523Y-102690533D01*
X136209523Y-102690533D02*
X136161904Y-102785771D01*
X136161904Y-102785771D02*
X136114285Y-102833390D01*
X136114285Y-102833390D02*
X136019047Y-102881009D01*
X136019047Y-102881009D02*
X135685714Y-102881009D01*
X136685714Y-103404819D02*
X136685714Y-102404819D01*
X136685714Y-102404819D02*
X137257142Y-103404819D01*
X137257142Y-103404819D02*
X137257142Y-102404819D01*
X137923809Y-102404819D02*
X138114285Y-102404819D01*
X138114285Y-102404819D02*
X138209523Y-102452438D01*
X138209523Y-102452438D02*
X138304761Y-102547676D01*
X138304761Y-102547676D02*
X138352380Y-102738152D01*
X138352380Y-102738152D02*
X138352380Y-103071485D01*
X138352380Y-103071485D02*
X138304761Y-103261961D01*
X138304761Y-103261961D02*
X138209523Y-103357200D01*
X138209523Y-103357200D02*
X138114285Y-103404819D01*
X138114285Y-103404819D02*
X137923809Y-103404819D01*
X137923809Y-103404819D02*
X137828571Y-103357200D01*
X137828571Y-103357200D02*
X137733333Y-103261961D01*
X137733333Y-103261961D02*
X137685714Y-103071485D01*
X137685714Y-103071485D02*
X137685714Y-102738152D01*
X137685714Y-102738152D02*
X137733333Y-102547676D01*
X137733333Y-102547676D02*
X137828571Y-102452438D01*
X137828571Y-102452438D02*
X137923809Y-102404819D01*
X138971428Y-102404819D02*
X139066666Y-102404819D01*
X139066666Y-102404819D02*
X139161904Y-102452438D01*
X139161904Y-102452438D02*
X139209523Y-102500057D01*
X139209523Y-102500057D02*
X139257142Y-102595295D01*
X139257142Y-102595295D02*
X139304761Y-102785771D01*
X139304761Y-102785771D02*
X139304761Y-103023866D01*
X139304761Y-103023866D02*
X139257142Y-103214342D01*
X139257142Y-103214342D02*
X139209523Y-103309580D01*
X139209523Y-103309580D02*
X139161904Y-103357200D01*
X139161904Y-103357200D02*
X139066666Y-103404819D01*
X139066666Y-103404819D02*
X138971428Y-103404819D01*
X138971428Y-103404819D02*
X138876190Y-103357200D01*
X138876190Y-103357200D02*
X138828571Y-103309580D01*
X138828571Y-103309580D02*
X138780952Y-103214342D01*
X138780952Y-103214342D02*
X138733333Y-103023866D01*
X138733333Y-103023866D02*
X138733333Y-102785771D01*
X138733333Y-102785771D02*
X138780952Y-102595295D01*
X138780952Y-102595295D02*
X138828571Y-102500057D01*
X138828571Y-102500057D02*
X138876190Y-102452438D01*
X138876190Y-102452438D02*
X138971428Y-102404819D01*
X139876190Y-102833390D02*
X139780952Y-102785771D01*
X139780952Y-102785771D02*
X139733333Y-102738152D01*
X139733333Y-102738152D02*
X139685714Y-102642914D01*
X139685714Y-102642914D02*
X139685714Y-102595295D01*
X139685714Y-102595295D02*
X139733333Y-102500057D01*
X139733333Y-102500057D02*
X139780952Y-102452438D01*
X139780952Y-102452438D02*
X139876190Y-102404819D01*
X139876190Y-102404819D02*
X140066666Y-102404819D01*
X140066666Y-102404819D02*
X140161904Y-102452438D01*
X140161904Y-102452438D02*
X140209523Y-102500057D01*
X140209523Y-102500057D02*
X140257142Y-102595295D01*
X140257142Y-102595295D02*
X140257142Y-102642914D01*
X140257142Y-102642914D02*
X140209523Y-102738152D01*
X140209523Y-102738152D02*
X140161904Y-102785771D01*
X140161904Y-102785771D02*
X140066666Y-102833390D01*
X140066666Y-102833390D02*
X139876190Y-102833390D01*
X139876190Y-102833390D02*
X139780952Y-102881009D01*
X139780952Y-102881009D02*
X139733333Y-102928628D01*
X139733333Y-102928628D02*
X139685714Y-103023866D01*
X139685714Y-103023866D02*
X139685714Y-103214342D01*
X139685714Y-103214342D02*
X139733333Y-103309580D01*
X139733333Y-103309580D02*
X139780952Y-103357200D01*
X139780952Y-103357200D02*
X139876190Y-103404819D01*
X139876190Y-103404819D02*
X140066666Y-103404819D01*
X140066666Y-103404819D02*
X140161904Y-103357200D01*
X140161904Y-103357200D02*
X140209523Y-103309580D01*
X140209523Y-103309580D02*
X140257142Y-103214342D01*
X140257142Y-103214342D02*
X140257142Y-103023866D01*
X140257142Y-103023866D02*
X140209523Y-102928628D01*
X140209523Y-102928628D02*
X140161904Y-102881009D01*
X140161904Y-102881009D02*
X140066666Y-102833390D01*
X140590476Y-102404819D02*
X141257142Y-103404819D01*
X141257142Y-102404819D02*
X140590476Y-103404819D01*
X142161904Y-103404819D02*
X141590476Y-103404819D01*
X141876190Y-103404819D02*
X141876190Y-102404819D01*
X141876190Y-102404819D02*
X141780952Y-102547676D01*
X141780952Y-102547676D02*
X141685714Y-102642914D01*
X141685714Y-102642914D02*
X141590476Y-102690533D01*
X140252380Y-130204819D02*
X140252380Y-130919104D01*
X140252380Y-130919104D02*
X140204761Y-131061961D01*
X140204761Y-131061961D02*
X140109523Y-131157200D01*
X140109523Y-131157200D02*
X139966666Y-131204819D01*
X139966666Y-131204819D02*
X139871428Y-131204819D01*
X140680952Y-131157200D02*
X140823809Y-131204819D01*
X140823809Y-131204819D02*
X141061904Y-131204819D01*
X141061904Y-131204819D02*
X141157142Y-131157200D01*
X141157142Y-131157200D02*
X141204761Y-131109580D01*
X141204761Y-131109580D02*
X141252380Y-131014342D01*
X141252380Y-131014342D02*
X141252380Y-130919104D01*
X141252380Y-130919104D02*
X141204761Y-130823866D01*
X141204761Y-130823866D02*
X141157142Y-130776247D01*
X141157142Y-130776247D02*
X141061904Y-130728628D01*
X141061904Y-130728628D02*
X140871428Y-130681009D01*
X140871428Y-130681009D02*
X140776190Y-130633390D01*
X140776190Y-130633390D02*
X140728571Y-130585771D01*
X140728571Y-130585771D02*
X140680952Y-130490533D01*
X140680952Y-130490533D02*
X140680952Y-130395295D01*
X140680952Y-130395295D02*
X140728571Y-130300057D01*
X140728571Y-130300057D02*
X140776190Y-130252438D01*
X140776190Y-130252438D02*
X140871428Y-130204819D01*
X140871428Y-130204819D02*
X141109523Y-130204819D01*
X141109523Y-130204819D02*
X141252380Y-130252438D01*
X141538095Y-130204819D02*
X142109523Y-130204819D01*
X141823809Y-131204819D02*
X141823809Y-130204819D01*
X142204762Y-131300057D02*
X142966666Y-131300057D01*
X143728571Y-130252438D02*
X143633333Y-130204819D01*
X143633333Y-130204819D02*
X143490476Y-130204819D01*
X143490476Y-130204819D02*
X143347619Y-130252438D01*
X143347619Y-130252438D02*
X143252381Y-130347676D01*
X143252381Y-130347676D02*
X143204762Y-130442914D01*
X143204762Y-130442914D02*
X143157143Y-130633390D01*
X143157143Y-130633390D02*
X143157143Y-130776247D01*
X143157143Y-130776247D02*
X143204762Y-130966723D01*
X143204762Y-130966723D02*
X143252381Y-131061961D01*
X143252381Y-131061961D02*
X143347619Y-131157200D01*
X143347619Y-131157200D02*
X143490476Y-131204819D01*
X143490476Y-131204819D02*
X143585714Y-131204819D01*
X143585714Y-131204819D02*
X143728571Y-131157200D01*
X143728571Y-131157200D02*
X143776190Y-131109580D01*
X143776190Y-131109580D02*
X143776190Y-130776247D01*
X143776190Y-130776247D02*
X143585714Y-130776247D01*
X144204762Y-131204819D02*
X144204762Y-130204819D01*
X144204762Y-130204819D02*
X144585714Y-130204819D01*
X144585714Y-130204819D02*
X144680952Y-130252438D01*
X144680952Y-130252438D02*
X144728571Y-130300057D01*
X144728571Y-130300057D02*
X144776190Y-130395295D01*
X144776190Y-130395295D02*
X144776190Y-130538152D01*
X144776190Y-130538152D02*
X144728571Y-130633390D01*
X144728571Y-130633390D02*
X144680952Y-130681009D01*
X144680952Y-130681009D02*
X144585714Y-130728628D01*
X144585714Y-130728628D02*
X144204762Y-130728628D01*
X145157143Y-131157200D02*
X145300000Y-131204819D01*
X145300000Y-131204819D02*
X145538095Y-131204819D01*
X145538095Y-131204819D02*
X145633333Y-131157200D01*
X145633333Y-131157200D02*
X145680952Y-131109580D01*
X145680952Y-131109580D02*
X145728571Y-131014342D01*
X145728571Y-131014342D02*
X145728571Y-130919104D01*
X145728571Y-130919104D02*
X145680952Y-130823866D01*
X145680952Y-130823866D02*
X145633333Y-130776247D01*
X145633333Y-130776247D02*
X145538095Y-130728628D01*
X145538095Y-130728628D02*
X145347619Y-130681009D01*
X145347619Y-130681009D02*
X145252381Y-130633390D01*
X145252381Y-130633390D02*
X145204762Y-130585771D01*
X145204762Y-130585771D02*
X145157143Y-130490533D01*
X145157143Y-130490533D02*
X145157143Y-130395295D01*
X145157143Y-130395295D02*
X145204762Y-130300057D01*
X145204762Y-130300057D02*
X145252381Y-130252438D01*
X145252381Y-130252438D02*
X145347619Y-130204819D01*
X145347619Y-130204819D02*
X145585714Y-130204819D01*
X145585714Y-130204819D02*
X145728571Y-130252438D01*
X146680952Y-131204819D02*
X146109524Y-131204819D01*
X146395238Y-131204819D02*
X146395238Y-130204819D01*
X146395238Y-130204819D02*
X146300000Y-130347676D01*
X146300000Y-130347676D02*
X146204762Y-130442914D01*
X146204762Y-130442914D02*
X146109524Y-130490533D01*
X100754819Y-123416666D02*
X100278628Y-123749999D01*
X100754819Y-123988094D02*
X99754819Y-123988094D01*
X99754819Y-123988094D02*
X99754819Y-123607142D01*
X99754819Y-123607142D02*
X99802438Y-123511904D01*
X99802438Y-123511904D02*
X99850057Y-123464285D01*
X99850057Y-123464285D02*
X99945295Y-123416666D01*
X99945295Y-123416666D02*
X100088152Y-123416666D01*
X100088152Y-123416666D02*
X100183390Y-123464285D01*
X100183390Y-123464285D02*
X100231009Y-123511904D01*
X100231009Y-123511904D02*
X100278628Y-123607142D01*
X100278628Y-123607142D02*
X100278628Y-123988094D01*
X100754819Y-122988094D02*
X99754819Y-122988094D01*
X99754819Y-122988094D02*
X99754819Y-122607142D01*
X99754819Y-122607142D02*
X99802438Y-122511904D01*
X99802438Y-122511904D02*
X99850057Y-122464285D01*
X99850057Y-122464285D02*
X99945295Y-122416666D01*
X99945295Y-122416666D02*
X100088152Y-122416666D01*
X100088152Y-122416666D02*
X100183390Y-122464285D01*
X100183390Y-122464285D02*
X100231009Y-122511904D01*
X100231009Y-122511904D02*
X100278628Y-122607142D01*
X100278628Y-122607142D02*
X100278628Y-122988094D01*
X100754819Y-121988094D02*
X99754819Y-121988094D01*
X100373866Y-121511904D02*
X100373866Y-120750000D01*
X100754819Y-120273809D02*
X99754819Y-120273809D01*
X99754819Y-120273809D02*
X99754819Y-119892857D01*
X99754819Y-119892857D02*
X99802438Y-119797619D01*
X99802438Y-119797619D02*
X99850057Y-119750000D01*
X99850057Y-119750000D02*
X99945295Y-119702381D01*
X99945295Y-119702381D02*
X100088152Y-119702381D01*
X100088152Y-119702381D02*
X100183390Y-119750000D01*
X100183390Y-119750000D02*
X100231009Y-119797619D01*
X100231009Y-119797619D02*
X100278628Y-119892857D01*
X100278628Y-119892857D02*
X100278628Y-120273809D01*
X100754819Y-119273809D02*
X100088152Y-119273809D01*
X99754819Y-119273809D02*
X99802438Y-119321428D01*
X99802438Y-119321428D02*
X99850057Y-119273809D01*
X99850057Y-119273809D02*
X99802438Y-119226190D01*
X99802438Y-119226190D02*
X99754819Y-119273809D01*
X99754819Y-119273809D02*
X99850057Y-119273809D01*
X100707200Y-118369048D02*
X100754819Y-118464286D01*
X100754819Y-118464286D02*
X100754819Y-118654762D01*
X100754819Y-118654762D02*
X100707200Y-118750000D01*
X100707200Y-118750000D02*
X100659580Y-118797619D01*
X100659580Y-118797619D02*
X100564342Y-118845238D01*
X100564342Y-118845238D02*
X100278628Y-118845238D01*
X100278628Y-118845238D02*
X100183390Y-118797619D01*
X100183390Y-118797619D02*
X100135771Y-118750000D01*
X100135771Y-118750000D02*
X100088152Y-118654762D01*
X100088152Y-118654762D02*
X100088152Y-118464286D01*
X100088152Y-118464286D02*
X100135771Y-118369048D01*
X100754819Y-117797619D02*
X100707200Y-117892857D01*
X100707200Y-117892857D02*
X100659580Y-117940476D01*
X100659580Y-117940476D02*
X100564342Y-117988095D01*
X100564342Y-117988095D02*
X100278628Y-117988095D01*
X100278628Y-117988095D02*
X100183390Y-117940476D01*
X100183390Y-117940476D02*
X100135771Y-117892857D01*
X100135771Y-117892857D02*
X100088152Y-117797619D01*
X100088152Y-117797619D02*
X100088152Y-117654762D01*
X100088152Y-117654762D02*
X100135771Y-117559524D01*
X100135771Y-117559524D02*
X100183390Y-117511905D01*
X100183390Y-117511905D02*
X100278628Y-117464286D01*
X100278628Y-117464286D02*
X100564342Y-117464286D01*
X100564342Y-117464286D02*
X100659580Y-117511905D01*
X100659580Y-117511905D02*
X100707200Y-117559524D01*
X100707200Y-117559524D02*
X100754819Y-117654762D01*
X100754819Y-117654762D02*
X100754819Y-117797619D01*
X99104761Y-88404819D02*
X99104761Y-89119104D01*
X99104761Y-89119104D02*
X99057142Y-89261961D01*
X99057142Y-89261961D02*
X98961904Y-89357200D01*
X98961904Y-89357200D02*
X98819047Y-89404819D01*
X98819047Y-89404819D02*
X98723809Y-89404819D01*
X99533333Y-89357200D02*
X99676190Y-89404819D01*
X99676190Y-89404819D02*
X99914285Y-89404819D01*
X99914285Y-89404819D02*
X100009523Y-89357200D01*
X100009523Y-89357200D02*
X100057142Y-89309580D01*
X100057142Y-89309580D02*
X100104761Y-89214342D01*
X100104761Y-89214342D02*
X100104761Y-89119104D01*
X100104761Y-89119104D02*
X100057142Y-89023866D01*
X100057142Y-89023866D02*
X100009523Y-88976247D01*
X100009523Y-88976247D02*
X99914285Y-88928628D01*
X99914285Y-88928628D02*
X99723809Y-88881009D01*
X99723809Y-88881009D02*
X99628571Y-88833390D01*
X99628571Y-88833390D02*
X99580952Y-88785771D01*
X99580952Y-88785771D02*
X99533333Y-88690533D01*
X99533333Y-88690533D02*
X99533333Y-88595295D01*
X99533333Y-88595295D02*
X99580952Y-88500057D01*
X99580952Y-88500057D02*
X99628571Y-88452438D01*
X99628571Y-88452438D02*
X99723809Y-88404819D01*
X99723809Y-88404819D02*
X99961904Y-88404819D01*
X99961904Y-88404819D02*
X100104761Y-88452438D01*
X100390476Y-88404819D02*
X100961904Y-88404819D01*
X100676190Y-89404819D02*
X100676190Y-88404819D01*
X101057143Y-89500057D02*
X101819047Y-89500057D01*
X102628571Y-89404819D02*
X102295238Y-88928628D01*
X102057143Y-89404819D02*
X102057143Y-88404819D01*
X102057143Y-88404819D02*
X102438095Y-88404819D01*
X102438095Y-88404819D02*
X102533333Y-88452438D01*
X102533333Y-88452438D02*
X102580952Y-88500057D01*
X102580952Y-88500057D02*
X102628571Y-88595295D01*
X102628571Y-88595295D02*
X102628571Y-88738152D01*
X102628571Y-88738152D02*
X102580952Y-88833390D01*
X102580952Y-88833390D02*
X102533333Y-88881009D01*
X102533333Y-88881009D02*
X102438095Y-88928628D01*
X102438095Y-88928628D02*
X102057143Y-88928628D01*
X103438095Y-89357200D02*
X103342857Y-89404819D01*
X103342857Y-89404819D02*
X103152381Y-89404819D01*
X103152381Y-89404819D02*
X103057143Y-89357200D01*
X103057143Y-89357200D02*
X103009524Y-89261961D01*
X103009524Y-89261961D02*
X103009524Y-88881009D01*
X103009524Y-88881009D02*
X103057143Y-88785771D01*
X103057143Y-88785771D02*
X103152381Y-88738152D01*
X103152381Y-88738152D02*
X103342857Y-88738152D01*
X103342857Y-88738152D02*
X103438095Y-88785771D01*
X103438095Y-88785771D02*
X103485714Y-88881009D01*
X103485714Y-88881009D02*
X103485714Y-88976247D01*
X103485714Y-88976247D02*
X103009524Y-89071485D01*
X104057143Y-89404819D02*
X103961905Y-89357200D01*
X103961905Y-89357200D02*
X103914286Y-89261961D01*
X103914286Y-89261961D02*
X103914286Y-88404819D01*
X104866667Y-89404819D02*
X104866667Y-88881009D01*
X104866667Y-88881009D02*
X104819048Y-88785771D01*
X104819048Y-88785771D02*
X104723810Y-88738152D01*
X104723810Y-88738152D02*
X104533334Y-88738152D01*
X104533334Y-88738152D02*
X104438096Y-88785771D01*
X104866667Y-89357200D02*
X104771429Y-89404819D01*
X104771429Y-89404819D02*
X104533334Y-89404819D01*
X104533334Y-89404819D02*
X104438096Y-89357200D01*
X104438096Y-89357200D02*
X104390477Y-89261961D01*
X104390477Y-89261961D02*
X104390477Y-89166723D01*
X104390477Y-89166723D02*
X104438096Y-89071485D01*
X104438096Y-89071485D02*
X104533334Y-89023866D01*
X104533334Y-89023866D02*
X104771429Y-89023866D01*
X104771429Y-89023866D02*
X104866667Y-88976247D01*
X105247620Y-88738152D02*
X105485715Y-89404819D01*
X105723810Y-88738152D02*
X105485715Y-89404819D01*
X105485715Y-89404819D02*
X105390477Y-89642914D01*
X105390477Y-89642914D02*
X105342858Y-89690533D01*
X105342858Y-89690533D02*
X105247620Y-89738152D01*
X106628572Y-89404819D02*
X106057144Y-89404819D01*
X106342858Y-89404819D02*
X106342858Y-88404819D01*
X106342858Y-88404819D02*
X106247620Y-88547676D01*
X106247620Y-88547676D02*
X106152382Y-88642914D01*
X106152382Y-88642914D02*
X106057144Y-88690533D01*
X126400074Y-56786565D02*
X126400074Y-57423986D01*
X126400074Y-57423986D02*
X126437570Y-57498976D01*
X126437570Y-57498976D02*
X126475065Y-57536472D01*
X126475065Y-57536472D02*
X126550056Y-57573967D01*
X126550056Y-57573967D02*
X126700037Y-57573967D01*
X126700037Y-57573967D02*
X126775028Y-57536472D01*
X126775028Y-57536472D02*
X126812523Y-57498976D01*
X126812523Y-57498976D02*
X126850018Y-57423986D01*
X126850018Y-57423986D02*
X126850018Y-56786565D01*
X127149981Y-56786565D02*
X127637420Y-56786565D01*
X127637420Y-56786565D02*
X127374953Y-57086528D01*
X127374953Y-57086528D02*
X127487439Y-57086528D01*
X127487439Y-57086528D02*
X127562429Y-57124023D01*
X127562429Y-57124023D02*
X127599925Y-57161518D01*
X127599925Y-57161518D02*
X127637420Y-57236509D01*
X127637420Y-57236509D02*
X127637420Y-57423986D01*
X127637420Y-57423986D02*
X127599925Y-57498976D01*
X127599925Y-57498976D02*
X127562429Y-57536472D01*
X127562429Y-57536472D02*
X127487439Y-57573967D01*
X127487439Y-57573967D02*
X127262467Y-57573967D01*
X127262467Y-57573967D02*
X127187476Y-57536472D01*
X127187476Y-57536472D02*
X127149981Y-57498976D01*
X120533334Y-63406533D02*
X121000001Y-63406533D01*
X121200001Y-64139866D02*
X120533334Y-64139866D01*
X120533334Y-64139866D02*
X120533334Y-62739866D01*
X120533334Y-62739866D02*
X121200001Y-62739866D01*
X121733334Y-64073200D02*
X121933334Y-64139866D01*
X121933334Y-64139866D02*
X122266668Y-64139866D01*
X122266668Y-64139866D02*
X122400001Y-64073200D01*
X122400001Y-64073200D02*
X122466668Y-64006533D01*
X122466668Y-64006533D02*
X122533334Y-63873200D01*
X122533334Y-63873200D02*
X122533334Y-63739866D01*
X122533334Y-63739866D02*
X122466668Y-63606533D01*
X122466668Y-63606533D02*
X122400001Y-63539866D01*
X122400001Y-63539866D02*
X122266668Y-63473200D01*
X122266668Y-63473200D02*
X122000001Y-63406533D01*
X122000001Y-63406533D02*
X121866668Y-63339866D01*
X121866668Y-63339866D02*
X121800001Y-63273200D01*
X121800001Y-63273200D02*
X121733334Y-63139866D01*
X121733334Y-63139866D02*
X121733334Y-63006533D01*
X121733334Y-63006533D02*
X121800001Y-62873200D01*
X121800001Y-62873200D02*
X121866668Y-62806533D01*
X121866668Y-62806533D02*
X122000001Y-62739866D01*
X122000001Y-62739866D02*
X122333334Y-62739866D01*
X122333334Y-62739866D02*
X122533334Y-62806533D01*
X123133334Y-64139866D02*
X123133334Y-62739866D01*
X123133334Y-62739866D02*
X123666667Y-62739866D01*
X123666667Y-62739866D02*
X123800001Y-62806533D01*
X123800001Y-62806533D02*
X123866667Y-62873200D01*
X123866667Y-62873200D02*
X123933334Y-63006533D01*
X123933334Y-63006533D02*
X123933334Y-63206533D01*
X123933334Y-63206533D02*
X123866667Y-63339866D01*
X123866667Y-63339866D02*
X123800001Y-63406533D01*
X123800001Y-63406533D02*
X123666667Y-63473200D01*
X123666667Y-63473200D02*
X123133334Y-63473200D01*
X124400001Y-62739866D02*
X125266667Y-62739866D01*
X125266667Y-62739866D02*
X124800001Y-63273200D01*
X124800001Y-63273200D02*
X125000001Y-63273200D01*
X125000001Y-63273200D02*
X125133334Y-63339866D01*
X125133334Y-63339866D02*
X125200001Y-63406533D01*
X125200001Y-63406533D02*
X125266667Y-63539866D01*
X125266667Y-63539866D02*
X125266667Y-63873200D01*
X125266667Y-63873200D02*
X125200001Y-64006533D01*
X125200001Y-64006533D02*
X125133334Y-64073200D01*
X125133334Y-64073200D02*
X125000001Y-64139866D01*
X125000001Y-64139866D02*
X124600001Y-64139866D01*
X124600001Y-64139866D02*
X124466667Y-64073200D01*
X124466667Y-64073200D02*
X124400001Y-64006533D01*
X125800000Y-62873200D02*
X125866667Y-62806533D01*
X125866667Y-62806533D02*
X126000000Y-62739866D01*
X126000000Y-62739866D02*
X126333334Y-62739866D01*
X126333334Y-62739866D02*
X126466667Y-62806533D01*
X126466667Y-62806533D02*
X126533334Y-62873200D01*
X126533334Y-62873200D02*
X126600000Y-63006533D01*
X126600000Y-63006533D02*
X126600000Y-63139866D01*
X126600000Y-63139866D02*
X126533334Y-63339866D01*
X126533334Y-63339866D02*
X125733334Y-64139866D01*
X125733334Y-64139866D02*
X126600000Y-64139866D01*
X127200000Y-63606533D02*
X128266667Y-63606533D01*
X129733333Y-64006533D02*
X129666666Y-64073200D01*
X129666666Y-64073200D02*
X129466666Y-64139866D01*
X129466666Y-64139866D02*
X129333333Y-64139866D01*
X129333333Y-64139866D02*
X129133333Y-64073200D01*
X129133333Y-64073200D02*
X129000000Y-63939866D01*
X129000000Y-63939866D02*
X128933333Y-63806533D01*
X128933333Y-63806533D02*
X128866666Y-63539866D01*
X128866666Y-63539866D02*
X128866666Y-63339866D01*
X128866666Y-63339866D02*
X128933333Y-63073200D01*
X128933333Y-63073200D02*
X129000000Y-62939866D01*
X129000000Y-62939866D02*
X129133333Y-62806533D01*
X129133333Y-62806533D02*
X129333333Y-62739866D01*
X129333333Y-62739866D02*
X129466666Y-62739866D01*
X129466666Y-62739866D02*
X129666666Y-62806533D01*
X129666666Y-62806533D02*
X129733333Y-62873200D01*
X130266666Y-63739866D02*
X130933333Y-63739866D01*
X130133333Y-64139866D02*
X130600000Y-62739866D01*
X130600000Y-62739866D02*
X131066666Y-64139866D01*
X131533333Y-64139866D02*
X131533333Y-62739866D01*
X131533333Y-62739866D02*
X132000000Y-63739866D01*
X132000000Y-63739866D02*
X132466666Y-62739866D01*
X132466666Y-62739866D02*
X132466666Y-64139866D01*
X123476190Y-89738152D02*
X123476190Y-90404819D01*
X123238095Y-89357200D02*
X123000000Y-90071485D01*
X123000000Y-90071485D02*
X123619047Y-90071485D01*
X124000000Y-90309580D02*
X124047619Y-90357200D01*
X124047619Y-90357200D02*
X124000000Y-90404819D01*
X124000000Y-90404819D02*
X123952381Y-90357200D01*
X123952381Y-90357200D02*
X124000000Y-90309580D01*
X124000000Y-90309580D02*
X124000000Y-90404819D01*
X124380952Y-89404819D02*
X125047618Y-89404819D01*
X125047618Y-89404819D02*
X124619047Y-90404819D01*
X125428571Y-90404819D02*
X125428571Y-89404819D01*
X125999999Y-90404819D02*
X125571428Y-89833390D01*
X125999999Y-89404819D02*
X125428571Y-89976247D01*
D12*
X106416667Y-64859800D02*
X106559524Y-64907419D01*
X106559524Y-64907419D02*
X106797619Y-64907419D01*
X106797619Y-64907419D02*
X106892857Y-64859800D01*
X106892857Y-64859800D02*
X106940476Y-64812180D01*
X106940476Y-64812180D02*
X106988095Y-64716942D01*
X106988095Y-64716942D02*
X106988095Y-64621704D01*
X106988095Y-64621704D02*
X106940476Y-64526466D01*
X106940476Y-64526466D02*
X106892857Y-64478847D01*
X106892857Y-64478847D02*
X106797619Y-64431228D01*
X106797619Y-64431228D02*
X106607143Y-64383609D01*
X106607143Y-64383609D02*
X106511905Y-64335990D01*
X106511905Y-64335990D02*
X106464286Y-64288371D01*
X106464286Y-64288371D02*
X106416667Y-64193133D01*
X106416667Y-64193133D02*
X106416667Y-64097895D01*
X106416667Y-64097895D02*
X106464286Y-64002657D01*
X106464286Y-64002657D02*
X106511905Y-63955038D01*
X106511905Y-63955038D02*
X106607143Y-63907419D01*
X106607143Y-63907419D02*
X106845238Y-63907419D01*
X106845238Y-63907419D02*
X106988095Y-63955038D01*
X107321429Y-63907419D02*
X107559524Y-64907419D01*
X107559524Y-64907419D02*
X107750000Y-64193133D01*
X107750000Y-64193133D02*
X107940476Y-64907419D01*
X107940476Y-64907419D02*
X108178572Y-63907419D01*
X108511905Y-64002657D02*
X108559524Y-63955038D01*
X108559524Y-63955038D02*
X108654762Y-63907419D01*
X108654762Y-63907419D02*
X108892857Y-63907419D01*
X108892857Y-63907419D02*
X108988095Y-63955038D01*
X108988095Y-63955038D02*
X109035714Y-64002657D01*
X109035714Y-64002657D02*
X109083333Y-64097895D01*
X109083333Y-64097895D02*
X109083333Y-64193133D01*
X109083333Y-64193133D02*
X109035714Y-64335990D01*
X109035714Y-64335990D02*
X108464286Y-64907419D01*
X108464286Y-64907419D02*
X109083333Y-64907419D01*
D10*
X110454819Y-61973809D02*
X110454819Y-61783333D01*
X110454819Y-61783333D02*
X110502438Y-61688095D01*
X110502438Y-61688095D02*
X110597676Y-61592857D01*
X110597676Y-61592857D02*
X110788152Y-61545238D01*
X110788152Y-61545238D02*
X111121485Y-61545238D01*
X111121485Y-61545238D02*
X111311961Y-61592857D01*
X111311961Y-61592857D02*
X111407200Y-61688095D01*
X111407200Y-61688095D02*
X111454819Y-61783333D01*
X111454819Y-61783333D02*
X111454819Y-61973809D01*
X111454819Y-61973809D02*
X111407200Y-62069047D01*
X111407200Y-62069047D02*
X111311961Y-62164285D01*
X111311961Y-62164285D02*
X111121485Y-62211904D01*
X111121485Y-62211904D02*
X110788152Y-62211904D01*
X110788152Y-62211904D02*
X110597676Y-62164285D01*
X110597676Y-62164285D02*
X110502438Y-62069047D01*
X110502438Y-62069047D02*
X110454819Y-61973809D01*
X111454819Y-61116666D02*
X110454819Y-61116666D01*
X110454819Y-61116666D02*
X111454819Y-60545238D01*
X111454819Y-60545238D02*
X110454819Y-60545238D01*
X110407200Y-59354762D02*
X111692914Y-60211904D01*
X110454819Y-58830952D02*
X110454819Y-58640476D01*
X110454819Y-58640476D02*
X110502438Y-58545238D01*
X110502438Y-58545238D02*
X110597676Y-58450000D01*
X110597676Y-58450000D02*
X110788152Y-58402381D01*
X110788152Y-58402381D02*
X111121485Y-58402381D01*
X111121485Y-58402381D02*
X111311961Y-58450000D01*
X111311961Y-58450000D02*
X111407200Y-58545238D01*
X111407200Y-58545238D02*
X111454819Y-58640476D01*
X111454819Y-58640476D02*
X111454819Y-58830952D01*
X111454819Y-58830952D02*
X111407200Y-58926190D01*
X111407200Y-58926190D02*
X111311961Y-59021428D01*
X111311961Y-59021428D02*
X111121485Y-59069047D01*
X111121485Y-59069047D02*
X110788152Y-59069047D01*
X110788152Y-59069047D02*
X110597676Y-59021428D01*
X110597676Y-59021428D02*
X110502438Y-58926190D01*
X110502438Y-58926190D02*
X110454819Y-58830952D01*
X110931009Y-57640476D02*
X110931009Y-57973809D01*
X111454819Y-57973809D02*
X110454819Y-57973809D01*
X110454819Y-57973809D02*
X110454819Y-57497619D01*
X110931009Y-56783333D02*
X110931009Y-57116666D01*
X111454819Y-57116666D02*
X110454819Y-57116666D01*
X110454819Y-57116666D02*
X110454819Y-56640476D01*
X99431009Y-59869047D02*
X99478628Y-59726190D01*
X99478628Y-59726190D02*
X99526247Y-59678571D01*
X99526247Y-59678571D02*
X99621485Y-59630952D01*
X99621485Y-59630952D02*
X99764342Y-59630952D01*
X99764342Y-59630952D02*
X99859580Y-59678571D01*
X99859580Y-59678571D02*
X99907200Y-59726190D01*
X99907200Y-59726190D02*
X99954819Y-59821428D01*
X99954819Y-59821428D02*
X99954819Y-60202380D01*
X99954819Y-60202380D02*
X98954819Y-60202380D01*
X98954819Y-60202380D02*
X98954819Y-59869047D01*
X98954819Y-59869047D02*
X99002438Y-59773809D01*
X99002438Y-59773809D02*
X99050057Y-59726190D01*
X99050057Y-59726190D02*
X99145295Y-59678571D01*
X99145295Y-59678571D02*
X99240533Y-59678571D01*
X99240533Y-59678571D02*
X99335771Y-59726190D01*
X99335771Y-59726190D02*
X99383390Y-59773809D01*
X99383390Y-59773809D02*
X99431009Y-59869047D01*
X99431009Y-59869047D02*
X99431009Y-60202380D01*
X99669104Y-59249999D02*
X99669104Y-58773809D01*
X99954819Y-59345237D02*
X98954819Y-59011904D01*
X98954819Y-59011904D02*
X99954819Y-58678571D01*
X98954819Y-58488094D02*
X98954819Y-57916666D01*
X99954819Y-58202380D02*
X98954819Y-58202380D01*
X98954819Y-57726189D02*
X98954819Y-57154761D01*
X99954819Y-57440475D02*
X98954819Y-57440475D01*
X110859580Y-51178571D02*
X110907200Y-51226190D01*
X110907200Y-51226190D02*
X110954819Y-51369047D01*
X110954819Y-51369047D02*
X110954819Y-51464285D01*
X110954819Y-51464285D02*
X110907200Y-51607142D01*
X110907200Y-51607142D02*
X110811961Y-51702380D01*
X110811961Y-51702380D02*
X110716723Y-51749999D01*
X110716723Y-51749999D02*
X110526247Y-51797618D01*
X110526247Y-51797618D02*
X110383390Y-51797618D01*
X110383390Y-51797618D02*
X110192914Y-51749999D01*
X110192914Y-51749999D02*
X110097676Y-51702380D01*
X110097676Y-51702380D02*
X110002438Y-51607142D01*
X110002438Y-51607142D02*
X109954819Y-51464285D01*
X109954819Y-51464285D02*
X109954819Y-51369047D01*
X109954819Y-51369047D02*
X110002438Y-51226190D01*
X110002438Y-51226190D02*
X110050057Y-51178571D01*
X110669104Y-50797618D02*
X110669104Y-50321428D01*
X110954819Y-50892856D02*
X109954819Y-50559523D01*
X109954819Y-50559523D02*
X110954819Y-50226190D01*
X110954819Y-49892856D02*
X109954819Y-49892856D01*
X109954819Y-49892856D02*
X110669104Y-49559523D01*
X110669104Y-49559523D02*
X109954819Y-49226190D01*
X109954819Y-49226190D02*
X110954819Y-49226190D01*
X110954819Y-47416666D02*
X110478628Y-47749999D01*
X110954819Y-47988094D02*
X109954819Y-47988094D01*
X109954819Y-47988094D02*
X109954819Y-47607142D01*
X109954819Y-47607142D02*
X110002438Y-47511904D01*
X110002438Y-47511904D02*
X110050057Y-47464285D01*
X110050057Y-47464285D02*
X110145295Y-47416666D01*
X110145295Y-47416666D02*
X110288152Y-47416666D01*
X110288152Y-47416666D02*
X110383390Y-47464285D01*
X110383390Y-47464285D02*
X110431009Y-47511904D01*
X110431009Y-47511904D02*
X110478628Y-47607142D01*
X110478628Y-47607142D02*
X110478628Y-47988094D01*
X110907200Y-47035713D02*
X110954819Y-46892856D01*
X110954819Y-46892856D02*
X110954819Y-46654761D01*
X110954819Y-46654761D02*
X110907200Y-46559523D01*
X110907200Y-46559523D02*
X110859580Y-46511904D01*
X110859580Y-46511904D02*
X110764342Y-46464285D01*
X110764342Y-46464285D02*
X110669104Y-46464285D01*
X110669104Y-46464285D02*
X110573866Y-46511904D01*
X110573866Y-46511904D02*
X110526247Y-46559523D01*
X110526247Y-46559523D02*
X110478628Y-46654761D01*
X110478628Y-46654761D02*
X110431009Y-46845237D01*
X110431009Y-46845237D02*
X110383390Y-46940475D01*
X110383390Y-46940475D02*
X110335771Y-46988094D01*
X110335771Y-46988094D02*
X110240533Y-47035713D01*
X110240533Y-47035713D02*
X110145295Y-47035713D01*
X110145295Y-47035713D02*
X110050057Y-46988094D01*
X110050057Y-46988094D02*
X110002438Y-46940475D01*
X110002438Y-46940475D02*
X109954819Y-46845237D01*
X109954819Y-46845237D02*
X109954819Y-46607142D01*
X109954819Y-46607142D02*
X110002438Y-46464285D01*
X109954819Y-46178570D02*
X109954819Y-45607142D01*
X110954819Y-45892856D02*
X109954819Y-45892856D01*
X113893333Y-86724819D02*
X113560000Y-86248628D01*
X113321905Y-86724819D02*
X113321905Y-85724819D01*
X113321905Y-85724819D02*
X113702857Y-85724819D01*
X113702857Y-85724819D02*
X113798095Y-85772438D01*
X113798095Y-85772438D02*
X113845714Y-85820057D01*
X113845714Y-85820057D02*
X113893333Y-85915295D01*
X113893333Y-85915295D02*
X113893333Y-86058152D01*
X113893333Y-86058152D02*
X113845714Y-86153390D01*
X113845714Y-86153390D02*
X113798095Y-86201009D01*
X113798095Y-86201009D02*
X113702857Y-86248628D01*
X113702857Y-86248628D02*
X113321905Y-86248628D01*
X114274286Y-85820057D02*
X114321905Y-85772438D01*
X114321905Y-85772438D02*
X114417143Y-85724819D01*
X114417143Y-85724819D02*
X114655238Y-85724819D01*
X114655238Y-85724819D02*
X114750476Y-85772438D01*
X114750476Y-85772438D02*
X114798095Y-85820057D01*
X114798095Y-85820057D02*
X114845714Y-85915295D01*
X114845714Y-85915295D02*
X114845714Y-86010533D01*
X114845714Y-86010533D02*
X114798095Y-86153390D01*
X114798095Y-86153390D02*
X114226667Y-86724819D01*
X114226667Y-86724819D02*
X114845714Y-86724819D01*
D13*
X136750000Y-136750000D02*
G75*
G03*
X136750000Y-136750000I-3450000J0D01*
G01*
X131080000Y-107570000D02*
X131080000Y-115250000D01*
X131080000Y-107570000D02*
X133740000Y-107570000D01*
X131080000Y-115250000D02*
X133740000Y-115250000D01*
X132410000Y-104970000D02*
X133740000Y-104970000D01*
X133740000Y-104970000D02*
X133740000Y-106300000D01*
X133740000Y-107570000D02*
X133740000Y-115250000D01*
X146977500Y-131790000D02*
X146977500Y-144510000D01*
X145757500Y-131790000D02*
X145757500Y-133010000D01*
X138557500Y-131790000D02*
X146977500Y-131790000D01*
X145757500Y-133010000D02*
X140757500Y-133010000D01*
X141757500Y-133010000D02*
X141757500Y-143290000D01*
X140757500Y-133010000D02*
X140757500Y-131790000D01*
X140757500Y-133010000D02*
X138557500Y-133010000D01*
X138557500Y-133010000D02*
X138557500Y-131790000D01*
X145177500Y-134080000D02*
X145257500Y-134400000D01*
X141757500Y-134080000D02*
X145177500Y-134080000D01*
X138067500Y-134100000D02*
X138067500Y-134700000D01*
X145257500Y-134400000D02*
X145177500Y-134720000D01*
X141757500Y-134400000D02*
X141757500Y-134080000D01*
X138667500Y-134400000D02*
X138067500Y-134100000D01*
X138067500Y-134700000D02*
X138667500Y-134400000D01*
X145177500Y-134720000D02*
X141757500Y-134720000D01*
X141757500Y-134720000D02*
X141757500Y-134400000D01*
X140757500Y-135570000D02*
X140757500Y-135730000D01*
X145177500Y-136580000D02*
X145257500Y-136900000D01*
X141757500Y-136580000D02*
X145177500Y-136580000D01*
X145257500Y-136900000D02*
X145177500Y-137220000D01*
X141757500Y-136900000D02*
X141757500Y-136580000D01*
X145177500Y-137220000D02*
X141757500Y-137220000D01*
X141757500Y-137220000D02*
X141757500Y-136900000D01*
X140757500Y-138070000D02*
X140757500Y-138230000D01*
X145177500Y-139080000D02*
X145257500Y-139400000D01*
X141757500Y-139080000D02*
X145177500Y-139080000D01*
X145257500Y-139400000D02*
X145177500Y-139720000D01*
X141757500Y-139400000D02*
X141757500Y-139080000D01*
X145177500Y-139720000D02*
X141757500Y-139720000D01*
X141757500Y-139720000D02*
X141757500Y-139400000D01*
X140757500Y-140570000D02*
X140757500Y-140730000D01*
X145177500Y-141580000D02*
X145257500Y-141900000D01*
X141757500Y-141580000D02*
X145177500Y-141580000D01*
X145257500Y-141900000D02*
X145177500Y-142220000D01*
X141757500Y-141900000D02*
X141757500Y-141580000D01*
X145177500Y-142220000D02*
X141757500Y-142220000D01*
X141757500Y-142220000D02*
X141757500Y-141900000D01*
X145757500Y-143290000D02*
X140757500Y-143290000D01*
X140757500Y-143290000D02*
X140757500Y-144510000D01*
X138557500Y-143290000D02*
X140757500Y-143290000D01*
X146977500Y-144510000D02*
X138557500Y-144510000D01*
X145757500Y-144510000D02*
X145757500Y-143290000D01*
X138557500Y-144510000D02*
X138557500Y-143290000D01*
X125000000Y-143650000D02*
X125000000Y-143350000D01*
X125000000Y-143650000D02*
X104000000Y-143650000D01*
X125000000Y-141250000D02*
X125000000Y-140850000D01*
X125000000Y-140983000D02*
X121993000Y-140983000D01*
X125000000Y-138650000D02*
X125000000Y-138250000D01*
X125000000Y-136150000D02*
X125000000Y-135750000D01*
X125000000Y-133550000D02*
X125000000Y-133150000D01*
X125000000Y-131050000D02*
X125000000Y-130650000D01*
X125000000Y-128550000D02*
X125000000Y-128150000D01*
X125000000Y-125950000D02*
X125000000Y-125550000D01*
X125000000Y-123450000D02*
X125000000Y-123050000D01*
X125000000Y-120850000D02*
X125000000Y-120450000D01*
X125000000Y-118350000D02*
X125000000Y-117950000D01*
X125000000Y-115850000D02*
X125000000Y-115450000D01*
X125000000Y-113250000D02*
X125000000Y-112850000D01*
X125000000Y-110750000D02*
X125000000Y-110350000D01*
X125000000Y-108150000D02*
X125000000Y-107750000D01*
X125000000Y-105650000D02*
X125000000Y-105250000D01*
X125000000Y-103050000D02*
X125000000Y-102650000D01*
X125000000Y-100550000D02*
X125000000Y-100150000D01*
X125000000Y-98050000D02*
X125000000Y-97650000D01*
X125000000Y-95450000D02*
X125000000Y-95050000D01*
X121993000Y-140983000D02*
X121993000Y-143650000D01*
X118200000Y-92650000D02*
X125000000Y-92650000D01*
X116000000Y-92650000D02*
X115600000Y-92650000D01*
X113400000Y-92650000D02*
X113000000Y-92650000D01*
X104000000Y-143650000D02*
X104000000Y-143350000D01*
X104000000Y-141250000D02*
X104000000Y-140850000D01*
X104000000Y-138650000D02*
X104000000Y-138250000D01*
X104000000Y-136150000D02*
X104000000Y-135750000D01*
X104000000Y-133550000D02*
X104000000Y-133150000D01*
X104000000Y-131050000D02*
X104000000Y-130650000D01*
X104000000Y-128550000D02*
X104000000Y-128150000D01*
X104000000Y-125950000D02*
X104000000Y-125550000D01*
X104000000Y-123450000D02*
X104000000Y-123050000D01*
X104000000Y-120850000D02*
X104000000Y-120450000D01*
X104000000Y-118350000D02*
X104000000Y-117950000D01*
X104000000Y-115850000D02*
X104000000Y-115450000D01*
X104000000Y-113250000D02*
X104000000Y-112850000D01*
X104000000Y-110750000D02*
X104000000Y-110350000D01*
X104000000Y-108150000D02*
X104000000Y-107750000D01*
X104000000Y-105650000D02*
X104000000Y-105250000D01*
X104000000Y-103050000D02*
X104000000Y-102650000D01*
X104000000Y-100550000D02*
X104000000Y-100150000D01*
X104000000Y-98050000D02*
X104000000Y-97650000D01*
X104000000Y-95450000D02*
X104000000Y-95050000D01*
X104000000Y-92650000D02*
X110800000Y-92650000D01*
X98690000Y-87860000D02*
X98690000Y-77640000D01*
X99910000Y-87860000D02*
X99910000Y-86640000D01*
X107110000Y-87860000D02*
X98690000Y-87860000D01*
X99910000Y-86640000D02*
X104910000Y-86640000D01*
X103910000Y-86640000D02*
X103910000Y-78860000D01*
X104910000Y-86640000D02*
X104910000Y-87860000D01*
X104910000Y-86640000D02*
X107110000Y-86640000D01*
X107110000Y-86640000D02*
X107110000Y-87860000D01*
X100490000Y-85570000D02*
X100410000Y-85250000D01*
X103910000Y-85570000D02*
X100490000Y-85570000D01*
X107600000Y-85550000D02*
X107600000Y-84950000D01*
X100410000Y-85250000D02*
X100490000Y-84930000D01*
X103910000Y-85250000D02*
X103910000Y-85570000D01*
X107000000Y-85250000D02*
X107600000Y-85550000D01*
X107600000Y-84950000D02*
X107000000Y-85250000D01*
X100490000Y-84930000D02*
X103910000Y-84930000D01*
X103910000Y-84930000D02*
X103910000Y-85250000D01*
X104910000Y-84080000D02*
X104910000Y-83920000D01*
X100490000Y-83070000D02*
X100410000Y-82750000D01*
X103910000Y-83070000D02*
X100490000Y-83070000D01*
X100410000Y-82750000D02*
X100490000Y-82430000D01*
X103910000Y-82750000D02*
X103910000Y-83070000D01*
X100490000Y-82430000D02*
X103910000Y-82430000D01*
X103910000Y-82430000D02*
X103910000Y-82750000D01*
X104910000Y-81580000D02*
X104910000Y-81420000D01*
X100490000Y-80570000D02*
X100410000Y-80250000D01*
X103910000Y-80570000D02*
X100490000Y-80570000D01*
X100410000Y-80250000D02*
X100490000Y-79930000D01*
X103910000Y-80250000D02*
X103910000Y-80570000D01*
X100490000Y-79930000D02*
X103910000Y-79930000D01*
X103910000Y-79930000D02*
X103910000Y-80250000D01*
X99910000Y-78860000D02*
X104910000Y-78860000D01*
X104910000Y-78860000D02*
X104910000Y-77640000D01*
X107110000Y-78860000D02*
X104910000Y-78860000D01*
X98690000Y-77640000D02*
X107110000Y-77640000D01*
X99910000Y-77640000D02*
X99910000Y-78860000D01*
X107110000Y-77640000D02*
X107110000Y-78860000D01*
D14*
X140970000Y-83252500D02*
X140970000Y-43247500D01*
X140970000Y-43247500D02*
X113030000Y-43247500D01*
X113030000Y-83252500D02*
X140970000Y-83252500D01*
X113030000Y-43247500D02*
X113030000Y-83252500D01*
X131016090Y-52137500D02*
G75*
G03*
X131016090Y-52137500I-4016090J0D01*
G01*
D13*
X120480000Y-89930000D02*
X121250000Y-89930000D01*
X121250000Y-88560000D02*
X121250000Y-91300000D01*
X121250000Y-91300000D02*
X127790000Y-91300000D01*
X127790000Y-88560000D02*
X121250000Y-88560000D01*
X127790000Y-91300000D02*
X127790000Y-88560000D01*
X128560000Y-89930000D02*
X127790000Y-89930000D01*
D12*
X103350000Y-55450000D02*
X110050000Y-55450000D01*
X110050000Y-55450000D02*
X110050000Y-68250000D01*
X110050000Y-68250000D02*
X103350000Y-68250000D01*
X103350000Y-68250000D02*
X103350000Y-55450000D01*
X107550000Y-57010000D02*
G75*
G03*
X107550000Y-57010000I-800000J0D01*
G01*
X107550000Y-61850000D02*
G75*
G03*
X107550000Y-61850000I-800000J0D01*
G01*
X107550000Y-66650000D02*
G75*
G03*
X107550000Y-66650000I-800000J0D01*
G01*
D13*
X99170000Y-53480000D02*
X99170000Y-56080000D01*
X99170000Y-53480000D02*
X101830000Y-53480000D01*
X99170000Y-56080000D02*
X101830000Y-56080000D01*
X100500000Y-50880000D02*
X101830000Y-50880000D01*
X101830000Y-50880000D02*
X101830000Y-52210000D01*
X101830000Y-53480000D02*
X101830000Y-56080000D01*
X105150000Y-53400000D02*
X106533000Y-53400000D01*
X105150000Y-53400000D02*
X105150000Y-52017000D01*
X105390000Y-53160000D02*
X106700000Y-53160000D01*
X105390000Y-53160000D02*
X105390000Y-46340000D01*
X108300000Y-53160000D02*
X109610000Y-53160000D01*
X109610000Y-53160000D02*
X109610000Y-46340000D01*
X106865000Y-51560000D02*
X108135000Y-51560000D01*
X106985000Y-51560000D02*
X106985000Y-50353333D01*
X107105000Y-51560000D02*
X107105000Y-50353333D01*
X107225000Y-51560000D02*
X107225000Y-50353333D01*
X107345000Y-51560000D02*
X107345000Y-50353333D01*
X107465000Y-51560000D02*
X107465000Y-50353333D01*
X107585000Y-51560000D02*
X107585000Y-50353333D01*
X107705000Y-51560000D02*
X107705000Y-50353333D01*
X107825000Y-51560000D02*
X107825000Y-50353333D01*
X107945000Y-51560000D02*
X107945000Y-50353333D01*
X108065000Y-51560000D02*
X108065000Y-50353333D01*
X108135000Y-51560000D02*
X108135000Y-47940000D01*
X106865000Y-50353333D02*
X108135000Y-50353333D01*
X106865000Y-47940000D02*
X106865000Y-51560000D01*
X108135000Y-47940000D02*
X106865000Y-47940000D01*
X105390000Y-46340000D02*
X106700000Y-46340000D01*
X108300000Y-46340000D02*
X109610000Y-46340000D01*
X109960000Y-86250000D02*
X110730000Y-86250000D01*
X110730000Y-84880000D02*
X110730000Y-87620000D01*
X110730000Y-87620000D02*
X117270000Y-87620000D01*
X117270000Y-84880000D02*
X110730000Y-84880000D01*
X117270000Y-87620000D02*
X117270000Y-84880000D01*
X118040000Y-86250000D02*
X117270000Y-86250000D01*
%LPC*%
D15*
X133300000Y-138250000D03*
D16*
X133300000Y-135250000D03*
D17*
X132410000Y-106300000D03*
D18*
X132410000Y-108840000D03*
X132410000Y-111380000D03*
X132410000Y-113920000D03*
D19*
X140167500Y-134400000D03*
D20*
X140167500Y-136900000D03*
X140167500Y-139400000D03*
X140167500Y-141900000D03*
D18*
X123390000Y-142280000D03*
D21*
X124290000Y-142280000D03*
D18*
X123390000Y-139740000D03*
D21*
X124290000Y-139740000D03*
D17*
X123390000Y-137200000D03*
D21*
X124290000Y-137200000D03*
D18*
X123390000Y-134660000D03*
D21*
X124290000Y-134660000D03*
D18*
X123390000Y-132120000D03*
D21*
X124290000Y-132120000D03*
D18*
X123390000Y-129580000D03*
D21*
X124290000Y-129580000D03*
D18*
X123390000Y-127040000D03*
D21*
X124290000Y-127040000D03*
D17*
X123390000Y-124500000D03*
D21*
X124290000Y-124500000D03*
D18*
X123390000Y-121960000D03*
D21*
X124290000Y-121960000D03*
D18*
X123390000Y-119420000D03*
D21*
X124290000Y-119420000D03*
D18*
X123390000Y-116880000D03*
D21*
X124290000Y-116880000D03*
D18*
X123390000Y-114340000D03*
D21*
X124290000Y-114340000D03*
D17*
X123390000Y-111800000D03*
D21*
X124290000Y-111800000D03*
D18*
X123390000Y-109260000D03*
D21*
X124290000Y-109260000D03*
D18*
X123390000Y-106720000D03*
D21*
X124290000Y-106720000D03*
D18*
X123390000Y-104180000D03*
D21*
X124290000Y-104180000D03*
D18*
X123390000Y-101640000D03*
D21*
X124290000Y-101640000D03*
D17*
X123390000Y-99100000D03*
D21*
X124290000Y-99100000D03*
D18*
X123390000Y-96560000D03*
D21*
X124290000Y-96560000D03*
D18*
X123390000Y-94020000D03*
D21*
X124290000Y-94020000D03*
D18*
X105610000Y-94020000D03*
D21*
X104710000Y-94020000D03*
D18*
X105610000Y-96560000D03*
D21*
X104710000Y-96560000D03*
D17*
X105610000Y-99100000D03*
D21*
X104710000Y-99100000D03*
D18*
X105610000Y-101640000D03*
D21*
X104710000Y-101640000D03*
D18*
X105610000Y-104180000D03*
D21*
X104710000Y-104180000D03*
D18*
X105610000Y-106720000D03*
D21*
X104710000Y-106720000D03*
D18*
X105610000Y-109260000D03*
D21*
X104710000Y-109260000D03*
D17*
X105610000Y-111800000D03*
D21*
X104710000Y-111800000D03*
D18*
X105610000Y-114340000D03*
D21*
X104710000Y-114340000D03*
D18*
X105610000Y-116880000D03*
D21*
X104710000Y-116880000D03*
D18*
X105610000Y-119420000D03*
D21*
X104710000Y-119420000D03*
D18*
X105610000Y-121960000D03*
D21*
X104710000Y-121960000D03*
D17*
X105610000Y-124500000D03*
D21*
X104710000Y-124500000D03*
D18*
X105610000Y-127040000D03*
D21*
X104710000Y-127040000D03*
D18*
X105610000Y-129580000D03*
D21*
X104710000Y-129580000D03*
D18*
X105610000Y-132120000D03*
D21*
X104710000Y-132120000D03*
D18*
X105610000Y-134660000D03*
D21*
X104710000Y-134660000D03*
D17*
X105610000Y-137200000D03*
D21*
X104710000Y-137200000D03*
D18*
X105610000Y-139740000D03*
D21*
X104710000Y-139740000D03*
D18*
X105610000Y-142280000D03*
D21*
X104710000Y-142280000D03*
D18*
X117040000Y-94250000D03*
D22*
X117040000Y-93350000D03*
D17*
X114500000Y-94250000D03*
D22*
X114500000Y-93350000D03*
D18*
X111960000Y-94250000D03*
D22*
X111960000Y-93350000D03*
D23*
X102300000Y-147750000D03*
D24*
X105500000Y-85250000D03*
D20*
X105500000Y-82750000D03*
X105500000Y-80250000D03*
D25*
X138430000Y-64837500D03*
D26*
X138430000Y-62297500D03*
X138430000Y-59757500D03*
X138430000Y-57217500D03*
D25*
X138430000Y-54677500D03*
D26*
X138430000Y-52137500D03*
X138430000Y-49597500D03*
X138430000Y-47057500D03*
X115570000Y-47057500D03*
D25*
X115570000Y-49597500D03*
D26*
X115570000Y-52137500D03*
X115570000Y-54677500D03*
X115570000Y-57217500D03*
X115570000Y-59757500D03*
X115570000Y-62297500D03*
X115570000Y-64837500D03*
D27*
X119440000Y-89930000D03*
D28*
X129600000Y-89930000D03*
D29*
X106750000Y-57000000D03*
X106750000Y-61850000D03*
X106750000Y-66650000D03*
D17*
X100500000Y-52210000D03*
D18*
X100500000Y-54750000D03*
D30*
X107500000Y-54055000D03*
X107500000Y-45445000D03*
D23*
X101500000Y-46750000D03*
D27*
X108920000Y-86250000D03*
D28*
X119080000Y-86250000D03*
D23*
X143700000Y-147950000D03*
D31*
X118180000Y-73750000D03*
D32*
X101520000Y-76290000D03*
D33*
X101520000Y-73750000D03*
X101520000Y-71210000D03*
D17*
X142740000Y-85750000D03*
D18*
X140200000Y-85750000D03*
X137660000Y-85750000D03*
X135120000Y-85750000D03*
X132580000Y-85750000D03*
X130040000Y-85750000D03*
X127500000Y-85750000D03*
%LPD*%
M02*
