M48
; DRILL file {KiCad 7.0.7} date Mon Mar 11 23:01:02 2024
; FORMAT={-:-/ absolute / metric / decimal}
; #@! TF.CreationDate,2024-03-11T23:01:02+01:00
; #@! TF.GenerationSoftware,Kicad,Pcbnew,7.0.7
; #@! TF.FileFunction,MixedPlating,1,2
FMAT,2
METRIC
; #@! TA.AperFunction,Plated,PTH,ComponentDrill
T1C0.762
; #@! TA.AperFunction,Plated,PTH,ComponentDrill
T2C0.800
; #@! TA.AperFunction,Plated,PTH,ComponentDrill
T3C0.900
; #@! TA.AperFunction,Plated,PTH,ComponentDrill
T4C0.950
; #@! TA.AperFunction,Plated,PTH,ComponentDrill
T5C1.000
; #@! TA.AperFunction,Plated,PTH,ComponentDrill
T6C1.016
; #@! TA.AperFunction,Plated,PTH,ComponentDrill
T7C1.020
; #@! TA.AperFunction,Plated,PTH,ComponentDrill
T8C1.100
; #@! TA.AperFunction,NonPlated,NPTH,ComponentDrill
T9C2.200
; #@! TA.AperFunction,NonPlated,NPTH,ComponentDrill
T10C3.500
%
G90
G05
T1
X106.75Y-57.0
X106.75Y-61.85
X106.75Y-66.65
T2
X108.92Y-86.25
X119.08Y-86.25
X119.44Y-89.93
X129.6Y-89.93
T3
X133.3Y-135.25
X133.3Y-138.25
T4
X105.5Y-80.25
X105.5Y-82.75
X105.5Y-85.25
X140.167Y-134.4
X140.167Y-136.9
X140.167Y-139.4
X140.167Y-141.9
T5
X100.5Y-52.21
X100.5Y-54.75
X127.5Y-85.75
X130.04Y-85.75
X132.41Y-106.3
X132.41Y-108.84
X132.41Y-111.38
X132.41Y-113.92
X132.58Y-85.75
X135.12Y-85.75
X137.66Y-85.75
X140.2Y-85.75
X142.74Y-85.75
T6
X115.57Y-47.057
X115.57Y-49.597
X115.57Y-52.137
X115.57Y-54.677
X115.57Y-57.217
X115.57Y-59.758
X115.57Y-62.297
X115.57Y-64.837
X138.43Y-47.057
X138.43Y-49.597
X138.43Y-52.137
X138.43Y-54.677
X138.43Y-57.217
X138.43Y-59.758
X138.43Y-62.297
X138.43Y-64.837
T7
X105.61Y-94.02
X105.61Y-96.56
X105.61Y-99.1
X105.61Y-101.64
X105.61Y-104.18
X105.61Y-106.72
X105.61Y-109.26
X105.61Y-111.8
X105.61Y-114.34
X105.61Y-116.88
X105.61Y-119.42
X105.61Y-121.96
X105.61Y-124.5
X105.61Y-127.04
X105.61Y-129.58
X105.61Y-132.12
X105.61Y-134.66
X105.61Y-137.2
X105.61Y-139.74
X105.61Y-142.28
X111.96Y-94.25
X114.5Y-94.25
X117.04Y-94.25
X123.39Y-94.02
X123.39Y-96.56
X123.39Y-99.1
X123.39Y-101.64
X123.39Y-104.18
X123.39Y-106.72
X123.39Y-109.26
X123.39Y-111.8
X123.39Y-114.34
X123.39Y-116.88
X123.39Y-119.42
X123.39Y-121.96
X123.39Y-124.5
X123.39Y-127.04
X123.39Y-129.58
X123.39Y-132.12
X123.39Y-134.66
X123.39Y-137.2
X123.39Y-139.74
X123.39Y-142.28
T8
X101.52Y-71.21
X101.52Y-73.75
X101.52Y-76.29
T9
X101.5Y-46.75
X102.3Y-147.75
X143.7Y-147.95
T10
X118.18Y-73.75
T0
M30
