G04 #@! TF.GenerationSoftware,KiCad,Pcbnew,7.0.7*
G04 #@! TF.CreationDate,2024-03-11T23:00:31+01:00*
G04 #@! TF.ProjectId,RocketBoard,526f636b-6574-4426-9f61-72642e6b6963,rev?*
G04 #@! TF.SameCoordinates,Original*
G04 #@! TF.FileFunction,Copper,L1,Top*
G04 #@! TF.FilePolarity,Positive*
%FSLAX46Y46*%
G04 Gerber Fmt 4.6, Leading zero omitted, Abs format (unit mm)*
G04 Created by KiCad (PCBNEW 7.0.7) date 2024-03-11 23:00:31*
%MOMM*%
%LPD*%
G01*
G04 APERTURE LIST*
G04 Aperture macros list*
%AMRoundRect*
0 Rectangle with rounded corners*
0 $1 Rounding radius*
0 $2 $3 $4 $5 $6 $7 $8 $9 X,Y pos of 4 corners*
0 Add a 4 corners polygon primitive as box body*
4,1,4,$2,$3,$4,$5,$6,$7,$8,$9,$2,$3,0*
0 Add four circle primitives for the rounded corners*
1,1,$1+$1,$2,$3*
1,1,$1+$1,$4,$5*
1,1,$1+$1,$6,$7*
1,1,$1+$1,$8,$9*
0 Add four rect primitives between the rounded corners*
20,1,$1+$1,$2,$3,$4,$5,0*
20,1,$1+$1,$4,$5,$6,$7,0*
20,1,$1+$1,$6,$7,$8,$9,0*
20,1,$1+$1,$8,$9,$2,$3,0*%
G04 Aperture macros list end*
G04 #@! TA.AperFunction,ComponentPad*
%ADD10R,2.000000X2.000000*%
G04 #@! TD*
G04 #@! TA.AperFunction,ComponentPad*
%ADD11C,2.000000*%
G04 #@! TD*
G04 #@! TA.AperFunction,ComponentPad*
%ADD12R,1.700000X1.700000*%
G04 #@! TD*
G04 #@! TA.AperFunction,ComponentPad*
%ADD13O,1.700000X1.700000*%
G04 #@! TD*
G04 #@! TA.AperFunction,ComponentPad*
%ADD14RoundRect,0.250000X-0.725000X0.600000X-0.725000X-0.600000X0.725000X-0.600000X0.725000X0.600000X0*%
G04 #@! TD*
G04 #@! TA.AperFunction,ComponentPad*
%ADD15O,1.950000X1.700000*%
G04 #@! TD*
G04 #@! TA.AperFunction,SMDPad,CuDef*
%ADD16R,3.500000X1.700000*%
G04 #@! TD*
G04 #@! TA.AperFunction,SMDPad,CuDef*
%ADD17R,1.700000X3.500000*%
G04 #@! TD*
G04 #@! TA.AperFunction,ComponentPad*
%ADD18RoundRect,0.250000X0.725000X-0.600000X0.725000X0.600000X-0.725000X0.600000X-0.725000X-0.600000X0*%
G04 #@! TD*
G04 #@! TA.AperFunction,ComponentPad*
%ADD19R,1.524000X1.524000*%
G04 #@! TD*
G04 #@! TA.AperFunction,ComponentPad*
%ADD20O,3.048000X1.524000*%
G04 #@! TD*
G04 #@! TA.AperFunction,ComponentPad*
%ADD21C,1.600000*%
G04 #@! TD*
G04 #@! TA.AperFunction,ComponentPad*
%ADD22O,1.600000X1.600000*%
G04 #@! TD*
G04 #@! TA.AperFunction,ComponentPad*
%ADD23C,1.524000*%
G04 #@! TD*
G04 #@! TA.AperFunction,SMDPad,CuDef*
%ADD24R,1.120000X2.440000*%
G04 #@! TD*
G04 #@! TA.AperFunction,ComponentPad*
%ADD25R,2.000000X1.905000*%
G04 #@! TD*
G04 #@! TA.AperFunction,ComponentPad*
%ADD26O,2.000000X1.905000*%
G04 #@! TD*
G04 #@! TA.AperFunction,Conductor*
%ADD27C,1.000000*%
G04 #@! TD*
G04 APERTURE END LIST*
D10*
X133300000Y-138250000D03*
D11*
X133300000Y-135250000D03*
D12*
X132410000Y-106300000D03*
D13*
X132410000Y-108840000D03*
X132410000Y-111380000D03*
X132410000Y-113920000D03*
D14*
X140167500Y-134400000D03*
D15*
X140167500Y-136900000D03*
X140167500Y-139400000D03*
X140167500Y-141900000D03*
D13*
X123390000Y-142280000D03*
D16*
X124290000Y-142280000D03*
D13*
X123390000Y-139740000D03*
D16*
X124290000Y-139740000D03*
D12*
X123390000Y-137200000D03*
D16*
X124290000Y-137200000D03*
D13*
X123390000Y-134660000D03*
D16*
X124290000Y-134660000D03*
D13*
X123390000Y-132120000D03*
D16*
X124290000Y-132120000D03*
D13*
X123390000Y-129580000D03*
D16*
X124290000Y-129580000D03*
D13*
X123390000Y-127040000D03*
D16*
X124290000Y-127040000D03*
D12*
X123390000Y-124500000D03*
D16*
X124290000Y-124500000D03*
D13*
X123390000Y-121960000D03*
D16*
X124290000Y-121960000D03*
D13*
X123390000Y-119420000D03*
D16*
X124290000Y-119420000D03*
D13*
X123390000Y-116880000D03*
D16*
X124290000Y-116880000D03*
D13*
X123390000Y-114340000D03*
D16*
X124290000Y-114340000D03*
D12*
X123390000Y-111800000D03*
D16*
X124290000Y-111800000D03*
D13*
X123390000Y-109260000D03*
D16*
X124290000Y-109260000D03*
D13*
X123390000Y-106720000D03*
D16*
X124290000Y-106720000D03*
D13*
X123390000Y-104180000D03*
D16*
X124290000Y-104180000D03*
D13*
X123390000Y-101640000D03*
D16*
X124290000Y-101640000D03*
D12*
X123390000Y-99100000D03*
D16*
X124290000Y-99100000D03*
D13*
X123390000Y-96560000D03*
D16*
X124290000Y-96560000D03*
D13*
X123390000Y-94020000D03*
D16*
X124290000Y-94020000D03*
D13*
X105610000Y-94020000D03*
D16*
X104710000Y-94020000D03*
D13*
X105610000Y-96560000D03*
D16*
X104710000Y-96560000D03*
D12*
X105610000Y-99100000D03*
D16*
X104710000Y-99100000D03*
D13*
X105610000Y-101640000D03*
D16*
X104710000Y-101640000D03*
D13*
X105610000Y-104180000D03*
D16*
X104710000Y-104180000D03*
D13*
X105610000Y-106720000D03*
D16*
X104710000Y-106720000D03*
D13*
X105610000Y-109260000D03*
D16*
X104710000Y-109260000D03*
D12*
X105610000Y-111800000D03*
D16*
X104710000Y-111800000D03*
D13*
X105610000Y-114340000D03*
D16*
X104710000Y-114340000D03*
D13*
X105610000Y-116880000D03*
D16*
X104710000Y-116880000D03*
D13*
X105610000Y-119420000D03*
D16*
X104710000Y-119420000D03*
D13*
X105610000Y-121960000D03*
D16*
X104710000Y-121960000D03*
D12*
X105610000Y-124500000D03*
D16*
X104710000Y-124500000D03*
D13*
X105610000Y-127040000D03*
D16*
X104710000Y-127040000D03*
D13*
X105610000Y-129580000D03*
D16*
X104710000Y-129580000D03*
D13*
X105610000Y-132120000D03*
D16*
X104710000Y-132120000D03*
D13*
X105610000Y-134660000D03*
D16*
X104710000Y-134660000D03*
D12*
X105610000Y-137200000D03*
D16*
X104710000Y-137200000D03*
D13*
X105610000Y-139740000D03*
D16*
X104710000Y-139740000D03*
D13*
X105610000Y-142280000D03*
D16*
X104710000Y-142280000D03*
D13*
X117040000Y-94250000D03*
D17*
X117040000Y-93350000D03*
D12*
X114500000Y-94250000D03*
D17*
X114500000Y-93350000D03*
D13*
X111960000Y-94250000D03*
D17*
X111960000Y-93350000D03*
D18*
X105500000Y-85250000D03*
D15*
X105500000Y-82750000D03*
X105500000Y-80250000D03*
D19*
X138430000Y-64837500D03*
D20*
X138430000Y-62297500D03*
X138430000Y-59757500D03*
X138430000Y-57217500D03*
D19*
X138430000Y-54677500D03*
D20*
X138430000Y-52137500D03*
X138430000Y-49597500D03*
X138430000Y-47057500D03*
X115570000Y-47057500D03*
D19*
X115570000Y-49597500D03*
D20*
X115570000Y-52137500D03*
X115570000Y-54677500D03*
X115570000Y-57217500D03*
X115570000Y-59757500D03*
X115570000Y-62297500D03*
X115570000Y-64837500D03*
D21*
X119440000Y-89930000D03*
D22*
X129600000Y-89930000D03*
D23*
X106750000Y-57000000D03*
X106750000Y-61850000D03*
X106750000Y-66650000D03*
D12*
X100500000Y-52210000D03*
D13*
X100500000Y-54750000D03*
D24*
X107500000Y-54055000D03*
X107500000Y-45445000D03*
D21*
X108920000Y-86250000D03*
D22*
X119080000Y-86250000D03*
D25*
X101520000Y-76290000D03*
D26*
X101520000Y-73750000D03*
X101520000Y-71210000D03*
D12*
X142740000Y-85750000D03*
D13*
X140200000Y-85750000D03*
X137660000Y-85750000D03*
X135120000Y-85750000D03*
X132580000Y-85750000D03*
X130040000Y-85750000D03*
X127500000Y-85750000D03*
D27*
X144500000Y-139692500D02*
X144500000Y-118550000D01*
X144500000Y-118550000D02*
X134790000Y-108840000D01*
X140167500Y-141900000D02*
X142292500Y-141900000D01*
X134790000Y-108840000D02*
X132410000Y-108840000D01*
X142292500Y-141900000D02*
X144500000Y-139692500D01*
X132410000Y-108840000D02*
X133612081Y-108840000D01*
X124500000Y-82750000D02*
X127500000Y-85750000D01*
X108750000Y-59750000D02*
X103420000Y-65080000D01*
X102450000Y-99100000D02*
X105610000Y-99100000D01*
X132410000Y-95750000D02*
X132471040Y-95688960D01*
X129390000Y-137200000D02*
X123390000Y-137200000D01*
X108750000Y-82750000D02*
X124500000Y-82750000D01*
X101100000Y-87950000D02*
X101100000Y-97750000D01*
X103170000Y-72500000D02*
X103170000Y-84620000D01*
X127500000Y-85750000D02*
X129750000Y-83500000D01*
X103170000Y-84620000D02*
X103800000Y-85250000D01*
X101920000Y-73750000D02*
X103170000Y-72500000D01*
X137950000Y-83500000D02*
X140200000Y-85750000D01*
X108750000Y-55305000D02*
X108750000Y-59750000D01*
X103420000Y-72250000D02*
X103170000Y-72500000D01*
X106950000Y-84550000D02*
X108750000Y-82750000D01*
X107500000Y-54055000D02*
X108750000Y-55305000D01*
X130650000Y-138460000D02*
X130860000Y-138250000D01*
X132471040Y-95508858D02*
X140250000Y-87729898D01*
X138150000Y-134400000D02*
X140167500Y-134400000D01*
X140250000Y-87250000D02*
X140200000Y-87200000D01*
X105500000Y-85250000D02*
X103800000Y-85250000D01*
X103420000Y-65080000D02*
X103420000Y-72250000D01*
X140200000Y-87200000D02*
X140200000Y-85750000D01*
X101100000Y-97750000D02*
X102450000Y-99100000D01*
X140250000Y-87729898D02*
X140250000Y-87250000D01*
X130860000Y-138250000D02*
X134300000Y-138250000D01*
X132471040Y-95688960D02*
X132471040Y-95508858D01*
X105500000Y-85250000D02*
X106200000Y-84550000D01*
X103800000Y-85250000D02*
X101100000Y-87950000D01*
X106200000Y-84550000D02*
X106950000Y-84550000D01*
X123390000Y-99100000D02*
X129060000Y-99100000D01*
X132410000Y-106300000D02*
X132410000Y-95750000D01*
X129060000Y-99100000D02*
X132471040Y-95688960D01*
X130650000Y-138460000D02*
X129390000Y-137200000D01*
X129750000Y-83500000D02*
X137950000Y-83500000D01*
X134300000Y-138250000D02*
X138150000Y-134400000D01*
X101520000Y-73750000D02*
X101920000Y-73750000D01*
X132410000Y-111380000D02*
X132192283Y-111380000D01*
X127532283Y-106720000D02*
X123390000Y-106720000D01*
X132192283Y-111380000D02*
X127532283Y-106720000D01*
X131207919Y-113920000D02*
X126547919Y-109260000D01*
X126547919Y-109260000D02*
X123390000Y-109260000D01*
X132410000Y-113920000D02*
X131207919Y-113920000D01*
X112560000Y-89930000D02*
X108760000Y-86130000D01*
X119440000Y-89930000D02*
X112560000Y-89930000D01*
X123390000Y-142280000D02*
X123605000Y-142495000D01*
X123605000Y-139955000D02*
X123390000Y-139740000D01*
X129290000Y-135250000D02*
X128700000Y-134660000D01*
X123390000Y-134660000D02*
X128700000Y-134660000D01*
X133300000Y-135250000D02*
X129290000Y-135250000D01*
X129390000Y-134660000D02*
X129590000Y-134860000D01*
X128700000Y-134660000D02*
X129390000Y-134660000D01*
X110100000Y-97150000D02*
X118100000Y-97150000D01*
X124120000Y-89930000D02*
X129600000Y-89930000D01*
X121440000Y-92610000D02*
X124120000Y-89930000D01*
X135070000Y-89930000D02*
X137660000Y-87340000D01*
X118100000Y-97150000D02*
X121440000Y-93810000D01*
X121440000Y-93810000D02*
X121440000Y-92610000D01*
X129600000Y-89930000D02*
X135070000Y-89930000D01*
X106970000Y-94020000D02*
X110100000Y-97150000D01*
X137660000Y-87340000D02*
X137660000Y-85750000D01*
X105610000Y-94020000D02*
X106970000Y-94020000D01*
X129600000Y-89930000D02*
X129900000Y-89630000D01*
X135120000Y-85750000D02*
X135120000Y-86952081D01*
X120830000Y-88000000D02*
X119080000Y-86250000D01*
X134072081Y-88000000D02*
X120830000Y-88000000D01*
X135120000Y-86952081D02*
X134072081Y-88000000D01*
X102410000Y-52210000D02*
X106750000Y-56550000D01*
X100500000Y-52210000D02*
X102410000Y-52210000D01*
X106750000Y-56550000D02*
X106750000Y-57000000D01*
X111652500Y-49597500D02*
X107500000Y-45445000D01*
X115570000Y-49597500D02*
X111652500Y-49597500D01*
M02*
