%TF.GenerationSoftware,KiCad,Pcbnew,7.0.7*%
%TF.CreationDate,2024-03-11T23:12:34+01:00*%
%TF.ProjectId,RocketTX,526f636b-6574-4545-982e-6b696361645f,rev?*%
%TF.SameCoordinates,Original*%
%TF.FileFunction,Drillmap*%
%TF.FilePolarity,Positive*%
%FSLAX45Y45*%
G04 Gerber Fmt 4.5, Leading zero omitted, Abs format (unit mm)*
G04 Created by KiCad (PCBNEW 7.0.7) date 2024-03-11 23:12:34*
%MOMM*%
%LPD*%
G01*
G04 APERTURE LIST*
%ADD10C,0.100000*%
%ADD11C,0.200000*%
%ADD12C,0.080000*%
%ADD13C,0.250000*%
G04 APERTURE END LIST*
D10*
X10769600Y-6235700D02*
X16078200Y-6235700D01*
X16078200Y-11836400D01*
X10769600Y-11836400D01*
X10769600Y-6235700D01*
D11*
D12*
X11392600Y-8456300D02*
X11472600Y-8536300D01*
X11472600Y-8456300D02*
X11392600Y-8536300D01*
X11392600Y-9472300D02*
X11472600Y-9552300D01*
X11472600Y-9472300D02*
X11392600Y-9552300D01*
X11773600Y-8710300D02*
X11853600Y-8790300D01*
X11853600Y-8710300D02*
X11773600Y-8790300D01*
X11773600Y-9726300D02*
X11853600Y-9806300D01*
X11853600Y-9726300D02*
X11773600Y-9806300D01*
X11773600Y-10005700D02*
X11853600Y-10085700D01*
X11853600Y-10005700D02*
X11773600Y-10085700D01*
X11773600Y-11021700D02*
X11853600Y-11101700D01*
X11853600Y-11021700D02*
X11773600Y-11101700D01*
X12103800Y-9751700D02*
X12183800Y-9831700D01*
X12183800Y-9751700D02*
X12103800Y-9831700D01*
X12103800Y-10767700D02*
X12183800Y-10847700D01*
X12183800Y-10767700D02*
X12103800Y-10847700D01*
X14567600Y-9370700D02*
X14647600Y-9450700D01*
X14647600Y-9370700D02*
X14567600Y-9450700D01*
X14567600Y-10386700D02*
X14647600Y-10466700D01*
X14647600Y-10386700D02*
X14567600Y-10466700D01*
X14999400Y-9065900D02*
X15079400Y-9145900D01*
X15079400Y-9065900D02*
X14999400Y-9145900D01*
X14999400Y-10081900D02*
X15079400Y-10161900D01*
X15079400Y-10081900D02*
X14999400Y-10161900D01*
X15370600Y-8463500D02*
X15450600Y-8543500D01*
X15450600Y-8463500D02*
X15370600Y-8543500D01*
X15370600Y-9479500D02*
X15450600Y-9559500D01*
X15450600Y-9479500D02*
X15370600Y-9559500D01*
D10*
X12051500Y-6731000D02*
G75*
G03*
X12051500Y-6731000I-50000J0D01*
G01*
X12305500Y-6731000D02*
G75*
G03*
X12305500Y-6731000I-50000J0D01*
G01*
X12559500Y-6731000D02*
G75*
G03*
X12559500Y-6731000I-50000J0D01*
G01*
X12615800Y-7589100D02*
G75*
G03*
X12615800Y-7589100I-50000J0D01*
G01*
X12615800Y-7843100D02*
G75*
G03*
X12615800Y-7843100I-50000J0D01*
G01*
X12615800Y-8097100D02*
G75*
G03*
X12615800Y-8097100I-50000J0D01*
G01*
X12615800Y-8351100D02*
G75*
G03*
X12615800Y-8351100I-50000J0D01*
G01*
X12615800Y-8605100D02*
G75*
G03*
X12615800Y-8605100I-50000J0D01*
G01*
X12615800Y-8859100D02*
G75*
G03*
X12615800Y-8859100I-50000J0D01*
G01*
X12615800Y-9113100D02*
G75*
G03*
X12615800Y-9113100I-50000J0D01*
G01*
X12615800Y-9367100D02*
G75*
G03*
X12615800Y-9367100I-50000J0D01*
G01*
X12615800Y-9621100D02*
G75*
G03*
X12615800Y-9621100I-50000J0D01*
G01*
X12615800Y-9875100D02*
G75*
G03*
X12615800Y-9875100I-50000J0D01*
G01*
X12615800Y-10129100D02*
G75*
G03*
X12615800Y-10129100I-50000J0D01*
G01*
X12615800Y-10383100D02*
G75*
G03*
X12615800Y-10383100I-50000J0D01*
G01*
X12615800Y-10637100D02*
G75*
G03*
X12615800Y-10637100I-50000J0D01*
G01*
X12615800Y-10891100D02*
G75*
G03*
X12615800Y-10891100I-50000J0D01*
G01*
X12615800Y-11145100D02*
G75*
G03*
X12615800Y-11145100I-50000J0D01*
G01*
X12813500Y-6731000D02*
G75*
G03*
X12813500Y-6731000I-50000J0D01*
G01*
X13067500Y-6731000D02*
G75*
G03*
X13067500Y-6731000I-50000J0D01*
G01*
X13321500Y-6731000D02*
G75*
G03*
X13321500Y-6731000I-50000J0D01*
G01*
X13575500Y-6731000D02*
G75*
G03*
X13575500Y-6731000I-50000J0D01*
G01*
X14139800Y-7589100D02*
G75*
G03*
X14139800Y-7589100I-50000J0D01*
G01*
X14139800Y-7843100D02*
G75*
G03*
X14139800Y-7843100I-50000J0D01*
G01*
X14139800Y-8097100D02*
G75*
G03*
X14139800Y-8097100I-50000J0D01*
G01*
X14139800Y-8351100D02*
G75*
G03*
X14139800Y-8351100I-50000J0D01*
G01*
X14139800Y-8605100D02*
G75*
G03*
X14139800Y-8605100I-50000J0D01*
G01*
X14139800Y-8859100D02*
G75*
G03*
X14139800Y-8859100I-50000J0D01*
G01*
X14139800Y-9113100D02*
G75*
G03*
X14139800Y-9113100I-50000J0D01*
G01*
X14139800Y-9367100D02*
G75*
G03*
X14139800Y-9367100I-50000J0D01*
G01*
X14139800Y-9621100D02*
G75*
G03*
X14139800Y-9621100I-50000J0D01*
G01*
X14139800Y-9875100D02*
G75*
G03*
X14139800Y-9875100I-50000J0D01*
G01*
X14139800Y-10129100D02*
G75*
G03*
X14139800Y-10129100I-50000J0D01*
G01*
X14139800Y-10383100D02*
G75*
G03*
X14139800Y-10383100I-50000J0D01*
G01*
X14139800Y-10637100D02*
G75*
G03*
X14139800Y-10637100I-50000J0D01*
G01*
X14139800Y-10891100D02*
G75*
G03*
X14139800Y-10891100I-50000J0D01*
G01*
X14139800Y-11145100D02*
G75*
G03*
X14139800Y-11145100I-50000J0D01*
G01*
X15475000Y-9875000D02*
G75*
G03*
X15475000Y-9875000I-50000J0D01*
G01*
X15475000Y-10372500D02*
G75*
G03*
X15475000Y-10372500I-50000J0D01*
G01*
X15475000Y-10847500D02*
G75*
G03*
X15475000Y-10847500I-50000J0D01*
G01*
X15729000Y-9875000D02*
G75*
G03*
X15729000Y-9875000I-50000J0D01*
G01*
X15729000Y-10372500D02*
G75*
G03*
X15729000Y-10372500I-50000J0D01*
G01*
X15729000Y-10847500D02*
G75*
G03*
X15729000Y-10847500I-50000J0D01*
G01*
D13*
X11075000Y-6425000D02*
X11075000Y-6675000D01*
X10950000Y-6550000D02*
X11200000Y-6550000D01*
X11075000Y-11375000D02*
X11075000Y-11625000D01*
X10950000Y-11500000D02*
X11200000Y-11500000D01*
X15750000Y-6375000D02*
X15750000Y-6625000D01*
X15625000Y-6500000D02*
X15875000Y-6500000D01*
X15750000Y-11375000D02*
X15750000Y-11625000D01*
X15625000Y-11500000D02*
X15875000Y-11500000D01*
D11*
X11025377Y-12152884D02*
X11025377Y-11952884D01*
X11025377Y-11952884D02*
X11072996Y-11952884D01*
X11072996Y-11952884D02*
X11101567Y-11962408D01*
X11101567Y-11962408D02*
X11120615Y-11981455D01*
X11120615Y-11981455D02*
X11130139Y-12000503D01*
X11130139Y-12000503D02*
X11139663Y-12038598D01*
X11139663Y-12038598D02*
X11139663Y-12067169D01*
X11139663Y-12067169D02*
X11130139Y-12105265D01*
X11130139Y-12105265D02*
X11120615Y-12124312D01*
X11120615Y-12124312D02*
X11101567Y-12143360D01*
X11101567Y-12143360D02*
X11072996Y-12152884D01*
X11072996Y-12152884D02*
X11025377Y-12152884D01*
X11225377Y-12152884D02*
X11225377Y-12019550D01*
X11225377Y-12057646D02*
X11234901Y-12038598D01*
X11234901Y-12038598D02*
X11244424Y-12029074D01*
X11244424Y-12029074D02*
X11263472Y-12019550D01*
X11263472Y-12019550D02*
X11282520Y-12019550D01*
X11349186Y-12152884D02*
X11349186Y-12019550D01*
X11349186Y-11952884D02*
X11339662Y-11962408D01*
X11339662Y-11962408D02*
X11349186Y-11971931D01*
X11349186Y-11971931D02*
X11358710Y-11962408D01*
X11358710Y-11962408D02*
X11349186Y-11952884D01*
X11349186Y-11952884D02*
X11349186Y-11971931D01*
X11472996Y-12152884D02*
X11453948Y-12143360D01*
X11453948Y-12143360D02*
X11444424Y-12124312D01*
X11444424Y-12124312D02*
X11444424Y-11952884D01*
X11577758Y-12152884D02*
X11558710Y-12143360D01*
X11558710Y-12143360D02*
X11549186Y-12124312D01*
X11549186Y-12124312D02*
X11549186Y-11952884D01*
X11806329Y-12152884D02*
X11806329Y-11952884D01*
X11806329Y-11952884D02*
X11872996Y-12095741D01*
X11872996Y-12095741D02*
X11939662Y-11952884D01*
X11939662Y-11952884D02*
X11939662Y-12152884D01*
X12120615Y-12152884D02*
X12120615Y-12048122D01*
X12120615Y-12048122D02*
X12111091Y-12029074D01*
X12111091Y-12029074D02*
X12092043Y-12019550D01*
X12092043Y-12019550D02*
X12053948Y-12019550D01*
X12053948Y-12019550D02*
X12034901Y-12029074D01*
X12120615Y-12143360D02*
X12101567Y-12152884D01*
X12101567Y-12152884D02*
X12053948Y-12152884D01*
X12053948Y-12152884D02*
X12034901Y-12143360D01*
X12034901Y-12143360D02*
X12025377Y-12124312D01*
X12025377Y-12124312D02*
X12025377Y-12105265D01*
X12025377Y-12105265D02*
X12034901Y-12086217D01*
X12034901Y-12086217D02*
X12053948Y-12076693D01*
X12053948Y-12076693D02*
X12101567Y-12076693D01*
X12101567Y-12076693D02*
X12120615Y-12067169D01*
X12215853Y-12019550D02*
X12215853Y-12219550D01*
X12215853Y-12029074D02*
X12234901Y-12019550D01*
X12234901Y-12019550D02*
X12272996Y-12019550D01*
X12272996Y-12019550D02*
X12292043Y-12029074D01*
X12292043Y-12029074D02*
X12301567Y-12038598D01*
X12301567Y-12038598D02*
X12311091Y-12057646D01*
X12311091Y-12057646D02*
X12311091Y-12114788D01*
X12311091Y-12114788D02*
X12301567Y-12133836D01*
X12301567Y-12133836D02*
X12292043Y-12143360D01*
X12292043Y-12143360D02*
X12272996Y-12152884D01*
X12272996Y-12152884D02*
X12234901Y-12152884D01*
X12234901Y-12152884D02*
X12215853Y-12143360D01*
X12396805Y-12133836D02*
X12406329Y-12143360D01*
X12406329Y-12143360D02*
X12396805Y-12152884D01*
X12396805Y-12152884D02*
X12387282Y-12143360D01*
X12387282Y-12143360D02*
X12396805Y-12133836D01*
X12396805Y-12133836D02*
X12396805Y-12152884D01*
X12396805Y-12029074D02*
X12406329Y-12038598D01*
X12406329Y-12038598D02*
X12396805Y-12048122D01*
X12396805Y-12048122D02*
X12387282Y-12038598D01*
X12387282Y-12038598D02*
X12396805Y-12029074D01*
X12396805Y-12029074D02*
X12396805Y-12048122D01*
D12*
X10684600Y-12441400D02*
X10764600Y-12521400D01*
X10764600Y-12441400D02*
X10684600Y-12521400D01*
D11*
X11063472Y-12372884D02*
X11082520Y-12372884D01*
X11082520Y-12372884D02*
X11101567Y-12382408D01*
X11101567Y-12382408D02*
X11111091Y-12391931D01*
X11111091Y-12391931D02*
X11120615Y-12410979D01*
X11120615Y-12410979D02*
X11130139Y-12449074D01*
X11130139Y-12449074D02*
X11130139Y-12496693D01*
X11130139Y-12496693D02*
X11120615Y-12534788D01*
X11120615Y-12534788D02*
X11111091Y-12553836D01*
X11111091Y-12553836D02*
X11101567Y-12563360D01*
X11101567Y-12563360D02*
X11082520Y-12572884D01*
X11082520Y-12572884D02*
X11063472Y-12572884D01*
X11063472Y-12572884D02*
X11044424Y-12563360D01*
X11044424Y-12563360D02*
X11034901Y-12553836D01*
X11034901Y-12553836D02*
X11025377Y-12534788D01*
X11025377Y-12534788D02*
X11015853Y-12496693D01*
X11015853Y-12496693D02*
X11015853Y-12449074D01*
X11015853Y-12449074D02*
X11025377Y-12410979D01*
X11025377Y-12410979D02*
X11034901Y-12391931D01*
X11034901Y-12391931D02*
X11044424Y-12382408D01*
X11044424Y-12382408D02*
X11063472Y-12372884D01*
X11215853Y-12553836D02*
X11225377Y-12563360D01*
X11225377Y-12563360D02*
X11215853Y-12572884D01*
X11215853Y-12572884D02*
X11206329Y-12563360D01*
X11206329Y-12563360D02*
X11215853Y-12553836D01*
X11215853Y-12553836D02*
X11215853Y-12572884D01*
X11339662Y-12458598D02*
X11320615Y-12449074D01*
X11320615Y-12449074D02*
X11311091Y-12439550D01*
X11311091Y-12439550D02*
X11301567Y-12420503D01*
X11301567Y-12420503D02*
X11301567Y-12410979D01*
X11301567Y-12410979D02*
X11311091Y-12391931D01*
X11311091Y-12391931D02*
X11320615Y-12382408D01*
X11320615Y-12382408D02*
X11339662Y-12372884D01*
X11339662Y-12372884D02*
X11377758Y-12372884D01*
X11377758Y-12372884D02*
X11396805Y-12382408D01*
X11396805Y-12382408D02*
X11406329Y-12391931D01*
X11406329Y-12391931D02*
X11415853Y-12410979D01*
X11415853Y-12410979D02*
X11415853Y-12420503D01*
X11415853Y-12420503D02*
X11406329Y-12439550D01*
X11406329Y-12439550D02*
X11396805Y-12449074D01*
X11396805Y-12449074D02*
X11377758Y-12458598D01*
X11377758Y-12458598D02*
X11339662Y-12458598D01*
X11339662Y-12458598D02*
X11320615Y-12468122D01*
X11320615Y-12468122D02*
X11311091Y-12477646D01*
X11311091Y-12477646D02*
X11301567Y-12496693D01*
X11301567Y-12496693D02*
X11301567Y-12534788D01*
X11301567Y-12534788D02*
X11311091Y-12553836D01*
X11311091Y-12553836D02*
X11320615Y-12563360D01*
X11320615Y-12563360D02*
X11339662Y-12572884D01*
X11339662Y-12572884D02*
X11377758Y-12572884D01*
X11377758Y-12572884D02*
X11396805Y-12563360D01*
X11396805Y-12563360D02*
X11406329Y-12553836D01*
X11406329Y-12553836D02*
X11415853Y-12534788D01*
X11415853Y-12534788D02*
X11415853Y-12496693D01*
X11415853Y-12496693D02*
X11406329Y-12477646D01*
X11406329Y-12477646D02*
X11396805Y-12468122D01*
X11396805Y-12468122D02*
X11377758Y-12458598D01*
X11539662Y-12372884D02*
X11558710Y-12372884D01*
X11558710Y-12372884D02*
X11577758Y-12382408D01*
X11577758Y-12382408D02*
X11587282Y-12391931D01*
X11587282Y-12391931D02*
X11596805Y-12410979D01*
X11596805Y-12410979D02*
X11606329Y-12449074D01*
X11606329Y-12449074D02*
X11606329Y-12496693D01*
X11606329Y-12496693D02*
X11596805Y-12534788D01*
X11596805Y-12534788D02*
X11587282Y-12553836D01*
X11587282Y-12553836D02*
X11577758Y-12563360D01*
X11577758Y-12563360D02*
X11558710Y-12572884D01*
X11558710Y-12572884D02*
X11539662Y-12572884D01*
X11539662Y-12572884D02*
X11520615Y-12563360D01*
X11520615Y-12563360D02*
X11511091Y-12553836D01*
X11511091Y-12553836D02*
X11501567Y-12534788D01*
X11501567Y-12534788D02*
X11492043Y-12496693D01*
X11492043Y-12496693D02*
X11492043Y-12449074D01*
X11492043Y-12449074D02*
X11501567Y-12410979D01*
X11501567Y-12410979D02*
X11511091Y-12391931D01*
X11511091Y-12391931D02*
X11520615Y-12382408D01*
X11520615Y-12382408D02*
X11539662Y-12372884D01*
X11730139Y-12372884D02*
X11749186Y-12372884D01*
X11749186Y-12372884D02*
X11768234Y-12382408D01*
X11768234Y-12382408D02*
X11777758Y-12391931D01*
X11777758Y-12391931D02*
X11787282Y-12410979D01*
X11787282Y-12410979D02*
X11796805Y-12449074D01*
X11796805Y-12449074D02*
X11796805Y-12496693D01*
X11796805Y-12496693D02*
X11787282Y-12534788D01*
X11787282Y-12534788D02*
X11777758Y-12553836D01*
X11777758Y-12553836D02*
X11768234Y-12563360D01*
X11768234Y-12563360D02*
X11749186Y-12572884D01*
X11749186Y-12572884D02*
X11730139Y-12572884D01*
X11730139Y-12572884D02*
X11711091Y-12563360D01*
X11711091Y-12563360D02*
X11701567Y-12553836D01*
X11701567Y-12553836D02*
X11692043Y-12534788D01*
X11692043Y-12534788D02*
X11682520Y-12496693D01*
X11682520Y-12496693D02*
X11682520Y-12449074D01*
X11682520Y-12449074D02*
X11692043Y-12410979D01*
X11692043Y-12410979D02*
X11701567Y-12391931D01*
X11701567Y-12391931D02*
X11711091Y-12382408D01*
X11711091Y-12382408D02*
X11730139Y-12372884D01*
X11882520Y-12572884D02*
X11882520Y-12439550D01*
X11882520Y-12458598D02*
X11892043Y-12449074D01*
X11892043Y-12449074D02*
X11911091Y-12439550D01*
X11911091Y-12439550D02*
X11939663Y-12439550D01*
X11939663Y-12439550D02*
X11958710Y-12449074D01*
X11958710Y-12449074D02*
X11968234Y-12468122D01*
X11968234Y-12468122D02*
X11968234Y-12572884D01*
X11968234Y-12468122D02*
X11977758Y-12449074D01*
X11977758Y-12449074D02*
X11996805Y-12439550D01*
X11996805Y-12439550D02*
X12025377Y-12439550D01*
X12025377Y-12439550D02*
X12044424Y-12449074D01*
X12044424Y-12449074D02*
X12053948Y-12468122D01*
X12053948Y-12468122D02*
X12053948Y-12572884D01*
X12149186Y-12572884D02*
X12149186Y-12439550D01*
X12149186Y-12458598D02*
X12158710Y-12449074D01*
X12158710Y-12449074D02*
X12177758Y-12439550D01*
X12177758Y-12439550D02*
X12206329Y-12439550D01*
X12206329Y-12439550D02*
X12225377Y-12449074D01*
X12225377Y-12449074D02*
X12234901Y-12468122D01*
X12234901Y-12468122D02*
X12234901Y-12572884D01*
X12234901Y-12468122D02*
X12244424Y-12449074D01*
X12244424Y-12449074D02*
X12263472Y-12439550D01*
X12263472Y-12439550D02*
X12292043Y-12439550D01*
X12292043Y-12439550D02*
X12311091Y-12449074D01*
X12311091Y-12449074D02*
X12320615Y-12468122D01*
X12320615Y-12468122D02*
X12320615Y-12572884D01*
X12711091Y-12363360D02*
X12539663Y-12620503D01*
X12968234Y-12372884D02*
X12987282Y-12372884D01*
X12987282Y-12372884D02*
X13006329Y-12382408D01*
X13006329Y-12382408D02*
X13015853Y-12391931D01*
X13015853Y-12391931D02*
X13025377Y-12410979D01*
X13025377Y-12410979D02*
X13034901Y-12449074D01*
X13034901Y-12449074D02*
X13034901Y-12496693D01*
X13034901Y-12496693D02*
X13025377Y-12534788D01*
X13025377Y-12534788D02*
X13015853Y-12553836D01*
X13015853Y-12553836D02*
X13006329Y-12563360D01*
X13006329Y-12563360D02*
X12987282Y-12572884D01*
X12987282Y-12572884D02*
X12968234Y-12572884D01*
X12968234Y-12572884D02*
X12949186Y-12563360D01*
X12949186Y-12563360D02*
X12939663Y-12553836D01*
X12939663Y-12553836D02*
X12930139Y-12534788D01*
X12930139Y-12534788D02*
X12920615Y-12496693D01*
X12920615Y-12496693D02*
X12920615Y-12449074D01*
X12920615Y-12449074D02*
X12930139Y-12410979D01*
X12930139Y-12410979D02*
X12939663Y-12391931D01*
X12939663Y-12391931D02*
X12949186Y-12382408D01*
X12949186Y-12382408D02*
X12968234Y-12372884D01*
X13120615Y-12553836D02*
X13130139Y-12563360D01*
X13130139Y-12563360D02*
X13120615Y-12572884D01*
X13120615Y-12572884D02*
X13111091Y-12563360D01*
X13111091Y-12563360D02*
X13120615Y-12553836D01*
X13120615Y-12553836D02*
X13120615Y-12572884D01*
X13253948Y-12372884D02*
X13272996Y-12372884D01*
X13272996Y-12372884D02*
X13292044Y-12382408D01*
X13292044Y-12382408D02*
X13301567Y-12391931D01*
X13301567Y-12391931D02*
X13311091Y-12410979D01*
X13311091Y-12410979D02*
X13320615Y-12449074D01*
X13320615Y-12449074D02*
X13320615Y-12496693D01*
X13320615Y-12496693D02*
X13311091Y-12534788D01*
X13311091Y-12534788D02*
X13301567Y-12553836D01*
X13301567Y-12553836D02*
X13292044Y-12563360D01*
X13292044Y-12563360D02*
X13272996Y-12572884D01*
X13272996Y-12572884D02*
X13253948Y-12572884D01*
X13253948Y-12572884D02*
X13234901Y-12563360D01*
X13234901Y-12563360D02*
X13225377Y-12553836D01*
X13225377Y-12553836D02*
X13215853Y-12534788D01*
X13215853Y-12534788D02*
X13206329Y-12496693D01*
X13206329Y-12496693D02*
X13206329Y-12449074D01*
X13206329Y-12449074D02*
X13215853Y-12410979D01*
X13215853Y-12410979D02*
X13225377Y-12391931D01*
X13225377Y-12391931D02*
X13234901Y-12382408D01*
X13234901Y-12382408D02*
X13253948Y-12372884D01*
X13387282Y-12372884D02*
X13511091Y-12372884D01*
X13511091Y-12372884D02*
X13444425Y-12449074D01*
X13444425Y-12449074D02*
X13472996Y-12449074D01*
X13472996Y-12449074D02*
X13492044Y-12458598D01*
X13492044Y-12458598D02*
X13501567Y-12468122D01*
X13501567Y-12468122D02*
X13511091Y-12487169D01*
X13511091Y-12487169D02*
X13511091Y-12534788D01*
X13511091Y-12534788D02*
X13501567Y-12553836D01*
X13501567Y-12553836D02*
X13492044Y-12563360D01*
X13492044Y-12563360D02*
X13472996Y-12572884D01*
X13472996Y-12572884D02*
X13415853Y-12572884D01*
X13415853Y-12572884D02*
X13396806Y-12563360D01*
X13396806Y-12563360D02*
X13387282Y-12553836D01*
X13701567Y-12572884D02*
X13587282Y-12572884D01*
X13644425Y-12572884D02*
X13644425Y-12372884D01*
X13644425Y-12372884D02*
X13625377Y-12401455D01*
X13625377Y-12401455D02*
X13606329Y-12420503D01*
X13606329Y-12420503D02*
X13587282Y-12430027D01*
X13882520Y-12372884D02*
X13787282Y-12372884D01*
X13787282Y-12372884D02*
X13777758Y-12468122D01*
X13777758Y-12468122D02*
X13787282Y-12458598D01*
X13787282Y-12458598D02*
X13806329Y-12449074D01*
X13806329Y-12449074D02*
X13853948Y-12449074D01*
X13853948Y-12449074D02*
X13872996Y-12458598D01*
X13872996Y-12458598D02*
X13882520Y-12468122D01*
X13882520Y-12468122D02*
X13892044Y-12487169D01*
X13892044Y-12487169D02*
X13892044Y-12534788D01*
X13892044Y-12534788D02*
X13882520Y-12553836D01*
X13882520Y-12553836D02*
X13872996Y-12563360D01*
X13872996Y-12563360D02*
X13853948Y-12572884D01*
X13853948Y-12572884D02*
X13806329Y-12572884D01*
X13806329Y-12572884D02*
X13787282Y-12563360D01*
X13787282Y-12563360D02*
X13777758Y-12553836D01*
X13968234Y-12372884D02*
X13968234Y-12410979D01*
X14044425Y-12372884D02*
X14044425Y-12410979D01*
X14339663Y-12649074D02*
X14330139Y-12639550D01*
X14330139Y-12639550D02*
X14311091Y-12610979D01*
X14311091Y-12610979D02*
X14301568Y-12591931D01*
X14301568Y-12591931D02*
X14292044Y-12563360D01*
X14292044Y-12563360D02*
X14282520Y-12515741D01*
X14282520Y-12515741D02*
X14282520Y-12477646D01*
X14282520Y-12477646D02*
X14292044Y-12430027D01*
X14292044Y-12430027D02*
X14301568Y-12401455D01*
X14301568Y-12401455D02*
X14311091Y-12382408D01*
X14311091Y-12382408D02*
X14330139Y-12353836D01*
X14330139Y-12353836D02*
X14339663Y-12344312D01*
X14520615Y-12572884D02*
X14406329Y-12572884D01*
X14463472Y-12572884D02*
X14463472Y-12372884D01*
X14463472Y-12372884D02*
X14444425Y-12401455D01*
X14444425Y-12401455D02*
X14425377Y-12420503D01*
X14425377Y-12420503D02*
X14406329Y-12430027D01*
X14692044Y-12439550D02*
X14692044Y-12572884D01*
X14644425Y-12363360D02*
X14596806Y-12506217D01*
X14596806Y-12506217D02*
X14720615Y-12506217D01*
X14949187Y-12572884D02*
X14949187Y-12372884D01*
X15034901Y-12572884D02*
X15034901Y-12468122D01*
X15034901Y-12468122D02*
X15025377Y-12449074D01*
X15025377Y-12449074D02*
X15006330Y-12439550D01*
X15006330Y-12439550D02*
X14977758Y-12439550D01*
X14977758Y-12439550D02*
X14958710Y-12449074D01*
X14958710Y-12449074D02*
X14949187Y-12458598D01*
X15158710Y-12572884D02*
X15139663Y-12563360D01*
X15139663Y-12563360D02*
X15130139Y-12553836D01*
X15130139Y-12553836D02*
X15120615Y-12534788D01*
X15120615Y-12534788D02*
X15120615Y-12477646D01*
X15120615Y-12477646D02*
X15130139Y-12458598D01*
X15130139Y-12458598D02*
X15139663Y-12449074D01*
X15139663Y-12449074D02*
X15158710Y-12439550D01*
X15158710Y-12439550D02*
X15187282Y-12439550D01*
X15187282Y-12439550D02*
X15206330Y-12449074D01*
X15206330Y-12449074D02*
X15215853Y-12458598D01*
X15215853Y-12458598D02*
X15225377Y-12477646D01*
X15225377Y-12477646D02*
X15225377Y-12534788D01*
X15225377Y-12534788D02*
X15215853Y-12553836D01*
X15215853Y-12553836D02*
X15206330Y-12563360D01*
X15206330Y-12563360D02*
X15187282Y-12572884D01*
X15187282Y-12572884D02*
X15158710Y-12572884D01*
X15339663Y-12572884D02*
X15320615Y-12563360D01*
X15320615Y-12563360D02*
X15311091Y-12544312D01*
X15311091Y-12544312D02*
X15311091Y-12372884D01*
X15492044Y-12563360D02*
X15472996Y-12572884D01*
X15472996Y-12572884D02*
X15434901Y-12572884D01*
X15434901Y-12572884D02*
X15415853Y-12563360D01*
X15415853Y-12563360D02*
X15406330Y-12544312D01*
X15406330Y-12544312D02*
X15406330Y-12468122D01*
X15406330Y-12468122D02*
X15415853Y-12449074D01*
X15415853Y-12449074D02*
X15434901Y-12439550D01*
X15434901Y-12439550D02*
X15472996Y-12439550D01*
X15472996Y-12439550D02*
X15492044Y-12449074D01*
X15492044Y-12449074D02*
X15501568Y-12468122D01*
X15501568Y-12468122D02*
X15501568Y-12487169D01*
X15501568Y-12487169D02*
X15406330Y-12506217D01*
X15577758Y-12563360D02*
X15596806Y-12572884D01*
X15596806Y-12572884D02*
X15634901Y-12572884D01*
X15634901Y-12572884D02*
X15653949Y-12563360D01*
X15653949Y-12563360D02*
X15663472Y-12544312D01*
X15663472Y-12544312D02*
X15663472Y-12534788D01*
X15663472Y-12534788D02*
X15653949Y-12515741D01*
X15653949Y-12515741D02*
X15634901Y-12506217D01*
X15634901Y-12506217D02*
X15606330Y-12506217D01*
X15606330Y-12506217D02*
X15587282Y-12496693D01*
X15587282Y-12496693D02*
X15577758Y-12477646D01*
X15577758Y-12477646D02*
X15577758Y-12468122D01*
X15577758Y-12468122D02*
X15587282Y-12449074D01*
X15587282Y-12449074D02*
X15606330Y-12439550D01*
X15606330Y-12439550D02*
X15634901Y-12439550D01*
X15634901Y-12439550D02*
X15653949Y-12449074D01*
X15730139Y-12649074D02*
X15739663Y-12639550D01*
X15739663Y-12639550D02*
X15758711Y-12610979D01*
X15758711Y-12610979D02*
X15768234Y-12591931D01*
X15768234Y-12591931D02*
X15777758Y-12563360D01*
X15777758Y-12563360D02*
X15787282Y-12515741D01*
X15787282Y-12515741D02*
X15787282Y-12477646D01*
X15787282Y-12477646D02*
X15777758Y-12430027D01*
X15777758Y-12430027D02*
X15768234Y-12401455D01*
X15768234Y-12401455D02*
X15758711Y-12382408D01*
X15758711Y-12382408D02*
X15739663Y-12353836D01*
X15739663Y-12353836D02*
X15730139Y-12344312D01*
D10*
X10764600Y-12745400D02*
G75*
G03*
X10764600Y-12745400I-50000J0D01*
G01*
D11*
X11130139Y-12836884D02*
X11015853Y-12836884D01*
X11072996Y-12836884D02*
X11072996Y-12636884D01*
X11072996Y-12636884D02*
X11053948Y-12665455D01*
X11053948Y-12665455D02*
X11034901Y-12684503D01*
X11034901Y-12684503D02*
X11015853Y-12694027D01*
X11215853Y-12817836D02*
X11225377Y-12827360D01*
X11225377Y-12827360D02*
X11215853Y-12836884D01*
X11215853Y-12836884D02*
X11206329Y-12827360D01*
X11206329Y-12827360D02*
X11215853Y-12817836D01*
X11215853Y-12817836D02*
X11215853Y-12836884D01*
X11349186Y-12636884D02*
X11368234Y-12636884D01*
X11368234Y-12636884D02*
X11387282Y-12646408D01*
X11387282Y-12646408D02*
X11396805Y-12655931D01*
X11396805Y-12655931D02*
X11406329Y-12674979D01*
X11406329Y-12674979D02*
X11415853Y-12713074D01*
X11415853Y-12713074D02*
X11415853Y-12760693D01*
X11415853Y-12760693D02*
X11406329Y-12798788D01*
X11406329Y-12798788D02*
X11396805Y-12817836D01*
X11396805Y-12817836D02*
X11387282Y-12827360D01*
X11387282Y-12827360D02*
X11368234Y-12836884D01*
X11368234Y-12836884D02*
X11349186Y-12836884D01*
X11349186Y-12836884D02*
X11330139Y-12827360D01*
X11330139Y-12827360D02*
X11320615Y-12817836D01*
X11320615Y-12817836D02*
X11311091Y-12798788D01*
X11311091Y-12798788D02*
X11301567Y-12760693D01*
X11301567Y-12760693D02*
X11301567Y-12713074D01*
X11301567Y-12713074D02*
X11311091Y-12674979D01*
X11311091Y-12674979D02*
X11320615Y-12655931D01*
X11320615Y-12655931D02*
X11330139Y-12646408D01*
X11330139Y-12646408D02*
X11349186Y-12636884D01*
X11539662Y-12636884D02*
X11558710Y-12636884D01*
X11558710Y-12636884D02*
X11577758Y-12646408D01*
X11577758Y-12646408D02*
X11587282Y-12655931D01*
X11587282Y-12655931D02*
X11596805Y-12674979D01*
X11596805Y-12674979D02*
X11606329Y-12713074D01*
X11606329Y-12713074D02*
X11606329Y-12760693D01*
X11606329Y-12760693D02*
X11596805Y-12798788D01*
X11596805Y-12798788D02*
X11587282Y-12817836D01*
X11587282Y-12817836D02*
X11577758Y-12827360D01*
X11577758Y-12827360D02*
X11558710Y-12836884D01*
X11558710Y-12836884D02*
X11539662Y-12836884D01*
X11539662Y-12836884D02*
X11520615Y-12827360D01*
X11520615Y-12827360D02*
X11511091Y-12817836D01*
X11511091Y-12817836D02*
X11501567Y-12798788D01*
X11501567Y-12798788D02*
X11492043Y-12760693D01*
X11492043Y-12760693D02*
X11492043Y-12713074D01*
X11492043Y-12713074D02*
X11501567Y-12674979D01*
X11501567Y-12674979D02*
X11511091Y-12655931D01*
X11511091Y-12655931D02*
X11520615Y-12646408D01*
X11520615Y-12646408D02*
X11539662Y-12636884D01*
X11730139Y-12636884D02*
X11749186Y-12636884D01*
X11749186Y-12636884D02*
X11768234Y-12646408D01*
X11768234Y-12646408D02*
X11777758Y-12655931D01*
X11777758Y-12655931D02*
X11787282Y-12674979D01*
X11787282Y-12674979D02*
X11796805Y-12713074D01*
X11796805Y-12713074D02*
X11796805Y-12760693D01*
X11796805Y-12760693D02*
X11787282Y-12798788D01*
X11787282Y-12798788D02*
X11777758Y-12817836D01*
X11777758Y-12817836D02*
X11768234Y-12827360D01*
X11768234Y-12827360D02*
X11749186Y-12836884D01*
X11749186Y-12836884D02*
X11730139Y-12836884D01*
X11730139Y-12836884D02*
X11711091Y-12827360D01*
X11711091Y-12827360D02*
X11701567Y-12817836D01*
X11701567Y-12817836D02*
X11692043Y-12798788D01*
X11692043Y-12798788D02*
X11682520Y-12760693D01*
X11682520Y-12760693D02*
X11682520Y-12713074D01*
X11682520Y-12713074D02*
X11692043Y-12674979D01*
X11692043Y-12674979D02*
X11701567Y-12655931D01*
X11701567Y-12655931D02*
X11711091Y-12646408D01*
X11711091Y-12646408D02*
X11730139Y-12636884D01*
X11882520Y-12836884D02*
X11882520Y-12703550D01*
X11882520Y-12722598D02*
X11892043Y-12713074D01*
X11892043Y-12713074D02*
X11911091Y-12703550D01*
X11911091Y-12703550D02*
X11939663Y-12703550D01*
X11939663Y-12703550D02*
X11958710Y-12713074D01*
X11958710Y-12713074D02*
X11968234Y-12732122D01*
X11968234Y-12732122D02*
X11968234Y-12836884D01*
X11968234Y-12732122D02*
X11977758Y-12713074D01*
X11977758Y-12713074D02*
X11996805Y-12703550D01*
X11996805Y-12703550D02*
X12025377Y-12703550D01*
X12025377Y-12703550D02*
X12044424Y-12713074D01*
X12044424Y-12713074D02*
X12053948Y-12732122D01*
X12053948Y-12732122D02*
X12053948Y-12836884D01*
X12149186Y-12836884D02*
X12149186Y-12703550D01*
X12149186Y-12722598D02*
X12158710Y-12713074D01*
X12158710Y-12713074D02*
X12177758Y-12703550D01*
X12177758Y-12703550D02*
X12206329Y-12703550D01*
X12206329Y-12703550D02*
X12225377Y-12713074D01*
X12225377Y-12713074D02*
X12234901Y-12732122D01*
X12234901Y-12732122D02*
X12234901Y-12836884D01*
X12234901Y-12732122D02*
X12244424Y-12713074D01*
X12244424Y-12713074D02*
X12263472Y-12703550D01*
X12263472Y-12703550D02*
X12292043Y-12703550D01*
X12292043Y-12703550D02*
X12311091Y-12713074D01*
X12311091Y-12713074D02*
X12320615Y-12732122D01*
X12320615Y-12732122D02*
X12320615Y-12836884D01*
X12711091Y-12627360D02*
X12539663Y-12884503D01*
X12968234Y-12636884D02*
X12987282Y-12636884D01*
X12987282Y-12636884D02*
X13006329Y-12646408D01*
X13006329Y-12646408D02*
X13015853Y-12655931D01*
X13015853Y-12655931D02*
X13025377Y-12674979D01*
X13025377Y-12674979D02*
X13034901Y-12713074D01*
X13034901Y-12713074D02*
X13034901Y-12760693D01*
X13034901Y-12760693D02*
X13025377Y-12798788D01*
X13025377Y-12798788D02*
X13015853Y-12817836D01*
X13015853Y-12817836D02*
X13006329Y-12827360D01*
X13006329Y-12827360D02*
X12987282Y-12836884D01*
X12987282Y-12836884D02*
X12968234Y-12836884D01*
X12968234Y-12836884D02*
X12949186Y-12827360D01*
X12949186Y-12827360D02*
X12939663Y-12817836D01*
X12939663Y-12817836D02*
X12930139Y-12798788D01*
X12930139Y-12798788D02*
X12920615Y-12760693D01*
X12920615Y-12760693D02*
X12920615Y-12713074D01*
X12920615Y-12713074D02*
X12930139Y-12674979D01*
X12930139Y-12674979D02*
X12939663Y-12655931D01*
X12939663Y-12655931D02*
X12949186Y-12646408D01*
X12949186Y-12646408D02*
X12968234Y-12636884D01*
X13120615Y-12817836D02*
X13130139Y-12827360D01*
X13130139Y-12827360D02*
X13120615Y-12836884D01*
X13120615Y-12836884D02*
X13111091Y-12827360D01*
X13111091Y-12827360D02*
X13120615Y-12817836D01*
X13120615Y-12817836D02*
X13120615Y-12836884D01*
X13253948Y-12636884D02*
X13272996Y-12636884D01*
X13272996Y-12636884D02*
X13292044Y-12646408D01*
X13292044Y-12646408D02*
X13301567Y-12655931D01*
X13301567Y-12655931D02*
X13311091Y-12674979D01*
X13311091Y-12674979D02*
X13320615Y-12713074D01*
X13320615Y-12713074D02*
X13320615Y-12760693D01*
X13320615Y-12760693D02*
X13311091Y-12798788D01*
X13311091Y-12798788D02*
X13301567Y-12817836D01*
X13301567Y-12817836D02*
X13292044Y-12827360D01*
X13292044Y-12827360D02*
X13272996Y-12836884D01*
X13272996Y-12836884D02*
X13253948Y-12836884D01*
X13253948Y-12836884D02*
X13234901Y-12827360D01*
X13234901Y-12827360D02*
X13225377Y-12817836D01*
X13225377Y-12817836D02*
X13215853Y-12798788D01*
X13215853Y-12798788D02*
X13206329Y-12760693D01*
X13206329Y-12760693D02*
X13206329Y-12713074D01*
X13206329Y-12713074D02*
X13215853Y-12674979D01*
X13215853Y-12674979D02*
X13225377Y-12655931D01*
X13225377Y-12655931D02*
X13234901Y-12646408D01*
X13234901Y-12646408D02*
X13253948Y-12636884D01*
X13387282Y-12636884D02*
X13511091Y-12636884D01*
X13511091Y-12636884D02*
X13444425Y-12713074D01*
X13444425Y-12713074D02*
X13472996Y-12713074D01*
X13472996Y-12713074D02*
X13492044Y-12722598D01*
X13492044Y-12722598D02*
X13501567Y-12732122D01*
X13501567Y-12732122D02*
X13511091Y-12751169D01*
X13511091Y-12751169D02*
X13511091Y-12798788D01*
X13511091Y-12798788D02*
X13501567Y-12817836D01*
X13501567Y-12817836D02*
X13492044Y-12827360D01*
X13492044Y-12827360D02*
X13472996Y-12836884D01*
X13472996Y-12836884D02*
X13415853Y-12836884D01*
X13415853Y-12836884D02*
X13396806Y-12827360D01*
X13396806Y-12827360D02*
X13387282Y-12817836D01*
X13606329Y-12836884D02*
X13644425Y-12836884D01*
X13644425Y-12836884D02*
X13663472Y-12827360D01*
X13663472Y-12827360D02*
X13672996Y-12817836D01*
X13672996Y-12817836D02*
X13692044Y-12789265D01*
X13692044Y-12789265D02*
X13701567Y-12751169D01*
X13701567Y-12751169D02*
X13701567Y-12674979D01*
X13701567Y-12674979D02*
X13692044Y-12655931D01*
X13692044Y-12655931D02*
X13682520Y-12646408D01*
X13682520Y-12646408D02*
X13663472Y-12636884D01*
X13663472Y-12636884D02*
X13625377Y-12636884D01*
X13625377Y-12636884D02*
X13606329Y-12646408D01*
X13606329Y-12646408D02*
X13596806Y-12655931D01*
X13596806Y-12655931D02*
X13587282Y-12674979D01*
X13587282Y-12674979D02*
X13587282Y-12722598D01*
X13587282Y-12722598D02*
X13596806Y-12741646D01*
X13596806Y-12741646D02*
X13606329Y-12751169D01*
X13606329Y-12751169D02*
X13625377Y-12760693D01*
X13625377Y-12760693D02*
X13663472Y-12760693D01*
X13663472Y-12760693D02*
X13682520Y-12751169D01*
X13682520Y-12751169D02*
X13692044Y-12741646D01*
X13692044Y-12741646D02*
X13701567Y-12722598D01*
X13872996Y-12703550D02*
X13872996Y-12836884D01*
X13825377Y-12627360D02*
X13777758Y-12770217D01*
X13777758Y-12770217D02*
X13901567Y-12770217D01*
X13968234Y-12636884D02*
X13968234Y-12674979D01*
X14044425Y-12636884D02*
X14044425Y-12674979D01*
X14339663Y-12913074D02*
X14330139Y-12903550D01*
X14330139Y-12903550D02*
X14311091Y-12874979D01*
X14311091Y-12874979D02*
X14301568Y-12855931D01*
X14301568Y-12855931D02*
X14292044Y-12827360D01*
X14292044Y-12827360D02*
X14282520Y-12779741D01*
X14282520Y-12779741D02*
X14282520Y-12741646D01*
X14282520Y-12741646D02*
X14292044Y-12694027D01*
X14292044Y-12694027D02*
X14301568Y-12665455D01*
X14301568Y-12665455D02*
X14311091Y-12646408D01*
X14311091Y-12646408D02*
X14330139Y-12617836D01*
X14330139Y-12617836D02*
X14339663Y-12608312D01*
X14501568Y-12703550D02*
X14501568Y-12836884D01*
X14453948Y-12627360D02*
X14406329Y-12770217D01*
X14406329Y-12770217D02*
X14530139Y-12770217D01*
X14587282Y-12636884D02*
X14711091Y-12636884D01*
X14711091Y-12636884D02*
X14644425Y-12713074D01*
X14644425Y-12713074D02*
X14672996Y-12713074D01*
X14672996Y-12713074D02*
X14692044Y-12722598D01*
X14692044Y-12722598D02*
X14701568Y-12732122D01*
X14701568Y-12732122D02*
X14711091Y-12751169D01*
X14711091Y-12751169D02*
X14711091Y-12798788D01*
X14711091Y-12798788D02*
X14701568Y-12817836D01*
X14701568Y-12817836D02*
X14692044Y-12827360D01*
X14692044Y-12827360D02*
X14672996Y-12836884D01*
X14672996Y-12836884D02*
X14615853Y-12836884D01*
X14615853Y-12836884D02*
X14596806Y-12827360D01*
X14596806Y-12827360D02*
X14587282Y-12817836D01*
X14949187Y-12836884D02*
X14949187Y-12636884D01*
X15034901Y-12836884D02*
X15034901Y-12732122D01*
X15034901Y-12732122D02*
X15025377Y-12713074D01*
X15025377Y-12713074D02*
X15006330Y-12703550D01*
X15006330Y-12703550D02*
X14977758Y-12703550D01*
X14977758Y-12703550D02*
X14958710Y-12713074D01*
X14958710Y-12713074D02*
X14949187Y-12722598D01*
X15158710Y-12836884D02*
X15139663Y-12827360D01*
X15139663Y-12827360D02*
X15130139Y-12817836D01*
X15130139Y-12817836D02*
X15120615Y-12798788D01*
X15120615Y-12798788D02*
X15120615Y-12741646D01*
X15120615Y-12741646D02*
X15130139Y-12722598D01*
X15130139Y-12722598D02*
X15139663Y-12713074D01*
X15139663Y-12713074D02*
X15158710Y-12703550D01*
X15158710Y-12703550D02*
X15187282Y-12703550D01*
X15187282Y-12703550D02*
X15206330Y-12713074D01*
X15206330Y-12713074D02*
X15215853Y-12722598D01*
X15215853Y-12722598D02*
X15225377Y-12741646D01*
X15225377Y-12741646D02*
X15225377Y-12798788D01*
X15225377Y-12798788D02*
X15215853Y-12817836D01*
X15215853Y-12817836D02*
X15206330Y-12827360D01*
X15206330Y-12827360D02*
X15187282Y-12836884D01*
X15187282Y-12836884D02*
X15158710Y-12836884D01*
X15339663Y-12836884D02*
X15320615Y-12827360D01*
X15320615Y-12827360D02*
X15311091Y-12808312D01*
X15311091Y-12808312D02*
X15311091Y-12636884D01*
X15492044Y-12827360D02*
X15472996Y-12836884D01*
X15472996Y-12836884D02*
X15434901Y-12836884D01*
X15434901Y-12836884D02*
X15415853Y-12827360D01*
X15415853Y-12827360D02*
X15406330Y-12808312D01*
X15406330Y-12808312D02*
X15406330Y-12732122D01*
X15406330Y-12732122D02*
X15415853Y-12713074D01*
X15415853Y-12713074D02*
X15434901Y-12703550D01*
X15434901Y-12703550D02*
X15472996Y-12703550D01*
X15472996Y-12703550D02*
X15492044Y-12713074D01*
X15492044Y-12713074D02*
X15501568Y-12732122D01*
X15501568Y-12732122D02*
X15501568Y-12751169D01*
X15501568Y-12751169D02*
X15406330Y-12770217D01*
X15577758Y-12827360D02*
X15596806Y-12836884D01*
X15596806Y-12836884D02*
X15634901Y-12836884D01*
X15634901Y-12836884D02*
X15653949Y-12827360D01*
X15653949Y-12827360D02*
X15663472Y-12808312D01*
X15663472Y-12808312D02*
X15663472Y-12798788D01*
X15663472Y-12798788D02*
X15653949Y-12779741D01*
X15653949Y-12779741D02*
X15634901Y-12770217D01*
X15634901Y-12770217D02*
X15606330Y-12770217D01*
X15606330Y-12770217D02*
X15587282Y-12760693D01*
X15587282Y-12760693D02*
X15577758Y-12741646D01*
X15577758Y-12741646D02*
X15577758Y-12732122D01*
X15577758Y-12732122D02*
X15587282Y-12713074D01*
X15587282Y-12713074D02*
X15606330Y-12703550D01*
X15606330Y-12703550D02*
X15634901Y-12703550D01*
X15634901Y-12703550D02*
X15653949Y-12713074D01*
X15730139Y-12913074D02*
X15739663Y-12903550D01*
X15739663Y-12903550D02*
X15758711Y-12874979D01*
X15758711Y-12874979D02*
X15768234Y-12855931D01*
X15768234Y-12855931D02*
X15777758Y-12827360D01*
X15777758Y-12827360D02*
X15787282Y-12779741D01*
X15787282Y-12779741D02*
X15787282Y-12741646D01*
X15787282Y-12741646D02*
X15777758Y-12694027D01*
X15777758Y-12694027D02*
X15768234Y-12665455D01*
X15768234Y-12665455D02*
X15758711Y-12646408D01*
X15758711Y-12646408D02*
X15739663Y-12617836D01*
X15739663Y-12617836D02*
X15730139Y-12608312D01*
X10664600Y-12909400D02*
X10664600Y-13109400D01*
X10564600Y-13009400D02*
X10764600Y-13009400D01*
X11015853Y-12919931D02*
X11025377Y-12910408D01*
X11025377Y-12910408D02*
X11044424Y-12900884D01*
X11044424Y-12900884D02*
X11092044Y-12900884D01*
X11092044Y-12900884D02*
X11111091Y-12910408D01*
X11111091Y-12910408D02*
X11120615Y-12919931D01*
X11120615Y-12919931D02*
X11130139Y-12938979D01*
X11130139Y-12938979D02*
X11130139Y-12958027D01*
X11130139Y-12958027D02*
X11120615Y-12986598D01*
X11120615Y-12986598D02*
X11006329Y-13100884D01*
X11006329Y-13100884D02*
X11130139Y-13100884D01*
X11215853Y-13081836D02*
X11225377Y-13091360D01*
X11225377Y-13091360D02*
X11215853Y-13100884D01*
X11215853Y-13100884D02*
X11206329Y-13091360D01*
X11206329Y-13091360D02*
X11215853Y-13081836D01*
X11215853Y-13081836D02*
X11215853Y-13100884D01*
X11406329Y-12900884D02*
X11311091Y-12900884D01*
X11311091Y-12900884D02*
X11301567Y-12996122D01*
X11301567Y-12996122D02*
X11311091Y-12986598D01*
X11311091Y-12986598D02*
X11330139Y-12977074D01*
X11330139Y-12977074D02*
X11377758Y-12977074D01*
X11377758Y-12977074D02*
X11396805Y-12986598D01*
X11396805Y-12986598D02*
X11406329Y-12996122D01*
X11406329Y-12996122D02*
X11415853Y-13015169D01*
X11415853Y-13015169D02*
X11415853Y-13062788D01*
X11415853Y-13062788D02*
X11406329Y-13081836D01*
X11406329Y-13081836D02*
X11396805Y-13091360D01*
X11396805Y-13091360D02*
X11377758Y-13100884D01*
X11377758Y-13100884D02*
X11330139Y-13100884D01*
X11330139Y-13100884D02*
X11311091Y-13091360D01*
X11311091Y-13091360D02*
X11301567Y-13081836D01*
X11539662Y-12900884D02*
X11558710Y-12900884D01*
X11558710Y-12900884D02*
X11577758Y-12910408D01*
X11577758Y-12910408D02*
X11587282Y-12919931D01*
X11587282Y-12919931D02*
X11596805Y-12938979D01*
X11596805Y-12938979D02*
X11606329Y-12977074D01*
X11606329Y-12977074D02*
X11606329Y-13024693D01*
X11606329Y-13024693D02*
X11596805Y-13062788D01*
X11596805Y-13062788D02*
X11587282Y-13081836D01*
X11587282Y-13081836D02*
X11577758Y-13091360D01*
X11577758Y-13091360D02*
X11558710Y-13100884D01*
X11558710Y-13100884D02*
X11539662Y-13100884D01*
X11539662Y-13100884D02*
X11520615Y-13091360D01*
X11520615Y-13091360D02*
X11511091Y-13081836D01*
X11511091Y-13081836D02*
X11501567Y-13062788D01*
X11501567Y-13062788D02*
X11492043Y-13024693D01*
X11492043Y-13024693D02*
X11492043Y-12977074D01*
X11492043Y-12977074D02*
X11501567Y-12938979D01*
X11501567Y-12938979D02*
X11511091Y-12919931D01*
X11511091Y-12919931D02*
X11520615Y-12910408D01*
X11520615Y-12910408D02*
X11539662Y-12900884D01*
X11730139Y-12900884D02*
X11749186Y-12900884D01*
X11749186Y-12900884D02*
X11768234Y-12910408D01*
X11768234Y-12910408D02*
X11777758Y-12919931D01*
X11777758Y-12919931D02*
X11787282Y-12938979D01*
X11787282Y-12938979D02*
X11796805Y-12977074D01*
X11796805Y-12977074D02*
X11796805Y-13024693D01*
X11796805Y-13024693D02*
X11787282Y-13062788D01*
X11787282Y-13062788D02*
X11777758Y-13081836D01*
X11777758Y-13081836D02*
X11768234Y-13091360D01*
X11768234Y-13091360D02*
X11749186Y-13100884D01*
X11749186Y-13100884D02*
X11730139Y-13100884D01*
X11730139Y-13100884D02*
X11711091Y-13091360D01*
X11711091Y-13091360D02*
X11701567Y-13081836D01*
X11701567Y-13081836D02*
X11692043Y-13062788D01*
X11692043Y-13062788D02*
X11682520Y-13024693D01*
X11682520Y-13024693D02*
X11682520Y-12977074D01*
X11682520Y-12977074D02*
X11692043Y-12938979D01*
X11692043Y-12938979D02*
X11701567Y-12919931D01*
X11701567Y-12919931D02*
X11711091Y-12910408D01*
X11711091Y-12910408D02*
X11730139Y-12900884D01*
X11882520Y-13100884D02*
X11882520Y-12967550D01*
X11882520Y-12986598D02*
X11892043Y-12977074D01*
X11892043Y-12977074D02*
X11911091Y-12967550D01*
X11911091Y-12967550D02*
X11939663Y-12967550D01*
X11939663Y-12967550D02*
X11958710Y-12977074D01*
X11958710Y-12977074D02*
X11968234Y-12996122D01*
X11968234Y-12996122D02*
X11968234Y-13100884D01*
X11968234Y-12996122D02*
X11977758Y-12977074D01*
X11977758Y-12977074D02*
X11996805Y-12967550D01*
X11996805Y-12967550D02*
X12025377Y-12967550D01*
X12025377Y-12967550D02*
X12044424Y-12977074D01*
X12044424Y-12977074D02*
X12053948Y-12996122D01*
X12053948Y-12996122D02*
X12053948Y-13100884D01*
X12149186Y-13100884D02*
X12149186Y-12967550D01*
X12149186Y-12986598D02*
X12158710Y-12977074D01*
X12158710Y-12977074D02*
X12177758Y-12967550D01*
X12177758Y-12967550D02*
X12206329Y-12967550D01*
X12206329Y-12967550D02*
X12225377Y-12977074D01*
X12225377Y-12977074D02*
X12234901Y-12996122D01*
X12234901Y-12996122D02*
X12234901Y-13100884D01*
X12234901Y-12996122D02*
X12244424Y-12977074D01*
X12244424Y-12977074D02*
X12263472Y-12967550D01*
X12263472Y-12967550D02*
X12292043Y-12967550D01*
X12292043Y-12967550D02*
X12311091Y-12977074D01*
X12311091Y-12977074D02*
X12320615Y-12996122D01*
X12320615Y-12996122D02*
X12320615Y-13100884D01*
X12711091Y-12891360D02*
X12539663Y-13148503D01*
X12968234Y-12900884D02*
X12987282Y-12900884D01*
X12987282Y-12900884D02*
X13006329Y-12910408D01*
X13006329Y-12910408D02*
X13015853Y-12919931D01*
X13015853Y-12919931D02*
X13025377Y-12938979D01*
X13025377Y-12938979D02*
X13034901Y-12977074D01*
X13034901Y-12977074D02*
X13034901Y-13024693D01*
X13034901Y-13024693D02*
X13025377Y-13062788D01*
X13025377Y-13062788D02*
X13015853Y-13081836D01*
X13015853Y-13081836D02*
X13006329Y-13091360D01*
X13006329Y-13091360D02*
X12987282Y-13100884D01*
X12987282Y-13100884D02*
X12968234Y-13100884D01*
X12968234Y-13100884D02*
X12949186Y-13091360D01*
X12949186Y-13091360D02*
X12939663Y-13081836D01*
X12939663Y-13081836D02*
X12930139Y-13062788D01*
X12930139Y-13062788D02*
X12920615Y-13024693D01*
X12920615Y-13024693D02*
X12920615Y-12977074D01*
X12920615Y-12977074D02*
X12930139Y-12938979D01*
X12930139Y-12938979D02*
X12939663Y-12919931D01*
X12939663Y-12919931D02*
X12949186Y-12910408D01*
X12949186Y-12910408D02*
X12968234Y-12900884D01*
X13120615Y-13081836D02*
X13130139Y-13091360D01*
X13130139Y-13091360D02*
X13120615Y-13100884D01*
X13120615Y-13100884D02*
X13111091Y-13091360D01*
X13111091Y-13091360D02*
X13120615Y-13081836D01*
X13120615Y-13081836D02*
X13120615Y-13100884D01*
X13253948Y-12900884D02*
X13272996Y-12900884D01*
X13272996Y-12900884D02*
X13292044Y-12910408D01*
X13292044Y-12910408D02*
X13301567Y-12919931D01*
X13301567Y-12919931D02*
X13311091Y-12938979D01*
X13311091Y-12938979D02*
X13320615Y-12977074D01*
X13320615Y-12977074D02*
X13320615Y-13024693D01*
X13320615Y-13024693D02*
X13311091Y-13062788D01*
X13311091Y-13062788D02*
X13301567Y-13081836D01*
X13301567Y-13081836D02*
X13292044Y-13091360D01*
X13292044Y-13091360D02*
X13272996Y-13100884D01*
X13272996Y-13100884D02*
X13253948Y-13100884D01*
X13253948Y-13100884D02*
X13234901Y-13091360D01*
X13234901Y-13091360D02*
X13225377Y-13081836D01*
X13225377Y-13081836D02*
X13215853Y-13062788D01*
X13215853Y-13062788D02*
X13206329Y-13024693D01*
X13206329Y-13024693D02*
X13206329Y-12977074D01*
X13206329Y-12977074D02*
X13215853Y-12938979D01*
X13215853Y-12938979D02*
X13225377Y-12919931D01*
X13225377Y-12919931D02*
X13234901Y-12910408D01*
X13234901Y-12910408D02*
X13253948Y-12900884D01*
X13415853Y-13100884D02*
X13453948Y-13100884D01*
X13453948Y-13100884D02*
X13472996Y-13091360D01*
X13472996Y-13091360D02*
X13482520Y-13081836D01*
X13482520Y-13081836D02*
X13501567Y-13053265D01*
X13501567Y-13053265D02*
X13511091Y-13015169D01*
X13511091Y-13015169D02*
X13511091Y-12938979D01*
X13511091Y-12938979D02*
X13501567Y-12919931D01*
X13501567Y-12919931D02*
X13492044Y-12910408D01*
X13492044Y-12910408D02*
X13472996Y-12900884D01*
X13472996Y-12900884D02*
X13434901Y-12900884D01*
X13434901Y-12900884D02*
X13415853Y-12910408D01*
X13415853Y-12910408D02*
X13406329Y-12919931D01*
X13406329Y-12919931D02*
X13396806Y-12938979D01*
X13396806Y-12938979D02*
X13396806Y-12986598D01*
X13396806Y-12986598D02*
X13406329Y-13005646D01*
X13406329Y-13005646D02*
X13415853Y-13015169D01*
X13415853Y-13015169D02*
X13434901Y-13024693D01*
X13434901Y-13024693D02*
X13472996Y-13024693D01*
X13472996Y-13024693D02*
X13492044Y-13015169D01*
X13492044Y-13015169D02*
X13501567Y-13005646D01*
X13501567Y-13005646D02*
X13511091Y-12986598D01*
X13625377Y-12986598D02*
X13606329Y-12977074D01*
X13606329Y-12977074D02*
X13596806Y-12967550D01*
X13596806Y-12967550D02*
X13587282Y-12948503D01*
X13587282Y-12948503D02*
X13587282Y-12938979D01*
X13587282Y-12938979D02*
X13596806Y-12919931D01*
X13596806Y-12919931D02*
X13606329Y-12910408D01*
X13606329Y-12910408D02*
X13625377Y-12900884D01*
X13625377Y-12900884D02*
X13663472Y-12900884D01*
X13663472Y-12900884D02*
X13682520Y-12910408D01*
X13682520Y-12910408D02*
X13692044Y-12919931D01*
X13692044Y-12919931D02*
X13701567Y-12938979D01*
X13701567Y-12938979D02*
X13701567Y-12948503D01*
X13701567Y-12948503D02*
X13692044Y-12967550D01*
X13692044Y-12967550D02*
X13682520Y-12977074D01*
X13682520Y-12977074D02*
X13663472Y-12986598D01*
X13663472Y-12986598D02*
X13625377Y-12986598D01*
X13625377Y-12986598D02*
X13606329Y-12996122D01*
X13606329Y-12996122D02*
X13596806Y-13005646D01*
X13596806Y-13005646D02*
X13587282Y-13024693D01*
X13587282Y-13024693D02*
X13587282Y-13062788D01*
X13587282Y-13062788D02*
X13596806Y-13081836D01*
X13596806Y-13081836D02*
X13606329Y-13091360D01*
X13606329Y-13091360D02*
X13625377Y-13100884D01*
X13625377Y-13100884D02*
X13663472Y-13100884D01*
X13663472Y-13100884D02*
X13682520Y-13091360D01*
X13682520Y-13091360D02*
X13692044Y-13081836D01*
X13692044Y-13081836D02*
X13701567Y-13062788D01*
X13701567Y-13062788D02*
X13701567Y-13024693D01*
X13701567Y-13024693D02*
X13692044Y-13005646D01*
X13692044Y-13005646D02*
X13682520Y-12996122D01*
X13682520Y-12996122D02*
X13663472Y-12986598D01*
X13872996Y-12967550D02*
X13872996Y-13100884D01*
X13825377Y-12891360D02*
X13777758Y-13034217D01*
X13777758Y-13034217D02*
X13901567Y-13034217D01*
X13968234Y-12900884D02*
X13968234Y-12938979D01*
X14044425Y-12900884D02*
X14044425Y-12938979D01*
X14339663Y-13177074D02*
X14330139Y-13167550D01*
X14330139Y-13167550D02*
X14311091Y-13138979D01*
X14311091Y-13138979D02*
X14301568Y-13119931D01*
X14301568Y-13119931D02*
X14292044Y-13091360D01*
X14292044Y-13091360D02*
X14282520Y-13043741D01*
X14282520Y-13043741D02*
X14282520Y-13005646D01*
X14282520Y-13005646D02*
X14292044Y-12958027D01*
X14292044Y-12958027D02*
X14301568Y-12929455D01*
X14301568Y-12929455D02*
X14311091Y-12910408D01*
X14311091Y-12910408D02*
X14330139Y-12881836D01*
X14330139Y-12881836D02*
X14339663Y-12872312D01*
X14501568Y-12967550D02*
X14501568Y-13100884D01*
X14453948Y-12891360D02*
X14406329Y-13034217D01*
X14406329Y-13034217D02*
X14530139Y-13034217D01*
X14758710Y-13100884D02*
X14758710Y-12900884D01*
X14844425Y-13100884D02*
X14844425Y-12996122D01*
X14844425Y-12996122D02*
X14834901Y-12977074D01*
X14834901Y-12977074D02*
X14815853Y-12967550D01*
X14815853Y-12967550D02*
X14787282Y-12967550D01*
X14787282Y-12967550D02*
X14768234Y-12977074D01*
X14768234Y-12977074D02*
X14758710Y-12986598D01*
X14968234Y-13100884D02*
X14949187Y-13091360D01*
X14949187Y-13091360D02*
X14939663Y-13081836D01*
X14939663Y-13081836D02*
X14930139Y-13062788D01*
X14930139Y-13062788D02*
X14930139Y-13005646D01*
X14930139Y-13005646D02*
X14939663Y-12986598D01*
X14939663Y-12986598D02*
X14949187Y-12977074D01*
X14949187Y-12977074D02*
X14968234Y-12967550D01*
X14968234Y-12967550D02*
X14996806Y-12967550D01*
X14996806Y-12967550D02*
X15015853Y-12977074D01*
X15015853Y-12977074D02*
X15025377Y-12986598D01*
X15025377Y-12986598D02*
X15034901Y-13005646D01*
X15034901Y-13005646D02*
X15034901Y-13062788D01*
X15034901Y-13062788D02*
X15025377Y-13081836D01*
X15025377Y-13081836D02*
X15015853Y-13091360D01*
X15015853Y-13091360D02*
X14996806Y-13100884D01*
X14996806Y-13100884D02*
X14968234Y-13100884D01*
X15149187Y-13100884D02*
X15130139Y-13091360D01*
X15130139Y-13091360D02*
X15120615Y-13072312D01*
X15120615Y-13072312D02*
X15120615Y-12900884D01*
X15301568Y-13091360D02*
X15282520Y-13100884D01*
X15282520Y-13100884D02*
X15244425Y-13100884D01*
X15244425Y-13100884D02*
X15225377Y-13091360D01*
X15225377Y-13091360D02*
X15215853Y-13072312D01*
X15215853Y-13072312D02*
X15215853Y-12996122D01*
X15215853Y-12996122D02*
X15225377Y-12977074D01*
X15225377Y-12977074D02*
X15244425Y-12967550D01*
X15244425Y-12967550D02*
X15282520Y-12967550D01*
X15282520Y-12967550D02*
X15301568Y-12977074D01*
X15301568Y-12977074D02*
X15311091Y-12996122D01*
X15311091Y-12996122D02*
X15311091Y-13015169D01*
X15311091Y-13015169D02*
X15215853Y-13034217D01*
X15387282Y-13091360D02*
X15406330Y-13100884D01*
X15406330Y-13100884D02*
X15444425Y-13100884D01*
X15444425Y-13100884D02*
X15463472Y-13091360D01*
X15463472Y-13091360D02*
X15472996Y-13072312D01*
X15472996Y-13072312D02*
X15472996Y-13062788D01*
X15472996Y-13062788D02*
X15463472Y-13043741D01*
X15463472Y-13043741D02*
X15444425Y-13034217D01*
X15444425Y-13034217D02*
X15415853Y-13034217D01*
X15415853Y-13034217D02*
X15396806Y-13024693D01*
X15396806Y-13024693D02*
X15387282Y-13005646D01*
X15387282Y-13005646D02*
X15387282Y-12996122D01*
X15387282Y-12996122D02*
X15396806Y-12977074D01*
X15396806Y-12977074D02*
X15415853Y-12967550D01*
X15415853Y-12967550D02*
X15444425Y-12967550D01*
X15444425Y-12967550D02*
X15463472Y-12977074D01*
X15539663Y-13177074D02*
X15549187Y-13167550D01*
X15549187Y-13167550D02*
X15568234Y-13138979D01*
X15568234Y-13138979D02*
X15577758Y-13119931D01*
X15577758Y-13119931D02*
X15587282Y-13091360D01*
X15587282Y-13091360D02*
X15596806Y-13043741D01*
X15596806Y-13043741D02*
X15596806Y-13005646D01*
X15596806Y-13005646D02*
X15587282Y-12958027D01*
X15587282Y-12958027D02*
X15577758Y-12929455D01*
X15577758Y-12929455D02*
X15568234Y-12910408D01*
X15568234Y-12910408D02*
X15549187Y-12881836D01*
X15549187Y-12881836D02*
X15539663Y-12872312D01*
X15901568Y-13177074D02*
X15892044Y-13167550D01*
X15892044Y-13167550D02*
X15872996Y-13138979D01*
X15872996Y-13138979D02*
X15863472Y-13119931D01*
X15863472Y-13119931D02*
X15853949Y-13091360D01*
X15853949Y-13091360D02*
X15844425Y-13043741D01*
X15844425Y-13043741D02*
X15844425Y-13005646D01*
X15844425Y-13005646D02*
X15853949Y-12958027D01*
X15853949Y-12958027D02*
X15863472Y-12929455D01*
X15863472Y-12929455D02*
X15872996Y-12910408D01*
X15872996Y-12910408D02*
X15892044Y-12881836D01*
X15892044Y-12881836D02*
X15901568Y-12872312D01*
X15977758Y-12967550D02*
X15977758Y-13100884D01*
X15977758Y-12986598D02*
X15987282Y-12977074D01*
X15987282Y-12977074D02*
X16006330Y-12967550D01*
X16006330Y-12967550D02*
X16034901Y-12967550D01*
X16034901Y-12967550D02*
X16053949Y-12977074D01*
X16053949Y-12977074D02*
X16063472Y-12996122D01*
X16063472Y-12996122D02*
X16063472Y-13100884D01*
X16187282Y-13100884D02*
X16168234Y-13091360D01*
X16168234Y-13091360D02*
X16158711Y-13081836D01*
X16158711Y-13081836D02*
X16149187Y-13062788D01*
X16149187Y-13062788D02*
X16149187Y-13005646D01*
X16149187Y-13005646D02*
X16158711Y-12986598D01*
X16158711Y-12986598D02*
X16168234Y-12977074D01*
X16168234Y-12977074D02*
X16187282Y-12967550D01*
X16187282Y-12967550D02*
X16215853Y-12967550D01*
X16215853Y-12967550D02*
X16234901Y-12977074D01*
X16234901Y-12977074D02*
X16244425Y-12986598D01*
X16244425Y-12986598D02*
X16253949Y-13005646D01*
X16253949Y-13005646D02*
X16253949Y-13062788D01*
X16253949Y-13062788D02*
X16244425Y-13081836D01*
X16244425Y-13081836D02*
X16234901Y-13091360D01*
X16234901Y-13091360D02*
X16215853Y-13100884D01*
X16215853Y-13100884D02*
X16187282Y-13100884D01*
X16311092Y-12967550D02*
X16387282Y-12967550D01*
X16339663Y-12900884D02*
X16339663Y-13072312D01*
X16339663Y-13072312D02*
X16349187Y-13091360D01*
X16349187Y-13091360D02*
X16368234Y-13100884D01*
X16368234Y-13100884D02*
X16387282Y-13100884D01*
X16606330Y-12967550D02*
X16606330Y-13167550D01*
X16606330Y-12977074D02*
X16625377Y-12967550D01*
X16625377Y-12967550D02*
X16663473Y-12967550D01*
X16663473Y-12967550D02*
X16682520Y-12977074D01*
X16682520Y-12977074D02*
X16692044Y-12986598D01*
X16692044Y-12986598D02*
X16701568Y-13005646D01*
X16701568Y-13005646D02*
X16701568Y-13062788D01*
X16701568Y-13062788D02*
X16692044Y-13081836D01*
X16692044Y-13081836D02*
X16682520Y-13091360D01*
X16682520Y-13091360D02*
X16663473Y-13100884D01*
X16663473Y-13100884D02*
X16625377Y-13100884D01*
X16625377Y-13100884D02*
X16606330Y-13091360D01*
X16815854Y-13100884D02*
X16796806Y-13091360D01*
X16796806Y-13091360D02*
X16787282Y-13072312D01*
X16787282Y-13072312D02*
X16787282Y-12900884D01*
X16977758Y-13100884D02*
X16977758Y-12996122D01*
X16977758Y-12996122D02*
X16968235Y-12977074D01*
X16968235Y-12977074D02*
X16949187Y-12967550D01*
X16949187Y-12967550D02*
X16911092Y-12967550D01*
X16911092Y-12967550D02*
X16892044Y-12977074D01*
X16977758Y-13091360D02*
X16958711Y-13100884D01*
X16958711Y-13100884D02*
X16911092Y-13100884D01*
X16911092Y-13100884D02*
X16892044Y-13091360D01*
X16892044Y-13091360D02*
X16882520Y-13072312D01*
X16882520Y-13072312D02*
X16882520Y-13053265D01*
X16882520Y-13053265D02*
X16892044Y-13034217D01*
X16892044Y-13034217D02*
X16911092Y-13024693D01*
X16911092Y-13024693D02*
X16958711Y-13024693D01*
X16958711Y-13024693D02*
X16977758Y-13015169D01*
X17044425Y-12967550D02*
X17120615Y-12967550D01*
X17072996Y-12900884D02*
X17072996Y-13072312D01*
X17072996Y-13072312D02*
X17082520Y-13091360D01*
X17082520Y-13091360D02*
X17101568Y-13100884D01*
X17101568Y-13100884D02*
X17120615Y-13100884D01*
X17263473Y-13091360D02*
X17244425Y-13100884D01*
X17244425Y-13100884D02*
X17206330Y-13100884D01*
X17206330Y-13100884D02*
X17187282Y-13091360D01*
X17187282Y-13091360D02*
X17177758Y-13072312D01*
X17177758Y-13072312D02*
X17177758Y-12996122D01*
X17177758Y-12996122D02*
X17187282Y-12977074D01*
X17187282Y-12977074D02*
X17206330Y-12967550D01*
X17206330Y-12967550D02*
X17244425Y-12967550D01*
X17244425Y-12967550D02*
X17263473Y-12977074D01*
X17263473Y-12977074D02*
X17272996Y-12996122D01*
X17272996Y-12996122D02*
X17272996Y-13015169D01*
X17272996Y-13015169D02*
X17177758Y-13034217D01*
X17444425Y-13100884D02*
X17444425Y-12900884D01*
X17444425Y-13091360D02*
X17425377Y-13100884D01*
X17425377Y-13100884D02*
X17387282Y-13100884D01*
X17387282Y-13100884D02*
X17368235Y-13091360D01*
X17368235Y-13091360D02*
X17358711Y-13081836D01*
X17358711Y-13081836D02*
X17349187Y-13062788D01*
X17349187Y-13062788D02*
X17349187Y-13005646D01*
X17349187Y-13005646D02*
X17358711Y-12986598D01*
X17358711Y-12986598D02*
X17368235Y-12977074D01*
X17368235Y-12977074D02*
X17387282Y-12967550D01*
X17387282Y-12967550D02*
X17425377Y-12967550D01*
X17425377Y-12967550D02*
X17444425Y-12977074D01*
X17520616Y-13177074D02*
X17530139Y-13167550D01*
X17530139Y-13167550D02*
X17549187Y-13138979D01*
X17549187Y-13138979D02*
X17558711Y-13119931D01*
X17558711Y-13119931D02*
X17568235Y-13091360D01*
X17568235Y-13091360D02*
X17577758Y-13043741D01*
X17577758Y-13043741D02*
X17577758Y-13005646D01*
X17577758Y-13005646D02*
X17568235Y-12958027D01*
X17568235Y-12958027D02*
X17558711Y-12929455D01*
X17558711Y-12929455D02*
X17549187Y-12910408D01*
X17549187Y-12910408D02*
X17530139Y-12881836D01*
X17530139Y-12881836D02*
X17520616Y-12872312D01*
M02*
