G04 #@! TF.GenerationSoftware,KiCad,Pcbnew,7.0.7*
G04 #@! TF.CreationDate,2024-03-11T23:12:29+01:00*
G04 #@! TF.ProjectId,RocketTX,526f636b-6574-4545-982e-6b696361645f,rev?*
G04 #@! TF.SameCoordinates,Original*
G04 #@! TF.FileFunction,Copper,L1,Top*
G04 #@! TF.FilePolarity,Positive*
%FSLAX46Y46*%
G04 Gerber Fmt 4.6, Leading zero omitted, Abs format (unit mm)*
G04 Created by KiCad (PCBNEW 7.0.7) date 2024-03-11 23:12:29*
%MOMM*%
%LPD*%
G01*
G04 APERTURE LIST*
G04 #@! TA.AperFunction,ComponentPad*
%ADD10C,1.600000*%
G04 #@! TD*
G04 #@! TA.AperFunction,ComponentPad*
%ADD11O,1.600000X1.600000*%
G04 #@! TD*
G04 #@! TA.AperFunction,ComponentPad*
%ADD12R,1.700000X1.700000*%
G04 #@! TD*
G04 #@! TA.AperFunction,ComponentPad*
%ADD13O,1.700000X1.700000*%
G04 #@! TD*
G04 #@! TA.AperFunction,ComponentPad*
%ADD14R,1.600000X1.600000*%
G04 #@! TD*
G04 #@! TA.AperFunction,Conductor*
%ADD15C,1.400000*%
G04 #@! TD*
G04 APERTURE END LIST*
D10*
X121438000Y-97917000D03*
D11*
X121438000Y-108077000D03*
D10*
X150394000Y-101219000D03*
D11*
X150394000Y-91059000D03*
D10*
X114326000Y-84963000D03*
D11*
X114326000Y-95123000D03*
X118136000Y-97663000D03*
D10*
X118136000Y-87503000D03*
D12*
X120015000Y-67310000D03*
D13*
X122555000Y-67310000D03*
X125095000Y-67310000D03*
X127635000Y-67310000D03*
X130175000Y-67310000D03*
X132715000Y-67310000D03*
X135255000Y-67310000D03*
D12*
X154250000Y-108475000D03*
D13*
X156790000Y-108475000D03*
D12*
X154250000Y-103725000D03*
D13*
X156790000Y-103725000D03*
D10*
X146076000Y-104267000D03*
D11*
X146076000Y-94107000D03*
D14*
X125658000Y-75891000D03*
D11*
X125658000Y-78431000D03*
X125658000Y-80971000D03*
X125658000Y-83511000D03*
X125658000Y-86051000D03*
X125658000Y-88591000D03*
X125658000Y-91131000D03*
X125658000Y-93671000D03*
X125658000Y-96211000D03*
X125658000Y-98751000D03*
X125658000Y-101291000D03*
X125658000Y-103831000D03*
X125658000Y-106371000D03*
X125658000Y-108911000D03*
X125658000Y-111451000D03*
X140898000Y-111451000D03*
X140898000Y-108911000D03*
X140898000Y-106371000D03*
X140898000Y-103831000D03*
X140898000Y-101291000D03*
X140898000Y-98751000D03*
X140898000Y-96211000D03*
X140898000Y-93671000D03*
X140898000Y-91131000D03*
X140898000Y-88591000D03*
X140898000Y-86051000D03*
X140898000Y-83511000D03*
X140898000Y-80971000D03*
X140898000Y-78431000D03*
X140898000Y-75891000D03*
D10*
X154106000Y-95195000D03*
D11*
X154106000Y-85035000D03*
D12*
X154250000Y-98750000D03*
D13*
X156790000Y-98750000D03*
D10*
X118136000Y-110617000D03*
D11*
X118136000Y-100457000D03*
D15*
X112196000Y-86305000D02*
X118136000Y-92245000D01*
X118136000Y-92245000D02*
X118136000Y-97663000D01*
X150394000Y-101219000D02*
X152900000Y-103725000D01*
X152900000Y-103725000D02*
X154250000Y-103725000D01*
X147346000Y-94107000D02*
X146076000Y-94107000D01*
X151791000Y-89662000D02*
X147981000Y-93472000D01*
X147854000Y-88265000D02*
X147854000Y-87731000D01*
X135255000Y-66107919D02*
X133663081Y-64516000D01*
X135255000Y-67310000D02*
X135255000Y-66107919D01*
X121285000Y-66747000D02*
X119761000Y-66747000D01*
X150648000Y-88265000D02*
X150876000Y-88265000D01*
X148870000Y-88265000D02*
X148870000Y-87985000D01*
X153188000Y-87321000D02*
X153188000Y-88265000D01*
X146076000Y-82477630D02*
X142029370Y-78431000D01*
X153272000Y-90297000D02*
X151156000Y-90297000D01*
X146076000Y-88773000D02*
X146076000Y-86233000D01*
X146626000Y-85683000D02*
X147274000Y-85035000D01*
X139120000Y-78431000D02*
X137977000Y-77288000D01*
X147274000Y-85035000D02*
X148010000Y-85035000D01*
X148870000Y-86969000D02*
X150804000Y-85035000D01*
X154106000Y-85035000D02*
X153598000Y-85543000D01*
X121539000Y-64969000D02*
X121793000Y-64969000D01*
X146076000Y-92837000D02*
X146076000Y-94107000D01*
X147854000Y-89662000D02*
X147854000Y-92583000D01*
X146076000Y-86233000D02*
X146076000Y-83003000D01*
X153598000Y-85543000D02*
X153188000Y-85953000D01*
X146076000Y-83003000D02*
X146076000Y-82477630D01*
X121031000Y-65477000D02*
X121285000Y-65477000D01*
X146457000Y-89662000D02*
X146076000Y-90043000D01*
X120523000Y-65985000D02*
X121031000Y-65477000D01*
X153188000Y-85953000D02*
X153188000Y-87321000D01*
X150394000Y-91059000D02*
X151791000Y-89662000D01*
X122555000Y-65024000D02*
X122555000Y-66294000D01*
X154106000Y-91131000D02*
X153272000Y-90297000D01*
X147854000Y-93345000D02*
X147981000Y-93472000D01*
X148616000Y-90297000D02*
X148616000Y-91821000D01*
X148870000Y-88265000D02*
X149860000Y-88265000D01*
X133663081Y-64516000D02*
X123063000Y-64516000D01*
X146584000Y-93345000D02*
X146076000Y-92837000D01*
X147854000Y-88265000D02*
X146076000Y-90043000D01*
X146076000Y-90043000D02*
X146076000Y-88773000D01*
X121285000Y-66040000D02*
X121793000Y-65532000D01*
X137977000Y-77288000D02*
X136707000Y-76018000D01*
X121031000Y-66294000D02*
X120777000Y-66548000D01*
X150648000Y-88265000D02*
X148870000Y-88265000D01*
X159440000Y-93241416D02*
X159440000Y-110060000D01*
X148616000Y-91821000D02*
X147854000Y-92583000D01*
X151791000Y-89662000D02*
X153188000Y-88265000D01*
X154750000Y-111000000D02*
X150235000Y-115515000D01*
X148616000Y-90297000D02*
X151156000Y-90297000D01*
X148010000Y-84937000D02*
X146076000Y-83003000D01*
X135255000Y-74566000D02*
X136707000Y-76018000D01*
X150804000Y-85035000D02*
X148633370Y-85035000D01*
X140898000Y-78431000D02*
X139120000Y-78431000D01*
X147854000Y-91059000D02*
X148616000Y-91059000D01*
X154106000Y-91131000D02*
X157329584Y-91131000D01*
X149860000Y-88265000D02*
X151566000Y-86559000D01*
X136707000Y-76018000D02*
X136072000Y-75383000D01*
X118136000Y-112057000D02*
X118136000Y-110617000D01*
X147079000Y-87490000D02*
X146076000Y-86487000D01*
X154106000Y-91131000D02*
X154106000Y-89183000D01*
X148010000Y-85035000D02*
X148010000Y-84937000D01*
X135255000Y-72843000D02*
X135255000Y-74566000D01*
X146076000Y-94107000D02*
X149052000Y-91131000D01*
X148616000Y-91059000D02*
X146076000Y-91059000D01*
X122555000Y-66294000D02*
X122555000Y-67310000D01*
X151156000Y-90297000D02*
X151791000Y-89662000D01*
X154106000Y-85035000D02*
X151820000Y-85035000D01*
X151566000Y-86559000D02*
X152426000Y-86559000D01*
X121793000Y-65532000D02*
X122809000Y-64516000D01*
X148616000Y-91059000D02*
X150394000Y-91059000D01*
X148633370Y-85035000D02*
X146076000Y-82477630D01*
X148870000Y-88265000D02*
X146584000Y-88265000D01*
X153188000Y-85953000D02*
X146896000Y-85953000D01*
X148870000Y-88265000D02*
X148870000Y-86969000D01*
X157329584Y-91131000D02*
X159440000Y-93241416D01*
X147854000Y-92583000D02*
X147854000Y-93345000D01*
X147981000Y-93472000D02*
X147346000Y-94107000D01*
X158500000Y-111000000D02*
X154750000Y-111000000D01*
X152637000Y-89662000D02*
X151791000Y-89662000D01*
X146076000Y-86233000D02*
X146626000Y-85683000D01*
X146584000Y-88265000D02*
X146076000Y-88773000D01*
X135255000Y-67310000D02*
X135255000Y-72843000D01*
X154106000Y-86051000D02*
X153598000Y-85543000D01*
X120015000Y-67310000D02*
X120777000Y-66548000D01*
X152426000Y-86559000D02*
X153188000Y-87321000D01*
X149026000Y-86559000D02*
X151566000Y-86559000D01*
X150876000Y-88265000D02*
X153188000Y-85953000D01*
X148616000Y-90297000D02*
X150648000Y-88265000D01*
X147854000Y-88265000D02*
X147079000Y-87490000D01*
X147854000Y-93345000D02*
X146584000Y-93345000D01*
X147854000Y-87731000D02*
X149026000Y-86559000D01*
X154106000Y-89183000D02*
X153188000Y-88265000D01*
X151791000Y-89662000D02*
X147854000Y-89662000D01*
X146076000Y-92837000D02*
X146076000Y-91059000D01*
X148870000Y-87985000D02*
X151820000Y-85035000D01*
X148010000Y-85035000D02*
X148010000Y-86559000D01*
X121285000Y-67310000D02*
X121285000Y-66040000D01*
X121594000Y-115515000D02*
X118136000Y-112057000D01*
X147854000Y-91059000D02*
X146076000Y-92837000D01*
X154106000Y-89183000D02*
X154106000Y-86051000D01*
X146896000Y-85953000D02*
X146626000Y-85683000D01*
X148010000Y-86559000D02*
X149026000Y-86559000D01*
X148010000Y-85035000D02*
X154106000Y-85035000D01*
X148010000Y-86559000D02*
X147079000Y-87490000D01*
X153188000Y-88265000D02*
X150648000Y-88265000D01*
X146076000Y-91059000D02*
X146076000Y-90043000D01*
X148616000Y-91059000D02*
X148616000Y-90297000D01*
X121793000Y-64969000D02*
X121285000Y-65477000D01*
X149052000Y-91131000D02*
X154106000Y-91131000D01*
X148870000Y-88265000D02*
X147854000Y-88265000D01*
X142029370Y-78431000D02*
X140898000Y-78431000D01*
X146076000Y-86487000D02*
X146076000Y-86233000D01*
X147854000Y-89662000D02*
X146457000Y-89662000D01*
X154106000Y-91131000D02*
X152637000Y-89662000D01*
X150235000Y-115515000D02*
X121594000Y-115515000D01*
X159440000Y-110060000D02*
X158500000Y-111000000D01*
X151820000Y-85035000D02*
X150804000Y-85035000D01*
X118414000Y-73991000D02*
X114326000Y-78079000D01*
X114326000Y-78079000D02*
X114326000Y-84963000D01*
X124858001Y-85251001D02*
X114614001Y-85251001D01*
X118414000Y-73991000D02*
X122047584Y-73991000D01*
X125658000Y-86051000D02*
X124858001Y-85251001D01*
X122047584Y-73991000D02*
X126365000Y-69673584D01*
X126365000Y-69673584D02*
X126365000Y-67763000D01*
X114614001Y-85251001D02*
X114326000Y-84963000D01*
X119224000Y-88591000D02*
X125658000Y-88591000D01*
X118136000Y-87503000D02*
X119224000Y-88591000D01*
X140750994Y-108911000D02*
X140898000Y-108911000D01*
X114326000Y-95123000D02*
X114326000Y-100965000D01*
X136310994Y-113351000D02*
X140750994Y-108911000D01*
X121438000Y-109918006D02*
X124870994Y-113351000D01*
X121438000Y-108077000D02*
X121438000Y-109918006D01*
X114326000Y-100965000D02*
X121438000Y-108077000D01*
X124870994Y-113351000D02*
X136310994Y-113351000D01*
X144624000Y-103831000D02*
X145060000Y-104267000D01*
X140898000Y-103831000D02*
X144624000Y-103831000D01*
X150267000Y-104267000D02*
X154380000Y-108380000D01*
X145060000Y-104267000D02*
X150267000Y-104267000D01*
X140898000Y-101291000D02*
X150322000Y-101291000D01*
X150322000Y-101291000D02*
X150394000Y-101219000D01*
X149280000Y-98751000D02*
X153090000Y-98751000D01*
X153090000Y-96973000D02*
X152582000Y-96465000D01*
X153090000Y-98751000D02*
X151947000Y-97608000D01*
X153090000Y-98751000D02*
X154360000Y-98751000D01*
X154106000Y-98497000D02*
X154360000Y-98751000D01*
X154106000Y-95195000D02*
X154106000Y-98497000D01*
X140898000Y-98751000D02*
X149280000Y-98751000D01*
X152074000Y-96973000D02*
X153090000Y-96973000D01*
X151439000Y-97608000D02*
X152582000Y-96465000D01*
X150296000Y-98751000D02*
X151439000Y-97608000D01*
X152582000Y-96465000D02*
X153852000Y-95195000D01*
X151439000Y-97608000D02*
X152074000Y-96973000D01*
X151947000Y-97608000D02*
X151439000Y-97608000D01*
X149280000Y-98751000D02*
X150296000Y-98751000D01*
X153090000Y-98751000D02*
X153090000Y-96973000D01*
X156790000Y-108475000D02*
X156900000Y-108365000D01*
X143536000Y-86001994D02*
X143536000Y-95377000D01*
X135326416Y-79088000D02*
X133532000Y-77293584D01*
X145110000Y-96951000D02*
X147047584Y-96951000D01*
X147047584Y-96951000D02*
X150835584Y-93163000D01*
X150835584Y-93163000D02*
X155376000Y-93163000D01*
X156900000Y-108365000D02*
X156900000Y-101291000D01*
X143536000Y-95377000D02*
X145110000Y-96951000D01*
X139766630Y-83511000D02*
X135343630Y-79088000D01*
X156900000Y-101291000D02*
X156900000Y-103349000D01*
X155376000Y-93163000D02*
X156900000Y-94687000D01*
X156900000Y-98751000D02*
X156900000Y-101291000D01*
X156900000Y-94687000D02*
X156900000Y-98751000D01*
X134475893Y-78237477D02*
X133532000Y-77293584D01*
X140898000Y-83511000D02*
X139766630Y-83511000D01*
X135343630Y-79088000D02*
X135326416Y-79088000D01*
X131445000Y-75206584D02*
X133532000Y-77293584D01*
X131445000Y-67763000D02*
X131445000Y-75206584D01*
X140898000Y-83511000D02*
X141045006Y-83511000D01*
X156900000Y-103349000D02*
X156920000Y-103369000D01*
X141045006Y-83511000D02*
X143536000Y-86001994D01*
X123825000Y-67763000D02*
X123825000Y-69668000D01*
X121438000Y-97917000D02*
X118390000Y-97917000D01*
X122114919Y-71378081D02*
X123825000Y-69668000D01*
X117978919Y-71378081D02*
X122114919Y-71378081D01*
X118136000Y-100457000D02*
X118136000Y-97663000D01*
X117978919Y-71378081D02*
X112196000Y-77161000D01*
X118390000Y-97917000D02*
X118136000Y-97663000D01*
X112196000Y-77161000D02*
X112196000Y-86305000D01*
M02*
