M48
; DRILL file {KiCad 7.0.7} date Mon Mar 11 23:12:34 2024
; FORMAT={-:-/ absolute / metric / decimal}
; #@! TF.CreationDate,2024-03-11T23:12:34+01:00
; #@! TF.GenerationSoftware,Kicad,Pcbnew,7.0.7
; #@! TF.FileFunction,MixedPlating,1,2
FMAT,2
METRIC
; #@! TA.AperFunction,Plated,PTH,ComponentDrill
T1C0.800
; #@! TA.AperFunction,Plated,PTH,ComponentDrill
T2C1.000
; #@! TA.AperFunction,NonPlated,NPTH,ComponentDrill
T3C2.500
%
G90
G05
T1
X114.326Y-84.963
X114.326Y-95.123
X118.136Y-87.503
X118.136Y-97.663
X118.136Y-100.457
X118.136Y-110.617
X121.438Y-97.917
X121.438Y-108.077
X146.076Y-94.107
X146.076Y-104.267
X150.394Y-91.059
X150.394Y-101.219
X154.106Y-85.035
X154.106Y-95.195
T2
X120.015Y-67.31
X122.555Y-67.31
X125.095Y-67.31
X125.658Y-75.891
X125.658Y-78.431
X125.658Y-80.971
X125.658Y-83.511
X125.658Y-86.051
X125.658Y-88.591
X125.658Y-91.131
X125.658Y-93.671
X125.658Y-96.211
X125.658Y-98.751
X125.658Y-101.291
X125.658Y-103.831
X125.658Y-106.371
X125.658Y-108.911
X125.658Y-111.451
X127.635Y-67.31
X130.175Y-67.31
X132.715Y-67.31
X135.255Y-67.31
X140.898Y-75.891
X140.898Y-78.431
X140.898Y-80.971
X140.898Y-83.511
X140.898Y-86.051
X140.898Y-88.591
X140.898Y-91.131
X140.898Y-93.671
X140.898Y-96.211
X140.898Y-98.751
X140.898Y-101.291
X140.898Y-103.831
X140.898Y-106.371
X140.898Y-108.911
X140.898Y-111.451
X154.25Y-98.75
X154.25Y-103.725
X154.25Y-108.475
X156.79Y-98.75
X156.79Y-103.725
X156.79Y-108.475
T3
X110.75Y-65.5
X110.75Y-115.0
X157.5Y-65.0
X157.5Y-115.0
T0
M30
