G04 #@! TF.GenerationSoftware,KiCad,Pcbnew,7.0.7*
G04 #@! TF.CreationDate,2024-03-11T23:12:30+01:00*
G04 #@! TF.ProjectId,RocketTX,526f636b-6574-4545-982e-6b696361645f,rev?*
G04 #@! TF.SameCoordinates,Original*
G04 #@! TF.FileFunction,Soldermask,Bot*
G04 #@! TF.FilePolarity,Negative*
%FSLAX46Y46*%
G04 Gerber Fmt 4.6, Leading zero omitted, Abs format (unit mm)*
G04 Created by KiCad (PCBNEW 7.0.7) date 2024-03-11 23:12:30*
%MOMM*%
%LPD*%
G01*
G04 APERTURE LIST*
%ADD10C,1.600000*%
%ADD11O,1.600000X1.600000*%
%ADD12C,2.500000*%
%ADD13R,1.700000X1.700000*%
%ADD14O,1.700000X1.700000*%
%ADD15R,1.600000X1.600000*%
G04 APERTURE END LIST*
D10*
X121438000Y-97917000D03*
D11*
X121438000Y-108077000D03*
D10*
X150394000Y-101219000D03*
D11*
X150394000Y-91059000D03*
D10*
X114326000Y-84963000D03*
D11*
X114326000Y-95123000D03*
D12*
X157500000Y-115000000D03*
X110750000Y-115000000D03*
D11*
X118136000Y-97663000D03*
D10*
X118136000Y-87503000D03*
D13*
X120015000Y-67310000D03*
D14*
X122555000Y-67310000D03*
X125095000Y-67310000D03*
X127635000Y-67310000D03*
X130175000Y-67310000D03*
X132715000Y-67310000D03*
X135255000Y-67310000D03*
D13*
X154250000Y-108475000D03*
D14*
X156790000Y-108475000D03*
D13*
X154250000Y-103725000D03*
D14*
X156790000Y-103725000D03*
D12*
X110750000Y-65500000D03*
D10*
X146076000Y-104267000D03*
D11*
X146076000Y-94107000D03*
D15*
X125658000Y-75891000D03*
D11*
X125658000Y-78431000D03*
X125658000Y-80971000D03*
X125658000Y-83511000D03*
X125658000Y-86051000D03*
X125658000Y-88591000D03*
X125658000Y-91131000D03*
X125658000Y-93671000D03*
X125658000Y-96211000D03*
X125658000Y-98751000D03*
X125658000Y-101291000D03*
X125658000Y-103831000D03*
X125658000Y-106371000D03*
X125658000Y-108911000D03*
X125658000Y-111451000D03*
X140898000Y-111451000D03*
X140898000Y-108911000D03*
X140898000Y-106371000D03*
X140898000Y-103831000D03*
X140898000Y-101291000D03*
X140898000Y-98751000D03*
X140898000Y-96211000D03*
X140898000Y-93671000D03*
X140898000Y-91131000D03*
X140898000Y-88591000D03*
X140898000Y-86051000D03*
X140898000Y-83511000D03*
X140898000Y-80971000D03*
X140898000Y-78431000D03*
X140898000Y-75891000D03*
D10*
X154106000Y-95195000D03*
D11*
X154106000Y-85035000D03*
D13*
X154250000Y-98750000D03*
D14*
X156790000Y-98750000D03*
D12*
X157500000Y-65000000D03*
D10*
X118136000Y-110617000D03*
D11*
X118136000Y-100457000D03*
M02*
