G04 #@! TF.GenerationSoftware,KiCad,Pcbnew,7.0.10*
G04 #@! TF.CreationDate,2024-04-13T19:06:11+02:00*
G04 #@! TF.ProjectId,RocketBoard,526f636b-6574-4426-9f61-72642e6b6963,rev?*
G04 #@! TF.SameCoordinates,Original*
G04 #@! TF.FileFunction,Legend,Top*
G04 #@! TF.FilePolarity,Positive*
%FSLAX46Y46*%
G04 Gerber Fmt 4.6, Leading zero omitted, Abs format (unit mm)*
G04 Created by KiCad (PCBNEW 7.0.10) date 2024-04-13 19:06:11*
%MOMM*%
%LPD*%
G01*
G04 APERTURE LIST*
G04 Aperture macros list*
%AMRoundRect*
0 Rectangle with rounded corners*
0 $1 Rounding radius*
0 $2 $3 $4 $5 $6 $7 $8 $9 X,Y pos of 4 corners*
0 Add a 4 corners polygon primitive as box body*
4,1,4,$2,$3,$4,$5,$6,$7,$8,$9,$2,$3,0*
0 Add four circle primitives for the rounded corners*
1,1,$1+$1,$2,$3*
1,1,$1+$1,$4,$5*
1,1,$1+$1,$6,$7*
1,1,$1+$1,$8,$9*
0 Add four rect primitives between the rounded corners*
20,1,$1+$1,$2,$3,$4,$5,0*
20,1,$1+$1,$4,$5,$6,$7,0*
20,1,$1+$1,$6,$7,$8,$9,0*
20,1,$1+$1,$8,$9,$2,$3,0*%
G04 Aperture macros list end*
%ADD10C,0.250000*%
%ADD11C,0.150000*%
%ADD12C,0.125000*%
%ADD13C,0.120000*%
%ADD14C,0.127000*%
%ADD15C,0.300000*%
%ADD16C,0.200000*%
%ADD17O,1.700000X1.700000*%
%ADD18R,1.700000X1.700000*%
%ADD19C,3.000000*%
%ADD20R,3.000000X3.000000*%
%ADD21R,2.000000X2.000000*%
%ADD22C,2.000000*%
%ADD23R,1.300000X1.300000*%
%ADD24C,1.300000*%
%ADD25RoundRect,0.250000X-0.725000X0.600000X-0.725000X-0.600000X0.725000X-0.600000X0.725000X0.600000X0*%
%ADD26O,1.950000X1.700000*%
%ADD27R,3.500000X1.700000*%
%ADD28O,1.800000X1.800000*%
%ADD29O,1.500000X1.500000*%
%ADD30C,2.200000*%
%ADD31RoundRect,0.102000X0.762000X0.762000X-0.762000X0.762000X-0.762000X-0.762000X0.762000X-0.762000X0*%
%ADD32O,3.252000X1.728000*%
%ADD33C,1.800000*%
%ADD34R,1.800000X1.800000*%
%ADD35C,1.600000*%
%ADD36O,1.600000X1.600000*%
%ADD37RoundRect,0.102000X-0.990000X-0.990000X0.990000X-0.990000X0.990000X0.990000X-0.990000X0.990000X0*%
%ADD38C,2.184000*%
%ADD39C,2.139000*%
%ADD40C,1.676400*%
%ADD41R,1.120000X2.440000*%
%ADD42O,1.905000X2.000000*%
%ADD43R,1.905000X2.000000*%
%ADD44O,3.500000X3.500000*%
G04 APERTURE END LIST*
D10*
X133034044Y-48673619D02*
X133224520Y-48673619D01*
X133224520Y-48673619D02*
X133319758Y-48721238D01*
X133319758Y-48721238D02*
X133414996Y-48816476D01*
X133414996Y-48816476D02*
X133462615Y-49006952D01*
X133462615Y-49006952D02*
X133462615Y-49340285D01*
X133462615Y-49340285D02*
X133414996Y-49530761D01*
X133414996Y-49530761D02*
X133319758Y-49626000D01*
X133319758Y-49626000D02*
X133224520Y-49673619D01*
X133224520Y-49673619D02*
X133034044Y-49673619D01*
X133034044Y-49673619D02*
X132938806Y-49626000D01*
X132938806Y-49626000D02*
X132843568Y-49530761D01*
X132843568Y-49530761D02*
X132795949Y-49340285D01*
X132795949Y-49340285D02*
X132795949Y-49006952D01*
X132795949Y-49006952D02*
X132843568Y-48816476D01*
X132843568Y-48816476D02*
X132938806Y-48721238D01*
X132938806Y-48721238D02*
X133034044Y-48673619D01*
X134224520Y-49149809D02*
X133891187Y-49149809D01*
X133891187Y-49673619D02*
X133891187Y-48673619D01*
X133891187Y-48673619D02*
X134367377Y-48673619D01*
X135081663Y-49149809D02*
X134748330Y-49149809D01*
X134748330Y-49673619D02*
X134748330Y-48673619D01*
X134748330Y-48673619D02*
X135224520Y-48673619D01*
X136319758Y-48626000D02*
X135462616Y-49911714D01*
X136843568Y-48673619D02*
X137034044Y-48673619D01*
X137034044Y-48673619D02*
X137129282Y-48721238D01*
X137129282Y-48721238D02*
X137224520Y-48816476D01*
X137224520Y-48816476D02*
X137272139Y-49006952D01*
X137272139Y-49006952D02*
X137272139Y-49340285D01*
X137272139Y-49340285D02*
X137224520Y-49530761D01*
X137224520Y-49530761D02*
X137129282Y-49626000D01*
X137129282Y-49626000D02*
X137034044Y-49673619D01*
X137034044Y-49673619D02*
X136843568Y-49673619D01*
X136843568Y-49673619D02*
X136748330Y-49626000D01*
X136748330Y-49626000D02*
X136653092Y-49530761D01*
X136653092Y-49530761D02*
X136605473Y-49340285D01*
X136605473Y-49340285D02*
X136605473Y-49006952D01*
X136605473Y-49006952D02*
X136653092Y-48816476D01*
X136653092Y-48816476D02*
X136748330Y-48721238D01*
X136748330Y-48721238D02*
X136843568Y-48673619D01*
X137700711Y-49673619D02*
X137700711Y-48673619D01*
X137700711Y-48673619D02*
X138272139Y-49673619D01*
X138272139Y-49673619D02*
X138272139Y-48673619D01*
D11*
X136900000Y-123950000D02*
X139500000Y-123950000D01*
X140500000Y-123950000D02*
G75*
G03*
X138500000Y-123950000I-1000000J0D01*
G01*
X138500000Y-123950000D02*
G75*
G03*
X140500000Y-123950000I1000000J0D01*
G01*
X139500000Y-123950000D02*
X139500000Y-121150000D01*
X131258000Y-136763000D02*
X132758000Y-136763000D01*
X134658000Y-136163000D02*
X133058000Y-137363000D01*
X129785000Y-103900000D02*
X145385000Y-103900000D01*
X145385000Y-129700000D01*
X129785000Y-129700000D01*
X129785000Y-103900000D01*
X133258000Y-135963000D02*
X134458000Y-137563000D01*
X133858000Y-135763000D02*
X133858000Y-133963000D01*
X134858000Y-136763000D02*
G75*
G03*
X132858000Y-136763000I-1000000J0D01*
G01*
X132858000Y-136763000D02*
G75*
G03*
X134858000Y-136763000I1000000J0D01*
G01*
X130585255Y-136756628D02*
X130585255Y-137232819D01*
X130251922Y-136232819D02*
X130585255Y-136756628D01*
X130585255Y-136756628D02*
X130918588Y-136232819D01*
X139141541Y-119419819D02*
X139808207Y-120419819D01*
X139808207Y-119419819D02*
X139141541Y-120419819D01*
X101261152Y-86494809D02*
X101927819Y-86494809D01*
X100880200Y-86732904D02*
X101594485Y-86970999D01*
X101594485Y-86970999D02*
X101594485Y-86351952D01*
X101832580Y-85970999D02*
X101880200Y-85923380D01*
X101880200Y-85923380D02*
X101927819Y-85970999D01*
X101927819Y-85970999D02*
X101880200Y-86018618D01*
X101880200Y-86018618D02*
X101832580Y-85970999D01*
X101832580Y-85970999D02*
X101927819Y-85970999D01*
X100927819Y-85590047D02*
X100927819Y-84923381D01*
X100927819Y-84923381D02*
X101927819Y-85351952D01*
X101927819Y-84542428D02*
X100927819Y-84542428D01*
X101927819Y-83971000D02*
X101356390Y-84399571D01*
X100927819Y-83971000D02*
X101499247Y-84542428D01*
X136427255Y-123743628D02*
X136427255Y-124219819D01*
X136093922Y-123219819D02*
X136427255Y-123743628D01*
X136427255Y-123743628D02*
X136760588Y-123219819D01*
X135299541Y-137632819D02*
X135966207Y-138632819D01*
X135966207Y-137632819D02*
X135299541Y-138632819D01*
X145545180Y-73425207D02*
X146021371Y-73091874D01*
X145545180Y-72853779D02*
X146545180Y-72853779D01*
X146545180Y-72853779D02*
X146545180Y-73234731D01*
X146545180Y-73234731D02*
X146497561Y-73329969D01*
X146497561Y-73329969D02*
X146449942Y-73377588D01*
X146449942Y-73377588D02*
X146354704Y-73425207D01*
X146354704Y-73425207D02*
X146211847Y-73425207D01*
X146211847Y-73425207D02*
X146116609Y-73377588D01*
X146116609Y-73377588D02*
X146068990Y-73329969D01*
X146068990Y-73329969D02*
X146021371Y-73234731D01*
X146021371Y-73234731D02*
X146021371Y-72853779D01*
X145545180Y-73996636D02*
X145592800Y-73901398D01*
X145592800Y-73901398D02*
X145640419Y-73853779D01*
X145640419Y-73853779D02*
X145735657Y-73806160D01*
X145735657Y-73806160D02*
X146021371Y-73806160D01*
X146021371Y-73806160D02*
X146116609Y-73853779D01*
X146116609Y-73853779D02*
X146164228Y-73901398D01*
X146164228Y-73901398D02*
X146211847Y-73996636D01*
X146211847Y-73996636D02*
X146211847Y-74139493D01*
X146211847Y-74139493D02*
X146164228Y-74234731D01*
X146164228Y-74234731D02*
X146116609Y-74282350D01*
X146116609Y-74282350D02*
X146021371Y-74329969D01*
X146021371Y-74329969D02*
X145735657Y-74329969D01*
X145735657Y-74329969D02*
X145640419Y-74282350D01*
X145640419Y-74282350D02*
X145592800Y-74234731D01*
X145592800Y-74234731D02*
X145545180Y-74139493D01*
X145545180Y-74139493D02*
X145545180Y-73996636D01*
X145592800Y-75187112D02*
X145545180Y-75091874D01*
X145545180Y-75091874D02*
X145545180Y-74901398D01*
X145545180Y-74901398D02*
X145592800Y-74806160D01*
X145592800Y-74806160D02*
X145640419Y-74758541D01*
X145640419Y-74758541D02*
X145735657Y-74710922D01*
X145735657Y-74710922D02*
X146021371Y-74710922D01*
X146021371Y-74710922D02*
X146116609Y-74758541D01*
X146116609Y-74758541D02*
X146164228Y-74806160D01*
X146164228Y-74806160D02*
X146211847Y-74901398D01*
X146211847Y-74901398D02*
X146211847Y-75091874D01*
X146211847Y-75091874D02*
X146164228Y-75187112D01*
X145545180Y-75615684D02*
X146545180Y-75615684D01*
X145926133Y-75710922D02*
X145545180Y-75996636D01*
X146211847Y-75996636D02*
X145830895Y-75615684D01*
X145592800Y-76806160D02*
X145545180Y-76710922D01*
X145545180Y-76710922D02*
X145545180Y-76520446D01*
X145545180Y-76520446D02*
X145592800Y-76425208D01*
X145592800Y-76425208D02*
X145688038Y-76377589D01*
X145688038Y-76377589D02*
X146068990Y-76377589D01*
X146068990Y-76377589D02*
X146164228Y-76425208D01*
X146164228Y-76425208D02*
X146211847Y-76520446D01*
X146211847Y-76520446D02*
X146211847Y-76710922D01*
X146211847Y-76710922D02*
X146164228Y-76806160D01*
X146164228Y-76806160D02*
X146068990Y-76853779D01*
X146068990Y-76853779D02*
X145973752Y-76853779D01*
X145973752Y-76853779D02*
X145878514Y-76377589D01*
X146211847Y-77139494D02*
X146211847Y-77520446D01*
X146545180Y-77282351D02*
X145688038Y-77282351D01*
X145688038Y-77282351D02*
X145592800Y-77329970D01*
X145592800Y-77329970D02*
X145545180Y-77425208D01*
X145545180Y-77425208D02*
X145545180Y-77520446D01*
X145926133Y-77853780D02*
X145926133Y-78615685D01*
X145640419Y-79663303D02*
X145592800Y-79615684D01*
X145592800Y-79615684D02*
X145545180Y-79472827D01*
X145545180Y-79472827D02*
X145545180Y-79377589D01*
X145545180Y-79377589D02*
X145592800Y-79234732D01*
X145592800Y-79234732D02*
X145688038Y-79139494D01*
X145688038Y-79139494D02*
X145783276Y-79091875D01*
X145783276Y-79091875D02*
X145973752Y-79044256D01*
X145973752Y-79044256D02*
X146116609Y-79044256D01*
X146116609Y-79044256D02*
X146307085Y-79091875D01*
X146307085Y-79091875D02*
X146402323Y-79139494D01*
X146402323Y-79139494D02*
X146497561Y-79234732D01*
X146497561Y-79234732D02*
X146545180Y-79377589D01*
X146545180Y-79377589D02*
X146545180Y-79472827D01*
X146545180Y-79472827D02*
X146497561Y-79615684D01*
X146497561Y-79615684D02*
X146449942Y-79663303D01*
X145545180Y-80234732D02*
X145592800Y-80139494D01*
X145592800Y-80139494D02*
X145640419Y-80091875D01*
X145640419Y-80091875D02*
X145735657Y-80044256D01*
X145735657Y-80044256D02*
X146021371Y-80044256D01*
X146021371Y-80044256D02*
X146116609Y-80091875D01*
X146116609Y-80091875D02*
X146164228Y-80139494D01*
X146164228Y-80139494D02*
X146211847Y-80234732D01*
X146211847Y-80234732D02*
X146211847Y-80377589D01*
X146211847Y-80377589D02*
X146164228Y-80472827D01*
X146164228Y-80472827D02*
X146116609Y-80520446D01*
X146116609Y-80520446D02*
X146021371Y-80568065D01*
X146021371Y-80568065D02*
X145735657Y-80568065D01*
X145735657Y-80568065D02*
X145640419Y-80520446D01*
X145640419Y-80520446D02*
X145592800Y-80472827D01*
X145592800Y-80472827D02*
X145545180Y-80377589D01*
X145545180Y-80377589D02*
X145545180Y-80234732D01*
X146211847Y-80996637D02*
X145545180Y-80996637D01*
X146116609Y-80996637D02*
X146164228Y-81044256D01*
X146164228Y-81044256D02*
X146211847Y-81139494D01*
X146211847Y-81139494D02*
X146211847Y-81282351D01*
X146211847Y-81282351D02*
X146164228Y-81377589D01*
X146164228Y-81377589D02*
X146068990Y-81425208D01*
X146068990Y-81425208D02*
X145545180Y-81425208D01*
X146211847Y-81758542D02*
X146211847Y-82139494D01*
X146545180Y-81901399D02*
X145688038Y-81901399D01*
X145688038Y-81901399D02*
X145592800Y-81949018D01*
X145592800Y-81949018D02*
X145545180Y-82044256D01*
X145545180Y-82044256D02*
X145545180Y-82139494D01*
X145545180Y-82472828D02*
X146211847Y-82472828D01*
X146021371Y-82472828D02*
X146116609Y-82520447D01*
X146116609Y-82520447D02*
X146164228Y-82568066D01*
X146164228Y-82568066D02*
X146211847Y-82663304D01*
X146211847Y-82663304D02*
X146211847Y-82758542D01*
X145545180Y-83234733D02*
X145592800Y-83139495D01*
X145592800Y-83139495D02*
X145640419Y-83091876D01*
X145640419Y-83091876D02*
X145735657Y-83044257D01*
X145735657Y-83044257D02*
X146021371Y-83044257D01*
X146021371Y-83044257D02*
X146116609Y-83091876D01*
X146116609Y-83091876D02*
X146164228Y-83139495D01*
X146164228Y-83139495D02*
X146211847Y-83234733D01*
X146211847Y-83234733D02*
X146211847Y-83377590D01*
X146211847Y-83377590D02*
X146164228Y-83472828D01*
X146164228Y-83472828D02*
X146116609Y-83520447D01*
X146116609Y-83520447D02*
X146021371Y-83568066D01*
X146021371Y-83568066D02*
X145735657Y-83568066D01*
X145735657Y-83568066D02*
X145640419Y-83520447D01*
X145640419Y-83520447D02*
X145592800Y-83472828D01*
X145592800Y-83472828D02*
X145545180Y-83377590D01*
X145545180Y-83377590D02*
X145545180Y-83234733D01*
X145545180Y-84139495D02*
X145592800Y-84044257D01*
X145592800Y-84044257D02*
X145688038Y-83996638D01*
X145688038Y-83996638D02*
X146545180Y-83996638D01*
X146068990Y-85615686D02*
X146021371Y-85758543D01*
X146021371Y-85758543D02*
X145973752Y-85806162D01*
X145973752Y-85806162D02*
X145878514Y-85853781D01*
X145878514Y-85853781D02*
X145735657Y-85853781D01*
X145735657Y-85853781D02*
X145640419Y-85806162D01*
X145640419Y-85806162D02*
X145592800Y-85758543D01*
X145592800Y-85758543D02*
X145545180Y-85663305D01*
X145545180Y-85663305D02*
X145545180Y-85282353D01*
X145545180Y-85282353D02*
X146545180Y-85282353D01*
X146545180Y-85282353D02*
X146545180Y-85615686D01*
X146545180Y-85615686D02*
X146497561Y-85710924D01*
X146497561Y-85710924D02*
X146449942Y-85758543D01*
X146449942Y-85758543D02*
X146354704Y-85806162D01*
X146354704Y-85806162D02*
X146259466Y-85806162D01*
X146259466Y-85806162D02*
X146164228Y-85758543D01*
X146164228Y-85758543D02*
X146116609Y-85710924D01*
X146116609Y-85710924D02*
X146068990Y-85615686D01*
X146068990Y-85615686D02*
X146068990Y-85282353D01*
X145545180Y-86425210D02*
X145592800Y-86329972D01*
X145592800Y-86329972D02*
X145640419Y-86282353D01*
X145640419Y-86282353D02*
X145735657Y-86234734D01*
X145735657Y-86234734D02*
X146021371Y-86234734D01*
X146021371Y-86234734D02*
X146116609Y-86282353D01*
X146116609Y-86282353D02*
X146164228Y-86329972D01*
X146164228Y-86329972D02*
X146211847Y-86425210D01*
X146211847Y-86425210D02*
X146211847Y-86568067D01*
X146211847Y-86568067D02*
X146164228Y-86663305D01*
X146164228Y-86663305D02*
X146116609Y-86710924D01*
X146116609Y-86710924D02*
X146021371Y-86758543D01*
X146021371Y-86758543D02*
X145735657Y-86758543D01*
X145735657Y-86758543D02*
X145640419Y-86710924D01*
X145640419Y-86710924D02*
X145592800Y-86663305D01*
X145592800Y-86663305D02*
X145545180Y-86568067D01*
X145545180Y-86568067D02*
X145545180Y-86425210D01*
X145545180Y-87615686D02*
X146068990Y-87615686D01*
X146068990Y-87615686D02*
X146164228Y-87568067D01*
X146164228Y-87568067D02*
X146211847Y-87472829D01*
X146211847Y-87472829D02*
X146211847Y-87282353D01*
X146211847Y-87282353D02*
X146164228Y-87187115D01*
X145592800Y-87615686D02*
X145545180Y-87520448D01*
X145545180Y-87520448D02*
X145545180Y-87282353D01*
X145545180Y-87282353D02*
X145592800Y-87187115D01*
X145592800Y-87187115D02*
X145688038Y-87139496D01*
X145688038Y-87139496D02*
X145783276Y-87139496D01*
X145783276Y-87139496D02*
X145878514Y-87187115D01*
X145878514Y-87187115D02*
X145926133Y-87282353D01*
X145926133Y-87282353D02*
X145926133Y-87520448D01*
X145926133Y-87520448D02*
X145973752Y-87615686D01*
X145545180Y-88091877D02*
X146211847Y-88091877D01*
X146021371Y-88091877D02*
X146116609Y-88139496D01*
X146116609Y-88139496D02*
X146164228Y-88187115D01*
X146164228Y-88187115D02*
X146211847Y-88282353D01*
X146211847Y-88282353D02*
X146211847Y-88377591D01*
X145545180Y-89139496D02*
X146545180Y-89139496D01*
X145592800Y-89139496D02*
X145545180Y-89044258D01*
X145545180Y-89044258D02*
X145545180Y-88853782D01*
X145545180Y-88853782D02*
X145592800Y-88758544D01*
X145592800Y-88758544D02*
X145640419Y-88710925D01*
X145640419Y-88710925D02*
X145735657Y-88663306D01*
X145735657Y-88663306D02*
X146021371Y-88663306D01*
X146021371Y-88663306D02*
X146116609Y-88710925D01*
X146116609Y-88710925D02*
X146164228Y-88758544D01*
X146164228Y-88758544D02*
X146211847Y-88853782D01*
X146211847Y-88853782D02*
X146211847Y-89044258D01*
X146211847Y-89044258D02*
X146164228Y-89139496D01*
X143640180Y-72980779D02*
X144640180Y-72980779D01*
X144640180Y-72980779D02*
X144640180Y-73218874D01*
X144640180Y-73218874D02*
X144592561Y-73361731D01*
X144592561Y-73361731D02*
X144497323Y-73456969D01*
X144497323Y-73456969D02*
X144402085Y-73504588D01*
X144402085Y-73504588D02*
X144211609Y-73552207D01*
X144211609Y-73552207D02*
X144068752Y-73552207D01*
X144068752Y-73552207D02*
X143878276Y-73504588D01*
X143878276Y-73504588D02*
X143783038Y-73456969D01*
X143783038Y-73456969D02*
X143687800Y-73361731D01*
X143687800Y-73361731D02*
X143640180Y-73218874D01*
X143640180Y-73218874D02*
X143640180Y-72980779D01*
X143687800Y-74361731D02*
X143640180Y-74266493D01*
X143640180Y-74266493D02*
X143640180Y-74076017D01*
X143640180Y-74076017D02*
X143687800Y-73980779D01*
X143687800Y-73980779D02*
X143783038Y-73933160D01*
X143783038Y-73933160D02*
X144163990Y-73933160D01*
X144163990Y-73933160D02*
X144259228Y-73980779D01*
X144259228Y-73980779D02*
X144306847Y-74076017D01*
X144306847Y-74076017D02*
X144306847Y-74266493D01*
X144306847Y-74266493D02*
X144259228Y-74361731D01*
X144259228Y-74361731D02*
X144163990Y-74409350D01*
X144163990Y-74409350D02*
X144068752Y-74409350D01*
X144068752Y-74409350D02*
X143973514Y-73933160D01*
X143687800Y-74790303D02*
X143640180Y-74885541D01*
X143640180Y-74885541D02*
X143640180Y-75076017D01*
X143640180Y-75076017D02*
X143687800Y-75171255D01*
X143687800Y-75171255D02*
X143783038Y-75218874D01*
X143783038Y-75218874D02*
X143830657Y-75218874D01*
X143830657Y-75218874D02*
X143925895Y-75171255D01*
X143925895Y-75171255D02*
X143973514Y-75076017D01*
X143973514Y-75076017D02*
X143973514Y-74933160D01*
X143973514Y-74933160D02*
X144021133Y-74837922D01*
X144021133Y-74837922D02*
X144116371Y-74790303D01*
X144116371Y-74790303D02*
X144163990Y-74790303D01*
X144163990Y-74790303D02*
X144259228Y-74837922D01*
X144259228Y-74837922D02*
X144306847Y-74933160D01*
X144306847Y-74933160D02*
X144306847Y-75076017D01*
X144306847Y-75076017D02*
X144259228Y-75171255D01*
X143640180Y-75647446D02*
X144306847Y-75647446D01*
X144640180Y-75647446D02*
X144592561Y-75599827D01*
X144592561Y-75599827D02*
X144544942Y-75647446D01*
X144544942Y-75647446D02*
X144592561Y-75695065D01*
X144592561Y-75695065D02*
X144640180Y-75647446D01*
X144640180Y-75647446D02*
X144544942Y-75647446D01*
X144306847Y-76552207D02*
X143497323Y-76552207D01*
X143497323Y-76552207D02*
X143402085Y-76504588D01*
X143402085Y-76504588D02*
X143354466Y-76456969D01*
X143354466Y-76456969D02*
X143306847Y-76361731D01*
X143306847Y-76361731D02*
X143306847Y-76218874D01*
X143306847Y-76218874D02*
X143354466Y-76123636D01*
X143687800Y-76552207D02*
X143640180Y-76456969D01*
X143640180Y-76456969D02*
X143640180Y-76266493D01*
X143640180Y-76266493D02*
X143687800Y-76171255D01*
X143687800Y-76171255D02*
X143735419Y-76123636D01*
X143735419Y-76123636D02*
X143830657Y-76076017D01*
X143830657Y-76076017D02*
X144116371Y-76076017D01*
X144116371Y-76076017D02*
X144211609Y-76123636D01*
X144211609Y-76123636D02*
X144259228Y-76171255D01*
X144259228Y-76171255D02*
X144306847Y-76266493D01*
X144306847Y-76266493D02*
X144306847Y-76456969D01*
X144306847Y-76456969D02*
X144259228Y-76552207D01*
X144306847Y-77028398D02*
X143640180Y-77028398D01*
X144211609Y-77028398D02*
X144259228Y-77076017D01*
X144259228Y-77076017D02*
X144306847Y-77171255D01*
X144306847Y-77171255D02*
X144306847Y-77314112D01*
X144306847Y-77314112D02*
X144259228Y-77409350D01*
X144259228Y-77409350D02*
X144163990Y-77456969D01*
X144163990Y-77456969D02*
X143640180Y-77456969D01*
X143687800Y-78314112D02*
X143640180Y-78218874D01*
X143640180Y-78218874D02*
X143640180Y-78028398D01*
X143640180Y-78028398D02*
X143687800Y-77933160D01*
X143687800Y-77933160D02*
X143783038Y-77885541D01*
X143783038Y-77885541D02*
X144163990Y-77885541D01*
X144163990Y-77885541D02*
X144259228Y-77933160D01*
X144259228Y-77933160D02*
X144306847Y-78028398D01*
X144306847Y-78028398D02*
X144306847Y-78218874D01*
X144306847Y-78218874D02*
X144259228Y-78314112D01*
X144259228Y-78314112D02*
X144163990Y-78361731D01*
X144163990Y-78361731D02*
X144068752Y-78361731D01*
X144068752Y-78361731D02*
X143973514Y-77885541D01*
X143640180Y-79218874D02*
X144640180Y-79218874D01*
X143687800Y-79218874D02*
X143640180Y-79123636D01*
X143640180Y-79123636D02*
X143640180Y-78933160D01*
X143640180Y-78933160D02*
X143687800Y-78837922D01*
X143687800Y-78837922D02*
X143735419Y-78790303D01*
X143735419Y-78790303D02*
X143830657Y-78742684D01*
X143830657Y-78742684D02*
X144116371Y-78742684D01*
X144116371Y-78742684D02*
X144211609Y-78790303D01*
X144211609Y-78790303D02*
X144259228Y-78837922D01*
X144259228Y-78837922D02*
X144306847Y-78933160D01*
X144306847Y-78933160D02*
X144306847Y-79123636D01*
X144306847Y-79123636D02*
X144259228Y-79218874D01*
X143640180Y-80456970D02*
X144640180Y-80456970D01*
X144259228Y-80456970D02*
X144306847Y-80552208D01*
X144306847Y-80552208D02*
X144306847Y-80742684D01*
X144306847Y-80742684D02*
X144259228Y-80837922D01*
X144259228Y-80837922D02*
X144211609Y-80885541D01*
X144211609Y-80885541D02*
X144116371Y-80933160D01*
X144116371Y-80933160D02*
X143830657Y-80933160D01*
X143830657Y-80933160D02*
X143735419Y-80885541D01*
X143735419Y-80885541D02*
X143687800Y-80837922D01*
X143687800Y-80837922D02*
X143640180Y-80742684D01*
X143640180Y-80742684D02*
X143640180Y-80552208D01*
X143640180Y-80552208D02*
X143687800Y-80456970D01*
X144306847Y-81266494D02*
X143640180Y-81504589D01*
X144306847Y-81742684D02*
X143640180Y-81504589D01*
X143640180Y-81504589D02*
X143402085Y-81409351D01*
X143402085Y-81409351D02*
X143354466Y-81361732D01*
X143354466Y-81361732D02*
X143306847Y-81266494D01*
X143640180Y-83361732D02*
X143640180Y-82885542D01*
X143640180Y-82885542D02*
X144640180Y-82885542D01*
X144306847Y-84123637D02*
X143640180Y-84123637D01*
X144306847Y-83695066D02*
X143783038Y-83695066D01*
X143783038Y-83695066D02*
X143687800Y-83742685D01*
X143687800Y-83742685D02*
X143640180Y-83837923D01*
X143640180Y-83837923D02*
X143640180Y-83980780D01*
X143640180Y-83980780D02*
X143687800Y-84076018D01*
X143687800Y-84076018D02*
X143735419Y-84123637D01*
X143640180Y-85028399D02*
X144640180Y-85028399D01*
X143687800Y-85028399D02*
X143640180Y-84933161D01*
X143640180Y-84933161D02*
X143640180Y-84742685D01*
X143640180Y-84742685D02*
X143687800Y-84647447D01*
X143687800Y-84647447D02*
X143735419Y-84599828D01*
X143735419Y-84599828D02*
X143830657Y-84552209D01*
X143830657Y-84552209D02*
X144116371Y-84552209D01*
X144116371Y-84552209D02*
X144211609Y-84599828D01*
X144211609Y-84599828D02*
X144259228Y-84647447D01*
X144259228Y-84647447D02*
X144306847Y-84742685D01*
X144306847Y-84742685D02*
X144306847Y-84933161D01*
X144306847Y-84933161D02*
X144259228Y-85028399D01*
X140741541Y-124419819D02*
X141408207Y-124419819D01*
X141408207Y-124419819D02*
X140741541Y-125419819D01*
X140741541Y-125419819D02*
X141408207Y-125419819D01*
X133699541Y-132232819D02*
X134366207Y-132232819D01*
X134366207Y-132232819D02*
X133699541Y-133232819D01*
X133699541Y-133232819D02*
X134366207Y-133232819D01*
X131342047Y-35379819D02*
X131342047Y-34379819D01*
X131342047Y-34379819D02*
X131722999Y-34379819D01*
X131722999Y-34379819D02*
X131818237Y-34427438D01*
X131818237Y-34427438D02*
X131865856Y-34475057D01*
X131865856Y-34475057D02*
X131913475Y-34570295D01*
X131913475Y-34570295D02*
X131913475Y-34713152D01*
X131913475Y-34713152D02*
X131865856Y-34808390D01*
X131865856Y-34808390D02*
X131818237Y-34856009D01*
X131818237Y-34856009D02*
X131722999Y-34903628D01*
X131722999Y-34903628D02*
X131342047Y-34903628D01*
X132246809Y-34713152D02*
X132484904Y-35379819D01*
X132722999Y-34713152D02*
X132484904Y-35379819D01*
X132484904Y-35379819D02*
X132389666Y-35617914D01*
X132389666Y-35617914D02*
X132342047Y-35665533D01*
X132342047Y-35665533D02*
X132246809Y-35713152D01*
X133103952Y-35379819D02*
X133103952Y-34713152D01*
X133103952Y-34903628D02*
X133151571Y-34808390D01*
X133151571Y-34808390D02*
X133199190Y-34760771D01*
X133199190Y-34760771D02*
X133294428Y-34713152D01*
X133294428Y-34713152D02*
X133389666Y-34713152D01*
X133865857Y-35379819D02*
X133770619Y-35332200D01*
X133770619Y-35332200D02*
X133723000Y-35284580D01*
X133723000Y-35284580D02*
X133675381Y-35189342D01*
X133675381Y-35189342D02*
X133675381Y-34903628D01*
X133675381Y-34903628D02*
X133723000Y-34808390D01*
X133723000Y-34808390D02*
X133770619Y-34760771D01*
X133770619Y-34760771D02*
X133865857Y-34713152D01*
X133865857Y-34713152D02*
X134008714Y-34713152D01*
X134008714Y-34713152D02*
X134103952Y-34760771D01*
X134103952Y-34760771D02*
X134151571Y-34808390D01*
X134151571Y-34808390D02*
X134199190Y-34903628D01*
X134199190Y-34903628D02*
X134199190Y-35189342D01*
X134199190Y-35189342D02*
X134151571Y-35284580D01*
X134151571Y-35284580D02*
X134103952Y-35332200D01*
X134103952Y-35332200D02*
X134008714Y-35379819D01*
X134008714Y-35379819D02*
X133865857Y-35379819D01*
X135151571Y-35379819D02*
X134580143Y-35379819D01*
X134865857Y-35379819D02*
X134865857Y-34379819D01*
X134865857Y-34379819D02*
X134770619Y-34522676D01*
X134770619Y-34522676D02*
X134675381Y-34617914D01*
X134675381Y-34617914D02*
X134580143Y-34665533D01*
X136295047Y-35379819D02*
X136295047Y-34379819D01*
X136295047Y-34379819D02*
X136675999Y-34379819D01*
X136675999Y-34379819D02*
X136771237Y-34427438D01*
X136771237Y-34427438D02*
X136818856Y-34475057D01*
X136818856Y-34475057D02*
X136866475Y-34570295D01*
X136866475Y-34570295D02*
X136866475Y-34713152D01*
X136866475Y-34713152D02*
X136818856Y-34808390D01*
X136818856Y-34808390D02*
X136771237Y-34856009D01*
X136771237Y-34856009D02*
X136675999Y-34903628D01*
X136675999Y-34903628D02*
X136295047Y-34903628D01*
X137199809Y-34713152D02*
X137437904Y-35379819D01*
X137675999Y-34713152D02*
X137437904Y-35379819D01*
X137437904Y-35379819D02*
X137342666Y-35617914D01*
X137342666Y-35617914D02*
X137295047Y-35665533D01*
X137295047Y-35665533D02*
X137199809Y-35713152D01*
X138056952Y-35379819D02*
X138056952Y-34713152D01*
X138056952Y-34903628D02*
X138104571Y-34808390D01*
X138104571Y-34808390D02*
X138152190Y-34760771D01*
X138152190Y-34760771D02*
X138247428Y-34713152D01*
X138247428Y-34713152D02*
X138342666Y-34713152D01*
X138818857Y-35379819D02*
X138723619Y-35332200D01*
X138723619Y-35332200D02*
X138676000Y-35284580D01*
X138676000Y-35284580D02*
X138628381Y-35189342D01*
X138628381Y-35189342D02*
X138628381Y-34903628D01*
X138628381Y-34903628D02*
X138676000Y-34808390D01*
X138676000Y-34808390D02*
X138723619Y-34760771D01*
X138723619Y-34760771D02*
X138818857Y-34713152D01*
X138818857Y-34713152D02*
X138961714Y-34713152D01*
X138961714Y-34713152D02*
X139056952Y-34760771D01*
X139056952Y-34760771D02*
X139104571Y-34808390D01*
X139104571Y-34808390D02*
X139152190Y-34903628D01*
X139152190Y-34903628D02*
X139152190Y-35189342D01*
X139152190Y-35189342D02*
X139104571Y-35284580D01*
X139104571Y-35284580D02*
X139056952Y-35332200D01*
X139056952Y-35332200D02*
X138961714Y-35379819D01*
X138961714Y-35379819D02*
X138818857Y-35379819D01*
X139533143Y-34475057D02*
X139580762Y-34427438D01*
X139580762Y-34427438D02*
X139676000Y-34379819D01*
X139676000Y-34379819D02*
X139914095Y-34379819D01*
X139914095Y-34379819D02*
X140009333Y-34427438D01*
X140009333Y-34427438D02*
X140056952Y-34475057D01*
X140056952Y-34475057D02*
X140104571Y-34570295D01*
X140104571Y-34570295D02*
X140104571Y-34665533D01*
X140104571Y-34665533D02*
X140056952Y-34808390D01*
X140056952Y-34808390D02*
X139485524Y-35379819D01*
X139485524Y-35379819D02*
X140104571Y-35379819D01*
X134041428Y-94800009D02*
X134184285Y-94847628D01*
X134184285Y-94847628D02*
X134231904Y-94895247D01*
X134231904Y-94895247D02*
X134279523Y-94990485D01*
X134279523Y-94990485D02*
X134279523Y-95133342D01*
X134279523Y-95133342D02*
X134231904Y-95228580D01*
X134231904Y-95228580D02*
X134184285Y-95276200D01*
X134184285Y-95276200D02*
X134089047Y-95323819D01*
X134089047Y-95323819D02*
X133708095Y-95323819D01*
X133708095Y-95323819D02*
X133708095Y-94323819D01*
X133708095Y-94323819D02*
X134041428Y-94323819D01*
X134041428Y-94323819D02*
X134136666Y-94371438D01*
X134136666Y-94371438D02*
X134184285Y-94419057D01*
X134184285Y-94419057D02*
X134231904Y-94514295D01*
X134231904Y-94514295D02*
X134231904Y-94609533D01*
X134231904Y-94609533D02*
X134184285Y-94704771D01*
X134184285Y-94704771D02*
X134136666Y-94752390D01*
X134136666Y-94752390D02*
X134041428Y-94800009D01*
X134041428Y-94800009D02*
X133708095Y-94800009D01*
X135136666Y-94657152D02*
X135136666Y-95323819D01*
X134708095Y-94657152D02*
X134708095Y-95180961D01*
X134708095Y-95180961D02*
X134755714Y-95276200D01*
X134755714Y-95276200D02*
X134850952Y-95323819D01*
X134850952Y-95323819D02*
X134993809Y-95323819D01*
X134993809Y-95323819D02*
X135089047Y-95276200D01*
X135089047Y-95276200D02*
X135136666Y-95228580D01*
X135517619Y-94657152D02*
X136041428Y-94657152D01*
X136041428Y-94657152D02*
X135517619Y-95323819D01*
X135517619Y-95323819D02*
X136041428Y-95323819D01*
X136327143Y-94657152D02*
X136850952Y-94657152D01*
X136850952Y-94657152D02*
X136327143Y-95323819D01*
X136327143Y-95323819D02*
X136850952Y-95323819D01*
X137612857Y-95276200D02*
X137517619Y-95323819D01*
X137517619Y-95323819D02*
X137327143Y-95323819D01*
X137327143Y-95323819D02*
X137231905Y-95276200D01*
X137231905Y-95276200D02*
X137184286Y-95180961D01*
X137184286Y-95180961D02*
X137184286Y-94800009D01*
X137184286Y-94800009D02*
X137231905Y-94704771D01*
X137231905Y-94704771D02*
X137327143Y-94657152D01*
X137327143Y-94657152D02*
X137517619Y-94657152D01*
X137517619Y-94657152D02*
X137612857Y-94704771D01*
X137612857Y-94704771D02*
X137660476Y-94800009D01*
X137660476Y-94800009D02*
X137660476Y-94895247D01*
X137660476Y-94895247D02*
X137184286Y-94990485D01*
X138089048Y-95323819D02*
X138089048Y-94657152D01*
X138089048Y-94847628D02*
X138136667Y-94752390D01*
X138136667Y-94752390D02*
X138184286Y-94704771D01*
X138184286Y-94704771D02*
X138279524Y-94657152D01*
X138279524Y-94657152D02*
X138374762Y-94657152D01*
X130741009Y-125816952D02*
X130788628Y-125674095D01*
X130788628Y-125674095D02*
X130836247Y-125626476D01*
X130836247Y-125626476D02*
X130931485Y-125578857D01*
X130931485Y-125578857D02*
X131074342Y-125578857D01*
X131074342Y-125578857D02*
X131169580Y-125626476D01*
X131169580Y-125626476D02*
X131217200Y-125674095D01*
X131217200Y-125674095D02*
X131264819Y-125769333D01*
X131264819Y-125769333D02*
X131264819Y-126150285D01*
X131264819Y-126150285D02*
X130264819Y-126150285D01*
X130264819Y-126150285D02*
X130264819Y-125816952D01*
X130264819Y-125816952D02*
X130312438Y-125721714D01*
X130312438Y-125721714D02*
X130360057Y-125674095D01*
X130360057Y-125674095D02*
X130455295Y-125626476D01*
X130455295Y-125626476D02*
X130550533Y-125626476D01*
X130550533Y-125626476D02*
X130645771Y-125674095D01*
X130645771Y-125674095D02*
X130693390Y-125721714D01*
X130693390Y-125721714D02*
X130741009Y-125816952D01*
X130741009Y-125816952D02*
X130741009Y-126150285D01*
X131264819Y-125150285D02*
X130264819Y-125150285D01*
X130264819Y-125150285D02*
X131264819Y-124578857D01*
X131264819Y-124578857D02*
X130264819Y-124578857D01*
X130264819Y-123912190D02*
X130264819Y-123721714D01*
X130264819Y-123721714D02*
X130312438Y-123626476D01*
X130312438Y-123626476D02*
X130407676Y-123531238D01*
X130407676Y-123531238D02*
X130598152Y-123483619D01*
X130598152Y-123483619D02*
X130931485Y-123483619D01*
X130931485Y-123483619D02*
X131121961Y-123531238D01*
X131121961Y-123531238D02*
X131217200Y-123626476D01*
X131217200Y-123626476D02*
X131264819Y-123721714D01*
X131264819Y-123721714D02*
X131264819Y-123912190D01*
X131264819Y-123912190D02*
X131217200Y-124007428D01*
X131217200Y-124007428D02*
X131121961Y-124102666D01*
X131121961Y-124102666D02*
X130931485Y-124150285D01*
X130931485Y-124150285D02*
X130598152Y-124150285D01*
X130598152Y-124150285D02*
X130407676Y-124102666D01*
X130407676Y-124102666D02*
X130312438Y-124007428D01*
X130312438Y-124007428D02*
X130264819Y-123912190D01*
X130264819Y-122864571D02*
X130264819Y-122769333D01*
X130264819Y-122769333D02*
X130312438Y-122674095D01*
X130312438Y-122674095D02*
X130360057Y-122626476D01*
X130360057Y-122626476D02*
X130455295Y-122578857D01*
X130455295Y-122578857D02*
X130645771Y-122531238D01*
X130645771Y-122531238D02*
X130883866Y-122531238D01*
X130883866Y-122531238D02*
X131074342Y-122578857D01*
X131074342Y-122578857D02*
X131169580Y-122626476D01*
X131169580Y-122626476D02*
X131217200Y-122674095D01*
X131217200Y-122674095D02*
X131264819Y-122769333D01*
X131264819Y-122769333D02*
X131264819Y-122864571D01*
X131264819Y-122864571D02*
X131217200Y-122959809D01*
X131217200Y-122959809D02*
X131169580Y-123007428D01*
X131169580Y-123007428D02*
X131074342Y-123055047D01*
X131074342Y-123055047D02*
X130883866Y-123102666D01*
X130883866Y-123102666D02*
X130645771Y-123102666D01*
X130645771Y-123102666D02*
X130455295Y-123055047D01*
X130455295Y-123055047D02*
X130360057Y-123007428D01*
X130360057Y-123007428D02*
X130312438Y-122959809D01*
X130312438Y-122959809D02*
X130264819Y-122864571D01*
X130693390Y-121959809D02*
X130645771Y-122055047D01*
X130645771Y-122055047D02*
X130598152Y-122102666D01*
X130598152Y-122102666D02*
X130502914Y-122150285D01*
X130502914Y-122150285D02*
X130455295Y-122150285D01*
X130455295Y-122150285D02*
X130360057Y-122102666D01*
X130360057Y-122102666D02*
X130312438Y-122055047D01*
X130312438Y-122055047D02*
X130264819Y-121959809D01*
X130264819Y-121959809D02*
X130264819Y-121769333D01*
X130264819Y-121769333D02*
X130312438Y-121674095D01*
X130312438Y-121674095D02*
X130360057Y-121626476D01*
X130360057Y-121626476D02*
X130455295Y-121578857D01*
X130455295Y-121578857D02*
X130502914Y-121578857D01*
X130502914Y-121578857D02*
X130598152Y-121626476D01*
X130598152Y-121626476D02*
X130645771Y-121674095D01*
X130645771Y-121674095D02*
X130693390Y-121769333D01*
X130693390Y-121769333D02*
X130693390Y-121959809D01*
X130693390Y-121959809D02*
X130741009Y-122055047D01*
X130741009Y-122055047D02*
X130788628Y-122102666D01*
X130788628Y-122102666D02*
X130883866Y-122150285D01*
X130883866Y-122150285D02*
X131074342Y-122150285D01*
X131074342Y-122150285D02*
X131169580Y-122102666D01*
X131169580Y-122102666D02*
X131217200Y-122055047D01*
X131217200Y-122055047D02*
X131264819Y-121959809D01*
X131264819Y-121959809D02*
X131264819Y-121769333D01*
X131264819Y-121769333D02*
X131217200Y-121674095D01*
X131217200Y-121674095D02*
X131169580Y-121626476D01*
X131169580Y-121626476D02*
X131074342Y-121578857D01*
X131074342Y-121578857D02*
X130883866Y-121578857D01*
X130883866Y-121578857D02*
X130788628Y-121626476D01*
X130788628Y-121626476D02*
X130741009Y-121674095D01*
X130741009Y-121674095D02*
X130693390Y-121769333D01*
X130264819Y-121245523D02*
X131264819Y-120578857D01*
X130264819Y-120578857D02*
X131264819Y-121245523D01*
X131264819Y-119674095D02*
X131264819Y-120245523D01*
X131264819Y-119959809D02*
X130264819Y-119959809D01*
X130264819Y-119959809D02*
X130407676Y-120055047D01*
X130407676Y-120055047D02*
X130502914Y-120150285D01*
X130502914Y-120150285D02*
X130550533Y-120245523D01*
X130056143Y-131010819D02*
X130246619Y-131010819D01*
X130246619Y-131010819D02*
X130341857Y-130963200D01*
X130341857Y-130963200D02*
X130389476Y-130915580D01*
X130389476Y-130915580D02*
X130484714Y-130772723D01*
X130484714Y-130772723D02*
X130532333Y-130582247D01*
X130532333Y-130582247D02*
X130532333Y-130201295D01*
X130532333Y-130201295D02*
X130484714Y-130106057D01*
X130484714Y-130106057D02*
X130437095Y-130058438D01*
X130437095Y-130058438D02*
X130341857Y-130010819D01*
X130341857Y-130010819D02*
X130151381Y-130010819D01*
X130151381Y-130010819D02*
X130056143Y-130058438D01*
X130056143Y-130058438D02*
X130008524Y-130106057D01*
X130008524Y-130106057D02*
X129960905Y-130201295D01*
X129960905Y-130201295D02*
X129960905Y-130439390D01*
X129960905Y-130439390D02*
X130008524Y-130534628D01*
X130008524Y-130534628D02*
X130056143Y-130582247D01*
X130056143Y-130582247D02*
X130151381Y-130629866D01*
X130151381Y-130629866D02*
X130341857Y-130629866D01*
X130341857Y-130629866D02*
X130437095Y-130582247D01*
X130437095Y-130582247D02*
X130484714Y-130534628D01*
X130484714Y-130534628D02*
X130532333Y-130439390D01*
X130960905Y-131010819D02*
X130960905Y-130010819D01*
X130960905Y-130010819D02*
X131199000Y-130010819D01*
X131199000Y-130010819D02*
X131341857Y-130058438D01*
X131341857Y-130058438D02*
X131437095Y-130153676D01*
X131437095Y-130153676D02*
X131484714Y-130248914D01*
X131484714Y-130248914D02*
X131532333Y-130439390D01*
X131532333Y-130439390D02*
X131532333Y-130582247D01*
X131532333Y-130582247D02*
X131484714Y-130772723D01*
X131484714Y-130772723D02*
X131437095Y-130867961D01*
X131437095Y-130867961D02*
X131341857Y-130963200D01*
X131341857Y-130963200D02*
X131199000Y-131010819D01*
X131199000Y-131010819D02*
X130960905Y-131010819D01*
X132151381Y-130010819D02*
X132341857Y-130010819D01*
X132341857Y-130010819D02*
X132437095Y-130058438D01*
X132437095Y-130058438D02*
X132532333Y-130153676D01*
X132532333Y-130153676D02*
X132579952Y-130344152D01*
X132579952Y-130344152D02*
X132579952Y-130677485D01*
X132579952Y-130677485D02*
X132532333Y-130867961D01*
X132532333Y-130867961D02*
X132437095Y-130963200D01*
X132437095Y-130963200D02*
X132341857Y-131010819D01*
X132341857Y-131010819D02*
X132151381Y-131010819D01*
X132151381Y-131010819D02*
X132056143Y-130963200D01*
X132056143Y-130963200D02*
X131960905Y-130867961D01*
X131960905Y-130867961D02*
X131913286Y-130677485D01*
X131913286Y-130677485D02*
X131913286Y-130344152D01*
X131913286Y-130344152D02*
X131960905Y-130153676D01*
X131960905Y-130153676D02*
X132056143Y-130058438D01*
X132056143Y-130058438D02*
X132151381Y-130010819D01*
X133341857Y-130487009D02*
X133008524Y-130487009D01*
X133008524Y-131010819D02*
X133008524Y-130010819D01*
X133008524Y-130010819D02*
X133484714Y-130010819D01*
X102568714Y-51497057D02*
X102616333Y-51449438D01*
X102616333Y-51449438D02*
X102711571Y-51401819D01*
X102711571Y-51401819D02*
X102949666Y-51401819D01*
X102949666Y-51401819D02*
X103044904Y-51449438D01*
X103044904Y-51449438D02*
X103092523Y-51497057D01*
X103092523Y-51497057D02*
X103140142Y-51592295D01*
X103140142Y-51592295D02*
X103140142Y-51687533D01*
X103140142Y-51687533D02*
X103092523Y-51830390D01*
X103092523Y-51830390D02*
X102521095Y-52401819D01*
X102521095Y-52401819D02*
X103140142Y-52401819D01*
X103568714Y-52401819D02*
X103568714Y-51401819D01*
X103568714Y-51401819D02*
X104140142Y-52401819D01*
X104140142Y-52401819D02*
X104140142Y-51401819D01*
X104568714Y-51497057D02*
X104616333Y-51449438D01*
X104616333Y-51449438D02*
X104711571Y-51401819D01*
X104711571Y-51401819D02*
X104949666Y-51401819D01*
X104949666Y-51401819D02*
X105044904Y-51449438D01*
X105044904Y-51449438D02*
X105092523Y-51497057D01*
X105092523Y-51497057D02*
X105140142Y-51592295D01*
X105140142Y-51592295D02*
X105140142Y-51687533D01*
X105140142Y-51687533D02*
X105092523Y-51830390D01*
X105092523Y-51830390D02*
X104521095Y-52401819D01*
X104521095Y-52401819D02*
X105140142Y-52401819D01*
X105521095Y-51497057D02*
X105568714Y-51449438D01*
X105568714Y-51449438D02*
X105663952Y-51401819D01*
X105663952Y-51401819D02*
X105902047Y-51401819D01*
X105902047Y-51401819D02*
X105997285Y-51449438D01*
X105997285Y-51449438D02*
X106044904Y-51497057D01*
X106044904Y-51497057D02*
X106092523Y-51592295D01*
X106092523Y-51592295D02*
X106092523Y-51687533D01*
X106092523Y-51687533D02*
X106044904Y-51830390D01*
X106044904Y-51830390D02*
X105473476Y-52401819D01*
X105473476Y-52401819D02*
X106092523Y-52401819D01*
X106473476Y-51497057D02*
X106521095Y-51449438D01*
X106521095Y-51449438D02*
X106616333Y-51401819D01*
X106616333Y-51401819D02*
X106854428Y-51401819D01*
X106854428Y-51401819D02*
X106949666Y-51449438D01*
X106949666Y-51449438D02*
X106997285Y-51497057D01*
X106997285Y-51497057D02*
X107044904Y-51592295D01*
X107044904Y-51592295D02*
X107044904Y-51687533D01*
X107044904Y-51687533D02*
X106997285Y-51830390D01*
X106997285Y-51830390D02*
X106425857Y-52401819D01*
X106425857Y-52401819D02*
X107044904Y-52401819D01*
X107425857Y-51497057D02*
X107473476Y-51449438D01*
X107473476Y-51449438D02*
X107568714Y-51401819D01*
X107568714Y-51401819D02*
X107806809Y-51401819D01*
X107806809Y-51401819D02*
X107902047Y-51449438D01*
X107902047Y-51449438D02*
X107949666Y-51497057D01*
X107949666Y-51497057D02*
X107997285Y-51592295D01*
X107997285Y-51592295D02*
X107997285Y-51687533D01*
X107997285Y-51687533D02*
X107949666Y-51830390D01*
X107949666Y-51830390D02*
X107378238Y-52401819D01*
X107378238Y-52401819D02*
X107997285Y-52401819D01*
X140252380Y-130204819D02*
X140252380Y-130919104D01*
X140252380Y-130919104D02*
X140204761Y-131061961D01*
X140204761Y-131061961D02*
X140109523Y-131157200D01*
X140109523Y-131157200D02*
X139966666Y-131204819D01*
X139966666Y-131204819D02*
X139871428Y-131204819D01*
X140680952Y-131157200D02*
X140823809Y-131204819D01*
X140823809Y-131204819D02*
X141061904Y-131204819D01*
X141061904Y-131204819D02*
X141157142Y-131157200D01*
X141157142Y-131157200D02*
X141204761Y-131109580D01*
X141204761Y-131109580D02*
X141252380Y-131014342D01*
X141252380Y-131014342D02*
X141252380Y-130919104D01*
X141252380Y-130919104D02*
X141204761Y-130823866D01*
X141204761Y-130823866D02*
X141157142Y-130776247D01*
X141157142Y-130776247D02*
X141061904Y-130728628D01*
X141061904Y-130728628D02*
X140871428Y-130681009D01*
X140871428Y-130681009D02*
X140776190Y-130633390D01*
X140776190Y-130633390D02*
X140728571Y-130585771D01*
X140728571Y-130585771D02*
X140680952Y-130490533D01*
X140680952Y-130490533D02*
X140680952Y-130395295D01*
X140680952Y-130395295D02*
X140728571Y-130300057D01*
X140728571Y-130300057D02*
X140776190Y-130252438D01*
X140776190Y-130252438D02*
X140871428Y-130204819D01*
X140871428Y-130204819D02*
X141109523Y-130204819D01*
X141109523Y-130204819D02*
X141252380Y-130252438D01*
X141538095Y-130204819D02*
X142109523Y-130204819D01*
X141823809Y-131204819D02*
X141823809Y-130204819D01*
X142204762Y-131300057D02*
X142966666Y-131300057D01*
X143728571Y-130252438D02*
X143633333Y-130204819D01*
X143633333Y-130204819D02*
X143490476Y-130204819D01*
X143490476Y-130204819D02*
X143347619Y-130252438D01*
X143347619Y-130252438D02*
X143252381Y-130347676D01*
X143252381Y-130347676D02*
X143204762Y-130442914D01*
X143204762Y-130442914D02*
X143157143Y-130633390D01*
X143157143Y-130633390D02*
X143157143Y-130776247D01*
X143157143Y-130776247D02*
X143204762Y-130966723D01*
X143204762Y-130966723D02*
X143252381Y-131061961D01*
X143252381Y-131061961D02*
X143347619Y-131157200D01*
X143347619Y-131157200D02*
X143490476Y-131204819D01*
X143490476Y-131204819D02*
X143585714Y-131204819D01*
X143585714Y-131204819D02*
X143728571Y-131157200D01*
X143728571Y-131157200D02*
X143776190Y-131109580D01*
X143776190Y-131109580D02*
X143776190Y-130776247D01*
X143776190Y-130776247D02*
X143585714Y-130776247D01*
X144204762Y-131204819D02*
X144204762Y-130204819D01*
X144204762Y-130204819D02*
X144585714Y-130204819D01*
X144585714Y-130204819D02*
X144680952Y-130252438D01*
X144680952Y-130252438D02*
X144728571Y-130300057D01*
X144728571Y-130300057D02*
X144776190Y-130395295D01*
X144776190Y-130395295D02*
X144776190Y-130538152D01*
X144776190Y-130538152D02*
X144728571Y-130633390D01*
X144728571Y-130633390D02*
X144680952Y-130681009D01*
X144680952Y-130681009D02*
X144585714Y-130728628D01*
X144585714Y-130728628D02*
X144204762Y-130728628D01*
X145157143Y-131157200D02*
X145300000Y-131204819D01*
X145300000Y-131204819D02*
X145538095Y-131204819D01*
X145538095Y-131204819D02*
X145633333Y-131157200D01*
X145633333Y-131157200D02*
X145680952Y-131109580D01*
X145680952Y-131109580D02*
X145728571Y-131014342D01*
X145728571Y-131014342D02*
X145728571Y-130919104D01*
X145728571Y-130919104D02*
X145680952Y-130823866D01*
X145680952Y-130823866D02*
X145633333Y-130776247D01*
X145633333Y-130776247D02*
X145538095Y-130728628D01*
X145538095Y-130728628D02*
X145347619Y-130681009D01*
X145347619Y-130681009D02*
X145252381Y-130633390D01*
X145252381Y-130633390D02*
X145204762Y-130585771D01*
X145204762Y-130585771D02*
X145157143Y-130490533D01*
X145157143Y-130490533D02*
X145157143Y-130395295D01*
X145157143Y-130395295D02*
X145204762Y-130300057D01*
X145204762Y-130300057D02*
X145252381Y-130252438D01*
X145252381Y-130252438D02*
X145347619Y-130204819D01*
X145347619Y-130204819D02*
X145585714Y-130204819D01*
X145585714Y-130204819D02*
X145728571Y-130252438D01*
X146680952Y-131204819D02*
X146109524Y-131204819D01*
X146395238Y-131204819D02*
X146395238Y-130204819D01*
X146395238Y-130204819D02*
X146300000Y-130347676D01*
X146300000Y-130347676D02*
X146204762Y-130442914D01*
X146204762Y-130442914D02*
X146109524Y-130490533D01*
X111833333Y-116445819D02*
X111500000Y-115969628D01*
X111261905Y-116445819D02*
X111261905Y-115445819D01*
X111261905Y-115445819D02*
X111642857Y-115445819D01*
X111642857Y-115445819D02*
X111738095Y-115493438D01*
X111738095Y-115493438D02*
X111785714Y-115541057D01*
X111785714Y-115541057D02*
X111833333Y-115636295D01*
X111833333Y-115636295D02*
X111833333Y-115779152D01*
X111833333Y-115779152D02*
X111785714Y-115874390D01*
X111785714Y-115874390D02*
X111738095Y-115922009D01*
X111738095Y-115922009D02*
X111642857Y-115969628D01*
X111642857Y-115969628D02*
X111261905Y-115969628D01*
X112261905Y-116445819D02*
X112261905Y-115445819D01*
X112261905Y-115445819D02*
X112642857Y-115445819D01*
X112642857Y-115445819D02*
X112738095Y-115493438D01*
X112738095Y-115493438D02*
X112785714Y-115541057D01*
X112785714Y-115541057D02*
X112833333Y-115636295D01*
X112833333Y-115636295D02*
X112833333Y-115779152D01*
X112833333Y-115779152D02*
X112785714Y-115874390D01*
X112785714Y-115874390D02*
X112738095Y-115922009D01*
X112738095Y-115922009D02*
X112642857Y-115969628D01*
X112642857Y-115969628D02*
X112261905Y-115969628D01*
X113261905Y-116445819D02*
X113261905Y-115445819D01*
X113738095Y-116064866D02*
X114500000Y-116064866D01*
X114976190Y-116445819D02*
X114976190Y-115445819D01*
X114976190Y-115445819D02*
X115357142Y-115445819D01*
X115357142Y-115445819D02*
X115452380Y-115493438D01*
X115452380Y-115493438D02*
X115499999Y-115541057D01*
X115499999Y-115541057D02*
X115547618Y-115636295D01*
X115547618Y-115636295D02*
X115547618Y-115779152D01*
X115547618Y-115779152D02*
X115499999Y-115874390D01*
X115499999Y-115874390D02*
X115452380Y-115922009D01*
X115452380Y-115922009D02*
X115357142Y-115969628D01*
X115357142Y-115969628D02*
X114976190Y-115969628D01*
X115976190Y-116445819D02*
X115976190Y-115779152D01*
X115976190Y-115445819D02*
X115928571Y-115493438D01*
X115928571Y-115493438D02*
X115976190Y-115541057D01*
X115976190Y-115541057D02*
X116023809Y-115493438D01*
X116023809Y-115493438D02*
X115976190Y-115445819D01*
X115976190Y-115445819D02*
X115976190Y-115541057D01*
X116880951Y-116398200D02*
X116785713Y-116445819D01*
X116785713Y-116445819D02*
X116595237Y-116445819D01*
X116595237Y-116445819D02*
X116499999Y-116398200D01*
X116499999Y-116398200D02*
X116452380Y-116350580D01*
X116452380Y-116350580D02*
X116404761Y-116255342D01*
X116404761Y-116255342D02*
X116404761Y-115969628D01*
X116404761Y-115969628D02*
X116452380Y-115874390D01*
X116452380Y-115874390D02*
X116499999Y-115826771D01*
X116499999Y-115826771D02*
X116595237Y-115779152D01*
X116595237Y-115779152D02*
X116785713Y-115779152D01*
X116785713Y-115779152D02*
X116880951Y-115826771D01*
X117452380Y-116445819D02*
X117357142Y-116398200D01*
X117357142Y-116398200D02*
X117309523Y-116350580D01*
X117309523Y-116350580D02*
X117261904Y-116255342D01*
X117261904Y-116255342D02*
X117261904Y-115969628D01*
X117261904Y-115969628D02*
X117309523Y-115874390D01*
X117309523Y-115874390D02*
X117357142Y-115826771D01*
X117357142Y-115826771D02*
X117452380Y-115779152D01*
X117452380Y-115779152D02*
X117595237Y-115779152D01*
X117595237Y-115779152D02*
X117690475Y-115826771D01*
X117690475Y-115826771D02*
X117738094Y-115874390D01*
X117738094Y-115874390D02*
X117785713Y-115969628D01*
X117785713Y-115969628D02*
X117785713Y-116255342D01*
X117785713Y-116255342D02*
X117738094Y-116350580D01*
X117738094Y-116350580D02*
X117690475Y-116398200D01*
X117690475Y-116398200D02*
X117595237Y-116445819D01*
X117595237Y-116445819D02*
X117452380Y-116445819D01*
X100489998Y-94410868D02*
X100409185Y-94437805D01*
X100409185Y-94437805D02*
X100328373Y-94518618D01*
X100328373Y-94518618D02*
X100274498Y-94626367D01*
X100274498Y-94626367D02*
X100274498Y-94734117D01*
X100274498Y-94734117D02*
X100301436Y-94814929D01*
X100301436Y-94814929D02*
X100382248Y-94949616D01*
X100382248Y-94949616D02*
X100463060Y-95030428D01*
X100463060Y-95030428D02*
X100597747Y-95111241D01*
X100597747Y-95111241D02*
X100678560Y-95138178D01*
X100678560Y-95138178D02*
X100786309Y-95138178D01*
X100786309Y-95138178D02*
X100894059Y-95084303D01*
X100894059Y-95084303D02*
X100947934Y-95030428D01*
X100947934Y-95030428D02*
X101001808Y-94922679D01*
X101001808Y-94922679D02*
X101001808Y-94868804D01*
X101001808Y-94868804D02*
X100813247Y-94680242D01*
X100813247Y-94680242D02*
X100705497Y-94787992D01*
X101298120Y-94680242D02*
X100732434Y-94114557D01*
X100732434Y-94114557D02*
X100947934Y-93899057D01*
X100947934Y-93899057D02*
X101028746Y-93872120D01*
X101028746Y-93872120D02*
X101082621Y-93872120D01*
X101082621Y-93872120D02*
X101163433Y-93899057D01*
X101163433Y-93899057D02*
X101244245Y-93979870D01*
X101244245Y-93979870D02*
X101271182Y-94060682D01*
X101271182Y-94060682D02*
X101271182Y-94114557D01*
X101271182Y-94114557D02*
X101244245Y-94195369D01*
X101244245Y-94195369D02*
X101028746Y-94410868D01*
X102160117Y-93818245D02*
X101836868Y-94141494D01*
X101998492Y-93979870D02*
X101432807Y-93414184D01*
X101432807Y-93414184D02*
X101459744Y-93548871D01*
X101459744Y-93548871D02*
X101459744Y-93656621D01*
X101459744Y-93656621D02*
X101432807Y-93737433D01*
X102079305Y-92767686D02*
X101971555Y-92875436D01*
X101971555Y-92875436D02*
X101944618Y-92956248D01*
X101944618Y-92956248D02*
X101944618Y-93010123D01*
X101944618Y-93010123D02*
X101971555Y-93144810D01*
X101971555Y-93144810D02*
X102052367Y-93279497D01*
X102052367Y-93279497D02*
X102267866Y-93494996D01*
X102267866Y-93494996D02*
X102348679Y-93521934D01*
X102348679Y-93521934D02*
X102402553Y-93521934D01*
X102402553Y-93521934D02*
X102483366Y-93494996D01*
X102483366Y-93494996D02*
X102591115Y-93387247D01*
X102591115Y-93387247D02*
X102618053Y-93306434D01*
X102618053Y-93306434D02*
X102618053Y-93252560D01*
X102618053Y-93252560D02*
X102591115Y-93171747D01*
X102591115Y-93171747D02*
X102456428Y-93037060D01*
X102456428Y-93037060D02*
X102375616Y-93010123D01*
X102375616Y-93010123D02*
X102321741Y-93010123D01*
X102321741Y-93010123D02*
X102240929Y-93037060D01*
X102240929Y-93037060D02*
X102133179Y-93144810D01*
X102133179Y-93144810D02*
X102106242Y-93225622D01*
X102106242Y-93225622D02*
X102106242Y-93279497D01*
X102106242Y-93279497D02*
X102133179Y-93360309D01*
X126613372Y-114461494D02*
X126532560Y-114488431D01*
X126532560Y-114488431D02*
X126451748Y-114569243D01*
X126451748Y-114569243D02*
X126397873Y-114676993D01*
X126397873Y-114676993D02*
X126397873Y-114784742D01*
X126397873Y-114784742D02*
X126424810Y-114865555D01*
X126424810Y-114865555D02*
X126505623Y-115000242D01*
X126505623Y-115000242D02*
X126586435Y-115081054D01*
X126586435Y-115081054D02*
X126721122Y-115161866D01*
X126721122Y-115161866D02*
X126801934Y-115188803D01*
X126801934Y-115188803D02*
X126909684Y-115188803D01*
X126909684Y-115188803D02*
X127017433Y-115134929D01*
X127017433Y-115134929D02*
X127071308Y-115081054D01*
X127071308Y-115081054D02*
X127125183Y-114973304D01*
X127125183Y-114973304D02*
X127125183Y-114919429D01*
X127125183Y-114919429D02*
X126936621Y-114730868D01*
X126936621Y-114730868D02*
X126828871Y-114838617D01*
X127421494Y-114730868D02*
X126855809Y-114165182D01*
X126855809Y-114165182D02*
X127071308Y-113949683D01*
X127071308Y-113949683D02*
X127152120Y-113922746D01*
X127152120Y-113922746D02*
X127205995Y-113922746D01*
X127205995Y-113922746D02*
X127286807Y-113949683D01*
X127286807Y-113949683D02*
X127367619Y-114030495D01*
X127367619Y-114030495D02*
X127394557Y-114111307D01*
X127394557Y-114111307D02*
X127394557Y-114165182D01*
X127394557Y-114165182D02*
X127367619Y-114245994D01*
X127367619Y-114245994D02*
X127152120Y-114461494D01*
X128014117Y-114138245D02*
X128121867Y-114030495D01*
X128121867Y-114030495D02*
X128148804Y-113949683D01*
X128148804Y-113949683D02*
X128148804Y-113895808D01*
X128148804Y-113895808D02*
X128121867Y-113761121D01*
X128121867Y-113761121D02*
X128041054Y-113626434D01*
X128041054Y-113626434D02*
X127825555Y-113410935D01*
X127825555Y-113410935D02*
X127744743Y-113383998D01*
X127744743Y-113383998D02*
X127690868Y-113383998D01*
X127690868Y-113383998D02*
X127610056Y-113410935D01*
X127610056Y-113410935D02*
X127502306Y-113518685D01*
X127502306Y-113518685D02*
X127475369Y-113599497D01*
X127475369Y-113599497D02*
X127475369Y-113653372D01*
X127475369Y-113653372D02*
X127502306Y-113734184D01*
X127502306Y-113734184D02*
X127636993Y-113868871D01*
X127636993Y-113868871D02*
X127717806Y-113895808D01*
X127717806Y-113895808D02*
X127771680Y-113895808D01*
X127771680Y-113895808D02*
X127852493Y-113868871D01*
X127852493Y-113868871D02*
X127960242Y-113761121D01*
X127960242Y-113761121D02*
X127987180Y-113680309D01*
X127987180Y-113680309D02*
X127987180Y-113626434D01*
X127987180Y-113626434D02*
X127960242Y-113545622D01*
X126586435Y-99248431D02*
X126505623Y-99275368D01*
X126505623Y-99275368D02*
X126424811Y-99356180D01*
X126424811Y-99356180D02*
X126370936Y-99463930D01*
X126370936Y-99463930D02*
X126370936Y-99571680D01*
X126370936Y-99571680D02*
X126397873Y-99652492D01*
X126397873Y-99652492D02*
X126478685Y-99787179D01*
X126478685Y-99787179D02*
X126559498Y-99867991D01*
X126559498Y-99867991D02*
X126694185Y-99948803D01*
X126694185Y-99948803D02*
X126774997Y-99975741D01*
X126774997Y-99975741D02*
X126882746Y-99975741D01*
X126882746Y-99975741D02*
X126990496Y-99921866D01*
X126990496Y-99921866D02*
X127044371Y-99867991D01*
X127044371Y-99867991D02*
X127098246Y-99760241D01*
X127098246Y-99760241D02*
X127098246Y-99706367D01*
X127098246Y-99706367D02*
X126909684Y-99517805D01*
X126909684Y-99517805D02*
X126801934Y-99625554D01*
X127394557Y-99517805D02*
X126828872Y-98952119D01*
X126828872Y-98952119D02*
X127717806Y-99194556D01*
X127717806Y-99194556D02*
X127152120Y-98628871D01*
X127987180Y-98925182D02*
X127421494Y-98359497D01*
X127421494Y-98359497D02*
X127556181Y-98224810D01*
X127556181Y-98224810D02*
X127663931Y-98170935D01*
X127663931Y-98170935D02*
X127771680Y-98170935D01*
X127771680Y-98170935D02*
X127852493Y-98197872D01*
X127852493Y-98197872D02*
X127987180Y-98278685D01*
X127987180Y-98278685D02*
X128067992Y-98359497D01*
X128067992Y-98359497D02*
X128148804Y-98494184D01*
X128148804Y-98494184D02*
X128175741Y-98574996D01*
X128175741Y-98574996D02*
X128175741Y-98682746D01*
X128175741Y-98682746D02*
X128121867Y-98790495D01*
X128121867Y-98790495D02*
X127987180Y-98925182D01*
X100489998Y-114730868D02*
X100409185Y-114757805D01*
X100409185Y-114757805D02*
X100328373Y-114838618D01*
X100328373Y-114838618D02*
X100274498Y-114946367D01*
X100274498Y-114946367D02*
X100274498Y-115054117D01*
X100274498Y-115054117D02*
X100301436Y-115134929D01*
X100301436Y-115134929D02*
X100382248Y-115269616D01*
X100382248Y-115269616D02*
X100463060Y-115350428D01*
X100463060Y-115350428D02*
X100597747Y-115431241D01*
X100597747Y-115431241D02*
X100678560Y-115458178D01*
X100678560Y-115458178D02*
X100786309Y-115458178D01*
X100786309Y-115458178D02*
X100894059Y-115404303D01*
X100894059Y-115404303D02*
X100947934Y-115350428D01*
X100947934Y-115350428D02*
X101001808Y-115242679D01*
X101001808Y-115242679D02*
X101001808Y-115188804D01*
X101001808Y-115188804D02*
X100813247Y-115000242D01*
X100813247Y-115000242D02*
X100705497Y-115107992D01*
X101298120Y-115000242D02*
X100732434Y-114434557D01*
X100732434Y-114434557D02*
X100947934Y-114219057D01*
X100947934Y-114219057D02*
X101028746Y-114192120D01*
X101028746Y-114192120D02*
X101082621Y-114192120D01*
X101082621Y-114192120D02*
X101163433Y-114219057D01*
X101163433Y-114219057D02*
X101244245Y-114299870D01*
X101244245Y-114299870D02*
X101271182Y-114380682D01*
X101271182Y-114380682D02*
X101271182Y-114434557D01*
X101271182Y-114434557D02*
X101244245Y-114515369D01*
X101244245Y-114515369D02*
X101028746Y-114730868D01*
X101325057Y-113949683D02*
X101325057Y-113895809D01*
X101325057Y-113895809D02*
X101351995Y-113814996D01*
X101351995Y-113814996D02*
X101486682Y-113680309D01*
X101486682Y-113680309D02*
X101567494Y-113653372D01*
X101567494Y-113653372D02*
X101621369Y-113653372D01*
X101621369Y-113653372D02*
X101702181Y-113680309D01*
X101702181Y-113680309D02*
X101756056Y-113734184D01*
X101756056Y-113734184D02*
X101809930Y-113841934D01*
X101809930Y-113841934D02*
X101809930Y-114488431D01*
X101809930Y-114488431D02*
X102160117Y-114138245D01*
X101863805Y-113410935D02*
X101863805Y-113357060D01*
X101863805Y-113357060D02*
X101890743Y-113276248D01*
X101890743Y-113276248D02*
X102025430Y-113141561D01*
X102025430Y-113141561D02*
X102106242Y-113114624D01*
X102106242Y-113114624D02*
X102160117Y-113114624D01*
X102160117Y-113114624D02*
X102240929Y-113141561D01*
X102240929Y-113141561D02*
X102294804Y-113195436D01*
X102294804Y-113195436D02*
X102348679Y-113303186D01*
X102348679Y-113303186D02*
X102348679Y-113949683D01*
X102348679Y-113949683D02*
X102698865Y-113599497D01*
X100489998Y-127684868D02*
X100409185Y-127711805D01*
X100409185Y-127711805D02*
X100328373Y-127792618D01*
X100328373Y-127792618D02*
X100274498Y-127900367D01*
X100274498Y-127900367D02*
X100274498Y-128008117D01*
X100274498Y-128008117D02*
X100301436Y-128088929D01*
X100301436Y-128088929D02*
X100382248Y-128223616D01*
X100382248Y-128223616D02*
X100463060Y-128304428D01*
X100463060Y-128304428D02*
X100597747Y-128385241D01*
X100597747Y-128385241D02*
X100678560Y-128412178D01*
X100678560Y-128412178D02*
X100786309Y-128412178D01*
X100786309Y-128412178D02*
X100894059Y-128358303D01*
X100894059Y-128358303D02*
X100947934Y-128304428D01*
X100947934Y-128304428D02*
X101001808Y-128196679D01*
X101001808Y-128196679D02*
X101001808Y-128142804D01*
X101001808Y-128142804D02*
X100813247Y-127954242D01*
X100813247Y-127954242D02*
X100705497Y-128061992D01*
X101298120Y-127954242D02*
X100732434Y-127388557D01*
X100732434Y-127388557D02*
X100947934Y-127173057D01*
X100947934Y-127173057D02*
X101028746Y-127146120D01*
X101028746Y-127146120D02*
X101082621Y-127146120D01*
X101082621Y-127146120D02*
X101163433Y-127173057D01*
X101163433Y-127173057D02*
X101244245Y-127253870D01*
X101244245Y-127253870D02*
X101271182Y-127334682D01*
X101271182Y-127334682D02*
X101271182Y-127388557D01*
X101271182Y-127388557D02*
X101244245Y-127469369D01*
X101244245Y-127469369D02*
X101028746Y-127684868D01*
X101325057Y-126903683D02*
X101325057Y-126849809D01*
X101325057Y-126849809D02*
X101351995Y-126768996D01*
X101351995Y-126768996D02*
X101486682Y-126634309D01*
X101486682Y-126634309D02*
X101567494Y-126607372D01*
X101567494Y-126607372D02*
X101621369Y-126607372D01*
X101621369Y-126607372D02*
X101702181Y-126634309D01*
X101702181Y-126634309D02*
X101756056Y-126688184D01*
X101756056Y-126688184D02*
X101809930Y-126795934D01*
X101809930Y-126795934D02*
X101809930Y-127442431D01*
X101809930Y-127442431D02*
X102160117Y-127092245D01*
X102160117Y-126445747D02*
X102079305Y-126472685D01*
X102079305Y-126472685D02*
X102025430Y-126472685D01*
X102025430Y-126472685D02*
X101944618Y-126445747D01*
X101944618Y-126445747D02*
X101917680Y-126418810D01*
X101917680Y-126418810D02*
X101890743Y-126337998D01*
X101890743Y-126337998D02*
X101890743Y-126284123D01*
X101890743Y-126284123D02*
X101917680Y-126203311D01*
X101917680Y-126203311D02*
X102025430Y-126095561D01*
X102025430Y-126095561D02*
X102106242Y-126068624D01*
X102106242Y-126068624D02*
X102160117Y-126068624D01*
X102160117Y-126068624D02*
X102240929Y-126095561D01*
X102240929Y-126095561D02*
X102267866Y-126122499D01*
X102267866Y-126122499D02*
X102294804Y-126203311D01*
X102294804Y-126203311D02*
X102294804Y-126257186D01*
X102294804Y-126257186D02*
X102267866Y-126337998D01*
X102267866Y-126337998D02*
X102160117Y-126445747D01*
X102160117Y-126445747D02*
X102133179Y-126526560D01*
X102133179Y-126526560D02*
X102133179Y-126580434D01*
X102133179Y-126580434D02*
X102160117Y-126661247D01*
X102160117Y-126661247D02*
X102267866Y-126768996D01*
X102267866Y-126768996D02*
X102348679Y-126795934D01*
X102348679Y-126795934D02*
X102402553Y-126795934D01*
X102402553Y-126795934D02*
X102483366Y-126768996D01*
X102483366Y-126768996D02*
X102591115Y-126661247D01*
X102591115Y-126661247D02*
X102618053Y-126580434D01*
X102618053Y-126580434D02*
X102618053Y-126526560D01*
X102618053Y-126526560D02*
X102591115Y-126445747D01*
X102591115Y-126445747D02*
X102483366Y-126337998D01*
X102483366Y-126337998D02*
X102402553Y-126311060D01*
X102402553Y-126311060D02*
X102348679Y-126311060D01*
X102348679Y-126311060D02*
X102267866Y-126337998D01*
X126586435Y-137348431D02*
X126505623Y-137375368D01*
X126505623Y-137375368D02*
X126424811Y-137456180D01*
X126424811Y-137456180D02*
X126370936Y-137563930D01*
X126370936Y-137563930D02*
X126370936Y-137671680D01*
X126370936Y-137671680D02*
X126397873Y-137752492D01*
X126397873Y-137752492D02*
X126478685Y-137887179D01*
X126478685Y-137887179D02*
X126559498Y-137967991D01*
X126559498Y-137967991D02*
X126694185Y-138048803D01*
X126694185Y-138048803D02*
X126774997Y-138075741D01*
X126774997Y-138075741D02*
X126882746Y-138075741D01*
X126882746Y-138075741D02*
X126990496Y-138021866D01*
X126990496Y-138021866D02*
X127044371Y-137967991D01*
X127044371Y-137967991D02*
X127098246Y-137860241D01*
X127098246Y-137860241D02*
X127098246Y-137806367D01*
X127098246Y-137806367D02*
X126909684Y-137617805D01*
X126909684Y-137617805D02*
X126801934Y-137725554D01*
X127394557Y-137617805D02*
X126828872Y-137052119D01*
X126828872Y-137052119D02*
X127717806Y-137294556D01*
X127717806Y-137294556D02*
X127152120Y-136728871D01*
X127987180Y-137025182D02*
X127421494Y-136459497D01*
X127421494Y-136459497D02*
X127556181Y-136324810D01*
X127556181Y-136324810D02*
X127663931Y-136270935D01*
X127663931Y-136270935D02*
X127771680Y-136270935D01*
X127771680Y-136270935D02*
X127852493Y-136297872D01*
X127852493Y-136297872D02*
X127987180Y-136378685D01*
X127987180Y-136378685D02*
X128067992Y-136459497D01*
X128067992Y-136459497D02*
X128148804Y-136594184D01*
X128148804Y-136594184D02*
X128175741Y-136674996D01*
X128175741Y-136674996D02*
X128175741Y-136782746D01*
X128175741Y-136782746D02*
X128121867Y-136890495D01*
X128121867Y-136890495D02*
X127987180Y-137025182D01*
X99022407Y-136508584D02*
X99372593Y-136158398D01*
X99372593Y-136158398D02*
X99399531Y-136562459D01*
X99399531Y-136562459D02*
X99480343Y-136481646D01*
X99480343Y-136481646D02*
X99561155Y-136454709D01*
X99561155Y-136454709D02*
X99615030Y-136454709D01*
X99615030Y-136454709D02*
X99695842Y-136481646D01*
X99695842Y-136481646D02*
X99830529Y-136616333D01*
X99830529Y-136616333D02*
X99857467Y-136697146D01*
X99857467Y-136697146D02*
X99857467Y-136751020D01*
X99857467Y-136751020D02*
X99830529Y-136831833D01*
X99830529Y-136831833D02*
X99668905Y-136993457D01*
X99668905Y-136993457D02*
X99588093Y-137020394D01*
X99588093Y-137020394D02*
X99534218Y-137020394D01*
X99534218Y-135996773D02*
X100288465Y-136373897D01*
X100288465Y-136373897D02*
X99911342Y-135619649D01*
X100046028Y-135484963D02*
X100396215Y-135134776D01*
X100396215Y-135134776D02*
X100423152Y-135538837D01*
X100423152Y-135538837D02*
X100503964Y-135458025D01*
X100503964Y-135458025D02*
X100584776Y-135431088D01*
X100584776Y-135431088D02*
X100638651Y-135431088D01*
X100638651Y-135431088D02*
X100719464Y-135458025D01*
X100719464Y-135458025D02*
X100854151Y-135592712D01*
X100854151Y-135592712D02*
X100881088Y-135673524D01*
X100881088Y-135673524D02*
X100881088Y-135727399D01*
X100881088Y-135727399D02*
X100854151Y-135808211D01*
X100854151Y-135808211D02*
X100692526Y-135969836D01*
X100692526Y-135969836D02*
X100611714Y-135996773D01*
X100611714Y-135996773D02*
X100557839Y-135996773D01*
X101123525Y-135646587D02*
X101554523Y-135215588D01*
X101339024Y-134730715D02*
X101527586Y-134542153D01*
X101904709Y-134757652D02*
X101635335Y-135027026D01*
X101635335Y-135027026D02*
X101069650Y-134461341D01*
X101069650Y-134461341D02*
X101339024Y-134191967D01*
X102147146Y-134515215D02*
X101581461Y-133949530D01*
X101581461Y-133949530D02*
X102470395Y-134191967D01*
X102470395Y-134191967D02*
X101904710Y-133626281D01*
X100489998Y-119810868D02*
X100409185Y-119837805D01*
X100409185Y-119837805D02*
X100328373Y-119918618D01*
X100328373Y-119918618D02*
X100274498Y-120026367D01*
X100274498Y-120026367D02*
X100274498Y-120134117D01*
X100274498Y-120134117D02*
X100301436Y-120214929D01*
X100301436Y-120214929D02*
X100382248Y-120349616D01*
X100382248Y-120349616D02*
X100463060Y-120430428D01*
X100463060Y-120430428D02*
X100597747Y-120511241D01*
X100597747Y-120511241D02*
X100678560Y-120538178D01*
X100678560Y-120538178D02*
X100786309Y-120538178D01*
X100786309Y-120538178D02*
X100894059Y-120484303D01*
X100894059Y-120484303D02*
X100947934Y-120430428D01*
X100947934Y-120430428D02*
X101001808Y-120322679D01*
X101001808Y-120322679D02*
X101001808Y-120268804D01*
X101001808Y-120268804D02*
X100813247Y-120080242D01*
X100813247Y-120080242D02*
X100705497Y-120187992D01*
X101298120Y-120080242D02*
X100732434Y-119514557D01*
X100732434Y-119514557D02*
X100947934Y-119299057D01*
X100947934Y-119299057D02*
X101028746Y-119272120D01*
X101028746Y-119272120D02*
X101082621Y-119272120D01*
X101082621Y-119272120D02*
X101163433Y-119299057D01*
X101163433Y-119299057D02*
X101244245Y-119379870D01*
X101244245Y-119379870D02*
X101271182Y-119460682D01*
X101271182Y-119460682D02*
X101271182Y-119514557D01*
X101271182Y-119514557D02*
X101244245Y-119595369D01*
X101244245Y-119595369D02*
X101028746Y-119810868D01*
X101325057Y-119029683D02*
X101325057Y-118975809D01*
X101325057Y-118975809D02*
X101351995Y-118894996D01*
X101351995Y-118894996D02*
X101486682Y-118760309D01*
X101486682Y-118760309D02*
X101567494Y-118733372D01*
X101567494Y-118733372D02*
X101621369Y-118733372D01*
X101621369Y-118733372D02*
X101702181Y-118760309D01*
X101702181Y-118760309D02*
X101756056Y-118814184D01*
X101756056Y-118814184D02*
X101809930Y-118921934D01*
X101809930Y-118921934D02*
X101809930Y-119568431D01*
X101809930Y-119568431D02*
X102160117Y-119218245D01*
X102079305Y-118167686D02*
X101971555Y-118275436D01*
X101971555Y-118275436D02*
X101944618Y-118356248D01*
X101944618Y-118356248D02*
X101944618Y-118410123D01*
X101944618Y-118410123D02*
X101971555Y-118544810D01*
X101971555Y-118544810D02*
X102052367Y-118679497D01*
X102052367Y-118679497D02*
X102267866Y-118894996D01*
X102267866Y-118894996D02*
X102348679Y-118921934D01*
X102348679Y-118921934D02*
X102402553Y-118921934D01*
X102402553Y-118921934D02*
X102483366Y-118894996D01*
X102483366Y-118894996D02*
X102591115Y-118787247D01*
X102591115Y-118787247D02*
X102618053Y-118706434D01*
X102618053Y-118706434D02*
X102618053Y-118652560D01*
X102618053Y-118652560D02*
X102591115Y-118571747D01*
X102591115Y-118571747D02*
X102456428Y-118437060D01*
X102456428Y-118437060D02*
X102375616Y-118410123D01*
X102375616Y-118410123D02*
X102321741Y-118410123D01*
X102321741Y-118410123D02*
X102240929Y-118437060D01*
X102240929Y-118437060D02*
X102133179Y-118544810D01*
X102133179Y-118544810D02*
X102106242Y-118625622D01*
X102106242Y-118625622D02*
X102106242Y-118679497D01*
X102106242Y-118679497D02*
X102133179Y-118760309D01*
X99853406Y-143077585D02*
X100607653Y-143454709D01*
X100607653Y-143454709D02*
X100230529Y-142700462D01*
X100877027Y-142592712D02*
X100984776Y-142538838D01*
X100984776Y-142538838D02*
X101038651Y-142538838D01*
X101038651Y-142538838D02*
X101119463Y-142565775D01*
X101119463Y-142565775D02*
X101200276Y-142646587D01*
X101200276Y-142646587D02*
X101227213Y-142727399D01*
X101227213Y-142727399D02*
X101227213Y-142781274D01*
X101227213Y-142781274D02*
X101200276Y-142862086D01*
X101200276Y-142862086D02*
X100984776Y-143077586D01*
X100984776Y-143077586D02*
X100419091Y-142511900D01*
X100419091Y-142511900D02*
X100607653Y-142323338D01*
X100607653Y-142323338D02*
X100688465Y-142296401D01*
X100688465Y-142296401D02*
X100742340Y-142296401D01*
X100742340Y-142296401D02*
X100823152Y-142323338D01*
X100823152Y-142323338D02*
X100877027Y-142377213D01*
X100877027Y-142377213D02*
X100903964Y-142458025D01*
X100903964Y-142458025D02*
X100903964Y-142511900D01*
X100903964Y-142511900D02*
X100877027Y-142592712D01*
X100877027Y-142592712D02*
X100688465Y-142781274D01*
X100984776Y-141946215D02*
X101442712Y-142404151D01*
X101442712Y-142404151D02*
X101523524Y-142431088D01*
X101523524Y-142431088D02*
X101577399Y-142431088D01*
X101577399Y-142431088D02*
X101658211Y-142404151D01*
X101658211Y-142404151D02*
X101765961Y-142296401D01*
X101765961Y-142296401D02*
X101792898Y-142215589D01*
X101792898Y-142215589D02*
X101792898Y-142161714D01*
X101792898Y-142161714D02*
X101765961Y-142080902D01*
X101765961Y-142080902D02*
X101308025Y-141622966D01*
X102089210Y-141919277D02*
X102196959Y-141865403D01*
X102196959Y-141865403D02*
X102331646Y-141730716D01*
X102331646Y-141730716D02*
X102358584Y-141649903D01*
X102358584Y-141649903D02*
X102358584Y-141596029D01*
X102358584Y-141596029D02*
X102331646Y-141515216D01*
X102331646Y-141515216D02*
X102277771Y-141461342D01*
X102277771Y-141461342D02*
X102196959Y-141434404D01*
X102196959Y-141434404D02*
X102143084Y-141434404D01*
X102143084Y-141434404D02*
X102062272Y-141461342D01*
X102062272Y-141461342D02*
X101927585Y-141542154D01*
X101927585Y-141542154D02*
X101846773Y-141569091D01*
X101846773Y-141569091D02*
X101792898Y-141569091D01*
X101792898Y-141569091D02*
X101712086Y-141542154D01*
X101712086Y-141542154D02*
X101658211Y-141488279D01*
X101658211Y-141488279D02*
X101631274Y-141407467D01*
X101631274Y-141407467D02*
X101631274Y-141353592D01*
X101631274Y-141353592D02*
X101658211Y-141272780D01*
X101658211Y-141272780D02*
X101792898Y-141138093D01*
X101792898Y-141138093D02*
X101900648Y-141084218D01*
X100543873Y-125591240D02*
X100813247Y-125321866D01*
X100651623Y-125806739D02*
X100274499Y-125052492D01*
X100274499Y-125052492D02*
X101028746Y-125429615D01*
X100974871Y-124405994D02*
X100894059Y-124432932D01*
X100894059Y-124432932D02*
X100813247Y-124513744D01*
X100813247Y-124513744D02*
X100759372Y-124621494D01*
X100759372Y-124621494D02*
X100759372Y-124729243D01*
X100759372Y-124729243D02*
X100786310Y-124810055D01*
X100786310Y-124810055D02*
X100867122Y-124944742D01*
X100867122Y-124944742D02*
X100947934Y-125025555D01*
X100947934Y-125025555D02*
X101082621Y-125106367D01*
X101082621Y-125106367D02*
X101163433Y-125133304D01*
X101163433Y-125133304D02*
X101271183Y-125133304D01*
X101271183Y-125133304D02*
X101378932Y-125079429D01*
X101378932Y-125079429D02*
X101432807Y-125025555D01*
X101432807Y-125025555D02*
X101486682Y-124917805D01*
X101486682Y-124917805D02*
X101486682Y-124863930D01*
X101486682Y-124863930D02*
X101298120Y-124675368D01*
X101298120Y-124675368D02*
X101190371Y-124783118D01*
X101782993Y-124675368D02*
X101217308Y-124109683D01*
X101217308Y-124109683D02*
X102106242Y-124352120D01*
X102106242Y-124352120D02*
X101540557Y-123786434D01*
X102375616Y-124082746D02*
X101809931Y-123517060D01*
X101809931Y-123517060D02*
X101944618Y-123382373D01*
X101944618Y-123382373D02*
X102052367Y-123328498D01*
X102052367Y-123328498D02*
X102160117Y-123328498D01*
X102160117Y-123328498D02*
X102240929Y-123355436D01*
X102240929Y-123355436D02*
X102375616Y-123436248D01*
X102375616Y-123436248D02*
X102456428Y-123517060D01*
X102456428Y-123517060D02*
X102537241Y-123651747D01*
X102537241Y-123651747D02*
X102564178Y-123732560D01*
X102564178Y-123732560D02*
X102564178Y-123840309D01*
X102564178Y-123840309D02*
X102510303Y-123948059D01*
X102510303Y-123948059D02*
X102375616Y-124082746D01*
X126713372Y-134781494D02*
X126632560Y-134808431D01*
X126632560Y-134808431D02*
X126551748Y-134889243D01*
X126551748Y-134889243D02*
X126497873Y-134996993D01*
X126497873Y-134996993D02*
X126497873Y-135104742D01*
X126497873Y-135104742D02*
X126524810Y-135185555D01*
X126524810Y-135185555D02*
X126605623Y-135320242D01*
X126605623Y-135320242D02*
X126686435Y-135401054D01*
X126686435Y-135401054D02*
X126821122Y-135481866D01*
X126821122Y-135481866D02*
X126901934Y-135508803D01*
X126901934Y-135508803D02*
X127009684Y-135508803D01*
X127009684Y-135508803D02*
X127117433Y-135454929D01*
X127117433Y-135454929D02*
X127171308Y-135401054D01*
X127171308Y-135401054D02*
X127225183Y-135293304D01*
X127225183Y-135293304D02*
X127225183Y-135239429D01*
X127225183Y-135239429D02*
X127036621Y-135050868D01*
X127036621Y-135050868D02*
X126928871Y-135158617D01*
X127521494Y-135050868D02*
X126955809Y-134485182D01*
X126955809Y-134485182D02*
X127171308Y-134269683D01*
X127171308Y-134269683D02*
X127252120Y-134242746D01*
X127252120Y-134242746D02*
X127305995Y-134242746D01*
X127305995Y-134242746D02*
X127386807Y-134269683D01*
X127386807Y-134269683D02*
X127467619Y-134350495D01*
X127467619Y-134350495D02*
X127494557Y-134431307D01*
X127494557Y-134431307D02*
X127494557Y-134485182D01*
X127494557Y-134485182D02*
X127467619Y-134565994D01*
X127467619Y-134565994D02*
X127252120Y-134781494D01*
X127548432Y-134000309D02*
X127548432Y-133946434D01*
X127548432Y-133946434D02*
X127575369Y-133865622D01*
X127575369Y-133865622D02*
X127710056Y-133730935D01*
X127710056Y-133730935D02*
X127790868Y-133703998D01*
X127790868Y-133703998D02*
X127844743Y-133703998D01*
X127844743Y-133703998D02*
X127925555Y-133730935D01*
X127925555Y-133730935D02*
X127979430Y-133784810D01*
X127979430Y-133784810D02*
X128033305Y-133892559D01*
X128033305Y-133892559D02*
X128033305Y-134539057D01*
X128033305Y-134539057D02*
X128383491Y-134188871D01*
X100489998Y-102030868D02*
X100409185Y-102057805D01*
X100409185Y-102057805D02*
X100328373Y-102138618D01*
X100328373Y-102138618D02*
X100274498Y-102246367D01*
X100274498Y-102246367D02*
X100274498Y-102354117D01*
X100274498Y-102354117D02*
X100301436Y-102434929D01*
X100301436Y-102434929D02*
X100382248Y-102569616D01*
X100382248Y-102569616D02*
X100463060Y-102650428D01*
X100463060Y-102650428D02*
X100597747Y-102731241D01*
X100597747Y-102731241D02*
X100678560Y-102758178D01*
X100678560Y-102758178D02*
X100786309Y-102758178D01*
X100786309Y-102758178D02*
X100894059Y-102704303D01*
X100894059Y-102704303D02*
X100947934Y-102650428D01*
X100947934Y-102650428D02*
X101001808Y-102542679D01*
X101001808Y-102542679D02*
X101001808Y-102488804D01*
X101001808Y-102488804D02*
X100813247Y-102300242D01*
X100813247Y-102300242D02*
X100705497Y-102407992D01*
X101298120Y-102300242D02*
X100732434Y-101734557D01*
X100732434Y-101734557D02*
X100947934Y-101519057D01*
X100947934Y-101519057D02*
X101028746Y-101492120D01*
X101028746Y-101492120D02*
X101082621Y-101492120D01*
X101082621Y-101492120D02*
X101163433Y-101519057D01*
X101163433Y-101519057D02*
X101244245Y-101599870D01*
X101244245Y-101599870D02*
X101271182Y-101680682D01*
X101271182Y-101680682D02*
X101271182Y-101734557D01*
X101271182Y-101734557D02*
X101244245Y-101815369D01*
X101244245Y-101815369D02*
X101028746Y-102030868D01*
X102160117Y-101438245D02*
X101836868Y-101761494D01*
X101998492Y-101599870D02*
X101432807Y-101034184D01*
X101432807Y-101034184D02*
X101459744Y-101168871D01*
X101459744Y-101168871D02*
X101459744Y-101276621D01*
X101459744Y-101276621D02*
X101432807Y-101357433D01*
X102160117Y-100791747D02*
X102079305Y-100818685D01*
X102079305Y-100818685D02*
X102025430Y-100818685D01*
X102025430Y-100818685D02*
X101944618Y-100791747D01*
X101944618Y-100791747D02*
X101917680Y-100764810D01*
X101917680Y-100764810D02*
X101890743Y-100683998D01*
X101890743Y-100683998D02*
X101890743Y-100630123D01*
X101890743Y-100630123D02*
X101917680Y-100549311D01*
X101917680Y-100549311D02*
X102025430Y-100441561D01*
X102025430Y-100441561D02*
X102106242Y-100414624D01*
X102106242Y-100414624D02*
X102160117Y-100414624D01*
X102160117Y-100414624D02*
X102240929Y-100441561D01*
X102240929Y-100441561D02*
X102267866Y-100468499D01*
X102267866Y-100468499D02*
X102294804Y-100549311D01*
X102294804Y-100549311D02*
X102294804Y-100603186D01*
X102294804Y-100603186D02*
X102267866Y-100683998D01*
X102267866Y-100683998D02*
X102160117Y-100791747D01*
X102160117Y-100791747D02*
X102133179Y-100872560D01*
X102133179Y-100872560D02*
X102133179Y-100926434D01*
X102133179Y-100926434D02*
X102160117Y-101007247D01*
X102160117Y-101007247D02*
X102267866Y-101114996D01*
X102267866Y-101114996D02*
X102348679Y-101141934D01*
X102348679Y-101141934D02*
X102402553Y-101141934D01*
X102402553Y-101141934D02*
X102483366Y-101114996D01*
X102483366Y-101114996D02*
X102591115Y-101007247D01*
X102591115Y-101007247D02*
X102618053Y-100926434D01*
X102618053Y-100926434D02*
X102618053Y-100872560D01*
X102618053Y-100872560D02*
X102591115Y-100791747D01*
X102591115Y-100791747D02*
X102483366Y-100683998D01*
X102483366Y-100683998D02*
X102402553Y-100657060D01*
X102402553Y-100657060D02*
X102348679Y-100657060D01*
X102348679Y-100657060D02*
X102267866Y-100683998D01*
X100986435Y-99248431D02*
X100905623Y-99275368D01*
X100905623Y-99275368D02*
X100824811Y-99356180D01*
X100824811Y-99356180D02*
X100770936Y-99463930D01*
X100770936Y-99463930D02*
X100770936Y-99571680D01*
X100770936Y-99571680D02*
X100797873Y-99652492D01*
X100797873Y-99652492D02*
X100878685Y-99787179D01*
X100878685Y-99787179D02*
X100959498Y-99867991D01*
X100959498Y-99867991D02*
X101094185Y-99948803D01*
X101094185Y-99948803D02*
X101174997Y-99975741D01*
X101174997Y-99975741D02*
X101282746Y-99975741D01*
X101282746Y-99975741D02*
X101390496Y-99921866D01*
X101390496Y-99921866D02*
X101444371Y-99867991D01*
X101444371Y-99867991D02*
X101498246Y-99760241D01*
X101498246Y-99760241D02*
X101498246Y-99706367D01*
X101498246Y-99706367D02*
X101309684Y-99517805D01*
X101309684Y-99517805D02*
X101201934Y-99625554D01*
X101794557Y-99517805D02*
X101228872Y-98952119D01*
X101228872Y-98952119D02*
X102117806Y-99194556D01*
X102117806Y-99194556D02*
X101552120Y-98628871D01*
X102387180Y-98925182D02*
X101821494Y-98359497D01*
X101821494Y-98359497D02*
X101956181Y-98224810D01*
X101956181Y-98224810D02*
X102063931Y-98170935D01*
X102063931Y-98170935D02*
X102171680Y-98170935D01*
X102171680Y-98170935D02*
X102252493Y-98197872D01*
X102252493Y-98197872D02*
X102387180Y-98278685D01*
X102387180Y-98278685D02*
X102467992Y-98359497D01*
X102467992Y-98359497D02*
X102548804Y-98494184D01*
X102548804Y-98494184D02*
X102575741Y-98574996D01*
X102575741Y-98574996D02*
X102575741Y-98682746D01*
X102575741Y-98682746D02*
X102521867Y-98790495D01*
X102521867Y-98790495D02*
X102387180Y-98925182D01*
X126643998Y-96950868D02*
X126563185Y-96977805D01*
X126563185Y-96977805D02*
X126482373Y-97058618D01*
X126482373Y-97058618D02*
X126428498Y-97166367D01*
X126428498Y-97166367D02*
X126428498Y-97274117D01*
X126428498Y-97274117D02*
X126455436Y-97354929D01*
X126455436Y-97354929D02*
X126536248Y-97489616D01*
X126536248Y-97489616D02*
X126617060Y-97570428D01*
X126617060Y-97570428D02*
X126751747Y-97651241D01*
X126751747Y-97651241D02*
X126832560Y-97678178D01*
X126832560Y-97678178D02*
X126940309Y-97678178D01*
X126940309Y-97678178D02*
X127048059Y-97624303D01*
X127048059Y-97624303D02*
X127101934Y-97570428D01*
X127101934Y-97570428D02*
X127155808Y-97462679D01*
X127155808Y-97462679D02*
X127155808Y-97408804D01*
X127155808Y-97408804D02*
X126967247Y-97220242D01*
X126967247Y-97220242D02*
X126859497Y-97327992D01*
X127452120Y-97220242D02*
X126886434Y-96654557D01*
X126886434Y-96654557D02*
X127101934Y-96439057D01*
X127101934Y-96439057D02*
X127182746Y-96412120D01*
X127182746Y-96412120D02*
X127236621Y-96412120D01*
X127236621Y-96412120D02*
X127317433Y-96439057D01*
X127317433Y-96439057D02*
X127398245Y-96519870D01*
X127398245Y-96519870D02*
X127425182Y-96600682D01*
X127425182Y-96600682D02*
X127425182Y-96654557D01*
X127425182Y-96654557D02*
X127398245Y-96735369D01*
X127398245Y-96735369D02*
X127182746Y-96950868D01*
X128314117Y-96358245D02*
X127990868Y-96681494D01*
X128152492Y-96519870D02*
X127586807Y-95954184D01*
X127586807Y-95954184D02*
X127613744Y-96088871D01*
X127613744Y-96088871D02*
X127613744Y-96196621D01*
X127613744Y-96196621D02*
X127586807Y-96277433D01*
X128421866Y-95496248D02*
X128798990Y-95873372D01*
X128071680Y-95415436D02*
X128341054Y-95954184D01*
X128341054Y-95954184D02*
X128691240Y-95603998D01*
X126597998Y-102030868D02*
X126517185Y-102057805D01*
X126517185Y-102057805D02*
X126436373Y-102138618D01*
X126436373Y-102138618D02*
X126382498Y-102246367D01*
X126382498Y-102246367D02*
X126382498Y-102354117D01*
X126382498Y-102354117D02*
X126409436Y-102434929D01*
X126409436Y-102434929D02*
X126490248Y-102569616D01*
X126490248Y-102569616D02*
X126571060Y-102650428D01*
X126571060Y-102650428D02*
X126705747Y-102731241D01*
X126705747Y-102731241D02*
X126786560Y-102758178D01*
X126786560Y-102758178D02*
X126894309Y-102758178D01*
X126894309Y-102758178D02*
X127002059Y-102704303D01*
X127002059Y-102704303D02*
X127055934Y-102650428D01*
X127055934Y-102650428D02*
X127109808Y-102542679D01*
X127109808Y-102542679D02*
X127109808Y-102488804D01*
X127109808Y-102488804D02*
X126921247Y-102300242D01*
X126921247Y-102300242D02*
X126813497Y-102407992D01*
X127406120Y-102300242D02*
X126840434Y-101734557D01*
X126840434Y-101734557D02*
X127055934Y-101519057D01*
X127055934Y-101519057D02*
X127136746Y-101492120D01*
X127136746Y-101492120D02*
X127190621Y-101492120D01*
X127190621Y-101492120D02*
X127271433Y-101519057D01*
X127271433Y-101519057D02*
X127352245Y-101599870D01*
X127352245Y-101599870D02*
X127379182Y-101680682D01*
X127379182Y-101680682D02*
X127379182Y-101734557D01*
X127379182Y-101734557D02*
X127352245Y-101815369D01*
X127352245Y-101815369D02*
X127136746Y-102030868D01*
X128268117Y-101438245D02*
X127944868Y-101761494D01*
X128106492Y-101599870D02*
X127540807Y-101034184D01*
X127540807Y-101034184D02*
X127567744Y-101168871D01*
X127567744Y-101168871D02*
X127567744Y-101276621D01*
X127567744Y-101276621D02*
X127540807Y-101357433D01*
X127890993Y-100683998D02*
X128241179Y-100333812D01*
X128241179Y-100333812D02*
X128268117Y-100737873D01*
X128268117Y-100737873D02*
X128348929Y-100657060D01*
X128348929Y-100657060D02*
X128429741Y-100630123D01*
X128429741Y-100630123D02*
X128483616Y-100630123D01*
X128483616Y-100630123D02*
X128564428Y-100657060D01*
X128564428Y-100657060D02*
X128699115Y-100791747D01*
X128699115Y-100791747D02*
X128726053Y-100872560D01*
X128726053Y-100872560D02*
X128726053Y-100926434D01*
X128726053Y-100926434D02*
X128699115Y-101007247D01*
X128699115Y-101007247D02*
X128537491Y-101168871D01*
X128537491Y-101168871D02*
X128456679Y-101195808D01*
X128456679Y-101195808D02*
X128402804Y-101195808D01*
X126597998Y-94410868D02*
X126517185Y-94437805D01*
X126517185Y-94437805D02*
X126436373Y-94518618D01*
X126436373Y-94518618D02*
X126382498Y-94626367D01*
X126382498Y-94626367D02*
X126382498Y-94734117D01*
X126382498Y-94734117D02*
X126409436Y-94814929D01*
X126409436Y-94814929D02*
X126490248Y-94949616D01*
X126490248Y-94949616D02*
X126571060Y-95030428D01*
X126571060Y-95030428D02*
X126705747Y-95111241D01*
X126705747Y-95111241D02*
X126786560Y-95138178D01*
X126786560Y-95138178D02*
X126894309Y-95138178D01*
X126894309Y-95138178D02*
X127002059Y-95084303D01*
X127002059Y-95084303D02*
X127055934Y-95030428D01*
X127055934Y-95030428D02*
X127109808Y-94922679D01*
X127109808Y-94922679D02*
X127109808Y-94868804D01*
X127109808Y-94868804D02*
X126921247Y-94680242D01*
X126921247Y-94680242D02*
X126813497Y-94787992D01*
X127406120Y-94680242D02*
X126840434Y-94114557D01*
X126840434Y-94114557D02*
X127055934Y-93899057D01*
X127055934Y-93899057D02*
X127136746Y-93872120D01*
X127136746Y-93872120D02*
X127190621Y-93872120D01*
X127190621Y-93872120D02*
X127271433Y-93899057D01*
X127271433Y-93899057D02*
X127352245Y-93979870D01*
X127352245Y-93979870D02*
X127379182Y-94060682D01*
X127379182Y-94060682D02*
X127379182Y-94114557D01*
X127379182Y-94114557D02*
X127352245Y-94195369D01*
X127352245Y-94195369D02*
X127136746Y-94410868D01*
X128268117Y-93818245D02*
X127944868Y-94141494D01*
X128106492Y-93979870D02*
X127540807Y-93414184D01*
X127540807Y-93414184D02*
X127567744Y-93548871D01*
X127567744Y-93548871D02*
X127567744Y-93656621D01*
X127567744Y-93656621D02*
X127540807Y-93737433D01*
X128214242Y-92740749D02*
X127944868Y-93010123D01*
X127944868Y-93010123D02*
X128187305Y-93306434D01*
X128187305Y-93306434D02*
X128187305Y-93252560D01*
X128187305Y-93252560D02*
X128214242Y-93171747D01*
X128214242Y-93171747D02*
X128348929Y-93037060D01*
X128348929Y-93037060D02*
X128429741Y-93010123D01*
X128429741Y-93010123D02*
X128483616Y-93010123D01*
X128483616Y-93010123D02*
X128564428Y-93037060D01*
X128564428Y-93037060D02*
X128699115Y-93171747D01*
X128699115Y-93171747D02*
X128726053Y-93252560D01*
X128726053Y-93252560D02*
X128726053Y-93306434D01*
X128726053Y-93306434D02*
X128699115Y-93387247D01*
X128699115Y-93387247D02*
X128564428Y-93521934D01*
X128564428Y-93521934D02*
X128483616Y-93548871D01*
X128483616Y-93548871D02*
X128429741Y-93548871D01*
X100020749Y-140400242D02*
X100774996Y-140777366D01*
X100774996Y-140777366D02*
X100397873Y-140023118D01*
X101098245Y-140400242D02*
X101205995Y-140346367D01*
X101205995Y-140346367D02*
X101340682Y-140211680D01*
X101340682Y-140211680D02*
X101367619Y-140130868D01*
X101367619Y-140130868D02*
X101367619Y-140076993D01*
X101367619Y-140076993D02*
X101340682Y-139996181D01*
X101340682Y-139996181D02*
X101286807Y-139942306D01*
X101286807Y-139942306D02*
X101205995Y-139915369D01*
X101205995Y-139915369D02*
X101152120Y-139915369D01*
X101152120Y-139915369D02*
X101071308Y-139942306D01*
X101071308Y-139942306D02*
X100936621Y-140023118D01*
X100936621Y-140023118D02*
X100855808Y-140050056D01*
X100855808Y-140050056D02*
X100801934Y-140050056D01*
X100801934Y-140050056D02*
X100721121Y-140023118D01*
X100721121Y-140023118D02*
X100667247Y-139969244D01*
X100667247Y-139969244D02*
X100640309Y-139888431D01*
X100640309Y-139888431D02*
X100640309Y-139834557D01*
X100640309Y-139834557D02*
X100667247Y-139753744D01*
X100667247Y-139753744D02*
X100801934Y-139619057D01*
X100801934Y-139619057D02*
X100909683Y-139565183D01*
X101529244Y-139484370D02*
X101798618Y-139753744D01*
X101044370Y-139376621D02*
X101529244Y-139484370D01*
X101529244Y-139484370D02*
X101421494Y-138999497D01*
X102121866Y-139376621D02*
X102229616Y-139322746D01*
X102229616Y-139322746D02*
X102364303Y-139188059D01*
X102364303Y-139188059D02*
X102391240Y-139107247D01*
X102391240Y-139107247D02*
X102391240Y-139053372D01*
X102391240Y-139053372D02*
X102364303Y-138972560D01*
X102364303Y-138972560D02*
X102310428Y-138918685D01*
X102310428Y-138918685D02*
X102229616Y-138891748D01*
X102229616Y-138891748D02*
X102175741Y-138891748D01*
X102175741Y-138891748D02*
X102094929Y-138918685D01*
X102094929Y-138918685D02*
X101960242Y-138999497D01*
X101960242Y-138999497D02*
X101879430Y-139026435D01*
X101879430Y-139026435D02*
X101825555Y-139026435D01*
X101825555Y-139026435D02*
X101744743Y-138999497D01*
X101744743Y-138999497D02*
X101690868Y-138945622D01*
X101690868Y-138945622D02*
X101663930Y-138864810D01*
X101663930Y-138864810D02*
X101663930Y-138810935D01*
X101663930Y-138810935D02*
X101690868Y-138730123D01*
X101690868Y-138730123D02*
X101825555Y-138595436D01*
X101825555Y-138595436D02*
X101933304Y-138541561D01*
X126743998Y-104570868D02*
X126663185Y-104597805D01*
X126663185Y-104597805D02*
X126582373Y-104678618D01*
X126582373Y-104678618D02*
X126528498Y-104786367D01*
X126528498Y-104786367D02*
X126528498Y-104894117D01*
X126528498Y-104894117D02*
X126555436Y-104974929D01*
X126555436Y-104974929D02*
X126636248Y-105109616D01*
X126636248Y-105109616D02*
X126717060Y-105190428D01*
X126717060Y-105190428D02*
X126851747Y-105271241D01*
X126851747Y-105271241D02*
X126932560Y-105298178D01*
X126932560Y-105298178D02*
X127040309Y-105298178D01*
X127040309Y-105298178D02*
X127148059Y-105244303D01*
X127148059Y-105244303D02*
X127201934Y-105190428D01*
X127201934Y-105190428D02*
X127255808Y-105082679D01*
X127255808Y-105082679D02*
X127255808Y-105028804D01*
X127255808Y-105028804D02*
X127067247Y-104840242D01*
X127067247Y-104840242D02*
X126959497Y-104947992D01*
X127552120Y-104840242D02*
X126986434Y-104274557D01*
X126986434Y-104274557D02*
X127201934Y-104059057D01*
X127201934Y-104059057D02*
X127282746Y-104032120D01*
X127282746Y-104032120D02*
X127336621Y-104032120D01*
X127336621Y-104032120D02*
X127417433Y-104059057D01*
X127417433Y-104059057D02*
X127498245Y-104139870D01*
X127498245Y-104139870D02*
X127525182Y-104220682D01*
X127525182Y-104220682D02*
X127525182Y-104274557D01*
X127525182Y-104274557D02*
X127498245Y-104355369D01*
X127498245Y-104355369D02*
X127282746Y-104570868D01*
X128414117Y-103978245D02*
X128090868Y-104301494D01*
X128252492Y-104139870D02*
X127686807Y-103574184D01*
X127686807Y-103574184D02*
X127713744Y-103708871D01*
X127713744Y-103708871D02*
X127713744Y-103816621D01*
X127713744Y-103816621D02*
X127686807Y-103897433D01*
X128117805Y-103250935D02*
X128117805Y-103197060D01*
X128117805Y-103197060D02*
X128144743Y-103116248D01*
X128144743Y-103116248D02*
X128279430Y-102981561D01*
X128279430Y-102981561D02*
X128360242Y-102954624D01*
X128360242Y-102954624D02*
X128414117Y-102954624D01*
X128414117Y-102954624D02*
X128494929Y-102981561D01*
X128494929Y-102981561D02*
X128548804Y-103035436D01*
X128548804Y-103035436D02*
X128602679Y-103143186D01*
X128602679Y-103143186D02*
X128602679Y-103789683D01*
X128602679Y-103789683D02*
X128952865Y-103439497D01*
X126743998Y-107110868D02*
X126663185Y-107137805D01*
X126663185Y-107137805D02*
X126582373Y-107218618D01*
X126582373Y-107218618D02*
X126528498Y-107326367D01*
X126528498Y-107326367D02*
X126528498Y-107434117D01*
X126528498Y-107434117D02*
X126555436Y-107514929D01*
X126555436Y-107514929D02*
X126636248Y-107649616D01*
X126636248Y-107649616D02*
X126717060Y-107730428D01*
X126717060Y-107730428D02*
X126851747Y-107811241D01*
X126851747Y-107811241D02*
X126932560Y-107838178D01*
X126932560Y-107838178D02*
X127040309Y-107838178D01*
X127040309Y-107838178D02*
X127148059Y-107784303D01*
X127148059Y-107784303D02*
X127201934Y-107730428D01*
X127201934Y-107730428D02*
X127255808Y-107622679D01*
X127255808Y-107622679D02*
X127255808Y-107568804D01*
X127255808Y-107568804D02*
X127067247Y-107380242D01*
X127067247Y-107380242D02*
X126959497Y-107487992D01*
X127552120Y-107380242D02*
X126986434Y-106814557D01*
X126986434Y-106814557D02*
X127201934Y-106599057D01*
X127201934Y-106599057D02*
X127282746Y-106572120D01*
X127282746Y-106572120D02*
X127336621Y-106572120D01*
X127336621Y-106572120D02*
X127417433Y-106599057D01*
X127417433Y-106599057D02*
X127498245Y-106679870D01*
X127498245Y-106679870D02*
X127525182Y-106760682D01*
X127525182Y-106760682D02*
X127525182Y-106814557D01*
X127525182Y-106814557D02*
X127498245Y-106895369D01*
X127498245Y-106895369D02*
X127282746Y-107110868D01*
X128414117Y-106518245D02*
X128090868Y-106841494D01*
X128252492Y-106679870D02*
X127686807Y-106114184D01*
X127686807Y-106114184D02*
X127713744Y-106248871D01*
X127713744Y-106248871D02*
X127713744Y-106356621D01*
X127713744Y-106356621D02*
X127686807Y-106437433D01*
X128952865Y-105979497D02*
X128629616Y-106302746D01*
X128791240Y-106141121D02*
X128225555Y-105575436D01*
X128225555Y-105575436D02*
X128252492Y-105710123D01*
X128252492Y-105710123D02*
X128252492Y-105817873D01*
X128252492Y-105817873D02*
X128225555Y-105898685D01*
X126613372Y-117001494D02*
X126532560Y-117028431D01*
X126532560Y-117028431D02*
X126451748Y-117109243D01*
X126451748Y-117109243D02*
X126397873Y-117216993D01*
X126397873Y-117216993D02*
X126397873Y-117324742D01*
X126397873Y-117324742D02*
X126424810Y-117405555D01*
X126424810Y-117405555D02*
X126505623Y-117540242D01*
X126505623Y-117540242D02*
X126586435Y-117621054D01*
X126586435Y-117621054D02*
X126721122Y-117701866D01*
X126721122Y-117701866D02*
X126801934Y-117728803D01*
X126801934Y-117728803D02*
X126909684Y-117728803D01*
X126909684Y-117728803D02*
X127017433Y-117674929D01*
X127017433Y-117674929D02*
X127071308Y-117621054D01*
X127071308Y-117621054D02*
X127125183Y-117513304D01*
X127125183Y-117513304D02*
X127125183Y-117459429D01*
X127125183Y-117459429D02*
X126936621Y-117270868D01*
X126936621Y-117270868D02*
X126828871Y-117378617D01*
X127421494Y-117270868D02*
X126855809Y-116705182D01*
X126855809Y-116705182D02*
X127071308Y-116489683D01*
X127071308Y-116489683D02*
X127152120Y-116462746D01*
X127152120Y-116462746D02*
X127205995Y-116462746D01*
X127205995Y-116462746D02*
X127286807Y-116489683D01*
X127286807Y-116489683D02*
X127367619Y-116570495D01*
X127367619Y-116570495D02*
X127394557Y-116651307D01*
X127394557Y-116651307D02*
X127394557Y-116705182D01*
X127394557Y-116705182D02*
X127367619Y-116785994D01*
X127367619Y-116785994D02*
X127152120Y-117001494D01*
X127744743Y-116301121D02*
X127663931Y-116328059D01*
X127663931Y-116328059D02*
X127610056Y-116328059D01*
X127610056Y-116328059D02*
X127529244Y-116301121D01*
X127529244Y-116301121D02*
X127502306Y-116274184D01*
X127502306Y-116274184D02*
X127475369Y-116193372D01*
X127475369Y-116193372D02*
X127475369Y-116139497D01*
X127475369Y-116139497D02*
X127502306Y-116058685D01*
X127502306Y-116058685D02*
X127610056Y-115950935D01*
X127610056Y-115950935D02*
X127690868Y-115923998D01*
X127690868Y-115923998D02*
X127744743Y-115923998D01*
X127744743Y-115923998D02*
X127825555Y-115950935D01*
X127825555Y-115950935D02*
X127852493Y-115977872D01*
X127852493Y-115977872D02*
X127879430Y-116058685D01*
X127879430Y-116058685D02*
X127879430Y-116112559D01*
X127879430Y-116112559D02*
X127852493Y-116193372D01*
X127852493Y-116193372D02*
X127744743Y-116301121D01*
X127744743Y-116301121D02*
X127717806Y-116381933D01*
X127717806Y-116381933D02*
X127717806Y-116435808D01*
X127717806Y-116435808D02*
X127744743Y-116516620D01*
X127744743Y-116516620D02*
X127852493Y-116624370D01*
X127852493Y-116624370D02*
X127933305Y-116651307D01*
X127933305Y-116651307D02*
X127987180Y-116651307D01*
X127987180Y-116651307D02*
X128067992Y-116624370D01*
X128067992Y-116624370D02*
X128175741Y-116516620D01*
X128175741Y-116516620D02*
X128202679Y-116435808D01*
X128202679Y-116435808D02*
X128202679Y-116381933D01*
X128202679Y-116381933D02*
X128175741Y-116301121D01*
X128175741Y-116301121D02*
X128067992Y-116193372D01*
X128067992Y-116193372D02*
X127987180Y-116166434D01*
X127987180Y-116166434D02*
X127933305Y-116166434D01*
X127933305Y-116166434D02*
X127852493Y-116193372D01*
X100986435Y-111948431D02*
X100905623Y-111975368D01*
X100905623Y-111975368D02*
X100824811Y-112056180D01*
X100824811Y-112056180D02*
X100770936Y-112163930D01*
X100770936Y-112163930D02*
X100770936Y-112271680D01*
X100770936Y-112271680D02*
X100797873Y-112352492D01*
X100797873Y-112352492D02*
X100878685Y-112487179D01*
X100878685Y-112487179D02*
X100959498Y-112567991D01*
X100959498Y-112567991D02*
X101094185Y-112648803D01*
X101094185Y-112648803D02*
X101174997Y-112675741D01*
X101174997Y-112675741D02*
X101282746Y-112675741D01*
X101282746Y-112675741D02*
X101390496Y-112621866D01*
X101390496Y-112621866D02*
X101444371Y-112567991D01*
X101444371Y-112567991D02*
X101498246Y-112460241D01*
X101498246Y-112460241D02*
X101498246Y-112406367D01*
X101498246Y-112406367D02*
X101309684Y-112217805D01*
X101309684Y-112217805D02*
X101201934Y-112325554D01*
X101794557Y-112217805D02*
X101228872Y-111652119D01*
X101228872Y-111652119D02*
X102117806Y-111894556D01*
X102117806Y-111894556D02*
X101552120Y-111328871D01*
X102387180Y-111625182D02*
X101821494Y-111059497D01*
X101821494Y-111059497D02*
X101956181Y-110924810D01*
X101956181Y-110924810D02*
X102063931Y-110870935D01*
X102063931Y-110870935D02*
X102171680Y-110870935D01*
X102171680Y-110870935D02*
X102252493Y-110897872D01*
X102252493Y-110897872D02*
X102387180Y-110978685D01*
X102387180Y-110978685D02*
X102467992Y-111059497D01*
X102467992Y-111059497D02*
X102548804Y-111194184D01*
X102548804Y-111194184D02*
X102575741Y-111274996D01*
X102575741Y-111274996D02*
X102575741Y-111382746D01*
X102575741Y-111382746D02*
X102521867Y-111490495D01*
X102521867Y-111490495D02*
X102387180Y-111625182D01*
X126713372Y-139871494D02*
X126632560Y-139898431D01*
X126632560Y-139898431D02*
X126551748Y-139979243D01*
X126551748Y-139979243D02*
X126497873Y-140086993D01*
X126497873Y-140086993D02*
X126497873Y-140194742D01*
X126497873Y-140194742D02*
X126524810Y-140275555D01*
X126524810Y-140275555D02*
X126605623Y-140410242D01*
X126605623Y-140410242D02*
X126686435Y-140491054D01*
X126686435Y-140491054D02*
X126821122Y-140571866D01*
X126821122Y-140571866D02*
X126901934Y-140598803D01*
X126901934Y-140598803D02*
X127009684Y-140598803D01*
X127009684Y-140598803D02*
X127117433Y-140544929D01*
X127117433Y-140544929D02*
X127171308Y-140491054D01*
X127171308Y-140491054D02*
X127225183Y-140383304D01*
X127225183Y-140383304D02*
X127225183Y-140329429D01*
X127225183Y-140329429D02*
X127036621Y-140140868D01*
X127036621Y-140140868D02*
X126928871Y-140248617D01*
X127521494Y-140140868D02*
X126955809Y-139575182D01*
X126955809Y-139575182D02*
X127171308Y-139359683D01*
X127171308Y-139359683D02*
X127252120Y-139332746D01*
X127252120Y-139332746D02*
X127305995Y-139332746D01*
X127305995Y-139332746D02*
X127386807Y-139359683D01*
X127386807Y-139359683D02*
X127467619Y-139440495D01*
X127467619Y-139440495D02*
X127494557Y-139521307D01*
X127494557Y-139521307D02*
X127494557Y-139575182D01*
X127494557Y-139575182D02*
X127467619Y-139655994D01*
X127467619Y-139655994D02*
X127252120Y-139871494D01*
X128383491Y-139278871D02*
X128060242Y-139602120D01*
X128221867Y-139440495D02*
X127656181Y-138874810D01*
X127656181Y-138874810D02*
X127683119Y-139009497D01*
X127683119Y-139009497D02*
X127683119Y-139117246D01*
X127683119Y-139117246D02*
X127656181Y-139198059D01*
X126613372Y-129701494D02*
X126532560Y-129728431D01*
X126532560Y-129728431D02*
X126451748Y-129809243D01*
X126451748Y-129809243D02*
X126397873Y-129916993D01*
X126397873Y-129916993D02*
X126397873Y-130024742D01*
X126397873Y-130024742D02*
X126424810Y-130105555D01*
X126424810Y-130105555D02*
X126505623Y-130240242D01*
X126505623Y-130240242D02*
X126586435Y-130321054D01*
X126586435Y-130321054D02*
X126721122Y-130401866D01*
X126721122Y-130401866D02*
X126801934Y-130428803D01*
X126801934Y-130428803D02*
X126909684Y-130428803D01*
X126909684Y-130428803D02*
X127017433Y-130374929D01*
X127017433Y-130374929D02*
X127071308Y-130321054D01*
X127071308Y-130321054D02*
X127125183Y-130213304D01*
X127125183Y-130213304D02*
X127125183Y-130159429D01*
X127125183Y-130159429D02*
X126936621Y-129970868D01*
X126936621Y-129970868D02*
X126828871Y-130078617D01*
X127421494Y-129970868D02*
X126855809Y-129405182D01*
X126855809Y-129405182D02*
X127071308Y-129189683D01*
X127071308Y-129189683D02*
X127152120Y-129162746D01*
X127152120Y-129162746D02*
X127205995Y-129162746D01*
X127205995Y-129162746D02*
X127286807Y-129189683D01*
X127286807Y-129189683D02*
X127367619Y-129270495D01*
X127367619Y-129270495D02*
X127394557Y-129351307D01*
X127394557Y-129351307D02*
X127394557Y-129405182D01*
X127394557Y-129405182D02*
X127367619Y-129485994D01*
X127367619Y-129485994D02*
X127152120Y-129701494D01*
X127852493Y-128785622D02*
X128229616Y-129162746D01*
X127502306Y-128704810D02*
X127771680Y-129243558D01*
X127771680Y-129243558D02*
X128121867Y-128893372D01*
X100489998Y-104570868D02*
X100409185Y-104597805D01*
X100409185Y-104597805D02*
X100328373Y-104678618D01*
X100328373Y-104678618D02*
X100274498Y-104786367D01*
X100274498Y-104786367D02*
X100274498Y-104894117D01*
X100274498Y-104894117D02*
X100301436Y-104974929D01*
X100301436Y-104974929D02*
X100382248Y-105109616D01*
X100382248Y-105109616D02*
X100463060Y-105190428D01*
X100463060Y-105190428D02*
X100597747Y-105271241D01*
X100597747Y-105271241D02*
X100678560Y-105298178D01*
X100678560Y-105298178D02*
X100786309Y-105298178D01*
X100786309Y-105298178D02*
X100894059Y-105244303D01*
X100894059Y-105244303D02*
X100947934Y-105190428D01*
X100947934Y-105190428D02*
X101001808Y-105082679D01*
X101001808Y-105082679D02*
X101001808Y-105028804D01*
X101001808Y-105028804D02*
X100813247Y-104840242D01*
X100813247Y-104840242D02*
X100705497Y-104947992D01*
X101298120Y-104840242D02*
X100732434Y-104274557D01*
X100732434Y-104274557D02*
X100947934Y-104059057D01*
X100947934Y-104059057D02*
X101028746Y-104032120D01*
X101028746Y-104032120D02*
X101082621Y-104032120D01*
X101082621Y-104032120D02*
X101163433Y-104059057D01*
X101163433Y-104059057D02*
X101244245Y-104139870D01*
X101244245Y-104139870D02*
X101271182Y-104220682D01*
X101271182Y-104220682D02*
X101271182Y-104274557D01*
X101271182Y-104274557D02*
X101244245Y-104355369D01*
X101244245Y-104355369D02*
X101028746Y-104570868D01*
X102160117Y-103978245D02*
X101836868Y-104301494D01*
X101998492Y-104139870D02*
X101432807Y-103574184D01*
X101432807Y-103574184D02*
X101459744Y-103708871D01*
X101459744Y-103708871D02*
X101459744Y-103816621D01*
X101459744Y-103816621D02*
X101432807Y-103897433D01*
X102429491Y-103708871D02*
X102537240Y-103601121D01*
X102537240Y-103601121D02*
X102564178Y-103520309D01*
X102564178Y-103520309D02*
X102564178Y-103466434D01*
X102564178Y-103466434D02*
X102537240Y-103331747D01*
X102537240Y-103331747D02*
X102456428Y-103197060D01*
X102456428Y-103197060D02*
X102240929Y-102981561D01*
X102240929Y-102981561D02*
X102160117Y-102954624D01*
X102160117Y-102954624D02*
X102106242Y-102954624D01*
X102106242Y-102954624D02*
X102025430Y-102981561D01*
X102025430Y-102981561D02*
X101917680Y-103089311D01*
X101917680Y-103089311D02*
X101890743Y-103170123D01*
X101890743Y-103170123D02*
X101890743Y-103223998D01*
X101890743Y-103223998D02*
X101917680Y-103304810D01*
X101917680Y-103304810D02*
X102052367Y-103439497D01*
X102052367Y-103439497D02*
X102133179Y-103466434D01*
X102133179Y-103466434D02*
X102187054Y-103466434D01*
X102187054Y-103466434D02*
X102267866Y-103439497D01*
X102267866Y-103439497D02*
X102375616Y-103331747D01*
X102375616Y-103331747D02*
X102402553Y-103250935D01*
X102402553Y-103250935D02*
X102402553Y-103197060D01*
X102402553Y-103197060D02*
X102375616Y-103116248D01*
X100489998Y-122340868D02*
X100409185Y-122367805D01*
X100409185Y-122367805D02*
X100328373Y-122448618D01*
X100328373Y-122448618D02*
X100274498Y-122556367D01*
X100274498Y-122556367D02*
X100274498Y-122664117D01*
X100274498Y-122664117D02*
X100301436Y-122744929D01*
X100301436Y-122744929D02*
X100382248Y-122879616D01*
X100382248Y-122879616D02*
X100463060Y-122960428D01*
X100463060Y-122960428D02*
X100597747Y-123041241D01*
X100597747Y-123041241D02*
X100678560Y-123068178D01*
X100678560Y-123068178D02*
X100786309Y-123068178D01*
X100786309Y-123068178D02*
X100894059Y-123014303D01*
X100894059Y-123014303D02*
X100947934Y-122960428D01*
X100947934Y-122960428D02*
X101001808Y-122852679D01*
X101001808Y-122852679D02*
X101001808Y-122798804D01*
X101001808Y-122798804D02*
X100813247Y-122610242D01*
X100813247Y-122610242D02*
X100705497Y-122717992D01*
X101298120Y-122610242D02*
X100732434Y-122044557D01*
X100732434Y-122044557D02*
X100947934Y-121829057D01*
X100947934Y-121829057D02*
X101028746Y-121802120D01*
X101028746Y-121802120D02*
X101082621Y-121802120D01*
X101082621Y-121802120D02*
X101163433Y-121829057D01*
X101163433Y-121829057D02*
X101244245Y-121909870D01*
X101244245Y-121909870D02*
X101271182Y-121990682D01*
X101271182Y-121990682D02*
X101271182Y-122044557D01*
X101271182Y-122044557D02*
X101244245Y-122125369D01*
X101244245Y-122125369D02*
X101028746Y-122340868D01*
X101325057Y-121559683D02*
X101325057Y-121505809D01*
X101325057Y-121505809D02*
X101351995Y-121424996D01*
X101351995Y-121424996D02*
X101486682Y-121290309D01*
X101486682Y-121290309D02*
X101567494Y-121263372D01*
X101567494Y-121263372D02*
X101621369Y-121263372D01*
X101621369Y-121263372D02*
X101702181Y-121290309D01*
X101702181Y-121290309D02*
X101756056Y-121344184D01*
X101756056Y-121344184D02*
X101809930Y-121451934D01*
X101809930Y-121451934D02*
X101809930Y-122098431D01*
X101809930Y-122098431D02*
X102160117Y-121748245D01*
X101782993Y-120993998D02*
X102160117Y-120616874D01*
X102160117Y-120616874D02*
X102483366Y-121424996D01*
X100489998Y-107110868D02*
X100409185Y-107137805D01*
X100409185Y-107137805D02*
X100328373Y-107218618D01*
X100328373Y-107218618D02*
X100274498Y-107326367D01*
X100274498Y-107326367D02*
X100274498Y-107434117D01*
X100274498Y-107434117D02*
X100301436Y-107514929D01*
X100301436Y-107514929D02*
X100382248Y-107649616D01*
X100382248Y-107649616D02*
X100463060Y-107730428D01*
X100463060Y-107730428D02*
X100597747Y-107811241D01*
X100597747Y-107811241D02*
X100678560Y-107838178D01*
X100678560Y-107838178D02*
X100786309Y-107838178D01*
X100786309Y-107838178D02*
X100894059Y-107784303D01*
X100894059Y-107784303D02*
X100947934Y-107730428D01*
X100947934Y-107730428D02*
X101001808Y-107622679D01*
X101001808Y-107622679D02*
X101001808Y-107568804D01*
X101001808Y-107568804D02*
X100813247Y-107380242D01*
X100813247Y-107380242D02*
X100705497Y-107487992D01*
X101298120Y-107380242D02*
X100732434Y-106814557D01*
X100732434Y-106814557D02*
X100947934Y-106599057D01*
X100947934Y-106599057D02*
X101028746Y-106572120D01*
X101028746Y-106572120D02*
X101082621Y-106572120D01*
X101082621Y-106572120D02*
X101163433Y-106599057D01*
X101163433Y-106599057D02*
X101244245Y-106679870D01*
X101244245Y-106679870D02*
X101271182Y-106760682D01*
X101271182Y-106760682D02*
X101271182Y-106814557D01*
X101271182Y-106814557D02*
X101244245Y-106895369D01*
X101244245Y-106895369D02*
X101028746Y-107110868D01*
X101325057Y-106329683D02*
X101325057Y-106275809D01*
X101325057Y-106275809D02*
X101351995Y-106194996D01*
X101351995Y-106194996D02*
X101486682Y-106060309D01*
X101486682Y-106060309D02*
X101567494Y-106033372D01*
X101567494Y-106033372D02*
X101621369Y-106033372D01*
X101621369Y-106033372D02*
X101702181Y-106060309D01*
X101702181Y-106060309D02*
X101756056Y-106114184D01*
X101756056Y-106114184D02*
X101809930Y-106221934D01*
X101809930Y-106221934D02*
X101809930Y-106868431D01*
X101809930Y-106868431D02*
X102160117Y-106518245D01*
X101944618Y-105602373D02*
X101998492Y-105548499D01*
X101998492Y-105548499D02*
X102079305Y-105521561D01*
X102079305Y-105521561D02*
X102133179Y-105521561D01*
X102133179Y-105521561D02*
X102213992Y-105548499D01*
X102213992Y-105548499D02*
X102348679Y-105629311D01*
X102348679Y-105629311D02*
X102483366Y-105763998D01*
X102483366Y-105763998D02*
X102564178Y-105898685D01*
X102564178Y-105898685D02*
X102591115Y-105979497D01*
X102591115Y-105979497D02*
X102591115Y-106033372D01*
X102591115Y-106033372D02*
X102564178Y-106114184D01*
X102564178Y-106114184D02*
X102510303Y-106168059D01*
X102510303Y-106168059D02*
X102429491Y-106194996D01*
X102429491Y-106194996D02*
X102375616Y-106194996D01*
X102375616Y-106194996D02*
X102294804Y-106168059D01*
X102294804Y-106168059D02*
X102160117Y-106087247D01*
X102160117Y-106087247D02*
X102025430Y-105952560D01*
X102025430Y-105952560D02*
X101944618Y-105817873D01*
X101944618Y-105817873D02*
X101917680Y-105737060D01*
X101917680Y-105737060D02*
X101917680Y-105683186D01*
X101917680Y-105683186D02*
X101944618Y-105602373D01*
X101338651Y-117553710D02*
X100880716Y-117472898D01*
X101015403Y-117876959D02*
X100449717Y-117311274D01*
X100449717Y-117311274D02*
X100665216Y-117095775D01*
X100665216Y-117095775D02*
X100746029Y-117068837D01*
X100746029Y-117068837D02*
X100799903Y-117068837D01*
X100799903Y-117068837D02*
X100880716Y-117095775D01*
X100880716Y-117095775D02*
X100961528Y-117176587D01*
X100961528Y-117176587D02*
X100988465Y-117257399D01*
X100988465Y-117257399D02*
X100988465Y-117311274D01*
X100988465Y-117311274D02*
X100961528Y-117392086D01*
X100961528Y-117392086D02*
X100746029Y-117607585D01*
X101015403Y-116745588D02*
X101473338Y-117203524D01*
X101473338Y-117203524D02*
X101554151Y-117230462D01*
X101554151Y-117230462D02*
X101608025Y-117230462D01*
X101608025Y-117230462D02*
X101688838Y-117203524D01*
X101688838Y-117203524D02*
X101796587Y-117095775D01*
X101796587Y-117095775D02*
X101823525Y-117014962D01*
X101823525Y-117014962D02*
X101823525Y-116961088D01*
X101823525Y-116961088D02*
X101796587Y-116880275D01*
X101796587Y-116880275D02*
X101338651Y-116422340D01*
X102173711Y-116718651D02*
X101608025Y-116152966D01*
X101608025Y-116152966D02*
X102496959Y-116395402D01*
X102496959Y-116395402D02*
X101931274Y-115829717D01*
X98655064Y-132684049D02*
X98924438Y-132414675D01*
X98762813Y-132899549D02*
X98385690Y-132145301D01*
X98385690Y-132145301D02*
X99139937Y-132522425D01*
X99328499Y-132333863D02*
X98762813Y-131768178D01*
X98762813Y-131768178D02*
X98897500Y-131633491D01*
X98897500Y-131633491D02*
X99005250Y-131579616D01*
X99005250Y-131579616D02*
X99112999Y-131579616D01*
X99112999Y-131579616D02*
X99193812Y-131606553D01*
X99193812Y-131606553D02*
X99328499Y-131687366D01*
X99328499Y-131687366D02*
X99409311Y-131768178D01*
X99409311Y-131768178D02*
X99490123Y-131902865D01*
X99490123Y-131902865D02*
X99517060Y-131983677D01*
X99517060Y-131983677D02*
X99517060Y-132091427D01*
X99517060Y-132091427D02*
X99463186Y-132199176D01*
X99463186Y-132199176D02*
X99328499Y-132333863D01*
X100163558Y-131391054D02*
X100163558Y-131444929D01*
X100163558Y-131444929D02*
X100109683Y-131552679D01*
X100109683Y-131552679D02*
X100055808Y-131606553D01*
X100055808Y-131606553D02*
X99948059Y-131660428D01*
X99948059Y-131660428D02*
X99840309Y-131660428D01*
X99840309Y-131660428D02*
X99759497Y-131633491D01*
X99759497Y-131633491D02*
X99624810Y-131552679D01*
X99624810Y-131552679D02*
X99543998Y-131471866D01*
X99543998Y-131471866D02*
X99463186Y-131337179D01*
X99463186Y-131337179D02*
X99436248Y-131256367D01*
X99436248Y-131256367D02*
X99436248Y-131148618D01*
X99436248Y-131148618D02*
X99490123Y-131040868D01*
X99490123Y-131040868D02*
X99543998Y-130986993D01*
X99543998Y-130986993D02*
X99651747Y-130933118D01*
X99651747Y-130933118D02*
X99705622Y-130933118D01*
X100379057Y-131391054D02*
X100810056Y-130960056D01*
X100244370Y-130286621D02*
X100998618Y-130663744D01*
X100998618Y-130663744D02*
X100621494Y-129909497D01*
X101698990Y-129963372D02*
X101241054Y-129882560D01*
X101375741Y-130286621D02*
X100810056Y-129720935D01*
X100810056Y-129720935D02*
X101025555Y-129505436D01*
X101025555Y-129505436D02*
X101106367Y-129478499D01*
X101106367Y-129478499D02*
X101160242Y-129478499D01*
X101160242Y-129478499D02*
X101241054Y-129505436D01*
X101241054Y-129505436D02*
X101321866Y-129586248D01*
X101321866Y-129586248D02*
X101348804Y-129667061D01*
X101348804Y-129667061D02*
X101348804Y-129720935D01*
X101348804Y-129720935D02*
X101321866Y-129801748D01*
X101321866Y-129801748D02*
X101106367Y-130017247D01*
X101645115Y-129424624D02*
X101833677Y-129236062D01*
X102210800Y-129451561D02*
X101941426Y-129720935D01*
X101941426Y-129720935D02*
X101375741Y-129155250D01*
X101375741Y-129155250D02*
X101645115Y-128885876D01*
X102345488Y-128724251D02*
X102156926Y-128912813D01*
X102453237Y-129209125D02*
X101887552Y-128643439D01*
X101887552Y-128643439D02*
X102156926Y-128374065D01*
X126613372Y-122081494D02*
X126532560Y-122108431D01*
X126532560Y-122108431D02*
X126451748Y-122189243D01*
X126451748Y-122189243D02*
X126397873Y-122296993D01*
X126397873Y-122296993D02*
X126397873Y-122404742D01*
X126397873Y-122404742D02*
X126424810Y-122485555D01*
X126424810Y-122485555D02*
X126505623Y-122620242D01*
X126505623Y-122620242D02*
X126586435Y-122701054D01*
X126586435Y-122701054D02*
X126721122Y-122781866D01*
X126721122Y-122781866D02*
X126801934Y-122808803D01*
X126801934Y-122808803D02*
X126909684Y-122808803D01*
X126909684Y-122808803D02*
X127017433Y-122754929D01*
X127017433Y-122754929D02*
X127071308Y-122701054D01*
X127071308Y-122701054D02*
X127125183Y-122593304D01*
X127125183Y-122593304D02*
X127125183Y-122539429D01*
X127125183Y-122539429D02*
X126936621Y-122350868D01*
X126936621Y-122350868D02*
X126828871Y-122458617D01*
X127421494Y-122350868D02*
X126855809Y-121785182D01*
X126855809Y-121785182D02*
X127071308Y-121569683D01*
X127071308Y-121569683D02*
X127152120Y-121542746D01*
X127152120Y-121542746D02*
X127205995Y-121542746D01*
X127205995Y-121542746D02*
X127286807Y-121569683D01*
X127286807Y-121569683D02*
X127367619Y-121650495D01*
X127367619Y-121650495D02*
X127394557Y-121731307D01*
X127394557Y-121731307D02*
X127394557Y-121785182D01*
X127394557Y-121785182D02*
X127367619Y-121865994D01*
X127367619Y-121865994D02*
X127152120Y-122081494D01*
X127663931Y-120977060D02*
X127556181Y-121084810D01*
X127556181Y-121084810D02*
X127529244Y-121165622D01*
X127529244Y-121165622D02*
X127529244Y-121219497D01*
X127529244Y-121219497D02*
X127556181Y-121354184D01*
X127556181Y-121354184D02*
X127636993Y-121488871D01*
X127636993Y-121488871D02*
X127852493Y-121704370D01*
X127852493Y-121704370D02*
X127933305Y-121731307D01*
X127933305Y-121731307D02*
X127987180Y-121731307D01*
X127987180Y-121731307D02*
X128067992Y-121704370D01*
X128067992Y-121704370D02*
X128175741Y-121596620D01*
X128175741Y-121596620D02*
X128202679Y-121515808D01*
X128202679Y-121515808D02*
X128202679Y-121461933D01*
X128202679Y-121461933D02*
X128175741Y-121381121D01*
X128175741Y-121381121D02*
X128041054Y-121246434D01*
X128041054Y-121246434D02*
X127960242Y-121219497D01*
X127960242Y-121219497D02*
X127906367Y-121219497D01*
X127906367Y-121219497D02*
X127825555Y-121246434D01*
X127825555Y-121246434D02*
X127717806Y-121354184D01*
X127717806Y-121354184D02*
X127690868Y-121434996D01*
X127690868Y-121434996D02*
X127690868Y-121488871D01*
X127690868Y-121488871D02*
X127717806Y-121569683D01*
X100590123Y-132440868D02*
X100940309Y-132090682D01*
X100940309Y-132090682D02*
X100967247Y-132494743D01*
X100967247Y-132494743D02*
X101048059Y-132413931D01*
X101048059Y-132413931D02*
X101128871Y-132386993D01*
X101128871Y-132386993D02*
X101182746Y-132386993D01*
X101182746Y-132386993D02*
X101263558Y-132413931D01*
X101263558Y-132413931D02*
X101398245Y-132548618D01*
X101398245Y-132548618D02*
X101425182Y-132629430D01*
X101425182Y-132629430D02*
X101425182Y-132683305D01*
X101425182Y-132683305D02*
X101398245Y-132764117D01*
X101398245Y-132764117D02*
X101236621Y-132925741D01*
X101236621Y-132925741D02*
X101155808Y-132952679D01*
X101155808Y-132952679D02*
X101101934Y-132952679D01*
X101101934Y-131929057D02*
X101856181Y-132306181D01*
X101856181Y-132306181D02*
X101479057Y-131551934D01*
X101613744Y-131417247D02*
X101963930Y-131067061D01*
X101963930Y-131067061D02*
X101990868Y-131471122D01*
X101990868Y-131471122D02*
X102071680Y-131390309D01*
X102071680Y-131390309D02*
X102152492Y-131363372D01*
X102152492Y-131363372D02*
X102206367Y-131363372D01*
X102206367Y-131363372D02*
X102287179Y-131390309D01*
X102287179Y-131390309D02*
X102421866Y-131524996D01*
X102421866Y-131524996D02*
X102448804Y-131605809D01*
X102448804Y-131605809D02*
X102448804Y-131659683D01*
X102448804Y-131659683D02*
X102421866Y-131740496D01*
X102421866Y-131740496D02*
X102260242Y-131902120D01*
X102260242Y-131902120D02*
X102179430Y-131929057D01*
X102179430Y-131929057D02*
X102125555Y-131929057D01*
X100489998Y-109640868D02*
X100409185Y-109667805D01*
X100409185Y-109667805D02*
X100328373Y-109748618D01*
X100328373Y-109748618D02*
X100274498Y-109856367D01*
X100274498Y-109856367D02*
X100274498Y-109964117D01*
X100274498Y-109964117D02*
X100301436Y-110044929D01*
X100301436Y-110044929D02*
X100382248Y-110179616D01*
X100382248Y-110179616D02*
X100463060Y-110260428D01*
X100463060Y-110260428D02*
X100597747Y-110341241D01*
X100597747Y-110341241D02*
X100678560Y-110368178D01*
X100678560Y-110368178D02*
X100786309Y-110368178D01*
X100786309Y-110368178D02*
X100894059Y-110314303D01*
X100894059Y-110314303D02*
X100947934Y-110260428D01*
X100947934Y-110260428D02*
X101001808Y-110152679D01*
X101001808Y-110152679D02*
X101001808Y-110098804D01*
X101001808Y-110098804D02*
X100813247Y-109910242D01*
X100813247Y-109910242D02*
X100705497Y-110017992D01*
X101298120Y-109910242D02*
X100732434Y-109344557D01*
X100732434Y-109344557D02*
X100947934Y-109129057D01*
X100947934Y-109129057D02*
X101028746Y-109102120D01*
X101028746Y-109102120D02*
X101082621Y-109102120D01*
X101082621Y-109102120D02*
X101163433Y-109129057D01*
X101163433Y-109129057D02*
X101244245Y-109209870D01*
X101244245Y-109209870D02*
X101271182Y-109290682D01*
X101271182Y-109290682D02*
X101271182Y-109344557D01*
X101271182Y-109344557D02*
X101244245Y-109425369D01*
X101244245Y-109425369D02*
X101028746Y-109640868D01*
X101325057Y-108859683D02*
X101325057Y-108805809D01*
X101325057Y-108805809D02*
X101351995Y-108724996D01*
X101351995Y-108724996D02*
X101486682Y-108590309D01*
X101486682Y-108590309D02*
X101567494Y-108563372D01*
X101567494Y-108563372D02*
X101621369Y-108563372D01*
X101621369Y-108563372D02*
X101702181Y-108590309D01*
X101702181Y-108590309D02*
X101756056Y-108644184D01*
X101756056Y-108644184D02*
X101809930Y-108751934D01*
X101809930Y-108751934D02*
X101809930Y-109398431D01*
X101809930Y-109398431D02*
X102160117Y-109048245D01*
X102698865Y-108509497D02*
X102375616Y-108832746D01*
X102537240Y-108671121D02*
X101971555Y-108105436D01*
X101971555Y-108105436D02*
X101998492Y-108240123D01*
X101998492Y-108240123D02*
X101998492Y-108347873D01*
X101998492Y-108347873D02*
X101971555Y-108428685D01*
X100489998Y-96950868D02*
X100409185Y-96977805D01*
X100409185Y-96977805D02*
X100328373Y-97058618D01*
X100328373Y-97058618D02*
X100274498Y-97166367D01*
X100274498Y-97166367D02*
X100274498Y-97274117D01*
X100274498Y-97274117D02*
X100301436Y-97354929D01*
X100301436Y-97354929D02*
X100382248Y-97489616D01*
X100382248Y-97489616D02*
X100463060Y-97570428D01*
X100463060Y-97570428D02*
X100597747Y-97651241D01*
X100597747Y-97651241D02*
X100678560Y-97678178D01*
X100678560Y-97678178D02*
X100786309Y-97678178D01*
X100786309Y-97678178D02*
X100894059Y-97624303D01*
X100894059Y-97624303D02*
X100947934Y-97570428D01*
X100947934Y-97570428D02*
X101001808Y-97462679D01*
X101001808Y-97462679D02*
X101001808Y-97408804D01*
X101001808Y-97408804D02*
X100813247Y-97220242D01*
X100813247Y-97220242D02*
X100705497Y-97327992D01*
X101298120Y-97220242D02*
X100732434Y-96654557D01*
X100732434Y-96654557D02*
X100947934Y-96439057D01*
X100947934Y-96439057D02*
X101028746Y-96412120D01*
X101028746Y-96412120D02*
X101082621Y-96412120D01*
X101082621Y-96412120D02*
X101163433Y-96439057D01*
X101163433Y-96439057D02*
X101244245Y-96519870D01*
X101244245Y-96519870D02*
X101271182Y-96600682D01*
X101271182Y-96600682D02*
X101271182Y-96654557D01*
X101271182Y-96654557D02*
X101244245Y-96735369D01*
X101244245Y-96735369D02*
X101028746Y-96950868D01*
X102160117Y-96358245D02*
X101836868Y-96681494D01*
X101998492Y-96519870D02*
X101432807Y-95954184D01*
X101432807Y-95954184D02*
X101459744Y-96088871D01*
X101459744Y-96088871D02*
X101459744Y-96196621D01*
X101459744Y-96196621D02*
X101432807Y-96277433D01*
X101782993Y-95603998D02*
X102160117Y-95226874D01*
X102160117Y-95226874D02*
X102483366Y-96034996D01*
X126613372Y-142401494D02*
X126532560Y-142428431D01*
X126532560Y-142428431D02*
X126451748Y-142509243D01*
X126451748Y-142509243D02*
X126397873Y-142616993D01*
X126397873Y-142616993D02*
X126397873Y-142724742D01*
X126397873Y-142724742D02*
X126424810Y-142805555D01*
X126424810Y-142805555D02*
X126505623Y-142940242D01*
X126505623Y-142940242D02*
X126586435Y-143021054D01*
X126586435Y-143021054D02*
X126721122Y-143101866D01*
X126721122Y-143101866D02*
X126801934Y-143128803D01*
X126801934Y-143128803D02*
X126909684Y-143128803D01*
X126909684Y-143128803D02*
X127017433Y-143074929D01*
X127017433Y-143074929D02*
X127071308Y-143021054D01*
X127071308Y-143021054D02*
X127125183Y-142913304D01*
X127125183Y-142913304D02*
X127125183Y-142859429D01*
X127125183Y-142859429D02*
X126936621Y-142670868D01*
X126936621Y-142670868D02*
X126828871Y-142778617D01*
X127421494Y-142670868D02*
X126855809Y-142105182D01*
X126855809Y-142105182D02*
X127071308Y-141889683D01*
X127071308Y-141889683D02*
X127152120Y-141862746D01*
X127152120Y-141862746D02*
X127205995Y-141862746D01*
X127205995Y-141862746D02*
X127286807Y-141889683D01*
X127286807Y-141889683D02*
X127367619Y-141970495D01*
X127367619Y-141970495D02*
X127394557Y-142051307D01*
X127394557Y-142051307D02*
X127394557Y-142105182D01*
X127394557Y-142105182D02*
X127367619Y-142185994D01*
X127367619Y-142185994D02*
X127152120Y-142401494D01*
X127529244Y-141431747D02*
X127583119Y-141377872D01*
X127583119Y-141377872D02*
X127663931Y-141350935D01*
X127663931Y-141350935D02*
X127717806Y-141350935D01*
X127717806Y-141350935D02*
X127798618Y-141377872D01*
X127798618Y-141377872D02*
X127933305Y-141458685D01*
X127933305Y-141458685D02*
X128067992Y-141593372D01*
X128067992Y-141593372D02*
X128148804Y-141728059D01*
X128148804Y-141728059D02*
X128175741Y-141808871D01*
X128175741Y-141808871D02*
X128175741Y-141862746D01*
X128175741Y-141862746D02*
X128148804Y-141943558D01*
X128148804Y-141943558D02*
X128094929Y-141997433D01*
X128094929Y-141997433D02*
X128014117Y-142024370D01*
X128014117Y-142024370D02*
X127960242Y-142024370D01*
X127960242Y-142024370D02*
X127879430Y-141997433D01*
X127879430Y-141997433D02*
X127744743Y-141916620D01*
X127744743Y-141916620D02*
X127610056Y-141781933D01*
X127610056Y-141781933D02*
X127529244Y-141647246D01*
X127529244Y-141647246D02*
X127502306Y-141566434D01*
X127502306Y-141566434D02*
X127502306Y-141512559D01*
X127502306Y-141512559D02*
X127529244Y-141431747D01*
X126586435Y-111948431D02*
X126505623Y-111975368D01*
X126505623Y-111975368D02*
X126424811Y-112056180D01*
X126424811Y-112056180D02*
X126370936Y-112163930D01*
X126370936Y-112163930D02*
X126370936Y-112271680D01*
X126370936Y-112271680D02*
X126397873Y-112352492D01*
X126397873Y-112352492D02*
X126478685Y-112487179D01*
X126478685Y-112487179D02*
X126559498Y-112567991D01*
X126559498Y-112567991D02*
X126694185Y-112648803D01*
X126694185Y-112648803D02*
X126774997Y-112675741D01*
X126774997Y-112675741D02*
X126882746Y-112675741D01*
X126882746Y-112675741D02*
X126990496Y-112621866D01*
X126990496Y-112621866D02*
X127044371Y-112567991D01*
X127044371Y-112567991D02*
X127098246Y-112460241D01*
X127098246Y-112460241D02*
X127098246Y-112406367D01*
X127098246Y-112406367D02*
X126909684Y-112217805D01*
X126909684Y-112217805D02*
X126801934Y-112325554D01*
X127394557Y-112217805D02*
X126828872Y-111652119D01*
X126828872Y-111652119D02*
X127717806Y-111894556D01*
X127717806Y-111894556D02*
X127152120Y-111328871D01*
X127987180Y-111625182D02*
X127421494Y-111059497D01*
X127421494Y-111059497D02*
X127556181Y-110924810D01*
X127556181Y-110924810D02*
X127663931Y-110870935D01*
X127663931Y-110870935D02*
X127771680Y-110870935D01*
X127771680Y-110870935D02*
X127852493Y-110897872D01*
X127852493Y-110897872D02*
X127987180Y-110978685D01*
X127987180Y-110978685D02*
X128067992Y-111059497D01*
X128067992Y-111059497D02*
X128148804Y-111194184D01*
X128148804Y-111194184D02*
X128175741Y-111274996D01*
X128175741Y-111274996D02*
X128175741Y-111382746D01*
X128175741Y-111382746D02*
X128121867Y-111490495D01*
X128121867Y-111490495D02*
X127987180Y-111625182D01*
X126613372Y-127161494D02*
X126532560Y-127188431D01*
X126532560Y-127188431D02*
X126451748Y-127269243D01*
X126451748Y-127269243D02*
X126397873Y-127376993D01*
X126397873Y-127376993D02*
X126397873Y-127484742D01*
X126397873Y-127484742D02*
X126424810Y-127565555D01*
X126424810Y-127565555D02*
X126505623Y-127700242D01*
X126505623Y-127700242D02*
X126586435Y-127781054D01*
X126586435Y-127781054D02*
X126721122Y-127861866D01*
X126721122Y-127861866D02*
X126801934Y-127888803D01*
X126801934Y-127888803D02*
X126909684Y-127888803D01*
X126909684Y-127888803D02*
X127017433Y-127834929D01*
X127017433Y-127834929D02*
X127071308Y-127781054D01*
X127071308Y-127781054D02*
X127125183Y-127673304D01*
X127125183Y-127673304D02*
X127125183Y-127619429D01*
X127125183Y-127619429D02*
X126936621Y-127430868D01*
X126936621Y-127430868D02*
X126828871Y-127538617D01*
X127421494Y-127430868D02*
X126855809Y-126865182D01*
X126855809Y-126865182D02*
X127071308Y-126649683D01*
X127071308Y-126649683D02*
X127152120Y-126622746D01*
X127152120Y-126622746D02*
X127205995Y-126622746D01*
X127205995Y-126622746D02*
X127286807Y-126649683D01*
X127286807Y-126649683D02*
X127367619Y-126730495D01*
X127367619Y-126730495D02*
X127394557Y-126811307D01*
X127394557Y-126811307D02*
X127394557Y-126865182D01*
X127394557Y-126865182D02*
X127367619Y-126945994D01*
X127367619Y-126945994D02*
X127152120Y-127161494D01*
X127690868Y-126030123D02*
X127421494Y-126299497D01*
X127421494Y-126299497D02*
X127663931Y-126595808D01*
X127663931Y-126595808D02*
X127663931Y-126541933D01*
X127663931Y-126541933D02*
X127690868Y-126461121D01*
X127690868Y-126461121D02*
X127825555Y-126326434D01*
X127825555Y-126326434D02*
X127906367Y-126299497D01*
X127906367Y-126299497D02*
X127960242Y-126299497D01*
X127960242Y-126299497D02*
X128041054Y-126326434D01*
X128041054Y-126326434D02*
X128175741Y-126461121D01*
X128175741Y-126461121D02*
X128202679Y-126541933D01*
X128202679Y-126541933D02*
X128202679Y-126595808D01*
X128202679Y-126595808D02*
X128175741Y-126676620D01*
X128175741Y-126676620D02*
X128041054Y-126811307D01*
X128041054Y-126811307D02*
X127960242Y-126838245D01*
X127960242Y-126838245D02*
X127906367Y-126838245D01*
X126586435Y-124648431D02*
X126505623Y-124675368D01*
X126505623Y-124675368D02*
X126424811Y-124756180D01*
X126424811Y-124756180D02*
X126370936Y-124863930D01*
X126370936Y-124863930D02*
X126370936Y-124971680D01*
X126370936Y-124971680D02*
X126397873Y-125052492D01*
X126397873Y-125052492D02*
X126478685Y-125187179D01*
X126478685Y-125187179D02*
X126559498Y-125267991D01*
X126559498Y-125267991D02*
X126694185Y-125348803D01*
X126694185Y-125348803D02*
X126774997Y-125375741D01*
X126774997Y-125375741D02*
X126882746Y-125375741D01*
X126882746Y-125375741D02*
X126990496Y-125321866D01*
X126990496Y-125321866D02*
X127044371Y-125267991D01*
X127044371Y-125267991D02*
X127098246Y-125160241D01*
X127098246Y-125160241D02*
X127098246Y-125106367D01*
X127098246Y-125106367D02*
X126909684Y-124917805D01*
X126909684Y-124917805D02*
X126801934Y-125025554D01*
X127394557Y-124917805D02*
X126828872Y-124352119D01*
X126828872Y-124352119D02*
X127717806Y-124594556D01*
X127717806Y-124594556D02*
X127152120Y-124028871D01*
X127987180Y-124325182D02*
X127421494Y-123759497D01*
X127421494Y-123759497D02*
X127556181Y-123624810D01*
X127556181Y-123624810D02*
X127663931Y-123570935D01*
X127663931Y-123570935D02*
X127771680Y-123570935D01*
X127771680Y-123570935D02*
X127852493Y-123597872D01*
X127852493Y-123597872D02*
X127987180Y-123678685D01*
X127987180Y-123678685D02*
X128067992Y-123759497D01*
X128067992Y-123759497D02*
X128148804Y-123894184D01*
X128148804Y-123894184D02*
X128175741Y-123974996D01*
X128175741Y-123974996D02*
X128175741Y-124082746D01*
X128175741Y-124082746D02*
X128121867Y-124190495D01*
X128121867Y-124190495D02*
X127987180Y-124325182D01*
X126597998Y-109650868D02*
X126517185Y-109677805D01*
X126517185Y-109677805D02*
X126436373Y-109758618D01*
X126436373Y-109758618D02*
X126382498Y-109866367D01*
X126382498Y-109866367D02*
X126382498Y-109974117D01*
X126382498Y-109974117D02*
X126409436Y-110054929D01*
X126409436Y-110054929D02*
X126490248Y-110189616D01*
X126490248Y-110189616D02*
X126571060Y-110270428D01*
X126571060Y-110270428D02*
X126705747Y-110351241D01*
X126705747Y-110351241D02*
X126786560Y-110378178D01*
X126786560Y-110378178D02*
X126894309Y-110378178D01*
X126894309Y-110378178D02*
X127002059Y-110324303D01*
X127002059Y-110324303D02*
X127055934Y-110270428D01*
X127055934Y-110270428D02*
X127109808Y-110162679D01*
X127109808Y-110162679D02*
X127109808Y-110108804D01*
X127109808Y-110108804D02*
X126921247Y-109920242D01*
X126921247Y-109920242D02*
X126813497Y-110027992D01*
X127406120Y-109920242D02*
X126840434Y-109354557D01*
X126840434Y-109354557D02*
X127055934Y-109139057D01*
X127055934Y-109139057D02*
X127136746Y-109112120D01*
X127136746Y-109112120D02*
X127190621Y-109112120D01*
X127190621Y-109112120D02*
X127271433Y-109139057D01*
X127271433Y-109139057D02*
X127352245Y-109219870D01*
X127352245Y-109219870D02*
X127379182Y-109300682D01*
X127379182Y-109300682D02*
X127379182Y-109354557D01*
X127379182Y-109354557D02*
X127352245Y-109435369D01*
X127352245Y-109435369D02*
X127136746Y-109650868D01*
X128268117Y-109058245D02*
X127944868Y-109381494D01*
X128106492Y-109219870D02*
X127540807Y-108654184D01*
X127540807Y-108654184D02*
X127567744Y-108788871D01*
X127567744Y-108788871D02*
X127567744Y-108896621D01*
X127567744Y-108896621D02*
X127540807Y-108977433D01*
X128052618Y-108142373D02*
X128106492Y-108088499D01*
X128106492Y-108088499D02*
X128187305Y-108061561D01*
X128187305Y-108061561D02*
X128241179Y-108061561D01*
X128241179Y-108061561D02*
X128321992Y-108088499D01*
X128321992Y-108088499D02*
X128456679Y-108169311D01*
X128456679Y-108169311D02*
X128591366Y-108303998D01*
X128591366Y-108303998D02*
X128672178Y-108438685D01*
X128672178Y-108438685D02*
X128699115Y-108519497D01*
X128699115Y-108519497D02*
X128699115Y-108573372D01*
X128699115Y-108573372D02*
X128672178Y-108654184D01*
X128672178Y-108654184D02*
X128618303Y-108708059D01*
X128618303Y-108708059D02*
X128537491Y-108734996D01*
X128537491Y-108734996D02*
X128483616Y-108734996D01*
X128483616Y-108734996D02*
X128402804Y-108708059D01*
X128402804Y-108708059D02*
X128268117Y-108627247D01*
X128268117Y-108627247D02*
X128133430Y-108492560D01*
X128133430Y-108492560D02*
X128052618Y-108357873D01*
X128052618Y-108357873D02*
X128025680Y-108277060D01*
X128025680Y-108277060D02*
X128025680Y-108223186D01*
X128025680Y-108223186D02*
X128052618Y-108142373D01*
X100986435Y-137348431D02*
X100905623Y-137375368D01*
X100905623Y-137375368D02*
X100824811Y-137456180D01*
X100824811Y-137456180D02*
X100770936Y-137563930D01*
X100770936Y-137563930D02*
X100770936Y-137671680D01*
X100770936Y-137671680D02*
X100797873Y-137752492D01*
X100797873Y-137752492D02*
X100878685Y-137887179D01*
X100878685Y-137887179D02*
X100959498Y-137967991D01*
X100959498Y-137967991D02*
X101094185Y-138048803D01*
X101094185Y-138048803D02*
X101174997Y-138075741D01*
X101174997Y-138075741D02*
X101282746Y-138075741D01*
X101282746Y-138075741D02*
X101390496Y-138021866D01*
X101390496Y-138021866D02*
X101444371Y-137967991D01*
X101444371Y-137967991D02*
X101498246Y-137860241D01*
X101498246Y-137860241D02*
X101498246Y-137806367D01*
X101498246Y-137806367D02*
X101309684Y-137617805D01*
X101309684Y-137617805D02*
X101201934Y-137725554D01*
X101794557Y-137617805D02*
X101228872Y-137052119D01*
X101228872Y-137052119D02*
X102117806Y-137294556D01*
X102117806Y-137294556D02*
X101552120Y-136728871D01*
X102387180Y-137025182D02*
X101821494Y-136459497D01*
X101821494Y-136459497D02*
X101956181Y-136324810D01*
X101956181Y-136324810D02*
X102063931Y-136270935D01*
X102063931Y-136270935D02*
X102171680Y-136270935D01*
X102171680Y-136270935D02*
X102252493Y-136297872D01*
X102252493Y-136297872D02*
X102387180Y-136378685D01*
X102387180Y-136378685D02*
X102467992Y-136459497D01*
X102467992Y-136459497D02*
X102548804Y-136594184D01*
X102548804Y-136594184D02*
X102575741Y-136674996D01*
X102575741Y-136674996D02*
X102575741Y-136782746D01*
X102575741Y-136782746D02*
X102521867Y-136890495D01*
X102521867Y-136890495D02*
X102387180Y-137025182D01*
X126613372Y-132241494D02*
X126532560Y-132268431D01*
X126532560Y-132268431D02*
X126451748Y-132349243D01*
X126451748Y-132349243D02*
X126397873Y-132456993D01*
X126397873Y-132456993D02*
X126397873Y-132564742D01*
X126397873Y-132564742D02*
X126424810Y-132645555D01*
X126424810Y-132645555D02*
X126505623Y-132780242D01*
X126505623Y-132780242D02*
X126586435Y-132861054D01*
X126586435Y-132861054D02*
X126721122Y-132941866D01*
X126721122Y-132941866D02*
X126801934Y-132968803D01*
X126801934Y-132968803D02*
X126909684Y-132968803D01*
X126909684Y-132968803D02*
X127017433Y-132914929D01*
X127017433Y-132914929D02*
X127071308Y-132861054D01*
X127071308Y-132861054D02*
X127125183Y-132753304D01*
X127125183Y-132753304D02*
X127125183Y-132699429D01*
X127125183Y-132699429D02*
X126936621Y-132510868D01*
X126936621Y-132510868D02*
X126828871Y-132618617D01*
X127421494Y-132510868D02*
X126855809Y-131945182D01*
X126855809Y-131945182D02*
X127071308Y-131729683D01*
X127071308Y-131729683D02*
X127152120Y-131702746D01*
X127152120Y-131702746D02*
X127205995Y-131702746D01*
X127205995Y-131702746D02*
X127286807Y-131729683D01*
X127286807Y-131729683D02*
X127367619Y-131810495D01*
X127367619Y-131810495D02*
X127394557Y-131891307D01*
X127394557Y-131891307D02*
X127394557Y-131945182D01*
X127394557Y-131945182D02*
X127367619Y-132025994D01*
X127367619Y-132025994D02*
X127152120Y-132241494D01*
X127367619Y-131433372D02*
X127717806Y-131083185D01*
X127717806Y-131083185D02*
X127744743Y-131487246D01*
X127744743Y-131487246D02*
X127825555Y-131406434D01*
X127825555Y-131406434D02*
X127906367Y-131379497D01*
X127906367Y-131379497D02*
X127960242Y-131379497D01*
X127960242Y-131379497D02*
X128041054Y-131406434D01*
X128041054Y-131406434D02*
X128175741Y-131541121D01*
X128175741Y-131541121D02*
X128202679Y-131621933D01*
X128202679Y-131621933D02*
X128202679Y-131675808D01*
X128202679Y-131675808D02*
X128175741Y-131756620D01*
X128175741Y-131756620D02*
X128014117Y-131918245D01*
X128014117Y-131918245D02*
X127933305Y-131945182D01*
X127933305Y-131945182D02*
X127879430Y-131945182D01*
X126513372Y-119571494D02*
X126432560Y-119598431D01*
X126432560Y-119598431D02*
X126351748Y-119679243D01*
X126351748Y-119679243D02*
X126297873Y-119786993D01*
X126297873Y-119786993D02*
X126297873Y-119894742D01*
X126297873Y-119894742D02*
X126324810Y-119975555D01*
X126324810Y-119975555D02*
X126405623Y-120110242D01*
X126405623Y-120110242D02*
X126486435Y-120191054D01*
X126486435Y-120191054D02*
X126621122Y-120271866D01*
X126621122Y-120271866D02*
X126701934Y-120298803D01*
X126701934Y-120298803D02*
X126809684Y-120298803D01*
X126809684Y-120298803D02*
X126917433Y-120244929D01*
X126917433Y-120244929D02*
X126971308Y-120191054D01*
X126971308Y-120191054D02*
X127025183Y-120083304D01*
X127025183Y-120083304D02*
X127025183Y-120029429D01*
X127025183Y-120029429D02*
X126836621Y-119840868D01*
X126836621Y-119840868D02*
X126728871Y-119948617D01*
X127321494Y-119840868D02*
X126755809Y-119275182D01*
X126755809Y-119275182D02*
X126971308Y-119059683D01*
X126971308Y-119059683D02*
X127052120Y-119032746D01*
X127052120Y-119032746D02*
X127105995Y-119032746D01*
X127105995Y-119032746D02*
X127186807Y-119059683D01*
X127186807Y-119059683D02*
X127267619Y-119140495D01*
X127267619Y-119140495D02*
X127294557Y-119221307D01*
X127294557Y-119221307D02*
X127294557Y-119275182D01*
X127294557Y-119275182D02*
X127267619Y-119355994D01*
X127267619Y-119355994D02*
X127052120Y-119571494D01*
X127267619Y-118763372D02*
X127644743Y-118386248D01*
X127644743Y-118386248D02*
X127967992Y-119194370D01*
X122082074Y-63704065D02*
X122082074Y-64341486D01*
X122082074Y-64341486D02*
X122119570Y-64416476D01*
X122119570Y-64416476D02*
X122157065Y-64453972D01*
X122157065Y-64453972D02*
X122232056Y-64491467D01*
X122232056Y-64491467D02*
X122382037Y-64491467D01*
X122382037Y-64491467D02*
X122457028Y-64453972D01*
X122457028Y-64453972D02*
X122494523Y-64416476D01*
X122494523Y-64416476D02*
X122532018Y-64341486D01*
X122532018Y-64341486D02*
X122532018Y-63704065D01*
X122831981Y-63704065D02*
X123319420Y-63704065D01*
X123319420Y-63704065D02*
X123056953Y-64004028D01*
X123056953Y-64004028D02*
X123169439Y-64004028D01*
X123169439Y-64004028D02*
X123244429Y-64041523D01*
X123244429Y-64041523D02*
X123281925Y-64079018D01*
X123281925Y-64079018D02*
X123319420Y-64154009D01*
X123319420Y-64154009D02*
X123319420Y-64341486D01*
X123319420Y-64341486D02*
X123281925Y-64416476D01*
X123281925Y-64416476D02*
X123244429Y-64453972D01*
X123244429Y-64453972D02*
X123169439Y-64491467D01*
X123169439Y-64491467D02*
X122944467Y-64491467D01*
X122944467Y-64491467D02*
X122869476Y-64453972D01*
X122869476Y-64453972D02*
X122831981Y-64416476D01*
X116215334Y-70324033D02*
X116682001Y-70324033D01*
X116882001Y-71057366D02*
X116215334Y-71057366D01*
X116215334Y-71057366D02*
X116215334Y-69657366D01*
X116215334Y-69657366D02*
X116882001Y-69657366D01*
X117415334Y-70990700D02*
X117615334Y-71057366D01*
X117615334Y-71057366D02*
X117948668Y-71057366D01*
X117948668Y-71057366D02*
X118082001Y-70990700D01*
X118082001Y-70990700D02*
X118148668Y-70924033D01*
X118148668Y-70924033D02*
X118215334Y-70790700D01*
X118215334Y-70790700D02*
X118215334Y-70657366D01*
X118215334Y-70657366D02*
X118148668Y-70524033D01*
X118148668Y-70524033D02*
X118082001Y-70457366D01*
X118082001Y-70457366D02*
X117948668Y-70390700D01*
X117948668Y-70390700D02*
X117682001Y-70324033D01*
X117682001Y-70324033D02*
X117548668Y-70257366D01*
X117548668Y-70257366D02*
X117482001Y-70190700D01*
X117482001Y-70190700D02*
X117415334Y-70057366D01*
X117415334Y-70057366D02*
X117415334Y-69924033D01*
X117415334Y-69924033D02*
X117482001Y-69790700D01*
X117482001Y-69790700D02*
X117548668Y-69724033D01*
X117548668Y-69724033D02*
X117682001Y-69657366D01*
X117682001Y-69657366D02*
X118015334Y-69657366D01*
X118015334Y-69657366D02*
X118215334Y-69724033D01*
X118815334Y-71057366D02*
X118815334Y-69657366D01*
X118815334Y-69657366D02*
X119348667Y-69657366D01*
X119348667Y-69657366D02*
X119482001Y-69724033D01*
X119482001Y-69724033D02*
X119548667Y-69790700D01*
X119548667Y-69790700D02*
X119615334Y-69924033D01*
X119615334Y-69924033D02*
X119615334Y-70124033D01*
X119615334Y-70124033D02*
X119548667Y-70257366D01*
X119548667Y-70257366D02*
X119482001Y-70324033D01*
X119482001Y-70324033D02*
X119348667Y-70390700D01*
X119348667Y-70390700D02*
X118815334Y-70390700D01*
X120082001Y-69657366D02*
X120948667Y-69657366D01*
X120948667Y-69657366D02*
X120482001Y-70190700D01*
X120482001Y-70190700D02*
X120682001Y-70190700D01*
X120682001Y-70190700D02*
X120815334Y-70257366D01*
X120815334Y-70257366D02*
X120882001Y-70324033D01*
X120882001Y-70324033D02*
X120948667Y-70457366D01*
X120948667Y-70457366D02*
X120948667Y-70790700D01*
X120948667Y-70790700D02*
X120882001Y-70924033D01*
X120882001Y-70924033D02*
X120815334Y-70990700D01*
X120815334Y-70990700D02*
X120682001Y-71057366D01*
X120682001Y-71057366D02*
X120282001Y-71057366D01*
X120282001Y-71057366D02*
X120148667Y-70990700D01*
X120148667Y-70990700D02*
X120082001Y-70924033D01*
X121482000Y-69790700D02*
X121548667Y-69724033D01*
X121548667Y-69724033D02*
X121682000Y-69657366D01*
X121682000Y-69657366D02*
X122015334Y-69657366D01*
X122015334Y-69657366D02*
X122148667Y-69724033D01*
X122148667Y-69724033D02*
X122215334Y-69790700D01*
X122215334Y-69790700D02*
X122282000Y-69924033D01*
X122282000Y-69924033D02*
X122282000Y-70057366D01*
X122282000Y-70057366D02*
X122215334Y-70257366D01*
X122215334Y-70257366D02*
X121415334Y-71057366D01*
X121415334Y-71057366D02*
X122282000Y-71057366D01*
X122882000Y-70524033D02*
X123948667Y-70524033D01*
X125415333Y-70924033D02*
X125348666Y-70990700D01*
X125348666Y-70990700D02*
X125148666Y-71057366D01*
X125148666Y-71057366D02*
X125015333Y-71057366D01*
X125015333Y-71057366D02*
X124815333Y-70990700D01*
X124815333Y-70990700D02*
X124682000Y-70857366D01*
X124682000Y-70857366D02*
X124615333Y-70724033D01*
X124615333Y-70724033D02*
X124548666Y-70457366D01*
X124548666Y-70457366D02*
X124548666Y-70257366D01*
X124548666Y-70257366D02*
X124615333Y-69990700D01*
X124615333Y-69990700D02*
X124682000Y-69857366D01*
X124682000Y-69857366D02*
X124815333Y-69724033D01*
X124815333Y-69724033D02*
X125015333Y-69657366D01*
X125015333Y-69657366D02*
X125148666Y-69657366D01*
X125148666Y-69657366D02*
X125348666Y-69724033D01*
X125348666Y-69724033D02*
X125415333Y-69790700D01*
X125948666Y-70657366D02*
X126615333Y-70657366D01*
X125815333Y-71057366D02*
X126282000Y-69657366D01*
X126282000Y-69657366D02*
X126748666Y-71057366D01*
X127215333Y-71057366D02*
X127215333Y-69657366D01*
X127215333Y-69657366D02*
X127682000Y-70657366D01*
X127682000Y-70657366D02*
X128148666Y-69657366D01*
X128148666Y-69657366D02*
X128148666Y-71057366D01*
X105132428Y-48841819D02*
X104799095Y-48365628D01*
X104561000Y-48841819D02*
X104561000Y-47841819D01*
X104561000Y-47841819D02*
X104941952Y-47841819D01*
X104941952Y-47841819D02*
X105037190Y-47889438D01*
X105037190Y-47889438D02*
X105084809Y-47937057D01*
X105084809Y-47937057D02*
X105132428Y-48032295D01*
X105132428Y-48032295D02*
X105132428Y-48175152D01*
X105132428Y-48175152D02*
X105084809Y-48270390D01*
X105084809Y-48270390D02*
X105037190Y-48318009D01*
X105037190Y-48318009D02*
X104941952Y-48365628D01*
X104941952Y-48365628D02*
X104561000Y-48365628D01*
X105941952Y-48794200D02*
X105846714Y-48841819D01*
X105846714Y-48841819D02*
X105656238Y-48841819D01*
X105656238Y-48841819D02*
X105561000Y-48794200D01*
X105561000Y-48794200D02*
X105513381Y-48698961D01*
X105513381Y-48698961D02*
X105513381Y-48318009D01*
X105513381Y-48318009D02*
X105561000Y-48222771D01*
X105561000Y-48222771D02*
X105656238Y-48175152D01*
X105656238Y-48175152D02*
X105846714Y-48175152D01*
X105846714Y-48175152D02*
X105941952Y-48222771D01*
X105941952Y-48222771D02*
X105989571Y-48318009D01*
X105989571Y-48318009D02*
X105989571Y-48413247D01*
X105989571Y-48413247D02*
X105513381Y-48508485D01*
X106846714Y-48841819D02*
X106846714Y-47841819D01*
X106846714Y-48794200D02*
X106751476Y-48841819D01*
X106751476Y-48841819D02*
X106561000Y-48841819D01*
X106561000Y-48841819D02*
X106465762Y-48794200D01*
X106465762Y-48794200D02*
X106418143Y-48746580D01*
X106418143Y-48746580D02*
X106370524Y-48651342D01*
X106370524Y-48651342D02*
X106370524Y-48365628D01*
X106370524Y-48365628D02*
X106418143Y-48270390D01*
X106418143Y-48270390D02*
X106465762Y-48222771D01*
X106465762Y-48222771D02*
X106561000Y-48175152D01*
X106561000Y-48175152D02*
X106751476Y-48175152D01*
X106751476Y-48175152D02*
X106846714Y-48222771D01*
X107799095Y-48841819D02*
X107322905Y-48841819D01*
X107322905Y-48841819D02*
X107322905Y-47841819D01*
X108132429Y-48318009D02*
X108465762Y-48318009D01*
X108608619Y-48841819D02*
X108132429Y-48841819D01*
X108132429Y-48841819D02*
X108132429Y-47841819D01*
X108132429Y-47841819D02*
X108608619Y-47841819D01*
X109037191Y-48841819D02*
X109037191Y-47841819D01*
X109037191Y-47841819D02*
X109275286Y-47841819D01*
X109275286Y-47841819D02*
X109418143Y-47889438D01*
X109418143Y-47889438D02*
X109513381Y-47984676D01*
X109513381Y-47984676D02*
X109561000Y-48079914D01*
X109561000Y-48079914D02*
X109608619Y-48270390D01*
X109608619Y-48270390D02*
X109608619Y-48413247D01*
X109608619Y-48413247D02*
X109561000Y-48603723D01*
X109561000Y-48603723D02*
X109513381Y-48698961D01*
X109513381Y-48698961D02*
X109418143Y-48794200D01*
X109418143Y-48794200D02*
X109275286Y-48841819D01*
X109275286Y-48841819D02*
X109037191Y-48841819D01*
X104837152Y-86641809D02*
X105503819Y-86641809D01*
X104456200Y-86879904D02*
X105170485Y-87117999D01*
X105170485Y-87117999D02*
X105170485Y-86498952D01*
X105408580Y-86117999D02*
X105456200Y-86070380D01*
X105456200Y-86070380D02*
X105503819Y-86117999D01*
X105503819Y-86117999D02*
X105456200Y-86165618D01*
X105456200Y-86165618D02*
X105408580Y-86117999D01*
X105408580Y-86117999D02*
X105503819Y-86117999D01*
X104503819Y-85737047D02*
X104503819Y-85070381D01*
X104503819Y-85070381D02*
X105503819Y-85498952D01*
X105503819Y-84689428D02*
X104503819Y-84689428D01*
X105503819Y-84118000D02*
X104932390Y-84546571D01*
X104503819Y-84118000D02*
X105075247Y-84689428D01*
X114882119Y-42729328D02*
X115025020Y-42776961D01*
X115025020Y-42776961D02*
X115263189Y-42776961D01*
X115263189Y-42776961D02*
X115358456Y-42729328D01*
X115358456Y-42729328D02*
X115406090Y-42681694D01*
X115406090Y-42681694D02*
X115453723Y-42586427D01*
X115453723Y-42586427D02*
X115453723Y-42491159D01*
X115453723Y-42491159D02*
X115406090Y-42395892D01*
X115406090Y-42395892D02*
X115358456Y-42348258D01*
X115358456Y-42348258D02*
X115263189Y-42300625D01*
X115263189Y-42300625D02*
X115072654Y-42252991D01*
X115072654Y-42252991D02*
X114977387Y-42205357D01*
X114977387Y-42205357D02*
X114929753Y-42157724D01*
X114929753Y-42157724D02*
X114882119Y-42062456D01*
X114882119Y-42062456D02*
X114882119Y-41967189D01*
X114882119Y-41967189D02*
X114929753Y-41871922D01*
X114929753Y-41871922D02*
X114977387Y-41824288D01*
X114977387Y-41824288D02*
X115072654Y-41776654D01*
X115072654Y-41776654D02*
X115310822Y-41776654D01*
X115310822Y-41776654D02*
X115453723Y-41824288D01*
X116454030Y-42776961D02*
X116120594Y-42300625D01*
X115882426Y-42776961D02*
X115882426Y-41776654D01*
X115882426Y-41776654D02*
X116263495Y-41776654D01*
X116263495Y-41776654D02*
X116358763Y-41824288D01*
X116358763Y-41824288D02*
X116406396Y-41871922D01*
X116406396Y-41871922D02*
X116454030Y-41967189D01*
X116454030Y-41967189D02*
X116454030Y-42110090D01*
X116454030Y-42110090D02*
X116406396Y-42205357D01*
X116406396Y-42205357D02*
X116358763Y-42252991D01*
X116358763Y-42252991D02*
X116263495Y-42300625D01*
X116263495Y-42300625D02*
X115882426Y-42300625D01*
X116882733Y-42776961D02*
X116882733Y-41776654D01*
X116882733Y-41776654D02*
X117120901Y-41776654D01*
X117120901Y-41776654D02*
X117263802Y-41824288D01*
X117263802Y-41824288D02*
X117359070Y-41919555D01*
X117359070Y-41919555D02*
X117406703Y-42014823D01*
X117406703Y-42014823D02*
X117454337Y-42205357D01*
X117454337Y-42205357D02*
X117454337Y-42348258D01*
X117454337Y-42348258D02*
X117406703Y-42538793D01*
X117406703Y-42538793D02*
X117359070Y-42634060D01*
X117359070Y-42634060D02*
X117263802Y-42729328D01*
X117263802Y-42729328D02*
X117120901Y-42776961D01*
X117120901Y-42776961D02*
X116882733Y-42776961D01*
X117883040Y-42395892D02*
X118645179Y-42395892D01*
X119312050Y-41776654D02*
X119407317Y-41776654D01*
X119407317Y-41776654D02*
X119502584Y-41824288D01*
X119502584Y-41824288D02*
X119550218Y-41871922D01*
X119550218Y-41871922D02*
X119597852Y-41967189D01*
X119597852Y-41967189D02*
X119645485Y-42157724D01*
X119645485Y-42157724D02*
X119645485Y-42395892D01*
X119645485Y-42395892D02*
X119597852Y-42586427D01*
X119597852Y-42586427D02*
X119550218Y-42681694D01*
X119550218Y-42681694D02*
X119502584Y-42729328D01*
X119502584Y-42729328D02*
X119407317Y-42776961D01*
X119407317Y-42776961D02*
X119312050Y-42776961D01*
X119312050Y-42776961D02*
X119216782Y-42729328D01*
X119216782Y-42729328D02*
X119169149Y-42681694D01*
X119169149Y-42681694D02*
X119121515Y-42586427D01*
X119121515Y-42586427D02*
X119073881Y-42395892D01*
X119073881Y-42395892D02*
X119073881Y-42157724D01*
X119073881Y-42157724D02*
X119121515Y-41967189D01*
X119121515Y-41967189D02*
X119169149Y-41871922D01*
X119169149Y-41871922D02*
X119216782Y-41824288D01*
X119216782Y-41824288D02*
X119312050Y-41776654D01*
X120550525Y-41776654D02*
X120074188Y-41776654D01*
X120074188Y-41776654D02*
X120026554Y-42252991D01*
X120026554Y-42252991D02*
X120074188Y-42205357D01*
X120074188Y-42205357D02*
X120169455Y-42157724D01*
X120169455Y-42157724D02*
X120407624Y-42157724D01*
X120407624Y-42157724D02*
X120502891Y-42205357D01*
X120502891Y-42205357D02*
X120550525Y-42252991D01*
X120550525Y-42252991D02*
X120598158Y-42348258D01*
X120598158Y-42348258D02*
X120598158Y-42586427D01*
X120598158Y-42586427D02*
X120550525Y-42681694D01*
X120550525Y-42681694D02*
X120502891Y-42729328D01*
X120502891Y-42729328D02*
X120407624Y-42776961D01*
X120407624Y-42776961D02*
X120169455Y-42776961D01*
X120169455Y-42776961D02*
X120074188Y-42729328D01*
X120074188Y-42729328D02*
X120026554Y-42681694D01*
X120883960Y-41776654D02*
X121217396Y-42776961D01*
X121217396Y-42776961D02*
X121550831Y-41776654D01*
X121884267Y-42776961D02*
X121884267Y-41776654D01*
X121884267Y-41776654D02*
X122122435Y-41776654D01*
X122122435Y-41776654D02*
X122265336Y-41824288D01*
X122265336Y-41824288D02*
X122360604Y-41919555D01*
X122360604Y-41919555D02*
X122408237Y-42014823D01*
X122408237Y-42014823D02*
X122455871Y-42205357D01*
X122455871Y-42205357D02*
X122455871Y-42348258D01*
X122455871Y-42348258D02*
X122408237Y-42538793D01*
X122408237Y-42538793D02*
X122360604Y-42634060D01*
X122360604Y-42634060D02*
X122265336Y-42729328D01*
X122265336Y-42729328D02*
X122122435Y-42776961D01*
X122122435Y-42776961D02*
X121884267Y-42776961D01*
X123456178Y-42681694D02*
X123408544Y-42729328D01*
X123408544Y-42729328D02*
X123265643Y-42776961D01*
X123265643Y-42776961D02*
X123170376Y-42776961D01*
X123170376Y-42776961D02*
X123027475Y-42729328D01*
X123027475Y-42729328D02*
X122932208Y-42634060D01*
X122932208Y-42634060D02*
X122884574Y-42538793D01*
X122884574Y-42538793D02*
X122836940Y-42348258D01*
X122836940Y-42348258D02*
X122836940Y-42205357D01*
X122836940Y-42205357D02*
X122884574Y-42014823D01*
X122884574Y-42014823D02*
X122932208Y-41919555D01*
X122932208Y-41919555D02*
X123027475Y-41824288D01*
X123027475Y-41824288D02*
X123170376Y-41776654D01*
X123170376Y-41776654D02*
X123265643Y-41776654D01*
X123265643Y-41776654D02*
X123408544Y-41824288D01*
X123408544Y-41824288D02*
X123456178Y-41871922D01*
X123884881Y-42395892D02*
X124647020Y-42395892D01*
X125075722Y-42729328D02*
X125218623Y-42776961D01*
X125218623Y-42776961D02*
X125456792Y-42776961D01*
X125456792Y-42776961D02*
X125552059Y-42729328D01*
X125552059Y-42729328D02*
X125599693Y-42681694D01*
X125599693Y-42681694D02*
X125647326Y-42586427D01*
X125647326Y-42586427D02*
X125647326Y-42491159D01*
X125647326Y-42491159D02*
X125599693Y-42395892D01*
X125599693Y-42395892D02*
X125552059Y-42348258D01*
X125552059Y-42348258D02*
X125456792Y-42300625D01*
X125456792Y-42300625D02*
X125266257Y-42252991D01*
X125266257Y-42252991D02*
X125170990Y-42205357D01*
X125170990Y-42205357D02*
X125123356Y-42157724D01*
X125123356Y-42157724D02*
X125075722Y-42062456D01*
X125075722Y-42062456D02*
X125075722Y-41967189D01*
X125075722Y-41967189D02*
X125123356Y-41871922D01*
X125123356Y-41871922D02*
X125170990Y-41824288D01*
X125170990Y-41824288D02*
X125266257Y-41776654D01*
X125266257Y-41776654D02*
X125504425Y-41776654D01*
X125504425Y-41776654D02*
X125647326Y-41824288D01*
X126552366Y-42776961D02*
X126076029Y-42776961D01*
X126076029Y-42776961D02*
X126076029Y-41776654D01*
X126885801Y-42395892D02*
X127647940Y-42395892D01*
X128695880Y-42681694D02*
X128648246Y-42729328D01*
X128648246Y-42729328D02*
X128505345Y-42776961D01*
X128505345Y-42776961D02*
X128410078Y-42776961D01*
X128410078Y-42776961D02*
X128267177Y-42729328D01*
X128267177Y-42729328D02*
X128171910Y-42634060D01*
X128171910Y-42634060D02*
X128124276Y-42538793D01*
X128124276Y-42538793D02*
X128076642Y-42348258D01*
X128076642Y-42348258D02*
X128076642Y-42205357D01*
X128076642Y-42205357D02*
X128124276Y-42014823D01*
X128124276Y-42014823D02*
X128171910Y-41919555D01*
X128171910Y-41919555D02*
X128267177Y-41824288D01*
X128267177Y-41824288D02*
X128410078Y-41776654D01*
X128410078Y-41776654D02*
X128505345Y-41776654D01*
X128505345Y-41776654D02*
X128648246Y-41824288D01*
X128648246Y-41824288D02*
X128695880Y-41871922D01*
D12*
X104084572Y-41626809D02*
X103798858Y-41626809D01*
X103941715Y-41626809D02*
X103941715Y-41126809D01*
X103941715Y-41126809D02*
X103894096Y-41198238D01*
X103894096Y-41198238D02*
X103846477Y-41245857D01*
X103846477Y-41245857D02*
X103798858Y-41269666D01*
X104298857Y-41626809D02*
X104298857Y-41126809D01*
X104298857Y-41126809D02*
X104584571Y-41626809D01*
X104584571Y-41626809D02*
X104584571Y-41126809D01*
X105036953Y-41293476D02*
X105036953Y-41626809D01*
X104917905Y-41103000D02*
X104798858Y-41460142D01*
X104798858Y-41460142D02*
X105108381Y-41460142D01*
X105394095Y-41126809D02*
X105441714Y-41126809D01*
X105441714Y-41126809D02*
X105489333Y-41150619D01*
X105489333Y-41150619D02*
X105513143Y-41174428D01*
X105513143Y-41174428D02*
X105536952Y-41222047D01*
X105536952Y-41222047D02*
X105560762Y-41317285D01*
X105560762Y-41317285D02*
X105560762Y-41436333D01*
X105560762Y-41436333D02*
X105536952Y-41531571D01*
X105536952Y-41531571D02*
X105513143Y-41579190D01*
X105513143Y-41579190D02*
X105489333Y-41603000D01*
X105489333Y-41603000D02*
X105441714Y-41626809D01*
X105441714Y-41626809D02*
X105394095Y-41626809D01*
X105394095Y-41626809D02*
X105346476Y-41603000D01*
X105346476Y-41603000D02*
X105322667Y-41579190D01*
X105322667Y-41579190D02*
X105298857Y-41531571D01*
X105298857Y-41531571D02*
X105275048Y-41436333D01*
X105275048Y-41436333D02*
X105275048Y-41317285D01*
X105275048Y-41317285D02*
X105298857Y-41222047D01*
X105298857Y-41222047D02*
X105322667Y-41174428D01*
X105322667Y-41174428D02*
X105346476Y-41150619D01*
X105346476Y-41150619D02*
X105394095Y-41126809D01*
X105870285Y-41126809D02*
X105917904Y-41126809D01*
X105917904Y-41126809D02*
X105965523Y-41150619D01*
X105965523Y-41150619D02*
X105989333Y-41174428D01*
X105989333Y-41174428D02*
X106013142Y-41222047D01*
X106013142Y-41222047D02*
X106036952Y-41317285D01*
X106036952Y-41317285D02*
X106036952Y-41436333D01*
X106036952Y-41436333D02*
X106013142Y-41531571D01*
X106013142Y-41531571D02*
X105989333Y-41579190D01*
X105989333Y-41579190D02*
X105965523Y-41603000D01*
X105965523Y-41603000D02*
X105917904Y-41626809D01*
X105917904Y-41626809D02*
X105870285Y-41626809D01*
X105870285Y-41626809D02*
X105822666Y-41603000D01*
X105822666Y-41603000D02*
X105798857Y-41579190D01*
X105798857Y-41579190D02*
X105775047Y-41531571D01*
X105775047Y-41531571D02*
X105751238Y-41436333D01*
X105751238Y-41436333D02*
X105751238Y-41317285D01*
X105751238Y-41317285D02*
X105775047Y-41222047D01*
X105775047Y-41222047D02*
X105798857Y-41174428D01*
X105798857Y-41174428D02*
X105822666Y-41150619D01*
X105822666Y-41150619D02*
X105870285Y-41126809D01*
X106465523Y-41293476D02*
X106465523Y-41626809D01*
X106346475Y-41103000D02*
X106227428Y-41460142D01*
X106227428Y-41460142D02*
X106536951Y-41460142D01*
X131897572Y-143861809D02*
X131611858Y-143861809D01*
X131754715Y-143861809D02*
X131754715Y-143361809D01*
X131754715Y-143361809D02*
X131707096Y-143433238D01*
X131707096Y-143433238D02*
X131659477Y-143480857D01*
X131659477Y-143480857D02*
X131611858Y-143504666D01*
X132111857Y-143861809D02*
X132111857Y-143361809D01*
X132111857Y-143361809D02*
X132397571Y-143861809D01*
X132397571Y-143861809D02*
X132397571Y-143361809D01*
X132849953Y-143528476D02*
X132849953Y-143861809D01*
X132730905Y-143338000D02*
X132611858Y-143695142D01*
X132611858Y-143695142D02*
X132921381Y-143695142D01*
X133207095Y-143361809D02*
X133254714Y-143361809D01*
X133254714Y-143361809D02*
X133302333Y-143385619D01*
X133302333Y-143385619D02*
X133326143Y-143409428D01*
X133326143Y-143409428D02*
X133349952Y-143457047D01*
X133349952Y-143457047D02*
X133373762Y-143552285D01*
X133373762Y-143552285D02*
X133373762Y-143671333D01*
X133373762Y-143671333D02*
X133349952Y-143766571D01*
X133349952Y-143766571D02*
X133326143Y-143814190D01*
X133326143Y-143814190D02*
X133302333Y-143838000D01*
X133302333Y-143838000D02*
X133254714Y-143861809D01*
X133254714Y-143861809D02*
X133207095Y-143861809D01*
X133207095Y-143861809D02*
X133159476Y-143838000D01*
X133159476Y-143838000D02*
X133135667Y-143814190D01*
X133135667Y-143814190D02*
X133111857Y-143766571D01*
X133111857Y-143766571D02*
X133088048Y-143671333D01*
X133088048Y-143671333D02*
X133088048Y-143552285D01*
X133088048Y-143552285D02*
X133111857Y-143457047D01*
X133111857Y-143457047D02*
X133135667Y-143409428D01*
X133135667Y-143409428D02*
X133159476Y-143385619D01*
X133159476Y-143385619D02*
X133207095Y-143361809D01*
X133683285Y-143361809D02*
X133730904Y-143361809D01*
X133730904Y-143361809D02*
X133778523Y-143385619D01*
X133778523Y-143385619D02*
X133802333Y-143409428D01*
X133802333Y-143409428D02*
X133826142Y-143457047D01*
X133826142Y-143457047D02*
X133849952Y-143552285D01*
X133849952Y-143552285D02*
X133849952Y-143671333D01*
X133849952Y-143671333D02*
X133826142Y-143766571D01*
X133826142Y-143766571D02*
X133802333Y-143814190D01*
X133802333Y-143814190D02*
X133778523Y-143838000D01*
X133778523Y-143838000D02*
X133730904Y-143861809D01*
X133730904Y-143861809D02*
X133683285Y-143861809D01*
X133683285Y-143861809D02*
X133635666Y-143838000D01*
X133635666Y-143838000D02*
X133611857Y-143814190D01*
X133611857Y-143814190D02*
X133588047Y-143766571D01*
X133588047Y-143766571D02*
X133564238Y-143671333D01*
X133564238Y-143671333D02*
X133564238Y-143552285D01*
X133564238Y-143552285D02*
X133588047Y-143457047D01*
X133588047Y-143457047D02*
X133611857Y-143409428D01*
X133611857Y-143409428D02*
X133635666Y-143385619D01*
X133635666Y-143385619D02*
X133683285Y-143361809D01*
X134278523Y-143528476D02*
X134278523Y-143861809D01*
X134159475Y-143338000D02*
X134040428Y-143695142D01*
X134040428Y-143695142D02*
X134349951Y-143695142D01*
D11*
X141863095Y-47175009D02*
X142005952Y-47222628D01*
X142005952Y-47222628D02*
X142053571Y-47270247D01*
X142053571Y-47270247D02*
X142101190Y-47365485D01*
X142101190Y-47365485D02*
X142101190Y-47508342D01*
X142101190Y-47508342D02*
X142053571Y-47603580D01*
X142053571Y-47603580D02*
X142005952Y-47651200D01*
X142005952Y-47651200D02*
X141910714Y-47698819D01*
X141910714Y-47698819D02*
X141529762Y-47698819D01*
X141529762Y-47698819D02*
X141529762Y-46698819D01*
X141529762Y-46698819D02*
X141863095Y-46698819D01*
X141863095Y-46698819D02*
X141958333Y-46746438D01*
X141958333Y-46746438D02*
X142005952Y-46794057D01*
X142005952Y-46794057D02*
X142053571Y-46889295D01*
X142053571Y-46889295D02*
X142053571Y-46984533D01*
X142053571Y-46984533D02*
X142005952Y-47079771D01*
X142005952Y-47079771D02*
X141958333Y-47127390D01*
X141958333Y-47127390D02*
X141863095Y-47175009D01*
X141863095Y-47175009D02*
X141529762Y-47175009D01*
X142482143Y-47413104D02*
X142958333Y-47413104D01*
X142386905Y-47698819D02*
X142720238Y-46698819D01*
X142720238Y-46698819D02*
X143053571Y-47698819D01*
X143244048Y-46698819D02*
X143815476Y-46698819D01*
X143529762Y-47698819D02*
X143529762Y-46698819D01*
X144005953Y-46698819D02*
X144577381Y-46698819D01*
X144291667Y-47698819D02*
X144291667Y-46698819D01*
X144672620Y-47794057D02*
X145434524Y-47794057D01*
X145672620Y-47698819D02*
X145672620Y-46698819D01*
X146148810Y-47698819D02*
X146148810Y-46698819D01*
X146148810Y-46698819D02*
X146720238Y-47698819D01*
X146720238Y-47698819D02*
X146720238Y-46698819D01*
X106307819Y-66730381D02*
X105831628Y-67063714D01*
X106307819Y-67301809D02*
X105307819Y-67301809D01*
X105307819Y-67301809D02*
X105307819Y-66920857D01*
X105307819Y-66920857D02*
X105355438Y-66825619D01*
X105355438Y-66825619D02*
X105403057Y-66778000D01*
X105403057Y-66778000D02*
X105498295Y-66730381D01*
X105498295Y-66730381D02*
X105641152Y-66730381D01*
X105641152Y-66730381D02*
X105736390Y-66778000D01*
X105736390Y-66778000D02*
X105784009Y-66825619D01*
X105784009Y-66825619D02*
X105831628Y-66920857D01*
X105831628Y-66920857D02*
X105831628Y-67301809D01*
X105784009Y-66301809D02*
X105784009Y-65968476D01*
X106307819Y-65825619D02*
X106307819Y-66301809D01*
X106307819Y-66301809D02*
X105307819Y-66301809D01*
X105307819Y-66301809D02*
X105307819Y-65825619D01*
X106260200Y-65444666D02*
X106307819Y-65301809D01*
X106307819Y-65301809D02*
X106307819Y-65063714D01*
X106307819Y-65063714D02*
X106260200Y-64968476D01*
X106260200Y-64968476D02*
X106212580Y-64920857D01*
X106212580Y-64920857D02*
X106117342Y-64873238D01*
X106117342Y-64873238D02*
X106022104Y-64873238D01*
X106022104Y-64873238D02*
X105926866Y-64920857D01*
X105926866Y-64920857D02*
X105879247Y-64968476D01*
X105879247Y-64968476D02*
X105831628Y-65063714D01*
X105831628Y-65063714D02*
X105784009Y-65254190D01*
X105784009Y-65254190D02*
X105736390Y-65349428D01*
X105736390Y-65349428D02*
X105688771Y-65397047D01*
X105688771Y-65397047D02*
X105593533Y-65444666D01*
X105593533Y-65444666D02*
X105498295Y-65444666D01*
X105498295Y-65444666D02*
X105403057Y-65397047D01*
X105403057Y-65397047D02*
X105355438Y-65349428D01*
X105355438Y-65349428D02*
X105307819Y-65254190D01*
X105307819Y-65254190D02*
X105307819Y-65016095D01*
X105307819Y-65016095D02*
X105355438Y-64873238D01*
X105784009Y-64444666D02*
X105784009Y-64111333D01*
X106307819Y-63968476D02*
X106307819Y-64444666D01*
X106307819Y-64444666D02*
X105307819Y-64444666D01*
X105307819Y-64444666D02*
X105307819Y-63968476D01*
X105307819Y-63682761D02*
X105307819Y-63111333D01*
X106307819Y-63397047D02*
X105307819Y-63397047D01*
X101165819Y-51212666D02*
X101165819Y-51784094D01*
X101165819Y-51498380D02*
X100165819Y-51498380D01*
X100165819Y-51498380D02*
X100308676Y-51593618D01*
X100308676Y-51593618D02*
X100403914Y-51688856D01*
X100403914Y-51688856D02*
X100451533Y-51784094D01*
X100165819Y-50307904D02*
X100165819Y-50784094D01*
X100165819Y-50784094D02*
X100642009Y-50831713D01*
X100642009Y-50831713D02*
X100594390Y-50784094D01*
X100594390Y-50784094D02*
X100546771Y-50688856D01*
X100546771Y-50688856D02*
X100546771Y-50450761D01*
X100546771Y-50450761D02*
X100594390Y-50355523D01*
X100594390Y-50355523D02*
X100642009Y-50307904D01*
X100642009Y-50307904D02*
X100737247Y-50260285D01*
X100737247Y-50260285D02*
X100975342Y-50260285D01*
X100975342Y-50260285D02*
X101070580Y-50307904D01*
X101070580Y-50307904D02*
X101118200Y-50355523D01*
X101118200Y-50355523D02*
X101165819Y-50450761D01*
X101165819Y-50450761D02*
X101165819Y-50688856D01*
X101165819Y-50688856D02*
X101118200Y-50784094D01*
X101118200Y-50784094D02*
X101070580Y-50831713D01*
X100165819Y-49641237D02*
X100165819Y-49545999D01*
X100165819Y-49545999D02*
X100213438Y-49450761D01*
X100213438Y-49450761D02*
X100261057Y-49403142D01*
X100261057Y-49403142D02*
X100356295Y-49355523D01*
X100356295Y-49355523D02*
X100546771Y-49307904D01*
X100546771Y-49307904D02*
X100784866Y-49307904D01*
X100784866Y-49307904D02*
X100975342Y-49355523D01*
X100975342Y-49355523D02*
X101070580Y-49403142D01*
X101070580Y-49403142D02*
X101118200Y-49450761D01*
X101118200Y-49450761D02*
X101165819Y-49545999D01*
X101165819Y-49545999D02*
X101165819Y-49641237D01*
X101165819Y-49641237D02*
X101118200Y-49736475D01*
X101118200Y-49736475D02*
X101070580Y-49784094D01*
X101070580Y-49784094D02*
X100975342Y-49831713D01*
X100975342Y-49831713D02*
X100784866Y-49879332D01*
X100784866Y-49879332D02*
X100546771Y-49879332D01*
X100546771Y-49879332D02*
X100356295Y-49831713D01*
X100356295Y-49831713D02*
X100261057Y-49784094D01*
X100261057Y-49784094D02*
X100213438Y-49736475D01*
X100213438Y-49736475D02*
X100165819Y-49641237D01*
D13*
X140843000Y-34036000D02*
X130683000Y-34036000D01*
X130683000Y-41656000D02*
X140843000Y-41656000D01*
X140843000Y-40386000D02*
X130683000Y-40386000D01*
X140843000Y-41656000D02*
X140843000Y-34036000D01*
X130683000Y-34036000D02*
X130683000Y-41656000D01*
X142330000Y-98782000D02*
G75*
G03*
X142330000Y-95782001I-6400000J1500000D01*
G01*
X142160000Y-97282000D02*
G75*
G03*
X129700000Y-97282000I-6230000J0D01*
G01*
X129700000Y-97282000D02*
G75*
G03*
X142160000Y-97282000I6230000J0D01*
G01*
X131080000Y-107570000D02*
X131080000Y-115250000D01*
X131080000Y-107570000D02*
X133740000Y-107570000D01*
X131080000Y-115250000D02*
X133740000Y-115250000D01*
X132410000Y-104970000D02*
X133740000Y-104970000D01*
X133740000Y-104970000D02*
X133740000Y-106300000D01*
X133740000Y-107570000D02*
X133740000Y-115250000D01*
X107083000Y-52887000D02*
X103483000Y-52887000D01*
X105283000Y-57337000D02*
G75*
G03*
X107121478Y-52898522I0J2600000D01*
G01*
X103444522Y-52898522D02*
G75*
G03*
X105283000Y-57337000I1838478J-1838478D01*
G01*
X146977500Y-131790000D02*
X146977500Y-144510000D01*
X145757500Y-131790000D02*
X145757500Y-133010000D01*
X138557500Y-131790000D02*
X146977500Y-131790000D01*
X145757500Y-133010000D02*
X140757500Y-133010000D01*
X141757500Y-133010000D02*
X141757500Y-143290000D01*
X140757500Y-133010000D02*
X140757500Y-131790000D01*
X140757500Y-133010000D02*
X138557500Y-133010000D01*
X138557500Y-133010000D02*
X138557500Y-131790000D01*
X145177500Y-134080000D02*
X145257500Y-134400000D01*
X141757500Y-134080000D02*
X145177500Y-134080000D01*
X138067500Y-134100000D02*
X138067500Y-134700000D01*
X145257500Y-134400000D02*
X145177500Y-134720000D01*
X141757500Y-134400000D02*
X141757500Y-134080000D01*
X138667500Y-134400000D02*
X138067500Y-134100000D01*
X138067500Y-134700000D02*
X138667500Y-134400000D01*
X145177500Y-134720000D02*
X141757500Y-134720000D01*
X141757500Y-134720000D02*
X141757500Y-134400000D01*
X140757500Y-135570000D02*
X140757500Y-135730000D01*
X145177500Y-136580000D02*
X145257500Y-136900000D01*
X141757500Y-136580000D02*
X145177500Y-136580000D01*
X145257500Y-136900000D02*
X145177500Y-137220000D01*
X141757500Y-136900000D02*
X141757500Y-136580000D01*
X145177500Y-137220000D02*
X141757500Y-137220000D01*
X141757500Y-137220000D02*
X141757500Y-136900000D01*
X140757500Y-138070000D02*
X140757500Y-138230000D01*
X145177500Y-139080000D02*
X145257500Y-139400000D01*
X141757500Y-139080000D02*
X145177500Y-139080000D01*
X145257500Y-139400000D02*
X145177500Y-139720000D01*
X141757500Y-139400000D02*
X141757500Y-139080000D01*
X145177500Y-139720000D02*
X141757500Y-139720000D01*
X141757500Y-139720000D02*
X141757500Y-139400000D01*
X140757500Y-140570000D02*
X140757500Y-140730000D01*
X145177500Y-141580000D02*
X145257500Y-141900000D01*
X141757500Y-141580000D02*
X145177500Y-141580000D01*
X145257500Y-141900000D02*
X145177500Y-142220000D01*
X141757500Y-141900000D02*
X141757500Y-141580000D01*
X145177500Y-142220000D02*
X141757500Y-142220000D01*
X141757500Y-142220000D02*
X141757500Y-141900000D01*
X145757500Y-143290000D02*
X140757500Y-143290000D01*
X140757500Y-143290000D02*
X140757500Y-144510000D01*
X138557500Y-143290000D02*
X140757500Y-143290000D01*
X146977500Y-144510000D02*
X138557500Y-144510000D01*
X145757500Y-144510000D02*
X145757500Y-143290000D01*
X138557500Y-144510000D02*
X138557500Y-143290000D01*
X104000000Y-92650000D02*
X110800000Y-92650000D01*
X104000000Y-95450000D02*
X104000000Y-95050000D01*
X104000000Y-98050000D02*
X104000000Y-97650000D01*
X104000000Y-100550000D02*
X104000000Y-100150000D01*
X104000000Y-103050000D02*
X104000000Y-102650000D01*
X104000000Y-105650000D02*
X104000000Y-105250000D01*
X104000000Y-108150000D02*
X104000000Y-107750000D01*
X104000000Y-110750000D02*
X104000000Y-110350000D01*
X104000000Y-113250000D02*
X104000000Y-112850000D01*
X104000000Y-115850000D02*
X104000000Y-115450000D01*
X104000000Y-118350000D02*
X104000000Y-117950000D01*
X104000000Y-120850000D02*
X104000000Y-120450000D01*
X104000000Y-123450000D02*
X104000000Y-123050000D01*
X104000000Y-125950000D02*
X104000000Y-125550000D01*
X104000000Y-128550000D02*
X104000000Y-128150000D01*
X104000000Y-131050000D02*
X104000000Y-130650000D01*
X104000000Y-133550000D02*
X104000000Y-133150000D01*
X104000000Y-136150000D02*
X104000000Y-135750000D01*
X104000000Y-138650000D02*
X104000000Y-138250000D01*
X104000000Y-141250000D02*
X104000000Y-140850000D01*
X104000000Y-143650000D02*
X104000000Y-143350000D01*
X113400000Y-92650000D02*
X113000000Y-92650000D01*
X116000000Y-92650000D02*
X115600000Y-92650000D01*
X118200000Y-92650000D02*
X125000000Y-92650000D01*
X121993000Y-140983000D02*
X121993000Y-143650000D01*
X125000000Y-95450000D02*
X125000000Y-95050000D01*
X125000000Y-98050000D02*
X125000000Y-97650000D01*
X125000000Y-100550000D02*
X125000000Y-100150000D01*
X125000000Y-103050000D02*
X125000000Y-102650000D01*
X125000000Y-105650000D02*
X125000000Y-105250000D01*
X125000000Y-108150000D02*
X125000000Y-107750000D01*
X125000000Y-110750000D02*
X125000000Y-110350000D01*
X125000000Y-113250000D02*
X125000000Y-112850000D01*
X125000000Y-115850000D02*
X125000000Y-115450000D01*
X125000000Y-118350000D02*
X125000000Y-117950000D01*
X125000000Y-120850000D02*
X125000000Y-120450000D01*
X125000000Y-123450000D02*
X125000000Y-123050000D01*
X125000000Y-125950000D02*
X125000000Y-125550000D01*
X125000000Y-128550000D02*
X125000000Y-128150000D01*
X125000000Y-131050000D02*
X125000000Y-130650000D01*
X125000000Y-133550000D02*
X125000000Y-133150000D01*
X125000000Y-136150000D02*
X125000000Y-135750000D01*
X125000000Y-138650000D02*
X125000000Y-138250000D01*
X125000000Y-140983000D02*
X121993000Y-140983000D01*
X125000000Y-141250000D02*
X125000000Y-140850000D01*
X125000000Y-143650000D02*
X104000000Y-143650000D01*
X125000000Y-143650000D02*
X125000000Y-143350000D01*
D14*
X136652000Y-90170000D02*
X136652000Y-50165000D01*
X136652000Y-50165000D02*
X108712000Y-50165000D01*
X108712000Y-90170000D02*
X136652000Y-90170000D01*
X108712000Y-50165000D02*
X108712000Y-90170000D01*
X126698090Y-59055000D02*
G75*
G03*
X118665910Y-59055000I-4016090J0D01*
G01*
X118665910Y-59055000D02*
G75*
G03*
X126698090Y-59055000I4016090J0D01*
G01*
D13*
X105369001Y-46701515D02*
G75*
G03*
X108601334Y-46544608I1559999J1235515D01*
G01*
X105888040Y-46545999D02*
G75*
G03*
X107970129Y-46545836I1040960J1079999D01*
G01*
X107970129Y-44386164D02*
G75*
G03*
X105888040Y-44386001I-1041129J-1079836D01*
G01*
X108601334Y-44387392D02*
G75*
G03*
X105369001Y-44230485I-1672334J-1078608D01*
G01*
X105369000Y-46546000D02*
X105369000Y-46702000D01*
X105369000Y-44230000D02*
X105369000Y-44386000D01*
X105029000Y-89638000D02*
X105029000Y-88868000D01*
X103659000Y-88868000D02*
X106399000Y-88868000D01*
X106399000Y-88868000D02*
X106399000Y-82328000D01*
X103659000Y-82328000D02*
X103659000Y-88868000D01*
X106399000Y-82328000D02*
X103659000Y-82328000D01*
X105029000Y-81558000D02*
X105029000Y-82328000D01*
D14*
X110973000Y-34033000D02*
X130073000Y-34033000D01*
X110973000Y-49533000D02*
X110973000Y-34033000D01*
X130073000Y-34033000D02*
X130073000Y-49533000D01*
X130073000Y-49533000D02*
X110973000Y-49533000D01*
D15*
X110423000Y-35664000D02*
G75*
G03*
X110223000Y-35664000I-100000J0D01*
G01*
X110223000Y-35664000D02*
G75*
G03*
X110423000Y-35664000I100000J0D01*
G01*
D13*
X107368000Y-42745000D02*
X107368000Y-42415000D01*
X107368000Y-39805000D02*
X107368000Y-40135000D01*
X102948000Y-39805000D02*
X102948000Y-42745000D01*
X102828000Y-39805000D02*
X102828000Y-42745000D01*
X102708000Y-39805000D02*
X102708000Y-42745000D01*
X101928000Y-42745000D02*
X107368000Y-42745000D01*
X101928000Y-42415000D02*
X101928000Y-42745000D01*
X101928000Y-40135000D02*
X101928000Y-39805000D01*
X101928000Y-39805000D02*
X107368000Y-39805000D01*
D16*
X131366000Y-43868000D02*
X139866000Y-43868000D01*
X131366000Y-47368000D02*
X131366000Y-43868000D01*
X139866000Y-43868000D02*
X139866000Y-47368000D01*
X139866000Y-47368000D02*
X131366000Y-47368000D01*
D13*
X129868000Y-142040000D02*
X135308000Y-142040000D01*
X129868000Y-142370000D02*
X129868000Y-142040000D01*
X129868000Y-144650000D02*
X129868000Y-144980000D01*
X129868000Y-144980000D02*
X135308000Y-144980000D01*
X130648000Y-142040000D02*
X130648000Y-144980000D01*
X130768000Y-142040000D02*
X130768000Y-144980000D01*
X130888000Y-142040000D02*
X130888000Y-144980000D01*
X135308000Y-142040000D02*
X135308000Y-142370000D01*
X135308000Y-144980000D02*
X135308000Y-144650000D01*
X144145000Y-46415000D02*
X146745000Y-46415000D01*
X144145000Y-46415000D02*
X144145000Y-43755000D01*
X146745000Y-46415000D02*
X146745000Y-43755000D01*
X141545000Y-45085000D02*
X141545000Y-43755000D01*
X141545000Y-43755000D02*
X142875000Y-43755000D01*
X144145000Y-43755000D02*
X146745000Y-43755000D01*
X100393000Y-68928000D02*
X101776000Y-68928000D01*
X100393000Y-68928000D02*
X100393000Y-67545000D01*
X100633000Y-68688000D02*
X101943000Y-68688000D01*
X100633000Y-68688000D02*
X100633000Y-61868000D01*
X103543000Y-68688000D02*
X104853000Y-68688000D01*
X104853000Y-68688000D02*
X104853000Y-61868000D01*
X102108000Y-67088000D02*
X103378000Y-67088000D01*
X102228000Y-67088000D02*
X102228000Y-65881333D01*
X102348000Y-67088000D02*
X102348000Y-65881333D01*
X102468000Y-67088000D02*
X102468000Y-65881333D01*
X102588000Y-67088000D02*
X102588000Y-65881333D01*
X102708000Y-67088000D02*
X102708000Y-65881333D01*
X102828000Y-67088000D02*
X102828000Y-65881333D01*
X102948000Y-67088000D02*
X102948000Y-65881333D01*
X103068000Y-67088000D02*
X103068000Y-65881333D01*
X103188000Y-67088000D02*
X103188000Y-65881333D01*
X103308000Y-67088000D02*
X103308000Y-65881333D01*
X103378000Y-67088000D02*
X103378000Y-63468000D01*
X102108000Y-65881333D02*
X103378000Y-65881333D01*
X102108000Y-63468000D02*
X102108000Y-67088000D01*
X103378000Y-63468000D02*
X102108000Y-63468000D01*
X100633000Y-61868000D02*
X101943000Y-61868000D01*
X103543000Y-61868000D02*
X104853000Y-61868000D01*
X100711000Y-46760000D02*
X100711000Y-47530000D01*
X102081000Y-47530000D02*
X99341000Y-47530000D01*
X99341000Y-47530000D02*
X99341000Y-54070000D01*
X102081000Y-54070000D02*
X102081000Y-47530000D01*
X99341000Y-54070000D02*
X102081000Y-54070000D01*
X100711000Y-54840000D02*
X100711000Y-54070000D01*
X101473000Y-89638000D02*
X101473000Y-88868000D01*
X100103000Y-88868000D02*
X102843000Y-88868000D01*
X102843000Y-88868000D02*
X102843000Y-82328000D01*
X100103000Y-82328000D02*
X100103000Y-88868000D01*
X102843000Y-82328000D02*
X100103000Y-82328000D01*
X101473000Y-81558000D02*
X101473000Y-82328000D01*
%LPC*%
D17*
X138811000Y-89154000D03*
D18*
X138811000Y-86614000D03*
D17*
X138811000Y-84074000D03*
X138811000Y-81534000D03*
D19*
X138303000Y-37846000D03*
D20*
X133223000Y-37846000D03*
D21*
X138430000Y-97282000D03*
D22*
X133430000Y-97282000D03*
D18*
X132410000Y-106300000D03*
D17*
X132410000Y-108840000D03*
X132410000Y-111380000D03*
X132410000Y-113920000D03*
D23*
X106553000Y-54737000D03*
D24*
X105283000Y-56007000D03*
X104013000Y-54737000D03*
D25*
X140167500Y-134400000D03*
D26*
X140167500Y-136900000D03*
X140167500Y-139400000D03*
X140167500Y-141900000D03*
D27*
X104710000Y-142280000D03*
D17*
X105610000Y-142280000D03*
D27*
X104710000Y-139740000D03*
D17*
X105610000Y-139740000D03*
D27*
X104710000Y-137200000D03*
D18*
X105610000Y-137200000D03*
D27*
X104710000Y-134660000D03*
D17*
X105610000Y-134660000D03*
D27*
X104710000Y-132120000D03*
D17*
X105610000Y-132120000D03*
D27*
X104710000Y-129580000D03*
D17*
X105610000Y-129580000D03*
D27*
X104710000Y-127040000D03*
D17*
X105610000Y-127040000D03*
D27*
X104710000Y-124500000D03*
D18*
X105610000Y-124500000D03*
D27*
X104710000Y-121960000D03*
D17*
X105610000Y-121960000D03*
D27*
X104710000Y-119420000D03*
D17*
X105610000Y-119420000D03*
D27*
X104710000Y-116880000D03*
D17*
X105610000Y-116880000D03*
D27*
X104710000Y-114340000D03*
D17*
X105610000Y-114340000D03*
D27*
X104710000Y-111800000D03*
D18*
X105610000Y-111800000D03*
D27*
X104710000Y-109260000D03*
D17*
X105610000Y-109260000D03*
D27*
X104710000Y-106720000D03*
D17*
X105610000Y-106720000D03*
D27*
X104710000Y-104180000D03*
D17*
X105610000Y-104180000D03*
D27*
X104710000Y-101640000D03*
D17*
X105610000Y-101640000D03*
D27*
X104710000Y-99100000D03*
D18*
X105610000Y-99100000D03*
D27*
X104710000Y-96560000D03*
D17*
X105610000Y-96560000D03*
D27*
X104710000Y-94020000D03*
D17*
X105610000Y-94020000D03*
D27*
X124290000Y-94020000D03*
D17*
X123390000Y-94020000D03*
D27*
X124290000Y-96560000D03*
D17*
X123390000Y-96560000D03*
D27*
X124290000Y-99100000D03*
D18*
X123390000Y-99100000D03*
D27*
X124290000Y-101640000D03*
D17*
X123390000Y-101640000D03*
D27*
X124290000Y-104180000D03*
D17*
X123390000Y-104180000D03*
D27*
X124290000Y-106720000D03*
D17*
X123390000Y-106720000D03*
D27*
X124290000Y-109260000D03*
D17*
X123390000Y-109260000D03*
D27*
X124290000Y-111800000D03*
D18*
X123390000Y-111800000D03*
D27*
X124290000Y-114340000D03*
D17*
X123390000Y-114340000D03*
D27*
X124290000Y-116880000D03*
D17*
X123390000Y-116880000D03*
D27*
X124290000Y-119420000D03*
D17*
X123390000Y-119420000D03*
D27*
X124290000Y-121960000D03*
D17*
X123390000Y-121960000D03*
D27*
X124290000Y-124500000D03*
D18*
X123390000Y-124500000D03*
D27*
X124290000Y-127040000D03*
D17*
X123390000Y-127040000D03*
D27*
X124290000Y-129580000D03*
D17*
X123390000Y-129580000D03*
D27*
X124290000Y-132120000D03*
D17*
X123390000Y-132120000D03*
D27*
X124290000Y-134660000D03*
D17*
X123390000Y-134660000D03*
D27*
X124290000Y-137200000D03*
D18*
X123390000Y-137200000D03*
D27*
X124290000Y-139740000D03*
D17*
X123390000Y-139740000D03*
D27*
X124290000Y-142280000D03*
D17*
X123390000Y-142280000D03*
D28*
X111775000Y-142150000D03*
D29*
X112075000Y-139120000D03*
X116925000Y-139120000D03*
D28*
X117225000Y-142150000D03*
D30*
X102300000Y-147750000D03*
D31*
X134112000Y-71755000D03*
D32*
X134112000Y-69215000D03*
X134112000Y-66675000D03*
X134112000Y-64135000D03*
D31*
X134112000Y-61595000D03*
D32*
X134112000Y-59055000D03*
X134112000Y-56515000D03*
X134112000Y-53975000D03*
X111252000Y-53975000D03*
D31*
X111252000Y-56515000D03*
D32*
X111252000Y-59055000D03*
X111252000Y-61595000D03*
X111252000Y-64135000D03*
X111252000Y-66675000D03*
X111252000Y-69215000D03*
X111252000Y-71755000D03*
D33*
X108199000Y-45466000D03*
D34*
X105659000Y-45466000D03*
D35*
X105029000Y-90678000D03*
D36*
X105029000Y-80518000D03*
D37*
X114423000Y-35783000D03*
D38*
X114423000Y-47783000D03*
D39*
X112423000Y-41783000D03*
D38*
X126623000Y-35783000D03*
X126623000Y-47783000D03*
D28*
X108458000Y-41275000D03*
D34*
X100838000Y-41275000D03*
D40*
X133076000Y-45618000D03*
X135616000Y-45618000D03*
X138156000Y-45618000D03*
D34*
X128778000Y-143510000D03*
D28*
X136398000Y-143510000D03*
D18*
X142875000Y-45085000D03*
D17*
X145415000Y-45085000D03*
D41*
X102743000Y-69583000D03*
X102743000Y-60973000D03*
D35*
X100711000Y-45720000D03*
D36*
X100711000Y-55880000D03*
D30*
X144272000Y-37465000D03*
D35*
X101473000Y-90678000D03*
D36*
X101473000Y-80518000D03*
D30*
X143700000Y-147950000D03*
D42*
X144526000Y-51603000D03*
X141986000Y-51603000D03*
D43*
X139446000Y-51603000D03*
D44*
X141986000Y-68263000D03*
D18*
X117991000Y-74778000D03*
D17*
X115451000Y-74778000D03*
X112911000Y-74778000D03*
X110371000Y-74778000D03*
X107831000Y-74778000D03*
X105291000Y-74778000D03*
X102751000Y-74778000D03*
%LPD*%
M02*
