G04 #@! TF.GenerationSoftware,KiCad,Pcbnew,7.0.10*
G04 #@! TF.CreationDate,2024-04-13T19:06:11+02:00*
G04 #@! TF.ProjectId,RocketBoard,526f636b-6574-4426-9f61-72642e6b6963,rev?*
G04 #@! TF.SameCoordinates,Original*
G04 #@! TF.FileFunction,Soldermask,Top*
G04 #@! TF.FilePolarity,Negative*
%FSLAX46Y46*%
G04 Gerber Fmt 4.6, Leading zero omitted, Abs format (unit mm)*
G04 Created by KiCad (PCBNEW 7.0.10) date 2024-04-13 19:06:11*
%MOMM*%
%LPD*%
G01*
G04 APERTURE LIST*
G04 Aperture macros list*
%AMRoundRect*
0 Rectangle with rounded corners*
0 $1 Rounding radius*
0 $2 $3 $4 $5 $6 $7 $8 $9 X,Y pos of 4 corners*
0 Add a 4 corners polygon primitive as box body*
4,1,4,$2,$3,$4,$5,$6,$7,$8,$9,$2,$3,0*
0 Add four circle primitives for the rounded corners*
1,1,$1+$1,$2,$3*
1,1,$1+$1,$4,$5*
1,1,$1+$1,$6,$7*
1,1,$1+$1,$8,$9*
0 Add four rect primitives between the rounded corners*
20,1,$1+$1,$2,$3,$4,$5,0*
20,1,$1+$1,$4,$5,$6,$7,0*
20,1,$1+$1,$6,$7,$8,$9,0*
20,1,$1+$1,$8,$9,$2,$3,0*%
G04 Aperture macros list end*
%ADD10O,1.700000X1.700000*%
%ADD11R,1.700000X1.700000*%
%ADD12C,3.000000*%
%ADD13R,3.000000X3.000000*%
%ADD14R,2.000000X2.000000*%
%ADD15C,2.000000*%
%ADD16R,1.300000X1.300000*%
%ADD17C,1.300000*%
%ADD18RoundRect,0.250000X-0.725000X0.600000X-0.725000X-0.600000X0.725000X-0.600000X0.725000X0.600000X0*%
%ADD19O,1.950000X1.700000*%
%ADD20R,3.500000X1.700000*%
%ADD21O,1.800000X1.800000*%
%ADD22O,1.500000X1.500000*%
%ADD23C,2.200000*%
%ADD24RoundRect,0.102000X0.762000X0.762000X-0.762000X0.762000X-0.762000X-0.762000X0.762000X-0.762000X0*%
%ADD25O,3.252000X1.728000*%
%ADD26C,1.800000*%
%ADD27R,1.800000X1.800000*%
%ADD28C,1.600000*%
%ADD29O,1.600000X1.600000*%
%ADD30RoundRect,0.102000X-0.990000X-0.990000X0.990000X-0.990000X0.990000X0.990000X-0.990000X0.990000X0*%
%ADD31C,2.184000*%
%ADD32C,2.139000*%
%ADD33C,1.676400*%
%ADD34R,1.120000X2.440000*%
%ADD35O,1.905000X2.000000*%
%ADD36R,1.905000X2.000000*%
%ADD37O,3.500000X3.500000*%
G04 APERTURE END LIST*
D10*
X138811000Y-89154000D03*
D11*
X138811000Y-86614000D03*
D10*
X138811000Y-84074000D03*
X138811000Y-81534000D03*
D12*
X138303000Y-37846000D03*
D13*
X133223000Y-37846000D03*
D14*
X138430000Y-97282000D03*
D15*
X133430000Y-97282000D03*
D11*
X132410000Y-106300000D03*
D10*
X132410000Y-108840000D03*
X132410000Y-111380000D03*
X132410000Y-113920000D03*
D16*
X106553000Y-54737000D03*
D17*
X105283000Y-56007000D03*
X104013000Y-54737000D03*
D18*
X140167500Y-134400000D03*
D19*
X140167500Y-136900000D03*
X140167500Y-139400000D03*
X140167500Y-141900000D03*
D20*
X104710000Y-142280000D03*
D10*
X105610000Y-142280000D03*
D20*
X104710000Y-139740000D03*
D10*
X105610000Y-139740000D03*
D20*
X104710000Y-137200000D03*
D11*
X105610000Y-137200000D03*
D20*
X104710000Y-134660000D03*
D10*
X105610000Y-134660000D03*
D20*
X104710000Y-132120000D03*
D10*
X105610000Y-132120000D03*
D20*
X104710000Y-129580000D03*
D10*
X105610000Y-129580000D03*
D20*
X104710000Y-127040000D03*
D10*
X105610000Y-127040000D03*
D20*
X104710000Y-124500000D03*
D11*
X105610000Y-124500000D03*
D20*
X104710000Y-121960000D03*
D10*
X105610000Y-121960000D03*
D20*
X104710000Y-119420000D03*
D10*
X105610000Y-119420000D03*
D20*
X104710000Y-116880000D03*
D10*
X105610000Y-116880000D03*
D20*
X104710000Y-114340000D03*
D10*
X105610000Y-114340000D03*
D20*
X104710000Y-111800000D03*
D11*
X105610000Y-111800000D03*
D20*
X104710000Y-109260000D03*
D10*
X105610000Y-109260000D03*
D20*
X104710000Y-106720000D03*
D10*
X105610000Y-106720000D03*
D20*
X104710000Y-104180000D03*
D10*
X105610000Y-104180000D03*
D20*
X104710000Y-101640000D03*
D10*
X105610000Y-101640000D03*
D20*
X104710000Y-99100000D03*
D11*
X105610000Y-99100000D03*
D20*
X104710000Y-96560000D03*
D10*
X105610000Y-96560000D03*
D20*
X104710000Y-94020000D03*
D10*
X105610000Y-94020000D03*
D20*
X124290000Y-94020000D03*
D10*
X123390000Y-94020000D03*
D20*
X124290000Y-96560000D03*
D10*
X123390000Y-96560000D03*
D20*
X124290000Y-99100000D03*
D11*
X123390000Y-99100000D03*
D20*
X124290000Y-101640000D03*
D10*
X123390000Y-101640000D03*
D20*
X124290000Y-104180000D03*
D10*
X123390000Y-104180000D03*
D20*
X124290000Y-106720000D03*
D10*
X123390000Y-106720000D03*
D20*
X124290000Y-109260000D03*
D10*
X123390000Y-109260000D03*
D20*
X124290000Y-111800000D03*
D11*
X123390000Y-111800000D03*
D20*
X124290000Y-114340000D03*
D10*
X123390000Y-114340000D03*
D20*
X124290000Y-116880000D03*
D10*
X123390000Y-116880000D03*
D20*
X124290000Y-119420000D03*
D10*
X123390000Y-119420000D03*
D20*
X124290000Y-121960000D03*
D10*
X123390000Y-121960000D03*
D20*
X124290000Y-124500000D03*
D11*
X123390000Y-124500000D03*
D20*
X124290000Y-127040000D03*
D10*
X123390000Y-127040000D03*
D20*
X124290000Y-129580000D03*
D10*
X123390000Y-129580000D03*
D20*
X124290000Y-132120000D03*
D10*
X123390000Y-132120000D03*
D20*
X124290000Y-134660000D03*
D10*
X123390000Y-134660000D03*
D20*
X124290000Y-137200000D03*
D11*
X123390000Y-137200000D03*
D20*
X124290000Y-139740000D03*
D10*
X123390000Y-139740000D03*
D20*
X124290000Y-142280000D03*
D10*
X123390000Y-142280000D03*
D21*
X111775000Y-142150000D03*
D22*
X112075000Y-139120000D03*
X116925000Y-139120000D03*
D21*
X117225000Y-142150000D03*
D23*
X102300000Y-147750000D03*
D24*
X134112000Y-71755000D03*
D25*
X134112000Y-69215000D03*
X134112000Y-66675000D03*
X134112000Y-64135000D03*
D24*
X134112000Y-61595000D03*
D25*
X134112000Y-59055000D03*
X134112000Y-56515000D03*
X134112000Y-53975000D03*
X111252000Y-53975000D03*
D24*
X111252000Y-56515000D03*
D25*
X111252000Y-59055000D03*
X111252000Y-61595000D03*
X111252000Y-64135000D03*
X111252000Y-66675000D03*
X111252000Y-69215000D03*
X111252000Y-71755000D03*
D26*
X108199000Y-45466000D03*
D27*
X105659000Y-45466000D03*
D28*
X105029000Y-90678000D03*
D29*
X105029000Y-80518000D03*
D30*
X114423000Y-35783000D03*
D31*
X114423000Y-47783000D03*
D32*
X112423000Y-41783000D03*
D31*
X126623000Y-35783000D03*
X126623000Y-47783000D03*
D21*
X108458000Y-41275000D03*
D27*
X100838000Y-41275000D03*
D33*
X133076000Y-45618000D03*
X135616000Y-45618000D03*
X138156000Y-45618000D03*
D27*
X128778000Y-143510000D03*
D21*
X136398000Y-143510000D03*
D11*
X142875000Y-45085000D03*
D10*
X145415000Y-45085000D03*
D34*
X102743000Y-69583000D03*
X102743000Y-60973000D03*
D28*
X100711000Y-45720000D03*
D29*
X100711000Y-55880000D03*
D23*
X144272000Y-37465000D03*
D28*
X101473000Y-90678000D03*
D29*
X101473000Y-80518000D03*
D23*
X143700000Y-147950000D03*
D35*
X144526000Y-51603000D03*
X141986000Y-51603000D03*
D36*
X139446000Y-51603000D03*
D37*
X141986000Y-68263000D03*
D11*
X117991000Y-74778000D03*
D10*
X115451000Y-74778000D03*
X112911000Y-74778000D03*
X110371000Y-74778000D03*
X107831000Y-74778000D03*
X105291000Y-74778000D03*
X102751000Y-74778000D03*
M02*
