%TF.GenerationSoftware,KiCad,Pcbnew,7.0.10*%
%TF.CreationDate,2024-04-13T19:06:13+02:00*%
%TF.ProjectId,RocketBoard,526f636b-6574-4426-9f61-72642e6b6963,rev?*%
%TF.SameCoordinates,Original*%
%TF.FileFunction,Drillmap*%
%TF.FilePolarity,Positive*%
%FSLAX45Y45*%
G04 Gerber Fmt 4.5, Leading zero omitted, Abs format (unit mm)*
G04 Created by KiCad (PCBNEW 7.0.10) date 2024-04-13 19:06:13*
%MOMM*%
%LPD*%
G01*
G04 APERTURE LIST*
%ADD10C,0.100000*%
%ADD11C,0.200000*%
%ADD12C,0.101600*%
%ADD13C,0.102000*%
%ADD14C,0.110000*%
%ADD15C,0.129000*%
%ADD16C,0.132000*%
%ADD17C,0.152000*%
G04 APERTURE END LIST*
D10*
X9830000Y-3352500D02*
X14750000Y-3352500D01*
X14750000Y-15115000D01*
X9830000Y-15115000D01*
X9830000Y-3352500D01*
D11*
D10*
X10363800Y-5436200D02*
X10438800Y-5511200D01*
X10438800Y-5436200D02*
X10363800Y-5511200D01*
X10490800Y-5563200D02*
X10565800Y-5638200D01*
X10565800Y-5563200D02*
X10490800Y-5638200D01*
X10617800Y-5436200D02*
X10692800Y-5511200D01*
X10692800Y-5436200D02*
X10617800Y-5511200D01*
X10111100Y-4572000D02*
G75*
G03*
X10031100Y-4572000I-40000J0D01*
G01*
X10031100Y-4572000D02*
G75*
G03*
X10111100Y-4572000I40000J0D01*
G01*
X10111100Y-5588000D02*
G75*
G03*
X10031100Y-5588000I-40000J0D01*
G01*
X10031100Y-5588000D02*
G75*
G03*
X10111100Y-5588000I40000J0D01*
G01*
X10187300Y-8051800D02*
G75*
G03*
X10107300Y-8051800I-40000J0D01*
G01*
X10107300Y-8051800D02*
G75*
G03*
X10187300Y-8051800I40000J0D01*
G01*
X10187300Y-9067800D02*
G75*
G03*
X10107300Y-9067800I-40000J0D01*
G01*
X10107300Y-9067800D02*
G75*
G03*
X10187300Y-9067800I40000J0D01*
G01*
X10542900Y-8051800D02*
G75*
G03*
X10462900Y-8051800I-40000J0D01*
G01*
X10462900Y-8051800D02*
G75*
G03*
X10542900Y-8051800I40000J0D01*
G01*
X10542900Y-9067800D02*
G75*
G03*
X10462900Y-9067800I-40000J0D01*
G01*
X10462900Y-9067800D02*
G75*
G03*
X10542900Y-9067800I40000J0D01*
G01*
X10083800Y-4082500D02*
X10083800Y-4172500D01*
X10038800Y-4127500D02*
X10128800Y-4127500D01*
X10565900Y-4501600D02*
X10565900Y-4591600D01*
X10520900Y-4546600D02*
X10610900Y-4546600D01*
X10819900Y-4501600D02*
X10819900Y-4591600D01*
X10774900Y-4546600D02*
X10864900Y-4546600D01*
X10845800Y-4082500D02*
X10845800Y-4172500D01*
X10800800Y-4127500D02*
X10890800Y-4127500D01*
X12877800Y-14306000D02*
X12877800Y-14396000D01*
X12832800Y-14351000D02*
X12922800Y-14351000D01*
X13307600Y-4516800D02*
X13307600Y-4606800D01*
X13262600Y-4561800D02*
X13352600Y-4561800D01*
X13561600Y-4516800D02*
X13561600Y-4606800D01*
X13516600Y-4561800D02*
X13606600Y-4561800D01*
X13639800Y-14306000D02*
X13639800Y-14396000D01*
X13594800Y-14351000D02*
X13684800Y-14351000D01*
X13815600Y-4516800D02*
X13815600Y-4606800D01*
X13770600Y-4561800D02*
X13860600Y-4561800D01*
X14050338Y-13473588D02*
X14050338Y-13406412D01*
X13983162Y-13406412D01*
X13983162Y-13473588D01*
X14050338Y-13473588D01*
X14050338Y-13723588D02*
X14050338Y-13656412D01*
X13983162Y-13656412D01*
X13983162Y-13723588D01*
X14050338Y-13723588D01*
X14050338Y-13973588D02*
X14050338Y-13906412D01*
X13983162Y-13906412D01*
X13983162Y-13973588D01*
X14050338Y-13973588D01*
X14050338Y-14223588D02*
X14050338Y-14156412D01*
X13983162Y-14156412D01*
X13983162Y-14223588D01*
X14050338Y-14223588D01*
X10275100Y-7527800D02*
X10325100Y-7477800D01*
X10275100Y-7427800D01*
X10225100Y-7477800D01*
X10275100Y-7527800D01*
X10529100Y-7527800D02*
X10579100Y-7477800D01*
X10529100Y-7427800D01*
X10479100Y-7477800D01*
X10529100Y-7527800D01*
X10783100Y-7527800D02*
X10833100Y-7477800D01*
X10783100Y-7427800D01*
X10733100Y-7477800D01*
X10783100Y-7527800D01*
X11037100Y-7527800D02*
X11087100Y-7477800D01*
X11037100Y-7427800D01*
X10987100Y-7477800D01*
X11037100Y-7527800D01*
X11291100Y-7527800D02*
X11341100Y-7477800D01*
X11291100Y-7427800D01*
X11241100Y-7477800D01*
X11291100Y-7527800D01*
X11545100Y-7527800D02*
X11595100Y-7477800D01*
X11545100Y-7427800D01*
X11495100Y-7477800D01*
X11545100Y-7527800D01*
X11799100Y-7527800D02*
X11849100Y-7477800D01*
X11799100Y-7427800D01*
X11749100Y-7477800D01*
X11799100Y-7527800D01*
X13241000Y-10680000D02*
X13291000Y-10630000D01*
X13241000Y-10580000D01*
X13191000Y-10630000D01*
X13241000Y-10680000D01*
X13241000Y-10934000D02*
X13291000Y-10884000D01*
X13241000Y-10834000D01*
X13191000Y-10884000D01*
X13241000Y-10934000D01*
X13241000Y-11188000D02*
X13291000Y-11138000D01*
X13241000Y-11088000D01*
X13191000Y-11138000D01*
X13241000Y-11188000D01*
X13241000Y-11442000D02*
X13291000Y-11392000D01*
X13241000Y-11342000D01*
X13191000Y-11392000D01*
X13241000Y-11442000D01*
X13343000Y-9778200D02*
X13393000Y-9728200D01*
X13343000Y-9678200D01*
X13293000Y-9728200D01*
X13343000Y-9778200D01*
X13843000Y-9778200D02*
X13893000Y-9728200D01*
X13843000Y-9678200D01*
X13793000Y-9728200D01*
X13843000Y-9778200D01*
X13881100Y-8203400D02*
X13931100Y-8153400D01*
X13881100Y-8103400D01*
X13831100Y-8153400D01*
X13881100Y-8203400D01*
X13881100Y-8457400D02*
X13931100Y-8407400D01*
X13881100Y-8357400D01*
X13831100Y-8407400D01*
X13881100Y-8457400D01*
X13881100Y-8711400D02*
X13931100Y-8661400D01*
X13881100Y-8611400D01*
X13831100Y-8661400D01*
X13881100Y-8711400D01*
X13881100Y-8965400D02*
X13931100Y-8915400D01*
X13881100Y-8865400D01*
X13831100Y-8915400D01*
X13881100Y-8965400D01*
X14287500Y-4558500D02*
X14337500Y-4508500D01*
X14287500Y-4458500D01*
X14237500Y-4508500D01*
X14287500Y-4558500D01*
X14541500Y-4558500D02*
X14591500Y-4508500D01*
X14541500Y-4458500D01*
X14491500Y-4508500D01*
X14541500Y-4558500D01*
D12*
X11074400Y-5346700D02*
X11176000Y-5448300D01*
X11176000Y-5346700D02*
X11074400Y-5448300D01*
X11176000Y-5397500D02*
G75*
G03*
X11074400Y-5397500I-50800J0D01*
G01*
X11074400Y-5397500D02*
G75*
G03*
X11176000Y-5397500I50800J0D01*
G01*
X11074400Y-5600700D02*
X11176000Y-5702300D01*
X11176000Y-5600700D02*
X11074400Y-5702300D01*
X11176000Y-5651500D02*
G75*
G03*
X11074400Y-5651500I-50800J0D01*
G01*
X11074400Y-5651500D02*
G75*
G03*
X11176000Y-5651500I50800J0D01*
G01*
X11074400Y-5854700D02*
X11176000Y-5956300D01*
X11176000Y-5854700D02*
X11074400Y-5956300D01*
X11176000Y-5905500D02*
G75*
G03*
X11074400Y-5905500I-50800J0D01*
G01*
X11074400Y-5905500D02*
G75*
G03*
X11176000Y-5905500I50800J0D01*
G01*
X11074400Y-6108700D02*
X11176000Y-6210300D01*
X11176000Y-6108700D02*
X11074400Y-6210300D01*
X11176000Y-6159500D02*
G75*
G03*
X11074400Y-6159500I-50800J0D01*
G01*
X11074400Y-6159500D02*
G75*
G03*
X11176000Y-6159500I50800J0D01*
G01*
X11074400Y-6362700D02*
X11176000Y-6464300D01*
X11176000Y-6362700D02*
X11074400Y-6464300D01*
X11176000Y-6413500D02*
G75*
G03*
X11074400Y-6413500I-50800J0D01*
G01*
X11074400Y-6413500D02*
G75*
G03*
X11176000Y-6413500I50800J0D01*
G01*
X11074400Y-6616700D02*
X11176000Y-6718300D01*
X11176000Y-6616700D02*
X11074400Y-6718300D01*
X11176000Y-6667500D02*
G75*
G03*
X11074400Y-6667500I-50800J0D01*
G01*
X11074400Y-6667500D02*
G75*
G03*
X11176000Y-6667500I50800J0D01*
G01*
X11074400Y-6870700D02*
X11176000Y-6972300D01*
X11176000Y-6870700D02*
X11074400Y-6972300D01*
X11176000Y-6921500D02*
G75*
G03*
X11074400Y-6921500I-50800J0D01*
G01*
X11074400Y-6921500D02*
G75*
G03*
X11176000Y-6921500I50800J0D01*
G01*
X11074400Y-7124700D02*
X11176000Y-7226300D01*
X11176000Y-7124700D02*
X11074400Y-7226300D01*
X11176000Y-7175500D02*
G75*
G03*
X11074400Y-7175500I-50800J0D01*
G01*
X11074400Y-7175500D02*
G75*
G03*
X11176000Y-7175500I50800J0D01*
G01*
X13360400Y-5346700D02*
X13462000Y-5448300D01*
X13462000Y-5346700D02*
X13360400Y-5448300D01*
X13462000Y-5397500D02*
G75*
G03*
X13360400Y-5397500I-50800J0D01*
G01*
X13360400Y-5397500D02*
G75*
G03*
X13462000Y-5397500I50800J0D01*
G01*
X13360400Y-5600700D02*
X13462000Y-5702300D01*
X13462000Y-5600700D02*
X13360400Y-5702300D01*
X13462000Y-5651500D02*
G75*
G03*
X13360400Y-5651500I-50800J0D01*
G01*
X13360400Y-5651500D02*
G75*
G03*
X13462000Y-5651500I50800J0D01*
G01*
X13360400Y-5854700D02*
X13462000Y-5956300D01*
X13462000Y-5854700D02*
X13360400Y-5956300D01*
X13462000Y-5905500D02*
G75*
G03*
X13360400Y-5905500I-50800J0D01*
G01*
X13360400Y-5905500D02*
G75*
G03*
X13462000Y-5905500I50800J0D01*
G01*
X13360400Y-6108700D02*
X13462000Y-6210300D01*
X13462000Y-6108700D02*
X13360400Y-6210300D01*
X13462000Y-6159500D02*
G75*
G03*
X13360400Y-6159500I-50800J0D01*
G01*
X13360400Y-6159500D02*
G75*
G03*
X13462000Y-6159500I50800J0D01*
G01*
X13360400Y-6362700D02*
X13462000Y-6464300D01*
X13462000Y-6362700D02*
X13360400Y-6464300D01*
X13462000Y-6413500D02*
G75*
G03*
X13360400Y-6413500I-50800J0D01*
G01*
X13360400Y-6413500D02*
G75*
G03*
X13462000Y-6413500I50800J0D01*
G01*
X13360400Y-6616700D02*
X13462000Y-6718300D01*
X13462000Y-6616700D02*
X13360400Y-6718300D01*
X13462000Y-6667500D02*
G75*
G03*
X13360400Y-6667500I-50800J0D01*
G01*
X13360400Y-6667500D02*
G75*
G03*
X13462000Y-6667500I50800J0D01*
G01*
X13360400Y-6870700D02*
X13462000Y-6972300D01*
X13462000Y-6870700D02*
X13360400Y-6972300D01*
X13462000Y-6921500D02*
G75*
G03*
X13360400Y-6921500I-50800J0D01*
G01*
X13360400Y-6921500D02*
G75*
G03*
X13462000Y-6921500I50800J0D01*
G01*
X13360400Y-7124700D02*
X13462000Y-7226300D01*
X13462000Y-7124700D02*
X13360400Y-7226300D01*
X13462000Y-7175500D02*
G75*
G03*
X13360400Y-7175500I-50800J0D01*
G01*
X13360400Y-7175500D02*
G75*
G03*
X13462000Y-7175500I50800J0D01*
G01*
D13*
X10510000Y-9351000D02*
X10612000Y-9453000D01*
X10612000Y-9351000D02*
X10510000Y-9453000D01*
X10561000Y-9351000D02*
X10561000Y-9453000D01*
X10510000Y-9402000D02*
X10612000Y-9402000D01*
X10510000Y-9605000D02*
X10612000Y-9707000D01*
X10612000Y-9605000D02*
X10510000Y-9707000D01*
X10561000Y-9605000D02*
X10561000Y-9707000D01*
X10510000Y-9656000D02*
X10612000Y-9656000D01*
X10510000Y-9859000D02*
X10612000Y-9961000D01*
X10612000Y-9859000D02*
X10510000Y-9961000D01*
X10561000Y-9859000D02*
X10561000Y-9961000D01*
X10510000Y-9910000D02*
X10612000Y-9910000D01*
X10510000Y-10113000D02*
X10612000Y-10215000D01*
X10612000Y-10113000D02*
X10510000Y-10215000D01*
X10561000Y-10113000D02*
X10561000Y-10215000D01*
X10510000Y-10164000D02*
X10612000Y-10164000D01*
X10510000Y-10367000D02*
X10612000Y-10469000D01*
X10612000Y-10367000D02*
X10510000Y-10469000D01*
X10561000Y-10367000D02*
X10561000Y-10469000D01*
X10510000Y-10418000D02*
X10612000Y-10418000D01*
X10510000Y-10621000D02*
X10612000Y-10723000D01*
X10612000Y-10621000D02*
X10510000Y-10723000D01*
X10561000Y-10621000D02*
X10561000Y-10723000D01*
X10510000Y-10672000D02*
X10612000Y-10672000D01*
X10510000Y-10875000D02*
X10612000Y-10977000D01*
X10612000Y-10875000D02*
X10510000Y-10977000D01*
X10561000Y-10875000D02*
X10561000Y-10977000D01*
X10510000Y-10926000D02*
X10612000Y-10926000D01*
X10510000Y-11129000D02*
X10612000Y-11231000D01*
X10612000Y-11129000D02*
X10510000Y-11231000D01*
X10561000Y-11129000D02*
X10561000Y-11231000D01*
X10510000Y-11180000D02*
X10612000Y-11180000D01*
X10510000Y-11383000D02*
X10612000Y-11485000D01*
X10612000Y-11383000D02*
X10510000Y-11485000D01*
X10561000Y-11383000D02*
X10561000Y-11485000D01*
X10510000Y-11434000D02*
X10612000Y-11434000D01*
X10510000Y-11637000D02*
X10612000Y-11739000D01*
X10612000Y-11637000D02*
X10510000Y-11739000D01*
X10561000Y-11637000D02*
X10561000Y-11739000D01*
X10510000Y-11688000D02*
X10612000Y-11688000D01*
X10510000Y-11891000D02*
X10612000Y-11993000D01*
X10612000Y-11891000D02*
X10510000Y-11993000D01*
X10561000Y-11891000D02*
X10561000Y-11993000D01*
X10510000Y-11942000D02*
X10612000Y-11942000D01*
X10510000Y-12145000D02*
X10612000Y-12247000D01*
X10612000Y-12145000D02*
X10510000Y-12247000D01*
X10561000Y-12145000D02*
X10561000Y-12247000D01*
X10510000Y-12196000D02*
X10612000Y-12196000D01*
X10510000Y-12399000D02*
X10612000Y-12501000D01*
X10612000Y-12399000D02*
X10510000Y-12501000D01*
X10561000Y-12399000D02*
X10561000Y-12501000D01*
X10510000Y-12450000D02*
X10612000Y-12450000D01*
X10510000Y-12653000D02*
X10612000Y-12755000D01*
X10612000Y-12653000D02*
X10510000Y-12755000D01*
X10561000Y-12653000D02*
X10561000Y-12755000D01*
X10510000Y-12704000D02*
X10612000Y-12704000D01*
X10510000Y-12907000D02*
X10612000Y-13009000D01*
X10612000Y-12907000D02*
X10510000Y-13009000D01*
X10561000Y-12907000D02*
X10561000Y-13009000D01*
X10510000Y-12958000D02*
X10612000Y-12958000D01*
X10510000Y-13161000D02*
X10612000Y-13263000D01*
X10612000Y-13161000D02*
X10510000Y-13263000D01*
X10561000Y-13161000D02*
X10561000Y-13263000D01*
X10510000Y-13212000D02*
X10612000Y-13212000D01*
X10510000Y-13415000D02*
X10612000Y-13517000D01*
X10612000Y-13415000D02*
X10510000Y-13517000D01*
X10561000Y-13415000D02*
X10561000Y-13517000D01*
X10510000Y-13466000D02*
X10612000Y-13466000D01*
X10510000Y-13669000D02*
X10612000Y-13771000D01*
X10612000Y-13669000D02*
X10510000Y-13771000D01*
X10561000Y-13669000D02*
X10561000Y-13771000D01*
X10510000Y-13720000D02*
X10612000Y-13720000D01*
X10510000Y-13923000D02*
X10612000Y-14025000D01*
X10612000Y-13923000D02*
X10510000Y-14025000D01*
X10561000Y-13923000D02*
X10561000Y-14025000D01*
X10510000Y-13974000D02*
X10612000Y-13974000D01*
X10510000Y-14177000D02*
X10612000Y-14279000D01*
X10612000Y-14177000D02*
X10510000Y-14279000D01*
X10561000Y-14177000D02*
X10561000Y-14279000D01*
X10510000Y-14228000D02*
X10612000Y-14228000D01*
X12288000Y-9351000D02*
X12390000Y-9453000D01*
X12390000Y-9351000D02*
X12288000Y-9453000D01*
X12339000Y-9351000D02*
X12339000Y-9453000D01*
X12288000Y-9402000D02*
X12390000Y-9402000D01*
X12288000Y-9605000D02*
X12390000Y-9707000D01*
X12390000Y-9605000D02*
X12288000Y-9707000D01*
X12339000Y-9605000D02*
X12339000Y-9707000D01*
X12288000Y-9656000D02*
X12390000Y-9656000D01*
X12288000Y-9859000D02*
X12390000Y-9961000D01*
X12390000Y-9859000D02*
X12288000Y-9961000D01*
X12339000Y-9859000D02*
X12339000Y-9961000D01*
X12288000Y-9910000D02*
X12390000Y-9910000D01*
X12288000Y-10113000D02*
X12390000Y-10215000D01*
X12390000Y-10113000D02*
X12288000Y-10215000D01*
X12339000Y-10113000D02*
X12339000Y-10215000D01*
X12288000Y-10164000D02*
X12390000Y-10164000D01*
X12288000Y-10367000D02*
X12390000Y-10469000D01*
X12390000Y-10367000D02*
X12288000Y-10469000D01*
X12339000Y-10367000D02*
X12339000Y-10469000D01*
X12288000Y-10418000D02*
X12390000Y-10418000D01*
X12288000Y-10621000D02*
X12390000Y-10723000D01*
X12390000Y-10621000D02*
X12288000Y-10723000D01*
X12339000Y-10621000D02*
X12339000Y-10723000D01*
X12288000Y-10672000D02*
X12390000Y-10672000D01*
X12288000Y-10875000D02*
X12390000Y-10977000D01*
X12390000Y-10875000D02*
X12288000Y-10977000D01*
X12339000Y-10875000D02*
X12339000Y-10977000D01*
X12288000Y-10926000D02*
X12390000Y-10926000D01*
X12288000Y-11129000D02*
X12390000Y-11231000D01*
X12390000Y-11129000D02*
X12288000Y-11231000D01*
X12339000Y-11129000D02*
X12339000Y-11231000D01*
X12288000Y-11180000D02*
X12390000Y-11180000D01*
X12288000Y-11383000D02*
X12390000Y-11485000D01*
X12390000Y-11383000D02*
X12288000Y-11485000D01*
X12339000Y-11383000D02*
X12339000Y-11485000D01*
X12288000Y-11434000D02*
X12390000Y-11434000D01*
X12288000Y-11637000D02*
X12390000Y-11739000D01*
X12390000Y-11637000D02*
X12288000Y-11739000D01*
X12339000Y-11637000D02*
X12339000Y-11739000D01*
X12288000Y-11688000D02*
X12390000Y-11688000D01*
X12288000Y-11891000D02*
X12390000Y-11993000D01*
X12390000Y-11891000D02*
X12288000Y-11993000D01*
X12339000Y-11891000D02*
X12339000Y-11993000D01*
X12288000Y-11942000D02*
X12390000Y-11942000D01*
X12288000Y-12145000D02*
X12390000Y-12247000D01*
X12390000Y-12145000D02*
X12288000Y-12247000D01*
X12339000Y-12145000D02*
X12339000Y-12247000D01*
X12288000Y-12196000D02*
X12390000Y-12196000D01*
X12288000Y-12399000D02*
X12390000Y-12501000D01*
X12390000Y-12399000D02*
X12288000Y-12501000D01*
X12339000Y-12399000D02*
X12339000Y-12501000D01*
X12288000Y-12450000D02*
X12390000Y-12450000D01*
X12288000Y-12653000D02*
X12390000Y-12755000D01*
X12390000Y-12653000D02*
X12288000Y-12755000D01*
X12339000Y-12653000D02*
X12339000Y-12755000D01*
X12288000Y-12704000D02*
X12390000Y-12704000D01*
X12288000Y-12907000D02*
X12390000Y-13009000D01*
X12390000Y-12907000D02*
X12288000Y-13009000D01*
X12339000Y-12907000D02*
X12339000Y-13009000D01*
X12288000Y-12958000D02*
X12390000Y-12958000D01*
X12288000Y-13161000D02*
X12390000Y-13263000D01*
X12390000Y-13161000D02*
X12288000Y-13263000D01*
X12339000Y-13161000D02*
X12339000Y-13263000D01*
X12288000Y-13212000D02*
X12390000Y-13212000D01*
X12288000Y-13415000D02*
X12390000Y-13517000D01*
X12390000Y-13415000D02*
X12288000Y-13517000D01*
X12339000Y-13415000D02*
X12339000Y-13517000D01*
X12288000Y-13466000D02*
X12390000Y-13466000D01*
X12288000Y-13669000D02*
X12390000Y-13771000D01*
X12390000Y-13669000D02*
X12288000Y-13771000D01*
X12339000Y-13669000D02*
X12339000Y-13771000D01*
X12288000Y-13720000D02*
X12390000Y-13720000D01*
X12288000Y-13923000D02*
X12390000Y-14025000D01*
X12390000Y-13923000D02*
X12288000Y-14025000D01*
X12339000Y-13923000D02*
X12339000Y-14025000D01*
X12288000Y-13974000D02*
X12390000Y-13974000D01*
X12288000Y-14177000D02*
X12390000Y-14279000D01*
X12390000Y-14177000D02*
X12288000Y-14279000D01*
X12339000Y-14177000D02*
X12339000Y-14279000D01*
X12288000Y-14228000D02*
X12390000Y-14228000D01*
D14*
X13889600Y-5105300D02*
X13999600Y-5215300D01*
X13999600Y-5105300D02*
X13889600Y-5215300D01*
X13983491Y-5199191D02*
X13983491Y-5121409D01*
X13905709Y-5121409D01*
X13905709Y-5199191D01*
X13983491Y-5199191D01*
X14143600Y-5105300D02*
X14253600Y-5215300D01*
X14253600Y-5105300D02*
X14143600Y-5215300D01*
X14237491Y-5199191D02*
X14237491Y-5121409D01*
X14159709Y-5121409D01*
X14159709Y-5199191D01*
X14237491Y-5199191D01*
X14397600Y-5105300D02*
X14507600Y-5215300D01*
X14507600Y-5105300D02*
X14397600Y-5215300D01*
X14491491Y-5199191D02*
X14491491Y-5121409D01*
X14413709Y-5121409D01*
X14413709Y-5199191D01*
X14491491Y-5199191D01*
D15*
X11177800Y-4113800D02*
X11306800Y-4242800D01*
X11306800Y-4113800D02*
X11177800Y-4242800D01*
X11242300Y-4242800D02*
X11306800Y-4178300D01*
X11242300Y-4113800D01*
X11177800Y-4178300D01*
X11242300Y-4242800D01*
D16*
X11442300Y-3512300D02*
X11442300Y-3644300D01*
X11376300Y-3578300D02*
X11508300Y-3578300D01*
X11508300Y-3578300D02*
G75*
G03*
X11376300Y-3578300I-66000J0D01*
G01*
X11376300Y-3578300D02*
G75*
G03*
X11508300Y-3578300I66000J0D01*
G01*
X11442300Y-4712300D02*
X11442300Y-4844300D01*
X11376300Y-4778300D02*
X11508300Y-4778300D01*
X11508300Y-4778300D02*
G75*
G03*
X11376300Y-4778300I-66000J0D01*
G01*
X11376300Y-4778300D02*
G75*
G03*
X11508300Y-4778300I66000J0D01*
G01*
X12662300Y-3512300D02*
X12662300Y-3644300D01*
X12596300Y-3578300D02*
X12728300Y-3578300D01*
X12728300Y-3578300D02*
G75*
G03*
X12596300Y-3578300I-66000J0D01*
G01*
X12596300Y-3578300D02*
G75*
G03*
X12728300Y-3578300I66000J0D01*
G01*
X12662300Y-4712300D02*
X12662300Y-4844300D01*
X12596300Y-4778300D02*
X12728300Y-4778300D01*
X12728300Y-4778300D02*
G75*
G03*
X12596300Y-4778300I-66000J0D01*
G01*
X12596300Y-4778300D02*
G75*
G03*
X12728300Y-4778300I66000J0D01*
G01*
D17*
X13376041Y-3838341D02*
X13376041Y-3730859D01*
X13268559Y-3730859D01*
X13268559Y-3838341D01*
X13376041Y-3838341D01*
X13398300Y-3784600D02*
G75*
G03*
X13246300Y-3784600I-76000J0D01*
G01*
X13246300Y-3784600D02*
G75*
G03*
X13398300Y-3784600I76000J0D01*
G01*
X13884041Y-3838341D02*
X13884041Y-3730859D01*
X13776559Y-3730859D01*
X13776559Y-3838341D01*
X13884041Y-3838341D01*
X13906300Y-3784600D02*
G75*
G03*
X13754300Y-3784600I-76000J0D01*
G01*
X13754300Y-3784600D02*
G75*
G03*
X13906300Y-3784600I76000J0D01*
G01*
D11*
X10085777Y-15431484D02*
X10085777Y-15231484D01*
X10085777Y-15231484D02*
X10133396Y-15231484D01*
X10133396Y-15231484D02*
X10161967Y-15241008D01*
X10161967Y-15241008D02*
X10181015Y-15260055D01*
X10181015Y-15260055D02*
X10190539Y-15279103D01*
X10190539Y-15279103D02*
X10200063Y-15317198D01*
X10200063Y-15317198D02*
X10200063Y-15345769D01*
X10200063Y-15345769D02*
X10190539Y-15383865D01*
X10190539Y-15383865D02*
X10181015Y-15402912D01*
X10181015Y-15402912D02*
X10161967Y-15421960D01*
X10161967Y-15421960D02*
X10133396Y-15431484D01*
X10133396Y-15431484D02*
X10085777Y-15431484D01*
X10285777Y-15431484D02*
X10285777Y-15298150D01*
X10285777Y-15336246D02*
X10295301Y-15317198D01*
X10295301Y-15317198D02*
X10304824Y-15307674D01*
X10304824Y-15307674D02*
X10323872Y-15298150D01*
X10323872Y-15298150D02*
X10342920Y-15298150D01*
X10409586Y-15431484D02*
X10409586Y-15298150D01*
X10409586Y-15231484D02*
X10400063Y-15241008D01*
X10400063Y-15241008D02*
X10409586Y-15250531D01*
X10409586Y-15250531D02*
X10419110Y-15241008D01*
X10419110Y-15241008D02*
X10409586Y-15231484D01*
X10409586Y-15231484D02*
X10409586Y-15250531D01*
X10533396Y-15431484D02*
X10514348Y-15421960D01*
X10514348Y-15421960D02*
X10504824Y-15402912D01*
X10504824Y-15402912D02*
X10504824Y-15231484D01*
X10638158Y-15431484D02*
X10619110Y-15421960D01*
X10619110Y-15421960D02*
X10609586Y-15402912D01*
X10609586Y-15402912D02*
X10609586Y-15231484D01*
X10866729Y-15431484D02*
X10866729Y-15231484D01*
X10866729Y-15231484D02*
X10933396Y-15374341D01*
X10933396Y-15374341D02*
X11000063Y-15231484D01*
X11000063Y-15231484D02*
X11000063Y-15431484D01*
X11181015Y-15431484D02*
X11181015Y-15326722D01*
X11181015Y-15326722D02*
X11171491Y-15307674D01*
X11171491Y-15307674D02*
X11152444Y-15298150D01*
X11152444Y-15298150D02*
X11114348Y-15298150D01*
X11114348Y-15298150D02*
X11095301Y-15307674D01*
X11181015Y-15421960D02*
X11161967Y-15431484D01*
X11161967Y-15431484D02*
X11114348Y-15431484D01*
X11114348Y-15431484D02*
X11095301Y-15421960D01*
X11095301Y-15421960D02*
X11085777Y-15402912D01*
X11085777Y-15402912D02*
X11085777Y-15383865D01*
X11085777Y-15383865D02*
X11095301Y-15364817D01*
X11095301Y-15364817D02*
X11114348Y-15355293D01*
X11114348Y-15355293D02*
X11161967Y-15355293D01*
X11161967Y-15355293D02*
X11181015Y-15345769D01*
X11276253Y-15298150D02*
X11276253Y-15498150D01*
X11276253Y-15307674D02*
X11295301Y-15298150D01*
X11295301Y-15298150D02*
X11333396Y-15298150D01*
X11333396Y-15298150D02*
X11352443Y-15307674D01*
X11352443Y-15307674D02*
X11361967Y-15317198D01*
X11361967Y-15317198D02*
X11371491Y-15336246D01*
X11371491Y-15336246D02*
X11371491Y-15393388D01*
X11371491Y-15393388D02*
X11361967Y-15412436D01*
X11361967Y-15412436D02*
X11352443Y-15421960D01*
X11352443Y-15421960D02*
X11333396Y-15431484D01*
X11333396Y-15431484D02*
X11295301Y-15431484D01*
X11295301Y-15431484D02*
X11276253Y-15421960D01*
X11457205Y-15412436D02*
X11466729Y-15421960D01*
X11466729Y-15421960D02*
X11457205Y-15431484D01*
X11457205Y-15431484D02*
X11447682Y-15421960D01*
X11447682Y-15421960D02*
X11457205Y-15412436D01*
X11457205Y-15412436D02*
X11457205Y-15431484D01*
X11457205Y-15307674D02*
X11466729Y-15317198D01*
X11466729Y-15317198D02*
X11457205Y-15326722D01*
X11457205Y-15326722D02*
X11447682Y-15317198D01*
X11447682Y-15317198D02*
X11457205Y-15307674D01*
X11457205Y-15307674D02*
X11457205Y-15326722D01*
D10*
X9750000Y-15722500D02*
X9825000Y-15797500D01*
X9825000Y-15722500D02*
X9750000Y-15797500D01*
D11*
X10123872Y-15651484D02*
X10142920Y-15651484D01*
X10142920Y-15651484D02*
X10161967Y-15661008D01*
X10161967Y-15661008D02*
X10171491Y-15670531D01*
X10171491Y-15670531D02*
X10181015Y-15689579D01*
X10181015Y-15689579D02*
X10190539Y-15727674D01*
X10190539Y-15727674D02*
X10190539Y-15775293D01*
X10190539Y-15775293D02*
X10181015Y-15813388D01*
X10181015Y-15813388D02*
X10171491Y-15832436D01*
X10171491Y-15832436D02*
X10161967Y-15841960D01*
X10161967Y-15841960D02*
X10142920Y-15851484D01*
X10142920Y-15851484D02*
X10123872Y-15851484D01*
X10123872Y-15851484D02*
X10104824Y-15841960D01*
X10104824Y-15841960D02*
X10095301Y-15832436D01*
X10095301Y-15832436D02*
X10085777Y-15813388D01*
X10085777Y-15813388D02*
X10076253Y-15775293D01*
X10076253Y-15775293D02*
X10076253Y-15727674D01*
X10076253Y-15727674D02*
X10085777Y-15689579D01*
X10085777Y-15689579D02*
X10095301Y-15670531D01*
X10095301Y-15670531D02*
X10104824Y-15661008D01*
X10104824Y-15661008D02*
X10123872Y-15651484D01*
X10276253Y-15832436D02*
X10285777Y-15841960D01*
X10285777Y-15841960D02*
X10276253Y-15851484D01*
X10276253Y-15851484D02*
X10266729Y-15841960D01*
X10266729Y-15841960D02*
X10276253Y-15832436D01*
X10276253Y-15832436D02*
X10276253Y-15851484D01*
X10352444Y-15651484D02*
X10485777Y-15651484D01*
X10485777Y-15651484D02*
X10400063Y-15851484D01*
X10657205Y-15651484D02*
X10561967Y-15651484D01*
X10561967Y-15651484D02*
X10552444Y-15746722D01*
X10552444Y-15746722D02*
X10561967Y-15737198D01*
X10561967Y-15737198D02*
X10581015Y-15727674D01*
X10581015Y-15727674D02*
X10628634Y-15727674D01*
X10628634Y-15727674D02*
X10647682Y-15737198D01*
X10647682Y-15737198D02*
X10657205Y-15746722D01*
X10657205Y-15746722D02*
X10666729Y-15765769D01*
X10666729Y-15765769D02*
X10666729Y-15813388D01*
X10666729Y-15813388D02*
X10657205Y-15832436D01*
X10657205Y-15832436D02*
X10647682Y-15841960D01*
X10647682Y-15841960D02*
X10628634Y-15851484D01*
X10628634Y-15851484D02*
X10581015Y-15851484D01*
X10581015Y-15851484D02*
X10561967Y-15841960D01*
X10561967Y-15841960D02*
X10552444Y-15832436D01*
X10790539Y-15651484D02*
X10809586Y-15651484D01*
X10809586Y-15651484D02*
X10828634Y-15661008D01*
X10828634Y-15661008D02*
X10838158Y-15670531D01*
X10838158Y-15670531D02*
X10847682Y-15689579D01*
X10847682Y-15689579D02*
X10857205Y-15727674D01*
X10857205Y-15727674D02*
X10857205Y-15775293D01*
X10857205Y-15775293D02*
X10847682Y-15813388D01*
X10847682Y-15813388D02*
X10838158Y-15832436D01*
X10838158Y-15832436D02*
X10828634Y-15841960D01*
X10828634Y-15841960D02*
X10809586Y-15851484D01*
X10809586Y-15851484D02*
X10790539Y-15851484D01*
X10790539Y-15851484D02*
X10771491Y-15841960D01*
X10771491Y-15841960D02*
X10761967Y-15832436D01*
X10761967Y-15832436D02*
X10752444Y-15813388D01*
X10752444Y-15813388D02*
X10742920Y-15775293D01*
X10742920Y-15775293D02*
X10742920Y-15727674D01*
X10742920Y-15727674D02*
X10752444Y-15689579D01*
X10752444Y-15689579D02*
X10761967Y-15670531D01*
X10761967Y-15670531D02*
X10771491Y-15661008D01*
X10771491Y-15661008D02*
X10790539Y-15651484D01*
X10942920Y-15851484D02*
X10942920Y-15718150D01*
X10942920Y-15737198D02*
X10952444Y-15727674D01*
X10952444Y-15727674D02*
X10971491Y-15718150D01*
X10971491Y-15718150D02*
X11000063Y-15718150D01*
X11000063Y-15718150D02*
X11019110Y-15727674D01*
X11019110Y-15727674D02*
X11028634Y-15746722D01*
X11028634Y-15746722D02*
X11028634Y-15851484D01*
X11028634Y-15746722D02*
X11038158Y-15727674D01*
X11038158Y-15727674D02*
X11057205Y-15718150D01*
X11057205Y-15718150D02*
X11085777Y-15718150D01*
X11085777Y-15718150D02*
X11104825Y-15727674D01*
X11104825Y-15727674D02*
X11114348Y-15746722D01*
X11114348Y-15746722D02*
X11114348Y-15851484D01*
X11209586Y-15851484D02*
X11209586Y-15718150D01*
X11209586Y-15737198D02*
X11219110Y-15727674D01*
X11219110Y-15727674D02*
X11238158Y-15718150D01*
X11238158Y-15718150D02*
X11266729Y-15718150D01*
X11266729Y-15718150D02*
X11285777Y-15727674D01*
X11285777Y-15727674D02*
X11295301Y-15746722D01*
X11295301Y-15746722D02*
X11295301Y-15851484D01*
X11295301Y-15746722D02*
X11304824Y-15727674D01*
X11304824Y-15727674D02*
X11323872Y-15718150D01*
X11323872Y-15718150D02*
X11352443Y-15718150D01*
X11352443Y-15718150D02*
X11371491Y-15727674D01*
X11371491Y-15727674D02*
X11381015Y-15746722D01*
X11381015Y-15746722D02*
X11381015Y-15851484D01*
X11771491Y-15641960D02*
X11600063Y-15899103D01*
X12028634Y-15651484D02*
X12047682Y-15651484D01*
X12047682Y-15651484D02*
X12066729Y-15661008D01*
X12066729Y-15661008D02*
X12076253Y-15670531D01*
X12076253Y-15670531D02*
X12085777Y-15689579D01*
X12085777Y-15689579D02*
X12095301Y-15727674D01*
X12095301Y-15727674D02*
X12095301Y-15775293D01*
X12095301Y-15775293D02*
X12085777Y-15813388D01*
X12085777Y-15813388D02*
X12076253Y-15832436D01*
X12076253Y-15832436D02*
X12066729Y-15841960D01*
X12066729Y-15841960D02*
X12047682Y-15851484D01*
X12047682Y-15851484D02*
X12028634Y-15851484D01*
X12028634Y-15851484D02*
X12009586Y-15841960D01*
X12009586Y-15841960D02*
X12000063Y-15832436D01*
X12000063Y-15832436D02*
X11990539Y-15813388D01*
X11990539Y-15813388D02*
X11981015Y-15775293D01*
X11981015Y-15775293D02*
X11981015Y-15727674D01*
X11981015Y-15727674D02*
X11990539Y-15689579D01*
X11990539Y-15689579D02*
X12000063Y-15670531D01*
X12000063Y-15670531D02*
X12009586Y-15661008D01*
X12009586Y-15661008D02*
X12028634Y-15651484D01*
X12181015Y-15832436D02*
X12190539Y-15841960D01*
X12190539Y-15841960D02*
X12181015Y-15851484D01*
X12181015Y-15851484D02*
X12171491Y-15841960D01*
X12171491Y-15841960D02*
X12181015Y-15832436D01*
X12181015Y-15832436D02*
X12181015Y-15851484D01*
X12314348Y-15651484D02*
X12333396Y-15651484D01*
X12333396Y-15651484D02*
X12352444Y-15661008D01*
X12352444Y-15661008D02*
X12361967Y-15670531D01*
X12361967Y-15670531D02*
X12371491Y-15689579D01*
X12371491Y-15689579D02*
X12381015Y-15727674D01*
X12381015Y-15727674D02*
X12381015Y-15775293D01*
X12381015Y-15775293D02*
X12371491Y-15813388D01*
X12371491Y-15813388D02*
X12361967Y-15832436D01*
X12361967Y-15832436D02*
X12352444Y-15841960D01*
X12352444Y-15841960D02*
X12333396Y-15851484D01*
X12333396Y-15851484D02*
X12314348Y-15851484D01*
X12314348Y-15851484D02*
X12295301Y-15841960D01*
X12295301Y-15841960D02*
X12285777Y-15832436D01*
X12285777Y-15832436D02*
X12276253Y-15813388D01*
X12276253Y-15813388D02*
X12266729Y-15775293D01*
X12266729Y-15775293D02*
X12266729Y-15727674D01*
X12266729Y-15727674D02*
X12276253Y-15689579D01*
X12276253Y-15689579D02*
X12285777Y-15670531D01*
X12285777Y-15670531D02*
X12295301Y-15661008D01*
X12295301Y-15661008D02*
X12314348Y-15651484D01*
X12457206Y-15670531D02*
X12466729Y-15661008D01*
X12466729Y-15661008D02*
X12485777Y-15651484D01*
X12485777Y-15651484D02*
X12533396Y-15651484D01*
X12533396Y-15651484D02*
X12552444Y-15661008D01*
X12552444Y-15661008D02*
X12561967Y-15670531D01*
X12561967Y-15670531D02*
X12571491Y-15689579D01*
X12571491Y-15689579D02*
X12571491Y-15708627D01*
X12571491Y-15708627D02*
X12561967Y-15737198D01*
X12561967Y-15737198D02*
X12447682Y-15851484D01*
X12447682Y-15851484D02*
X12571491Y-15851484D01*
X12666729Y-15851484D02*
X12704825Y-15851484D01*
X12704825Y-15851484D02*
X12723872Y-15841960D01*
X12723872Y-15841960D02*
X12733396Y-15832436D01*
X12733396Y-15832436D02*
X12752444Y-15803865D01*
X12752444Y-15803865D02*
X12761967Y-15765769D01*
X12761967Y-15765769D02*
X12761967Y-15689579D01*
X12761967Y-15689579D02*
X12752444Y-15670531D01*
X12752444Y-15670531D02*
X12742920Y-15661008D01*
X12742920Y-15661008D02*
X12723872Y-15651484D01*
X12723872Y-15651484D02*
X12685777Y-15651484D01*
X12685777Y-15651484D02*
X12666729Y-15661008D01*
X12666729Y-15661008D02*
X12657206Y-15670531D01*
X12657206Y-15670531D02*
X12647682Y-15689579D01*
X12647682Y-15689579D02*
X12647682Y-15737198D01*
X12647682Y-15737198D02*
X12657206Y-15756246D01*
X12657206Y-15756246D02*
X12666729Y-15765769D01*
X12666729Y-15765769D02*
X12685777Y-15775293D01*
X12685777Y-15775293D02*
X12723872Y-15775293D01*
X12723872Y-15775293D02*
X12742920Y-15765769D01*
X12742920Y-15765769D02*
X12752444Y-15756246D01*
X12752444Y-15756246D02*
X12761967Y-15737198D01*
X12942920Y-15651484D02*
X12847682Y-15651484D01*
X12847682Y-15651484D02*
X12838158Y-15746722D01*
X12838158Y-15746722D02*
X12847682Y-15737198D01*
X12847682Y-15737198D02*
X12866729Y-15727674D01*
X12866729Y-15727674D02*
X12914348Y-15727674D01*
X12914348Y-15727674D02*
X12933396Y-15737198D01*
X12933396Y-15737198D02*
X12942920Y-15746722D01*
X12942920Y-15746722D02*
X12952444Y-15765769D01*
X12952444Y-15765769D02*
X12952444Y-15813388D01*
X12952444Y-15813388D02*
X12942920Y-15832436D01*
X12942920Y-15832436D02*
X12933396Y-15841960D01*
X12933396Y-15841960D02*
X12914348Y-15851484D01*
X12914348Y-15851484D02*
X12866729Y-15851484D01*
X12866729Y-15851484D02*
X12847682Y-15841960D01*
X12847682Y-15841960D02*
X12838158Y-15832436D01*
X13028634Y-15651484D02*
X13028634Y-15689579D01*
X13104825Y-15651484D02*
X13104825Y-15689579D01*
X13400063Y-15927674D02*
X13390539Y-15918150D01*
X13390539Y-15918150D02*
X13371491Y-15889579D01*
X13371491Y-15889579D02*
X13361968Y-15870531D01*
X13361968Y-15870531D02*
X13352444Y-15841960D01*
X13352444Y-15841960D02*
X13342920Y-15794341D01*
X13342920Y-15794341D02*
X13342920Y-15756246D01*
X13342920Y-15756246D02*
X13352444Y-15708627D01*
X13352444Y-15708627D02*
X13361968Y-15680055D01*
X13361968Y-15680055D02*
X13371491Y-15661008D01*
X13371491Y-15661008D02*
X13390539Y-15632436D01*
X13390539Y-15632436D02*
X13400063Y-15622912D01*
X13457206Y-15651484D02*
X13581015Y-15651484D01*
X13581015Y-15651484D02*
X13514348Y-15727674D01*
X13514348Y-15727674D02*
X13542920Y-15727674D01*
X13542920Y-15727674D02*
X13561968Y-15737198D01*
X13561968Y-15737198D02*
X13571491Y-15746722D01*
X13571491Y-15746722D02*
X13581015Y-15765769D01*
X13581015Y-15765769D02*
X13581015Y-15813388D01*
X13581015Y-15813388D02*
X13571491Y-15832436D01*
X13571491Y-15832436D02*
X13561968Y-15841960D01*
X13561968Y-15841960D02*
X13542920Y-15851484D01*
X13542920Y-15851484D02*
X13485777Y-15851484D01*
X13485777Y-15851484D02*
X13466729Y-15841960D01*
X13466729Y-15841960D02*
X13457206Y-15832436D01*
X13819110Y-15851484D02*
X13819110Y-15651484D01*
X13904825Y-15851484D02*
X13904825Y-15746722D01*
X13904825Y-15746722D02*
X13895301Y-15727674D01*
X13895301Y-15727674D02*
X13876253Y-15718150D01*
X13876253Y-15718150D02*
X13847682Y-15718150D01*
X13847682Y-15718150D02*
X13828634Y-15727674D01*
X13828634Y-15727674D02*
X13819110Y-15737198D01*
X14028634Y-15851484D02*
X14009587Y-15841960D01*
X14009587Y-15841960D02*
X14000063Y-15832436D01*
X14000063Y-15832436D02*
X13990539Y-15813388D01*
X13990539Y-15813388D02*
X13990539Y-15756246D01*
X13990539Y-15756246D02*
X14000063Y-15737198D01*
X14000063Y-15737198D02*
X14009587Y-15727674D01*
X14009587Y-15727674D02*
X14028634Y-15718150D01*
X14028634Y-15718150D02*
X14057206Y-15718150D01*
X14057206Y-15718150D02*
X14076253Y-15727674D01*
X14076253Y-15727674D02*
X14085777Y-15737198D01*
X14085777Y-15737198D02*
X14095301Y-15756246D01*
X14095301Y-15756246D02*
X14095301Y-15813388D01*
X14095301Y-15813388D02*
X14085777Y-15832436D01*
X14085777Y-15832436D02*
X14076253Y-15841960D01*
X14076253Y-15841960D02*
X14057206Y-15851484D01*
X14057206Y-15851484D02*
X14028634Y-15851484D01*
X14209587Y-15851484D02*
X14190539Y-15841960D01*
X14190539Y-15841960D02*
X14181015Y-15822912D01*
X14181015Y-15822912D02*
X14181015Y-15651484D01*
X14361968Y-15841960D02*
X14342920Y-15851484D01*
X14342920Y-15851484D02*
X14304825Y-15851484D01*
X14304825Y-15851484D02*
X14285777Y-15841960D01*
X14285777Y-15841960D02*
X14276253Y-15822912D01*
X14276253Y-15822912D02*
X14276253Y-15746722D01*
X14276253Y-15746722D02*
X14285777Y-15727674D01*
X14285777Y-15727674D02*
X14304825Y-15718150D01*
X14304825Y-15718150D02*
X14342920Y-15718150D01*
X14342920Y-15718150D02*
X14361968Y-15727674D01*
X14361968Y-15727674D02*
X14371491Y-15746722D01*
X14371491Y-15746722D02*
X14371491Y-15765769D01*
X14371491Y-15765769D02*
X14276253Y-15784817D01*
X14447682Y-15841960D02*
X14466730Y-15851484D01*
X14466730Y-15851484D02*
X14504825Y-15851484D01*
X14504825Y-15851484D02*
X14523872Y-15841960D01*
X14523872Y-15841960D02*
X14533396Y-15822912D01*
X14533396Y-15822912D02*
X14533396Y-15813388D01*
X14533396Y-15813388D02*
X14523872Y-15794341D01*
X14523872Y-15794341D02*
X14504825Y-15784817D01*
X14504825Y-15784817D02*
X14476253Y-15784817D01*
X14476253Y-15784817D02*
X14457206Y-15775293D01*
X14457206Y-15775293D02*
X14447682Y-15756246D01*
X14447682Y-15756246D02*
X14447682Y-15746722D01*
X14447682Y-15746722D02*
X14457206Y-15727674D01*
X14457206Y-15727674D02*
X14476253Y-15718150D01*
X14476253Y-15718150D02*
X14504825Y-15718150D01*
X14504825Y-15718150D02*
X14523872Y-15727674D01*
X14600063Y-15927674D02*
X14609587Y-15918150D01*
X14609587Y-15918150D02*
X14628634Y-15889579D01*
X14628634Y-15889579D02*
X14638158Y-15870531D01*
X14638158Y-15870531D02*
X14647682Y-15841960D01*
X14647682Y-15841960D02*
X14657206Y-15794341D01*
X14657206Y-15794341D02*
X14657206Y-15756246D01*
X14657206Y-15756246D02*
X14647682Y-15708627D01*
X14647682Y-15708627D02*
X14638158Y-15680055D01*
X14638158Y-15680055D02*
X14628634Y-15661008D01*
X14628634Y-15661008D02*
X14609587Y-15632436D01*
X14609587Y-15632436D02*
X14600063Y-15622912D01*
D10*
X9825000Y-16024000D02*
G75*
G03*
X9745000Y-16024000I-40000J0D01*
G01*
X9745000Y-16024000D02*
G75*
G03*
X9825000Y-16024000I40000J0D01*
G01*
D11*
X10123872Y-15915484D02*
X10142920Y-15915484D01*
X10142920Y-15915484D02*
X10161967Y-15925008D01*
X10161967Y-15925008D02*
X10171491Y-15934531D01*
X10171491Y-15934531D02*
X10181015Y-15953579D01*
X10181015Y-15953579D02*
X10190539Y-15991674D01*
X10190539Y-15991674D02*
X10190539Y-16039293D01*
X10190539Y-16039293D02*
X10181015Y-16077388D01*
X10181015Y-16077388D02*
X10171491Y-16096436D01*
X10171491Y-16096436D02*
X10161967Y-16105960D01*
X10161967Y-16105960D02*
X10142920Y-16115484D01*
X10142920Y-16115484D02*
X10123872Y-16115484D01*
X10123872Y-16115484D02*
X10104824Y-16105960D01*
X10104824Y-16105960D02*
X10095301Y-16096436D01*
X10095301Y-16096436D02*
X10085777Y-16077388D01*
X10085777Y-16077388D02*
X10076253Y-16039293D01*
X10076253Y-16039293D02*
X10076253Y-15991674D01*
X10076253Y-15991674D02*
X10085777Y-15953579D01*
X10085777Y-15953579D02*
X10095301Y-15934531D01*
X10095301Y-15934531D02*
X10104824Y-15925008D01*
X10104824Y-15925008D02*
X10123872Y-15915484D01*
X10276253Y-16096436D02*
X10285777Y-16105960D01*
X10285777Y-16105960D02*
X10276253Y-16115484D01*
X10276253Y-16115484D02*
X10266729Y-16105960D01*
X10266729Y-16105960D02*
X10276253Y-16096436D01*
X10276253Y-16096436D02*
X10276253Y-16115484D01*
X10400063Y-16001198D02*
X10381015Y-15991674D01*
X10381015Y-15991674D02*
X10371491Y-15982150D01*
X10371491Y-15982150D02*
X10361967Y-15963103D01*
X10361967Y-15963103D02*
X10361967Y-15953579D01*
X10361967Y-15953579D02*
X10371491Y-15934531D01*
X10371491Y-15934531D02*
X10381015Y-15925008D01*
X10381015Y-15925008D02*
X10400063Y-15915484D01*
X10400063Y-15915484D02*
X10438158Y-15915484D01*
X10438158Y-15915484D02*
X10457205Y-15925008D01*
X10457205Y-15925008D02*
X10466729Y-15934531D01*
X10466729Y-15934531D02*
X10476253Y-15953579D01*
X10476253Y-15953579D02*
X10476253Y-15963103D01*
X10476253Y-15963103D02*
X10466729Y-15982150D01*
X10466729Y-15982150D02*
X10457205Y-15991674D01*
X10457205Y-15991674D02*
X10438158Y-16001198D01*
X10438158Y-16001198D02*
X10400063Y-16001198D01*
X10400063Y-16001198D02*
X10381015Y-16010722D01*
X10381015Y-16010722D02*
X10371491Y-16020246D01*
X10371491Y-16020246D02*
X10361967Y-16039293D01*
X10361967Y-16039293D02*
X10361967Y-16077388D01*
X10361967Y-16077388D02*
X10371491Y-16096436D01*
X10371491Y-16096436D02*
X10381015Y-16105960D01*
X10381015Y-16105960D02*
X10400063Y-16115484D01*
X10400063Y-16115484D02*
X10438158Y-16115484D01*
X10438158Y-16115484D02*
X10457205Y-16105960D01*
X10457205Y-16105960D02*
X10466729Y-16096436D01*
X10466729Y-16096436D02*
X10476253Y-16077388D01*
X10476253Y-16077388D02*
X10476253Y-16039293D01*
X10476253Y-16039293D02*
X10466729Y-16020246D01*
X10466729Y-16020246D02*
X10457205Y-16010722D01*
X10457205Y-16010722D02*
X10438158Y-16001198D01*
X10600063Y-15915484D02*
X10619110Y-15915484D01*
X10619110Y-15915484D02*
X10638158Y-15925008D01*
X10638158Y-15925008D02*
X10647682Y-15934531D01*
X10647682Y-15934531D02*
X10657205Y-15953579D01*
X10657205Y-15953579D02*
X10666729Y-15991674D01*
X10666729Y-15991674D02*
X10666729Y-16039293D01*
X10666729Y-16039293D02*
X10657205Y-16077388D01*
X10657205Y-16077388D02*
X10647682Y-16096436D01*
X10647682Y-16096436D02*
X10638158Y-16105960D01*
X10638158Y-16105960D02*
X10619110Y-16115484D01*
X10619110Y-16115484D02*
X10600063Y-16115484D01*
X10600063Y-16115484D02*
X10581015Y-16105960D01*
X10581015Y-16105960D02*
X10571491Y-16096436D01*
X10571491Y-16096436D02*
X10561967Y-16077388D01*
X10561967Y-16077388D02*
X10552444Y-16039293D01*
X10552444Y-16039293D02*
X10552444Y-15991674D01*
X10552444Y-15991674D02*
X10561967Y-15953579D01*
X10561967Y-15953579D02*
X10571491Y-15934531D01*
X10571491Y-15934531D02*
X10581015Y-15925008D01*
X10581015Y-15925008D02*
X10600063Y-15915484D01*
X10790539Y-15915484D02*
X10809586Y-15915484D01*
X10809586Y-15915484D02*
X10828634Y-15925008D01*
X10828634Y-15925008D02*
X10838158Y-15934531D01*
X10838158Y-15934531D02*
X10847682Y-15953579D01*
X10847682Y-15953579D02*
X10857205Y-15991674D01*
X10857205Y-15991674D02*
X10857205Y-16039293D01*
X10857205Y-16039293D02*
X10847682Y-16077388D01*
X10847682Y-16077388D02*
X10838158Y-16096436D01*
X10838158Y-16096436D02*
X10828634Y-16105960D01*
X10828634Y-16105960D02*
X10809586Y-16115484D01*
X10809586Y-16115484D02*
X10790539Y-16115484D01*
X10790539Y-16115484D02*
X10771491Y-16105960D01*
X10771491Y-16105960D02*
X10761967Y-16096436D01*
X10761967Y-16096436D02*
X10752444Y-16077388D01*
X10752444Y-16077388D02*
X10742920Y-16039293D01*
X10742920Y-16039293D02*
X10742920Y-15991674D01*
X10742920Y-15991674D02*
X10752444Y-15953579D01*
X10752444Y-15953579D02*
X10761967Y-15934531D01*
X10761967Y-15934531D02*
X10771491Y-15925008D01*
X10771491Y-15925008D02*
X10790539Y-15915484D01*
X10942920Y-16115484D02*
X10942920Y-15982150D01*
X10942920Y-16001198D02*
X10952444Y-15991674D01*
X10952444Y-15991674D02*
X10971491Y-15982150D01*
X10971491Y-15982150D02*
X11000063Y-15982150D01*
X11000063Y-15982150D02*
X11019110Y-15991674D01*
X11019110Y-15991674D02*
X11028634Y-16010722D01*
X11028634Y-16010722D02*
X11028634Y-16115484D01*
X11028634Y-16010722D02*
X11038158Y-15991674D01*
X11038158Y-15991674D02*
X11057205Y-15982150D01*
X11057205Y-15982150D02*
X11085777Y-15982150D01*
X11085777Y-15982150D02*
X11104825Y-15991674D01*
X11104825Y-15991674D02*
X11114348Y-16010722D01*
X11114348Y-16010722D02*
X11114348Y-16115484D01*
X11209586Y-16115484D02*
X11209586Y-15982150D01*
X11209586Y-16001198D02*
X11219110Y-15991674D01*
X11219110Y-15991674D02*
X11238158Y-15982150D01*
X11238158Y-15982150D02*
X11266729Y-15982150D01*
X11266729Y-15982150D02*
X11285777Y-15991674D01*
X11285777Y-15991674D02*
X11295301Y-16010722D01*
X11295301Y-16010722D02*
X11295301Y-16115484D01*
X11295301Y-16010722D02*
X11304824Y-15991674D01*
X11304824Y-15991674D02*
X11323872Y-15982150D01*
X11323872Y-15982150D02*
X11352443Y-15982150D01*
X11352443Y-15982150D02*
X11371491Y-15991674D01*
X11371491Y-15991674D02*
X11381015Y-16010722D01*
X11381015Y-16010722D02*
X11381015Y-16115484D01*
X11771491Y-15905960D02*
X11600063Y-16163103D01*
X12028634Y-15915484D02*
X12047682Y-15915484D01*
X12047682Y-15915484D02*
X12066729Y-15925008D01*
X12066729Y-15925008D02*
X12076253Y-15934531D01*
X12076253Y-15934531D02*
X12085777Y-15953579D01*
X12085777Y-15953579D02*
X12095301Y-15991674D01*
X12095301Y-15991674D02*
X12095301Y-16039293D01*
X12095301Y-16039293D02*
X12085777Y-16077388D01*
X12085777Y-16077388D02*
X12076253Y-16096436D01*
X12076253Y-16096436D02*
X12066729Y-16105960D01*
X12066729Y-16105960D02*
X12047682Y-16115484D01*
X12047682Y-16115484D02*
X12028634Y-16115484D01*
X12028634Y-16115484D02*
X12009586Y-16105960D01*
X12009586Y-16105960D02*
X12000063Y-16096436D01*
X12000063Y-16096436D02*
X11990539Y-16077388D01*
X11990539Y-16077388D02*
X11981015Y-16039293D01*
X11981015Y-16039293D02*
X11981015Y-15991674D01*
X11981015Y-15991674D02*
X11990539Y-15953579D01*
X11990539Y-15953579D02*
X12000063Y-15934531D01*
X12000063Y-15934531D02*
X12009586Y-15925008D01*
X12009586Y-15925008D02*
X12028634Y-15915484D01*
X12181015Y-16096436D02*
X12190539Y-16105960D01*
X12190539Y-16105960D02*
X12181015Y-16115484D01*
X12181015Y-16115484D02*
X12171491Y-16105960D01*
X12171491Y-16105960D02*
X12181015Y-16096436D01*
X12181015Y-16096436D02*
X12181015Y-16115484D01*
X12314348Y-15915484D02*
X12333396Y-15915484D01*
X12333396Y-15915484D02*
X12352444Y-15925008D01*
X12352444Y-15925008D02*
X12361967Y-15934531D01*
X12361967Y-15934531D02*
X12371491Y-15953579D01*
X12371491Y-15953579D02*
X12381015Y-15991674D01*
X12381015Y-15991674D02*
X12381015Y-16039293D01*
X12381015Y-16039293D02*
X12371491Y-16077388D01*
X12371491Y-16077388D02*
X12361967Y-16096436D01*
X12361967Y-16096436D02*
X12352444Y-16105960D01*
X12352444Y-16105960D02*
X12333396Y-16115484D01*
X12333396Y-16115484D02*
X12314348Y-16115484D01*
X12314348Y-16115484D02*
X12295301Y-16105960D01*
X12295301Y-16105960D02*
X12285777Y-16096436D01*
X12285777Y-16096436D02*
X12276253Y-16077388D01*
X12276253Y-16077388D02*
X12266729Y-16039293D01*
X12266729Y-16039293D02*
X12266729Y-15991674D01*
X12266729Y-15991674D02*
X12276253Y-15953579D01*
X12276253Y-15953579D02*
X12285777Y-15934531D01*
X12285777Y-15934531D02*
X12295301Y-15925008D01*
X12295301Y-15925008D02*
X12314348Y-15915484D01*
X12447682Y-15915484D02*
X12571491Y-15915484D01*
X12571491Y-15915484D02*
X12504825Y-15991674D01*
X12504825Y-15991674D02*
X12533396Y-15991674D01*
X12533396Y-15991674D02*
X12552444Y-16001198D01*
X12552444Y-16001198D02*
X12561967Y-16010722D01*
X12561967Y-16010722D02*
X12571491Y-16029769D01*
X12571491Y-16029769D02*
X12571491Y-16077388D01*
X12571491Y-16077388D02*
X12561967Y-16096436D01*
X12561967Y-16096436D02*
X12552444Y-16105960D01*
X12552444Y-16105960D02*
X12533396Y-16115484D01*
X12533396Y-16115484D02*
X12476253Y-16115484D01*
X12476253Y-16115484D02*
X12457206Y-16105960D01*
X12457206Y-16105960D02*
X12447682Y-16096436D01*
X12761967Y-16115484D02*
X12647682Y-16115484D01*
X12704825Y-16115484D02*
X12704825Y-15915484D01*
X12704825Y-15915484D02*
X12685777Y-15944055D01*
X12685777Y-15944055D02*
X12666729Y-15963103D01*
X12666729Y-15963103D02*
X12647682Y-15972627D01*
X12942920Y-15915484D02*
X12847682Y-15915484D01*
X12847682Y-15915484D02*
X12838158Y-16010722D01*
X12838158Y-16010722D02*
X12847682Y-16001198D01*
X12847682Y-16001198D02*
X12866729Y-15991674D01*
X12866729Y-15991674D02*
X12914348Y-15991674D01*
X12914348Y-15991674D02*
X12933396Y-16001198D01*
X12933396Y-16001198D02*
X12942920Y-16010722D01*
X12942920Y-16010722D02*
X12952444Y-16029769D01*
X12952444Y-16029769D02*
X12952444Y-16077388D01*
X12952444Y-16077388D02*
X12942920Y-16096436D01*
X12942920Y-16096436D02*
X12933396Y-16105960D01*
X12933396Y-16105960D02*
X12914348Y-16115484D01*
X12914348Y-16115484D02*
X12866729Y-16115484D01*
X12866729Y-16115484D02*
X12847682Y-16105960D01*
X12847682Y-16105960D02*
X12838158Y-16096436D01*
X13028634Y-15915484D02*
X13028634Y-15953579D01*
X13104825Y-15915484D02*
X13104825Y-15953579D01*
X13400063Y-16191674D02*
X13390539Y-16182150D01*
X13390539Y-16182150D02*
X13371491Y-16153579D01*
X13371491Y-16153579D02*
X13361968Y-16134531D01*
X13361968Y-16134531D02*
X13352444Y-16105960D01*
X13352444Y-16105960D02*
X13342920Y-16058341D01*
X13342920Y-16058341D02*
X13342920Y-16020246D01*
X13342920Y-16020246D02*
X13352444Y-15972627D01*
X13352444Y-15972627D02*
X13361968Y-15944055D01*
X13361968Y-15944055D02*
X13371491Y-15925008D01*
X13371491Y-15925008D02*
X13390539Y-15896436D01*
X13390539Y-15896436D02*
X13400063Y-15886912D01*
X13561968Y-15915484D02*
X13523872Y-15915484D01*
X13523872Y-15915484D02*
X13504825Y-15925008D01*
X13504825Y-15925008D02*
X13495301Y-15934531D01*
X13495301Y-15934531D02*
X13476253Y-15963103D01*
X13476253Y-15963103D02*
X13466729Y-16001198D01*
X13466729Y-16001198D02*
X13466729Y-16077388D01*
X13466729Y-16077388D02*
X13476253Y-16096436D01*
X13476253Y-16096436D02*
X13485777Y-16105960D01*
X13485777Y-16105960D02*
X13504825Y-16115484D01*
X13504825Y-16115484D02*
X13542920Y-16115484D01*
X13542920Y-16115484D02*
X13561968Y-16105960D01*
X13561968Y-16105960D02*
X13571491Y-16096436D01*
X13571491Y-16096436D02*
X13581015Y-16077388D01*
X13581015Y-16077388D02*
X13581015Y-16029769D01*
X13581015Y-16029769D02*
X13571491Y-16010722D01*
X13571491Y-16010722D02*
X13561968Y-16001198D01*
X13561968Y-16001198D02*
X13542920Y-15991674D01*
X13542920Y-15991674D02*
X13504825Y-15991674D01*
X13504825Y-15991674D02*
X13485777Y-16001198D01*
X13485777Y-16001198D02*
X13476253Y-16010722D01*
X13476253Y-16010722D02*
X13466729Y-16029769D01*
X13819110Y-16115484D02*
X13819110Y-15915484D01*
X13904825Y-16115484D02*
X13904825Y-16010722D01*
X13904825Y-16010722D02*
X13895301Y-15991674D01*
X13895301Y-15991674D02*
X13876253Y-15982150D01*
X13876253Y-15982150D02*
X13847682Y-15982150D01*
X13847682Y-15982150D02*
X13828634Y-15991674D01*
X13828634Y-15991674D02*
X13819110Y-16001198D01*
X14028634Y-16115484D02*
X14009587Y-16105960D01*
X14009587Y-16105960D02*
X14000063Y-16096436D01*
X14000063Y-16096436D02*
X13990539Y-16077388D01*
X13990539Y-16077388D02*
X13990539Y-16020246D01*
X13990539Y-16020246D02*
X14000063Y-16001198D01*
X14000063Y-16001198D02*
X14009587Y-15991674D01*
X14009587Y-15991674D02*
X14028634Y-15982150D01*
X14028634Y-15982150D02*
X14057206Y-15982150D01*
X14057206Y-15982150D02*
X14076253Y-15991674D01*
X14076253Y-15991674D02*
X14085777Y-16001198D01*
X14085777Y-16001198D02*
X14095301Y-16020246D01*
X14095301Y-16020246D02*
X14095301Y-16077388D01*
X14095301Y-16077388D02*
X14085777Y-16096436D01*
X14085777Y-16096436D02*
X14076253Y-16105960D01*
X14076253Y-16105960D02*
X14057206Y-16115484D01*
X14057206Y-16115484D02*
X14028634Y-16115484D01*
X14209587Y-16115484D02*
X14190539Y-16105960D01*
X14190539Y-16105960D02*
X14181015Y-16086912D01*
X14181015Y-16086912D02*
X14181015Y-15915484D01*
X14361968Y-16105960D02*
X14342920Y-16115484D01*
X14342920Y-16115484D02*
X14304825Y-16115484D01*
X14304825Y-16115484D02*
X14285777Y-16105960D01*
X14285777Y-16105960D02*
X14276253Y-16086912D01*
X14276253Y-16086912D02*
X14276253Y-16010722D01*
X14276253Y-16010722D02*
X14285777Y-15991674D01*
X14285777Y-15991674D02*
X14304825Y-15982150D01*
X14304825Y-15982150D02*
X14342920Y-15982150D01*
X14342920Y-15982150D02*
X14361968Y-15991674D01*
X14361968Y-15991674D02*
X14371491Y-16010722D01*
X14371491Y-16010722D02*
X14371491Y-16029769D01*
X14371491Y-16029769D02*
X14276253Y-16048817D01*
X14447682Y-16105960D02*
X14466730Y-16115484D01*
X14466730Y-16115484D02*
X14504825Y-16115484D01*
X14504825Y-16115484D02*
X14523872Y-16105960D01*
X14523872Y-16105960D02*
X14533396Y-16086912D01*
X14533396Y-16086912D02*
X14533396Y-16077388D01*
X14533396Y-16077388D02*
X14523872Y-16058341D01*
X14523872Y-16058341D02*
X14504825Y-16048817D01*
X14504825Y-16048817D02*
X14476253Y-16048817D01*
X14476253Y-16048817D02*
X14457206Y-16039293D01*
X14457206Y-16039293D02*
X14447682Y-16020246D01*
X14447682Y-16020246D02*
X14447682Y-16010722D01*
X14447682Y-16010722D02*
X14457206Y-15991674D01*
X14457206Y-15991674D02*
X14476253Y-15982150D01*
X14476253Y-15982150D02*
X14504825Y-15982150D01*
X14504825Y-15982150D02*
X14523872Y-15991674D01*
X14600063Y-16191674D02*
X14609587Y-16182150D01*
X14609587Y-16182150D02*
X14628634Y-16153579D01*
X14628634Y-16153579D02*
X14638158Y-16134531D01*
X14638158Y-16134531D02*
X14647682Y-16105960D01*
X14647682Y-16105960D02*
X14657206Y-16058341D01*
X14657206Y-16058341D02*
X14657206Y-16020246D01*
X14657206Y-16020246D02*
X14647682Y-15972627D01*
X14647682Y-15972627D02*
X14638158Y-15944055D01*
X14638158Y-15944055D02*
X14628634Y-15925008D01*
X14628634Y-15925008D02*
X14609587Y-15896436D01*
X14609587Y-15896436D02*
X14600063Y-15886912D01*
D10*
X9780000Y-16243000D02*
X9780000Y-16333000D01*
X9735000Y-16288000D02*
X9825000Y-16288000D01*
D11*
X10123872Y-16179484D02*
X10142920Y-16179484D01*
X10142920Y-16179484D02*
X10161967Y-16189008D01*
X10161967Y-16189008D02*
X10171491Y-16198531D01*
X10171491Y-16198531D02*
X10181015Y-16217579D01*
X10181015Y-16217579D02*
X10190539Y-16255674D01*
X10190539Y-16255674D02*
X10190539Y-16303293D01*
X10190539Y-16303293D02*
X10181015Y-16341388D01*
X10181015Y-16341388D02*
X10171491Y-16360436D01*
X10171491Y-16360436D02*
X10161967Y-16369960D01*
X10161967Y-16369960D02*
X10142920Y-16379484D01*
X10142920Y-16379484D02*
X10123872Y-16379484D01*
X10123872Y-16379484D02*
X10104824Y-16369960D01*
X10104824Y-16369960D02*
X10095301Y-16360436D01*
X10095301Y-16360436D02*
X10085777Y-16341388D01*
X10085777Y-16341388D02*
X10076253Y-16303293D01*
X10076253Y-16303293D02*
X10076253Y-16255674D01*
X10076253Y-16255674D02*
X10085777Y-16217579D01*
X10085777Y-16217579D02*
X10095301Y-16198531D01*
X10095301Y-16198531D02*
X10104824Y-16189008D01*
X10104824Y-16189008D02*
X10123872Y-16179484D01*
X10276253Y-16360436D02*
X10285777Y-16369960D01*
X10285777Y-16369960D02*
X10276253Y-16379484D01*
X10276253Y-16379484D02*
X10266729Y-16369960D01*
X10266729Y-16369960D02*
X10276253Y-16360436D01*
X10276253Y-16360436D02*
X10276253Y-16379484D01*
X10381015Y-16379484D02*
X10419110Y-16379484D01*
X10419110Y-16379484D02*
X10438158Y-16369960D01*
X10438158Y-16369960D02*
X10447682Y-16360436D01*
X10447682Y-16360436D02*
X10466729Y-16331865D01*
X10466729Y-16331865D02*
X10476253Y-16293769D01*
X10476253Y-16293769D02*
X10476253Y-16217579D01*
X10476253Y-16217579D02*
X10466729Y-16198531D01*
X10466729Y-16198531D02*
X10457205Y-16189008D01*
X10457205Y-16189008D02*
X10438158Y-16179484D01*
X10438158Y-16179484D02*
X10400063Y-16179484D01*
X10400063Y-16179484D02*
X10381015Y-16189008D01*
X10381015Y-16189008D02*
X10371491Y-16198531D01*
X10371491Y-16198531D02*
X10361967Y-16217579D01*
X10361967Y-16217579D02*
X10361967Y-16265198D01*
X10361967Y-16265198D02*
X10371491Y-16284246D01*
X10371491Y-16284246D02*
X10381015Y-16293769D01*
X10381015Y-16293769D02*
X10400063Y-16303293D01*
X10400063Y-16303293D02*
X10438158Y-16303293D01*
X10438158Y-16303293D02*
X10457205Y-16293769D01*
X10457205Y-16293769D02*
X10466729Y-16284246D01*
X10466729Y-16284246D02*
X10476253Y-16265198D01*
X10600063Y-16179484D02*
X10619110Y-16179484D01*
X10619110Y-16179484D02*
X10638158Y-16189008D01*
X10638158Y-16189008D02*
X10647682Y-16198531D01*
X10647682Y-16198531D02*
X10657205Y-16217579D01*
X10657205Y-16217579D02*
X10666729Y-16255674D01*
X10666729Y-16255674D02*
X10666729Y-16303293D01*
X10666729Y-16303293D02*
X10657205Y-16341388D01*
X10657205Y-16341388D02*
X10647682Y-16360436D01*
X10647682Y-16360436D02*
X10638158Y-16369960D01*
X10638158Y-16369960D02*
X10619110Y-16379484D01*
X10619110Y-16379484D02*
X10600063Y-16379484D01*
X10600063Y-16379484D02*
X10581015Y-16369960D01*
X10581015Y-16369960D02*
X10571491Y-16360436D01*
X10571491Y-16360436D02*
X10561967Y-16341388D01*
X10561967Y-16341388D02*
X10552444Y-16303293D01*
X10552444Y-16303293D02*
X10552444Y-16255674D01*
X10552444Y-16255674D02*
X10561967Y-16217579D01*
X10561967Y-16217579D02*
X10571491Y-16198531D01*
X10571491Y-16198531D02*
X10581015Y-16189008D01*
X10581015Y-16189008D02*
X10600063Y-16179484D01*
X10790539Y-16179484D02*
X10809586Y-16179484D01*
X10809586Y-16179484D02*
X10828634Y-16189008D01*
X10828634Y-16189008D02*
X10838158Y-16198531D01*
X10838158Y-16198531D02*
X10847682Y-16217579D01*
X10847682Y-16217579D02*
X10857205Y-16255674D01*
X10857205Y-16255674D02*
X10857205Y-16303293D01*
X10857205Y-16303293D02*
X10847682Y-16341388D01*
X10847682Y-16341388D02*
X10838158Y-16360436D01*
X10838158Y-16360436D02*
X10828634Y-16369960D01*
X10828634Y-16369960D02*
X10809586Y-16379484D01*
X10809586Y-16379484D02*
X10790539Y-16379484D01*
X10790539Y-16379484D02*
X10771491Y-16369960D01*
X10771491Y-16369960D02*
X10761967Y-16360436D01*
X10761967Y-16360436D02*
X10752444Y-16341388D01*
X10752444Y-16341388D02*
X10742920Y-16303293D01*
X10742920Y-16303293D02*
X10742920Y-16255674D01*
X10742920Y-16255674D02*
X10752444Y-16217579D01*
X10752444Y-16217579D02*
X10761967Y-16198531D01*
X10761967Y-16198531D02*
X10771491Y-16189008D01*
X10771491Y-16189008D02*
X10790539Y-16179484D01*
X10942920Y-16379484D02*
X10942920Y-16246150D01*
X10942920Y-16265198D02*
X10952444Y-16255674D01*
X10952444Y-16255674D02*
X10971491Y-16246150D01*
X10971491Y-16246150D02*
X11000063Y-16246150D01*
X11000063Y-16246150D02*
X11019110Y-16255674D01*
X11019110Y-16255674D02*
X11028634Y-16274722D01*
X11028634Y-16274722D02*
X11028634Y-16379484D01*
X11028634Y-16274722D02*
X11038158Y-16255674D01*
X11038158Y-16255674D02*
X11057205Y-16246150D01*
X11057205Y-16246150D02*
X11085777Y-16246150D01*
X11085777Y-16246150D02*
X11104825Y-16255674D01*
X11104825Y-16255674D02*
X11114348Y-16274722D01*
X11114348Y-16274722D02*
X11114348Y-16379484D01*
X11209586Y-16379484D02*
X11209586Y-16246150D01*
X11209586Y-16265198D02*
X11219110Y-16255674D01*
X11219110Y-16255674D02*
X11238158Y-16246150D01*
X11238158Y-16246150D02*
X11266729Y-16246150D01*
X11266729Y-16246150D02*
X11285777Y-16255674D01*
X11285777Y-16255674D02*
X11295301Y-16274722D01*
X11295301Y-16274722D02*
X11295301Y-16379484D01*
X11295301Y-16274722D02*
X11304824Y-16255674D01*
X11304824Y-16255674D02*
X11323872Y-16246150D01*
X11323872Y-16246150D02*
X11352443Y-16246150D01*
X11352443Y-16246150D02*
X11371491Y-16255674D01*
X11371491Y-16255674D02*
X11381015Y-16274722D01*
X11381015Y-16274722D02*
X11381015Y-16379484D01*
X11771491Y-16169960D02*
X11600063Y-16427103D01*
X12028634Y-16179484D02*
X12047682Y-16179484D01*
X12047682Y-16179484D02*
X12066729Y-16189008D01*
X12066729Y-16189008D02*
X12076253Y-16198531D01*
X12076253Y-16198531D02*
X12085777Y-16217579D01*
X12085777Y-16217579D02*
X12095301Y-16255674D01*
X12095301Y-16255674D02*
X12095301Y-16303293D01*
X12095301Y-16303293D02*
X12085777Y-16341388D01*
X12085777Y-16341388D02*
X12076253Y-16360436D01*
X12076253Y-16360436D02*
X12066729Y-16369960D01*
X12066729Y-16369960D02*
X12047682Y-16379484D01*
X12047682Y-16379484D02*
X12028634Y-16379484D01*
X12028634Y-16379484D02*
X12009586Y-16369960D01*
X12009586Y-16369960D02*
X12000063Y-16360436D01*
X12000063Y-16360436D02*
X11990539Y-16341388D01*
X11990539Y-16341388D02*
X11981015Y-16303293D01*
X11981015Y-16303293D02*
X11981015Y-16255674D01*
X11981015Y-16255674D02*
X11990539Y-16217579D01*
X11990539Y-16217579D02*
X12000063Y-16198531D01*
X12000063Y-16198531D02*
X12009586Y-16189008D01*
X12009586Y-16189008D02*
X12028634Y-16179484D01*
X12181015Y-16360436D02*
X12190539Y-16369960D01*
X12190539Y-16369960D02*
X12181015Y-16379484D01*
X12181015Y-16379484D02*
X12171491Y-16369960D01*
X12171491Y-16369960D02*
X12181015Y-16360436D01*
X12181015Y-16360436D02*
X12181015Y-16379484D01*
X12314348Y-16179484D02*
X12333396Y-16179484D01*
X12333396Y-16179484D02*
X12352444Y-16189008D01*
X12352444Y-16189008D02*
X12361967Y-16198531D01*
X12361967Y-16198531D02*
X12371491Y-16217579D01*
X12371491Y-16217579D02*
X12381015Y-16255674D01*
X12381015Y-16255674D02*
X12381015Y-16303293D01*
X12381015Y-16303293D02*
X12371491Y-16341388D01*
X12371491Y-16341388D02*
X12361967Y-16360436D01*
X12361967Y-16360436D02*
X12352444Y-16369960D01*
X12352444Y-16369960D02*
X12333396Y-16379484D01*
X12333396Y-16379484D02*
X12314348Y-16379484D01*
X12314348Y-16379484D02*
X12295301Y-16369960D01*
X12295301Y-16369960D02*
X12285777Y-16360436D01*
X12285777Y-16360436D02*
X12276253Y-16341388D01*
X12276253Y-16341388D02*
X12266729Y-16303293D01*
X12266729Y-16303293D02*
X12266729Y-16255674D01*
X12266729Y-16255674D02*
X12276253Y-16217579D01*
X12276253Y-16217579D02*
X12285777Y-16198531D01*
X12285777Y-16198531D02*
X12295301Y-16189008D01*
X12295301Y-16189008D02*
X12314348Y-16179484D01*
X12447682Y-16179484D02*
X12571491Y-16179484D01*
X12571491Y-16179484D02*
X12504825Y-16255674D01*
X12504825Y-16255674D02*
X12533396Y-16255674D01*
X12533396Y-16255674D02*
X12552444Y-16265198D01*
X12552444Y-16265198D02*
X12561967Y-16274722D01*
X12561967Y-16274722D02*
X12571491Y-16293769D01*
X12571491Y-16293769D02*
X12571491Y-16341388D01*
X12571491Y-16341388D02*
X12561967Y-16360436D01*
X12561967Y-16360436D02*
X12552444Y-16369960D01*
X12552444Y-16369960D02*
X12533396Y-16379484D01*
X12533396Y-16379484D02*
X12476253Y-16379484D01*
X12476253Y-16379484D02*
X12457206Y-16369960D01*
X12457206Y-16369960D02*
X12447682Y-16360436D01*
X12752444Y-16179484D02*
X12657206Y-16179484D01*
X12657206Y-16179484D02*
X12647682Y-16274722D01*
X12647682Y-16274722D02*
X12657206Y-16265198D01*
X12657206Y-16265198D02*
X12676253Y-16255674D01*
X12676253Y-16255674D02*
X12723872Y-16255674D01*
X12723872Y-16255674D02*
X12742920Y-16265198D01*
X12742920Y-16265198D02*
X12752444Y-16274722D01*
X12752444Y-16274722D02*
X12761967Y-16293769D01*
X12761967Y-16293769D02*
X12761967Y-16341388D01*
X12761967Y-16341388D02*
X12752444Y-16360436D01*
X12752444Y-16360436D02*
X12742920Y-16369960D01*
X12742920Y-16369960D02*
X12723872Y-16379484D01*
X12723872Y-16379484D02*
X12676253Y-16379484D01*
X12676253Y-16379484D02*
X12657206Y-16369960D01*
X12657206Y-16369960D02*
X12647682Y-16360436D01*
X12933396Y-16246150D02*
X12933396Y-16379484D01*
X12885777Y-16169960D02*
X12838158Y-16312817D01*
X12838158Y-16312817D02*
X12961967Y-16312817D01*
X13028634Y-16179484D02*
X13028634Y-16217579D01*
X13104825Y-16179484D02*
X13104825Y-16217579D01*
X13400063Y-16455674D02*
X13390539Y-16446150D01*
X13390539Y-16446150D02*
X13371491Y-16417579D01*
X13371491Y-16417579D02*
X13361968Y-16398531D01*
X13361968Y-16398531D02*
X13352444Y-16369960D01*
X13352444Y-16369960D02*
X13342920Y-16322341D01*
X13342920Y-16322341D02*
X13342920Y-16284246D01*
X13342920Y-16284246D02*
X13352444Y-16236627D01*
X13352444Y-16236627D02*
X13361968Y-16208055D01*
X13361968Y-16208055D02*
X13371491Y-16189008D01*
X13371491Y-16189008D02*
X13390539Y-16160436D01*
X13390539Y-16160436D02*
X13400063Y-16150912D01*
X13485777Y-16379484D02*
X13523872Y-16379484D01*
X13523872Y-16379484D02*
X13542920Y-16369960D01*
X13542920Y-16369960D02*
X13552444Y-16360436D01*
X13552444Y-16360436D02*
X13571491Y-16331865D01*
X13571491Y-16331865D02*
X13581015Y-16293769D01*
X13581015Y-16293769D02*
X13581015Y-16217579D01*
X13581015Y-16217579D02*
X13571491Y-16198531D01*
X13571491Y-16198531D02*
X13561968Y-16189008D01*
X13561968Y-16189008D02*
X13542920Y-16179484D01*
X13542920Y-16179484D02*
X13504825Y-16179484D01*
X13504825Y-16179484D02*
X13485777Y-16189008D01*
X13485777Y-16189008D02*
X13476253Y-16198531D01*
X13476253Y-16198531D02*
X13466729Y-16217579D01*
X13466729Y-16217579D02*
X13466729Y-16265198D01*
X13466729Y-16265198D02*
X13476253Y-16284246D01*
X13476253Y-16284246D02*
X13485777Y-16293769D01*
X13485777Y-16293769D02*
X13504825Y-16303293D01*
X13504825Y-16303293D02*
X13542920Y-16303293D01*
X13542920Y-16303293D02*
X13561968Y-16293769D01*
X13561968Y-16293769D02*
X13571491Y-16284246D01*
X13571491Y-16284246D02*
X13581015Y-16265198D01*
X13819110Y-16379484D02*
X13819110Y-16179484D01*
X13904825Y-16379484D02*
X13904825Y-16274722D01*
X13904825Y-16274722D02*
X13895301Y-16255674D01*
X13895301Y-16255674D02*
X13876253Y-16246150D01*
X13876253Y-16246150D02*
X13847682Y-16246150D01*
X13847682Y-16246150D02*
X13828634Y-16255674D01*
X13828634Y-16255674D02*
X13819110Y-16265198D01*
X14028634Y-16379484D02*
X14009587Y-16369960D01*
X14009587Y-16369960D02*
X14000063Y-16360436D01*
X14000063Y-16360436D02*
X13990539Y-16341388D01*
X13990539Y-16341388D02*
X13990539Y-16284246D01*
X13990539Y-16284246D02*
X14000063Y-16265198D01*
X14000063Y-16265198D02*
X14009587Y-16255674D01*
X14009587Y-16255674D02*
X14028634Y-16246150D01*
X14028634Y-16246150D02*
X14057206Y-16246150D01*
X14057206Y-16246150D02*
X14076253Y-16255674D01*
X14076253Y-16255674D02*
X14085777Y-16265198D01*
X14085777Y-16265198D02*
X14095301Y-16284246D01*
X14095301Y-16284246D02*
X14095301Y-16341388D01*
X14095301Y-16341388D02*
X14085777Y-16360436D01*
X14085777Y-16360436D02*
X14076253Y-16369960D01*
X14076253Y-16369960D02*
X14057206Y-16379484D01*
X14057206Y-16379484D02*
X14028634Y-16379484D01*
X14209587Y-16379484D02*
X14190539Y-16369960D01*
X14190539Y-16369960D02*
X14181015Y-16350912D01*
X14181015Y-16350912D02*
X14181015Y-16179484D01*
X14361968Y-16369960D02*
X14342920Y-16379484D01*
X14342920Y-16379484D02*
X14304825Y-16379484D01*
X14304825Y-16379484D02*
X14285777Y-16369960D01*
X14285777Y-16369960D02*
X14276253Y-16350912D01*
X14276253Y-16350912D02*
X14276253Y-16274722D01*
X14276253Y-16274722D02*
X14285777Y-16255674D01*
X14285777Y-16255674D02*
X14304825Y-16246150D01*
X14304825Y-16246150D02*
X14342920Y-16246150D01*
X14342920Y-16246150D02*
X14361968Y-16255674D01*
X14361968Y-16255674D02*
X14371491Y-16274722D01*
X14371491Y-16274722D02*
X14371491Y-16293769D01*
X14371491Y-16293769D02*
X14276253Y-16312817D01*
X14447682Y-16369960D02*
X14466730Y-16379484D01*
X14466730Y-16379484D02*
X14504825Y-16379484D01*
X14504825Y-16379484D02*
X14523872Y-16369960D01*
X14523872Y-16369960D02*
X14533396Y-16350912D01*
X14533396Y-16350912D02*
X14533396Y-16341388D01*
X14533396Y-16341388D02*
X14523872Y-16322341D01*
X14523872Y-16322341D02*
X14504825Y-16312817D01*
X14504825Y-16312817D02*
X14476253Y-16312817D01*
X14476253Y-16312817D02*
X14457206Y-16303293D01*
X14457206Y-16303293D02*
X14447682Y-16284246D01*
X14447682Y-16284246D02*
X14447682Y-16274722D01*
X14447682Y-16274722D02*
X14457206Y-16255674D01*
X14457206Y-16255674D02*
X14476253Y-16246150D01*
X14476253Y-16246150D02*
X14504825Y-16246150D01*
X14504825Y-16246150D02*
X14523872Y-16255674D01*
X14600063Y-16455674D02*
X14609587Y-16446150D01*
X14609587Y-16446150D02*
X14628634Y-16417579D01*
X14628634Y-16417579D02*
X14638158Y-16398531D01*
X14638158Y-16398531D02*
X14647682Y-16369960D01*
X14647682Y-16369960D02*
X14657206Y-16322341D01*
X14657206Y-16322341D02*
X14657206Y-16284246D01*
X14657206Y-16284246D02*
X14647682Y-16236627D01*
X14647682Y-16236627D02*
X14638158Y-16208055D01*
X14638158Y-16208055D02*
X14628634Y-16189008D01*
X14628634Y-16189008D02*
X14609587Y-16160436D01*
X14609587Y-16160436D02*
X14600063Y-16150912D01*
D10*
X9811088Y-16585588D02*
X9811088Y-16518412D01*
X9743912Y-16518412D01*
X9743912Y-16585588D01*
X9811088Y-16585588D01*
D11*
X10123872Y-16443484D02*
X10142920Y-16443484D01*
X10142920Y-16443484D02*
X10161967Y-16453008D01*
X10161967Y-16453008D02*
X10171491Y-16462531D01*
X10171491Y-16462531D02*
X10181015Y-16481579D01*
X10181015Y-16481579D02*
X10190539Y-16519674D01*
X10190539Y-16519674D02*
X10190539Y-16567293D01*
X10190539Y-16567293D02*
X10181015Y-16605388D01*
X10181015Y-16605388D02*
X10171491Y-16624436D01*
X10171491Y-16624436D02*
X10161967Y-16633960D01*
X10161967Y-16633960D02*
X10142920Y-16643484D01*
X10142920Y-16643484D02*
X10123872Y-16643484D01*
X10123872Y-16643484D02*
X10104824Y-16633960D01*
X10104824Y-16633960D02*
X10095301Y-16624436D01*
X10095301Y-16624436D02*
X10085777Y-16605388D01*
X10085777Y-16605388D02*
X10076253Y-16567293D01*
X10076253Y-16567293D02*
X10076253Y-16519674D01*
X10076253Y-16519674D02*
X10085777Y-16481579D01*
X10085777Y-16481579D02*
X10095301Y-16462531D01*
X10095301Y-16462531D02*
X10104824Y-16453008D01*
X10104824Y-16453008D02*
X10123872Y-16443484D01*
X10276253Y-16624436D02*
X10285777Y-16633960D01*
X10285777Y-16633960D02*
X10276253Y-16643484D01*
X10276253Y-16643484D02*
X10266729Y-16633960D01*
X10266729Y-16633960D02*
X10276253Y-16624436D01*
X10276253Y-16624436D02*
X10276253Y-16643484D01*
X10381015Y-16643484D02*
X10419110Y-16643484D01*
X10419110Y-16643484D02*
X10438158Y-16633960D01*
X10438158Y-16633960D02*
X10447682Y-16624436D01*
X10447682Y-16624436D02*
X10466729Y-16595865D01*
X10466729Y-16595865D02*
X10476253Y-16557769D01*
X10476253Y-16557769D02*
X10476253Y-16481579D01*
X10476253Y-16481579D02*
X10466729Y-16462531D01*
X10466729Y-16462531D02*
X10457205Y-16453008D01*
X10457205Y-16453008D02*
X10438158Y-16443484D01*
X10438158Y-16443484D02*
X10400063Y-16443484D01*
X10400063Y-16443484D02*
X10381015Y-16453008D01*
X10381015Y-16453008D02*
X10371491Y-16462531D01*
X10371491Y-16462531D02*
X10361967Y-16481579D01*
X10361967Y-16481579D02*
X10361967Y-16529198D01*
X10361967Y-16529198D02*
X10371491Y-16548246D01*
X10371491Y-16548246D02*
X10381015Y-16557769D01*
X10381015Y-16557769D02*
X10400063Y-16567293D01*
X10400063Y-16567293D02*
X10438158Y-16567293D01*
X10438158Y-16567293D02*
X10457205Y-16557769D01*
X10457205Y-16557769D02*
X10466729Y-16548246D01*
X10466729Y-16548246D02*
X10476253Y-16529198D01*
X10657205Y-16443484D02*
X10561967Y-16443484D01*
X10561967Y-16443484D02*
X10552444Y-16538722D01*
X10552444Y-16538722D02*
X10561967Y-16529198D01*
X10561967Y-16529198D02*
X10581015Y-16519674D01*
X10581015Y-16519674D02*
X10628634Y-16519674D01*
X10628634Y-16519674D02*
X10647682Y-16529198D01*
X10647682Y-16529198D02*
X10657205Y-16538722D01*
X10657205Y-16538722D02*
X10666729Y-16557769D01*
X10666729Y-16557769D02*
X10666729Y-16605388D01*
X10666729Y-16605388D02*
X10657205Y-16624436D01*
X10657205Y-16624436D02*
X10647682Y-16633960D01*
X10647682Y-16633960D02*
X10628634Y-16643484D01*
X10628634Y-16643484D02*
X10581015Y-16643484D01*
X10581015Y-16643484D02*
X10561967Y-16633960D01*
X10561967Y-16633960D02*
X10552444Y-16624436D01*
X10790539Y-16443484D02*
X10809586Y-16443484D01*
X10809586Y-16443484D02*
X10828634Y-16453008D01*
X10828634Y-16453008D02*
X10838158Y-16462531D01*
X10838158Y-16462531D02*
X10847682Y-16481579D01*
X10847682Y-16481579D02*
X10857205Y-16519674D01*
X10857205Y-16519674D02*
X10857205Y-16567293D01*
X10857205Y-16567293D02*
X10847682Y-16605388D01*
X10847682Y-16605388D02*
X10838158Y-16624436D01*
X10838158Y-16624436D02*
X10828634Y-16633960D01*
X10828634Y-16633960D02*
X10809586Y-16643484D01*
X10809586Y-16643484D02*
X10790539Y-16643484D01*
X10790539Y-16643484D02*
X10771491Y-16633960D01*
X10771491Y-16633960D02*
X10761967Y-16624436D01*
X10761967Y-16624436D02*
X10752444Y-16605388D01*
X10752444Y-16605388D02*
X10742920Y-16567293D01*
X10742920Y-16567293D02*
X10742920Y-16519674D01*
X10742920Y-16519674D02*
X10752444Y-16481579D01*
X10752444Y-16481579D02*
X10761967Y-16462531D01*
X10761967Y-16462531D02*
X10771491Y-16453008D01*
X10771491Y-16453008D02*
X10790539Y-16443484D01*
X10942920Y-16643484D02*
X10942920Y-16510150D01*
X10942920Y-16529198D02*
X10952444Y-16519674D01*
X10952444Y-16519674D02*
X10971491Y-16510150D01*
X10971491Y-16510150D02*
X11000063Y-16510150D01*
X11000063Y-16510150D02*
X11019110Y-16519674D01*
X11019110Y-16519674D02*
X11028634Y-16538722D01*
X11028634Y-16538722D02*
X11028634Y-16643484D01*
X11028634Y-16538722D02*
X11038158Y-16519674D01*
X11038158Y-16519674D02*
X11057205Y-16510150D01*
X11057205Y-16510150D02*
X11085777Y-16510150D01*
X11085777Y-16510150D02*
X11104825Y-16519674D01*
X11104825Y-16519674D02*
X11114348Y-16538722D01*
X11114348Y-16538722D02*
X11114348Y-16643484D01*
X11209586Y-16643484D02*
X11209586Y-16510150D01*
X11209586Y-16529198D02*
X11219110Y-16519674D01*
X11219110Y-16519674D02*
X11238158Y-16510150D01*
X11238158Y-16510150D02*
X11266729Y-16510150D01*
X11266729Y-16510150D02*
X11285777Y-16519674D01*
X11285777Y-16519674D02*
X11295301Y-16538722D01*
X11295301Y-16538722D02*
X11295301Y-16643484D01*
X11295301Y-16538722D02*
X11304824Y-16519674D01*
X11304824Y-16519674D02*
X11323872Y-16510150D01*
X11323872Y-16510150D02*
X11352443Y-16510150D01*
X11352443Y-16510150D02*
X11371491Y-16519674D01*
X11371491Y-16519674D02*
X11381015Y-16538722D01*
X11381015Y-16538722D02*
X11381015Y-16643484D01*
X11771491Y-16433960D02*
X11600063Y-16691103D01*
X12028634Y-16443484D02*
X12047682Y-16443484D01*
X12047682Y-16443484D02*
X12066729Y-16453008D01*
X12066729Y-16453008D02*
X12076253Y-16462531D01*
X12076253Y-16462531D02*
X12085777Y-16481579D01*
X12085777Y-16481579D02*
X12095301Y-16519674D01*
X12095301Y-16519674D02*
X12095301Y-16567293D01*
X12095301Y-16567293D02*
X12085777Y-16605388D01*
X12085777Y-16605388D02*
X12076253Y-16624436D01*
X12076253Y-16624436D02*
X12066729Y-16633960D01*
X12066729Y-16633960D02*
X12047682Y-16643484D01*
X12047682Y-16643484D02*
X12028634Y-16643484D01*
X12028634Y-16643484D02*
X12009586Y-16633960D01*
X12009586Y-16633960D02*
X12000063Y-16624436D01*
X12000063Y-16624436D02*
X11990539Y-16605388D01*
X11990539Y-16605388D02*
X11981015Y-16567293D01*
X11981015Y-16567293D02*
X11981015Y-16519674D01*
X11981015Y-16519674D02*
X11990539Y-16481579D01*
X11990539Y-16481579D02*
X12000063Y-16462531D01*
X12000063Y-16462531D02*
X12009586Y-16453008D01*
X12009586Y-16453008D02*
X12028634Y-16443484D01*
X12181015Y-16624436D02*
X12190539Y-16633960D01*
X12190539Y-16633960D02*
X12181015Y-16643484D01*
X12181015Y-16643484D02*
X12171491Y-16633960D01*
X12171491Y-16633960D02*
X12181015Y-16624436D01*
X12181015Y-16624436D02*
X12181015Y-16643484D01*
X12314348Y-16443484D02*
X12333396Y-16443484D01*
X12333396Y-16443484D02*
X12352444Y-16453008D01*
X12352444Y-16453008D02*
X12361967Y-16462531D01*
X12361967Y-16462531D02*
X12371491Y-16481579D01*
X12371491Y-16481579D02*
X12381015Y-16519674D01*
X12381015Y-16519674D02*
X12381015Y-16567293D01*
X12381015Y-16567293D02*
X12371491Y-16605388D01*
X12371491Y-16605388D02*
X12361967Y-16624436D01*
X12361967Y-16624436D02*
X12352444Y-16633960D01*
X12352444Y-16633960D02*
X12333396Y-16643484D01*
X12333396Y-16643484D02*
X12314348Y-16643484D01*
X12314348Y-16643484D02*
X12295301Y-16633960D01*
X12295301Y-16633960D02*
X12285777Y-16624436D01*
X12285777Y-16624436D02*
X12276253Y-16605388D01*
X12276253Y-16605388D02*
X12266729Y-16567293D01*
X12266729Y-16567293D02*
X12266729Y-16519674D01*
X12266729Y-16519674D02*
X12276253Y-16481579D01*
X12276253Y-16481579D02*
X12285777Y-16462531D01*
X12285777Y-16462531D02*
X12295301Y-16453008D01*
X12295301Y-16453008D02*
X12314348Y-16443484D01*
X12447682Y-16443484D02*
X12571491Y-16443484D01*
X12571491Y-16443484D02*
X12504825Y-16519674D01*
X12504825Y-16519674D02*
X12533396Y-16519674D01*
X12533396Y-16519674D02*
X12552444Y-16529198D01*
X12552444Y-16529198D02*
X12561967Y-16538722D01*
X12561967Y-16538722D02*
X12571491Y-16557769D01*
X12571491Y-16557769D02*
X12571491Y-16605388D01*
X12571491Y-16605388D02*
X12561967Y-16624436D01*
X12561967Y-16624436D02*
X12552444Y-16633960D01*
X12552444Y-16633960D02*
X12533396Y-16643484D01*
X12533396Y-16643484D02*
X12476253Y-16643484D01*
X12476253Y-16643484D02*
X12457206Y-16633960D01*
X12457206Y-16633960D02*
X12447682Y-16624436D01*
X12638158Y-16443484D02*
X12771491Y-16443484D01*
X12771491Y-16443484D02*
X12685777Y-16643484D01*
X12933396Y-16510150D02*
X12933396Y-16643484D01*
X12885777Y-16433960D02*
X12838158Y-16576817D01*
X12838158Y-16576817D02*
X12961967Y-16576817D01*
X13028634Y-16443484D02*
X13028634Y-16481579D01*
X13104825Y-16443484D02*
X13104825Y-16481579D01*
X13400063Y-16719674D02*
X13390539Y-16710150D01*
X13390539Y-16710150D02*
X13371491Y-16681579D01*
X13371491Y-16681579D02*
X13361968Y-16662531D01*
X13361968Y-16662531D02*
X13352444Y-16633960D01*
X13352444Y-16633960D02*
X13342920Y-16586341D01*
X13342920Y-16586341D02*
X13342920Y-16548246D01*
X13342920Y-16548246D02*
X13352444Y-16500627D01*
X13352444Y-16500627D02*
X13361968Y-16472055D01*
X13361968Y-16472055D02*
X13371491Y-16453008D01*
X13371491Y-16453008D02*
X13390539Y-16424436D01*
X13390539Y-16424436D02*
X13400063Y-16414912D01*
X13561968Y-16510150D02*
X13561968Y-16643484D01*
X13514348Y-16433960D02*
X13466729Y-16576817D01*
X13466729Y-16576817D02*
X13590539Y-16576817D01*
X13819110Y-16643484D02*
X13819110Y-16443484D01*
X13904825Y-16643484D02*
X13904825Y-16538722D01*
X13904825Y-16538722D02*
X13895301Y-16519674D01*
X13895301Y-16519674D02*
X13876253Y-16510150D01*
X13876253Y-16510150D02*
X13847682Y-16510150D01*
X13847682Y-16510150D02*
X13828634Y-16519674D01*
X13828634Y-16519674D02*
X13819110Y-16529198D01*
X14028634Y-16643484D02*
X14009587Y-16633960D01*
X14009587Y-16633960D02*
X14000063Y-16624436D01*
X14000063Y-16624436D02*
X13990539Y-16605388D01*
X13990539Y-16605388D02*
X13990539Y-16548246D01*
X13990539Y-16548246D02*
X14000063Y-16529198D01*
X14000063Y-16529198D02*
X14009587Y-16519674D01*
X14009587Y-16519674D02*
X14028634Y-16510150D01*
X14028634Y-16510150D02*
X14057206Y-16510150D01*
X14057206Y-16510150D02*
X14076253Y-16519674D01*
X14076253Y-16519674D02*
X14085777Y-16529198D01*
X14085777Y-16529198D02*
X14095301Y-16548246D01*
X14095301Y-16548246D02*
X14095301Y-16605388D01*
X14095301Y-16605388D02*
X14085777Y-16624436D01*
X14085777Y-16624436D02*
X14076253Y-16633960D01*
X14076253Y-16633960D02*
X14057206Y-16643484D01*
X14057206Y-16643484D02*
X14028634Y-16643484D01*
X14209587Y-16643484D02*
X14190539Y-16633960D01*
X14190539Y-16633960D02*
X14181015Y-16614912D01*
X14181015Y-16614912D02*
X14181015Y-16443484D01*
X14361968Y-16633960D02*
X14342920Y-16643484D01*
X14342920Y-16643484D02*
X14304825Y-16643484D01*
X14304825Y-16643484D02*
X14285777Y-16633960D01*
X14285777Y-16633960D02*
X14276253Y-16614912D01*
X14276253Y-16614912D02*
X14276253Y-16538722D01*
X14276253Y-16538722D02*
X14285777Y-16519674D01*
X14285777Y-16519674D02*
X14304825Y-16510150D01*
X14304825Y-16510150D02*
X14342920Y-16510150D01*
X14342920Y-16510150D02*
X14361968Y-16519674D01*
X14361968Y-16519674D02*
X14371491Y-16538722D01*
X14371491Y-16538722D02*
X14371491Y-16557769D01*
X14371491Y-16557769D02*
X14276253Y-16576817D01*
X14447682Y-16633960D02*
X14466730Y-16643484D01*
X14466730Y-16643484D02*
X14504825Y-16643484D01*
X14504825Y-16643484D02*
X14523872Y-16633960D01*
X14523872Y-16633960D02*
X14533396Y-16614912D01*
X14533396Y-16614912D02*
X14533396Y-16605388D01*
X14533396Y-16605388D02*
X14523872Y-16586341D01*
X14523872Y-16586341D02*
X14504825Y-16576817D01*
X14504825Y-16576817D02*
X14476253Y-16576817D01*
X14476253Y-16576817D02*
X14457206Y-16567293D01*
X14457206Y-16567293D02*
X14447682Y-16548246D01*
X14447682Y-16548246D02*
X14447682Y-16538722D01*
X14447682Y-16538722D02*
X14457206Y-16519674D01*
X14457206Y-16519674D02*
X14476253Y-16510150D01*
X14476253Y-16510150D02*
X14504825Y-16510150D01*
X14504825Y-16510150D02*
X14523872Y-16519674D01*
X14600063Y-16719674D02*
X14609587Y-16710150D01*
X14609587Y-16710150D02*
X14628634Y-16681579D01*
X14628634Y-16681579D02*
X14638158Y-16662531D01*
X14638158Y-16662531D02*
X14647682Y-16633960D01*
X14647682Y-16633960D02*
X14657206Y-16586341D01*
X14657206Y-16586341D02*
X14657206Y-16548246D01*
X14657206Y-16548246D02*
X14647682Y-16500627D01*
X14647682Y-16500627D02*
X14638158Y-16472055D01*
X14638158Y-16472055D02*
X14628634Y-16453008D01*
X14628634Y-16453008D02*
X14609587Y-16424436D01*
X14609587Y-16424436D02*
X14600063Y-16414912D01*
D10*
X9775000Y-16866000D02*
X9825000Y-16816000D01*
X9775000Y-16766000D01*
X9725000Y-16816000D01*
X9775000Y-16866000D01*
D11*
X10190539Y-16907484D02*
X10076253Y-16907484D01*
X10133396Y-16907484D02*
X10133396Y-16707484D01*
X10133396Y-16707484D02*
X10114348Y-16736055D01*
X10114348Y-16736055D02*
X10095301Y-16755103D01*
X10095301Y-16755103D02*
X10076253Y-16764627D01*
X10276253Y-16888436D02*
X10285777Y-16897960D01*
X10285777Y-16897960D02*
X10276253Y-16907484D01*
X10276253Y-16907484D02*
X10266729Y-16897960D01*
X10266729Y-16897960D02*
X10276253Y-16888436D01*
X10276253Y-16888436D02*
X10276253Y-16907484D01*
X10409586Y-16707484D02*
X10428634Y-16707484D01*
X10428634Y-16707484D02*
X10447682Y-16717008D01*
X10447682Y-16717008D02*
X10457205Y-16726531D01*
X10457205Y-16726531D02*
X10466729Y-16745579D01*
X10466729Y-16745579D02*
X10476253Y-16783674D01*
X10476253Y-16783674D02*
X10476253Y-16831293D01*
X10476253Y-16831293D02*
X10466729Y-16869389D01*
X10466729Y-16869389D02*
X10457205Y-16888436D01*
X10457205Y-16888436D02*
X10447682Y-16897960D01*
X10447682Y-16897960D02*
X10428634Y-16907484D01*
X10428634Y-16907484D02*
X10409586Y-16907484D01*
X10409586Y-16907484D02*
X10390539Y-16897960D01*
X10390539Y-16897960D02*
X10381015Y-16888436D01*
X10381015Y-16888436D02*
X10371491Y-16869389D01*
X10371491Y-16869389D02*
X10361967Y-16831293D01*
X10361967Y-16831293D02*
X10361967Y-16783674D01*
X10361967Y-16783674D02*
X10371491Y-16745579D01*
X10371491Y-16745579D02*
X10381015Y-16726531D01*
X10381015Y-16726531D02*
X10390539Y-16717008D01*
X10390539Y-16717008D02*
X10409586Y-16707484D01*
X10600063Y-16707484D02*
X10619110Y-16707484D01*
X10619110Y-16707484D02*
X10638158Y-16717008D01*
X10638158Y-16717008D02*
X10647682Y-16726531D01*
X10647682Y-16726531D02*
X10657205Y-16745579D01*
X10657205Y-16745579D02*
X10666729Y-16783674D01*
X10666729Y-16783674D02*
X10666729Y-16831293D01*
X10666729Y-16831293D02*
X10657205Y-16869389D01*
X10657205Y-16869389D02*
X10647682Y-16888436D01*
X10647682Y-16888436D02*
X10638158Y-16897960D01*
X10638158Y-16897960D02*
X10619110Y-16907484D01*
X10619110Y-16907484D02*
X10600063Y-16907484D01*
X10600063Y-16907484D02*
X10581015Y-16897960D01*
X10581015Y-16897960D02*
X10571491Y-16888436D01*
X10571491Y-16888436D02*
X10561967Y-16869389D01*
X10561967Y-16869389D02*
X10552444Y-16831293D01*
X10552444Y-16831293D02*
X10552444Y-16783674D01*
X10552444Y-16783674D02*
X10561967Y-16745579D01*
X10561967Y-16745579D02*
X10571491Y-16726531D01*
X10571491Y-16726531D02*
X10581015Y-16717008D01*
X10581015Y-16717008D02*
X10600063Y-16707484D01*
X10790539Y-16707484D02*
X10809586Y-16707484D01*
X10809586Y-16707484D02*
X10828634Y-16717008D01*
X10828634Y-16717008D02*
X10838158Y-16726531D01*
X10838158Y-16726531D02*
X10847682Y-16745579D01*
X10847682Y-16745579D02*
X10857205Y-16783674D01*
X10857205Y-16783674D02*
X10857205Y-16831293D01*
X10857205Y-16831293D02*
X10847682Y-16869389D01*
X10847682Y-16869389D02*
X10838158Y-16888436D01*
X10838158Y-16888436D02*
X10828634Y-16897960D01*
X10828634Y-16897960D02*
X10809586Y-16907484D01*
X10809586Y-16907484D02*
X10790539Y-16907484D01*
X10790539Y-16907484D02*
X10771491Y-16897960D01*
X10771491Y-16897960D02*
X10761967Y-16888436D01*
X10761967Y-16888436D02*
X10752444Y-16869389D01*
X10752444Y-16869389D02*
X10742920Y-16831293D01*
X10742920Y-16831293D02*
X10742920Y-16783674D01*
X10742920Y-16783674D02*
X10752444Y-16745579D01*
X10752444Y-16745579D02*
X10761967Y-16726531D01*
X10761967Y-16726531D02*
X10771491Y-16717008D01*
X10771491Y-16717008D02*
X10790539Y-16707484D01*
X10942920Y-16907484D02*
X10942920Y-16774150D01*
X10942920Y-16793198D02*
X10952444Y-16783674D01*
X10952444Y-16783674D02*
X10971491Y-16774150D01*
X10971491Y-16774150D02*
X11000063Y-16774150D01*
X11000063Y-16774150D02*
X11019110Y-16783674D01*
X11019110Y-16783674D02*
X11028634Y-16802722D01*
X11028634Y-16802722D02*
X11028634Y-16907484D01*
X11028634Y-16802722D02*
X11038158Y-16783674D01*
X11038158Y-16783674D02*
X11057205Y-16774150D01*
X11057205Y-16774150D02*
X11085777Y-16774150D01*
X11085777Y-16774150D02*
X11104825Y-16783674D01*
X11104825Y-16783674D02*
X11114348Y-16802722D01*
X11114348Y-16802722D02*
X11114348Y-16907484D01*
X11209586Y-16907484D02*
X11209586Y-16774150D01*
X11209586Y-16793198D02*
X11219110Y-16783674D01*
X11219110Y-16783674D02*
X11238158Y-16774150D01*
X11238158Y-16774150D02*
X11266729Y-16774150D01*
X11266729Y-16774150D02*
X11285777Y-16783674D01*
X11285777Y-16783674D02*
X11295301Y-16802722D01*
X11295301Y-16802722D02*
X11295301Y-16907484D01*
X11295301Y-16802722D02*
X11304824Y-16783674D01*
X11304824Y-16783674D02*
X11323872Y-16774150D01*
X11323872Y-16774150D02*
X11352443Y-16774150D01*
X11352443Y-16774150D02*
X11371491Y-16783674D01*
X11371491Y-16783674D02*
X11381015Y-16802722D01*
X11381015Y-16802722D02*
X11381015Y-16907484D01*
X11771491Y-16697960D02*
X11600063Y-16955103D01*
X12028634Y-16707484D02*
X12047682Y-16707484D01*
X12047682Y-16707484D02*
X12066729Y-16717008D01*
X12066729Y-16717008D02*
X12076253Y-16726531D01*
X12076253Y-16726531D02*
X12085777Y-16745579D01*
X12085777Y-16745579D02*
X12095301Y-16783674D01*
X12095301Y-16783674D02*
X12095301Y-16831293D01*
X12095301Y-16831293D02*
X12085777Y-16869389D01*
X12085777Y-16869389D02*
X12076253Y-16888436D01*
X12076253Y-16888436D02*
X12066729Y-16897960D01*
X12066729Y-16897960D02*
X12047682Y-16907484D01*
X12047682Y-16907484D02*
X12028634Y-16907484D01*
X12028634Y-16907484D02*
X12009586Y-16897960D01*
X12009586Y-16897960D02*
X12000063Y-16888436D01*
X12000063Y-16888436D02*
X11990539Y-16869389D01*
X11990539Y-16869389D02*
X11981015Y-16831293D01*
X11981015Y-16831293D02*
X11981015Y-16783674D01*
X11981015Y-16783674D02*
X11990539Y-16745579D01*
X11990539Y-16745579D02*
X12000063Y-16726531D01*
X12000063Y-16726531D02*
X12009586Y-16717008D01*
X12009586Y-16717008D02*
X12028634Y-16707484D01*
X12181015Y-16888436D02*
X12190539Y-16897960D01*
X12190539Y-16897960D02*
X12181015Y-16907484D01*
X12181015Y-16907484D02*
X12171491Y-16897960D01*
X12171491Y-16897960D02*
X12181015Y-16888436D01*
X12181015Y-16888436D02*
X12181015Y-16907484D01*
X12314348Y-16707484D02*
X12333396Y-16707484D01*
X12333396Y-16707484D02*
X12352444Y-16717008D01*
X12352444Y-16717008D02*
X12361967Y-16726531D01*
X12361967Y-16726531D02*
X12371491Y-16745579D01*
X12371491Y-16745579D02*
X12381015Y-16783674D01*
X12381015Y-16783674D02*
X12381015Y-16831293D01*
X12381015Y-16831293D02*
X12371491Y-16869389D01*
X12371491Y-16869389D02*
X12361967Y-16888436D01*
X12361967Y-16888436D02*
X12352444Y-16897960D01*
X12352444Y-16897960D02*
X12333396Y-16907484D01*
X12333396Y-16907484D02*
X12314348Y-16907484D01*
X12314348Y-16907484D02*
X12295301Y-16897960D01*
X12295301Y-16897960D02*
X12285777Y-16888436D01*
X12285777Y-16888436D02*
X12276253Y-16869389D01*
X12276253Y-16869389D02*
X12266729Y-16831293D01*
X12266729Y-16831293D02*
X12266729Y-16783674D01*
X12266729Y-16783674D02*
X12276253Y-16745579D01*
X12276253Y-16745579D02*
X12285777Y-16726531D01*
X12285777Y-16726531D02*
X12295301Y-16717008D01*
X12295301Y-16717008D02*
X12314348Y-16707484D01*
X12447682Y-16707484D02*
X12571491Y-16707484D01*
X12571491Y-16707484D02*
X12504825Y-16783674D01*
X12504825Y-16783674D02*
X12533396Y-16783674D01*
X12533396Y-16783674D02*
X12552444Y-16793198D01*
X12552444Y-16793198D02*
X12561967Y-16802722D01*
X12561967Y-16802722D02*
X12571491Y-16821770D01*
X12571491Y-16821770D02*
X12571491Y-16869389D01*
X12571491Y-16869389D02*
X12561967Y-16888436D01*
X12561967Y-16888436D02*
X12552444Y-16897960D01*
X12552444Y-16897960D02*
X12533396Y-16907484D01*
X12533396Y-16907484D02*
X12476253Y-16907484D01*
X12476253Y-16907484D02*
X12457206Y-16897960D01*
X12457206Y-16897960D02*
X12447682Y-16888436D01*
X12666729Y-16907484D02*
X12704825Y-16907484D01*
X12704825Y-16907484D02*
X12723872Y-16897960D01*
X12723872Y-16897960D02*
X12733396Y-16888436D01*
X12733396Y-16888436D02*
X12752444Y-16859865D01*
X12752444Y-16859865D02*
X12761967Y-16821770D01*
X12761967Y-16821770D02*
X12761967Y-16745579D01*
X12761967Y-16745579D02*
X12752444Y-16726531D01*
X12752444Y-16726531D02*
X12742920Y-16717008D01*
X12742920Y-16717008D02*
X12723872Y-16707484D01*
X12723872Y-16707484D02*
X12685777Y-16707484D01*
X12685777Y-16707484D02*
X12666729Y-16717008D01*
X12666729Y-16717008D02*
X12657206Y-16726531D01*
X12657206Y-16726531D02*
X12647682Y-16745579D01*
X12647682Y-16745579D02*
X12647682Y-16793198D01*
X12647682Y-16793198D02*
X12657206Y-16812246D01*
X12657206Y-16812246D02*
X12666729Y-16821770D01*
X12666729Y-16821770D02*
X12685777Y-16831293D01*
X12685777Y-16831293D02*
X12723872Y-16831293D01*
X12723872Y-16831293D02*
X12742920Y-16821770D01*
X12742920Y-16821770D02*
X12752444Y-16812246D01*
X12752444Y-16812246D02*
X12761967Y-16793198D01*
X12933396Y-16774150D02*
X12933396Y-16907484D01*
X12885777Y-16697960D02*
X12838158Y-16840817D01*
X12838158Y-16840817D02*
X12961967Y-16840817D01*
X13028634Y-16707484D02*
X13028634Y-16745579D01*
X13104825Y-16707484D02*
X13104825Y-16745579D01*
X13400063Y-16983674D02*
X13390539Y-16974150D01*
X13390539Y-16974150D02*
X13371491Y-16945579D01*
X13371491Y-16945579D02*
X13361968Y-16926531D01*
X13361968Y-16926531D02*
X13352444Y-16897960D01*
X13352444Y-16897960D02*
X13342920Y-16850341D01*
X13342920Y-16850341D02*
X13342920Y-16812246D01*
X13342920Y-16812246D02*
X13352444Y-16764627D01*
X13352444Y-16764627D02*
X13361968Y-16736055D01*
X13361968Y-16736055D02*
X13371491Y-16717008D01*
X13371491Y-16717008D02*
X13390539Y-16688436D01*
X13390539Y-16688436D02*
X13400063Y-16678912D01*
X13581015Y-16907484D02*
X13466729Y-16907484D01*
X13523872Y-16907484D02*
X13523872Y-16707484D01*
X13523872Y-16707484D02*
X13504825Y-16736055D01*
X13504825Y-16736055D02*
X13485777Y-16755103D01*
X13485777Y-16755103D02*
X13466729Y-16764627D01*
X13676253Y-16907484D02*
X13714348Y-16907484D01*
X13714348Y-16907484D02*
X13733396Y-16897960D01*
X13733396Y-16897960D02*
X13742920Y-16888436D01*
X13742920Y-16888436D02*
X13761968Y-16859865D01*
X13761968Y-16859865D02*
X13771491Y-16821770D01*
X13771491Y-16821770D02*
X13771491Y-16745579D01*
X13771491Y-16745579D02*
X13761968Y-16726531D01*
X13761968Y-16726531D02*
X13752444Y-16717008D01*
X13752444Y-16717008D02*
X13733396Y-16707484D01*
X13733396Y-16707484D02*
X13695301Y-16707484D01*
X13695301Y-16707484D02*
X13676253Y-16717008D01*
X13676253Y-16717008D02*
X13666729Y-16726531D01*
X13666729Y-16726531D02*
X13657206Y-16745579D01*
X13657206Y-16745579D02*
X13657206Y-16793198D01*
X13657206Y-16793198D02*
X13666729Y-16812246D01*
X13666729Y-16812246D02*
X13676253Y-16821770D01*
X13676253Y-16821770D02*
X13695301Y-16831293D01*
X13695301Y-16831293D02*
X13733396Y-16831293D01*
X13733396Y-16831293D02*
X13752444Y-16821770D01*
X13752444Y-16821770D02*
X13761968Y-16812246D01*
X13761968Y-16812246D02*
X13771491Y-16793198D01*
X14009587Y-16907484D02*
X14009587Y-16707484D01*
X14095301Y-16907484D02*
X14095301Y-16802722D01*
X14095301Y-16802722D02*
X14085777Y-16783674D01*
X14085777Y-16783674D02*
X14066730Y-16774150D01*
X14066730Y-16774150D02*
X14038158Y-16774150D01*
X14038158Y-16774150D02*
X14019110Y-16783674D01*
X14019110Y-16783674D02*
X14009587Y-16793198D01*
X14219110Y-16907484D02*
X14200063Y-16897960D01*
X14200063Y-16897960D02*
X14190539Y-16888436D01*
X14190539Y-16888436D02*
X14181015Y-16869389D01*
X14181015Y-16869389D02*
X14181015Y-16812246D01*
X14181015Y-16812246D02*
X14190539Y-16793198D01*
X14190539Y-16793198D02*
X14200063Y-16783674D01*
X14200063Y-16783674D02*
X14219110Y-16774150D01*
X14219110Y-16774150D02*
X14247682Y-16774150D01*
X14247682Y-16774150D02*
X14266730Y-16783674D01*
X14266730Y-16783674D02*
X14276253Y-16793198D01*
X14276253Y-16793198D02*
X14285777Y-16812246D01*
X14285777Y-16812246D02*
X14285777Y-16869389D01*
X14285777Y-16869389D02*
X14276253Y-16888436D01*
X14276253Y-16888436D02*
X14266730Y-16897960D01*
X14266730Y-16897960D02*
X14247682Y-16907484D01*
X14247682Y-16907484D02*
X14219110Y-16907484D01*
X14400063Y-16907484D02*
X14381015Y-16897960D01*
X14381015Y-16897960D02*
X14371491Y-16878912D01*
X14371491Y-16878912D02*
X14371491Y-16707484D01*
X14552444Y-16897960D02*
X14533396Y-16907484D01*
X14533396Y-16907484D02*
X14495301Y-16907484D01*
X14495301Y-16907484D02*
X14476253Y-16897960D01*
X14476253Y-16897960D02*
X14466730Y-16878912D01*
X14466730Y-16878912D02*
X14466730Y-16802722D01*
X14466730Y-16802722D02*
X14476253Y-16783674D01*
X14476253Y-16783674D02*
X14495301Y-16774150D01*
X14495301Y-16774150D02*
X14533396Y-16774150D01*
X14533396Y-16774150D02*
X14552444Y-16783674D01*
X14552444Y-16783674D02*
X14561968Y-16802722D01*
X14561968Y-16802722D02*
X14561968Y-16821770D01*
X14561968Y-16821770D02*
X14466730Y-16840817D01*
X14638158Y-16897960D02*
X14657206Y-16907484D01*
X14657206Y-16907484D02*
X14695301Y-16907484D01*
X14695301Y-16907484D02*
X14714349Y-16897960D01*
X14714349Y-16897960D02*
X14723872Y-16878912D01*
X14723872Y-16878912D02*
X14723872Y-16869389D01*
X14723872Y-16869389D02*
X14714349Y-16850341D01*
X14714349Y-16850341D02*
X14695301Y-16840817D01*
X14695301Y-16840817D02*
X14666730Y-16840817D01*
X14666730Y-16840817D02*
X14647682Y-16831293D01*
X14647682Y-16831293D02*
X14638158Y-16812246D01*
X14638158Y-16812246D02*
X14638158Y-16802722D01*
X14638158Y-16802722D02*
X14647682Y-16783674D01*
X14647682Y-16783674D02*
X14666730Y-16774150D01*
X14666730Y-16774150D02*
X14695301Y-16774150D01*
X14695301Y-16774150D02*
X14714349Y-16783674D01*
X14790539Y-16983674D02*
X14800063Y-16974150D01*
X14800063Y-16974150D02*
X14819111Y-16945579D01*
X14819111Y-16945579D02*
X14828634Y-16926531D01*
X14828634Y-16926531D02*
X14838158Y-16897960D01*
X14838158Y-16897960D02*
X14847682Y-16850341D01*
X14847682Y-16850341D02*
X14847682Y-16812246D01*
X14847682Y-16812246D02*
X14838158Y-16764627D01*
X14838158Y-16764627D02*
X14828634Y-16736055D01*
X14828634Y-16736055D02*
X14819111Y-16717008D01*
X14819111Y-16717008D02*
X14800063Y-16688436D01*
X14800063Y-16688436D02*
X14790539Y-16678912D01*
D12*
X9723400Y-17029200D02*
X9825000Y-17130800D01*
X9825000Y-17029200D02*
X9723400Y-17130800D01*
X9825000Y-17080000D02*
G75*
G03*
X9723400Y-17080000I-50800J0D01*
G01*
X9723400Y-17080000D02*
G75*
G03*
X9825000Y-17080000I50800J0D01*
G01*
D11*
X10190539Y-17171484D02*
X10076253Y-17171484D01*
X10133396Y-17171484D02*
X10133396Y-16971484D01*
X10133396Y-16971484D02*
X10114348Y-17000055D01*
X10114348Y-17000055D02*
X10095301Y-17019103D01*
X10095301Y-17019103D02*
X10076253Y-17028627D01*
X10276253Y-17152436D02*
X10285777Y-17161960D01*
X10285777Y-17161960D02*
X10276253Y-17171484D01*
X10276253Y-17171484D02*
X10266729Y-17161960D01*
X10266729Y-17161960D02*
X10276253Y-17152436D01*
X10276253Y-17152436D02*
X10276253Y-17171484D01*
X10409586Y-16971484D02*
X10428634Y-16971484D01*
X10428634Y-16971484D02*
X10447682Y-16981008D01*
X10447682Y-16981008D02*
X10457205Y-16990531D01*
X10457205Y-16990531D02*
X10466729Y-17009579D01*
X10466729Y-17009579D02*
X10476253Y-17047674D01*
X10476253Y-17047674D02*
X10476253Y-17095293D01*
X10476253Y-17095293D02*
X10466729Y-17133389D01*
X10466729Y-17133389D02*
X10457205Y-17152436D01*
X10457205Y-17152436D02*
X10447682Y-17161960D01*
X10447682Y-17161960D02*
X10428634Y-17171484D01*
X10428634Y-17171484D02*
X10409586Y-17171484D01*
X10409586Y-17171484D02*
X10390539Y-17161960D01*
X10390539Y-17161960D02*
X10381015Y-17152436D01*
X10381015Y-17152436D02*
X10371491Y-17133389D01*
X10371491Y-17133389D02*
X10361967Y-17095293D01*
X10361967Y-17095293D02*
X10361967Y-17047674D01*
X10361967Y-17047674D02*
X10371491Y-17009579D01*
X10371491Y-17009579D02*
X10381015Y-16990531D01*
X10381015Y-16990531D02*
X10390539Y-16981008D01*
X10390539Y-16981008D02*
X10409586Y-16971484D01*
X10666729Y-17171484D02*
X10552444Y-17171484D01*
X10609586Y-17171484D02*
X10609586Y-16971484D01*
X10609586Y-16971484D02*
X10590539Y-17000055D01*
X10590539Y-17000055D02*
X10571491Y-17019103D01*
X10571491Y-17019103D02*
X10552444Y-17028627D01*
X10838158Y-16971484D02*
X10800063Y-16971484D01*
X10800063Y-16971484D02*
X10781015Y-16981008D01*
X10781015Y-16981008D02*
X10771491Y-16990531D01*
X10771491Y-16990531D02*
X10752444Y-17019103D01*
X10752444Y-17019103D02*
X10742920Y-17057198D01*
X10742920Y-17057198D02*
X10742920Y-17133389D01*
X10742920Y-17133389D02*
X10752444Y-17152436D01*
X10752444Y-17152436D02*
X10761967Y-17161960D01*
X10761967Y-17161960D02*
X10781015Y-17171484D01*
X10781015Y-17171484D02*
X10819110Y-17171484D01*
X10819110Y-17171484D02*
X10838158Y-17161960D01*
X10838158Y-17161960D02*
X10847682Y-17152436D01*
X10847682Y-17152436D02*
X10857205Y-17133389D01*
X10857205Y-17133389D02*
X10857205Y-17085770D01*
X10857205Y-17085770D02*
X10847682Y-17066722D01*
X10847682Y-17066722D02*
X10838158Y-17057198D01*
X10838158Y-17057198D02*
X10819110Y-17047674D01*
X10819110Y-17047674D02*
X10781015Y-17047674D01*
X10781015Y-17047674D02*
X10761967Y-17057198D01*
X10761967Y-17057198D02*
X10752444Y-17066722D01*
X10752444Y-17066722D02*
X10742920Y-17085770D01*
X10942920Y-17171484D02*
X10942920Y-17038150D01*
X10942920Y-17057198D02*
X10952444Y-17047674D01*
X10952444Y-17047674D02*
X10971491Y-17038150D01*
X10971491Y-17038150D02*
X11000063Y-17038150D01*
X11000063Y-17038150D02*
X11019110Y-17047674D01*
X11019110Y-17047674D02*
X11028634Y-17066722D01*
X11028634Y-17066722D02*
X11028634Y-17171484D01*
X11028634Y-17066722D02*
X11038158Y-17047674D01*
X11038158Y-17047674D02*
X11057205Y-17038150D01*
X11057205Y-17038150D02*
X11085777Y-17038150D01*
X11085777Y-17038150D02*
X11104825Y-17047674D01*
X11104825Y-17047674D02*
X11114348Y-17066722D01*
X11114348Y-17066722D02*
X11114348Y-17171484D01*
X11209586Y-17171484D02*
X11209586Y-17038150D01*
X11209586Y-17057198D02*
X11219110Y-17047674D01*
X11219110Y-17047674D02*
X11238158Y-17038150D01*
X11238158Y-17038150D02*
X11266729Y-17038150D01*
X11266729Y-17038150D02*
X11285777Y-17047674D01*
X11285777Y-17047674D02*
X11295301Y-17066722D01*
X11295301Y-17066722D02*
X11295301Y-17171484D01*
X11295301Y-17066722D02*
X11304824Y-17047674D01*
X11304824Y-17047674D02*
X11323872Y-17038150D01*
X11323872Y-17038150D02*
X11352443Y-17038150D01*
X11352443Y-17038150D02*
X11371491Y-17047674D01*
X11371491Y-17047674D02*
X11381015Y-17066722D01*
X11381015Y-17066722D02*
X11381015Y-17171484D01*
X11771491Y-16961960D02*
X11600063Y-17219103D01*
X12028634Y-16971484D02*
X12047682Y-16971484D01*
X12047682Y-16971484D02*
X12066729Y-16981008D01*
X12066729Y-16981008D02*
X12076253Y-16990531D01*
X12076253Y-16990531D02*
X12085777Y-17009579D01*
X12085777Y-17009579D02*
X12095301Y-17047674D01*
X12095301Y-17047674D02*
X12095301Y-17095293D01*
X12095301Y-17095293D02*
X12085777Y-17133389D01*
X12085777Y-17133389D02*
X12076253Y-17152436D01*
X12076253Y-17152436D02*
X12066729Y-17161960D01*
X12066729Y-17161960D02*
X12047682Y-17171484D01*
X12047682Y-17171484D02*
X12028634Y-17171484D01*
X12028634Y-17171484D02*
X12009586Y-17161960D01*
X12009586Y-17161960D02*
X12000063Y-17152436D01*
X12000063Y-17152436D02*
X11990539Y-17133389D01*
X11990539Y-17133389D02*
X11981015Y-17095293D01*
X11981015Y-17095293D02*
X11981015Y-17047674D01*
X11981015Y-17047674D02*
X11990539Y-17009579D01*
X11990539Y-17009579D02*
X12000063Y-16990531D01*
X12000063Y-16990531D02*
X12009586Y-16981008D01*
X12009586Y-16981008D02*
X12028634Y-16971484D01*
X12181015Y-17152436D02*
X12190539Y-17161960D01*
X12190539Y-17161960D02*
X12181015Y-17171484D01*
X12181015Y-17171484D02*
X12171491Y-17161960D01*
X12171491Y-17161960D02*
X12181015Y-17152436D01*
X12181015Y-17152436D02*
X12181015Y-17171484D01*
X12314348Y-16971484D02*
X12333396Y-16971484D01*
X12333396Y-16971484D02*
X12352444Y-16981008D01*
X12352444Y-16981008D02*
X12361967Y-16990531D01*
X12361967Y-16990531D02*
X12371491Y-17009579D01*
X12371491Y-17009579D02*
X12381015Y-17047674D01*
X12381015Y-17047674D02*
X12381015Y-17095293D01*
X12381015Y-17095293D02*
X12371491Y-17133389D01*
X12371491Y-17133389D02*
X12361967Y-17152436D01*
X12361967Y-17152436D02*
X12352444Y-17161960D01*
X12352444Y-17161960D02*
X12333396Y-17171484D01*
X12333396Y-17171484D02*
X12314348Y-17171484D01*
X12314348Y-17171484D02*
X12295301Y-17161960D01*
X12295301Y-17161960D02*
X12285777Y-17152436D01*
X12285777Y-17152436D02*
X12276253Y-17133389D01*
X12276253Y-17133389D02*
X12266729Y-17095293D01*
X12266729Y-17095293D02*
X12266729Y-17047674D01*
X12266729Y-17047674D02*
X12276253Y-17009579D01*
X12276253Y-17009579D02*
X12285777Y-16990531D01*
X12285777Y-16990531D02*
X12295301Y-16981008D01*
X12295301Y-16981008D02*
X12314348Y-16971484D01*
X12552444Y-17038150D02*
X12552444Y-17171484D01*
X12504825Y-16961960D02*
X12457206Y-17104817D01*
X12457206Y-17104817D02*
X12581015Y-17104817D01*
X12695301Y-16971484D02*
X12714348Y-16971484D01*
X12714348Y-16971484D02*
X12733396Y-16981008D01*
X12733396Y-16981008D02*
X12742920Y-16990531D01*
X12742920Y-16990531D02*
X12752444Y-17009579D01*
X12752444Y-17009579D02*
X12761967Y-17047674D01*
X12761967Y-17047674D02*
X12761967Y-17095293D01*
X12761967Y-17095293D02*
X12752444Y-17133389D01*
X12752444Y-17133389D02*
X12742920Y-17152436D01*
X12742920Y-17152436D02*
X12733396Y-17161960D01*
X12733396Y-17161960D02*
X12714348Y-17171484D01*
X12714348Y-17171484D02*
X12695301Y-17171484D01*
X12695301Y-17171484D02*
X12676253Y-17161960D01*
X12676253Y-17161960D02*
X12666729Y-17152436D01*
X12666729Y-17152436D02*
X12657206Y-17133389D01*
X12657206Y-17133389D02*
X12647682Y-17095293D01*
X12647682Y-17095293D02*
X12647682Y-17047674D01*
X12647682Y-17047674D02*
X12657206Y-17009579D01*
X12657206Y-17009579D02*
X12666729Y-16990531D01*
X12666729Y-16990531D02*
X12676253Y-16981008D01*
X12676253Y-16981008D02*
X12695301Y-16971484D01*
X12885777Y-16971484D02*
X12904825Y-16971484D01*
X12904825Y-16971484D02*
X12923872Y-16981008D01*
X12923872Y-16981008D02*
X12933396Y-16990531D01*
X12933396Y-16990531D02*
X12942920Y-17009579D01*
X12942920Y-17009579D02*
X12952444Y-17047674D01*
X12952444Y-17047674D02*
X12952444Y-17095293D01*
X12952444Y-17095293D02*
X12942920Y-17133389D01*
X12942920Y-17133389D02*
X12933396Y-17152436D01*
X12933396Y-17152436D02*
X12923872Y-17161960D01*
X12923872Y-17161960D02*
X12904825Y-17171484D01*
X12904825Y-17171484D02*
X12885777Y-17171484D01*
X12885777Y-17171484D02*
X12866729Y-17161960D01*
X12866729Y-17161960D02*
X12857206Y-17152436D01*
X12857206Y-17152436D02*
X12847682Y-17133389D01*
X12847682Y-17133389D02*
X12838158Y-17095293D01*
X12838158Y-17095293D02*
X12838158Y-17047674D01*
X12838158Y-17047674D02*
X12847682Y-17009579D01*
X12847682Y-17009579D02*
X12857206Y-16990531D01*
X12857206Y-16990531D02*
X12866729Y-16981008D01*
X12866729Y-16981008D02*
X12885777Y-16971484D01*
X13028634Y-16971484D02*
X13028634Y-17009579D01*
X13104825Y-16971484D02*
X13104825Y-17009579D01*
X13400063Y-17247674D02*
X13390539Y-17238150D01*
X13390539Y-17238150D02*
X13371491Y-17209579D01*
X13371491Y-17209579D02*
X13361968Y-17190531D01*
X13361968Y-17190531D02*
X13352444Y-17161960D01*
X13352444Y-17161960D02*
X13342920Y-17114341D01*
X13342920Y-17114341D02*
X13342920Y-17076246D01*
X13342920Y-17076246D02*
X13352444Y-17028627D01*
X13352444Y-17028627D02*
X13361968Y-17000055D01*
X13361968Y-17000055D02*
X13371491Y-16981008D01*
X13371491Y-16981008D02*
X13390539Y-16952436D01*
X13390539Y-16952436D02*
X13400063Y-16942912D01*
X13581015Y-17171484D02*
X13466729Y-17171484D01*
X13523872Y-17171484D02*
X13523872Y-16971484D01*
X13523872Y-16971484D02*
X13504825Y-17000055D01*
X13504825Y-17000055D02*
X13485777Y-17019103D01*
X13485777Y-17019103D02*
X13466729Y-17028627D01*
X13752444Y-16971484D02*
X13714348Y-16971484D01*
X13714348Y-16971484D02*
X13695301Y-16981008D01*
X13695301Y-16981008D02*
X13685777Y-16990531D01*
X13685777Y-16990531D02*
X13666729Y-17019103D01*
X13666729Y-17019103D02*
X13657206Y-17057198D01*
X13657206Y-17057198D02*
X13657206Y-17133389D01*
X13657206Y-17133389D02*
X13666729Y-17152436D01*
X13666729Y-17152436D02*
X13676253Y-17161960D01*
X13676253Y-17161960D02*
X13695301Y-17171484D01*
X13695301Y-17171484D02*
X13733396Y-17171484D01*
X13733396Y-17171484D02*
X13752444Y-17161960D01*
X13752444Y-17161960D02*
X13761968Y-17152436D01*
X13761968Y-17152436D02*
X13771491Y-17133389D01*
X13771491Y-17133389D02*
X13771491Y-17085770D01*
X13771491Y-17085770D02*
X13761968Y-17066722D01*
X13761968Y-17066722D02*
X13752444Y-17057198D01*
X13752444Y-17057198D02*
X13733396Y-17047674D01*
X13733396Y-17047674D02*
X13695301Y-17047674D01*
X13695301Y-17047674D02*
X13676253Y-17057198D01*
X13676253Y-17057198D02*
X13666729Y-17066722D01*
X13666729Y-17066722D02*
X13657206Y-17085770D01*
X14009587Y-17171484D02*
X14009587Y-16971484D01*
X14095301Y-17171484D02*
X14095301Y-17066722D01*
X14095301Y-17066722D02*
X14085777Y-17047674D01*
X14085777Y-17047674D02*
X14066730Y-17038150D01*
X14066730Y-17038150D02*
X14038158Y-17038150D01*
X14038158Y-17038150D02*
X14019110Y-17047674D01*
X14019110Y-17047674D02*
X14009587Y-17057198D01*
X14219110Y-17171484D02*
X14200063Y-17161960D01*
X14200063Y-17161960D02*
X14190539Y-17152436D01*
X14190539Y-17152436D02*
X14181015Y-17133389D01*
X14181015Y-17133389D02*
X14181015Y-17076246D01*
X14181015Y-17076246D02*
X14190539Y-17057198D01*
X14190539Y-17057198D02*
X14200063Y-17047674D01*
X14200063Y-17047674D02*
X14219110Y-17038150D01*
X14219110Y-17038150D02*
X14247682Y-17038150D01*
X14247682Y-17038150D02*
X14266730Y-17047674D01*
X14266730Y-17047674D02*
X14276253Y-17057198D01*
X14276253Y-17057198D02*
X14285777Y-17076246D01*
X14285777Y-17076246D02*
X14285777Y-17133389D01*
X14285777Y-17133389D02*
X14276253Y-17152436D01*
X14276253Y-17152436D02*
X14266730Y-17161960D01*
X14266730Y-17161960D02*
X14247682Y-17171484D01*
X14247682Y-17171484D02*
X14219110Y-17171484D01*
X14400063Y-17171484D02*
X14381015Y-17161960D01*
X14381015Y-17161960D02*
X14371491Y-17142912D01*
X14371491Y-17142912D02*
X14371491Y-16971484D01*
X14552444Y-17161960D02*
X14533396Y-17171484D01*
X14533396Y-17171484D02*
X14495301Y-17171484D01*
X14495301Y-17171484D02*
X14476253Y-17161960D01*
X14476253Y-17161960D02*
X14466730Y-17142912D01*
X14466730Y-17142912D02*
X14466730Y-17066722D01*
X14466730Y-17066722D02*
X14476253Y-17047674D01*
X14476253Y-17047674D02*
X14495301Y-17038150D01*
X14495301Y-17038150D02*
X14533396Y-17038150D01*
X14533396Y-17038150D02*
X14552444Y-17047674D01*
X14552444Y-17047674D02*
X14561968Y-17066722D01*
X14561968Y-17066722D02*
X14561968Y-17085770D01*
X14561968Y-17085770D02*
X14466730Y-17104817D01*
X14638158Y-17161960D02*
X14657206Y-17171484D01*
X14657206Y-17171484D02*
X14695301Y-17171484D01*
X14695301Y-17171484D02*
X14714349Y-17161960D01*
X14714349Y-17161960D02*
X14723872Y-17142912D01*
X14723872Y-17142912D02*
X14723872Y-17133389D01*
X14723872Y-17133389D02*
X14714349Y-17114341D01*
X14714349Y-17114341D02*
X14695301Y-17104817D01*
X14695301Y-17104817D02*
X14666730Y-17104817D01*
X14666730Y-17104817D02*
X14647682Y-17095293D01*
X14647682Y-17095293D02*
X14638158Y-17076246D01*
X14638158Y-17076246D02*
X14638158Y-17066722D01*
X14638158Y-17066722D02*
X14647682Y-17047674D01*
X14647682Y-17047674D02*
X14666730Y-17038150D01*
X14666730Y-17038150D02*
X14695301Y-17038150D01*
X14695301Y-17038150D02*
X14714349Y-17047674D01*
X14790539Y-17247674D02*
X14800063Y-17238150D01*
X14800063Y-17238150D02*
X14819111Y-17209579D01*
X14819111Y-17209579D02*
X14828634Y-17190531D01*
X14828634Y-17190531D02*
X14838158Y-17161960D01*
X14838158Y-17161960D02*
X14847682Y-17114341D01*
X14847682Y-17114341D02*
X14847682Y-17076246D01*
X14847682Y-17076246D02*
X14838158Y-17028627D01*
X14838158Y-17028627D02*
X14828634Y-17000055D01*
X14828634Y-17000055D02*
X14819111Y-16981008D01*
X14819111Y-16981008D02*
X14800063Y-16952436D01*
X14800063Y-16952436D02*
X14790539Y-16942912D01*
D13*
X9723000Y-17293000D02*
X9825000Y-17395000D01*
X9825000Y-17293000D02*
X9723000Y-17395000D01*
X9774000Y-17293000D02*
X9774000Y-17395000D01*
X9723000Y-17344000D02*
X9825000Y-17344000D01*
D11*
X10190539Y-17435484D02*
X10076253Y-17435484D01*
X10133396Y-17435484D02*
X10133396Y-17235484D01*
X10133396Y-17235484D02*
X10114348Y-17264055D01*
X10114348Y-17264055D02*
X10095301Y-17283103D01*
X10095301Y-17283103D02*
X10076253Y-17292627D01*
X10276253Y-17416436D02*
X10285777Y-17425960D01*
X10285777Y-17425960D02*
X10276253Y-17435484D01*
X10276253Y-17435484D02*
X10266729Y-17425960D01*
X10266729Y-17425960D02*
X10276253Y-17416436D01*
X10276253Y-17416436D02*
X10276253Y-17435484D01*
X10409586Y-17235484D02*
X10428634Y-17235484D01*
X10428634Y-17235484D02*
X10447682Y-17245008D01*
X10447682Y-17245008D02*
X10457205Y-17254531D01*
X10457205Y-17254531D02*
X10466729Y-17273579D01*
X10466729Y-17273579D02*
X10476253Y-17311674D01*
X10476253Y-17311674D02*
X10476253Y-17359293D01*
X10476253Y-17359293D02*
X10466729Y-17397389D01*
X10466729Y-17397389D02*
X10457205Y-17416436D01*
X10457205Y-17416436D02*
X10447682Y-17425960D01*
X10447682Y-17425960D02*
X10428634Y-17435484D01*
X10428634Y-17435484D02*
X10409586Y-17435484D01*
X10409586Y-17435484D02*
X10390539Y-17425960D01*
X10390539Y-17425960D02*
X10381015Y-17416436D01*
X10381015Y-17416436D02*
X10371491Y-17397389D01*
X10371491Y-17397389D02*
X10361967Y-17359293D01*
X10361967Y-17359293D02*
X10361967Y-17311674D01*
X10361967Y-17311674D02*
X10371491Y-17273579D01*
X10371491Y-17273579D02*
X10381015Y-17254531D01*
X10381015Y-17254531D02*
X10390539Y-17245008D01*
X10390539Y-17245008D02*
X10409586Y-17235484D01*
X10552444Y-17254531D02*
X10561967Y-17245008D01*
X10561967Y-17245008D02*
X10581015Y-17235484D01*
X10581015Y-17235484D02*
X10628634Y-17235484D01*
X10628634Y-17235484D02*
X10647682Y-17245008D01*
X10647682Y-17245008D02*
X10657205Y-17254531D01*
X10657205Y-17254531D02*
X10666729Y-17273579D01*
X10666729Y-17273579D02*
X10666729Y-17292627D01*
X10666729Y-17292627D02*
X10657205Y-17321198D01*
X10657205Y-17321198D02*
X10542920Y-17435484D01*
X10542920Y-17435484D02*
X10666729Y-17435484D01*
X10790539Y-17235484D02*
X10809586Y-17235484D01*
X10809586Y-17235484D02*
X10828634Y-17245008D01*
X10828634Y-17245008D02*
X10838158Y-17254531D01*
X10838158Y-17254531D02*
X10847682Y-17273579D01*
X10847682Y-17273579D02*
X10857205Y-17311674D01*
X10857205Y-17311674D02*
X10857205Y-17359293D01*
X10857205Y-17359293D02*
X10847682Y-17397389D01*
X10847682Y-17397389D02*
X10838158Y-17416436D01*
X10838158Y-17416436D02*
X10828634Y-17425960D01*
X10828634Y-17425960D02*
X10809586Y-17435484D01*
X10809586Y-17435484D02*
X10790539Y-17435484D01*
X10790539Y-17435484D02*
X10771491Y-17425960D01*
X10771491Y-17425960D02*
X10761967Y-17416436D01*
X10761967Y-17416436D02*
X10752444Y-17397389D01*
X10752444Y-17397389D02*
X10742920Y-17359293D01*
X10742920Y-17359293D02*
X10742920Y-17311674D01*
X10742920Y-17311674D02*
X10752444Y-17273579D01*
X10752444Y-17273579D02*
X10761967Y-17254531D01*
X10761967Y-17254531D02*
X10771491Y-17245008D01*
X10771491Y-17245008D02*
X10790539Y-17235484D01*
X10942920Y-17435484D02*
X10942920Y-17302150D01*
X10942920Y-17321198D02*
X10952444Y-17311674D01*
X10952444Y-17311674D02*
X10971491Y-17302150D01*
X10971491Y-17302150D02*
X11000063Y-17302150D01*
X11000063Y-17302150D02*
X11019110Y-17311674D01*
X11019110Y-17311674D02*
X11028634Y-17330722D01*
X11028634Y-17330722D02*
X11028634Y-17435484D01*
X11028634Y-17330722D02*
X11038158Y-17311674D01*
X11038158Y-17311674D02*
X11057205Y-17302150D01*
X11057205Y-17302150D02*
X11085777Y-17302150D01*
X11085777Y-17302150D02*
X11104825Y-17311674D01*
X11104825Y-17311674D02*
X11114348Y-17330722D01*
X11114348Y-17330722D02*
X11114348Y-17435484D01*
X11209586Y-17435484D02*
X11209586Y-17302150D01*
X11209586Y-17321198D02*
X11219110Y-17311674D01*
X11219110Y-17311674D02*
X11238158Y-17302150D01*
X11238158Y-17302150D02*
X11266729Y-17302150D01*
X11266729Y-17302150D02*
X11285777Y-17311674D01*
X11285777Y-17311674D02*
X11295301Y-17330722D01*
X11295301Y-17330722D02*
X11295301Y-17435484D01*
X11295301Y-17330722D02*
X11304824Y-17311674D01*
X11304824Y-17311674D02*
X11323872Y-17302150D01*
X11323872Y-17302150D02*
X11352443Y-17302150D01*
X11352443Y-17302150D02*
X11371491Y-17311674D01*
X11371491Y-17311674D02*
X11381015Y-17330722D01*
X11381015Y-17330722D02*
X11381015Y-17435484D01*
X11771491Y-17225960D02*
X11600063Y-17483103D01*
X12028634Y-17235484D02*
X12047682Y-17235484D01*
X12047682Y-17235484D02*
X12066729Y-17245008D01*
X12066729Y-17245008D02*
X12076253Y-17254531D01*
X12076253Y-17254531D02*
X12085777Y-17273579D01*
X12085777Y-17273579D02*
X12095301Y-17311674D01*
X12095301Y-17311674D02*
X12095301Y-17359293D01*
X12095301Y-17359293D02*
X12085777Y-17397389D01*
X12085777Y-17397389D02*
X12076253Y-17416436D01*
X12076253Y-17416436D02*
X12066729Y-17425960D01*
X12066729Y-17425960D02*
X12047682Y-17435484D01*
X12047682Y-17435484D02*
X12028634Y-17435484D01*
X12028634Y-17435484D02*
X12009586Y-17425960D01*
X12009586Y-17425960D02*
X12000063Y-17416436D01*
X12000063Y-17416436D02*
X11990539Y-17397389D01*
X11990539Y-17397389D02*
X11981015Y-17359293D01*
X11981015Y-17359293D02*
X11981015Y-17311674D01*
X11981015Y-17311674D02*
X11990539Y-17273579D01*
X11990539Y-17273579D02*
X12000063Y-17254531D01*
X12000063Y-17254531D02*
X12009586Y-17245008D01*
X12009586Y-17245008D02*
X12028634Y-17235484D01*
X12181015Y-17416436D02*
X12190539Y-17425960D01*
X12190539Y-17425960D02*
X12181015Y-17435484D01*
X12181015Y-17435484D02*
X12171491Y-17425960D01*
X12171491Y-17425960D02*
X12181015Y-17416436D01*
X12181015Y-17416436D02*
X12181015Y-17435484D01*
X12314348Y-17235484D02*
X12333396Y-17235484D01*
X12333396Y-17235484D02*
X12352444Y-17245008D01*
X12352444Y-17245008D02*
X12361967Y-17254531D01*
X12361967Y-17254531D02*
X12371491Y-17273579D01*
X12371491Y-17273579D02*
X12381015Y-17311674D01*
X12381015Y-17311674D02*
X12381015Y-17359293D01*
X12381015Y-17359293D02*
X12371491Y-17397389D01*
X12371491Y-17397389D02*
X12361967Y-17416436D01*
X12361967Y-17416436D02*
X12352444Y-17425960D01*
X12352444Y-17425960D02*
X12333396Y-17435484D01*
X12333396Y-17435484D02*
X12314348Y-17435484D01*
X12314348Y-17435484D02*
X12295301Y-17425960D01*
X12295301Y-17425960D02*
X12285777Y-17416436D01*
X12285777Y-17416436D02*
X12276253Y-17397389D01*
X12276253Y-17397389D02*
X12266729Y-17359293D01*
X12266729Y-17359293D02*
X12266729Y-17311674D01*
X12266729Y-17311674D02*
X12276253Y-17273579D01*
X12276253Y-17273579D02*
X12285777Y-17254531D01*
X12285777Y-17254531D02*
X12295301Y-17245008D01*
X12295301Y-17245008D02*
X12314348Y-17235484D01*
X12552444Y-17302150D02*
X12552444Y-17435484D01*
X12504825Y-17225960D02*
X12457206Y-17368817D01*
X12457206Y-17368817D02*
X12581015Y-17368817D01*
X12695301Y-17235484D02*
X12714348Y-17235484D01*
X12714348Y-17235484D02*
X12733396Y-17245008D01*
X12733396Y-17245008D02*
X12742920Y-17254531D01*
X12742920Y-17254531D02*
X12752444Y-17273579D01*
X12752444Y-17273579D02*
X12761967Y-17311674D01*
X12761967Y-17311674D02*
X12761967Y-17359293D01*
X12761967Y-17359293D02*
X12752444Y-17397389D01*
X12752444Y-17397389D02*
X12742920Y-17416436D01*
X12742920Y-17416436D02*
X12733396Y-17425960D01*
X12733396Y-17425960D02*
X12714348Y-17435484D01*
X12714348Y-17435484D02*
X12695301Y-17435484D01*
X12695301Y-17435484D02*
X12676253Y-17425960D01*
X12676253Y-17425960D02*
X12666729Y-17416436D01*
X12666729Y-17416436D02*
X12657206Y-17397389D01*
X12657206Y-17397389D02*
X12647682Y-17359293D01*
X12647682Y-17359293D02*
X12647682Y-17311674D01*
X12647682Y-17311674D02*
X12657206Y-17273579D01*
X12657206Y-17273579D02*
X12666729Y-17254531D01*
X12666729Y-17254531D02*
X12676253Y-17245008D01*
X12676253Y-17245008D02*
X12695301Y-17235484D01*
X12838158Y-17254531D02*
X12847682Y-17245008D01*
X12847682Y-17245008D02*
X12866729Y-17235484D01*
X12866729Y-17235484D02*
X12914348Y-17235484D01*
X12914348Y-17235484D02*
X12933396Y-17245008D01*
X12933396Y-17245008D02*
X12942920Y-17254531D01*
X12942920Y-17254531D02*
X12952444Y-17273579D01*
X12952444Y-17273579D02*
X12952444Y-17292627D01*
X12952444Y-17292627D02*
X12942920Y-17321198D01*
X12942920Y-17321198D02*
X12828634Y-17435484D01*
X12828634Y-17435484D02*
X12952444Y-17435484D01*
X13028634Y-17235484D02*
X13028634Y-17273579D01*
X13104825Y-17235484D02*
X13104825Y-17273579D01*
X13400063Y-17511674D02*
X13390539Y-17502150D01*
X13390539Y-17502150D02*
X13371491Y-17473579D01*
X13371491Y-17473579D02*
X13361968Y-17454531D01*
X13361968Y-17454531D02*
X13352444Y-17425960D01*
X13352444Y-17425960D02*
X13342920Y-17378341D01*
X13342920Y-17378341D02*
X13342920Y-17340246D01*
X13342920Y-17340246D02*
X13352444Y-17292627D01*
X13352444Y-17292627D02*
X13361968Y-17264055D01*
X13361968Y-17264055D02*
X13371491Y-17245008D01*
X13371491Y-17245008D02*
X13390539Y-17216436D01*
X13390539Y-17216436D02*
X13400063Y-17206912D01*
X13561968Y-17302150D02*
X13561968Y-17435484D01*
X13514348Y-17225960D02*
X13466729Y-17368817D01*
X13466729Y-17368817D02*
X13590539Y-17368817D01*
X13704825Y-17235484D02*
X13723872Y-17235484D01*
X13723872Y-17235484D02*
X13742920Y-17245008D01*
X13742920Y-17245008D02*
X13752444Y-17254531D01*
X13752444Y-17254531D02*
X13761968Y-17273579D01*
X13761968Y-17273579D02*
X13771491Y-17311674D01*
X13771491Y-17311674D02*
X13771491Y-17359293D01*
X13771491Y-17359293D02*
X13761968Y-17397389D01*
X13761968Y-17397389D02*
X13752444Y-17416436D01*
X13752444Y-17416436D02*
X13742920Y-17425960D01*
X13742920Y-17425960D02*
X13723872Y-17435484D01*
X13723872Y-17435484D02*
X13704825Y-17435484D01*
X13704825Y-17435484D02*
X13685777Y-17425960D01*
X13685777Y-17425960D02*
X13676253Y-17416436D01*
X13676253Y-17416436D02*
X13666729Y-17397389D01*
X13666729Y-17397389D02*
X13657206Y-17359293D01*
X13657206Y-17359293D02*
X13657206Y-17311674D01*
X13657206Y-17311674D02*
X13666729Y-17273579D01*
X13666729Y-17273579D02*
X13676253Y-17254531D01*
X13676253Y-17254531D02*
X13685777Y-17245008D01*
X13685777Y-17245008D02*
X13704825Y-17235484D01*
X14009587Y-17435484D02*
X14009587Y-17235484D01*
X14095301Y-17435484D02*
X14095301Y-17330722D01*
X14095301Y-17330722D02*
X14085777Y-17311674D01*
X14085777Y-17311674D02*
X14066730Y-17302150D01*
X14066730Y-17302150D02*
X14038158Y-17302150D01*
X14038158Y-17302150D02*
X14019110Y-17311674D01*
X14019110Y-17311674D02*
X14009587Y-17321198D01*
X14219110Y-17435484D02*
X14200063Y-17425960D01*
X14200063Y-17425960D02*
X14190539Y-17416436D01*
X14190539Y-17416436D02*
X14181015Y-17397389D01*
X14181015Y-17397389D02*
X14181015Y-17340246D01*
X14181015Y-17340246D02*
X14190539Y-17321198D01*
X14190539Y-17321198D02*
X14200063Y-17311674D01*
X14200063Y-17311674D02*
X14219110Y-17302150D01*
X14219110Y-17302150D02*
X14247682Y-17302150D01*
X14247682Y-17302150D02*
X14266730Y-17311674D01*
X14266730Y-17311674D02*
X14276253Y-17321198D01*
X14276253Y-17321198D02*
X14285777Y-17340246D01*
X14285777Y-17340246D02*
X14285777Y-17397389D01*
X14285777Y-17397389D02*
X14276253Y-17416436D01*
X14276253Y-17416436D02*
X14266730Y-17425960D01*
X14266730Y-17425960D02*
X14247682Y-17435484D01*
X14247682Y-17435484D02*
X14219110Y-17435484D01*
X14400063Y-17435484D02*
X14381015Y-17425960D01*
X14381015Y-17425960D02*
X14371491Y-17406912D01*
X14371491Y-17406912D02*
X14371491Y-17235484D01*
X14552444Y-17425960D02*
X14533396Y-17435484D01*
X14533396Y-17435484D02*
X14495301Y-17435484D01*
X14495301Y-17435484D02*
X14476253Y-17425960D01*
X14476253Y-17425960D02*
X14466730Y-17406912D01*
X14466730Y-17406912D02*
X14466730Y-17330722D01*
X14466730Y-17330722D02*
X14476253Y-17311674D01*
X14476253Y-17311674D02*
X14495301Y-17302150D01*
X14495301Y-17302150D02*
X14533396Y-17302150D01*
X14533396Y-17302150D02*
X14552444Y-17311674D01*
X14552444Y-17311674D02*
X14561968Y-17330722D01*
X14561968Y-17330722D02*
X14561968Y-17349770D01*
X14561968Y-17349770D02*
X14466730Y-17368817D01*
X14638158Y-17425960D02*
X14657206Y-17435484D01*
X14657206Y-17435484D02*
X14695301Y-17435484D01*
X14695301Y-17435484D02*
X14714349Y-17425960D01*
X14714349Y-17425960D02*
X14723872Y-17406912D01*
X14723872Y-17406912D02*
X14723872Y-17397389D01*
X14723872Y-17397389D02*
X14714349Y-17378341D01*
X14714349Y-17378341D02*
X14695301Y-17368817D01*
X14695301Y-17368817D02*
X14666730Y-17368817D01*
X14666730Y-17368817D02*
X14647682Y-17359293D01*
X14647682Y-17359293D02*
X14638158Y-17340246D01*
X14638158Y-17340246D02*
X14638158Y-17330722D01*
X14638158Y-17330722D02*
X14647682Y-17311674D01*
X14647682Y-17311674D02*
X14666730Y-17302150D01*
X14666730Y-17302150D02*
X14695301Y-17302150D01*
X14695301Y-17302150D02*
X14714349Y-17311674D01*
X14790539Y-17511674D02*
X14800063Y-17502150D01*
X14800063Y-17502150D02*
X14819111Y-17473579D01*
X14819111Y-17473579D02*
X14828634Y-17454531D01*
X14828634Y-17454531D02*
X14838158Y-17425960D01*
X14838158Y-17425960D02*
X14847682Y-17378341D01*
X14847682Y-17378341D02*
X14847682Y-17340246D01*
X14847682Y-17340246D02*
X14838158Y-17292627D01*
X14838158Y-17292627D02*
X14828634Y-17264055D01*
X14828634Y-17264055D02*
X14819111Y-17245008D01*
X14819111Y-17245008D02*
X14800063Y-17216436D01*
X14800063Y-17216436D02*
X14790539Y-17206912D01*
D14*
X9715000Y-17553000D02*
X9825000Y-17663000D01*
X9825000Y-17553000D02*
X9715000Y-17663000D01*
X9808891Y-17646891D02*
X9808891Y-17569109D01*
X9731109Y-17569109D01*
X9731109Y-17646891D01*
X9808891Y-17646891D01*
D11*
X10190539Y-17699484D02*
X10076253Y-17699484D01*
X10133396Y-17699484D02*
X10133396Y-17499484D01*
X10133396Y-17499484D02*
X10114348Y-17528055D01*
X10114348Y-17528055D02*
X10095301Y-17547103D01*
X10095301Y-17547103D02*
X10076253Y-17556627D01*
X10276253Y-17680436D02*
X10285777Y-17689960D01*
X10285777Y-17689960D02*
X10276253Y-17699484D01*
X10276253Y-17699484D02*
X10266729Y-17689960D01*
X10266729Y-17689960D02*
X10276253Y-17680436D01*
X10276253Y-17680436D02*
X10276253Y-17699484D01*
X10476253Y-17699484D02*
X10361967Y-17699484D01*
X10419110Y-17699484D02*
X10419110Y-17499484D01*
X10419110Y-17499484D02*
X10400063Y-17528055D01*
X10400063Y-17528055D02*
X10381015Y-17547103D01*
X10381015Y-17547103D02*
X10361967Y-17556627D01*
X10600063Y-17499484D02*
X10619110Y-17499484D01*
X10619110Y-17499484D02*
X10638158Y-17509008D01*
X10638158Y-17509008D02*
X10647682Y-17518531D01*
X10647682Y-17518531D02*
X10657205Y-17537579D01*
X10657205Y-17537579D02*
X10666729Y-17575674D01*
X10666729Y-17575674D02*
X10666729Y-17623293D01*
X10666729Y-17623293D02*
X10657205Y-17661389D01*
X10657205Y-17661389D02*
X10647682Y-17680436D01*
X10647682Y-17680436D02*
X10638158Y-17689960D01*
X10638158Y-17689960D02*
X10619110Y-17699484D01*
X10619110Y-17699484D02*
X10600063Y-17699484D01*
X10600063Y-17699484D02*
X10581015Y-17689960D01*
X10581015Y-17689960D02*
X10571491Y-17680436D01*
X10571491Y-17680436D02*
X10561967Y-17661389D01*
X10561967Y-17661389D02*
X10552444Y-17623293D01*
X10552444Y-17623293D02*
X10552444Y-17575674D01*
X10552444Y-17575674D02*
X10561967Y-17537579D01*
X10561967Y-17537579D02*
X10571491Y-17518531D01*
X10571491Y-17518531D02*
X10581015Y-17509008D01*
X10581015Y-17509008D02*
X10600063Y-17499484D01*
X10790539Y-17499484D02*
X10809586Y-17499484D01*
X10809586Y-17499484D02*
X10828634Y-17509008D01*
X10828634Y-17509008D02*
X10838158Y-17518531D01*
X10838158Y-17518531D02*
X10847682Y-17537579D01*
X10847682Y-17537579D02*
X10857205Y-17575674D01*
X10857205Y-17575674D02*
X10857205Y-17623293D01*
X10857205Y-17623293D02*
X10847682Y-17661389D01*
X10847682Y-17661389D02*
X10838158Y-17680436D01*
X10838158Y-17680436D02*
X10828634Y-17689960D01*
X10828634Y-17689960D02*
X10809586Y-17699484D01*
X10809586Y-17699484D02*
X10790539Y-17699484D01*
X10790539Y-17699484D02*
X10771491Y-17689960D01*
X10771491Y-17689960D02*
X10761967Y-17680436D01*
X10761967Y-17680436D02*
X10752444Y-17661389D01*
X10752444Y-17661389D02*
X10742920Y-17623293D01*
X10742920Y-17623293D02*
X10742920Y-17575674D01*
X10742920Y-17575674D02*
X10752444Y-17537579D01*
X10752444Y-17537579D02*
X10761967Y-17518531D01*
X10761967Y-17518531D02*
X10771491Y-17509008D01*
X10771491Y-17509008D02*
X10790539Y-17499484D01*
X10942920Y-17699484D02*
X10942920Y-17566150D01*
X10942920Y-17585198D02*
X10952444Y-17575674D01*
X10952444Y-17575674D02*
X10971491Y-17566150D01*
X10971491Y-17566150D02*
X11000063Y-17566150D01*
X11000063Y-17566150D02*
X11019110Y-17575674D01*
X11019110Y-17575674D02*
X11028634Y-17594722D01*
X11028634Y-17594722D02*
X11028634Y-17699484D01*
X11028634Y-17594722D02*
X11038158Y-17575674D01*
X11038158Y-17575674D02*
X11057205Y-17566150D01*
X11057205Y-17566150D02*
X11085777Y-17566150D01*
X11085777Y-17566150D02*
X11104825Y-17575674D01*
X11104825Y-17575674D02*
X11114348Y-17594722D01*
X11114348Y-17594722D02*
X11114348Y-17699484D01*
X11209586Y-17699484D02*
X11209586Y-17566150D01*
X11209586Y-17585198D02*
X11219110Y-17575674D01*
X11219110Y-17575674D02*
X11238158Y-17566150D01*
X11238158Y-17566150D02*
X11266729Y-17566150D01*
X11266729Y-17566150D02*
X11285777Y-17575674D01*
X11285777Y-17575674D02*
X11295301Y-17594722D01*
X11295301Y-17594722D02*
X11295301Y-17699484D01*
X11295301Y-17594722D02*
X11304824Y-17575674D01*
X11304824Y-17575674D02*
X11323872Y-17566150D01*
X11323872Y-17566150D02*
X11352443Y-17566150D01*
X11352443Y-17566150D02*
X11371491Y-17575674D01*
X11371491Y-17575674D02*
X11381015Y-17594722D01*
X11381015Y-17594722D02*
X11381015Y-17699484D01*
X11771491Y-17489960D02*
X11600063Y-17747103D01*
X12028634Y-17499484D02*
X12047682Y-17499484D01*
X12047682Y-17499484D02*
X12066729Y-17509008D01*
X12066729Y-17509008D02*
X12076253Y-17518531D01*
X12076253Y-17518531D02*
X12085777Y-17537579D01*
X12085777Y-17537579D02*
X12095301Y-17575674D01*
X12095301Y-17575674D02*
X12095301Y-17623293D01*
X12095301Y-17623293D02*
X12085777Y-17661389D01*
X12085777Y-17661389D02*
X12076253Y-17680436D01*
X12076253Y-17680436D02*
X12066729Y-17689960D01*
X12066729Y-17689960D02*
X12047682Y-17699484D01*
X12047682Y-17699484D02*
X12028634Y-17699484D01*
X12028634Y-17699484D02*
X12009586Y-17689960D01*
X12009586Y-17689960D02*
X12000063Y-17680436D01*
X12000063Y-17680436D02*
X11990539Y-17661389D01*
X11990539Y-17661389D02*
X11981015Y-17623293D01*
X11981015Y-17623293D02*
X11981015Y-17575674D01*
X11981015Y-17575674D02*
X11990539Y-17537579D01*
X11990539Y-17537579D02*
X12000063Y-17518531D01*
X12000063Y-17518531D02*
X12009586Y-17509008D01*
X12009586Y-17509008D02*
X12028634Y-17499484D01*
X12181015Y-17680436D02*
X12190539Y-17689960D01*
X12190539Y-17689960D02*
X12181015Y-17699484D01*
X12181015Y-17699484D02*
X12171491Y-17689960D01*
X12171491Y-17689960D02*
X12181015Y-17680436D01*
X12181015Y-17680436D02*
X12181015Y-17699484D01*
X12314348Y-17499484D02*
X12333396Y-17499484D01*
X12333396Y-17499484D02*
X12352444Y-17509008D01*
X12352444Y-17509008D02*
X12361967Y-17518531D01*
X12361967Y-17518531D02*
X12371491Y-17537579D01*
X12371491Y-17537579D02*
X12381015Y-17575674D01*
X12381015Y-17575674D02*
X12381015Y-17623293D01*
X12381015Y-17623293D02*
X12371491Y-17661389D01*
X12371491Y-17661389D02*
X12361967Y-17680436D01*
X12361967Y-17680436D02*
X12352444Y-17689960D01*
X12352444Y-17689960D02*
X12333396Y-17699484D01*
X12333396Y-17699484D02*
X12314348Y-17699484D01*
X12314348Y-17699484D02*
X12295301Y-17689960D01*
X12295301Y-17689960D02*
X12285777Y-17680436D01*
X12285777Y-17680436D02*
X12276253Y-17661389D01*
X12276253Y-17661389D02*
X12266729Y-17623293D01*
X12266729Y-17623293D02*
X12266729Y-17575674D01*
X12266729Y-17575674D02*
X12276253Y-17537579D01*
X12276253Y-17537579D02*
X12285777Y-17518531D01*
X12285777Y-17518531D02*
X12295301Y-17509008D01*
X12295301Y-17509008D02*
X12314348Y-17499484D01*
X12552444Y-17566150D02*
X12552444Y-17699484D01*
X12504825Y-17489960D02*
X12457206Y-17632817D01*
X12457206Y-17632817D02*
X12581015Y-17632817D01*
X12638158Y-17499484D02*
X12761967Y-17499484D01*
X12761967Y-17499484D02*
X12695301Y-17575674D01*
X12695301Y-17575674D02*
X12723872Y-17575674D01*
X12723872Y-17575674D02*
X12742920Y-17585198D01*
X12742920Y-17585198D02*
X12752444Y-17594722D01*
X12752444Y-17594722D02*
X12761967Y-17613770D01*
X12761967Y-17613770D02*
X12761967Y-17661389D01*
X12761967Y-17661389D02*
X12752444Y-17680436D01*
X12752444Y-17680436D02*
X12742920Y-17689960D01*
X12742920Y-17689960D02*
X12723872Y-17699484D01*
X12723872Y-17699484D02*
X12666729Y-17699484D01*
X12666729Y-17699484D02*
X12647682Y-17689960D01*
X12647682Y-17689960D02*
X12638158Y-17680436D01*
X12828634Y-17499484D02*
X12952444Y-17499484D01*
X12952444Y-17499484D02*
X12885777Y-17575674D01*
X12885777Y-17575674D02*
X12914348Y-17575674D01*
X12914348Y-17575674D02*
X12933396Y-17585198D01*
X12933396Y-17585198D02*
X12942920Y-17594722D01*
X12942920Y-17594722D02*
X12952444Y-17613770D01*
X12952444Y-17613770D02*
X12952444Y-17661389D01*
X12952444Y-17661389D02*
X12942920Y-17680436D01*
X12942920Y-17680436D02*
X12933396Y-17689960D01*
X12933396Y-17689960D02*
X12914348Y-17699484D01*
X12914348Y-17699484D02*
X12857206Y-17699484D01*
X12857206Y-17699484D02*
X12838158Y-17689960D01*
X12838158Y-17689960D02*
X12828634Y-17680436D01*
X13028634Y-17499484D02*
X13028634Y-17537579D01*
X13104825Y-17499484D02*
X13104825Y-17537579D01*
X13400063Y-17775674D02*
X13390539Y-17766150D01*
X13390539Y-17766150D02*
X13371491Y-17737579D01*
X13371491Y-17737579D02*
X13361968Y-17718531D01*
X13361968Y-17718531D02*
X13352444Y-17689960D01*
X13352444Y-17689960D02*
X13342920Y-17642341D01*
X13342920Y-17642341D02*
X13342920Y-17604246D01*
X13342920Y-17604246D02*
X13352444Y-17556627D01*
X13352444Y-17556627D02*
X13361968Y-17528055D01*
X13361968Y-17528055D02*
X13371491Y-17509008D01*
X13371491Y-17509008D02*
X13390539Y-17480436D01*
X13390539Y-17480436D02*
X13400063Y-17470912D01*
X13457206Y-17499484D02*
X13581015Y-17499484D01*
X13581015Y-17499484D02*
X13514348Y-17575674D01*
X13514348Y-17575674D02*
X13542920Y-17575674D01*
X13542920Y-17575674D02*
X13561968Y-17585198D01*
X13561968Y-17585198D02*
X13571491Y-17594722D01*
X13571491Y-17594722D02*
X13581015Y-17613770D01*
X13581015Y-17613770D02*
X13581015Y-17661389D01*
X13581015Y-17661389D02*
X13571491Y-17680436D01*
X13571491Y-17680436D02*
X13561968Y-17689960D01*
X13561968Y-17689960D02*
X13542920Y-17699484D01*
X13542920Y-17699484D02*
X13485777Y-17699484D01*
X13485777Y-17699484D02*
X13466729Y-17689960D01*
X13466729Y-17689960D02*
X13457206Y-17680436D01*
X13819110Y-17699484D02*
X13819110Y-17499484D01*
X13904825Y-17699484D02*
X13904825Y-17594722D01*
X13904825Y-17594722D02*
X13895301Y-17575674D01*
X13895301Y-17575674D02*
X13876253Y-17566150D01*
X13876253Y-17566150D02*
X13847682Y-17566150D01*
X13847682Y-17566150D02*
X13828634Y-17575674D01*
X13828634Y-17575674D02*
X13819110Y-17585198D01*
X14028634Y-17699484D02*
X14009587Y-17689960D01*
X14009587Y-17689960D02*
X14000063Y-17680436D01*
X14000063Y-17680436D02*
X13990539Y-17661389D01*
X13990539Y-17661389D02*
X13990539Y-17604246D01*
X13990539Y-17604246D02*
X14000063Y-17585198D01*
X14000063Y-17585198D02*
X14009587Y-17575674D01*
X14009587Y-17575674D02*
X14028634Y-17566150D01*
X14028634Y-17566150D02*
X14057206Y-17566150D01*
X14057206Y-17566150D02*
X14076253Y-17575674D01*
X14076253Y-17575674D02*
X14085777Y-17585198D01*
X14085777Y-17585198D02*
X14095301Y-17604246D01*
X14095301Y-17604246D02*
X14095301Y-17661389D01*
X14095301Y-17661389D02*
X14085777Y-17680436D01*
X14085777Y-17680436D02*
X14076253Y-17689960D01*
X14076253Y-17689960D02*
X14057206Y-17699484D01*
X14057206Y-17699484D02*
X14028634Y-17699484D01*
X14209587Y-17699484D02*
X14190539Y-17689960D01*
X14190539Y-17689960D02*
X14181015Y-17670912D01*
X14181015Y-17670912D02*
X14181015Y-17499484D01*
X14361968Y-17689960D02*
X14342920Y-17699484D01*
X14342920Y-17699484D02*
X14304825Y-17699484D01*
X14304825Y-17699484D02*
X14285777Y-17689960D01*
X14285777Y-17689960D02*
X14276253Y-17670912D01*
X14276253Y-17670912D02*
X14276253Y-17594722D01*
X14276253Y-17594722D02*
X14285777Y-17575674D01*
X14285777Y-17575674D02*
X14304825Y-17566150D01*
X14304825Y-17566150D02*
X14342920Y-17566150D01*
X14342920Y-17566150D02*
X14361968Y-17575674D01*
X14361968Y-17575674D02*
X14371491Y-17594722D01*
X14371491Y-17594722D02*
X14371491Y-17613770D01*
X14371491Y-17613770D02*
X14276253Y-17632817D01*
X14447682Y-17689960D02*
X14466730Y-17699484D01*
X14466730Y-17699484D02*
X14504825Y-17699484D01*
X14504825Y-17699484D02*
X14523872Y-17689960D01*
X14523872Y-17689960D02*
X14533396Y-17670912D01*
X14533396Y-17670912D02*
X14533396Y-17661389D01*
X14533396Y-17661389D02*
X14523872Y-17642341D01*
X14523872Y-17642341D02*
X14504825Y-17632817D01*
X14504825Y-17632817D02*
X14476253Y-17632817D01*
X14476253Y-17632817D02*
X14457206Y-17623293D01*
X14457206Y-17623293D02*
X14447682Y-17604246D01*
X14447682Y-17604246D02*
X14447682Y-17594722D01*
X14447682Y-17594722D02*
X14457206Y-17575674D01*
X14457206Y-17575674D02*
X14476253Y-17566150D01*
X14476253Y-17566150D02*
X14504825Y-17566150D01*
X14504825Y-17566150D02*
X14523872Y-17575674D01*
X14600063Y-17775674D02*
X14609587Y-17766150D01*
X14609587Y-17766150D02*
X14628634Y-17737579D01*
X14628634Y-17737579D02*
X14638158Y-17718531D01*
X14638158Y-17718531D02*
X14647682Y-17689960D01*
X14647682Y-17689960D02*
X14657206Y-17642341D01*
X14657206Y-17642341D02*
X14657206Y-17604246D01*
X14657206Y-17604246D02*
X14647682Y-17556627D01*
X14647682Y-17556627D02*
X14638158Y-17528055D01*
X14638158Y-17528055D02*
X14628634Y-17509008D01*
X14628634Y-17509008D02*
X14609587Y-17480436D01*
X14609587Y-17480436D02*
X14600063Y-17470912D01*
D15*
X9696000Y-17807500D02*
X9825000Y-17936500D01*
X9825000Y-17807500D02*
X9696000Y-17936500D01*
X9760500Y-17936500D02*
X9825000Y-17872000D01*
X9760500Y-17807500D01*
X9696000Y-17872000D01*
X9760500Y-17936500D01*
D11*
X10190539Y-17963484D02*
X10076253Y-17963484D01*
X10133396Y-17963484D02*
X10133396Y-17763484D01*
X10133396Y-17763484D02*
X10114348Y-17792055D01*
X10114348Y-17792055D02*
X10095301Y-17811103D01*
X10095301Y-17811103D02*
X10076253Y-17820627D01*
X10276253Y-17944436D02*
X10285777Y-17953960D01*
X10285777Y-17953960D02*
X10276253Y-17963484D01*
X10276253Y-17963484D02*
X10266729Y-17953960D01*
X10266729Y-17953960D02*
X10276253Y-17944436D01*
X10276253Y-17944436D02*
X10276253Y-17963484D01*
X10361967Y-17782531D02*
X10371491Y-17773008D01*
X10371491Y-17773008D02*
X10390539Y-17763484D01*
X10390539Y-17763484D02*
X10438158Y-17763484D01*
X10438158Y-17763484D02*
X10457205Y-17773008D01*
X10457205Y-17773008D02*
X10466729Y-17782531D01*
X10466729Y-17782531D02*
X10476253Y-17801579D01*
X10476253Y-17801579D02*
X10476253Y-17820627D01*
X10476253Y-17820627D02*
X10466729Y-17849198D01*
X10466729Y-17849198D02*
X10352444Y-17963484D01*
X10352444Y-17963484D02*
X10476253Y-17963484D01*
X10571491Y-17963484D02*
X10609586Y-17963484D01*
X10609586Y-17963484D02*
X10628634Y-17953960D01*
X10628634Y-17953960D02*
X10638158Y-17944436D01*
X10638158Y-17944436D02*
X10657205Y-17915865D01*
X10657205Y-17915865D02*
X10666729Y-17877770D01*
X10666729Y-17877770D02*
X10666729Y-17801579D01*
X10666729Y-17801579D02*
X10657205Y-17782531D01*
X10657205Y-17782531D02*
X10647682Y-17773008D01*
X10647682Y-17773008D02*
X10628634Y-17763484D01*
X10628634Y-17763484D02*
X10590539Y-17763484D01*
X10590539Y-17763484D02*
X10571491Y-17773008D01*
X10571491Y-17773008D02*
X10561967Y-17782531D01*
X10561967Y-17782531D02*
X10552444Y-17801579D01*
X10552444Y-17801579D02*
X10552444Y-17849198D01*
X10552444Y-17849198D02*
X10561967Y-17868246D01*
X10561967Y-17868246D02*
X10571491Y-17877770D01*
X10571491Y-17877770D02*
X10590539Y-17887293D01*
X10590539Y-17887293D02*
X10628634Y-17887293D01*
X10628634Y-17887293D02*
X10647682Y-17877770D01*
X10647682Y-17877770D02*
X10657205Y-17868246D01*
X10657205Y-17868246D02*
X10666729Y-17849198D01*
X10790539Y-17763484D02*
X10809586Y-17763484D01*
X10809586Y-17763484D02*
X10828634Y-17773008D01*
X10828634Y-17773008D02*
X10838158Y-17782531D01*
X10838158Y-17782531D02*
X10847682Y-17801579D01*
X10847682Y-17801579D02*
X10857205Y-17839674D01*
X10857205Y-17839674D02*
X10857205Y-17887293D01*
X10857205Y-17887293D02*
X10847682Y-17925389D01*
X10847682Y-17925389D02*
X10838158Y-17944436D01*
X10838158Y-17944436D02*
X10828634Y-17953960D01*
X10828634Y-17953960D02*
X10809586Y-17963484D01*
X10809586Y-17963484D02*
X10790539Y-17963484D01*
X10790539Y-17963484D02*
X10771491Y-17953960D01*
X10771491Y-17953960D02*
X10761967Y-17944436D01*
X10761967Y-17944436D02*
X10752444Y-17925389D01*
X10752444Y-17925389D02*
X10742920Y-17887293D01*
X10742920Y-17887293D02*
X10742920Y-17839674D01*
X10742920Y-17839674D02*
X10752444Y-17801579D01*
X10752444Y-17801579D02*
X10761967Y-17782531D01*
X10761967Y-17782531D02*
X10771491Y-17773008D01*
X10771491Y-17773008D02*
X10790539Y-17763484D01*
X10942920Y-17963484D02*
X10942920Y-17830150D01*
X10942920Y-17849198D02*
X10952444Y-17839674D01*
X10952444Y-17839674D02*
X10971491Y-17830150D01*
X10971491Y-17830150D02*
X11000063Y-17830150D01*
X11000063Y-17830150D02*
X11019110Y-17839674D01*
X11019110Y-17839674D02*
X11028634Y-17858722D01*
X11028634Y-17858722D02*
X11028634Y-17963484D01*
X11028634Y-17858722D02*
X11038158Y-17839674D01*
X11038158Y-17839674D02*
X11057205Y-17830150D01*
X11057205Y-17830150D02*
X11085777Y-17830150D01*
X11085777Y-17830150D02*
X11104825Y-17839674D01*
X11104825Y-17839674D02*
X11114348Y-17858722D01*
X11114348Y-17858722D02*
X11114348Y-17963484D01*
X11209586Y-17963484D02*
X11209586Y-17830150D01*
X11209586Y-17849198D02*
X11219110Y-17839674D01*
X11219110Y-17839674D02*
X11238158Y-17830150D01*
X11238158Y-17830150D02*
X11266729Y-17830150D01*
X11266729Y-17830150D02*
X11285777Y-17839674D01*
X11285777Y-17839674D02*
X11295301Y-17858722D01*
X11295301Y-17858722D02*
X11295301Y-17963484D01*
X11295301Y-17858722D02*
X11304824Y-17839674D01*
X11304824Y-17839674D02*
X11323872Y-17830150D01*
X11323872Y-17830150D02*
X11352443Y-17830150D01*
X11352443Y-17830150D02*
X11371491Y-17839674D01*
X11371491Y-17839674D02*
X11381015Y-17858722D01*
X11381015Y-17858722D02*
X11381015Y-17963484D01*
X11771491Y-17753960D02*
X11600063Y-18011103D01*
X12028634Y-17763484D02*
X12047682Y-17763484D01*
X12047682Y-17763484D02*
X12066729Y-17773008D01*
X12066729Y-17773008D02*
X12076253Y-17782531D01*
X12076253Y-17782531D02*
X12085777Y-17801579D01*
X12085777Y-17801579D02*
X12095301Y-17839674D01*
X12095301Y-17839674D02*
X12095301Y-17887293D01*
X12095301Y-17887293D02*
X12085777Y-17925389D01*
X12085777Y-17925389D02*
X12076253Y-17944436D01*
X12076253Y-17944436D02*
X12066729Y-17953960D01*
X12066729Y-17953960D02*
X12047682Y-17963484D01*
X12047682Y-17963484D02*
X12028634Y-17963484D01*
X12028634Y-17963484D02*
X12009586Y-17953960D01*
X12009586Y-17953960D02*
X12000063Y-17944436D01*
X12000063Y-17944436D02*
X11990539Y-17925389D01*
X11990539Y-17925389D02*
X11981015Y-17887293D01*
X11981015Y-17887293D02*
X11981015Y-17839674D01*
X11981015Y-17839674D02*
X11990539Y-17801579D01*
X11990539Y-17801579D02*
X12000063Y-17782531D01*
X12000063Y-17782531D02*
X12009586Y-17773008D01*
X12009586Y-17773008D02*
X12028634Y-17763484D01*
X12181015Y-17944436D02*
X12190539Y-17953960D01*
X12190539Y-17953960D02*
X12181015Y-17963484D01*
X12181015Y-17963484D02*
X12171491Y-17953960D01*
X12171491Y-17953960D02*
X12181015Y-17944436D01*
X12181015Y-17944436D02*
X12181015Y-17963484D01*
X12314348Y-17763484D02*
X12333396Y-17763484D01*
X12333396Y-17763484D02*
X12352444Y-17773008D01*
X12352444Y-17773008D02*
X12361967Y-17782531D01*
X12361967Y-17782531D02*
X12371491Y-17801579D01*
X12371491Y-17801579D02*
X12381015Y-17839674D01*
X12381015Y-17839674D02*
X12381015Y-17887293D01*
X12381015Y-17887293D02*
X12371491Y-17925389D01*
X12371491Y-17925389D02*
X12361967Y-17944436D01*
X12361967Y-17944436D02*
X12352444Y-17953960D01*
X12352444Y-17953960D02*
X12333396Y-17963484D01*
X12333396Y-17963484D02*
X12314348Y-17963484D01*
X12314348Y-17963484D02*
X12295301Y-17953960D01*
X12295301Y-17953960D02*
X12285777Y-17944436D01*
X12285777Y-17944436D02*
X12276253Y-17925389D01*
X12276253Y-17925389D02*
X12266729Y-17887293D01*
X12266729Y-17887293D02*
X12266729Y-17839674D01*
X12266729Y-17839674D02*
X12276253Y-17801579D01*
X12276253Y-17801579D02*
X12285777Y-17782531D01*
X12285777Y-17782531D02*
X12295301Y-17773008D01*
X12295301Y-17773008D02*
X12314348Y-17763484D01*
X12561967Y-17763484D02*
X12466729Y-17763484D01*
X12466729Y-17763484D02*
X12457206Y-17858722D01*
X12457206Y-17858722D02*
X12466729Y-17849198D01*
X12466729Y-17849198D02*
X12485777Y-17839674D01*
X12485777Y-17839674D02*
X12533396Y-17839674D01*
X12533396Y-17839674D02*
X12552444Y-17849198D01*
X12552444Y-17849198D02*
X12561967Y-17858722D01*
X12561967Y-17858722D02*
X12571491Y-17877770D01*
X12571491Y-17877770D02*
X12571491Y-17925389D01*
X12571491Y-17925389D02*
X12561967Y-17944436D01*
X12561967Y-17944436D02*
X12552444Y-17953960D01*
X12552444Y-17953960D02*
X12533396Y-17963484D01*
X12533396Y-17963484D02*
X12485777Y-17963484D01*
X12485777Y-17963484D02*
X12466729Y-17953960D01*
X12466729Y-17953960D02*
X12457206Y-17944436D01*
X12695301Y-17763484D02*
X12714348Y-17763484D01*
X12714348Y-17763484D02*
X12733396Y-17773008D01*
X12733396Y-17773008D02*
X12742920Y-17782531D01*
X12742920Y-17782531D02*
X12752444Y-17801579D01*
X12752444Y-17801579D02*
X12761967Y-17839674D01*
X12761967Y-17839674D02*
X12761967Y-17887293D01*
X12761967Y-17887293D02*
X12752444Y-17925389D01*
X12752444Y-17925389D02*
X12742920Y-17944436D01*
X12742920Y-17944436D02*
X12733396Y-17953960D01*
X12733396Y-17953960D02*
X12714348Y-17963484D01*
X12714348Y-17963484D02*
X12695301Y-17963484D01*
X12695301Y-17963484D02*
X12676253Y-17953960D01*
X12676253Y-17953960D02*
X12666729Y-17944436D01*
X12666729Y-17944436D02*
X12657206Y-17925389D01*
X12657206Y-17925389D02*
X12647682Y-17887293D01*
X12647682Y-17887293D02*
X12647682Y-17839674D01*
X12647682Y-17839674D02*
X12657206Y-17801579D01*
X12657206Y-17801579D02*
X12666729Y-17782531D01*
X12666729Y-17782531D02*
X12676253Y-17773008D01*
X12676253Y-17773008D02*
X12695301Y-17763484D01*
X12876253Y-17849198D02*
X12857206Y-17839674D01*
X12857206Y-17839674D02*
X12847682Y-17830150D01*
X12847682Y-17830150D02*
X12838158Y-17811103D01*
X12838158Y-17811103D02*
X12838158Y-17801579D01*
X12838158Y-17801579D02*
X12847682Y-17782531D01*
X12847682Y-17782531D02*
X12857206Y-17773008D01*
X12857206Y-17773008D02*
X12876253Y-17763484D01*
X12876253Y-17763484D02*
X12914348Y-17763484D01*
X12914348Y-17763484D02*
X12933396Y-17773008D01*
X12933396Y-17773008D02*
X12942920Y-17782531D01*
X12942920Y-17782531D02*
X12952444Y-17801579D01*
X12952444Y-17801579D02*
X12952444Y-17811103D01*
X12952444Y-17811103D02*
X12942920Y-17830150D01*
X12942920Y-17830150D02*
X12933396Y-17839674D01*
X12933396Y-17839674D02*
X12914348Y-17849198D01*
X12914348Y-17849198D02*
X12876253Y-17849198D01*
X12876253Y-17849198D02*
X12857206Y-17858722D01*
X12857206Y-17858722D02*
X12847682Y-17868246D01*
X12847682Y-17868246D02*
X12838158Y-17887293D01*
X12838158Y-17887293D02*
X12838158Y-17925389D01*
X12838158Y-17925389D02*
X12847682Y-17944436D01*
X12847682Y-17944436D02*
X12857206Y-17953960D01*
X12857206Y-17953960D02*
X12876253Y-17963484D01*
X12876253Y-17963484D02*
X12914348Y-17963484D01*
X12914348Y-17963484D02*
X12933396Y-17953960D01*
X12933396Y-17953960D02*
X12942920Y-17944436D01*
X12942920Y-17944436D02*
X12952444Y-17925389D01*
X12952444Y-17925389D02*
X12952444Y-17887293D01*
X12952444Y-17887293D02*
X12942920Y-17868246D01*
X12942920Y-17868246D02*
X12933396Y-17858722D01*
X12933396Y-17858722D02*
X12914348Y-17849198D01*
X13028634Y-17763484D02*
X13028634Y-17801579D01*
X13104825Y-17763484D02*
X13104825Y-17801579D01*
X13400063Y-18039674D02*
X13390539Y-18030150D01*
X13390539Y-18030150D02*
X13371491Y-18001579D01*
X13371491Y-18001579D02*
X13361968Y-17982531D01*
X13361968Y-17982531D02*
X13352444Y-17953960D01*
X13352444Y-17953960D02*
X13342920Y-17906341D01*
X13342920Y-17906341D02*
X13342920Y-17868246D01*
X13342920Y-17868246D02*
X13352444Y-17820627D01*
X13352444Y-17820627D02*
X13361968Y-17792055D01*
X13361968Y-17792055D02*
X13371491Y-17773008D01*
X13371491Y-17773008D02*
X13390539Y-17744436D01*
X13390539Y-17744436D02*
X13400063Y-17734912D01*
X13581015Y-17963484D02*
X13466729Y-17963484D01*
X13523872Y-17963484D02*
X13523872Y-17763484D01*
X13523872Y-17763484D02*
X13504825Y-17792055D01*
X13504825Y-17792055D02*
X13485777Y-17811103D01*
X13485777Y-17811103D02*
X13466729Y-17820627D01*
X13819110Y-17963484D02*
X13819110Y-17763484D01*
X13904825Y-17963484D02*
X13904825Y-17858722D01*
X13904825Y-17858722D02*
X13895301Y-17839674D01*
X13895301Y-17839674D02*
X13876253Y-17830150D01*
X13876253Y-17830150D02*
X13847682Y-17830150D01*
X13847682Y-17830150D02*
X13828634Y-17839674D01*
X13828634Y-17839674D02*
X13819110Y-17849198D01*
X14028634Y-17963484D02*
X14009587Y-17953960D01*
X14009587Y-17953960D02*
X14000063Y-17944436D01*
X14000063Y-17944436D02*
X13990539Y-17925389D01*
X13990539Y-17925389D02*
X13990539Y-17868246D01*
X13990539Y-17868246D02*
X14000063Y-17849198D01*
X14000063Y-17849198D02*
X14009587Y-17839674D01*
X14009587Y-17839674D02*
X14028634Y-17830150D01*
X14028634Y-17830150D02*
X14057206Y-17830150D01*
X14057206Y-17830150D02*
X14076253Y-17839674D01*
X14076253Y-17839674D02*
X14085777Y-17849198D01*
X14085777Y-17849198D02*
X14095301Y-17868246D01*
X14095301Y-17868246D02*
X14095301Y-17925389D01*
X14095301Y-17925389D02*
X14085777Y-17944436D01*
X14085777Y-17944436D02*
X14076253Y-17953960D01*
X14076253Y-17953960D02*
X14057206Y-17963484D01*
X14057206Y-17963484D02*
X14028634Y-17963484D01*
X14209587Y-17963484D02*
X14190539Y-17953960D01*
X14190539Y-17953960D02*
X14181015Y-17934912D01*
X14181015Y-17934912D02*
X14181015Y-17763484D01*
X14361968Y-17953960D02*
X14342920Y-17963484D01*
X14342920Y-17963484D02*
X14304825Y-17963484D01*
X14304825Y-17963484D02*
X14285777Y-17953960D01*
X14285777Y-17953960D02*
X14276253Y-17934912D01*
X14276253Y-17934912D02*
X14276253Y-17858722D01*
X14276253Y-17858722D02*
X14285777Y-17839674D01*
X14285777Y-17839674D02*
X14304825Y-17830150D01*
X14304825Y-17830150D02*
X14342920Y-17830150D01*
X14342920Y-17830150D02*
X14361968Y-17839674D01*
X14361968Y-17839674D02*
X14371491Y-17858722D01*
X14371491Y-17858722D02*
X14371491Y-17877770D01*
X14371491Y-17877770D02*
X14276253Y-17896817D01*
X14438158Y-18039674D02*
X14447682Y-18030150D01*
X14447682Y-18030150D02*
X14466730Y-18001579D01*
X14466730Y-18001579D02*
X14476253Y-17982531D01*
X14476253Y-17982531D02*
X14485777Y-17953960D01*
X14485777Y-17953960D02*
X14495301Y-17906341D01*
X14495301Y-17906341D02*
X14495301Y-17868246D01*
X14495301Y-17868246D02*
X14485777Y-17820627D01*
X14485777Y-17820627D02*
X14476253Y-17792055D01*
X14476253Y-17792055D02*
X14466730Y-17773008D01*
X14466730Y-17773008D02*
X14447682Y-17744436D01*
X14447682Y-17744436D02*
X14438158Y-17734912D01*
D16*
X9759000Y-18070000D02*
X9759000Y-18202000D01*
X9693000Y-18136000D02*
X9825000Y-18136000D01*
X9825000Y-18136000D02*
G75*
G03*
X9693000Y-18136000I-66000J0D01*
G01*
X9693000Y-18136000D02*
G75*
G03*
X9825000Y-18136000I66000J0D01*
G01*
D11*
X10190539Y-18227484D02*
X10076253Y-18227484D01*
X10133396Y-18227484D02*
X10133396Y-18027484D01*
X10133396Y-18027484D02*
X10114348Y-18056055D01*
X10114348Y-18056055D02*
X10095301Y-18075103D01*
X10095301Y-18075103D02*
X10076253Y-18084627D01*
X10276253Y-18208436D02*
X10285777Y-18217960D01*
X10285777Y-18217960D02*
X10276253Y-18227484D01*
X10276253Y-18227484D02*
X10266729Y-18217960D01*
X10266729Y-18217960D02*
X10276253Y-18208436D01*
X10276253Y-18208436D02*
X10276253Y-18227484D01*
X10352444Y-18027484D02*
X10476253Y-18027484D01*
X10476253Y-18027484D02*
X10409586Y-18103674D01*
X10409586Y-18103674D02*
X10438158Y-18103674D01*
X10438158Y-18103674D02*
X10457205Y-18113198D01*
X10457205Y-18113198D02*
X10466729Y-18122722D01*
X10466729Y-18122722D02*
X10476253Y-18141770D01*
X10476253Y-18141770D02*
X10476253Y-18189389D01*
X10476253Y-18189389D02*
X10466729Y-18208436D01*
X10466729Y-18208436D02*
X10457205Y-18217960D01*
X10457205Y-18217960D02*
X10438158Y-18227484D01*
X10438158Y-18227484D02*
X10381015Y-18227484D01*
X10381015Y-18227484D02*
X10361967Y-18217960D01*
X10361967Y-18217960D02*
X10352444Y-18208436D01*
X10552444Y-18046531D02*
X10561967Y-18037008D01*
X10561967Y-18037008D02*
X10581015Y-18027484D01*
X10581015Y-18027484D02*
X10628634Y-18027484D01*
X10628634Y-18027484D02*
X10647682Y-18037008D01*
X10647682Y-18037008D02*
X10657205Y-18046531D01*
X10657205Y-18046531D02*
X10666729Y-18065579D01*
X10666729Y-18065579D02*
X10666729Y-18084627D01*
X10666729Y-18084627D02*
X10657205Y-18113198D01*
X10657205Y-18113198D02*
X10542920Y-18227484D01*
X10542920Y-18227484D02*
X10666729Y-18227484D01*
X10790539Y-18027484D02*
X10809586Y-18027484D01*
X10809586Y-18027484D02*
X10828634Y-18037008D01*
X10828634Y-18037008D02*
X10838158Y-18046531D01*
X10838158Y-18046531D02*
X10847682Y-18065579D01*
X10847682Y-18065579D02*
X10857205Y-18103674D01*
X10857205Y-18103674D02*
X10857205Y-18151293D01*
X10857205Y-18151293D02*
X10847682Y-18189389D01*
X10847682Y-18189389D02*
X10838158Y-18208436D01*
X10838158Y-18208436D02*
X10828634Y-18217960D01*
X10828634Y-18217960D02*
X10809586Y-18227484D01*
X10809586Y-18227484D02*
X10790539Y-18227484D01*
X10790539Y-18227484D02*
X10771491Y-18217960D01*
X10771491Y-18217960D02*
X10761967Y-18208436D01*
X10761967Y-18208436D02*
X10752444Y-18189389D01*
X10752444Y-18189389D02*
X10742920Y-18151293D01*
X10742920Y-18151293D02*
X10742920Y-18103674D01*
X10742920Y-18103674D02*
X10752444Y-18065579D01*
X10752444Y-18065579D02*
X10761967Y-18046531D01*
X10761967Y-18046531D02*
X10771491Y-18037008D01*
X10771491Y-18037008D02*
X10790539Y-18027484D01*
X10942920Y-18227484D02*
X10942920Y-18094150D01*
X10942920Y-18113198D02*
X10952444Y-18103674D01*
X10952444Y-18103674D02*
X10971491Y-18094150D01*
X10971491Y-18094150D02*
X11000063Y-18094150D01*
X11000063Y-18094150D02*
X11019110Y-18103674D01*
X11019110Y-18103674D02*
X11028634Y-18122722D01*
X11028634Y-18122722D02*
X11028634Y-18227484D01*
X11028634Y-18122722D02*
X11038158Y-18103674D01*
X11038158Y-18103674D02*
X11057205Y-18094150D01*
X11057205Y-18094150D02*
X11085777Y-18094150D01*
X11085777Y-18094150D02*
X11104825Y-18103674D01*
X11104825Y-18103674D02*
X11114348Y-18122722D01*
X11114348Y-18122722D02*
X11114348Y-18227484D01*
X11209586Y-18227484D02*
X11209586Y-18094150D01*
X11209586Y-18113198D02*
X11219110Y-18103674D01*
X11219110Y-18103674D02*
X11238158Y-18094150D01*
X11238158Y-18094150D02*
X11266729Y-18094150D01*
X11266729Y-18094150D02*
X11285777Y-18103674D01*
X11285777Y-18103674D02*
X11295301Y-18122722D01*
X11295301Y-18122722D02*
X11295301Y-18227484D01*
X11295301Y-18122722D02*
X11304824Y-18103674D01*
X11304824Y-18103674D02*
X11323872Y-18094150D01*
X11323872Y-18094150D02*
X11352443Y-18094150D01*
X11352443Y-18094150D02*
X11371491Y-18103674D01*
X11371491Y-18103674D02*
X11381015Y-18122722D01*
X11381015Y-18122722D02*
X11381015Y-18227484D01*
X11771491Y-18017960D02*
X11600063Y-18275103D01*
X12028634Y-18027484D02*
X12047682Y-18027484D01*
X12047682Y-18027484D02*
X12066729Y-18037008D01*
X12066729Y-18037008D02*
X12076253Y-18046531D01*
X12076253Y-18046531D02*
X12085777Y-18065579D01*
X12085777Y-18065579D02*
X12095301Y-18103674D01*
X12095301Y-18103674D02*
X12095301Y-18151293D01*
X12095301Y-18151293D02*
X12085777Y-18189389D01*
X12085777Y-18189389D02*
X12076253Y-18208436D01*
X12076253Y-18208436D02*
X12066729Y-18217960D01*
X12066729Y-18217960D02*
X12047682Y-18227484D01*
X12047682Y-18227484D02*
X12028634Y-18227484D01*
X12028634Y-18227484D02*
X12009586Y-18217960D01*
X12009586Y-18217960D02*
X12000063Y-18208436D01*
X12000063Y-18208436D02*
X11990539Y-18189389D01*
X11990539Y-18189389D02*
X11981015Y-18151293D01*
X11981015Y-18151293D02*
X11981015Y-18103674D01*
X11981015Y-18103674D02*
X11990539Y-18065579D01*
X11990539Y-18065579D02*
X12000063Y-18046531D01*
X12000063Y-18046531D02*
X12009586Y-18037008D01*
X12009586Y-18037008D02*
X12028634Y-18027484D01*
X12181015Y-18208436D02*
X12190539Y-18217960D01*
X12190539Y-18217960D02*
X12181015Y-18227484D01*
X12181015Y-18227484D02*
X12171491Y-18217960D01*
X12171491Y-18217960D02*
X12181015Y-18208436D01*
X12181015Y-18208436D02*
X12181015Y-18227484D01*
X12314348Y-18027484D02*
X12333396Y-18027484D01*
X12333396Y-18027484D02*
X12352444Y-18037008D01*
X12352444Y-18037008D02*
X12361967Y-18046531D01*
X12361967Y-18046531D02*
X12371491Y-18065579D01*
X12371491Y-18065579D02*
X12381015Y-18103674D01*
X12381015Y-18103674D02*
X12381015Y-18151293D01*
X12381015Y-18151293D02*
X12371491Y-18189389D01*
X12371491Y-18189389D02*
X12361967Y-18208436D01*
X12361967Y-18208436D02*
X12352444Y-18217960D01*
X12352444Y-18217960D02*
X12333396Y-18227484D01*
X12333396Y-18227484D02*
X12314348Y-18227484D01*
X12314348Y-18227484D02*
X12295301Y-18217960D01*
X12295301Y-18217960D02*
X12285777Y-18208436D01*
X12285777Y-18208436D02*
X12276253Y-18189389D01*
X12276253Y-18189389D02*
X12266729Y-18151293D01*
X12266729Y-18151293D02*
X12266729Y-18103674D01*
X12266729Y-18103674D02*
X12276253Y-18065579D01*
X12276253Y-18065579D02*
X12285777Y-18046531D01*
X12285777Y-18046531D02*
X12295301Y-18037008D01*
X12295301Y-18037008D02*
X12314348Y-18027484D01*
X12561967Y-18027484D02*
X12466729Y-18027484D01*
X12466729Y-18027484D02*
X12457206Y-18122722D01*
X12457206Y-18122722D02*
X12466729Y-18113198D01*
X12466729Y-18113198D02*
X12485777Y-18103674D01*
X12485777Y-18103674D02*
X12533396Y-18103674D01*
X12533396Y-18103674D02*
X12552444Y-18113198D01*
X12552444Y-18113198D02*
X12561967Y-18122722D01*
X12561967Y-18122722D02*
X12571491Y-18141770D01*
X12571491Y-18141770D02*
X12571491Y-18189389D01*
X12571491Y-18189389D02*
X12561967Y-18208436D01*
X12561967Y-18208436D02*
X12552444Y-18217960D01*
X12552444Y-18217960D02*
X12533396Y-18227484D01*
X12533396Y-18227484D02*
X12485777Y-18227484D01*
X12485777Y-18227484D02*
X12466729Y-18217960D01*
X12466729Y-18217960D02*
X12457206Y-18208436D01*
X12647682Y-18046531D02*
X12657206Y-18037008D01*
X12657206Y-18037008D02*
X12676253Y-18027484D01*
X12676253Y-18027484D02*
X12723872Y-18027484D01*
X12723872Y-18027484D02*
X12742920Y-18037008D01*
X12742920Y-18037008D02*
X12752444Y-18046531D01*
X12752444Y-18046531D02*
X12761967Y-18065579D01*
X12761967Y-18065579D02*
X12761967Y-18084627D01*
X12761967Y-18084627D02*
X12752444Y-18113198D01*
X12752444Y-18113198D02*
X12638158Y-18227484D01*
X12638158Y-18227484D02*
X12761967Y-18227484D01*
X12885777Y-18027484D02*
X12904825Y-18027484D01*
X12904825Y-18027484D02*
X12923872Y-18037008D01*
X12923872Y-18037008D02*
X12933396Y-18046531D01*
X12933396Y-18046531D02*
X12942920Y-18065579D01*
X12942920Y-18065579D02*
X12952444Y-18103674D01*
X12952444Y-18103674D02*
X12952444Y-18151293D01*
X12952444Y-18151293D02*
X12942920Y-18189389D01*
X12942920Y-18189389D02*
X12933396Y-18208436D01*
X12933396Y-18208436D02*
X12923872Y-18217960D01*
X12923872Y-18217960D02*
X12904825Y-18227484D01*
X12904825Y-18227484D02*
X12885777Y-18227484D01*
X12885777Y-18227484D02*
X12866729Y-18217960D01*
X12866729Y-18217960D02*
X12857206Y-18208436D01*
X12857206Y-18208436D02*
X12847682Y-18189389D01*
X12847682Y-18189389D02*
X12838158Y-18151293D01*
X12838158Y-18151293D02*
X12838158Y-18103674D01*
X12838158Y-18103674D02*
X12847682Y-18065579D01*
X12847682Y-18065579D02*
X12857206Y-18046531D01*
X12857206Y-18046531D02*
X12866729Y-18037008D01*
X12866729Y-18037008D02*
X12885777Y-18027484D01*
X13028634Y-18027484D02*
X13028634Y-18065579D01*
X13104825Y-18027484D02*
X13104825Y-18065579D01*
X13400063Y-18303674D02*
X13390539Y-18294150D01*
X13390539Y-18294150D02*
X13371491Y-18265579D01*
X13371491Y-18265579D02*
X13361968Y-18246531D01*
X13361968Y-18246531D02*
X13352444Y-18217960D01*
X13352444Y-18217960D02*
X13342920Y-18170341D01*
X13342920Y-18170341D02*
X13342920Y-18132246D01*
X13342920Y-18132246D02*
X13352444Y-18084627D01*
X13352444Y-18084627D02*
X13361968Y-18056055D01*
X13361968Y-18056055D02*
X13371491Y-18037008D01*
X13371491Y-18037008D02*
X13390539Y-18008436D01*
X13390539Y-18008436D02*
X13400063Y-17998912D01*
X13561968Y-18094150D02*
X13561968Y-18227484D01*
X13514348Y-18017960D02*
X13466729Y-18160817D01*
X13466729Y-18160817D02*
X13590539Y-18160817D01*
X13819110Y-18227484D02*
X13819110Y-18027484D01*
X13904825Y-18227484D02*
X13904825Y-18122722D01*
X13904825Y-18122722D02*
X13895301Y-18103674D01*
X13895301Y-18103674D02*
X13876253Y-18094150D01*
X13876253Y-18094150D02*
X13847682Y-18094150D01*
X13847682Y-18094150D02*
X13828634Y-18103674D01*
X13828634Y-18103674D02*
X13819110Y-18113198D01*
X14028634Y-18227484D02*
X14009587Y-18217960D01*
X14009587Y-18217960D02*
X14000063Y-18208436D01*
X14000063Y-18208436D02*
X13990539Y-18189389D01*
X13990539Y-18189389D02*
X13990539Y-18132246D01*
X13990539Y-18132246D02*
X14000063Y-18113198D01*
X14000063Y-18113198D02*
X14009587Y-18103674D01*
X14009587Y-18103674D02*
X14028634Y-18094150D01*
X14028634Y-18094150D02*
X14057206Y-18094150D01*
X14057206Y-18094150D02*
X14076253Y-18103674D01*
X14076253Y-18103674D02*
X14085777Y-18113198D01*
X14085777Y-18113198D02*
X14095301Y-18132246D01*
X14095301Y-18132246D02*
X14095301Y-18189389D01*
X14095301Y-18189389D02*
X14085777Y-18208436D01*
X14085777Y-18208436D02*
X14076253Y-18217960D01*
X14076253Y-18217960D02*
X14057206Y-18227484D01*
X14057206Y-18227484D02*
X14028634Y-18227484D01*
X14209587Y-18227484D02*
X14190539Y-18217960D01*
X14190539Y-18217960D02*
X14181015Y-18198912D01*
X14181015Y-18198912D02*
X14181015Y-18027484D01*
X14361968Y-18217960D02*
X14342920Y-18227484D01*
X14342920Y-18227484D02*
X14304825Y-18227484D01*
X14304825Y-18227484D02*
X14285777Y-18217960D01*
X14285777Y-18217960D02*
X14276253Y-18198912D01*
X14276253Y-18198912D02*
X14276253Y-18122722D01*
X14276253Y-18122722D02*
X14285777Y-18103674D01*
X14285777Y-18103674D02*
X14304825Y-18094150D01*
X14304825Y-18094150D02*
X14342920Y-18094150D01*
X14342920Y-18094150D02*
X14361968Y-18103674D01*
X14361968Y-18103674D02*
X14371491Y-18122722D01*
X14371491Y-18122722D02*
X14371491Y-18141770D01*
X14371491Y-18141770D02*
X14276253Y-18160817D01*
X14447682Y-18217960D02*
X14466730Y-18227484D01*
X14466730Y-18227484D02*
X14504825Y-18227484D01*
X14504825Y-18227484D02*
X14523872Y-18217960D01*
X14523872Y-18217960D02*
X14533396Y-18198912D01*
X14533396Y-18198912D02*
X14533396Y-18189389D01*
X14533396Y-18189389D02*
X14523872Y-18170341D01*
X14523872Y-18170341D02*
X14504825Y-18160817D01*
X14504825Y-18160817D02*
X14476253Y-18160817D01*
X14476253Y-18160817D02*
X14457206Y-18151293D01*
X14457206Y-18151293D02*
X14447682Y-18132246D01*
X14447682Y-18132246D02*
X14447682Y-18122722D01*
X14447682Y-18122722D02*
X14457206Y-18103674D01*
X14457206Y-18103674D02*
X14476253Y-18094150D01*
X14476253Y-18094150D02*
X14504825Y-18094150D01*
X14504825Y-18094150D02*
X14523872Y-18103674D01*
X14600063Y-18303674D02*
X14609587Y-18294150D01*
X14609587Y-18294150D02*
X14628634Y-18265579D01*
X14628634Y-18265579D02*
X14638158Y-18246531D01*
X14638158Y-18246531D02*
X14647682Y-18217960D01*
X14647682Y-18217960D02*
X14657206Y-18170341D01*
X14657206Y-18170341D02*
X14657206Y-18132246D01*
X14657206Y-18132246D02*
X14647682Y-18084627D01*
X14647682Y-18084627D02*
X14638158Y-18056055D01*
X14638158Y-18056055D02*
X14628634Y-18037008D01*
X14628634Y-18037008D02*
X14609587Y-18008436D01*
X14609587Y-18008436D02*
X14600063Y-17998912D01*
D17*
X9802741Y-18453741D02*
X9802741Y-18346259D01*
X9695259Y-18346259D01*
X9695259Y-18453741D01*
X9802741Y-18453741D01*
X9825000Y-18400000D02*
G75*
G03*
X9673000Y-18400000I-76000J0D01*
G01*
X9673000Y-18400000D02*
G75*
G03*
X9825000Y-18400000I76000J0D01*
G01*
D11*
X10190539Y-18491484D02*
X10076253Y-18491484D01*
X10133396Y-18491484D02*
X10133396Y-18291484D01*
X10133396Y-18291484D02*
X10114348Y-18320055D01*
X10114348Y-18320055D02*
X10095301Y-18339103D01*
X10095301Y-18339103D02*
X10076253Y-18348627D01*
X10276253Y-18472436D02*
X10285777Y-18481960D01*
X10285777Y-18481960D02*
X10276253Y-18491484D01*
X10276253Y-18491484D02*
X10266729Y-18481960D01*
X10266729Y-18481960D02*
X10276253Y-18472436D01*
X10276253Y-18472436D02*
X10276253Y-18491484D01*
X10466729Y-18291484D02*
X10371491Y-18291484D01*
X10371491Y-18291484D02*
X10361967Y-18386722D01*
X10361967Y-18386722D02*
X10371491Y-18377198D01*
X10371491Y-18377198D02*
X10390539Y-18367674D01*
X10390539Y-18367674D02*
X10438158Y-18367674D01*
X10438158Y-18367674D02*
X10457205Y-18377198D01*
X10457205Y-18377198D02*
X10466729Y-18386722D01*
X10466729Y-18386722D02*
X10476253Y-18405770D01*
X10476253Y-18405770D02*
X10476253Y-18453389D01*
X10476253Y-18453389D02*
X10466729Y-18472436D01*
X10466729Y-18472436D02*
X10457205Y-18481960D01*
X10457205Y-18481960D02*
X10438158Y-18491484D01*
X10438158Y-18491484D02*
X10390539Y-18491484D01*
X10390539Y-18491484D02*
X10371491Y-18481960D01*
X10371491Y-18481960D02*
X10361967Y-18472436D01*
X10552444Y-18310531D02*
X10561967Y-18301008D01*
X10561967Y-18301008D02*
X10581015Y-18291484D01*
X10581015Y-18291484D02*
X10628634Y-18291484D01*
X10628634Y-18291484D02*
X10647682Y-18301008D01*
X10647682Y-18301008D02*
X10657205Y-18310531D01*
X10657205Y-18310531D02*
X10666729Y-18329579D01*
X10666729Y-18329579D02*
X10666729Y-18348627D01*
X10666729Y-18348627D02*
X10657205Y-18377198D01*
X10657205Y-18377198D02*
X10542920Y-18491484D01*
X10542920Y-18491484D02*
X10666729Y-18491484D01*
X10790539Y-18291484D02*
X10809586Y-18291484D01*
X10809586Y-18291484D02*
X10828634Y-18301008D01*
X10828634Y-18301008D02*
X10838158Y-18310531D01*
X10838158Y-18310531D02*
X10847682Y-18329579D01*
X10847682Y-18329579D02*
X10857205Y-18367674D01*
X10857205Y-18367674D02*
X10857205Y-18415293D01*
X10857205Y-18415293D02*
X10847682Y-18453389D01*
X10847682Y-18453389D02*
X10838158Y-18472436D01*
X10838158Y-18472436D02*
X10828634Y-18481960D01*
X10828634Y-18481960D02*
X10809586Y-18491484D01*
X10809586Y-18491484D02*
X10790539Y-18491484D01*
X10790539Y-18491484D02*
X10771491Y-18481960D01*
X10771491Y-18481960D02*
X10761967Y-18472436D01*
X10761967Y-18472436D02*
X10752444Y-18453389D01*
X10752444Y-18453389D02*
X10742920Y-18415293D01*
X10742920Y-18415293D02*
X10742920Y-18367674D01*
X10742920Y-18367674D02*
X10752444Y-18329579D01*
X10752444Y-18329579D02*
X10761967Y-18310531D01*
X10761967Y-18310531D02*
X10771491Y-18301008D01*
X10771491Y-18301008D02*
X10790539Y-18291484D01*
X10942920Y-18491484D02*
X10942920Y-18358150D01*
X10942920Y-18377198D02*
X10952444Y-18367674D01*
X10952444Y-18367674D02*
X10971491Y-18358150D01*
X10971491Y-18358150D02*
X11000063Y-18358150D01*
X11000063Y-18358150D02*
X11019110Y-18367674D01*
X11019110Y-18367674D02*
X11028634Y-18386722D01*
X11028634Y-18386722D02*
X11028634Y-18491484D01*
X11028634Y-18386722D02*
X11038158Y-18367674D01*
X11038158Y-18367674D02*
X11057205Y-18358150D01*
X11057205Y-18358150D02*
X11085777Y-18358150D01*
X11085777Y-18358150D02*
X11104825Y-18367674D01*
X11104825Y-18367674D02*
X11114348Y-18386722D01*
X11114348Y-18386722D02*
X11114348Y-18491484D01*
X11209586Y-18491484D02*
X11209586Y-18358150D01*
X11209586Y-18377198D02*
X11219110Y-18367674D01*
X11219110Y-18367674D02*
X11238158Y-18358150D01*
X11238158Y-18358150D02*
X11266729Y-18358150D01*
X11266729Y-18358150D02*
X11285777Y-18367674D01*
X11285777Y-18367674D02*
X11295301Y-18386722D01*
X11295301Y-18386722D02*
X11295301Y-18491484D01*
X11295301Y-18386722D02*
X11304824Y-18367674D01*
X11304824Y-18367674D02*
X11323872Y-18358150D01*
X11323872Y-18358150D02*
X11352443Y-18358150D01*
X11352443Y-18358150D02*
X11371491Y-18367674D01*
X11371491Y-18367674D02*
X11381015Y-18386722D01*
X11381015Y-18386722D02*
X11381015Y-18491484D01*
X11771491Y-18281960D02*
X11600063Y-18539103D01*
X12028634Y-18291484D02*
X12047682Y-18291484D01*
X12047682Y-18291484D02*
X12066729Y-18301008D01*
X12066729Y-18301008D02*
X12076253Y-18310531D01*
X12076253Y-18310531D02*
X12085777Y-18329579D01*
X12085777Y-18329579D02*
X12095301Y-18367674D01*
X12095301Y-18367674D02*
X12095301Y-18415293D01*
X12095301Y-18415293D02*
X12085777Y-18453389D01*
X12085777Y-18453389D02*
X12076253Y-18472436D01*
X12076253Y-18472436D02*
X12066729Y-18481960D01*
X12066729Y-18481960D02*
X12047682Y-18491484D01*
X12047682Y-18491484D02*
X12028634Y-18491484D01*
X12028634Y-18491484D02*
X12009586Y-18481960D01*
X12009586Y-18481960D02*
X12000063Y-18472436D01*
X12000063Y-18472436D02*
X11990539Y-18453389D01*
X11990539Y-18453389D02*
X11981015Y-18415293D01*
X11981015Y-18415293D02*
X11981015Y-18367674D01*
X11981015Y-18367674D02*
X11990539Y-18329579D01*
X11990539Y-18329579D02*
X12000063Y-18310531D01*
X12000063Y-18310531D02*
X12009586Y-18301008D01*
X12009586Y-18301008D02*
X12028634Y-18291484D01*
X12181015Y-18472436D02*
X12190539Y-18481960D01*
X12190539Y-18481960D02*
X12181015Y-18491484D01*
X12181015Y-18491484D02*
X12171491Y-18481960D01*
X12171491Y-18481960D02*
X12181015Y-18472436D01*
X12181015Y-18472436D02*
X12181015Y-18491484D01*
X12314348Y-18291484D02*
X12333396Y-18291484D01*
X12333396Y-18291484D02*
X12352444Y-18301008D01*
X12352444Y-18301008D02*
X12361967Y-18310531D01*
X12361967Y-18310531D02*
X12371491Y-18329579D01*
X12371491Y-18329579D02*
X12381015Y-18367674D01*
X12381015Y-18367674D02*
X12381015Y-18415293D01*
X12381015Y-18415293D02*
X12371491Y-18453389D01*
X12371491Y-18453389D02*
X12361967Y-18472436D01*
X12361967Y-18472436D02*
X12352444Y-18481960D01*
X12352444Y-18481960D02*
X12333396Y-18491484D01*
X12333396Y-18491484D02*
X12314348Y-18491484D01*
X12314348Y-18491484D02*
X12295301Y-18481960D01*
X12295301Y-18481960D02*
X12285777Y-18472436D01*
X12285777Y-18472436D02*
X12276253Y-18453389D01*
X12276253Y-18453389D02*
X12266729Y-18415293D01*
X12266729Y-18415293D02*
X12266729Y-18367674D01*
X12266729Y-18367674D02*
X12276253Y-18329579D01*
X12276253Y-18329579D02*
X12285777Y-18310531D01*
X12285777Y-18310531D02*
X12295301Y-18301008D01*
X12295301Y-18301008D02*
X12314348Y-18291484D01*
X12561967Y-18291484D02*
X12466729Y-18291484D01*
X12466729Y-18291484D02*
X12457206Y-18386722D01*
X12457206Y-18386722D02*
X12466729Y-18377198D01*
X12466729Y-18377198D02*
X12485777Y-18367674D01*
X12485777Y-18367674D02*
X12533396Y-18367674D01*
X12533396Y-18367674D02*
X12552444Y-18377198D01*
X12552444Y-18377198D02*
X12561967Y-18386722D01*
X12561967Y-18386722D02*
X12571491Y-18405770D01*
X12571491Y-18405770D02*
X12571491Y-18453389D01*
X12571491Y-18453389D02*
X12561967Y-18472436D01*
X12561967Y-18472436D02*
X12552444Y-18481960D01*
X12552444Y-18481960D02*
X12533396Y-18491484D01*
X12533396Y-18491484D02*
X12485777Y-18491484D01*
X12485777Y-18491484D02*
X12466729Y-18481960D01*
X12466729Y-18481960D02*
X12457206Y-18472436D01*
X12666729Y-18491484D02*
X12704825Y-18491484D01*
X12704825Y-18491484D02*
X12723872Y-18481960D01*
X12723872Y-18481960D02*
X12733396Y-18472436D01*
X12733396Y-18472436D02*
X12752444Y-18443865D01*
X12752444Y-18443865D02*
X12761967Y-18405770D01*
X12761967Y-18405770D02*
X12761967Y-18329579D01*
X12761967Y-18329579D02*
X12752444Y-18310531D01*
X12752444Y-18310531D02*
X12742920Y-18301008D01*
X12742920Y-18301008D02*
X12723872Y-18291484D01*
X12723872Y-18291484D02*
X12685777Y-18291484D01*
X12685777Y-18291484D02*
X12666729Y-18301008D01*
X12666729Y-18301008D02*
X12657206Y-18310531D01*
X12657206Y-18310531D02*
X12647682Y-18329579D01*
X12647682Y-18329579D02*
X12647682Y-18377198D01*
X12647682Y-18377198D02*
X12657206Y-18396246D01*
X12657206Y-18396246D02*
X12666729Y-18405770D01*
X12666729Y-18405770D02*
X12685777Y-18415293D01*
X12685777Y-18415293D02*
X12723872Y-18415293D01*
X12723872Y-18415293D02*
X12742920Y-18405770D01*
X12742920Y-18405770D02*
X12752444Y-18396246D01*
X12752444Y-18396246D02*
X12761967Y-18377198D01*
X12876253Y-18377198D02*
X12857206Y-18367674D01*
X12857206Y-18367674D02*
X12847682Y-18358150D01*
X12847682Y-18358150D02*
X12838158Y-18339103D01*
X12838158Y-18339103D02*
X12838158Y-18329579D01*
X12838158Y-18329579D02*
X12847682Y-18310531D01*
X12847682Y-18310531D02*
X12857206Y-18301008D01*
X12857206Y-18301008D02*
X12876253Y-18291484D01*
X12876253Y-18291484D02*
X12914348Y-18291484D01*
X12914348Y-18291484D02*
X12933396Y-18301008D01*
X12933396Y-18301008D02*
X12942920Y-18310531D01*
X12942920Y-18310531D02*
X12952444Y-18329579D01*
X12952444Y-18329579D02*
X12952444Y-18339103D01*
X12952444Y-18339103D02*
X12942920Y-18358150D01*
X12942920Y-18358150D02*
X12933396Y-18367674D01*
X12933396Y-18367674D02*
X12914348Y-18377198D01*
X12914348Y-18377198D02*
X12876253Y-18377198D01*
X12876253Y-18377198D02*
X12857206Y-18386722D01*
X12857206Y-18386722D02*
X12847682Y-18396246D01*
X12847682Y-18396246D02*
X12838158Y-18415293D01*
X12838158Y-18415293D02*
X12838158Y-18453389D01*
X12838158Y-18453389D02*
X12847682Y-18472436D01*
X12847682Y-18472436D02*
X12857206Y-18481960D01*
X12857206Y-18481960D02*
X12876253Y-18491484D01*
X12876253Y-18491484D02*
X12914348Y-18491484D01*
X12914348Y-18491484D02*
X12933396Y-18481960D01*
X12933396Y-18481960D02*
X12942920Y-18472436D01*
X12942920Y-18472436D02*
X12952444Y-18453389D01*
X12952444Y-18453389D02*
X12952444Y-18415293D01*
X12952444Y-18415293D02*
X12942920Y-18396246D01*
X12942920Y-18396246D02*
X12933396Y-18386722D01*
X12933396Y-18386722D02*
X12914348Y-18377198D01*
X13028634Y-18291484D02*
X13028634Y-18329579D01*
X13104825Y-18291484D02*
X13104825Y-18329579D01*
X13400063Y-18567674D02*
X13390539Y-18558150D01*
X13390539Y-18558150D02*
X13371491Y-18529579D01*
X13371491Y-18529579D02*
X13361968Y-18510531D01*
X13361968Y-18510531D02*
X13352444Y-18481960D01*
X13352444Y-18481960D02*
X13342920Y-18434341D01*
X13342920Y-18434341D02*
X13342920Y-18396246D01*
X13342920Y-18396246D02*
X13352444Y-18348627D01*
X13352444Y-18348627D02*
X13361968Y-18320055D01*
X13361968Y-18320055D02*
X13371491Y-18301008D01*
X13371491Y-18301008D02*
X13390539Y-18272436D01*
X13390539Y-18272436D02*
X13400063Y-18262912D01*
X13466729Y-18310531D02*
X13476253Y-18301008D01*
X13476253Y-18301008D02*
X13495301Y-18291484D01*
X13495301Y-18291484D02*
X13542920Y-18291484D01*
X13542920Y-18291484D02*
X13561968Y-18301008D01*
X13561968Y-18301008D02*
X13571491Y-18310531D01*
X13571491Y-18310531D02*
X13581015Y-18329579D01*
X13581015Y-18329579D02*
X13581015Y-18348627D01*
X13581015Y-18348627D02*
X13571491Y-18377198D01*
X13571491Y-18377198D02*
X13457206Y-18491484D01*
X13457206Y-18491484D02*
X13581015Y-18491484D01*
X13819110Y-18491484D02*
X13819110Y-18291484D01*
X13904825Y-18491484D02*
X13904825Y-18386722D01*
X13904825Y-18386722D02*
X13895301Y-18367674D01*
X13895301Y-18367674D02*
X13876253Y-18358150D01*
X13876253Y-18358150D02*
X13847682Y-18358150D01*
X13847682Y-18358150D02*
X13828634Y-18367674D01*
X13828634Y-18367674D02*
X13819110Y-18377198D01*
X14028634Y-18491484D02*
X14009587Y-18481960D01*
X14009587Y-18481960D02*
X14000063Y-18472436D01*
X14000063Y-18472436D02*
X13990539Y-18453389D01*
X13990539Y-18453389D02*
X13990539Y-18396246D01*
X13990539Y-18396246D02*
X14000063Y-18377198D01*
X14000063Y-18377198D02*
X14009587Y-18367674D01*
X14009587Y-18367674D02*
X14028634Y-18358150D01*
X14028634Y-18358150D02*
X14057206Y-18358150D01*
X14057206Y-18358150D02*
X14076253Y-18367674D01*
X14076253Y-18367674D02*
X14085777Y-18377198D01*
X14085777Y-18377198D02*
X14095301Y-18396246D01*
X14095301Y-18396246D02*
X14095301Y-18453389D01*
X14095301Y-18453389D02*
X14085777Y-18472436D01*
X14085777Y-18472436D02*
X14076253Y-18481960D01*
X14076253Y-18481960D02*
X14057206Y-18491484D01*
X14057206Y-18491484D02*
X14028634Y-18491484D01*
X14209587Y-18491484D02*
X14190539Y-18481960D01*
X14190539Y-18481960D02*
X14181015Y-18462912D01*
X14181015Y-18462912D02*
X14181015Y-18291484D01*
X14361968Y-18481960D02*
X14342920Y-18491484D01*
X14342920Y-18491484D02*
X14304825Y-18491484D01*
X14304825Y-18491484D02*
X14285777Y-18481960D01*
X14285777Y-18481960D02*
X14276253Y-18462912D01*
X14276253Y-18462912D02*
X14276253Y-18386722D01*
X14276253Y-18386722D02*
X14285777Y-18367674D01*
X14285777Y-18367674D02*
X14304825Y-18358150D01*
X14304825Y-18358150D02*
X14342920Y-18358150D01*
X14342920Y-18358150D02*
X14361968Y-18367674D01*
X14361968Y-18367674D02*
X14371491Y-18386722D01*
X14371491Y-18386722D02*
X14371491Y-18405770D01*
X14371491Y-18405770D02*
X14276253Y-18424817D01*
X14447682Y-18481960D02*
X14466730Y-18491484D01*
X14466730Y-18491484D02*
X14504825Y-18491484D01*
X14504825Y-18491484D02*
X14523872Y-18481960D01*
X14523872Y-18481960D02*
X14533396Y-18462912D01*
X14533396Y-18462912D02*
X14533396Y-18453389D01*
X14533396Y-18453389D02*
X14523872Y-18434341D01*
X14523872Y-18434341D02*
X14504825Y-18424817D01*
X14504825Y-18424817D02*
X14476253Y-18424817D01*
X14476253Y-18424817D02*
X14457206Y-18415293D01*
X14457206Y-18415293D02*
X14447682Y-18396246D01*
X14447682Y-18396246D02*
X14447682Y-18386722D01*
X14447682Y-18386722D02*
X14457206Y-18367674D01*
X14457206Y-18367674D02*
X14476253Y-18358150D01*
X14476253Y-18358150D02*
X14504825Y-18358150D01*
X14504825Y-18358150D02*
X14523872Y-18367674D01*
X14600063Y-18567674D02*
X14609587Y-18558150D01*
X14609587Y-18558150D02*
X14628634Y-18529579D01*
X14628634Y-18529579D02*
X14638158Y-18510531D01*
X14638158Y-18510531D02*
X14647682Y-18481960D01*
X14647682Y-18481960D02*
X14657206Y-18434341D01*
X14657206Y-18434341D02*
X14657206Y-18396246D01*
X14657206Y-18396246D02*
X14647682Y-18348627D01*
X14647682Y-18348627D02*
X14638158Y-18320055D01*
X14638158Y-18320055D02*
X14628634Y-18301008D01*
X14628634Y-18301008D02*
X14609587Y-18272436D01*
X14609587Y-18272436D02*
X14600063Y-18262912D01*
M02*
