G04 #@! TF.GenerationSoftware,KiCad,Pcbnew,7.0.10*
G04 #@! TF.CreationDate,2024-04-13T19:06:11+02:00*
G04 #@! TF.ProjectId,RocketBoard,526f636b-6574-4426-9f61-72642e6b6963,rev?*
G04 #@! TF.SameCoordinates,Original*
G04 #@! TF.FileFunction,Legend,Bot*
G04 #@! TF.FilePolarity,Positive*
%FSLAX46Y46*%
G04 Gerber Fmt 4.6, Leading zero omitted, Abs format (unit mm)*
G04 Created by KiCad (PCBNEW 7.0.10) date 2024-04-13 19:06:11*
%MOMM*%
%LPD*%
G01*
G04 APERTURE LIST*
G04 Aperture macros list*
%AMRoundRect*
0 Rectangle with rounded corners*
0 $1 Rounding radius*
0 $2 $3 $4 $5 $6 $7 $8 $9 X,Y pos of 4 corners*
0 Add a 4 corners polygon primitive as box body*
4,1,4,$2,$3,$4,$5,$6,$7,$8,$9,$2,$3,0*
0 Add four circle primitives for the rounded corners*
1,1,$1+$1,$2,$3*
1,1,$1+$1,$4,$5*
1,1,$1+$1,$6,$7*
1,1,$1+$1,$8,$9*
0 Add four rect primitives between the rounded corners*
20,1,$1+$1,$2,$3,$4,$5,0*
20,1,$1+$1,$4,$5,$6,$7,0*
20,1,$1+$1,$6,$7,$8,$9,0*
20,1,$1+$1,$8,$9,$2,$3,0*%
G04 Aperture macros list end*
%ADD10C,0.150000*%
%ADD11C,0.300000*%
%ADD12C,0.120000*%
%ADD13O,1.700000X1.700000*%
%ADD14R,1.700000X1.700000*%
%ADD15C,3.000000*%
%ADD16R,3.000000X3.000000*%
%ADD17R,2.000000X2.000000*%
%ADD18C,2.000000*%
%ADD19R,1.300000X1.300000*%
%ADD20C,1.300000*%
%ADD21RoundRect,0.250000X-0.725000X0.600000X-0.725000X-0.600000X0.725000X-0.600000X0.725000X0.600000X0*%
%ADD22O,1.950000X1.700000*%
%ADD23O,1.800000X1.800000*%
%ADD24O,1.500000X1.500000*%
%ADD25C,2.200000*%
%ADD26RoundRect,0.102000X0.762000X0.762000X-0.762000X0.762000X-0.762000X-0.762000X0.762000X-0.762000X0*%
%ADD27O,3.252000X1.728000*%
%ADD28C,1.800000*%
%ADD29R,1.800000X1.800000*%
%ADD30C,1.600000*%
%ADD31O,1.600000X1.600000*%
%ADD32RoundRect,0.102000X-0.990000X-0.990000X0.990000X-0.990000X0.990000X0.990000X-0.990000X0.990000X0*%
%ADD33C,2.184000*%
%ADD34C,2.139000*%
%ADD35C,1.676400*%
%ADD36O,1.905000X2.000000*%
%ADD37R,1.905000X2.000000*%
%ADD38O,3.500000X3.500000*%
G04 APERTURE END LIST*
D10*
X140462000Y-75184000D02*
X127889000Y-75184000D01*
X127889000Y-91059000D01*
X140462000Y-91059000D01*
X140462000Y-75184000D01*
X98560000Y-33180300D02*
X122560000Y-33180300D01*
X122560000Y-77005700D01*
X98560000Y-77005700D01*
X98560000Y-33180300D01*
D11*
X136742335Y-147292066D02*
X136742335Y-145892066D01*
X136742335Y-145892066D02*
X136275669Y-146892066D01*
X136275669Y-146892066D02*
X135809002Y-145892066D01*
X135809002Y-145892066D02*
X135809002Y-147292066D01*
X134542335Y-147292066D02*
X134542335Y-146558733D01*
X134542335Y-146558733D02*
X134609002Y-146425400D01*
X134609002Y-146425400D02*
X134742335Y-146358733D01*
X134742335Y-146358733D02*
X135009002Y-146358733D01*
X135009002Y-146358733D02*
X135142335Y-146425400D01*
X134542335Y-147225400D02*
X134675669Y-147292066D01*
X134675669Y-147292066D02*
X135009002Y-147292066D01*
X135009002Y-147292066D02*
X135142335Y-147225400D01*
X135142335Y-147225400D02*
X135209002Y-147092066D01*
X135209002Y-147092066D02*
X135209002Y-146958733D01*
X135209002Y-146958733D02*
X135142335Y-146825400D01*
X135142335Y-146825400D02*
X135009002Y-146758733D01*
X135009002Y-146758733D02*
X134675669Y-146758733D01*
X134675669Y-146758733D02*
X134542335Y-146692066D01*
X133275668Y-147292066D02*
X133275668Y-145892066D01*
X133275668Y-147225400D02*
X133409002Y-147292066D01*
X133409002Y-147292066D02*
X133675668Y-147292066D01*
X133675668Y-147292066D02*
X133809002Y-147225400D01*
X133809002Y-147225400D02*
X133875668Y-147158733D01*
X133875668Y-147158733D02*
X133942335Y-147025400D01*
X133942335Y-147025400D02*
X133942335Y-146625400D01*
X133942335Y-146625400D02*
X133875668Y-146492066D01*
X133875668Y-146492066D02*
X133809002Y-146425400D01*
X133809002Y-146425400D02*
X133675668Y-146358733D01*
X133675668Y-146358733D02*
X133409002Y-146358733D01*
X133409002Y-146358733D02*
X133275668Y-146425400D01*
X132075668Y-147225400D02*
X132209001Y-147292066D01*
X132209001Y-147292066D02*
X132475668Y-147292066D01*
X132475668Y-147292066D02*
X132609001Y-147225400D01*
X132609001Y-147225400D02*
X132675668Y-147092066D01*
X132675668Y-147092066D02*
X132675668Y-146558733D01*
X132675668Y-146558733D02*
X132609001Y-146425400D01*
X132609001Y-146425400D02*
X132475668Y-146358733D01*
X132475668Y-146358733D02*
X132209001Y-146358733D01*
X132209001Y-146358733D02*
X132075668Y-146425400D01*
X132075668Y-146425400D02*
X132009001Y-146558733D01*
X132009001Y-146558733D02*
X132009001Y-146692066D01*
X132009001Y-146692066D02*
X132675668Y-146825400D01*
X130342334Y-147292066D02*
X130342334Y-146358733D01*
X130342334Y-145892066D02*
X130409001Y-145958733D01*
X130409001Y-145958733D02*
X130342334Y-146025400D01*
X130342334Y-146025400D02*
X130275668Y-145958733D01*
X130275668Y-145958733D02*
X130342334Y-145892066D01*
X130342334Y-145892066D02*
X130342334Y-146025400D01*
X129675667Y-146358733D02*
X129675667Y-147292066D01*
X129675667Y-146492066D02*
X129609001Y-146425400D01*
X129609001Y-146425400D02*
X129475667Y-146358733D01*
X129475667Y-146358733D02*
X129275667Y-146358733D01*
X129275667Y-146358733D02*
X129142334Y-146425400D01*
X129142334Y-146425400D02*
X129075667Y-146558733D01*
X129075667Y-146558733D02*
X129075667Y-147292066D01*
X126742333Y-147225400D02*
X126875667Y-147292066D01*
X126875667Y-147292066D02*
X127142333Y-147292066D01*
X127142333Y-147292066D02*
X127275667Y-147225400D01*
X127275667Y-147225400D02*
X127342333Y-147158733D01*
X127342333Y-147158733D02*
X127409000Y-147025400D01*
X127409000Y-147025400D02*
X127409000Y-146625400D01*
X127409000Y-146625400D02*
X127342333Y-146492066D01*
X127342333Y-146492066D02*
X127275667Y-146425400D01*
X127275667Y-146425400D02*
X127142333Y-146358733D01*
X127142333Y-146358733D02*
X126875667Y-146358733D01*
X126875667Y-146358733D02*
X126742333Y-146425400D01*
X125942333Y-147292066D02*
X126075667Y-147225400D01*
X126075667Y-147225400D02*
X126142333Y-147158733D01*
X126142333Y-147158733D02*
X126209000Y-147025400D01*
X126209000Y-147025400D02*
X126209000Y-146625400D01*
X126209000Y-146625400D02*
X126142333Y-146492066D01*
X126142333Y-146492066D02*
X126075667Y-146425400D01*
X126075667Y-146425400D02*
X125942333Y-146358733D01*
X125942333Y-146358733D02*
X125742333Y-146358733D01*
X125742333Y-146358733D02*
X125609000Y-146425400D01*
X125609000Y-146425400D02*
X125542333Y-146492066D01*
X125542333Y-146492066D02*
X125475667Y-146625400D01*
X125475667Y-146625400D02*
X125475667Y-147025400D01*
X125475667Y-147025400D02*
X125542333Y-147158733D01*
X125542333Y-147158733D02*
X125609000Y-147225400D01*
X125609000Y-147225400D02*
X125742333Y-147292066D01*
X125742333Y-147292066D02*
X125942333Y-147292066D01*
X124675666Y-147292066D02*
X124809000Y-147225400D01*
X124809000Y-147225400D02*
X124875666Y-147092066D01*
X124875666Y-147092066D02*
X124875666Y-145892066D01*
X123942333Y-147292066D02*
X124075667Y-147225400D01*
X124075667Y-147225400D02*
X124142333Y-147092066D01*
X124142333Y-147092066D02*
X124142333Y-145892066D01*
X122809000Y-147292066D02*
X122809000Y-146558733D01*
X122809000Y-146558733D02*
X122875667Y-146425400D01*
X122875667Y-146425400D02*
X123009000Y-146358733D01*
X123009000Y-146358733D02*
X123275667Y-146358733D01*
X123275667Y-146358733D02*
X123409000Y-146425400D01*
X122809000Y-147225400D02*
X122942334Y-147292066D01*
X122942334Y-147292066D02*
X123275667Y-147292066D01*
X123275667Y-147292066D02*
X123409000Y-147225400D01*
X123409000Y-147225400D02*
X123475667Y-147092066D01*
X123475667Y-147092066D02*
X123475667Y-146958733D01*
X123475667Y-146958733D02*
X123409000Y-146825400D01*
X123409000Y-146825400D02*
X123275667Y-146758733D01*
X123275667Y-146758733D02*
X122942334Y-146758733D01*
X122942334Y-146758733D02*
X122809000Y-146692066D01*
X122142333Y-147292066D02*
X122142333Y-145892066D01*
X122142333Y-146425400D02*
X122009000Y-146358733D01*
X122009000Y-146358733D02*
X121742333Y-146358733D01*
X121742333Y-146358733D02*
X121609000Y-146425400D01*
X121609000Y-146425400D02*
X121542333Y-146492066D01*
X121542333Y-146492066D02*
X121475667Y-146625400D01*
X121475667Y-146625400D02*
X121475667Y-147025400D01*
X121475667Y-147025400D02*
X121542333Y-147158733D01*
X121542333Y-147158733D02*
X121609000Y-147225400D01*
X121609000Y-147225400D02*
X121742333Y-147292066D01*
X121742333Y-147292066D02*
X122009000Y-147292066D01*
X122009000Y-147292066D02*
X122142333Y-147225400D01*
X120675666Y-147292066D02*
X120809000Y-147225400D01*
X120809000Y-147225400D02*
X120875666Y-147158733D01*
X120875666Y-147158733D02*
X120942333Y-147025400D01*
X120942333Y-147025400D02*
X120942333Y-146625400D01*
X120942333Y-146625400D02*
X120875666Y-146492066D01*
X120875666Y-146492066D02*
X120809000Y-146425400D01*
X120809000Y-146425400D02*
X120675666Y-146358733D01*
X120675666Y-146358733D02*
X120475666Y-146358733D01*
X120475666Y-146358733D02*
X120342333Y-146425400D01*
X120342333Y-146425400D02*
X120275666Y-146492066D01*
X120275666Y-146492066D02*
X120209000Y-146625400D01*
X120209000Y-146625400D02*
X120209000Y-147025400D01*
X120209000Y-147025400D02*
X120275666Y-147158733D01*
X120275666Y-147158733D02*
X120342333Y-147225400D01*
X120342333Y-147225400D02*
X120475666Y-147292066D01*
X120475666Y-147292066D02*
X120675666Y-147292066D01*
X119608999Y-147292066D02*
X119608999Y-146358733D01*
X119608999Y-146625400D02*
X119542333Y-146492066D01*
X119542333Y-146492066D02*
X119475666Y-146425400D01*
X119475666Y-146425400D02*
X119342333Y-146358733D01*
X119342333Y-146358733D02*
X119208999Y-146358733D01*
X118142332Y-147292066D02*
X118142332Y-146558733D01*
X118142332Y-146558733D02*
X118208999Y-146425400D01*
X118208999Y-146425400D02*
X118342332Y-146358733D01*
X118342332Y-146358733D02*
X118608999Y-146358733D01*
X118608999Y-146358733D02*
X118742332Y-146425400D01*
X118142332Y-147225400D02*
X118275666Y-147292066D01*
X118275666Y-147292066D02*
X118608999Y-147292066D01*
X118608999Y-147292066D02*
X118742332Y-147225400D01*
X118742332Y-147225400D02*
X118808999Y-147092066D01*
X118808999Y-147092066D02*
X118808999Y-146958733D01*
X118808999Y-146958733D02*
X118742332Y-146825400D01*
X118742332Y-146825400D02*
X118608999Y-146758733D01*
X118608999Y-146758733D02*
X118275666Y-146758733D01*
X118275666Y-146758733D02*
X118142332Y-146692066D01*
X117675665Y-146358733D02*
X117142332Y-146358733D01*
X117475665Y-145892066D02*
X117475665Y-147092066D01*
X117475665Y-147092066D02*
X117408999Y-147225400D01*
X117408999Y-147225400D02*
X117275665Y-147292066D01*
X117275665Y-147292066D02*
X117142332Y-147292066D01*
X116675665Y-147292066D02*
X116675665Y-146358733D01*
X116675665Y-145892066D02*
X116742332Y-145958733D01*
X116742332Y-145958733D02*
X116675665Y-146025400D01*
X116675665Y-146025400D02*
X116608999Y-145958733D01*
X116608999Y-145958733D02*
X116675665Y-145892066D01*
X116675665Y-145892066D02*
X116675665Y-146025400D01*
X115808998Y-147292066D02*
X115942332Y-147225400D01*
X115942332Y-147225400D02*
X116008998Y-147158733D01*
X116008998Y-147158733D02*
X116075665Y-147025400D01*
X116075665Y-147025400D02*
X116075665Y-146625400D01*
X116075665Y-146625400D02*
X116008998Y-146492066D01*
X116008998Y-146492066D02*
X115942332Y-146425400D01*
X115942332Y-146425400D02*
X115808998Y-146358733D01*
X115808998Y-146358733D02*
X115608998Y-146358733D01*
X115608998Y-146358733D02*
X115475665Y-146425400D01*
X115475665Y-146425400D02*
X115408998Y-146492066D01*
X115408998Y-146492066D02*
X115342332Y-146625400D01*
X115342332Y-146625400D02*
X115342332Y-147025400D01*
X115342332Y-147025400D02*
X115408998Y-147158733D01*
X115408998Y-147158733D02*
X115475665Y-147225400D01*
X115475665Y-147225400D02*
X115608998Y-147292066D01*
X115608998Y-147292066D02*
X115808998Y-147292066D01*
X114742331Y-146358733D02*
X114742331Y-147292066D01*
X114742331Y-146492066D02*
X114675665Y-146425400D01*
X114675665Y-146425400D02*
X114542331Y-146358733D01*
X114542331Y-146358733D02*
X114342331Y-146358733D01*
X114342331Y-146358733D02*
X114208998Y-146425400D01*
X114208998Y-146425400D02*
X114142331Y-146558733D01*
X114142331Y-146558733D02*
X114142331Y-147292066D01*
X112542331Y-146358733D02*
X112275664Y-147292066D01*
X112275664Y-147292066D02*
X112008997Y-146625400D01*
X112008997Y-146625400D02*
X111742331Y-147292066D01*
X111742331Y-147292066D02*
X111475664Y-146358733D01*
X110942330Y-147292066D02*
X110942330Y-146358733D01*
X110942330Y-145892066D02*
X111008997Y-145958733D01*
X111008997Y-145958733D02*
X110942330Y-146025400D01*
X110942330Y-146025400D02*
X110875664Y-145958733D01*
X110875664Y-145958733D02*
X110942330Y-145892066D01*
X110942330Y-145892066D02*
X110942330Y-146025400D01*
X110475663Y-146358733D02*
X109942330Y-146358733D01*
X110275663Y-145892066D02*
X110275663Y-147092066D01*
X110275663Y-147092066D02*
X110208997Y-147225400D01*
X110208997Y-147225400D02*
X110075663Y-147292066D01*
X110075663Y-147292066D02*
X109942330Y-147292066D01*
X109475663Y-147292066D02*
X109475663Y-145892066D01*
X108875663Y-147292066D02*
X108875663Y-146558733D01*
X108875663Y-146558733D02*
X108942330Y-146425400D01*
X108942330Y-146425400D02*
X109075663Y-146358733D01*
X109075663Y-146358733D02*
X109275663Y-146358733D01*
X109275663Y-146358733D02*
X109408997Y-146425400D01*
X109408997Y-146425400D02*
X109475663Y-146492066D01*
X140275669Y-149479400D02*
X140075669Y-149546066D01*
X140075669Y-149546066D02*
X139742336Y-149546066D01*
X139742336Y-149546066D02*
X139609002Y-149479400D01*
X139609002Y-149479400D02*
X139542336Y-149412733D01*
X139542336Y-149412733D02*
X139475669Y-149279400D01*
X139475669Y-149279400D02*
X139475669Y-149146066D01*
X139475669Y-149146066D02*
X139542336Y-149012733D01*
X139542336Y-149012733D02*
X139609002Y-148946066D01*
X139609002Y-148946066D02*
X139742336Y-148879400D01*
X139742336Y-148879400D02*
X140009002Y-148812733D01*
X140009002Y-148812733D02*
X140142336Y-148746066D01*
X140142336Y-148746066D02*
X140209002Y-148679400D01*
X140209002Y-148679400D02*
X140275669Y-148546066D01*
X140275669Y-148546066D02*
X140275669Y-148412733D01*
X140275669Y-148412733D02*
X140209002Y-148279400D01*
X140209002Y-148279400D02*
X140142336Y-148212733D01*
X140142336Y-148212733D02*
X140009002Y-148146066D01*
X140009002Y-148146066D02*
X139675669Y-148146066D01*
X139675669Y-148146066D02*
X139475669Y-148212733D01*
X138875669Y-149546066D02*
X138875669Y-148612733D01*
X138875669Y-148146066D02*
X138942336Y-148212733D01*
X138942336Y-148212733D02*
X138875669Y-148279400D01*
X138875669Y-148279400D02*
X138809003Y-148212733D01*
X138809003Y-148212733D02*
X138875669Y-148146066D01*
X138875669Y-148146066D02*
X138875669Y-148279400D01*
X138209002Y-149546066D02*
X138209002Y-148612733D01*
X138209002Y-148746066D02*
X138142336Y-148679400D01*
X138142336Y-148679400D02*
X138009002Y-148612733D01*
X138009002Y-148612733D02*
X137809002Y-148612733D01*
X137809002Y-148612733D02*
X137675669Y-148679400D01*
X137675669Y-148679400D02*
X137609002Y-148812733D01*
X137609002Y-148812733D02*
X137609002Y-149546066D01*
X137609002Y-148812733D02*
X137542336Y-148679400D01*
X137542336Y-148679400D02*
X137409002Y-148612733D01*
X137409002Y-148612733D02*
X137209002Y-148612733D01*
X137209002Y-148612733D02*
X137075669Y-148679400D01*
X137075669Y-148679400D02*
X137009002Y-148812733D01*
X137009002Y-148812733D02*
X137009002Y-149546066D01*
X136142335Y-149546066D02*
X136275669Y-149479400D01*
X136275669Y-149479400D02*
X136342335Y-149412733D01*
X136342335Y-149412733D02*
X136409002Y-149279400D01*
X136409002Y-149279400D02*
X136409002Y-148879400D01*
X136409002Y-148879400D02*
X136342335Y-148746066D01*
X136342335Y-148746066D02*
X136275669Y-148679400D01*
X136275669Y-148679400D02*
X136142335Y-148612733D01*
X136142335Y-148612733D02*
X135942335Y-148612733D01*
X135942335Y-148612733D02*
X135809002Y-148679400D01*
X135809002Y-148679400D02*
X135742335Y-148746066D01*
X135742335Y-148746066D02*
X135675669Y-148879400D01*
X135675669Y-148879400D02*
X135675669Y-149279400D01*
X135675669Y-149279400D02*
X135742335Y-149412733D01*
X135742335Y-149412733D02*
X135809002Y-149479400D01*
X135809002Y-149479400D02*
X135942335Y-149546066D01*
X135942335Y-149546066D02*
X136142335Y-149546066D01*
X135075668Y-148612733D02*
X135075668Y-149546066D01*
X135075668Y-148746066D02*
X135009002Y-148679400D01*
X135009002Y-148679400D02*
X134875668Y-148612733D01*
X134875668Y-148612733D02*
X134675668Y-148612733D01*
X134675668Y-148612733D02*
X134542335Y-148679400D01*
X134542335Y-148679400D02*
X134475668Y-148812733D01*
X134475668Y-148812733D02*
X134475668Y-149546066D01*
X133275668Y-149479400D02*
X133409001Y-149546066D01*
X133409001Y-149546066D02*
X133675668Y-149546066D01*
X133675668Y-149546066D02*
X133809001Y-149479400D01*
X133809001Y-149479400D02*
X133875668Y-149346066D01*
X133875668Y-149346066D02*
X133875668Y-148812733D01*
X133875668Y-148812733D02*
X133809001Y-148679400D01*
X133809001Y-148679400D02*
X133675668Y-148612733D01*
X133675668Y-148612733D02*
X133409001Y-148612733D01*
X133409001Y-148612733D02*
X133275668Y-148679400D01*
X133275668Y-148679400D02*
X133209001Y-148812733D01*
X133209001Y-148812733D02*
X133209001Y-148946066D01*
X133209001Y-148946066D02*
X133875668Y-149079400D01*
X130742334Y-149412733D02*
X130809001Y-149479400D01*
X130809001Y-149479400D02*
X131009001Y-149546066D01*
X131009001Y-149546066D02*
X131142334Y-149546066D01*
X131142334Y-149546066D02*
X131342334Y-149479400D01*
X131342334Y-149479400D02*
X131475668Y-149346066D01*
X131475668Y-149346066D02*
X131542334Y-149212733D01*
X131542334Y-149212733D02*
X131609001Y-148946066D01*
X131609001Y-148946066D02*
X131609001Y-148746066D01*
X131609001Y-148746066D02*
X131542334Y-148479400D01*
X131542334Y-148479400D02*
X131475668Y-148346066D01*
X131475668Y-148346066D02*
X131342334Y-148212733D01*
X131342334Y-148212733D02*
X131142334Y-148146066D01*
X131142334Y-148146066D02*
X131009001Y-148146066D01*
X131009001Y-148146066D02*
X130809001Y-148212733D01*
X130809001Y-148212733D02*
X130742334Y-148279400D01*
X129542334Y-149546066D02*
X129542334Y-148812733D01*
X129542334Y-148812733D02*
X129609001Y-148679400D01*
X129609001Y-148679400D02*
X129742334Y-148612733D01*
X129742334Y-148612733D02*
X130009001Y-148612733D01*
X130009001Y-148612733D02*
X130142334Y-148679400D01*
X129542334Y-149479400D02*
X129675668Y-149546066D01*
X129675668Y-149546066D02*
X130009001Y-149546066D01*
X130009001Y-149546066D02*
X130142334Y-149479400D01*
X130142334Y-149479400D02*
X130209001Y-149346066D01*
X130209001Y-149346066D02*
X130209001Y-149212733D01*
X130209001Y-149212733D02*
X130142334Y-149079400D01*
X130142334Y-149079400D02*
X130009001Y-149012733D01*
X130009001Y-149012733D02*
X129675668Y-149012733D01*
X129675668Y-149012733D02*
X129542334Y-148946066D01*
X128875667Y-149546066D02*
X128875667Y-148612733D01*
X128875667Y-148879400D02*
X128809001Y-148746066D01*
X128809001Y-148746066D02*
X128742334Y-148679400D01*
X128742334Y-148679400D02*
X128609001Y-148612733D01*
X128609001Y-148612733D02*
X128475667Y-148612733D01*
X127409000Y-148612733D02*
X127409000Y-149746066D01*
X127409000Y-149746066D02*
X127475667Y-149879400D01*
X127475667Y-149879400D02*
X127542334Y-149946066D01*
X127542334Y-149946066D02*
X127675667Y-150012733D01*
X127675667Y-150012733D02*
X127875667Y-150012733D01*
X127875667Y-150012733D02*
X128009000Y-149946066D01*
X127409000Y-149479400D02*
X127542334Y-149546066D01*
X127542334Y-149546066D02*
X127809000Y-149546066D01*
X127809000Y-149546066D02*
X127942334Y-149479400D01*
X127942334Y-149479400D02*
X128009000Y-149412733D01*
X128009000Y-149412733D02*
X128075667Y-149279400D01*
X128075667Y-149279400D02*
X128075667Y-148879400D01*
X128075667Y-148879400D02*
X128009000Y-148746066D01*
X128009000Y-148746066D02*
X127942334Y-148679400D01*
X127942334Y-148679400D02*
X127809000Y-148612733D01*
X127809000Y-148612733D02*
X127542334Y-148612733D01*
X127542334Y-148612733D02*
X127409000Y-148679400D01*
X126742333Y-148612733D02*
X126742333Y-149546066D01*
X126742333Y-148746066D02*
X126675667Y-148679400D01*
X126675667Y-148679400D02*
X126542333Y-148612733D01*
X126542333Y-148612733D02*
X126342333Y-148612733D01*
X126342333Y-148612733D02*
X126209000Y-148679400D01*
X126209000Y-148679400D02*
X126142333Y-148812733D01*
X126142333Y-148812733D02*
X126142333Y-149546066D01*
X125475666Y-149546066D02*
X125475666Y-148612733D01*
X125475666Y-148146066D02*
X125542333Y-148212733D01*
X125542333Y-148212733D02*
X125475666Y-148279400D01*
X125475666Y-148279400D02*
X125409000Y-148212733D01*
X125409000Y-148212733D02*
X125475666Y-148146066D01*
X125475666Y-148146066D02*
X125475666Y-148279400D01*
X124808999Y-148612733D02*
X124808999Y-149546066D01*
X124808999Y-148746066D02*
X124742333Y-148679400D01*
X124742333Y-148679400D02*
X124608999Y-148612733D01*
X124608999Y-148612733D02*
X124408999Y-148612733D01*
X124408999Y-148612733D02*
X124275666Y-148679400D01*
X124275666Y-148679400D02*
X124208999Y-148812733D01*
X124208999Y-148812733D02*
X124208999Y-149546066D01*
X121342332Y-149546066D02*
X121408999Y-149546066D01*
X121408999Y-149546066D02*
X121542332Y-149479400D01*
X121542332Y-149479400D02*
X121742332Y-149279400D01*
X121742332Y-149279400D02*
X122075665Y-148879400D01*
X122075665Y-148879400D02*
X122208999Y-148679400D01*
X122208999Y-148679400D02*
X122275665Y-148479400D01*
X122275665Y-148479400D02*
X122275665Y-148346066D01*
X122275665Y-148346066D02*
X122208999Y-148212733D01*
X122208999Y-148212733D02*
X122075665Y-148146066D01*
X122075665Y-148146066D02*
X122008999Y-148146066D01*
X122008999Y-148146066D02*
X121875665Y-148212733D01*
X121875665Y-148212733D02*
X121808999Y-148346066D01*
X121808999Y-148346066D02*
X121808999Y-148412733D01*
X121808999Y-148412733D02*
X121875665Y-148546066D01*
X121875665Y-148546066D02*
X121942332Y-148612733D01*
X121942332Y-148612733D02*
X122342332Y-148879400D01*
X122342332Y-148879400D02*
X122408999Y-148946066D01*
X122408999Y-148946066D02*
X122475665Y-149079400D01*
X122475665Y-149079400D02*
X122475665Y-149279400D01*
X122475665Y-149279400D02*
X122408999Y-149412733D01*
X122408999Y-149412733D02*
X122342332Y-149479400D01*
X122342332Y-149479400D02*
X122208999Y-149546066D01*
X122208999Y-149546066D02*
X122008999Y-149546066D01*
X122008999Y-149546066D02*
X121875665Y-149479400D01*
X121875665Y-149479400D02*
X121808999Y-149412733D01*
X121808999Y-149412733D02*
X121608999Y-149146066D01*
X121608999Y-149146066D02*
X121542332Y-148946066D01*
X121542332Y-148946066D02*
X121542332Y-148812733D01*
X119875665Y-148146066D02*
X119408999Y-149546066D01*
X119408999Y-149546066D02*
X118942332Y-148146066D01*
X118475665Y-149546066D02*
X118475665Y-148612733D01*
X118475665Y-148146066D02*
X118542332Y-148212733D01*
X118542332Y-148212733D02*
X118475665Y-148279400D01*
X118475665Y-148279400D02*
X118408999Y-148212733D01*
X118408999Y-148212733D02*
X118475665Y-148146066D01*
X118475665Y-148146066D02*
X118475665Y-148279400D01*
X118008998Y-148612733D02*
X117475665Y-148612733D01*
X117808998Y-148146066D02*
X117808998Y-149346066D01*
X117808998Y-149346066D02*
X117742332Y-149479400D01*
X117742332Y-149479400D02*
X117608998Y-149546066D01*
X117608998Y-149546066D02*
X117475665Y-149546066D01*
X117208998Y-148612733D02*
X116675665Y-148612733D01*
X117008998Y-148146066D02*
X117008998Y-149346066D01*
X117008998Y-149346066D02*
X116942332Y-149479400D01*
X116942332Y-149479400D02*
X116808998Y-149546066D01*
X116808998Y-149546066D02*
X116675665Y-149546066D01*
X116008998Y-149546066D02*
X116142332Y-149479400D01*
X116142332Y-149479400D02*
X116208998Y-149412733D01*
X116208998Y-149412733D02*
X116275665Y-149279400D01*
X116275665Y-149279400D02*
X116275665Y-148879400D01*
X116275665Y-148879400D02*
X116208998Y-148746066D01*
X116208998Y-148746066D02*
X116142332Y-148679400D01*
X116142332Y-148679400D02*
X116008998Y-148612733D01*
X116008998Y-148612733D02*
X115808998Y-148612733D01*
X115808998Y-148612733D02*
X115675665Y-148679400D01*
X115675665Y-148679400D02*
X115608998Y-148746066D01*
X115608998Y-148746066D02*
X115542332Y-148879400D01*
X115542332Y-148879400D02*
X115542332Y-149279400D01*
X115542332Y-149279400D02*
X115608998Y-149412733D01*
X115608998Y-149412733D02*
X115675665Y-149479400D01*
X115675665Y-149479400D02*
X115808998Y-149546066D01*
X115808998Y-149546066D02*
X116008998Y-149546066D01*
X114942331Y-149546066D02*
X114942331Y-148612733D01*
X114942331Y-148879400D02*
X114875665Y-148746066D01*
X114875665Y-148746066D02*
X114808998Y-148679400D01*
X114808998Y-148679400D02*
X114675665Y-148612733D01*
X114675665Y-148612733D02*
X114542331Y-148612733D01*
X114075664Y-149546066D02*
X114075664Y-148612733D01*
X114075664Y-148146066D02*
X114142331Y-148212733D01*
X114142331Y-148212733D02*
X114075664Y-148279400D01*
X114075664Y-148279400D02*
X114008998Y-148212733D01*
X114008998Y-148212733D02*
X114075664Y-148146066D01*
X114075664Y-148146066D02*
X114075664Y-148279400D01*
X113208997Y-149546066D02*
X113342331Y-149479400D01*
X113342331Y-149479400D02*
X113408997Y-149412733D01*
X113408997Y-149412733D02*
X113475664Y-149279400D01*
X113475664Y-149279400D02*
X113475664Y-148879400D01*
X113475664Y-148879400D02*
X113408997Y-148746066D01*
X113408997Y-148746066D02*
X113342331Y-148679400D01*
X113342331Y-148679400D02*
X113208997Y-148612733D01*
X113208997Y-148612733D02*
X113008997Y-148612733D01*
X113008997Y-148612733D02*
X112875664Y-148679400D01*
X112875664Y-148679400D02*
X112808997Y-148746066D01*
X112808997Y-148746066D02*
X112742331Y-148879400D01*
X112742331Y-148879400D02*
X112742331Y-149279400D01*
X112742331Y-149279400D02*
X112808997Y-149412733D01*
X112808997Y-149412733D02*
X112875664Y-149479400D01*
X112875664Y-149479400D02*
X113008997Y-149546066D01*
X113008997Y-149546066D02*
X113208997Y-149546066D01*
X111142330Y-149479400D02*
X110942330Y-149546066D01*
X110942330Y-149546066D02*
X110608997Y-149546066D01*
X110608997Y-149546066D02*
X110475663Y-149479400D01*
X110475663Y-149479400D02*
X110408997Y-149412733D01*
X110408997Y-149412733D02*
X110342330Y-149279400D01*
X110342330Y-149279400D02*
X110342330Y-149146066D01*
X110342330Y-149146066D02*
X110408997Y-149012733D01*
X110408997Y-149012733D02*
X110475663Y-148946066D01*
X110475663Y-148946066D02*
X110608997Y-148879400D01*
X110608997Y-148879400D02*
X110875663Y-148812733D01*
X110875663Y-148812733D02*
X111008997Y-148746066D01*
X111008997Y-148746066D02*
X111075663Y-148679400D01*
X111075663Y-148679400D02*
X111142330Y-148546066D01*
X111142330Y-148546066D02*
X111142330Y-148412733D01*
X111142330Y-148412733D02*
X111075663Y-148279400D01*
X111075663Y-148279400D02*
X111008997Y-148212733D01*
X111008997Y-148212733D02*
X110875663Y-148146066D01*
X110875663Y-148146066D02*
X110542330Y-148146066D01*
X110542330Y-148146066D02*
X110342330Y-148212733D01*
X109208997Y-149479400D02*
X109342330Y-149546066D01*
X109342330Y-149546066D02*
X109608997Y-149546066D01*
X109608997Y-149546066D02*
X109742330Y-149479400D01*
X109742330Y-149479400D02*
X109808997Y-149346066D01*
X109808997Y-149346066D02*
X109808997Y-148812733D01*
X109808997Y-148812733D02*
X109742330Y-148679400D01*
X109742330Y-148679400D02*
X109608997Y-148612733D01*
X109608997Y-148612733D02*
X109342330Y-148612733D01*
X109342330Y-148612733D02*
X109208997Y-148679400D01*
X109208997Y-148679400D02*
X109142330Y-148812733D01*
X109142330Y-148812733D02*
X109142330Y-148946066D01*
X109142330Y-148946066D02*
X109808997Y-149079400D01*
X107942330Y-149546066D02*
X107942330Y-148146066D01*
X107942330Y-149479400D02*
X108075664Y-149546066D01*
X108075664Y-149546066D02*
X108342330Y-149546066D01*
X108342330Y-149546066D02*
X108475664Y-149479400D01*
X108475664Y-149479400D02*
X108542330Y-149412733D01*
X108542330Y-149412733D02*
X108608997Y-149279400D01*
X108608997Y-149279400D02*
X108608997Y-148879400D01*
X108608997Y-148879400D02*
X108542330Y-148746066D01*
X108542330Y-148746066D02*
X108475664Y-148679400D01*
X108475664Y-148679400D02*
X108342330Y-148612733D01*
X108342330Y-148612733D02*
X108075664Y-148612733D01*
X108075664Y-148612733D02*
X107942330Y-148679400D01*
X106675663Y-149546066D02*
X106675663Y-148146066D01*
X106675663Y-149479400D02*
X106808997Y-149546066D01*
X106808997Y-149546066D02*
X107075663Y-149546066D01*
X107075663Y-149546066D02*
X107208997Y-149479400D01*
X107208997Y-149479400D02*
X107275663Y-149412733D01*
X107275663Y-149412733D02*
X107342330Y-149279400D01*
X107342330Y-149279400D02*
X107342330Y-148879400D01*
X107342330Y-148879400D02*
X107275663Y-148746066D01*
X107275663Y-148746066D02*
X107208997Y-148679400D01*
X107208997Y-148679400D02*
X107075663Y-148612733D01*
X107075663Y-148612733D02*
X106808997Y-148612733D01*
X106808997Y-148612733D02*
X106675663Y-148679400D01*
X105408996Y-149546066D02*
X105408996Y-148812733D01*
X105408996Y-148812733D02*
X105475663Y-148679400D01*
X105475663Y-148679400D02*
X105608996Y-148612733D01*
X105608996Y-148612733D02*
X105875663Y-148612733D01*
X105875663Y-148612733D02*
X106008996Y-148679400D01*
X105408996Y-149479400D02*
X105542330Y-149546066D01*
X105542330Y-149546066D02*
X105875663Y-149546066D01*
X105875663Y-149546066D02*
X106008996Y-149479400D01*
X106008996Y-149479400D02*
X106075663Y-149346066D01*
X106075663Y-149346066D02*
X106075663Y-149212733D01*
X106075663Y-149212733D02*
X106008996Y-149079400D01*
X106008996Y-149079400D02*
X105875663Y-149012733D01*
X105875663Y-149012733D02*
X105542330Y-149012733D01*
X105542330Y-149012733D02*
X105408996Y-148946066D01*
X145007600Y-142683339D02*
X144940933Y-142483339D01*
X144940933Y-142483339D02*
X144940933Y-142150006D01*
X144940933Y-142150006D02*
X145007600Y-142016672D01*
X145007600Y-142016672D02*
X145074266Y-141950006D01*
X145074266Y-141950006D02*
X145207600Y-141883339D01*
X145207600Y-141883339D02*
X145340933Y-141883339D01*
X145340933Y-141883339D02*
X145474266Y-141950006D01*
X145474266Y-141950006D02*
X145540933Y-142016672D01*
X145540933Y-142016672D02*
X145607600Y-142150006D01*
X145607600Y-142150006D02*
X145674266Y-142416672D01*
X145674266Y-142416672D02*
X145740933Y-142550006D01*
X145740933Y-142550006D02*
X145807600Y-142616672D01*
X145807600Y-142616672D02*
X145940933Y-142683339D01*
X145940933Y-142683339D02*
X146074266Y-142683339D01*
X146074266Y-142683339D02*
X146207600Y-142616672D01*
X146207600Y-142616672D02*
X146274266Y-142550006D01*
X146274266Y-142550006D02*
X146340933Y-142416672D01*
X146340933Y-142416672D02*
X146340933Y-142083339D01*
X146340933Y-142083339D02*
X146274266Y-141883339D01*
X144940933Y-141283339D02*
X146340933Y-141283339D01*
X145807600Y-141283339D02*
X145874266Y-141150006D01*
X145874266Y-141150006D02*
X145874266Y-140883339D01*
X145874266Y-140883339D02*
X145807600Y-140750006D01*
X145807600Y-140750006D02*
X145740933Y-140683339D01*
X145740933Y-140683339D02*
X145607600Y-140616673D01*
X145607600Y-140616673D02*
X145207600Y-140616673D01*
X145207600Y-140616673D02*
X145074266Y-140683339D01*
X145074266Y-140683339D02*
X145007600Y-140750006D01*
X145007600Y-140750006D02*
X144940933Y-140883339D01*
X144940933Y-140883339D02*
X144940933Y-141150006D01*
X144940933Y-141150006D02*
X145007600Y-141283339D01*
X144940933Y-140016672D02*
X145874266Y-140016672D01*
X146340933Y-140016672D02*
X146274266Y-140083339D01*
X146274266Y-140083339D02*
X146207600Y-140016672D01*
X146207600Y-140016672D02*
X146274266Y-139950006D01*
X146274266Y-139950006D02*
X146340933Y-140016672D01*
X146340933Y-140016672D02*
X146207600Y-140016672D01*
X144940933Y-139350005D02*
X145874266Y-139350005D01*
X145607600Y-139350005D02*
X145740933Y-139283339D01*
X145740933Y-139283339D02*
X145807600Y-139216672D01*
X145807600Y-139216672D02*
X145874266Y-139083339D01*
X145874266Y-139083339D02*
X145874266Y-138950005D01*
X144940933Y-138483338D02*
X145874266Y-138483338D01*
X145607600Y-138483338D02*
X145740933Y-138416672D01*
X145740933Y-138416672D02*
X145807600Y-138350005D01*
X145807600Y-138350005D02*
X145874266Y-138216672D01*
X145874266Y-138216672D02*
X145874266Y-138083338D01*
X144940933Y-137416671D02*
X145007600Y-137550005D01*
X145007600Y-137550005D02*
X145074266Y-137616671D01*
X145074266Y-137616671D02*
X145207600Y-137683338D01*
X145207600Y-137683338D02*
X145607600Y-137683338D01*
X145607600Y-137683338D02*
X145740933Y-137616671D01*
X145740933Y-137616671D02*
X145807600Y-137550005D01*
X145807600Y-137550005D02*
X145874266Y-137416671D01*
X145874266Y-137416671D02*
X145874266Y-137216671D01*
X145874266Y-137216671D02*
X145807600Y-137083338D01*
X145807600Y-137083338D02*
X145740933Y-137016671D01*
X145740933Y-137016671D02*
X145607600Y-136950005D01*
X145607600Y-136950005D02*
X145207600Y-136950005D01*
X145207600Y-136950005D02*
X145074266Y-137016671D01*
X145074266Y-137016671D02*
X145007600Y-137083338D01*
X145007600Y-137083338D02*
X144940933Y-137216671D01*
X144940933Y-137216671D02*
X144940933Y-137416671D01*
X145874266Y-134683337D02*
X144740933Y-134683337D01*
X144740933Y-134683337D02*
X144607600Y-134750004D01*
X144607600Y-134750004D02*
X144540933Y-134816671D01*
X144540933Y-134816671D02*
X144474266Y-134950004D01*
X144474266Y-134950004D02*
X144474266Y-135150004D01*
X144474266Y-135150004D02*
X144540933Y-135283337D01*
X145007600Y-134683337D02*
X144940933Y-134816671D01*
X144940933Y-134816671D02*
X144940933Y-135083337D01*
X144940933Y-135083337D02*
X145007600Y-135216671D01*
X145007600Y-135216671D02*
X145074266Y-135283337D01*
X145074266Y-135283337D02*
X145207600Y-135350004D01*
X145207600Y-135350004D02*
X145607600Y-135350004D01*
X145607600Y-135350004D02*
X145740933Y-135283337D01*
X145740933Y-135283337D02*
X145807600Y-135216671D01*
X145807600Y-135216671D02*
X145874266Y-135083337D01*
X145874266Y-135083337D02*
X145874266Y-134816671D01*
X145874266Y-134816671D02*
X145807600Y-134683337D01*
X145874266Y-133416670D02*
X144940933Y-133416670D01*
X145874266Y-134016670D02*
X145140933Y-134016670D01*
X145140933Y-134016670D02*
X145007600Y-133950004D01*
X145007600Y-133950004D02*
X144940933Y-133816670D01*
X144940933Y-133816670D02*
X144940933Y-133616670D01*
X144940933Y-133616670D02*
X145007600Y-133483337D01*
X145007600Y-133483337D02*
X145074266Y-133416670D01*
X144940933Y-132150003D02*
X145674266Y-132150003D01*
X145674266Y-132150003D02*
X145807600Y-132216670D01*
X145807600Y-132216670D02*
X145874266Y-132350003D01*
X145874266Y-132350003D02*
X145874266Y-132616670D01*
X145874266Y-132616670D02*
X145807600Y-132750003D01*
X145007600Y-132150003D02*
X144940933Y-132283337D01*
X144940933Y-132283337D02*
X144940933Y-132616670D01*
X144940933Y-132616670D02*
X145007600Y-132750003D01*
X145007600Y-132750003D02*
X145140933Y-132816670D01*
X145140933Y-132816670D02*
X145274266Y-132816670D01*
X145274266Y-132816670D02*
X145407600Y-132750003D01*
X145407600Y-132750003D02*
X145474266Y-132616670D01*
X145474266Y-132616670D02*
X145474266Y-132283337D01*
X145474266Y-132283337D02*
X145540933Y-132150003D01*
X144940933Y-131483336D02*
X145874266Y-131483336D01*
X145607600Y-131483336D02*
X145740933Y-131416670D01*
X145740933Y-131416670D02*
X145807600Y-131350003D01*
X145807600Y-131350003D02*
X145874266Y-131216670D01*
X145874266Y-131216670D02*
X145874266Y-131083336D01*
X144940933Y-130016669D02*
X146340933Y-130016669D01*
X145007600Y-130016669D02*
X144940933Y-130150003D01*
X144940933Y-130150003D02*
X144940933Y-130416669D01*
X144940933Y-130416669D02*
X145007600Y-130550003D01*
X145007600Y-130550003D02*
X145074266Y-130616669D01*
X145074266Y-130616669D02*
X145207600Y-130683336D01*
X145207600Y-130683336D02*
X145607600Y-130683336D01*
X145607600Y-130683336D02*
X145740933Y-130616669D01*
X145740933Y-130616669D02*
X145807600Y-130550003D01*
X145807600Y-130550003D02*
X145874266Y-130416669D01*
X145874266Y-130416669D02*
X145874266Y-130150003D01*
X145874266Y-130150003D02*
X145807600Y-130016669D01*
X144940933Y-128750002D02*
X145674266Y-128750002D01*
X145674266Y-128750002D02*
X145807600Y-128816669D01*
X145807600Y-128816669D02*
X145874266Y-128950002D01*
X145874266Y-128950002D02*
X145874266Y-129216669D01*
X145874266Y-129216669D02*
X145807600Y-129350002D01*
X145007600Y-128750002D02*
X144940933Y-128883336D01*
X144940933Y-128883336D02*
X144940933Y-129216669D01*
X144940933Y-129216669D02*
X145007600Y-129350002D01*
X145007600Y-129350002D02*
X145140933Y-129416669D01*
X145140933Y-129416669D02*
X145274266Y-129416669D01*
X145274266Y-129416669D02*
X145407600Y-129350002D01*
X145407600Y-129350002D02*
X145474266Y-129216669D01*
X145474266Y-129216669D02*
X145474266Y-128883336D01*
X145474266Y-128883336D02*
X145540933Y-128750002D01*
X145874266Y-126416668D02*
X144940933Y-126416668D01*
X145874266Y-127016668D02*
X145140933Y-127016668D01*
X145140933Y-127016668D02*
X145007600Y-126950002D01*
X145007600Y-126950002D02*
X144940933Y-126816668D01*
X144940933Y-126816668D02*
X144940933Y-126616668D01*
X144940933Y-126616668D02*
X145007600Y-126483335D01*
X145007600Y-126483335D02*
X145074266Y-126416668D01*
X145874266Y-125750001D02*
X144940933Y-125750001D01*
X145740933Y-125750001D02*
X145807600Y-125683335D01*
X145807600Y-125683335D02*
X145874266Y-125550001D01*
X145874266Y-125550001D02*
X145874266Y-125350001D01*
X145874266Y-125350001D02*
X145807600Y-125216668D01*
X145807600Y-125216668D02*
X145674266Y-125150001D01*
X145674266Y-125150001D02*
X144940933Y-125150001D01*
X145874266Y-123416667D02*
X144474266Y-123416667D01*
X145807600Y-123416667D02*
X145874266Y-123283334D01*
X145874266Y-123283334D02*
X145874266Y-123016667D01*
X145874266Y-123016667D02*
X145807600Y-122883334D01*
X145807600Y-122883334D02*
X145740933Y-122816667D01*
X145740933Y-122816667D02*
X145607600Y-122750001D01*
X145607600Y-122750001D02*
X145207600Y-122750001D01*
X145207600Y-122750001D02*
X145074266Y-122816667D01*
X145074266Y-122816667D02*
X145007600Y-122883334D01*
X145007600Y-122883334D02*
X144940933Y-123016667D01*
X144940933Y-123016667D02*
X144940933Y-123283334D01*
X144940933Y-123283334D02*
X145007600Y-123416667D01*
X144940933Y-121950000D02*
X145007600Y-122083334D01*
X145007600Y-122083334D02*
X145074266Y-122150000D01*
X145074266Y-122150000D02*
X145207600Y-122216667D01*
X145207600Y-122216667D02*
X145607600Y-122216667D01*
X145607600Y-122216667D02*
X145740933Y-122150000D01*
X145740933Y-122150000D02*
X145807600Y-122083334D01*
X145807600Y-122083334D02*
X145874266Y-121950000D01*
X145874266Y-121950000D02*
X145874266Y-121750000D01*
X145874266Y-121750000D02*
X145807600Y-121616667D01*
X145807600Y-121616667D02*
X145740933Y-121550000D01*
X145740933Y-121550000D02*
X145607600Y-121483334D01*
X145607600Y-121483334D02*
X145207600Y-121483334D01*
X145207600Y-121483334D02*
X145074266Y-121550000D01*
X145074266Y-121550000D02*
X145007600Y-121616667D01*
X145007600Y-121616667D02*
X144940933Y-121750000D01*
X144940933Y-121750000D02*
X144940933Y-121950000D01*
X146340933Y-120816667D02*
X146074266Y-120950000D01*
X145874266Y-119149999D02*
X144474266Y-119149999D01*
X145807600Y-119149999D02*
X145874266Y-119016666D01*
X145874266Y-119016666D02*
X145874266Y-118749999D01*
X145874266Y-118749999D02*
X145807600Y-118616666D01*
X145807600Y-118616666D02*
X145740933Y-118549999D01*
X145740933Y-118549999D02*
X145607600Y-118483333D01*
X145607600Y-118483333D02*
X145207600Y-118483333D01*
X145207600Y-118483333D02*
X145074266Y-118549999D01*
X145074266Y-118549999D02*
X145007600Y-118616666D01*
X145007600Y-118616666D02*
X144940933Y-118749999D01*
X144940933Y-118749999D02*
X144940933Y-119016666D01*
X144940933Y-119016666D02*
X145007600Y-119149999D01*
X144940933Y-117883332D02*
X145874266Y-117883332D01*
X146340933Y-117883332D02*
X146274266Y-117949999D01*
X146274266Y-117949999D02*
X146207600Y-117883332D01*
X146207600Y-117883332D02*
X146274266Y-117816666D01*
X146274266Y-117816666D02*
X146340933Y-117883332D01*
X146340933Y-117883332D02*
X146207600Y-117883332D01*
X145874266Y-116616665D02*
X144940933Y-116616665D01*
X145874266Y-117216665D02*
X145140933Y-117216665D01*
X145140933Y-117216665D02*
X145007600Y-117149999D01*
X145007600Y-117149999D02*
X144940933Y-117016665D01*
X144940933Y-117016665D02*
X144940933Y-116816665D01*
X144940933Y-116816665D02*
X145007600Y-116683332D01*
X145007600Y-116683332D02*
X145074266Y-116616665D01*
X146407600Y-117016665D02*
X146207600Y-116816665D01*
X144940933Y-114883331D02*
X145874266Y-114883331D01*
X146340933Y-114883331D02*
X146274266Y-114949998D01*
X146274266Y-114949998D02*
X146207600Y-114883331D01*
X146207600Y-114883331D02*
X146274266Y-114816665D01*
X146274266Y-114816665D02*
X146340933Y-114883331D01*
X146340933Y-114883331D02*
X146207600Y-114883331D01*
X145874266Y-114216664D02*
X144940933Y-114216664D01*
X145740933Y-114216664D02*
X145807600Y-114149998D01*
X145807600Y-114149998D02*
X145874266Y-114016664D01*
X145874266Y-114016664D02*
X145874266Y-113816664D01*
X145874266Y-113816664D02*
X145807600Y-113683331D01*
X145807600Y-113683331D02*
X145674266Y-113616664D01*
X145674266Y-113616664D02*
X144940933Y-113616664D01*
X144940933Y-111683330D02*
X145007600Y-111816664D01*
X145007600Y-111816664D02*
X145140933Y-111883330D01*
X145140933Y-111883330D02*
X146340933Y-111883330D01*
X144940933Y-110549997D02*
X145674266Y-110549997D01*
X145674266Y-110549997D02*
X145807600Y-110616664D01*
X145807600Y-110616664D02*
X145874266Y-110749997D01*
X145874266Y-110749997D02*
X145874266Y-111016664D01*
X145874266Y-111016664D02*
X145807600Y-111149997D01*
X145007600Y-110549997D02*
X144940933Y-110683331D01*
X144940933Y-110683331D02*
X144940933Y-111016664D01*
X144940933Y-111016664D02*
X145007600Y-111149997D01*
X145007600Y-111149997D02*
X145140933Y-111216664D01*
X145140933Y-111216664D02*
X145274266Y-111216664D01*
X145274266Y-111216664D02*
X145407600Y-111149997D01*
X145407600Y-111149997D02*
X145474266Y-111016664D01*
X145474266Y-111016664D02*
X145474266Y-110683331D01*
X145474266Y-110683331D02*
X145540933Y-110549997D01*
X144940933Y-108216663D02*
X146340933Y-108216663D01*
X145007600Y-108216663D02*
X144940933Y-108349997D01*
X144940933Y-108349997D02*
X144940933Y-108616663D01*
X144940933Y-108616663D02*
X145007600Y-108749997D01*
X145007600Y-108749997D02*
X145074266Y-108816663D01*
X145074266Y-108816663D02*
X145207600Y-108883330D01*
X145207600Y-108883330D02*
X145607600Y-108883330D01*
X145607600Y-108883330D02*
X145740933Y-108816663D01*
X145740933Y-108816663D02*
X145807600Y-108749997D01*
X145807600Y-108749997D02*
X145874266Y-108616663D01*
X145874266Y-108616663D02*
X145874266Y-108349997D01*
X145874266Y-108349997D02*
X145807600Y-108216663D01*
X145007600Y-107016663D02*
X144940933Y-107149996D01*
X144940933Y-107149996D02*
X144940933Y-107416663D01*
X144940933Y-107416663D02*
X145007600Y-107549996D01*
X145007600Y-107549996D02*
X145140933Y-107616663D01*
X145140933Y-107616663D02*
X145674266Y-107616663D01*
X145674266Y-107616663D02*
X145807600Y-107549996D01*
X145807600Y-107549996D02*
X145874266Y-107416663D01*
X145874266Y-107416663D02*
X145874266Y-107149996D01*
X145874266Y-107149996D02*
X145807600Y-107016663D01*
X145807600Y-107016663D02*
X145674266Y-106949996D01*
X145674266Y-106949996D02*
X145540933Y-106949996D01*
X145540933Y-106949996D02*
X145407600Y-107616663D01*
X144940933Y-106149996D02*
X145007600Y-106283330D01*
X145007600Y-106283330D02*
X145140933Y-106349996D01*
X145140933Y-106349996D02*
X146340933Y-106349996D01*
X145874266Y-104749996D02*
X145874266Y-104216663D01*
X146340933Y-104549996D02*
X145140933Y-104549996D01*
X145140933Y-104549996D02*
X145007600Y-104483330D01*
X145007600Y-104483330D02*
X144940933Y-104349996D01*
X144940933Y-104349996D02*
X144940933Y-104216663D01*
X145874266Y-103149996D02*
X144940933Y-103149996D01*
X145874266Y-103749996D02*
X145140933Y-103749996D01*
X145140933Y-103749996D02*
X145007600Y-103683330D01*
X145007600Y-103683330D02*
X144940933Y-103549996D01*
X144940933Y-103549996D02*
X144940933Y-103349996D01*
X144940933Y-103349996D02*
X145007600Y-103216663D01*
X145007600Y-103216663D02*
X145074266Y-103149996D01*
X144940933Y-102283329D02*
X145007600Y-102416663D01*
X145007600Y-102416663D02*
X145074266Y-102483329D01*
X145074266Y-102483329D02*
X145207600Y-102549996D01*
X145207600Y-102549996D02*
X145607600Y-102549996D01*
X145607600Y-102549996D02*
X145740933Y-102483329D01*
X145740933Y-102483329D02*
X145807600Y-102416663D01*
X145807600Y-102416663D02*
X145874266Y-102283329D01*
X145874266Y-102283329D02*
X145874266Y-102083329D01*
X145874266Y-102083329D02*
X145807600Y-101949996D01*
X145807600Y-101949996D02*
X145740933Y-101883329D01*
X145740933Y-101883329D02*
X145607600Y-101816663D01*
X145607600Y-101816663D02*
X145207600Y-101816663D01*
X145207600Y-101816663D02*
X145074266Y-101883329D01*
X145074266Y-101883329D02*
X145007600Y-101949996D01*
X145007600Y-101949996D02*
X144940933Y-102083329D01*
X144940933Y-102083329D02*
X144940933Y-102283329D01*
X144940933Y-100149995D02*
X146340933Y-100149995D01*
X145807600Y-100149995D02*
X145874266Y-100016662D01*
X145874266Y-100016662D02*
X145874266Y-99749995D01*
X145874266Y-99749995D02*
X145807600Y-99616662D01*
X145807600Y-99616662D02*
X145740933Y-99549995D01*
X145740933Y-99549995D02*
X145607600Y-99483329D01*
X145607600Y-99483329D02*
X145207600Y-99483329D01*
X145207600Y-99483329D02*
X145074266Y-99549995D01*
X145074266Y-99549995D02*
X145007600Y-99616662D01*
X145007600Y-99616662D02*
X144940933Y-99749995D01*
X144940933Y-99749995D02*
X144940933Y-100016662D01*
X144940933Y-100016662D02*
X145007600Y-100149995D01*
X144940933Y-98883328D02*
X145874266Y-98883328D01*
X146340933Y-98883328D02*
X146274266Y-98949995D01*
X146274266Y-98949995D02*
X146207600Y-98883328D01*
X146207600Y-98883328D02*
X146274266Y-98816662D01*
X146274266Y-98816662D02*
X146340933Y-98883328D01*
X146340933Y-98883328D02*
X146207600Y-98883328D01*
X145874266Y-98216661D02*
X144940933Y-98216661D01*
X145740933Y-98216661D02*
X145807600Y-98149995D01*
X145807600Y-98149995D02*
X145874266Y-98016661D01*
X145874266Y-98016661D02*
X145874266Y-97816661D01*
X145874266Y-97816661D02*
X145807600Y-97683328D01*
X145807600Y-97683328D02*
X145674266Y-97616661D01*
X145674266Y-97616661D02*
X144940933Y-97616661D01*
X144940933Y-96749994D02*
X145007600Y-96883328D01*
X145007600Y-96883328D02*
X145074266Y-96949994D01*
X145074266Y-96949994D02*
X145207600Y-97016661D01*
X145207600Y-97016661D02*
X145607600Y-97016661D01*
X145607600Y-97016661D02*
X145740933Y-96949994D01*
X145740933Y-96949994D02*
X145807600Y-96883328D01*
X145807600Y-96883328D02*
X145874266Y-96749994D01*
X145874266Y-96749994D02*
X145874266Y-96549994D01*
X145874266Y-96549994D02*
X145807600Y-96416661D01*
X145807600Y-96416661D02*
X145740933Y-96349994D01*
X145740933Y-96349994D02*
X145607600Y-96283328D01*
X145607600Y-96283328D02*
X145207600Y-96283328D01*
X145207600Y-96283328D02*
X145074266Y-96349994D01*
X145074266Y-96349994D02*
X145007600Y-96416661D01*
X145007600Y-96416661D02*
X144940933Y-96549994D01*
X144940933Y-96549994D02*
X144940933Y-96749994D01*
X145007600Y-95083327D02*
X144940933Y-95216661D01*
X144940933Y-95216661D02*
X144940933Y-95483327D01*
X144940933Y-95483327D02*
X145007600Y-95616661D01*
X145007600Y-95616661D02*
X145074266Y-95683327D01*
X145074266Y-95683327D02*
X145207600Y-95749994D01*
X145207600Y-95749994D02*
X145607600Y-95749994D01*
X145607600Y-95749994D02*
X145740933Y-95683327D01*
X145740933Y-95683327D02*
X145807600Y-95616661D01*
X145807600Y-95616661D02*
X145874266Y-95483327D01*
X145874266Y-95483327D02*
X145874266Y-95216661D01*
X145874266Y-95216661D02*
X145807600Y-95083327D01*
X144940933Y-94283327D02*
X145007600Y-94416661D01*
X145007600Y-94416661D02*
X145074266Y-94483327D01*
X145074266Y-94483327D02*
X145207600Y-94549994D01*
X145207600Y-94549994D02*
X145607600Y-94549994D01*
X145607600Y-94549994D02*
X145740933Y-94483327D01*
X145740933Y-94483327D02*
X145807600Y-94416661D01*
X145807600Y-94416661D02*
X145874266Y-94283327D01*
X145874266Y-94283327D02*
X145874266Y-94083327D01*
X145874266Y-94083327D02*
X145807600Y-93949994D01*
X145807600Y-93949994D02*
X145740933Y-93883327D01*
X145740933Y-93883327D02*
X145607600Y-93816661D01*
X145607600Y-93816661D02*
X145207600Y-93816661D01*
X145207600Y-93816661D02*
X145074266Y-93883327D01*
X145074266Y-93883327D02*
X145007600Y-93949994D01*
X145007600Y-93949994D02*
X144940933Y-94083327D01*
X144940933Y-94083327D02*
X144940933Y-94283327D01*
X144940933Y-93016660D02*
X145007600Y-93149994D01*
X145007600Y-93149994D02*
X145140933Y-93216660D01*
X145140933Y-93216660D02*
X146340933Y-93216660D01*
X144940933Y-92283327D02*
X145007600Y-92416661D01*
X145007600Y-92416661D02*
X145074266Y-92483327D01*
X145074266Y-92483327D02*
X145207600Y-92549994D01*
X145207600Y-92549994D02*
X145607600Y-92549994D01*
X145607600Y-92549994D02*
X145740933Y-92483327D01*
X145740933Y-92483327D02*
X145807600Y-92416661D01*
X145807600Y-92416661D02*
X145874266Y-92283327D01*
X145874266Y-92283327D02*
X145874266Y-92083327D01*
X145874266Y-92083327D02*
X145807600Y-91949994D01*
X145807600Y-91949994D02*
X145740933Y-91883327D01*
X145740933Y-91883327D02*
X145607600Y-91816661D01*
X145607600Y-91816661D02*
X145207600Y-91816661D01*
X145207600Y-91816661D02*
X145074266Y-91883327D01*
X145074266Y-91883327D02*
X145007600Y-91949994D01*
X145007600Y-91949994D02*
X144940933Y-92083327D01*
X144940933Y-92083327D02*
X144940933Y-92283327D01*
X142686933Y-142983337D02*
X144086933Y-142983337D01*
X144086933Y-142983337D02*
X142686933Y-142183337D01*
X142686933Y-142183337D02*
X144086933Y-142183337D01*
X142686933Y-141316670D02*
X142753600Y-141450004D01*
X142753600Y-141450004D02*
X142820266Y-141516670D01*
X142820266Y-141516670D02*
X142953600Y-141583337D01*
X142953600Y-141583337D02*
X143353600Y-141583337D01*
X143353600Y-141583337D02*
X143486933Y-141516670D01*
X143486933Y-141516670D02*
X143553600Y-141450004D01*
X143553600Y-141450004D02*
X143620266Y-141316670D01*
X143620266Y-141316670D02*
X143620266Y-141116670D01*
X143620266Y-141116670D02*
X143553600Y-140983337D01*
X143553600Y-140983337D02*
X143486933Y-140916670D01*
X143486933Y-140916670D02*
X143353600Y-140850004D01*
X143353600Y-140850004D02*
X142953600Y-140850004D01*
X142953600Y-140850004D02*
X142820266Y-140916670D01*
X142820266Y-140916670D02*
X142753600Y-140983337D01*
X142753600Y-140983337D02*
X142686933Y-141116670D01*
X142686933Y-141116670D02*
X142686933Y-141316670D01*
X143620266Y-140250003D02*
X142686933Y-140250003D01*
X143486933Y-140250003D02*
X143553600Y-140183337D01*
X143553600Y-140183337D02*
X143620266Y-140050003D01*
X143620266Y-140050003D02*
X143620266Y-139850003D01*
X143620266Y-139850003D02*
X143553600Y-139716670D01*
X143553600Y-139716670D02*
X143420266Y-139650003D01*
X143420266Y-139650003D02*
X142686933Y-139650003D01*
X142753600Y-137316669D02*
X142686933Y-137450003D01*
X142686933Y-137450003D02*
X142686933Y-137716669D01*
X142686933Y-137716669D02*
X142753600Y-137850003D01*
X142753600Y-137850003D02*
X142820266Y-137916669D01*
X142820266Y-137916669D02*
X142953600Y-137983336D01*
X142953600Y-137983336D02*
X143353600Y-137983336D01*
X143353600Y-137983336D02*
X143486933Y-137916669D01*
X143486933Y-137916669D02*
X143553600Y-137850003D01*
X143553600Y-137850003D02*
X143620266Y-137716669D01*
X143620266Y-137716669D02*
X143620266Y-137450003D01*
X143620266Y-137450003D02*
X143553600Y-137316669D01*
X144086933Y-136650003D02*
X143820266Y-136783336D01*
X142753600Y-135516669D02*
X142686933Y-135650002D01*
X142686933Y-135650002D02*
X142686933Y-135916669D01*
X142686933Y-135916669D02*
X142753600Y-136050002D01*
X142753600Y-136050002D02*
X142886933Y-136116669D01*
X142886933Y-136116669D02*
X143420266Y-136116669D01*
X143420266Y-136116669D02*
X143553600Y-136050002D01*
X143553600Y-136050002D02*
X143620266Y-135916669D01*
X143620266Y-135916669D02*
X143620266Y-135650002D01*
X143620266Y-135650002D02*
X143553600Y-135516669D01*
X143553600Y-135516669D02*
X143420266Y-135450002D01*
X143420266Y-135450002D02*
X143286933Y-135450002D01*
X143286933Y-135450002D02*
X143153600Y-136116669D01*
X144153600Y-135916669D02*
X143953600Y-135716669D01*
X143620266Y-133183335D02*
X142686933Y-133183335D01*
X143620266Y-133783335D02*
X142886933Y-133783335D01*
X142886933Y-133783335D02*
X142753600Y-133716669D01*
X142753600Y-133716669D02*
X142686933Y-133583335D01*
X142686933Y-133583335D02*
X142686933Y-133383335D01*
X142686933Y-133383335D02*
X142753600Y-133250002D01*
X142753600Y-133250002D02*
X142820266Y-133183335D01*
X143620266Y-132516668D02*
X142686933Y-132516668D01*
X143486933Y-132516668D02*
X143553600Y-132450002D01*
X143553600Y-132450002D02*
X143620266Y-132316668D01*
X143620266Y-132316668D02*
X143620266Y-132116668D01*
X143620266Y-132116668D02*
X143553600Y-131983335D01*
X143553600Y-131983335D02*
X143420266Y-131916668D01*
X143420266Y-131916668D02*
X142686933Y-131916668D01*
X142686933Y-130650001D02*
X143420266Y-130650001D01*
X143420266Y-130650001D02*
X143553600Y-130716668D01*
X143553600Y-130716668D02*
X143620266Y-130850001D01*
X143620266Y-130850001D02*
X143620266Y-131116668D01*
X143620266Y-131116668D02*
X143553600Y-131250001D01*
X142753600Y-130650001D02*
X142686933Y-130783335D01*
X142686933Y-130783335D02*
X142686933Y-131116668D01*
X142686933Y-131116668D02*
X142753600Y-131250001D01*
X142753600Y-131250001D02*
X142886933Y-131316668D01*
X142886933Y-131316668D02*
X143020266Y-131316668D01*
X143020266Y-131316668D02*
X143153600Y-131250001D01*
X143153600Y-131250001D02*
X143220266Y-131116668D01*
X143220266Y-131116668D02*
X143220266Y-130783335D01*
X143220266Y-130783335D02*
X143286933Y-130650001D01*
X142753600Y-128983334D02*
X142686933Y-128850001D01*
X142686933Y-128850001D02*
X142686933Y-128583334D01*
X142686933Y-128583334D02*
X142753600Y-128450001D01*
X142753600Y-128450001D02*
X142886933Y-128383334D01*
X142886933Y-128383334D02*
X142953600Y-128383334D01*
X142953600Y-128383334D02*
X143086933Y-128450001D01*
X143086933Y-128450001D02*
X143153600Y-128583334D01*
X143153600Y-128583334D02*
X143153600Y-128783334D01*
X143153600Y-128783334D02*
X143220266Y-128916667D01*
X143220266Y-128916667D02*
X143353600Y-128983334D01*
X143353600Y-128983334D02*
X143420266Y-128983334D01*
X143420266Y-128983334D02*
X143553600Y-128916667D01*
X143553600Y-128916667D02*
X143620266Y-128783334D01*
X143620266Y-128783334D02*
X143620266Y-128583334D01*
X143620266Y-128583334D02*
X143553600Y-128450001D01*
X142753600Y-127183334D02*
X142686933Y-127316668D01*
X142686933Y-127316668D02*
X142686933Y-127583334D01*
X142686933Y-127583334D02*
X142753600Y-127716668D01*
X142753600Y-127716668D02*
X142820266Y-127783334D01*
X142820266Y-127783334D02*
X142953600Y-127850001D01*
X142953600Y-127850001D02*
X143353600Y-127850001D01*
X143353600Y-127850001D02*
X143486933Y-127783334D01*
X143486933Y-127783334D02*
X143553600Y-127716668D01*
X143553600Y-127716668D02*
X143620266Y-127583334D01*
X143620266Y-127583334D02*
X143620266Y-127316668D01*
X143620266Y-127316668D02*
X143553600Y-127183334D01*
X142753600Y-126050001D02*
X142686933Y-126183334D01*
X142686933Y-126183334D02*
X142686933Y-126450001D01*
X142686933Y-126450001D02*
X142753600Y-126583334D01*
X142753600Y-126583334D02*
X142886933Y-126650001D01*
X142886933Y-126650001D02*
X143420266Y-126650001D01*
X143420266Y-126650001D02*
X143553600Y-126583334D01*
X143553600Y-126583334D02*
X143620266Y-126450001D01*
X143620266Y-126450001D02*
X143620266Y-126183334D01*
X143620266Y-126183334D02*
X143553600Y-126050001D01*
X143553600Y-126050001D02*
X143420266Y-125983334D01*
X143420266Y-125983334D02*
X143286933Y-125983334D01*
X143286933Y-125983334D02*
X143153600Y-126650001D01*
X142686933Y-125183334D02*
X142753600Y-125316668D01*
X142753600Y-125316668D02*
X142886933Y-125383334D01*
X142886933Y-125383334D02*
X144086933Y-125383334D01*
X143620266Y-124850001D02*
X143620266Y-124316668D01*
X144086933Y-124650001D02*
X142886933Y-124650001D01*
X142886933Y-124650001D02*
X142753600Y-124583335D01*
X142753600Y-124583335D02*
X142686933Y-124450001D01*
X142686933Y-124450001D02*
X142686933Y-124316668D01*
X142686933Y-123250001D02*
X143420266Y-123250001D01*
X143420266Y-123250001D02*
X143553600Y-123316668D01*
X143553600Y-123316668D02*
X143620266Y-123450001D01*
X143620266Y-123450001D02*
X143620266Y-123716668D01*
X143620266Y-123716668D02*
X143553600Y-123850001D01*
X142753600Y-123250001D02*
X142686933Y-123383335D01*
X142686933Y-123383335D02*
X142686933Y-123716668D01*
X142686933Y-123716668D02*
X142753600Y-123850001D01*
X142753600Y-123850001D02*
X142886933Y-123916668D01*
X142886933Y-123916668D02*
X143020266Y-123916668D01*
X143020266Y-123916668D02*
X143153600Y-123850001D01*
X143153600Y-123850001D02*
X143220266Y-123716668D01*
X143220266Y-123716668D02*
X143220266Y-123383335D01*
X143220266Y-123383335D02*
X143286933Y-123250001D01*
X142753600Y-121583334D02*
X142686933Y-121450001D01*
X142686933Y-121450001D02*
X142686933Y-121183334D01*
X142686933Y-121183334D02*
X142753600Y-121050001D01*
X142753600Y-121050001D02*
X142886933Y-120983334D01*
X142886933Y-120983334D02*
X142953600Y-120983334D01*
X142953600Y-120983334D02*
X143086933Y-121050001D01*
X143086933Y-121050001D02*
X143153600Y-121183334D01*
X143153600Y-121183334D02*
X143153600Y-121383334D01*
X143153600Y-121383334D02*
X143220266Y-121516667D01*
X143220266Y-121516667D02*
X143353600Y-121583334D01*
X143353600Y-121583334D02*
X143420266Y-121583334D01*
X143420266Y-121583334D02*
X143553600Y-121516667D01*
X143553600Y-121516667D02*
X143620266Y-121383334D01*
X143620266Y-121383334D02*
X143620266Y-121183334D01*
X143620266Y-121183334D02*
X143553600Y-121050001D01*
X142753600Y-119850001D02*
X142686933Y-119983334D01*
X142686933Y-119983334D02*
X142686933Y-120250001D01*
X142686933Y-120250001D02*
X142753600Y-120383334D01*
X142753600Y-120383334D02*
X142886933Y-120450001D01*
X142886933Y-120450001D02*
X143420266Y-120450001D01*
X143420266Y-120450001D02*
X143553600Y-120383334D01*
X143553600Y-120383334D02*
X143620266Y-120250001D01*
X143620266Y-120250001D02*
X143620266Y-119983334D01*
X143620266Y-119983334D02*
X143553600Y-119850001D01*
X143553600Y-119850001D02*
X143420266Y-119783334D01*
X143420266Y-119783334D02*
X143286933Y-119783334D01*
X143286933Y-119783334D02*
X143153600Y-120450001D01*
X142686933Y-118116667D02*
X143620266Y-118116667D01*
X144086933Y-118116667D02*
X144020266Y-118183334D01*
X144020266Y-118183334D02*
X143953600Y-118116667D01*
X143953600Y-118116667D02*
X144020266Y-118050001D01*
X144020266Y-118050001D02*
X144086933Y-118116667D01*
X144086933Y-118116667D02*
X143953600Y-118116667D01*
X142686933Y-116383333D02*
X144086933Y-116383333D01*
X143553600Y-116383333D02*
X143620266Y-116250000D01*
X143620266Y-116250000D02*
X143620266Y-115983333D01*
X143620266Y-115983333D02*
X143553600Y-115850000D01*
X143553600Y-115850000D02*
X143486933Y-115783333D01*
X143486933Y-115783333D02*
X143353600Y-115716667D01*
X143353600Y-115716667D02*
X142953600Y-115716667D01*
X142953600Y-115716667D02*
X142820266Y-115783333D01*
X142820266Y-115783333D02*
X142753600Y-115850000D01*
X142753600Y-115850000D02*
X142686933Y-115983333D01*
X142686933Y-115983333D02*
X142686933Y-116250000D01*
X142686933Y-116250000D02*
X142753600Y-116383333D01*
X142686933Y-115116666D02*
X143620266Y-115116666D01*
X144086933Y-115116666D02*
X144020266Y-115183333D01*
X144020266Y-115183333D02*
X143953600Y-115116666D01*
X143953600Y-115116666D02*
X144020266Y-115050000D01*
X144020266Y-115050000D02*
X144086933Y-115116666D01*
X144086933Y-115116666D02*
X143953600Y-115116666D01*
X142753600Y-114516666D02*
X142686933Y-114383333D01*
X142686933Y-114383333D02*
X142686933Y-114116666D01*
X142686933Y-114116666D02*
X142753600Y-113983333D01*
X142753600Y-113983333D02*
X142886933Y-113916666D01*
X142886933Y-113916666D02*
X142953600Y-113916666D01*
X142953600Y-113916666D02*
X143086933Y-113983333D01*
X143086933Y-113983333D02*
X143153600Y-114116666D01*
X143153600Y-114116666D02*
X143153600Y-114316666D01*
X143153600Y-114316666D02*
X143220266Y-114449999D01*
X143220266Y-114449999D02*
X143353600Y-114516666D01*
X143353600Y-114516666D02*
X143420266Y-114516666D01*
X143420266Y-114516666D02*
X143553600Y-114449999D01*
X143553600Y-114449999D02*
X143620266Y-114316666D01*
X143620266Y-114316666D02*
X143620266Y-114116666D01*
X143620266Y-114116666D02*
X143553600Y-113983333D01*
X142686933Y-113116666D02*
X142753600Y-113250000D01*
X142753600Y-113250000D02*
X142820266Y-113316666D01*
X142820266Y-113316666D02*
X142953600Y-113383333D01*
X142953600Y-113383333D02*
X143353600Y-113383333D01*
X143353600Y-113383333D02*
X143486933Y-113316666D01*
X143486933Y-113316666D02*
X143553600Y-113250000D01*
X143553600Y-113250000D02*
X143620266Y-113116666D01*
X143620266Y-113116666D02*
X143620266Y-112916666D01*
X143620266Y-112916666D02*
X143553600Y-112783333D01*
X143553600Y-112783333D02*
X143486933Y-112716666D01*
X143486933Y-112716666D02*
X143353600Y-112650000D01*
X143353600Y-112650000D02*
X142953600Y-112650000D01*
X142953600Y-112650000D02*
X142820266Y-112716666D01*
X142820266Y-112716666D02*
X142753600Y-112783333D01*
X142753600Y-112783333D02*
X142686933Y-112916666D01*
X142686933Y-112916666D02*
X142686933Y-113116666D01*
X143620266Y-111449999D02*
X142486933Y-111449999D01*
X142486933Y-111449999D02*
X142353600Y-111516666D01*
X142353600Y-111516666D02*
X142286933Y-111583333D01*
X142286933Y-111583333D02*
X142220266Y-111716666D01*
X142220266Y-111716666D02*
X142220266Y-111916666D01*
X142220266Y-111916666D02*
X142286933Y-112049999D01*
X142753600Y-111449999D02*
X142686933Y-111583333D01*
X142686933Y-111583333D02*
X142686933Y-111849999D01*
X142686933Y-111849999D02*
X142753600Y-111983333D01*
X142753600Y-111983333D02*
X142820266Y-112049999D01*
X142820266Y-112049999D02*
X142953600Y-112116666D01*
X142953600Y-112116666D02*
X143353600Y-112116666D01*
X143353600Y-112116666D02*
X143486933Y-112049999D01*
X143486933Y-112049999D02*
X143553600Y-111983333D01*
X143553600Y-111983333D02*
X143620266Y-111849999D01*
X143620266Y-111849999D02*
X143620266Y-111583333D01*
X143620266Y-111583333D02*
X143553600Y-111449999D01*
X143620266Y-110783332D02*
X142686933Y-110783332D01*
X143486933Y-110783332D02*
X143553600Y-110716666D01*
X143553600Y-110716666D02*
X143620266Y-110583332D01*
X143620266Y-110583332D02*
X143620266Y-110383332D01*
X143620266Y-110383332D02*
X143553600Y-110249999D01*
X143553600Y-110249999D02*
X143420266Y-110183332D01*
X143420266Y-110183332D02*
X142686933Y-110183332D01*
X142686933Y-109516665D02*
X143620266Y-109516665D01*
X144086933Y-109516665D02*
X144020266Y-109583332D01*
X144020266Y-109583332D02*
X143953600Y-109516665D01*
X143953600Y-109516665D02*
X144020266Y-109449999D01*
X144020266Y-109449999D02*
X144086933Y-109516665D01*
X144086933Y-109516665D02*
X143953600Y-109516665D01*
X143620266Y-107983331D02*
X143620266Y-107449998D01*
X144086933Y-107783331D02*
X142886933Y-107783331D01*
X142886933Y-107783331D02*
X142753600Y-107716665D01*
X142753600Y-107716665D02*
X142686933Y-107583331D01*
X142686933Y-107583331D02*
X142686933Y-107449998D01*
X142753600Y-106449998D02*
X142686933Y-106583331D01*
X142686933Y-106583331D02*
X142686933Y-106849998D01*
X142686933Y-106849998D02*
X142753600Y-106983331D01*
X142753600Y-106983331D02*
X142886933Y-107049998D01*
X142886933Y-107049998D02*
X143420266Y-107049998D01*
X143420266Y-107049998D02*
X143553600Y-106983331D01*
X143553600Y-106983331D02*
X143620266Y-106849998D01*
X143620266Y-106849998D02*
X143620266Y-106583331D01*
X143620266Y-106583331D02*
X143553600Y-106449998D01*
X143553600Y-106449998D02*
X143420266Y-106383331D01*
X143420266Y-106383331D02*
X143286933Y-106383331D01*
X143286933Y-106383331D02*
X143153600Y-107049998D01*
X142686933Y-104516664D02*
X142753600Y-104649998D01*
X142753600Y-104649998D02*
X142886933Y-104716664D01*
X142886933Y-104716664D02*
X144086933Y-104716664D01*
X142686933Y-103983331D02*
X143620266Y-103983331D01*
X144086933Y-103983331D02*
X144020266Y-104049998D01*
X144020266Y-104049998D02*
X143953600Y-103983331D01*
X143953600Y-103983331D02*
X144020266Y-103916665D01*
X144020266Y-103916665D02*
X144086933Y-103983331D01*
X144086933Y-103983331D02*
X143953600Y-103983331D01*
X142686933Y-102249997D02*
X143620266Y-102249997D01*
X144086933Y-102249997D02*
X144020266Y-102316664D01*
X144020266Y-102316664D02*
X143953600Y-102249997D01*
X143953600Y-102249997D02*
X144020266Y-102183331D01*
X144020266Y-102183331D02*
X144086933Y-102249997D01*
X144086933Y-102249997D02*
X143953600Y-102249997D01*
X142686933Y-101583330D02*
X143620266Y-101583330D01*
X143486933Y-101583330D02*
X143553600Y-101516664D01*
X143553600Y-101516664D02*
X143620266Y-101383330D01*
X143620266Y-101383330D02*
X143620266Y-101183330D01*
X143620266Y-101183330D02*
X143553600Y-101049997D01*
X143553600Y-101049997D02*
X143420266Y-100983330D01*
X143420266Y-100983330D02*
X142686933Y-100983330D01*
X143420266Y-100983330D02*
X143553600Y-100916664D01*
X143553600Y-100916664D02*
X143620266Y-100783330D01*
X143620266Y-100783330D02*
X143620266Y-100583330D01*
X143620266Y-100583330D02*
X143553600Y-100449997D01*
X143553600Y-100449997D02*
X143420266Y-100383330D01*
X143420266Y-100383330D02*
X142686933Y-100383330D01*
X143620266Y-99716663D02*
X142220266Y-99716663D01*
X143553600Y-99716663D02*
X143620266Y-99583330D01*
X143620266Y-99583330D02*
X143620266Y-99316663D01*
X143620266Y-99316663D02*
X143553600Y-99183330D01*
X143553600Y-99183330D02*
X143486933Y-99116663D01*
X143486933Y-99116663D02*
X143353600Y-99049997D01*
X143353600Y-99049997D02*
X142953600Y-99049997D01*
X142953600Y-99049997D02*
X142820266Y-99116663D01*
X142820266Y-99116663D02*
X142753600Y-99183330D01*
X142753600Y-99183330D02*
X142686933Y-99316663D01*
X142686933Y-99316663D02*
X142686933Y-99583330D01*
X142686933Y-99583330D02*
X142753600Y-99716663D01*
X142686933Y-98249996D02*
X142753600Y-98383330D01*
X142753600Y-98383330D02*
X142820266Y-98449996D01*
X142820266Y-98449996D02*
X142953600Y-98516663D01*
X142953600Y-98516663D02*
X143353600Y-98516663D01*
X143353600Y-98516663D02*
X143486933Y-98449996D01*
X143486933Y-98449996D02*
X143553600Y-98383330D01*
X143553600Y-98383330D02*
X143620266Y-98249996D01*
X143620266Y-98249996D02*
X143620266Y-98049996D01*
X143620266Y-98049996D02*
X143553600Y-97916663D01*
X143553600Y-97916663D02*
X143486933Y-97849996D01*
X143486933Y-97849996D02*
X143353600Y-97783330D01*
X143353600Y-97783330D02*
X142953600Y-97783330D01*
X142953600Y-97783330D02*
X142820266Y-97849996D01*
X142820266Y-97849996D02*
X142753600Y-97916663D01*
X142753600Y-97916663D02*
X142686933Y-98049996D01*
X142686933Y-98049996D02*
X142686933Y-98249996D01*
X143620266Y-97183329D02*
X142686933Y-97183329D01*
X143486933Y-97183329D02*
X143553600Y-97116663D01*
X143553600Y-97116663D02*
X143620266Y-96983329D01*
X143620266Y-96983329D02*
X143620266Y-96783329D01*
X143620266Y-96783329D02*
X143553600Y-96649996D01*
X143553600Y-96649996D02*
X143420266Y-96583329D01*
X143420266Y-96583329D02*
X142686933Y-96583329D01*
X143620266Y-95316662D02*
X142486933Y-95316662D01*
X142486933Y-95316662D02*
X142353600Y-95383329D01*
X142353600Y-95383329D02*
X142286933Y-95449996D01*
X142286933Y-95449996D02*
X142220266Y-95583329D01*
X142220266Y-95583329D02*
X142220266Y-95783329D01*
X142220266Y-95783329D02*
X142286933Y-95916662D01*
X142753600Y-95316662D02*
X142686933Y-95449996D01*
X142686933Y-95449996D02*
X142686933Y-95716662D01*
X142686933Y-95716662D02*
X142753600Y-95849996D01*
X142753600Y-95849996D02*
X142820266Y-95916662D01*
X142820266Y-95916662D02*
X142953600Y-95983329D01*
X142953600Y-95983329D02*
X143353600Y-95983329D01*
X143353600Y-95983329D02*
X143486933Y-95916662D01*
X143486933Y-95916662D02*
X143553600Y-95849996D01*
X143553600Y-95849996D02*
X143620266Y-95716662D01*
X143620266Y-95716662D02*
X143620266Y-95449996D01*
X143620266Y-95449996D02*
X143553600Y-95316662D01*
X142686933Y-94449995D02*
X142753600Y-94583329D01*
X142753600Y-94583329D02*
X142820266Y-94649995D01*
X142820266Y-94649995D02*
X142953600Y-94716662D01*
X142953600Y-94716662D02*
X143353600Y-94716662D01*
X143353600Y-94716662D02*
X143486933Y-94649995D01*
X143486933Y-94649995D02*
X143553600Y-94583329D01*
X143553600Y-94583329D02*
X143620266Y-94449995D01*
X143620266Y-94449995D02*
X143620266Y-94249995D01*
X143620266Y-94249995D02*
X143553600Y-94116662D01*
X143553600Y-94116662D02*
X143486933Y-94049995D01*
X143486933Y-94049995D02*
X143353600Y-93983329D01*
X143353600Y-93983329D02*
X142953600Y-93983329D01*
X142953600Y-93983329D02*
X142820266Y-94049995D01*
X142820266Y-94049995D02*
X142753600Y-94116662D01*
X142753600Y-94116662D02*
X142686933Y-94249995D01*
X142686933Y-94249995D02*
X142686933Y-94449995D01*
X143620266Y-93383328D02*
X142686933Y-93383328D01*
X143486933Y-93383328D02*
X143553600Y-93316662D01*
X143553600Y-93316662D02*
X143620266Y-93183328D01*
X143620266Y-93183328D02*
X143620266Y-92983328D01*
X143620266Y-92983328D02*
X143553600Y-92849995D01*
X143553600Y-92849995D02*
X143420266Y-92783328D01*
X143420266Y-92783328D02*
X142686933Y-92783328D01*
X142686933Y-91916661D02*
X142753600Y-92049995D01*
X142753600Y-92049995D02*
X142820266Y-92116661D01*
X142820266Y-92116661D02*
X142953600Y-92183328D01*
X142953600Y-92183328D02*
X143353600Y-92183328D01*
X143353600Y-92183328D02*
X143486933Y-92116661D01*
X143486933Y-92116661D02*
X143553600Y-92049995D01*
X143553600Y-92049995D02*
X143620266Y-91916661D01*
X143620266Y-91916661D02*
X143620266Y-91716661D01*
X143620266Y-91716661D02*
X143553600Y-91583328D01*
X143553600Y-91583328D02*
X143486933Y-91516661D01*
X143486933Y-91516661D02*
X143353600Y-91449995D01*
X143353600Y-91449995D02*
X142953600Y-91449995D01*
X142953600Y-91449995D02*
X142820266Y-91516661D01*
X142820266Y-91516661D02*
X142753600Y-91583328D01*
X142753600Y-91583328D02*
X142686933Y-91716661D01*
X142686933Y-91716661D02*
X142686933Y-91916661D01*
D10*
X126121438Y-74613570D02*
X126073819Y-74518332D01*
X126073819Y-74518332D02*
X126073819Y-74375475D01*
X126073819Y-74375475D02*
X126121438Y-74232618D01*
X126121438Y-74232618D02*
X126216676Y-74137380D01*
X126216676Y-74137380D02*
X126311914Y-74089761D01*
X126311914Y-74089761D02*
X126502390Y-74042142D01*
X126502390Y-74042142D02*
X126645247Y-74042142D01*
X126645247Y-74042142D02*
X126835723Y-74089761D01*
X126835723Y-74089761D02*
X126930961Y-74137380D01*
X126930961Y-74137380D02*
X127026200Y-74232618D01*
X127026200Y-74232618D02*
X127073819Y-74375475D01*
X127073819Y-74375475D02*
X127073819Y-74470713D01*
X127073819Y-74470713D02*
X127026200Y-74613570D01*
X127026200Y-74613570D02*
X126978580Y-74661189D01*
X126978580Y-74661189D02*
X126645247Y-74661189D01*
X126645247Y-74661189D02*
X126645247Y-74470713D01*
X126597628Y-75280237D02*
X127073819Y-75280237D01*
X126073819Y-74946904D02*
X126597628Y-75280237D01*
X126597628Y-75280237D02*
X126073819Y-75613570D01*
X126692866Y-75946904D02*
X126692866Y-76708809D01*
X126550009Y-77518332D02*
X126597628Y-77661189D01*
X126597628Y-77661189D02*
X126645247Y-77708808D01*
X126645247Y-77708808D02*
X126740485Y-77756427D01*
X126740485Y-77756427D02*
X126883342Y-77756427D01*
X126883342Y-77756427D02*
X126978580Y-77708808D01*
X126978580Y-77708808D02*
X127026200Y-77661189D01*
X127026200Y-77661189D02*
X127073819Y-77565951D01*
X127073819Y-77565951D02*
X127073819Y-77184999D01*
X127073819Y-77184999D02*
X126073819Y-77184999D01*
X126073819Y-77184999D02*
X126073819Y-77518332D01*
X126073819Y-77518332D02*
X126121438Y-77613570D01*
X126121438Y-77613570D02*
X126169057Y-77661189D01*
X126169057Y-77661189D02*
X126264295Y-77708808D01*
X126264295Y-77708808D02*
X126359533Y-77708808D01*
X126359533Y-77708808D02*
X126454771Y-77661189D01*
X126454771Y-77661189D02*
X126502390Y-77613570D01*
X126502390Y-77613570D02*
X126550009Y-77518332D01*
X126550009Y-77518332D02*
X126550009Y-77184999D01*
X127073819Y-78184999D02*
X126073819Y-78184999D01*
X126073819Y-78184999D02*
X126788104Y-78518332D01*
X126788104Y-78518332D02*
X126073819Y-78851665D01*
X126073819Y-78851665D02*
X127073819Y-78851665D01*
X126550009Y-79327856D02*
X126550009Y-79661189D01*
X127073819Y-79804046D02*
X127073819Y-79327856D01*
X127073819Y-79327856D02*
X126073819Y-79327856D01*
X126073819Y-79327856D02*
X126073819Y-79804046D01*
X126692866Y-80232618D02*
X126692866Y-80994523D01*
X126169057Y-81423094D02*
X126121438Y-81470713D01*
X126121438Y-81470713D02*
X126073819Y-81565951D01*
X126073819Y-81565951D02*
X126073819Y-81804046D01*
X126073819Y-81804046D02*
X126121438Y-81899284D01*
X126121438Y-81899284D02*
X126169057Y-81946903D01*
X126169057Y-81946903D02*
X126264295Y-81994522D01*
X126264295Y-81994522D02*
X126359533Y-81994522D01*
X126359533Y-81994522D02*
X126502390Y-81946903D01*
X126502390Y-81946903D02*
X127073819Y-81375475D01*
X127073819Y-81375475D02*
X127073819Y-81994522D01*
X126502390Y-82565951D02*
X126454771Y-82470713D01*
X126454771Y-82470713D02*
X126407152Y-82423094D01*
X126407152Y-82423094D02*
X126311914Y-82375475D01*
X126311914Y-82375475D02*
X126264295Y-82375475D01*
X126264295Y-82375475D02*
X126169057Y-82423094D01*
X126169057Y-82423094D02*
X126121438Y-82470713D01*
X126121438Y-82470713D02*
X126073819Y-82565951D01*
X126073819Y-82565951D02*
X126073819Y-82756427D01*
X126073819Y-82756427D02*
X126121438Y-82851665D01*
X126121438Y-82851665D02*
X126169057Y-82899284D01*
X126169057Y-82899284D02*
X126264295Y-82946903D01*
X126264295Y-82946903D02*
X126311914Y-82946903D01*
X126311914Y-82946903D02*
X126407152Y-82899284D01*
X126407152Y-82899284D02*
X126454771Y-82851665D01*
X126454771Y-82851665D02*
X126502390Y-82756427D01*
X126502390Y-82756427D02*
X126502390Y-82565951D01*
X126502390Y-82565951D02*
X126550009Y-82470713D01*
X126550009Y-82470713D02*
X126597628Y-82423094D01*
X126597628Y-82423094D02*
X126692866Y-82375475D01*
X126692866Y-82375475D02*
X126883342Y-82375475D01*
X126883342Y-82375475D02*
X126978580Y-82423094D01*
X126978580Y-82423094D02*
X127026200Y-82470713D01*
X127026200Y-82470713D02*
X127073819Y-82565951D01*
X127073819Y-82565951D02*
X127073819Y-82756427D01*
X127073819Y-82756427D02*
X127026200Y-82851665D01*
X127026200Y-82851665D02*
X126978580Y-82899284D01*
X126978580Y-82899284D02*
X126883342Y-82946903D01*
X126883342Y-82946903D02*
X126692866Y-82946903D01*
X126692866Y-82946903D02*
X126597628Y-82899284D01*
X126597628Y-82899284D02*
X126550009Y-82851665D01*
X126550009Y-82851665D02*
X126502390Y-82756427D01*
X126073819Y-83565951D02*
X126073819Y-83661189D01*
X126073819Y-83661189D02*
X126121438Y-83756427D01*
X126121438Y-83756427D02*
X126169057Y-83804046D01*
X126169057Y-83804046D02*
X126264295Y-83851665D01*
X126264295Y-83851665D02*
X126454771Y-83899284D01*
X126454771Y-83899284D02*
X126692866Y-83899284D01*
X126692866Y-83899284D02*
X126883342Y-83851665D01*
X126883342Y-83851665D02*
X126978580Y-83804046D01*
X126978580Y-83804046D02*
X127026200Y-83756427D01*
X127026200Y-83756427D02*
X127073819Y-83661189D01*
X127073819Y-83661189D02*
X127073819Y-83565951D01*
X127073819Y-83565951D02*
X127026200Y-83470713D01*
X127026200Y-83470713D02*
X126978580Y-83423094D01*
X126978580Y-83423094D02*
X126883342Y-83375475D01*
X126883342Y-83375475D02*
X126692866Y-83327856D01*
X126692866Y-83327856D02*
X126454771Y-83327856D01*
X126454771Y-83327856D02*
X126264295Y-83375475D01*
X126264295Y-83375475D02*
X126169057Y-83423094D01*
X126169057Y-83423094D02*
X126121438Y-83470713D01*
X126121438Y-83470713D02*
X126073819Y-83565951D01*
X126550009Y-85423094D02*
X126597628Y-85565951D01*
X126597628Y-85565951D02*
X126645247Y-85613570D01*
X126645247Y-85613570D02*
X126740485Y-85661189D01*
X126740485Y-85661189D02*
X126883342Y-85661189D01*
X126883342Y-85661189D02*
X126978580Y-85613570D01*
X126978580Y-85613570D02*
X127026200Y-85565951D01*
X127026200Y-85565951D02*
X127073819Y-85470713D01*
X127073819Y-85470713D02*
X127073819Y-85089761D01*
X127073819Y-85089761D02*
X126073819Y-85089761D01*
X126073819Y-85089761D02*
X126073819Y-85423094D01*
X126073819Y-85423094D02*
X126121438Y-85518332D01*
X126121438Y-85518332D02*
X126169057Y-85565951D01*
X126169057Y-85565951D02*
X126264295Y-85613570D01*
X126264295Y-85613570D02*
X126359533Y-85613570D01*
X126359533Y-85613570D02*
X126454771Y-85565951D01*
X126454771Y-85565951D02*
X126502390Y-85518332D01*
X126502390Y-85518332D02*
X126550009Y-85423094D01*
X126550009Y-85423094D02*
X126550009Y-85089761D01*
X127073819Y-86518332D02*
X126550009Y-86518332D01*
X126550009Y-86518332D02*
X126454771Y-86470713D01*
X126454771Y-86470713D02*
X126407152Y-86375475D01*
X126407152Y-86375475D02*
X126407152Y-86184999D01*
X126407152Y-86184999D02*
X126454771Y-86089761D01*
X127026200Y-86518332D02*
X127073819Y-86423094D01*
X127073819Y-86423094D02*
X127073819Y-86184999D01*
X127073819Y-86184999D02*
X127026200Y-86089761D01*
X127026200Y-86089761D02*
X126930961Y-86042142D01*
X126930961Y-86042142D02*
X126835723Y-86042142D01*
X126835723Y-86042142D02*
X126740485Y-86089761D01*
X126740485Y-86089761D02*
X126692866Y-86184999D01*
X126692866Y-86184999D02*
X126692866Y-86423094D01*
X126692866Y-86423094D02*
X126645247Y-86518332D01*
X127073819Y-86994523D02*
X126407152Y-86994523D01*
X126597628Y-86994523D02*
X126502390Y-87042142D01*
X126502390Y-87042142D02*
X126454771Y-87089761D01*
X126454771Y-87089761D02*
X126407152Y-87184999D01*
X126407152Y-87184999D02*
X126407152Y-87280237D01*
X127073819Y-87756428D02*
X127026200Y-87661190D01*
X127026200Y-87661190D02*
X126978580Y-87613571D01*
X126978580Y-87613571D02*
X126883342Y-87565952D01*
X126883342Y-87565952D02*
X126597628Y-87565952D01*
X126597628Y-87565952D02*
X126502390Y-87613571D01*
X126502390Y-87613571D02*
X126454771Y-87661190D01*
X126454771Y-87661190D02*
X126407152Y-87756428D01*
X126407152Y-87756428D02*
X126407152Y-87899285D01*
X126407152Y-87899285D02*
X126454771Y-87994523D01*
X126454771Y-87994523D02*
X126502390Y-88042142D01*
X126502390Y-88042142D02*
X126597628Y-88089761D01*
X126597628Y-88089761D02*
X126883342Y-88089761D01*
X126883342Y-88089761D02*
X126978580Y-88042142D01*
X126978580Y-88042142D02*
X127026200Y-87994523D01*
X127026200Y-87994523D02*
X127073819Y-87899285D01*
X127073819Y-87899285D02*
X127073819Y-87756428D01*
X127073819Y-88518333D02*
X126407152Y-88518333D01*
X126502390Y-88518333D02*
X126454771Y-88565952D01*
X126454771Y-88565952D02*
X126407152Y-88661190D01*
X126407152Y-88661190D02*
X126407152Y-88804047D01*
X126407152Y-88804047D02*
X126454771Y-88899285D01*
X126454771Y-88899285D02*
X126550009Y-88946904D01*
X126550009Y-88946904D02*
X127073819Y-88946904D01*
X126550009Y-88946904D02*
X126454771Y-88994523D01*
X126454771Y-88994523D02*
X126407152Y-89089761D01*
X126407152Y-89089761D02*
X126407152Y-89232618D01*
X126407152Y-89232618D02*
X126454771Y-89327857D01*
X126454771Y-89327857D02*
X126550009Y-89375476D01*
X126550009Y-89375476D02*
X127073819Y-89375476D01*
X127026200Y-90232618D02*
X127073819Y-90137380D01*
X127073819Y-90137380D02*
X127073819Y-89946904D01*
X127073819Y-89946904D02*
X127026200Y-89851666D01*
X127026200Y-89851666D02*
X126930961Y-89804047D01*
X126930961Y-89804047D02*
X126550009Y-89804047D01*
X126550009Y-89804047D02*
X126454771Y-89851666D01*
X126454771Y-89851666D02*
X126407152Y-89946904D01*
X126407152Y-89946904D02*
X126407152Y-90137380D01*
X126407152Y-90137380D02*
X126454771Y-90232618D01*
X126454771Y-90232618D02*
X126550009Y-90280237D01*
X126550009Y-90280237D02*
X126645247Y-90280237D01*
X126645247Y-90280237D02*
X126740485Y-89804047D01*
X126407152Y-90565952D02*
X126407152Y-90946904D01*
X126073819Y-90708809D02*
X126930961Y-90708809D01*
X126930961Y-90708809D02*
X127026200Y-90756428D01*
X127026200Y-90756428D02*
X127073819Y-90851666D01*
X127073819Y-90851666D02*
X127073819Y-90946904D01*
X127026200Y-91661190D02*
X127073819Y-91565952D01*
X127073819Y-91565952D02*
X127073819Y-91375476D01*
X127073819Y-91375476D02*
X127026200Y-91280238D01*
X127026200Y-91280238D02*
X126930961Y-91232619D01*
X126930961Y-91232619D02*
X126550009Y-91232619D01*
X126550009Y-91232619D02*
X126454771Y-91280238D01*
X126454771Y-91280238D02*
X126407152Y-91375476D01*
X126407152Y-91375476D02*
X126407152Y-91565952D01*
X126407152Y-91565952D02*
X126454771Y-91661190D01*
X126454771Y-91661190D02*
X126550009Y-91708809D01*
X126550009Y-91708809D02*
X126645247Y-91708809D01*
X126645247Y-91708809D02*
X126740485Y-91232619D01*
X127073819Y-92137381D02*
X126407152Y-92137381D01*
X126597628Y-92137381D02*
X126502390Y-92185000D01*
X126502390Y-92185000D02*
X126454771Y-92232619D01*
X126454771Y-92232619D02*
X126407152Y-92327857D01*
X126407152Y-92327857D02*
X126407152Y-92423095D01*
X143835238Y-61033819D02*
X144311428Y-61033819D01*
X144311428Y-61033819D02*
X144311428Y-60033819D01*
X143597142Y-60033819D02*
X142930476Y-60033819D01*
X142930476Y-60033819D02*
X143359047Y-61033819D01*
X142406666Y-60462390D02*
X142501904Y-60414771D01*
X142501904Y-60414771D02*
X142549523Y-60367152D01*
X142549523Y-60367152D02*
X142597142Y-60271914D01*
X142597142Y-60271914D02*
X142597142Y-60224295D01*
X142597142Y-60224295D02*
X142549523Y-60129057D01*
X142549523Y-60129057D02*
X142501904Y-60081438D01*
X142501904Y-60081438D02*
X142406666Y-60033819D01*
X142406666Y-60033819D02*
X142216190Y-60033819D01*
X142216190Y-60033819D02*
X142120952Y-60081438D01*
X142120952Y-60081438D02*
X142073333Y-60129057D01*
X142073333Y-60129057D02*
X142025714Y-60224295D01*
X142025714Y-60224295D02*
X142025714Y-60271914D01*
X142025714Y-60271914D02*
X142073333Y-60367152D01*
X142073333Y-60367152D02*
X142120952Y-60414771D01*
X142120952Y-60414771D02*
X142216190Y-60462390D01*
X142216190Y-60462390D02*
X142406666Y-60462390D01*
X142406666Y-60462390D02*
X142501904Y-60510009D01*
X142501904Y-60510009D02*
X142549523Y-60557628D01*
X142549523Y-60557628D02*
X142597142Y-60652866D01*
X142597142Y-60652866D02*
X142597142Y-60843342D01*
X142597142Y-60843342D02*
X142549523Y-60938580D01*
X142549523Y-60938580D02*
X142501904Y-60986200D01*
X142501904Y-60986200D02*
X142406666Y-61033819D01*
X142406666Y-61033819D02*
X142216190Y-61033819D01*
X142216190Y-61033819D02*
X142120952Y-60986200D01*
X142120952Y-60986200D02*
X142073333Y-60938580D01*
X142073333Y-60938580D02*
X142025714Y-60843342D01*
X142025714Y-60843342D02*
X142025714Y-60652866D01*
X142025714Y-60652866D02*
X142073333Y-60557628D01*
X142073333Y-60557628D02*
X142120952Y-60510009D01*
X142120952Y-60510009D02*
X142216190Y-60462390D01*
X141406666Y-60033819D02*
X141311428Y-60033819D01*
X141311428Y-60033819D02*
X141216190Y-60081438D01*
X141216190Y-60081438D02*
X141168571Y-60129057D01*
X141168571Y-60129057D02*
X141120952Y-60224295D01*
X141120952Y-60224295D02*
X141073333Y-60414771D01*
X141073333Y-60414771D02*
X141073333Y-60652866D01*
X141073333Y-60652866D02*
X141120952Y-60843342D01*
X141120952Y-60843342D02*
X141168571Y-60938580D01*
X141168571Y-60938580D02*
X141216190Y-60986200D01*
X141216190Y-60986200D02*
X141311428Y-61033819D01*
X141311428Y-61033819D02*
X141406666Y-61033819D01*
X141406666Y-61033819D02*
X141501904Y-60986200D01*
X141501904Y-60986200D02*
X141549523Y-60938580D01*
X141549523Y-60938580D02*
X141597142Y-60843342D01*
X141597142Y-60843342D02*
X141644761Y-60652866D01*
X141644761Y-60652866D02*
X141644761Y-60414771D01*
X141644761Y-60414771D02*
X141597142Y-60224295D01*
X141597142Y-60224295D02*
X141549523Y-60129057D01*
X141549523Y-60129057D02*
X141501904Y-60081438D01*
X141501904Y-60081438D02*
X141406666Y-60033819D01*
X140168571Y-60033819D02*
X140644761Y-60033819D01*
X140644761Y-60033819D02*
X140692380Y-60510009D01*
X140692380Y-60510009D02*
X140644761Y-60462390D01*
X140644761Y-60462390D02*
X140549523Y-60414771D01*
X140549523Y-60414771D02*
X140311428Y-60414771D01*
X140311428Y-60414771D02*
X140216190Y-60462390D01*
X140216190Y-60462390D02*
X140168571Y-60510009D01*
X140168571Y-60510009D02*
X140120952Y-60605247D01*
X140120952Y-60605247D02*
X140120952Y-60843342D01*
X140120952Y-60843342D02*
X140168571Y-60938580D01*
X140168571Y-60938580D02*
X140216190Y-60986200D01*
X140216190Y-60986200D02*
X140311428Y-61033819D01*
X140311428Y-61033819D02*
X140549523Y-61033819D01*
X140549523Y-61033819D02*
X140644761Y-60986200D01*
X140644761Y-60986200D02*
X140692380Y-60938580D01*
X116727191Y-78482819D02*
X117203381Y-78482819D01*
X117203381Y-78482819D02*
X117203381Y-77482819D01*
X116203381Y-77482819D02*
X116012905Y-77482819D01*
X116012905Y-77482819D02*
X115917667Y-77530438D01*
X115917667Y-77530438D02*
X115822429Y-77625676D01*
X115822429Y-77625676D02*
X115774810Y-77816152D01*
X115774810Y-77816152D02*
X115774810Y-78149485D01*
X115774810Y-78149485D02*
X115822429Y-78339961D01*
X115822429Y-78339961D02*
X115917667Y-78435200D01*
X115917667Y-78435200D02*
X116012905Y-78482819D01*
X116012905Y-78482819D02*
X116203381Y-78482819D01*
X116203381Y-78482819D02*
X116298619Y-78435200D01*
X116298619Y-78435200D02*
X116393857Y-78339961D01*
X116393857Y-78339961D02*
X116441476Y-78149485D01*
X116441476Y-78149485D02*
X116441476Y-77816152D01*
X116441476Y-77816152D02*
X116393857Y-77625676D01*
X116393857Y-77625676D02*
X116298619Y-77530438D01*
X116298619Y-77530438D02*
X116203381Y-77482819D01*
X114774810Y-78482819D02*
X115108143Y-78006628D01*
X115346238Y-78482819D02*
X115346238Y-77482819D01*
X115346238Y-77482819D02*
X114965286Y-77482819D01*
X114965286Y-77482819D02*
X114870048Y-77530438D01*
X114870048Y-77530438D02*
X114822429Y-77578057D01*
X114822429Y-77578057D02*
X114774810Y-77673295D01*
X114774810Y-77673295D02*
X114774810Y-77816152D01*
X114774810Y-77816152D02*
X114822429Y-77911390D01*
X114822429Y-77911390D02*
X114870048Y-77959009D01*
X114870048Y-77959009D02*
X114965286Y-78006628D01*
X114965286Y-78006628D02*
X115346238Y-78006628D01*
X114393857Y-78197104D02*
X113917667Y-78197104D01*
X114489095Y-78482819D02*
X114155762Y-77482819D01*
X114155762Y-77482819D02*
X113822429Y-78482819D01*
X113727191Y-78578057D02*
X112965286Y-78578057D01*
X112774809Y-78435200D02*
X112631952Y-78482819D01*
X112631952Y-78482819D02*
X112393857Y-78482819D01*
X112393857Y-78482819D02*
X112298619Y-78435200D01*
X112298619Y-78435200D02*
X112251000Y-78387580D01*
X112251000Y-78387580D02*
X112203381Y-78292342D01*
X112203381Y-78292342D02*
X112203381Y-78197104D01*
X112203381Y-78197104D02*
X112251000Y-78101866D01*
X112251000Y-78101866D02*
X112298619Y-78054247D01*
X112298619Y-78054247D02*
X112393857Y-78006628D01*
X112393857Y-78006628D02*
X112584333Y-77959009D01*
X112584333Y-77959009D02*
X112679571Y-77911390D01*
X112679571Y-77911390D02*
X112727190Y-77863771D01*
X112727190Y-77863771D02*
X112774809Y-77768533D01*
X112774809Y-77768533D02*
X112774809Y-77673295D01*
X112774809Y-77673295D02*
X112727190Y-77578057D01*
X112727190Y-77578057D02*
X112679571Y-77530438D01*
X112679571Y-77530438D02*
X112584333Y-77482819D01*
X112584333Y-77482819D02*
X112346238Y-77482819D01*
X112346238Y-77482819D02*
X112203381Y-77530438D01*
X111631952Y-78482819D02*
X111727190Y-78435200D01*
X111727190Y-78435200D02*
X111774809Y-78387580D01*
X111774809Y-78387580D02*
X111822428Y-78292342D01*
X111822428Y-78292342D02*
X111822428Y-78006628D01*
X111822428Y-78006628D02*
X111774809Y-77911390D01*
X111774809Y-77911390D02*
X111727190Y-77863771D01*
X111727190Y-77863771D02*
X111631952Y-77816152D01*
X111631952Y-77816152D02*
X111489095Y-77816152D01*
X111489095Y-77816152D02*
X111393857Y-77863771D01*
X111393857Y-77863771D02*
X111346238Y-77911390D01*
X111346238Y-77911390D02*
X111298619Y-78006628D01*
X111298619Y-78006628D02*
X111298619Y-78292342D01*
X111298619Y-78292342D02*
X111346238Y-78387580D01*
X111346238Y-78387580D02*
X111393857Y-78435200D01*
X111393857Y-78435200D02*
X111489095Y-78482819D01*
X111489095Y-78482819D02*
X111631952Y-78482819D01*
X110441476Y-78435200D02*
X110536714Y-78482819D01*
X110536714Y-78482819D02*
X110727190Y-78482819D01*
X110727190Y-78482819D02*
X110822428Y-78435200D01*
X110822428Y-78435200D02*
X110870047Y-78387580D01*
X110870047Y-78387580D02*
X110917666Y-78292342D01*
X110917666Y-78292342D02*
X110917666Y-78006628D01*
X110917666Y-78006628D02*
X110870047Y-77911390D01*
X110870047Y-77911390D02*
X110822428Y-77863771D01*
X110822428Y-77863771D02*
X110727190Y-77816152D01*
X110727190Y-77816152D02*
X110536714Y-77816152D01*
X110536714Y-77816152D02*
X110441476Y-77863771D01*
X110012904Y-78482819D02*
X110012904Y-77482819D01*
X109917666Y-78101866D02*
X109631952Y-78482819D01*
X109631952Y-77816152D02*
X110012904Y-78197104D01*
X108822428Y-78435200D02*
X108917666Y-78482819D01*
X108917666Y-78482819D02*
X109108142Y-78482819D01*
X109108142Y-78482819D02*
X109203380Y-78435200D01*
X109203380Y-78435200D02*
X109250999Y-78339961D01*
X109250999Y-78339961D02*
X109250999Y-77959009D01*
X109250999Y-77959009D02*
X109203380Y-77863771D01*
X109203380Y-77863771D02*
X109108142Y-77816152D01*
X109108142Y-77816152D02*
X108917666Y-77816152D01*
X108917666Y-77816152D02*
X108822428Y-77863771D01*
X108822428Y-77863771D02*
X108774809Y-77959009D01*
X108774809Y-77959009D02*
X108774809Y-78054247D01*
X108774809Y-78054247D02*
X109250999Y-78149485D01*
X108489094Y-77816152D02*
X108108142Y-77816152D01*
X108346237Y-77482819D02*
X108346237Y-78339961D01*
X108346237Y-78339961D02*
X108298618Y-78435200D01*
X108298618Y-78435200D02*
X108203380Y-78482819D01*
X108203380Y-78482819D02*
X108108142Y-78482819D01*
X107250999Y-78482819D02*
X107822427Y-78482819D01*
X107536713Y-78482819D02*
X107536713Y-77482819D01*
X107536713Y-77482819D02*
X107631951Y-77625676D01*
X107631951Y-77625676D02*
X107727189Y-77720914D01*
X107727189Y-77720914D02*
X107822427Y-77768533D01*
D12*
X140141000Y-87884000D02*
X140141000Y-80204000D01*
X137481000Y-89154000D02*
X137481000Y-90484000D01*
X137481000Y-80204000D02*
X140141000Y-80204000D01*
X137481000Y-87884000D02*
X140141000Y-87884000D01*
X137481000Y-90484000D02*
X138811000Y-90484000D01*
X137481000Y-87884000D02*
X137481000Y-80204000D01*
X147106000Y-71183000D02*
X147106000Y-55293000D01*
X144526000Y-55293000D02*
X144526000Y-52753000D01*
X141986000Y-55293000D02*
X141986000Y-52753000D01*
X139446000Y-55293000D02*
X139446000Y-52753000D01*
X136866000Y-71183000D02*
X147106000Y-71183000D01*
X136866000Y-71183000D02*
X136866000Y-55293000D01*
X136866000Y-55293000D02*
X147106000Y-55293000D01*
X101421000Y-76108000D02*
X101421000Y-73448000D01*
X116721000Y-76108000D02*
X101421000Y-76108000D01*
X116721000Y-76108000D02*
X116721000Y-73448000D01*
X119321000Y-74778000D02*
X119321000Y-73448000D01*
X116721000Y-73448000D02*
X101421000Y-73448000D01*
X119321000Y-73448000D02*
X117991000Y-73448000D01*
%LPC*%
D13*
X138811000Y-89154000D03*
D14*
X138811000Y-86614000D03*
D13*
X138811000Y-84074000D03*
X138811000Y-81534000D03*
D15*
X138303000Y-37846000D03*
D16*
X133223000Y-37846000D03*
D17*
X138430000Y-97282000D03*
D18*
X133430000Y-97282000D03*
D14*
X132410000Y-106300000D03*
D13*
X132410000Y-108840000D03*
X132410000Y-111380000D03*
X132410000Y-113920000D03*
D19*
X106553000Y-54737000D03*
D20*
X105283000Y-56007000D03*
X104013000Y-54737000D03*
D21*
X140167500Y-134400000D03*
D22*
X140167500Y-136900000D03*
X140167500Y-139400000D03*
X140167500Y-141900000D03*
D13*
X105610000Y-142280000D03*
X105610000Y-139740000D03*
D14*
X105610000Y-137200000D03*
D13*
X105610000Y-134660000D03*
X105610000Y-132120000D03*
X105610000Y-129580000D03*
X105610000Y-127040000D03*
D14*
X105610000Y-124500000D03*
D13*
X105610000Y-121960000D03*
X105610000Y-119420000D03*
X105610000Y-116880000D03*
X105610000Y-114340000D03*
D14*
X105610000Y-111800000D03*
D13*
X105610000Y-109260000D03*
X105610000Y-106720000D03*
X105610000Y-104180000D03*
X105610000Y-101640000D03*
D14*
X105610000Y-99100000D03*
D13*
X105610000Y-96560000D03*
X105610000Y-94020000D03*
X123390000Y-94020000D03*
X123390000Y-96560000D03*
D14*
X123390000Y-99100000D03*
D13*
X123390000Y-101640000D03*
X123390000Y-104180000D03*
X123390000Y-106720000D03*
X123390000Y-109260000D03*
D14*
X123390000Y-111800000D03*
D13*
X123390000Y-114340000D03*
X123390000Y-116880000D03*
X123390000Y-119420000D03*
X123390000Y-121960000D03*
D14*
X123390000Y-124500000D03*
D13*
X123390000Y-127040000D03*
X123390000Y-129580000D03*
X123390000Y-132120000D03*
X123390000Y-134660000D03*
D14*
X123390000Y-137200000D03*
D13*
X123390000Y-139740000D03*
X123390000Y-142280000D03*
D23*
X111775000Y-142150000D03*
D24*
X112075000Y-139120000D03*
X116925000Y-139120000D03*
D23*
X117225000Y-142150000D03*
D25*
X102300000Y-147750000D03*
D26*
X134112000Y-71755000D03*
D27*
X134112000Y-69215000D03*
X134112000Y-66675000D03*
X134112000Y-64135000D03*
D26*
X134112000Y-61595000D03*
D27*
X134112000Y-59055000D03*
X134112000Y-56515000D03*
X134112000Y-53975000D03*
X111252000Y-53975000D03*
D26*
X111252000Y-56515000D03*
D27*
X111252000Y-59055000D03*
X111252000Y-61595000D03*
X111252000Y-64135000D03*
X111252000Y-66675000D03*
X111252000Y-69215000D03*
X111252000Y-71755000D03*
D28*
X108199000Y-45466000D03*
D29*
X105659000Y-45466000D03*
D30*
X105029000Y-90678000D03*
D31*
X105029000Y-80518000D03*
D32*
X114423000Y-35783000D03*
D33*
X114423000Y-47783000D03*
D34*
X112423000Y-41783000D03*
D33*
X126623000Y-35783000D03*
X126623000Y-47783000D03*
D23*
X108458000Y-41275000D03*
D29*
X100838000Y-41275000D03*
D35*
X133076000Y-45618000D03*
X135616000Y-45618000D03*
X138156000Y-45618000D03*
D29*
X128778000Y-143510000D03*
D23*
X136398000Y-143510000D03*
D14*
X142875000Y-45085000D03*
D13*
X145415000Y-45085000D03*
D30*
X100711000Y-45720000D03*
D31*
X100711000Y-55880000D03*
D25*
X144272000Y-37465000D03*
D30*
X101473000Y-90678000D03*
D31*
X101473000Y-80518000D03*
D25*
X143700000Y-147950000D03*
D36*
X144526000Y-51603000D03*
X141986000Y-51603000D03*
D37*
X139446000Y-51603000D03*
D38*
X141986000Y-68263000D03*
D14*
X117991000Y-74778000D03*
D13*
X115451000Y-74778000D03*
X112911000Y-74778000D03*
X110371000Y-74778000D03*
X107831000Y-74778000D03*
X105291000Y-74778000D03*
X102751000Y-74778000D03*
%LPD*%
M02*
