M48
; DRILL file {KiCad 7.0.10} date Sat Apr 13 19:06:13 2024
; FORMAT={-:-/ absolute / metric / decimal}
; #@! TF.CreationDate,2024-04-13T19:06:13+02:00
; #@! TF.GenerationSoftware,Kicad,Pcbnew,7.0.10
; #@! TF.FileFunction,Plated,1,2,PTH
FMAT,2
METRIC
; #@! TA.AperFunction,Plated,PTH,ComponentDrill
T1C0.750
; #@! TA.AperFunction,Plated,PTH,ComponentDrill
T2C0.800
; #@! TA.AperFunction,Plated,PTH,ComponentDrill
T3C0.900
; #@! TA.AperFunction,Plated,PTH,ComponentDrill
T4C0.950
; #@! TA.AperFunction,Plated,PTH,ComponentDrill
T5C1.000
; #@! TA.AperFunction,Plated,PTH,ComponentDrill
T6C1.016
; #@! TA.AperFunction,Plated,PTH,ComponentDrill
T7C1.020
; #@! TA.AperFunction,Plated,PTH,ComponentDrill
T8C1.100
; #@! TA.AperFunction,Plated,PTH,ComponentDrill
T9C1.290
; #@! TA.AperFunction,Plated,PTH,ComponentDrill
T10C1.320
; #@! TA.AperFunction,Plated,PTH,ComponentDrill
T11C1.520
%
G90
G05
T1
X104.013Y-54.737
X105.283Y-56.007
X106.553Y-54.737
T2
X100.711Y-45.72
X100.711Y-55.88
X101.473Y-80.518
X101.473Y-90.678
X105.029Y-80.518
X105.029Y-90.678
T3
X100.838Y-41.275
X105.659Y-45.466
X108.199Y-45.466
X108.458Y-41.275
X128.778Y-143.51
X133.076Y-45.618
X135.616Y-45.618
X136.398Y-143.51
X138.156Y-45.618
T4
X140.167Y-134.4
X140.167Y-136.9
X140.167Y-139.4
X140.167Y-141.9
T5
X102.751Y-74.778
X105.291Y-74.778
X107.831Y-74.778
X110.371Y-74.778
X112.911Y-74.778
X115.451Y-74.778
X117.991Y-74.778
X132.41Y-106.3
X132.41Y-108.84
X132.41Y-111.38
X132.41Y-113.92
X133.43Y-97.282
X138.43Y-97.282
X138.811Y-81.534
X138.811Y-84.074
X138.811Y-86.614
X138.811Y-89.154
X142.875Y-45.085
X145.415Y-45.085
T6
X111.252Y-53.975
X111.252Y-56.515
X111.252Y-59.055
X111.252Y-61.595
X111.252Y-64.135
X111.252Y-66.675
X111.252Y-69.215
X111.252Y-71.755
X134.112Y-53.975
X134.112Y-56.515
X134.112Y-59.055
X134.112Y-61.595
X134.112Y-64.135
X134.112Y-66.675
X134.112Y-69.215
X134.112Y-71.755
T7
X105.61Y-94.02
X105.61Y-96.56
X105.61Y-99.1
X105.61Y-101.64
X105.61Y-104.18
X105.61Y-106.72
X105.61Y-109.26
X105.61Y-111.8
X105.61Y-114.34
X105.61Y-116.88
X105.61Y-119.42
X105.61Y-121.96
X105.61Y-124.5
X105.61Y-127.04
X105.61Y-129.58
X105.61Y-132.12
X105.61Y-134.66
X105.61Y-137.2
X105.61Y-139.74
X105.61Y-142.28
X123.39Y-94.02
X123.39Y-96.56
X123.39Y-99.1
X123.39Y-101.64
X123.39Y-104.18
X123.39Y-106.72
X123.39Y-109.26
X123.39Y-111.8
X123.39Y-114.34
X123.39Y-116.88
X123.39Y-119.42
X123.39Y-121.96
X123.39Y-124.5
X123.39Y-127.04
X123.39Y-129.58
X123.39Y-132.12
X123.39Y-134.66
X123.39Y-137.2
X123.39Y-139.74
X123.39Y-142.28
T8
X139.446Y-51.603
X141.986Y-51.603
X144.526Y-51.603
T9
X112.423Y-41.783
T10
X114.423Y-35.783
X114.423Y-47.783
X126.623Y-35.783
X126.623Y-47.783
T11
X133.223Y-37.846
X138.303Y-37.846
M30
