%TF.GenerationSoftware,KiCad,Pcbnew,8.0.5*%
%TF.CreationDate,2024-10-11T00:49:00+02:00*%
%TF.ProjectId,RocketBoard,526f636b-6574-4426-9f61-72642e6b6963,rev?*%
%TF.SameCoordinates,Original*%
%TF.FileFunction,Legend,Top*%
%TF.FilePolarity,Positive*%
%FSLAX46Y46*%
G04 Gerber Fmt 4.6, Leading zero omitted, Abs format (unit mm)*
G04 Created by KiCad (PCBNEW 8.0.5) date 2024-10-11 00:49:00*
%MOMM*%
%LPD*%
G01*
G04 APERTURE LIST*
G04 Aperture macros list*
%AMRoundRect*
0 Rectangle with rounded corners*
0 $1 Rounding radius*
0 $2 $3 $4 $5 $6 $7 $8 $9 X,Y pos of 4 corners*
0 Add a 4 corners polygon primitive as box body*
4,1,4,$2,$3,$4,$5,$6,$7,$8,$9,$2,$3,0*
0 Add four circle primitives for the rounded corners*
1,1,$1+$1,$2,$3*
1,1,$1+$1,$4,$5*
1,1,$1+$1,$6,$7*
1,1,$1+$1,$8,$9*
0 Add four rect primitives between the rounded corners*
20,1,$1+$1,$2,$3,$4,$5,0*
20,1,$1+$1,$4,$5,$6,$7,0*
20,1,$1+$1,$6,$7,$8,$9,0*
20,1,$1+$1,$8,$9,$2,$3,0*%
G04 Aperture macros list end*
%ADD10C,0.160000*%
%ADD11C,0.150000*%
%ADD12C,0.300000*%
%ADD13C,0.250000*%
%ADD14C,0.100000*%
%ADD15C,0.125000*%
%ADD16C,0.120000*%
%ADD17C,0.200000*%
%ADD18C,0.127000*%
%ADD19C,1.400000*%
%ADD20O,1.400000X1.400000*%
%ADD21R,2.000000X2.000000*%
%ADD22C,2.000000*%
%ADD23R,1.700000X1.700000*%
%ADD24O,1.700000X1.700000*%
%ADD25C,2.100000*%
%ADD26R,1.300000X1.300000*%
%ADD27C,1.300000*%
%ADD28RoundRect,0.250000X-0.725000X0.600000X-0.725000X-0.600000X0.725000X-0.600000X0.725000X0.600000X0*%
%ADD29O,1.950000X1.700000*%
%ADD30O,1.800000X1.800000*%
%ADD31O,1.500000X1.500000*%
%ADD32R,3.500000X1.700000*%
%ADD33R,1.700000X3.500000*%
%ADD34C,1.676400*%
%ADD35RoundRect,0.102000X0.762000X0.762000X-0.762000X0.762000X-0.762000X-0.762000X0.762000X-0.762000X0*%
%ADD36O,3.252000X1.728000*%
%ADD37R,1.800000X1.800000*%
%ADD38C,1.800000*%
%ADD39R,1.524000X1.524000*%
%ADD40C,1.524000*%
%ADD41O,2.200000X1.400000*%
%ADD42R,1.120000X2.440000*%
%ADD43C,1.600000*%
%ADD44O,1.600000X1.600000*%
%ADD45R,3.000000X3.000000*%
%ADD46C,3.000000*%
%ADD47O,3.500000X3.500000*%
%ADD48R,1.905000X2.000000*%
%ADD49O,1.905000X2.000000*%
G04 APERTURE END LIST*
D10*
X105182786Y-90401775D02*
X104725643Y-90401775D01*
X104954215Y-90401775D02*
X104954215Y-89601775D01*
X104954215Y-89601775D02*
X104878024Y-89716060D01*
X104878024Y-89716060D02*
X104801834Y-89792251D01*
X104801834Y-89792251D02*
X104725643Y-89830346D01*
X105678025Y-89601775D02*
X105754215Y-89601775D01*
X105754215Y-89601775D02*
X105830406Y-89639870D01*
X105830406Y-89639870D02*
X105868501Y-89677965D01*
X105868501Y-89677965D02*
X105906596Y-89754156D01*
X105906596Y-89754156D02*
X105944691Y-89906537D01*
X105944691Y-89906537D02*
X105944691Y-90097013D01*
X105944691Y-90097013D02*
X105906596Y-90249394D01*
X105906596Y-90249394D02*
X105868501Y-90325584D01*
X105868501Y-90325584D02*
X105830406Y-90363680D01*
X105830406Y-90363680D02*
X105754215Y-90401775D01*
X105754215Y-90401775D02*
X105678025Y-90401775D01*
X105678025Y-90401775D02*
X105601834Y-90363680D01*
X105601834Y-90363680D02*
X105563739Y-90325584D01*
X105563739Y-90325584D02*
X105525644Y-90249394D01*
X105525644Y-90249394D02*
X105487548Y-90097013D01*
X105487548Y-90097013D02*
X105487548Y-89906537D01*
X105487548Y-89906537D02*
X105525644Y-89754156D01*
X105525644Y-89754156D02*
X105563739Y-89677965D01*
X105563739Y-89677965D02*
X105601834Y-89639870D01*
X105601834Y-89639870D02*
X105678025Y-89601775D01*
X106287549Y-90401775D02*
X106287549Y-89601775D01*
X106744692Y-90401775D02*
X106401834Y-89944632D01*
X106744692Y-89601775D02*
X106287549Y-90058918D01*
D11*
X136900000Y-123950000D02*
X139500000Y-123950000D01*
X140500000Y-123950000D02*
G75*
G02*
X138500000Y-123950000I-1000000J0D01*
G01*
X138500000Y-123950000D02*
G75*
G02*
X140500000Y-123950000I1000000J0D01*
G01*
X139500000Y-123950000D02*
X139500000Y-121150000D01*
X131258000Y-136763000D02*
X132758000Y-136763000D01*
X134658000Y-136163000D02*
X133058000Y-137363000D01*
X131843000Y-103900000D02*
X147443000Y-103900000D01*
X147443000Y-129700000D01*
X131843000Y-129700000D01*
X131843000Y-103900000D01*
X133258000Y-135963000D02*
X134458000Y-137563000D01*
X133858000Y-135763000D02*
X133858000Y-133963000D01*
X134858000Y-136763000D02*
G75*
G02*
X132858000Y-136763000I-1000000J0D01*
G01*
X132858000Y-136763000D02*
G75*
G02*
X134858000Y-136763000I1000000J0D01*
G01*
D12*
X111567997Y-148321066D02*
X111567997Y-146921066D01*
X111567997Y-146921066D02*
X112034664Y-147921066D01*
X112034664Y-147921066D02*
X112501330Y-146921066D01*
X112501330Y-146921066D02*
X112501330Y-148321066D01*
X113767997Y-148321066D02*
X113767997Y-147587733D01*
X113767997Y-147587733D02*
X113701330Y-147454400D01*
X113701330Y-147454400D02*
X113567997Y-147387733D01*
X113567997Y-147387733D02*
X113301330Y-147387733D01*
X113301330Y-147387733D02*
X113167997Y-147454400D01*
X113767997Y-148254400D02*
X113634664Y-148321066D01*
X113634664Y-148321066D02*
X113301330Y-148321066D01*
X113301330Y-148321066D02*
X113167997Y-148254400D01*
X113167997Y-148254400D02*
X113101330Y-148121066D01*
X113101330Y-148121066D02*
X113101330Y-147987733D01*
X113101330Y-147987733D02*
X113167997Y-147854400D01*
X113167997Y-147854400D02*
X113301330Y-147787733D01*
X113301330Y-147787733D02*
X113634664Y-147787733D01*
X113634664Y-147787733D02*
X113767997Y-147721066D01*
X115034664Y-148321066D02*
X115034664Y-146921066D01*
X115034664Y-148254400D02*
X114901331Y-148321066D01*
X114901331Y-148321066D02*
X114634664Y-148321066D01*
X114634664Y-148321066D02*
X114501331Y-148254400D01*
X114501331Y-148254400D02*
X114434664Y-148187733D01*
X114434664Y-148187733D02*
X114367997Y-148054400D01*
X114367997Y-148054400D02*
X114367997Y-147654400D01*
X114367997Y-147654400D02*
X114434664Y-147521066D01*
X114434664Y-147521066D02*
X114501331Y-147454400D01*
X114501331Y-147454400D02*
X114634664Y-147387733D01*
X114634664Y-147387733D02*
X114901331Y-147387733D01*
X114901331Y-147387733D02*
X115034664Y-147454400D01*
X116234664Y-148254400D02*
X116101331Y-148321066D01*
X116101331Y-148321066D02*
X115834664Y-148321066D01*
X115834664Y-148321066D02*
X115701331Y-148254400D01*
X115701331Y-148254400D02*
X115634664Y-148121066D01*
X115634664Y-148121066D02*
X115634664Y-147587733D01*
X115634664Y-147587733D02*
X115701331Y-147454400D01*
X115701331Y-147454400D02*
X115834664Y-147387733D01*
X115834664Y-147387733D02*
X116101331Y-147387733D01*
X116101331Y-147387733D02*
X116234664Y-147454400D01*
X116234664Y-147454400D02*
X116301331Y-147587733D01*
X116301331Y-147587733D02*
X116301331Y-147721066D01*
X116301331Y-147721066D02*
X115634664Y-147854400D01*
X117967998Y-148321066D02*
X117967998Y-146921066D01*
X117967998Y-147454400D02*
X118101331Y-147387733D01*
X118101331Y-147387733D02*
X118367998Y-147387733D01*
X118367998Y-147387733D02*
X118501331Y-147454400D01*
X118501331Y-147454400D02*
X118567998Y-147521066D01*
X118567998Y-147521066D02*
X118634665Y-147654400D01*
X118634665Y-147654400D02*
X118634665Y-148054400D01*
X118634665Y-148054400D02*
X118567998Y-148187733D01*
X118567998Y-148187733D02*
X118501331Y-148254400D01*
X118501331Y-148254400D02*
X118367998Y-148321066D01*
X118367998Y-148321066D02*
X118101331Y-148321066D01*
X118101331Y-148321066D02*
X117967998Y-148254400D01*
X119101332Y-147387733D02*
X119434665Y-148321066D01*
X119767998Y-147387733D02*
X119434665Y-148321066D01*
X119434665Y-148321066D02*
X119301332Y-148654400D01*
X119301332Y-148654400D02*
X119234665Y-148721066D01*
X119234665Y-148721066D02*
X119101332Y-148787733D01*
X121301332Y-148254400D02*
X121501332Y-148321066D01*
X121501332Y-148321066D02*
X121834666Y-148321066D01*
X121834666Y-148321066D02*
X121967999Y-148254400D01*
X121967999Y-148254400D02*
X122034666Y-148187733D01*
X122034666Y-148187733D02*
X122101332Y-148054400D01*
X122101332Y-148054400D02*
X122101332Y-147921066D01*
X122101332Y-147921066D02*
X122034666Y-147787733D01*
X122034666Y-147787733D02*
X121967999Y-147721066D01*
X121967999Y-147721066D02*
X121834666Y-147654400D01*
X121834666Y-147654400D02*
X121567999Y-147587733D01*
X121567999Y-147587733D02*
X121434666Y-147521066D01*
X121434666Y-147521066D02*
X121367999Y-147454400D01*
X121367999Y-147454400D02*
X121301332Y-147321066D01*
X121301332Y-147321066D02*
X121301332Y-147187733D01*
X121301332Y-147187733D02*
X121367999Y-147054400D01*
X121367999Y-147054400D02*
X121434666Y-146987733D01*
X121434666Y-146987733D02*
X121567999Y-146921066D01*
X121567999Y-146921066D02*
X121901332Y-146921066D01*
X121901332Y-146921066D02*
X122101332Y-146987733D01*
X122701332Y-148321066D02*
X122701332Y-147387733D01*
X122701332Y-146921066D02*
X122634665Y-146987733D01*
X122634665Y-146987733D02*
X122701332Y-147054400D01*
X122701332Y-147054400D02*
X122767999Y-146987733D01*
X122767999Y-146987733D02*
X122701332Y-146921066D01*
X122701332Y-146921066D02*
X122701332Y-147054400D01*
X123367999Y-148321066D02*
X123367999Y-147387733D01*
X123367999Y-147521066D02*
X123434666Y-147454400D01*
X123434666Y-147454400D02*
X123567999Y-147387733D01*
X123567999Y-147387733D02*
X123767999Y-147387733D01*
X123767999Y-147387733D02*
X123901332Y-147454400D01*
X123901332Y-147454400D02*
X123967999Y-147587733D01*
X123967999Y-147587733D02*
X123967999Y-148321066D01*
X123967999Y-147587733D02*
X124034666Y-147454400D01*
X124034666Y-147454400D02*
X124167999Y-147387733D01*
X124167999Y-147387733D02*
X124367999Y-147387733D01*
X124367999Y-147387733D02*
X124501332Y-147454400D01*
X124501332Y-147454400D02*
X124567999Y-147587733D01*
X124567999Y-147587733D02*
X124567999Y-148321066D01*
X125434666Y-148321066D02*
X125301333Y-148254400D01*
X125301333Y-148254400D02*
X125234666Y-148187733D01*
X125234666Y-148187733D02*
X125167999Y-148054400D01*
X125167999Y-148054400D02*
X125167999Y-147654400D01*
X125167999Y-147654400D02*
X125234666Y-147521066D01*
X125234666Y-147521066D02*
X125301333Y-147454400D01*
X125301333Y-147454400D02*
X125434666Y-147387733D01*
X125434666Y-147387733D02*
X125634666Y-147387733D01*
X125634666Y-147387733D02*
X125767999Y-147454400D01*
X125767999Y-147454400D02*
X125834666Y-147521066D01*
X125834666Y-147521066D02*
X125901333Y-147654400D01*
X125901333Y-147654400D02*
X125901333Y-148054400D01*
X125901333Y-148054400D02*
X125834666Y-148187733D01*
X125834666Y-148187733D02*
X125767999Y-148254400D01*
X125767999Y-148254400D02*
X125634666Y-148321066D01*
X125634666Y-148321066D02*
X125434666Y-148321066D01*
X126501333Y-147387733D02*
X126501333Y-148321066D01*
X126501333Y-147521066D02*
X126568000Y-147454400D01*
X126568000Y-147454400D02*
X126701333Y-147387733D01*
X126701333Y-147387733D02*
X126901333Y-147387733D01*
X126901333Y-147387733D02*
X127034666Y-147454400D01*
X127034666Y-147454400D02*
X127101333Y-147587733D01*
X127101333Y-147587733D02*
X127101333Y-148321066D01*
X128301333Y-148254400D02*
X128168000Y-148321066D01*
X128168000Y-148321066D02*
X127901333Y-148321066D01*
X127901333Y-148321066D02*
X127768000Y-148254400D01*
X127768000Y-148254400D02*
X127701333Y-148121066D01*
X127701333Y-148121066D02*
X127701333Y-147587733D01*
X127701333Y-147587733D02*
X127768000Y-147454400D01*
X127768000Y-147454400D02*
X127901333Y-147387733D01*
X127901333Y-147387733D02*
X128168000Y-147387733D01*
X128168000Y-147387733D02*
X128301333Y-147454400D01*
X128301333Y-147454400D02*
X128368000Y-147587733D01*
X128368000Y-147587733D02*
X128368000Y-147721066D01*
X128368000Y-147721066D02*
X127701333Y-147854400D01*
X130834667Y-148187733D02*
X130768000Y-148254400D01*
X130768000Y-148254400D02*
X130568000Y-148321066D01*
X130568000Y-148321066D02*
X130434667Y-148321066D01*
X130434667Y-148321066D02*
X130234667Y-148254400D01*
X130234667Y-148254400D02*
X130101334Y-148121066D01*
X130101334Y-148121066D02*
X130034667Y-147987733D01*
X130034667Y-147987733D02*
X129968000Y-147721066D01*
X129968000Y-147721066D02*
X129968000Y-147521066D01*
X129968000Y-147521066D02*
X130034667Y-147254400D01*
X130034667Y-147254400D02*
X130101334Y-147121066D01*
X130101334Y-147121066D02*
X130234667Y-146987733D01*
X130234667Y-146987733D02*
X130434667Y-146921066D01*
X130434667Y-146921066D02*
X130568000Y-146921066D01*
X130568000Y-146921066D02*
X130768000Y-146987733D01*
X130768000Y-146987733D02*
X130834667Y-147054400D01*
X132034667Y-148321066D02*
X132034667Y-147587733D01*
X132034667Y-147587733D02*
X131968000Y-147454400D01*
X131968000Y-147454400D02*
X131834667Y-147387733D01*
X131834667Y-147387733D02*
X131568000Y-147387733D01*
X131568000Y-147387733D02*
X131434667Y-147454400D01*
X132034667Y-148254400D02*
X131901334Y-148321066D01*
X131901334Y-148321066D02*
X131568000Y-148321066D01*
X131568000Y-148321066D02*
X131434667Y-148254400D01*
X131434667Y-148254400D02*
X131368000Y-148121066D01*
X131368000Y-148121066D02*
X131368000Y-147987733D01*
X131368000Y-147987733D02*
X131434667Y-147854400D01*
X131434667Y-147854400D02*
X131568000Y-147787733D01*
X131568000Y-147787733D02*
X131901334Y-147787733D01*
X131901334Y-147787733D02*
X132034667Y-147721066D01*
X132701334Y-148321066D02*
X132701334Y-147387733D01*
X132701334Y-147654400D02*
X132768001Y-147521066D01*
X132768001Y-147521066D02*
X132834667Y-147454400D01*
X132834667Y-147454400D02*
X132968001Y-147387733D01*
X132968001Y-147387733D02*
X133101334Y-147387733D01*
X134168001Y-147387733D02*
X134168001Y-148521066D01*
X134168001Y-148521066D02*
X134101334Y-148654400D01*
X134101334Y-148654400D02*
X134034668Y-148721066D01*
X134034668Y-148721066D02*
X133901334Y-148787733D01*
X133901334Y-148787733D02*
X133701334Y-148787733D01*
X133701334Y-148787733D02*
X133568001Y-148721066D01*
X134168001Y-148254400D02*
X134034668Y-148321066D01*
X134034668Y-148321066D02*
X133768001Y-148321066D01*
X133768001Y-148321066D02*
X133634668Y-148254400D01*
X133634668Y-148254400D02*
X133568001Y-148187733D01*
X133568001Y-148187733D02*
X133501334Y-148054400D01*
X133501334Y-148054400D02*
X133501334Y-147654400D01*
X133501334Y-147654400D02*
X133568001Y-147521066D01*
X133568001Y-147521066D02*
X133634668Y-147454400D01*
X133634668Y-147454400D02*
X133768001Y-147387733D01*
X133768001Y-147387733D02*
X134034668Y-147387733D01*
X134034668Y-147387733D02*
X134168001Y-147454400D01*
X134834668Y-147387733D02*
X134834668Y-148321066D01*
X134834668Y-147521066D02*
X134901335Y-147454400D01*
X134901335Y-147454400D02*
X135034668Y-147387733D01*
X135034668Y-147387733D02*
X135234668Y-147387733D01*
X135234668Y-147387733D02*
X135368001Y-147454400D01*
X135368001Y-147454400D02*
X135434668Y-147587733D01*
X135434668Y-147587733D02*
X135434668Y-148321066D01*
X136101335Y-148321066D02*
X136101335Y-147387733D01*
X136101335Y-146921066D02*
X136034668Y-146987733D01*
X136034668Y-146987733D02*
X136101335Y-147054400D01*
X136101335Y-147054400D02*
X136168002Y-146987733D01*
X136168002Y-146987733D02*
X136101335Y-146921066D01*
X136101335Y-146921066D02*
X136101335Y-147054400D01*
X136768002Y-147387733D02*
X136768002Y-148321066D01*
X136768002Y-147521066D02*
X136834669Y-147454400D01*
X136834669Y-147454400D02*
X136968002Y-147387733D01*
X136968002Y-147387733D02*
X137168002Y-147387733D01*
X137168002Y-147387733D02*
X137301335Y-147454400D01*
X137301335Y-147454400D02*
X137368002Y-147587733D01*
X137368002Y-147587733D02*
X137368002Y-148321066D01*
D11*
X130585255Y-136756628D02*
X130585255Y-137232819D01*
X130251922Y-136232819D02*
X130585255Y-136756628D01*
X130585255Y-136756628D02*
X130918588Y-136232819D01*
D12*
X100022510Y-77808828D02*
X100022510Y-76308828D01*
X100022510Y-76308828D02*
X100379653Y-76308828D01*
X100379653Y-76308828D02*
X100593939Y-76380257D01*
X100593939Y-76380257D02*
X100736796Y-76523114D01*
X100736796Y-76523114D02*
X100808225Y-76665971D01*
X100808225Y-76665971D02*
X100879653Y-76951685D01*
X100879653Y-76951685D02*
X100879653Y-77165971D01*
X100879653Y-77165971D02*
X100808225Y-77451685D01*
X100808225Y-77451685D02*
X100736796Y-77594542D01*
X100736796Y-77594542D02*
X100593939Y-77737400D01*
X100593939Y-77737400D02*
X100379653Y-77808828D01*
X100379653Y-77808828D02*
X100022510Y-77808828D01*
X101451082Y-77380257D02*
X102165368Y-77380257D01*
X101308225Y-77808828D02*
X101808225Y-76308828D01*
X101808225Y-76308828D02*
X102308225Y-77808828D01*
X102593939Y-76308828D02*
X103451082Y-76308828D01*
X103022510Y-77808828D02*
X103022510Y-76308828D01*
X103879653Y-77380257D02*
X104593939Y-77380257D01*
X103736796Y-77808828D02*
X104236796Y-76308828D01*
X104236796Y-76308828D02*
X104736796Y-77808828D01*
D11*
X139141541Y-119419819D02*
X139808207Y-120419819D01*
X139808207Y-119419819D02*
X139141541Y-120419819D01*
D13*
X141061044Y-50372619D02*
X141251520Y-50372619D01*
X141251520Y-50372619D02*
X141346758Y-50420238D01*
X141346758Y-50420238D02*
X141441996Y-50515476D01*
X141441996Y-50515476D02*
X141489615Y-50705952D01*
X141489615Y-50705952D02*
X141489615Y-51039285D01*
X141489615Y-51039285D02*
X141441996Y-51229761D01*
X141441996Y-51229761D02*
X141346758Y-51325000D01*
X141346758Y-51325000D02*
X141251520Y-51372619D01*
X141251520Y-51372619D02*
X141061044Y-51372619D01*
X141061044Y-51372619D02*
X140965806Y-51325000D01*
X140965806Y-51325000D02*
X140870568Y-51229761D01*
X140870568Y-51229761D02*
X140822949Y-51039285D01*
X140822949Y-51039285D02*
X140822949Y-50705952D01*
X140822949Y-50705952D02*
X140870568Y-50515476D01*
X140870568Y-50515476D02*
X140965806Y-50420238D01*
X140965806Y-50420238D02*
X141061044Y-50372619D01*
X141918187Y-51372619D02*
X141918187Y-50372619D01*
X141918187Y-50372619D02*
X142489615Y-51372619D01*
X142489615Y-51372619D02*
X142489615Y-50372619D01*
X143680091Y-50325000D02*
X142822949Y-51610714D01*
X144203901Y-50372619D02*
X144394377Y-50372619D01*
X144394377Y-50372619D02*
X144489615Y-50420238D01*
X144489615Y-50420238D02*
X144584853Y-50515476D01*
X144584853Y-50515476D02*
X144632472Y-50705952D01*
X144632472Y-50705952D02*
X144632472Y-51039285D01*
X144632472Y-51039285D02*
X144584853Y-51229761D01*
X144584853Y-51229761D02*
X144489615Y-51325000D01*
X144489615Y-51325000D02*
X144394377Y-51372619D01*
X144394377Y-51372619D02*
X144203901Y-51372619D01*
X144203901Y-51372619D02*
X144108663Y-51325000D01*
X144108663Y-51325000D02*
X144013425Y-51229761D01*
X144013425Y-51229761D02*
X143965806Y-51039285D01*
X143965806Y-51039285D02*
X143965806Y-50705952D01*
X143965806Y-50705952D02*
X144013425Y-50515476D01*
X144013425Y-50515476D02*
X144108663Y-50420238D01*
X144108663Y-50420238D02*
X144203901Y-50372619D01*
X145394377Y-50848809D02*
X145061044Y-50848809D01*
X145061044Y-51372619D02*
X145061044Y-50372619D01*
X145061044Y-50372619D02*
X145537234Y-50372619D01*
X146251520Y-50848809D02*
X145918187Y-50848809D01*
X145918187Y-51372619D02*
X145918187Y-50372619D01*
X145918187Y-50372619D02*
X146394377Y-50372619D01*
D11*
X136427255Y-123743628D02*
X136427255Y-124219819D01*
X136093922Y-123219819D02*
X136427255Y-123743628D01*
X136427255Y-123743628D02*
X136760588Y-123219819D01*
D13*
X124322949Y-46325000D02*
X124465806Y-46372619D01*
X124465806Y-46372619D02*
X124703901Y-46372619D01*
X124703901Y-46372619D02*
X124799139Y-46325000D01*
X124799139Y-46325000D02*
X124846758Y-46277380D01*
X124846758Y-46277380D02*
X124894377Y-46182142D01*
X124894377Y-46182142D02*
X124894377Y-46086904D01*
X124894377Y-46086904D02*
X124846758Y-45991666D01*
X124846758Y-45991666D02*
X124799139Y-45944047D01*
X124799139Y-45944047D02*
X124703901Y-45896428D01*
X124703901Y-45896428D02*
X124513425Y-45848809D01*
X124513425Y-45848809D02*
X124418187Y-45801190D01*
X124418187Y-45801190D02*
X124370568Y-45753571D01*
X124370568Y-45753571D02*
X124322949Y-45658333D01*
X124322949Y-45658333D02*
X124322949Y-45563095D01*
X124322949Y-45563095D02*
X124370568Y-45467857D01*
X124370568Y-45467857D02*
X124418187Y-45420238D01*
X124418187Y-45420238D02*
X124513425Y-45372619D01*
X124513425Y-45372619D02*
X124751520Y-45372619D01*
X124751520Y-45372619D02*
X124894377Y-45420238D01*
X125275330Y-46325000D02*
X125418187Y-46372619D01*
X125418187Y-46372619D02*
X125656282Y-46372619D01*
X125656282Y-46372619D02*
X125751520Y-46325000D01*
X125751520Y-46325000D02*
X125799139Y-46277380D01*
X125799139Y-46277380D02*
X125846758Y-46182142D01*
X125846758Y-46182142D02*
X125846758Y-46086904D01*
X125846758Y-46086904D02*
X125799139Y-45991666D01*
X125799139Y-45991666D02*
X125751520Y-45944047D01*
X125751520Y-45944047D02*
X125656282Y-45896428D01*
X125656282Y-45896428D02*
X125465806Y-45848809D01*
X125465806Y-45848809D02*
X125370568Y-45801190D01*
X125370568Y-45801190D02*
X125322949Y-45753571D01*
X125322949Y-45753571D02*
X125275330Y-45658333D01*
X125275330Y-45658333D02*
X125275330Y-45563095D01*
X125275330Y-45563095D02*
X125322949Y-45467857D01*
X125322949Y-45467857D02*
X125370568Y-45420238D01*
X125370568Y-45420238D02*
X125465806Y-45372619D01*
X125465806Y-45372619D02*
X125703901Y-45372619D01*
X125703901Y-45372619D02*
X125846758Y-45420238D01*
X126846758Y-46372619D02*
X126513425Y-45896428D01*
X126275330Y-46372619D02*
X126275330Y-45372619D01*
X126275330Y-45372619D02*
X126656282Y-45372619D01*
X126656282Y-45372619D02*
X126751520Y-45420238D01*
X126751520Y-45420238D02*
X126799139Y-45467857D01*
X126799139Y-45467857D02*
X126846758Y-45563095D01*
X126846758Y-45563095D02*
X126846758Y-45705952D01*
X126846758Y-45705952D02*
X126799139Y-45801190D01*
X126799139Y-45801190D02*
X126751520Y-45848809D01*
X126751520Y-45848809D02*
X126656282Y-45896428D01*
X126656282Y-45896428D02*
X126275330Y-45896428D01*
X127275330Y-45991666D02*
X128037235Y-45991666D01*
X128941996Y-45705952D02*
X128941996Y-46372619D01*
X128703901Y-45325000D02*
X128465806Y-46039285D01*
X128465806Y-46039285D02*
X129084853Y-46039285D01*
X129989615Y-46372619D02*
X129418187Y-46372619D01*
X129703901Y-46372619D02*
X129703901Y-45372619D01*
X129703901Y-45372619D02*
X129608663Y-45515476D01*
X129608663Y-45515476D02*
X129513425Y-45610714D01*
X129513425Y-45610714D02*
X129418187Y-45658333D01*
X130751520Y-45848809D02*
X130418187Y-45848809D01*
X130418187Y-46372619D02*
X130418187Y-45372619D01*
X130418187Y-45372619D02*
X130894377Y-45372619D01*
X131275330Y-46372619D02*
X131275330Y-45372619D01*
X131275330Y-45372619D02*
X131513425Y-45372619D01*
X131513425Y-45372619D02*
X131656282Y-45420238D01*
X131656282Y-45420238D02*
X131751520Y-45515476D01*
X131751520Y-45515476D02*
X131799139Y-45610714D01*
X131799139Y-45610714D02*
X131846758Y-45801190D01*
X131846758Y-45801190D02*
X131846758Y-45944047D01*
X131846758Y-45944047D02*
X131799139Y-46134523D01*
X131799139Y-46134523D02*
X131751520Y-46229761D01*
X131751520Y-46229761D02*
X131656282Y-46325000D01*
X131656282Y-46325000D02*
X131513425Y-46372619D01*
X131513425Y-46372619D02*
X131275330Y-46372619D01*
X132227711Y-46086904D02*
X132703901Y-46086904D01*
X132132473Y-46372619D02*
X132465806Y-45372619D01*
X132465806Y-45372619D02*
X132799139Y-46372619D01*
D11*
X135299541Y-137632819D02*
X135966207Y-138632819D01*
X135966207Y-137632819D02*
X135299541Y-138632819D01*
D13*
X104832619Y-86414955D02*
X104832619Y-86224479D01*
X104832619Y-86224479D02*
X104880238Y-86129241D01*
X104880238Y-86129241D02*
X104975476Y-86034003D01*
X104975476Y-86034003D02*
X105165952Y-85986384D01*
X105165952Y-85986384D02*
X105499285Y-85986384D01*
X105499285Y-85986384D02*
X105689761Y-86034003D01*
X105689761Y-86034003D02*
X105785000Y-86129241D01*
X105785000Y-86129241D02*
X105832619Y-86224479D01*
X105832619Y-86224479D02*
X105832619Y-86414955D01*
X105832619Y-86414955D02*
X105785000Y-86510193D01*
X105785000Y-86510193D02*
X105689761Y-86605431D01*
X105689761Y-86605431D02*
X105499285Y-86653050D01*
X105499285Y-86653050D02*
X105165952Y-86653050D01*
X105165952Y-86653050D02*
X104975476Y-86605431D01*
X104975476Y-86605431D02*
X104880238Y-86510193D01*
X104880238Y-86510193D02*
X104832619Y-86414955D01*
X105308809Y-85224479D02*
X105308809Y-85557812D01*
X105832619Y-85557812D02*
X104832619Y-85557812D01*
X104832619Y-85557812D02*
X104832619Y-85081622D01*
X105308809Y-84367336D02*
X105308809Y-84700669D01*
X105832619Y-84700669D02*
X104832619Y-84700669D01*
X104832619Y-84700669D02*
X104832619Y-84224479D01*
X104785000Y-83129241D02*
X106070714Y-83986383D01*
X104832619Y-82605431D02*
X104832619Y-82414955D01*
X104832619Y-82414955D02*
X104880238Y-82319717D01*
X104880238Y-82319717D02*
X104975476Y-82224479D01*
X104975476Y-82224479D02*
X105165952Y-82176860D01*
X105165952Y-82176860D02*
X105499285Y-82176860D01*
X105499285Y-82176860D02*
X105689761Y-82224479D01*
X105689761Y-82224479D02*
X105785000Y-82319717D01*
X105785000Y-82319717D02*
X105832619Y-82414955D01*
X105832619Y-82414955D02*
X105832619Y-82605431D01*
X105832619Y-82605431D02*
X105785000Y-82700669D01*
X105785000Y-82700669D02*
X105689761Y-82795907D01*
X105689761Y-82795907D02*
X105499285Y-82843526D01*
X105499285Y-82843526D02*
X105165952Y-82843526D01*
X105165952Y-82843526D02*
X104975476Y-82795907D01*
X104975476Y-82795907D02*
X104880238Y-82700669D01*
X104880238Y-82700669D02*
X104832619Y-82605431D01*
X105832619Y-81748288D02*
X104832619Y-81748288D01*
X104832619Y-81748288D02*
X105832619Y-81176860D01*
X105832619Y-81176860D02*
X104832619Y-81176860D01*
D11*
X140741541Y-124419819D02*
X141408207Y-124419819D01*
X141408207Y-124419819D02*
X140741541Y-125419819D01*
X140741541Y-125419819D02*
X141408207Y-125419819D01*
X133699541Y-132232819D02*
X134366207Y-132232819D01*
X134366207Y-132232819D02*
X133699541Y-133232819D01*
X133699541Y-133232819D02*
X134366207Y-133232819D01*
X141005451Y-100632819D02*
X141005451Y-101347104D01*
X141005451Y-101347104D02*
X140957832Y-101489961D01*
X140957832Y-101489961D02*
X140862594Y-101585200D01*
X140862594Y-101585200D02*
X140719737Y-101632819D01*
X140719737Y-101632819D02*
X140624499Y-101632819D01*
X141957832Y-100632819D02*
X141481642Y-100632819D01*
X141481642Y-100632819D02*
X141434023Y-101109009D01*
X141434023Y-101109009D02*
X141481642Y-101061390D01*
X141481642Y-101061390D02*
X141576880Y-101013771D01*
X141576880Y-101013771D02*
X141814975Y-101013771D01*
X141814975Y-101013771D02*
X141910213Y-101061390D01*
X141910213Y-101061390D02*
X141957832Y-101109009D01*
X141957832Y-101109009D02*
X142005451Y-101204247D01*
X142005451Y-101204247D02*
X142005451Y-101442342D01*
X142005451Y-101442342D02*
X141957832Y-101537580D01*
X141957832Y-101537580D02*
X141910213Y-101585200D01*
X141910213Y-101585200D02*
X141814975Y-101632819D01*
X141814975Y-101632819D02*
X141576880Y-101632819D01*
X141576880Y-101632819D02*
X141481642Y-101585200D01*
X141481642Y-101585200D02*
X141434023Y-101537580D01*
X132799009Y-125816952D02*
X132846628Y-125674095D01*
X132846628Y-125674095D02*
X132894247Y-125626476D01*
X132894247Y-125626476D02*
X132989485Y-125578857D01*
X132989485Y-125578857D02*
X133132342Y-125578857D01*
X133132342Y-125578857D02*
X133227580Y-125626476D01*
X133227580Y-125626476D02*
X133275200Y-125674095D01*
X133275200Y-125674095D02*
X133322819Y-125769333D01*
X133322819Y-125769333D02*
X133322819Y-126150285D01*
X133322819Y-126150285D02*
X132322819Y-126150285D01*
X132322819Y-126150285D02*
X132322819Y-125816952D01*
X132322819Y-125816952D02*
X132370438Y-125721714D01*
X132370438Y-125721714D02*
X132418057Y-125674095D01*
X132418057Y-125674095D02*
X132513295Y-125626476D01*
X132513295Y-125626476D02*
X132608533Y-125626476D01*
X132608533Y-125626476D02*
X132703771Y-125674095D01*
X132703771Y-125674095D02*
X132751390Y-125721714D01*
X132751390Y-125721714D02*
X132799009Y-125816952D01*
X132799009Y-125816952D02*
X132799009Y-126150285D01*
X133322819Y-125150285D02*
X132322819Y-125150285D01*
X132322819Y-125150285D02*
X133322819Y-124578857D01*
X133322819Y-124578857D02*
X132322819Y-124578857D01*
X132322819Y-123912190D02*
X132322819Y-123721714D01*
X132322819Y-123721714D02*
X132370438Y-123626476D01*
X132370438Y-123626476D02*
X132465676Y-123531238D01*
X132465676Y-123531238D02*
X132656152Y-123483619D01*
X132656152Y-123483619D02*
X132989485Y-123483619D01*
X132989485Y-123483619D02*
X133179961Y-123531238D01*
X133179961Y-123531238D02*
X133275200Y-123626476D01*
X133275200Y-123626476D02*
X133322819Y-123721714D01*
X133322819Y-123721714D02*
X133322819Y-123912190D01*
X133322819Y-123912190D02*
X133275200Y-124007428D01*
X133275200Y-124007428D02*
X133179961Y-124102666D01*
X133179961Y-124102666D02*
X132989485Y-124150285D01*
X132989485Y-124150285D02*
X132656152Y-124150285D01*
X132656152Y-124150285D02*
X132465676Y-124102666D01*
X132465676Y-124102666D02*
X132370438Y-124007428D01*
X132370438Y-124007428D02*
X132322819Y-123912190D01*
X132322819Y-122864571D02*
X132322819Y-122769333D01*
X132322819Y-122769333D02*
X132370438Y-122674095D01*
X132370438Y-122674095D02*
X132418057Y-122626476D01*
X132418057Y-122626476D02*
X132513295Y-122578857D01*
X132513295Y-122578857D02*
X132703771Y-122531238D01*
X132703771Y-122531238D02*
X132941866Y-122531238D01*
X132941866Y-122531238D02*
X133132342Y-122578857D01*
X133132342Y-122578857D02*
X133227580Y-122626476D01*
X133227580Y-122626476D02*
X133275200Y-122674095D01*
X133275200Y-122674095D02*
X133322819Y-122769333D01*
X133322819Y-122769333D02*
X133322819Y-122864571D01*
X133322819Y-122864571D02*
X133275200Y-122959809D01*
X133275200Y-122959809D02*
X133227580Y-123007428D01*
X133227580Y-123007428D02*
X133132342Y-123055047D01*
X133132342Y-123055047D02*
X132941866Y-123102666D01*
X132941866Y-123102666D02*
X132703771Y-123102666D01*
X132703771Y-123102666D02*
X132513295Y-123055047D01*
X132513295Y-123055047D02*
X132418057Y-123007428D01*
X132418057Y-123007428D02*
X132370438Y-122959809D01*
X132370438Y-122959809D02*
X132322819Y-122864571D01*
X132751390Y-121959809D02*
X132703771Y-122055047D01*
X132703771Y-122055047D02*
X132656152Y-122102666D01*
X132656152Y-122102666D02*
X132560914Y-122150285D01*
X132560914Y-122150285D02*
X132513295Y-122150285D01*
X132513295Y-122150285D02*
X132418057Y-122102666D01*
X132418057Y-122102666D02*
X132370438Y-122055047D01*
X132370438Y-122055047D02*
X132322819Y-121959809D01*
X132322819Y-121959809D02*
X132322819Y-121769333D01*
X132322819Y-121769333D02*
X132370438Y-121674095D01*
X132370438Y-121674095D02*
X132418057Y-121626476D01*
X132418057Y-121626476D02*
X132513295Y-121578857D01*
X132513295Y-121578857D02*
X132560914Y-121578857D01*
X132560914Y-121578857D02*
X132656152Y-121626476D01*
X132656152Y-121626476D02*
X132703771Y-121674095D01*
X132703771Y-121674095D02*
X132751390Y-121769333D01*
X132751390Y-121769333D02*
X132751390Y-121959809D01*
X132751390Y-121959809D02*
X132799009Y-122055047D01*
X132799009Y-122055047D02*
X132846628Y-122102666D01*
X132846628Y-122102666D02*
X132941866Y-122150285D01*
X132941866Y-122150285D02*
X133132342Y-122150285D01*
X133132342Y-122150285D02*
X133227580Y-122102666D01*
X133227580Y-122102666D02*
X133275200Y-122055047D01*
X133275200Y-122055047D02*
X133322819Y-121959809D01*
X133322819Y-121959809D02*
X133322819Y-121769333D01*
X133322819Y-121769333D02*
X133275200Y-121674095D01*
X133275200Y-121674095D02*
X133227580Y-121626476D01*
X133227580Y-121626476D02*
X133132342Y-121578857D01*
X133132342Y-121578857D02*
X132941866Y-121578857D01*
X132941866Y-121578857D02*
X132846628Y-121626476D01*
X132846628Y-121626476D02*
X132799009Y-121674095D01*
X132799009Y-121674095D02*
X132751390Y-121769333D01*
X132322819Y-121245523D02*
X133322819Y-120578857D01*
X132322819Y-120578857D02*
X133322819Y-121245523D01*
X133322819Y-119674095D02*
X133322819Y-120245523D01*
X133322819Y-119959809D02*
X132322819Y-119959809D01*
X132322819Y-119959809D02*
X132465676Y-120055047D01*
X132465676Y-120055047D02*
X132560914Y-120150285D01*
X132560914Y-120150285D02*
X132608533Y-120245523D01*
X132114143Y-131010819D02*
X132304619Y-131010819D01*
X132304619Y-131010819D02*
X132399857Y-130963200D01*
X132399857Y-130963200D02*
X132447476Y-130915580D01*
X132447476Y-130915580D02*
X132542714Y-130772723D01*
X132542714Y-130772723D02*
X132590333Y-130582247D01*
X132590333Y-130582247D02*
X132590333Y-130201295D01*
X132590333Y-130201295D02*
X132542714Y-130106057D01*
X132542714Y-130106057D02*
X132495095Y-130058438D01*
X132495095Y-130058438D02*
X132399857Y-130010819D01*
X132399857Y-130010819D02*
X132209381Y-130010819D01*
X132209381Y-130010819D02*
X132114143Y-130058438D01*
X132114143Y-130058438D02*
X132066524Y-130106057D01*
X132066524Y-130106057D02*
X132018905Y-130201295D01*
X132018905Y-130201295D02*
X132018905Y-130439390D01*
X132018905Y-130439390D02*
X132066524Y-130534628D01*
X132066524Y-130534628D02*
X132114143Y-130582247D01*
X132114143Y-130582247D02*
X132209381Y-130629866D01*
X132209381Y-130629866D02*
X132399857Y-130629866D01*
X132399857Y-130629866D02*
X132495095Y-130582247D01*
X132495095Y-130582247D02*
X132542714Y-130534628D01*
X132542714Y-130534628D02*
X132590333Y-130439390D01*
X133018905Y-131010819D02*
X133018905Y-130010819D01*
X133018905Y-130010819D02*
X133257000Y-130010819D01*
X133257000Y-130010819D02*
X133399857Y-130058438D01*
X133399857Y-130058438D02*
X133495095Y-130153676D01*
X133495095Y-130153676D02*
X133542714Y-130248914D01*
X133542714Y-130248914D02*
X133590333Y-130439390D01*
X133590333Y-130439390D02*
X133590333Y-130582247D01*
X133590333Y-130582247D02*
X133542714Y-130772723D01*
X133542714Y-130772723D02*
X133495095Y-130867961D01*
X133495095Y-130867961D02*
X133399857Y-130963200D01*
X133399857Y-130963200D02*
X133257000Y-131010819D01*
X133257000Y-131010819D02*
X133018905Y-131010819D01*
X134209381Y-130010819D02*
X134399857Y-130010819D01*
X134399857Y-130010819D02*
X134495095Y-130058438D01*
X134495095Y-130058438D02*
X134590333Y-130153676D01*
X134590333Y-130153676D02*
X134637952Y-130344152D01*
X134637952Y-130344152D02*
X134637952Y-130677485D01*
X134637952Y-130677485D02*
X134590333Y-130867961D01*
X134590333Y-130867961D02*
X134495095Y-130963200D01*
X134495095Y-130963200D02*
X134399857Y-131010819D01*
X134399857Y-131010819D02*
X134209381Y-131010819D01*
X134209381Y-131010819D02*
X134114143Y-130963200D01*
X134114143Y-130963200D02*
X134018905Y-130867961D01*
X134018905Y-130867961D02*
X133971286Y-130677485D01*
X133971286Y-130677485D02*
X133971286Y-130344152D01*
X133971286Y-130344152D02*
X134018905Y-130153676D01*
X134018905Y-130153676D02*
X134114143Y-130058438D01*
X134114143Y-130058438D02*
X134209381Y-130010819D01*
X135399857Y-130487009D02*
X135066524Y-130487009D01*
X135066524Y-131010819D02*
X135066524Y-130010819D01*
X135066524Y-130010819D02*
X135542714Y-130010819D01*
X112308057Y-39992285D02*
X112260438Y-39944666D01*
X112260438Y-39944666D02*
X112212819Y-39849428D01*
X112212819Y-39849428D02*
X112212819Y-39611333D01*
X112212819Y-39611333D02*
X112260438Y-39516095D01*
X112260438Y-39516095D02*
X112308057Y-39468476D01*
X112308057Y-39468476D02*
X112403295Y-39420857D01*
X112403295Y-39420857D02*
X112498533Y-39420857D01*
X112498533Y-39420857D02*
X112641390Y-39468476D01*
X112641390Y-39468476D02*
X113212819Y-40039904D01*
X113212819Y-40039904D02*
X113212819Y-39420857D01*
X113212819Y-38992285D02*
X112212819Y-38992285D01*
X112212819Y-38992285D02*
X113212819Y-38420857D01*
X113212819Y-38420857D02*
X112212819Y-38420857D01*
X112308057Y-37992285D02*
X112260438Y-37944666D01*
X112260438Y-37944666D02*
X112212819Y-37849428D01*
X112212819Y-37849428D02*
X112212819Y-37611333D01*
X112212819Y-37611333D02*
X112260438Y-37516095D01*
X112260438Y-37516095D02*
X112308057Y-37468476D01*
X112308057Y-37468476D02*
X112403295Y-37420857D01*
X112403295Y-37420857D02*
X112498533Y-37420857D01*
X112498533Y-37420857D02*
X112641390Y-37468476D01*
X112641390Y-37468476D02*
X113212819Y-38039904D01*
X113212819Y-38039904D02*
X113212819Y-37420857D01*
X112308057Y-37039904D02*
X112260438Y-36992285D01*
X112260438Y-36992285D02*
X112212819Y-36897047D01*
X112212819Y-36897047D02*
X112212819Y-36658952D01*
X112212819Y-36658952D02*
X112260438Y-36563714D01*
X112260438Y-36563714D02*
X112308057Y-36516095D01*
X112308057Y-36516095D02*
X112403295Y-36468476D01*
X112403295Y-36468476D02*
X112498533Y-36468476D01*
X112498533Y-36468476D02*
X112641390Y-36516095D01*
X112641390Y-36516095D02*
X113212819Y-37087523D01*
X113212819Y-37087523D02*
X113212819Y-36468476D01*
X112308057Y-36087523D02*
X112260438Y-36039904D01*
X112260438Y-36039904D02*
X112212819Y-35944666D01*
X112212819Y-35944666D02*
X112212819Y-35706571D01*
X112212819Y-35706571D02*
X112260438Y-35611333D01*
X112260438Y-35611333D02*
X112308057Y-35563714D01*
X112308057Y-35563714D02*
X112403295Y-35516095D01*
X112403295Y-35516095D02*
X112498533Y-35516095D01*
X112498533Y-35516095D02*
X112641390Y-35563714D01*
X112641390Y-35563714D02*
X113212819Y-36135142D01*
X113212819Y-36135142D02*
X113212819Y-35516095D01*
X112308057Y-35135142D02*
X112260438Y-35087523D01*
X112260438Y-35087523D02*
X112212819Y-34992285D01*
X112212819Y-34992285D02*
X112212819Y-34754190D01*
X112212819Y-34754190D02*
X112260438Y-34658952D01*
X112260438Y-34658952D02*
X112308057Y-34611333D01*
X112308057Y-34611333D02*
X112403295Y-34563714D01*
X112403295Y-34563714D02*
X112498533Y-34563714D01*
X112498533Y-34563714D02*
X112641390Y-34611333D01*
X112641390Y-34611333D02*
X113212819Y-35182761D01*
X113212819Y-35182761D02*
X113212819Y-34563714D01*
X142052880Y-130204819D02*
X142052880Y-130919104D01*
X142052880Y-130919104D02*
X142005261Y-131061961D01*
X142005261Y-131061961D02*
X141910023Y-131157200D01*
X141910023Y-131157200D02*
X141767166Y-131204819D01*
X141767166Y-131204819D02*
X141671928Y-131204819D01*
X142481452Y-131157200D02*
X142624309Y-131204819D01*
X142624309Y-131204819D02*
X142862404Y-131204819D01*
X142862404Y-131204819D02*
X142957642Y-131157200D01*
X142957642Y-131157200D02*
X143005261Y-131109580D01*
X143005261Y-131109580D02*
X143052880Y-131014342D01*
X143052880Y-131014342D02*
X143052880Y-130919104D01*
X143052880Y-130919104D02*
X143005261Y-130823866D01*
X143005261Y-130823866D02*
X142957642Y-130776247D01*
X142957642Y-130776247D02*
X142862404Y-130728628D01*
X142862404Y-130728628D02*
X142671928Y-130681009D01*
X142671928Y-130681009D02*
X142576690Y-130633390D01*
X142576690Y-130633390D02*
X142529071Y-130585771D01*
X142529071Y-130585771D02*
X142481452Y-130490533D01*
X142481452Y-130490533D02*
X142481452Y-130395295D01*
X142481452Y-130395295D02*
X142529071Y-130300057D01*
X142529071Y-130300057D02*
X142576690Y-130252438D01*
X142576690Y-130252438D02*
X142671928Y-130204819D01*
X142671928Y-130204819D02*
X142910023Y-130204819D01*
X142910023Y-130204819D02*
X143052880Y-130252438D01*
X143338595Y-130204819D02*
X143910023Y-130204819D01*
X143624309Y-131204819D02*
X143624309Y-130204819D01*
X144005262Y-131300057D02*
X144767166Y-131300057D01*
X145529071Y-130252438D02*
X145433833Y-130204819D01*
X145433833Y-130204819D02*
X145290976Y-130204819D01*
X145290976Y-130204819D02*
X145148119Y-130252438D01*
X145148119Y-130252438D02*
X145052881Y-130347676D01*
X145052881Y-130347676D02*
X145005262Y-130442914D01*
X145005262Y-130442914D02*
X144957643Y-130633390D01*
X144957643Y-130633390D02*
X144957643Y-130776247D01*
X144957643Y-130776247D02*
X145005262Y-130966723D01*
X145005262Y-130966723D02*
X145052881Y-131061961D01*
X145052881Y-131061961D02*
X145148119Y-131157200D01*
X145148119Y-131157200D02*
X145290976Y-131204819D01*
X145290976Y-131204819D02*
X145386214Y-131204819D01*
X145386214Y-131204819D02*
X145529071Y-131157200D01*
X145529071Y-131157200D02*
X145576690Y-131109580D01*
X145576690Y-131109580D02*
X145576690Y-130776247D01*
X145576690Y-130776247D02*
X145386214Y-130776247D01*
X146005262Y-131204819D02*
X146005262Y-130204819D01*
X146005262Y-130204819D02*
X146386214Y-130204819D01*
X146386214Y-130204819D02*
X146481452Y-130252438D01*
X146481452Y-130252438D02*
X146529071Y-130300057D01*
X146529071Y-130300057D02*
X146576690Y-130395295D01*
X146576690Y-130395295D02*
X146576690Y-130538152D01*
X146576690Y-130538152D02*
X146529071Y-130633390D01*
X146529071Y-130633390D02*
X146481452Y-130681009D01*
X146481452Y-130681009D02*
X146386214Y-130728628D01*
X146386214Y-130728628D02*
X146005262Y-130728628D01*
X146957643Y-131157200D02*
X147100500Y-131204819D01*
X147100500Y-131204819D02*
X147338595Y-131204819D01*
X147338595Y-131204819D02*
X147433833Y-131157200D01*
X147433833Y-131157200D02*
X147481452Y-131109580D01*
X147481452Y-131109580D02*
X147529071Y-131014342D01*
X147529071Y-131014342D02*
X147529071Y-130919104D01*
X147529071Y-130919104D02*
X147481452Y-130823866D01*
X147481452Y-130823866D02*
X147433833Y-130776247D01*
X147433833Y-130776247D02*
X147338595Y-130728628D01*
X147338595Y-130728628D02*
X147148119Y-130681009D01*
X147148119Y-130681009D02*
X147052881Y-130633390D01*
X147052881Y-130633390D02*
X147005262Y-130585771D01*
X147005262Y-130585771D02*
X146957643Y-130490533D01*
X146957643Y-130490533D02*
X146957643Y-130395295D01*
X146957643Y-130395295D02*
X147005262Y-130300057D01*
X147005262Y-130300057D02*
X147052881Y-130252438D01*
X147052881Y-130252438D02*
X147148119Y-130204819D01*
X147148119Y-130204819D02*
X147386214Y-130204819D01*
X147386214Y-130204819D02*
X147529071Y-130252438D01*
X148481452Y-131204819D02*
X147910024Y-131204819D01*
X148195738Y-131204819D02*
X148195738Y-130204819D01*
X148195738Y-130204819D02*
X148100500Y-130347676D01*
X148100500Y-130347676D02*
X148005262Y-130442914D01*
X148005262Y-130442914D02*
X147910024Y-130490533D01*
X113738095Y-117604819D02*
X113738095Y-118414342D01*
X113738095Y-118414342D02*
X113785714Y-118509580D01*
X113785714Y-118509580D02*
X113833333Y-118557200D01*
X113833333Y-118557200D02*
X113928571Y-118604819D01*
X113928571Y-118604819D02*
X114119047Y-118604819D01*
X114119047Y-118604819D02*
X114214285Y-118557200D01*
X114214285Y-118557200D02*
X114261904Y-118509580D01*
X114261904Y-118509580D02*
X114309523Y-118414342D01*
X114309523Y-118414342D02*
X114309523Y-117604819D01*
X115309523Y-118604819D02*
X114738095Y-118604819D01*
X115023809Y-118604819D02*
X115023809Y-117604819D01*
X115023809Y-117604819D02*
X114928571Y-117747676D01*
X114928571Y-117747676D02*
X114833333Y-117842914D01*
X114833333Y-117842914D02*
X114738095Y-117890533D01*
X107204761Y-92274200D02*
X107319047Y-92312295D01*
X107319047Y-92312295D02*
X107509523Y-92312295D01*
X107509523Y-92312295D02*
X107585714Y-92274200D01*
X107585714Y-92274200D02*
X107623809Y-92236104D01*
X107623809Y-92236104D02*
X107661904Y-92159914D01*
X107661904Y-92159914D02*
X107661904Y-92083723D01*
X107661904Y-92083723D02*
X107623809Y-92007533D01*
X107623809Y-92007533D02*
X107585714Y-91969438D01*
X107585714Y-91969438D02*
X107509523Y-91931342D01*
X107509523Y-91931342D02*
X107357142Y-91893247D01*
X107357142Y-91893247D02*
X107280952Y-91855152D01*
X107280952Y-91855152D02*
X107242857Y-91817057D01*
X107242857Y-91817057D02*
X107204761Y-91740866D01*
X107204761Y-91740866D02*
X107204761Y-91664676D01*
X107204761Y-91664676D02*
X107242857Y-91588485D01*
X107242857Y-91588485D02*
X107280952Y-91550390D01*
X107280952Y-91550390D02*
X107357142Y-91512295D01*
X107357142Y-91512295D02*
X107547619Y-91512295D01*
X107547619Y-91512295D02*
X107661904Y-91550390D01*
X107928571Y-91512295D02*
X108119047Y-92312295D01*
X108119047Y-92312295D02*
X108271428Y-91740866D01*
X108271428Y-91740866D02*
X108423809Y-92312295D01*
X108423809Y-92312295D02*
X108614286Y-91512295D01*
X108919048Y-92312295D02*
X108919048Y-91512295D01*
X108919048Y-91512295D02*
X109109524Y-91512295D01*
X109109524Y-91512295D02*
X109223810Y-91550390D01*
X109223810Y-91550390D02*
X109300000Y-91626580D01*
X109300000Y-91626580D02*
X109338095Y-91702771D01*
X109338095Y-91702771D02*
X109376191Y-91855152D01*
X109376191Y-91855152D02*
X109376191Y-91969438D01*
X109376191Y-91969438D02*
X109338095Y-92121819D01*
X109338095Y-92121819D02*
X109300000Y-92198009D01*
X109300000Y-92198009D02*
X109223810Y-92274200D01*
X109223810Y-92274200D02*
X109109524Y-92312295D01*
X109109524Y-92312295D02*
X108919048Y-92312295D01*
X109719048Y-92312295D02*
X109719048Y-91512295D01*
X110252381Y-91512295D02*
X110404762Y-91512295D01*
X110404762Y-91512295D02*
X110480952Y-91550390D01*
X110480952Y-91550390D02*
X110557143Y-91626580D01*
X110557143Y-91626580D02*
X110595238Y-91778961D01*
X110595238Y-91778961D02*
X110595238Y-92045628D01*
X110595238Y-92045628D02*
X110557143Y-92198009D01*
X110557143Y-92198009D02*
X110480952Y-92274200D01*
X110480952Y-92274200D02*
X110404762Y-92312295D01*
X110404762Y-92312295D02*
X110252381Y-92312295D01*
X110252381Y-92312295D02*
X110176190Y-92274200D01*
X110176190Y-92274200D02*
X110100000Y-92198009D01*
X110100000Y-92198009D02*
X110061904Y-92045628D01*
X110061904Y-92045628D02*
X110061904Y-91778961D01*
X110061904Y-91778961D02*
X110100000Y-91626580D01*
X110100000Y-91626580D02*
X110176190Y-91550390D01*
X110176190Y-91550390D02*
X110252381Y-91512295D01*
X126613372Y-114461494D02*
X126532560Y-114488431D01*
X126532560Y-114488431D02*
X126451748Y-114569243D01*
X126451748Y-114569243D02*
X126397873Y-114676993D01*
X126397873Y-114676993D02*
X126397873Y-114784742D01*
X126397873Y-114784742D02*
X126424810Y-114865555D01*
X126424810Y-114865555D02*
X126505623Y-115000242D01*
X126505623Y-115000242D02*
X126586435Y-115081054D01*
X126586435Y-115081054D02*
X126721122Y-115161866D01*
X126721122Y-115161866D02*
X126801934Y-115188803D01*
X126801934Y-115188803D02*
X126909684Y-115188803D01*
X126909684Y-115188803D02*
X127017433Y-115134929D01*
X127017433Y-115134929D02*
X127071308Y-115081054D01*
X127071308Y-115081054D02*
X127125183Y-114973304D01*
X127125183Y-114973304D02*
X127125183Y-114919429D01*
X127125183Y-114919429D02*
X126936621Y-114730868D01*
X126936621Y-114730868D02*
X126828871Y-114838617D01*
X127421494Y-114730868D02*
X126855809Y-114165182D01*
X126855809Y-114165182D02*
X127071308Y-113949683D01*
X127071308Y-113949683D02*
X127152120Y-113922746D01*
X127152120Y-113922746D02*
X127205995Y-113922746D01*
X127205995Y-113922746D02*
X127286807Y-113949683D01*
X127286807Y-113949683D02*
X127367619Y-114030495D01*
X127367619Y-114030495D02*
X127394557Y-114111307D01*
X127394557Y-114111307D02*
X127394557Y-114165182D01*
X127394557Y-114165182D02*
X127367619Y-114245994D01*
X127367619Y-114245994D02*
X127152120Y-114461494D01*
X128014117Y-114138245D02*
X128121867Y-114030495D01*
X128121867Y-114030495D02*
X128148804Y-113949683D01*
X128148804Y-113949683D02*
X128148804Y-113895808D01*
X128148804Y-113895808D02*
X128121867Y-113761121D01*
X128121867Y-113761121D02*
X128041054Y-113626434D01*
X128041054Y-113626434D02*
X127825555Y-113410935D01*
X127825555Y-113410935D02*
X127744743Y-113383998D01*
X127744743Y-113383998D02*
X127690868Y-113383998D01*
X127690868Y-113383998D02*
X127610056Y-113410935D01*
X127610056Y-113410935D02*
X127502306Y-113518685D01*
X127502306Y-113518685D02*
X127475369Y-113599497D01*
X127475369Y-113599497D02*
X127475369Y-113653372D01*
X127475369Y-113653372D02*
X127502306Y-113734184D01*
X127502306Y-113734184D02*
X127636993Y-113868871D01*
X127636993Y-113868871D02*
X127717806Y-113895808D01*
X127717806Y-113895808D02*
X127771680Y-113895808D01*
X127771680Y-113895808D02*
X127852493Y-113868871D01*
X127852493Y-113868871D02*
X127960242Y-113761121D01*
X127960242Y-113761121D02*
X127987180Y-113680309D01*
X127987180Y-113680309D02*
X127987180Y-113626434D01*
X127987180Y-113626434D02*
X127960242Y-113545622D01*
X126743998Y-104570868D02*
X126663185Y-104597805D01*
X126663185Y-104597805D02*
X126582373Y-104678618D01*
X126582373Y-104678618D02*
X126528498Y-104786367D01*
X126528498Y-104786367D02*
X126528498Y-104894117D01*
X126528498Y-104894117D02*
X126555436Y-104974929D01*
X126555436Y-104974929D02*
X126636248Y-105109616D01*
X126636248Y-105109616D02*
X126717060Y-105190428D01*
X126717060Y-105190428D02*
X126851747Y-105271241D01*
X126851747Y-105271241D02*
X126932560Y-105298178D01*
X126932560Y-105298178D02*
X127040309Y-105298178D01*
X127040309Y-105298178D02*
X127148059Y-105244303D01*
X127148059Y-105244303D02*
X127201934Y-105190428D01*
X127201934Y-105190428D02*
X127255808Y-105082679D01*
X127255808Y-105082679D02*
X127255808Y-105028804D01*
X127255808Y-105028804D02*
X127067247Y-104840242D01*
X127067247Y-104840242D02*
X126959497Y-104947992D01*
X127552120Y-104840242D02*
X126986434Y-104274557D01*
X126986434Y-104274557D02*
X127201934Y-104059057D01*
X127201934Y-104059057D02*
X127282746Y-104032120D01*
X127282746Y-104032120D02*
X127336621Y-104032120D01*
X127336621Y-104032120D02*
X127417433Y-104059057D01*
X127417433Y-104059057D02*
X127498245Y-104139870D01*
X127498245Y-104139870D02*
X127525182Y-104220682D01*
X127525182Y-104220682D02*
X127525182Y-104274557D01*
X127525182Y-104274557D02*
X127498245Y-104355369D01*
X127498245Y-104355369D02*
X127282746Y-104570868D01*
X128414117Y-103978245D02*
X128090868Y-104301494D01*
X128252492Y-104139870D02*
X127686807Y-103574184D01*
X127686807Y-103574184D02*
X127713744Y-103708871D01*
X127713744Y-103708871D02*
X127713744Y-103816621D01*
X127713744Y-103816621D02*
X127686807Y-103897433D01*
X128117805Y-103250935D02*
X128117805Y-103197060D01*
X128117805Y-103197060D02*
X128144743Y-103116248D01*
X128144743Y-103116248D02*
X128279430Y-102981561D01*
X128279430Y-102981561D02*
X128360242Y-102954624D01*
X128360242Y-102954624D02*
X128414117Y-102954624D01*
X128414117Y-102954624D02*
X128494929Y-102981561D01*
X128494929Y-102981561D02*
X128548804Y-103035436D01*
X128548804Y-103035436D02*
X128602679Y-103143186D01*
X128602679Y-103143186D02*
X128602679Y-103789683D01*
X128602679Y-103789683D02*
X128952865Y-103439497D01*
X99853406Y-143077585D02*
X100607653Y-143454709D01*
X100607653Y-143454709D02*
X100230529Y-142700462D01*
X100877027Y-142592712D02*
X100984776Y-142538838D01*
X100984776Y-142538838D02*
X101038651Y-142538838D01*
X101038651Y-142538838D02*
X101119463Y-142565775D01*
X101119463Y-142565775D02*
X101200276Y-142646587D01*
X101200276Y-142646587D02*
X101227213Y-142727399D01*
X101227213Y-142727399D02*
X101227213Y-142781274D01*
X101227213Y-142781274D02*
X101200276Y-142862086D01*
X101200276Y-142862086D02*
X100984776Y-143077586D01*
X100984776Y-143077586D02*
X100419091Y-142511900D01*
X100419091Y-142511900D02*
X100607653Y-142323338D01*
X100607653Y-142323338D02*
X100688465Y-142296401D01*
X100688465Y-142296401D02*
X100742340Y-142296401D01*
X100742340Y-142296401D02*
X100823152Y-142323338D01*
X100823152Y-142323338D02*
X100877027Y-142377213D01*
X100877027Y-142377213D02*
X100903964Y-142458025D01*
X100903964Y-142458025D02*
X100903964Y-142511900D01*
X100903964Y-142511900D02*
X100877027Y-142592712D01*
X100877027Y-142592712D02*
X100688465Y-142781274D01*
X100984776Y-141946215D02*
X101442712Y-142404151D01*
X101442712Y-142404151D02*
X101523524Y-142431088D01*
X101523524Y-142431088D02*
X101577399Y-142431088D01*
X101577399Y-142431088D02*
X101658211Y-142404151D01*
X101658211Y-142404151D02*
X101765961Y-142296401D01*
X101765961Y-142296401D02*
X101792898Y-142215589D01*
X101792898Y-142215589D02*
X101792898Y-142161714D01*
X101792898Y-142161714D02*
X101765961Y-142080902D01*
X101765961Y-142080902D02*
X101308025Y-141622966D01*
X102089210Y-141919277D02*
X102196959Y-141865403D01*
X102196959Y-141865403D02*
X102331646Y-141730716D01*
X102331646Y-141730716D02*
X102358584Y-141649903D01*
X102358584Y-141649903D02*
X102358584Y-141596029D01*
X102358584Y-141596029D02*
X102331646Y-141515216D01*
X102331646Y-141515216D02*
X102277771Y-141461342D01*
X102277771Y-141461342D02*
X102196959Y-141434404D01*
X102196959Y-141434404D02*
X102143084Y-141434404D01*
X102143084Y-141434404D02*
X102062272Y-141461342D01*
X102062272Y-141461342D02*
X101927585Y-141542154D01*
X101927585Y-141542154D02*
X101846773Y-141569091D01*
X101846773Y-141569091D02*
X101792898Y-141569091D01*
X101792898Y-141569091D02*
X101712086Y-141542154D01*
X101712086Y-141542154D02*
X101658211Y-141488279D01*
X101658211Y-141488279D02*
X101631274Y-141407467D01*
X101631274Y-141407467D02*
X101631274Y-141353592D01*
X101631274Y-141353592D02*
X101658211Y-141272780D01*
X101658211Y-141272780D02*
X101792898Y-141138093D01*
X101792898Y-141138093D02*
X101900648Y-141084218D01*
X100489998Y-107110868D02*
X100409185Y-107137805D01*
X100409185Y-107137805D02*
X100328373Y-107218618D01*
X100328373Y-107218618D02*
X100274498Y-107326367D01*
X100274498Y-107326367D02*
X100274498Y-107434117D01*
X100274498Y-107434117D02*
X100301436Y-107514929D01*
X100301436Y-107514929D02*
X100382248Y-107649616D01*
X100382248Y-107649616D02*
X100463060Y-107730428D01*
X100463060Y-107730428D02*
X100597747Y-107811241D01*
X100597747Y-107811241D02*
X100678560Y-107838178D01*
X100678560Y-107838178D02*
X100786309Y-107838178D01*
X100786309Y-107838178D02*
X100894059Y-107784303D01*
X100894059Y-107784303D02*
X100947934Y-107730428D01*
X100947934Y-107730428D02*
X101001808Y-107622679D01*
X101001808Y-107622679D02*
X101001808Y-107568804D01*
X101001808Y-107568804D02*
X100813247Y-107380242D01*
X100813247Y-107380242D02*
X100705497Y-107487992D01*
X101298120Y-107380242D02*
X100732434Y-106814557D01*
X100732434Y-106814557D02*
X100947934Y-106599057D01*
X100947934Y-106599057D02*
X101028746Y-106572120D01*
X101028746Y-106572120D02*
X101082621Y-106572120D01*
X101082621Y-106572120D02*
X101163433Y-106599057D01*
X101163433Y-106599057D02*
X101244245Y-106679870D01*
X101244245Y-106679870D02*
X101271182Y-106760682D01*
X101271182Y-106760682D02*
X101271182Y-106814557D01*
X101271182Y-106814557D02*
X101244245Y-106895369D01*
X101244245Y-106895369D02*
X101028746Y-107110868D01*
X101325057Y-106329683D02*
X101325057Y-106275809D01*
X101325057Y-106275809D02*
X101351995Y-106194996D01*
X101351995Y-106194996D02*
X101486682Y-106060309D01*
X101486682Y-106060309D02*
X101567494Y-106033372D01*
X101567494Y-106033372D02*
X101621369Y-106033372D01*
X101621369Y-106033372D02*
X101702181Y-106060309D01*
X101702181Y-106060309D02*
X101756056Y-106114184D01*
X101756056Y-106114184D02*
X101809930Y-106221934D01*
X101809930Y-106221934D02*
X101809930Y-106868431D01*
X101809930Y-106868431D02*
X102160117Y-106518245D01*
X101944618Y-105602373D02*
X101998492Y-105548499D01*
X101998492Y-105548499D02*
X102079305Y-105521561D01*
X102079305Y-105521561D02*
X102133179Y-105521561D01*
X102133179Y-105521561D02*
X102213992Y-105548499D01*
X102213992Y-105548499D02*
X102348679Y-105629311D01*
X102348679Y-105629311D02*
X102483366Y-105763998D01*
X102483366Y-105763998D02*
X102564178Y-105898685D01*
X102564178Y-105898685D02*
X102591115Y-105979497D01*
X102591115Y-105979497D02*
X102591115Y-106033372D01*
X102591115Y-106033372D02*
X102564178Y-106114184D01*
X102564178Y-106114184D02*
X102510303Y-106168059D01*
X102510303Y-106168059D02*
X102429491Y-106194996D01*
X102429491Y-106194996D02*
X102375616Y-106194996D01*
X102375616Y-106194996D02*
X102294804Y-106168059D01*
X102294804Y-106168059D02*
X102160117Y-106087247D01*
X102160117Y-106087247D02*
X102025430Y-105952560D01*
X102025430Y-105952560D02*
X101944618Y-105817873D01*
X101944618Y-105817873D02*
X101917680Y-105737060D01*
X101917680Y-105737060D02*
X101917680Y-105683186D01*
X101917680Y-105683186D02*
X101944618Y-105602373D01*
X126597998Y-94410868D02*
X126517185Y-94437805D01*
X126517185Y-94437805D02*
X126436373Y-94518618D01*
X126436373Y-94518618D02*
X126382498Y-94626367D01*
X126382498Y-94626367D02*
X126382498Y-94734117D01*
X126382498Y-94734117D02*
X126409436Y-94814929D01*
X126409436Y-94814929D02*
X126490248Y-94949616D01*
X126490248Y-94949616D02*
X126571060Y-95030428D01*
X126571060Y-95030428D02*
X126705747Y-95111241D01*
X126705747Y-95111241D02*
X126786560Y-95138178D01*
X126786560Y-95138178D02*
X126894309Y-95138178D01*
X126894309Y-95138178D02*
X127002059Y-95084303D01*
X127002059Y-95084303D02*
X127055934Y-95030428D01*
X127055934Y-95030428D02*
X127109808Y-94922679D01*
X127109808Y-94922679D02*
X127109808Y-94868804D01*
X127109808Y-94868804D02*
X126921247Y-94680242D01*
X126921247Y-94680242D02*
X126813497Y-94787992D01*
X127406120Y-94680242D02*
X126840434Y-94114557D01*
X126840434Y-94114557D02*
X127055934Y-93899057D01*
X127055934Y-93899057D02*
X127136746Y-93872120D01*
X127136746Y-93872120D02*
X127190621Y-93872120D01*
X127190621Y-93872120D02*
X127271433Y-93899057D01*
X127271433Y-93899057D02*
X127352245Y-93979870D01*
X127352245Y-93979870D02*
X127379182Y-94060682D01*
X127379182Y-94060682D02*
X127379182Y-94114557D01*
X127379182Y-94114557D02*
X127352245Y-94195369D01*
X127352245Y-94195369D02*
X127136746Y-94410868D01*
X128268117Y-93818245D02*
X127944868Y-94141494D01*
X128106492Y-93979870D02*
X127540807Y-93414184D01*
X127540807Y-93414184D02*
X127567744Y-93548871D01*
X127567744Y-93548871D02*
X127567744Y-93656621D01*
X127567744Y-93656621D02*
X127540807Y-93737433D01*
X128214242Y-92740749D02*
X127944868Y-93010123D01*
X127944868Y-93010123D02*
X128187305Y-93306434D01*
X128187305Y-93306434D02*
X128187305Y-93252560D01*
X128187305Y-93252560D02*
X128214242Y-93171747D01*
X128214242Y-93171747D02*
X128348929Y-93037060D01*
X128348929Y-93037060D02*
X128429741Y-93010123D01*
X128429741Y-93010123D02*
X128483616Y-93010123D01*
X128483616Y-93010123D02*
X128564428Y-93037060D01*
X128564428Y-93037060D02*
X128699115Y-93171747D01*
X128699115Y-93171747D02*
X128726053Y-93252560D01*
X128726053Y-93252560D02*
X128726053Y-93306434D01*
X128726053Y-93306434D02*
X128699115Y-93387247D01*
X128699115Y-93387247D02*
X128564428Y-93521934D01*
X128564428Y-93521934D02*
X128483616Y-93548871D01*
X128483616Y-93548871D02*
X128429741Y-93548871D01*
X100543873Y-125591240D02*
X100813247Y-125321866D01*
X100651623Y-125806739D02*
X100274499Y-125052492D01*
X100274499Y-125052492D02*
X101028746Y-125429615D01*
X100974871Y-124405994D02*
X100894059Y-124432932D01*
X100894059Y-124432932D02*
X100813247Y-124513744D01*
X100813247Y-124513744D02*
X100759372Y-124621494D01*
X100759372Y-124621494D02*
X100759372Y-124729243D01*
X100759372Y-124729243D02*
X100786310Y-124810055D01*
X100786310Y-124810055D02*
X100867122Y-124944742D01*
X100867122Y-124944742D02*
X100947934Y-125025555D01*
X100947934Y-125025555D02*
X101082621Y-125106367D01*
X101082621Y-125106367D02*
X101163433Y-125133304D01*
X101163433Y-125133304D02*
X101271183Y-125133304D01*
X101271183Y-125133304D02*
X101378932Y-125079429D01*
X101378932Y-125079429D02*
X101432807Y-125025555D01*
X101432807Y-125025555D02*
X101486682Y-124917805D01*
X101486682Y-124917805D02*
X101486682Y-124863930D01*
X101486682Y-124863930D02*
X101298120Y-124675368D01*
X101298120Y-124675368D02*
X101190371Y-124783118D01*
X101782993Y-124675368D02*
X101217308Y-124109683D01*
X101217308Y-124109683D02*
X102106242Y-124352120D01*
X102106242Y-124352120D02*
X101540557Y-123786434D01*
X102375616Y-124082746D02*
X101809931Y-123517060D01*
X101809931Y-123517060D02*
X101944618Y-123382373D01*
X101944618Y-123382373D02*
X102052367Y-123328498D01*
X102052367Y-123328498D02*
X102160117Y-123328498D01*
X102160117Y-123328498D02*
X102240929Y-123355436D01*
X102240929Y-123355436D02*
X102375616Y-123436248D01*
X102375616Y-123436248D02*
X102456428Y-123517060D01*
X102456428Y-123517060D02*
X102537241Y-123651747D01*
X102537241Y-123651747D02*
X102564178Y-123732560D01*
X102564178Y-123732560D02*
X102564178Y-123840309D01*
X102564178Y-123840309D02*
X102510303Y-123948059D01*
X102510303Y-123948059D02*
X102375616Y-124082746D01*
X126613372Y-129701494D02*
X126532560Y-129728431D01*
X126532560Y-129728431D02*
X126451748Y-129809243D01*
X126451748Y-129809243D02*
X126397873Y-129916993D01*
X126397873Y-129916993D02*
X126397873Y-130024742D01*
X126397873Y-130024742D02*
X126424810Y-130105555D01*
X126424810Y-130105555D02*
X126505623Y-130240242D01*
X126505623Y-130240242D02*
X126586435Y-130321054D01*
X126586435Y-130321054D02*
X126721122Y-130401866D01*
X126721122Y-130401866D02*
X126801934Y-130428803D01*
X126801934Y-130428803D02*
X126909684Y-130428803D01*
X126909684Y-130428803D02*
X127017433Y-130374929D01*
X127017433Y-130374929D02*
X127071308Y-130321054D01*
X127071308Y-130321054D02*
X127125183Y-130213304D01*
X127125183Y-130213304D02*
X127125183Y-130159429D01*
X127125183Y-130159429D02*
X126936621Y-129970868D01*
X126936621Y-129970868D02*
X126828871Y-130078617D01*
X127421494Y-129970868D02*
X126855809Y-129405182D01*
X126855809Y-129405182D02*
X127071308Y-129189683D01*
X127071308Y-129189683D02*
X127152120Y-129162746D01*
X127152120Y-129162746D02*
X127205995Y-129162746D01*
X127205995Y-129162746D02*
X127286807Y-129189683D01*
X127286807Y-129189683D02*
X127367619Y-129270495D01*
X127367619Y-129270495D02*
X127394557Y-129351307D01*
X127394557Y-129351307D02*
X127394557Y-129405182D01*
X127394557Y-129405182D02*
X127367619Y-129485994D01*
X127367619Y-129485994D02*
X127152120Y-129701494D01*
X127852493Y-128785622D02*
X128229616Y-129162746D01*
X127502306Y-128704810D02*
X127771680Y-129243558D01*
X127771680Y-129243558D02*
X128121867Y-128893372D01*
X100489998Y-96950868D02*
X100409185Y-96977805D01*
X100409185Y-96977805D02*
X100328373Y-97058618D01*
X100328373Y-97058618D02*
X100274498Y-97166367D01*
X100274498Y-97166367D02*
X100274498Y-97274117D01*
X100274498Y-97274117D02*
X100301436Y-97354929D01*
X100301436Y-97354929D02*
X100382248Y-97489616D01*
X100382248Y-97489616D02*
X100463060Y-97570428D01*
X100463060Y-97570428D02*
X100597747Y-97651241D01*
X100597747Y-97651241D02*
X100678560Y-97678178D01*
X100678560Y-97678178D02*
X100786309Y-97678178D01*
X100786309Y-97678178D02*
X100894059Y-97624303D01*
X100894059Y-97624303D02*
X100947934Y-97570428D01*
X100947934Y-97570428D02*
X101001808Y-97462679D01*
X101001808Y-97462679D02*
X101001808Y-97408804D01*
X101001808Y-97408804D02*
X100813247Y-97220242D01*
X100813247Y-97220242D02*
X100705497Y-97327992D01*
X101298120Y-97220242D02*
X100732434Y-96654557D01*
X100732434Y-96654557D02*
X100947934Y-96439057D01*
X100947934Y-96439057D02*
X101028746Y-96412120D01*
X101028746Y-96412120D02*
X101082621Y-96412120D01*
X101082621Y-96412120D02*
X101163433Y-96439057D01*
X101163433Y-96439057D02*
X101244245Y-96519870D01*
X101244245Y-96519870D02*
X101271182Y-96600682D01*
X101271182Y-96600682D02*
X101271182Y-96654557D01*
X101271182Y-96654557D02*
X101244245Y-96735369D01*
X101244245Y-96735369D02*
X101028746Y-96950868D01*
X102160117Y-96358245D02*
X101836868Y-96681494D01*
X101998492Y-96519870D02*
X101432807Y-95954184D01*
X101432807Y-95954184D02*
X101459744Y-96088871D01*
X101459744Y-96088871D02*
X101459744Y-96196621D01*
X101459744Y-96196621D02*
X101432807Y-96277433D01*
X101782993Y-95603998D02*
X102160117Y-95226874D01*
X102160117Y-95226874D02*
X102483366Y-96034996D01*
X100489998Y-104570868D02*
X100409185Y-104597805D01*
X100409185Y-104597805D02*
X100328373Y-104678618D01*
X100328373Y-104678618D02*
X100274498Y-104786367D01*
X100274498Y-104786367D02*
X100274498Y-104894117D01*
X100274498Y-104894117D02*
X100301436Y-104974929D01*
X100301436Y-104974929D02*
X100382248Y-105109616D01*
X100382248Y-105109616D02*
X100463060Y-105190428D01*
X100463060Y-105190428D02*
X100597747Y-105271241D01*
X100597747Y-105271241D02*
X100678560Y-105298178D01*
X100678560Y-105298178D02*
X100786309Y-105298178D01*
X100786309Y-105298178D02*
X100894059Y-105244303D01*
X100894059Y-105244303D02*
X100947934Y-105190428D01*
X100947934Y-105190428D02*
X101001808Y-105082679D01*
X101001808Y-105082679D02*
X101001808Y-105028804D01*
X101001808Y-105028804D02*
X100813247Y-104840242D01*
X100813247Y-104840242D02*
X100705497Y-104947992D01*
X101298120Y-104840242D02*
X100732434Y-104274557D01*
X100732434Y-104274557D02*
X100947934Y-104059057D01*
X100947934Y-104059057D02*
X101028746Y-104032120D01*
X101028746Y-104032120D02*
X101082621Y-104032120D01*
X101082621Y-104032120D02*
X101163433Y-104059057D01*
X101163433Y-104059057D02*
X101244245Y-104139870D01*
X101244245Y-104139870D02*
X101271182Y-104220682D01*
X101271182Y-104220682D02*
X101271182Y-104274557D01*
X101271182Y-104274557D02*
X101244245Y-104355369D01*
X101244245Y-104355369D02*
X101028746Y-104570868D01*
X102160117Y-103978245D02*
X101836868Y-104301494D01*
X101998492Y-104139870D02*
X101432807Y-103574184D01*
X101432807Y-103574184D02*
X101459744Y-103708871D01*
X101459744Y-103708871D02*
X101459744Y-103816621D01*
X101459744Y-103816621D02*
X101432807Y-103897433D01*
X102429491Y-103708871D02*
X102537240Y-103601121D01*
X102537240Y-103601121D02*
X102564178Y-103520309D01*
X102564178Y-103520309D02*
X102564178Y-103466434D01*
X102564178Y-103466434D02*
X102537240Y-103331747D01*
X102537240Y-103331747D02*
X102456428Y-103197060D01*
X102456428Y-103197060D02*
X102240929Y-102981561D01*
X102240929Y-102981561D02*
X102160117Y-102954624D01*
X102160117Y-102954624D02*
X102106242Y-102954624D01*
X102106242Y-102954624D02*
X102025430Y-102981561D01*
X102025430Y-102981561D02*
X101917680Y-103089311D01*
X101917680Y-103089311D02*
X101890743Y-103170123D01*
X101890743Y-103170123D02*
X101890743Y-103223998D01*
X101890743Y-103223998D02*
X101917680Y-103304810D01*
X101917680Y-103304810D02*
X102052367Y-103439497D01*
X102052367Y-103439497D02*
X102133179Y-103466434D01*
X102133179Y-103466434D02*
X102187054Y-103466434D01*
X102187054Y-103466434D02*
X102267866Y-103439497D01*
X102267866Y-103439497D02*
X102375616Y-103331747D01*
X102375616Y-103331747D02*
X102402553Y-103250935D01*
X102402553Y-103250935D02*
X102402553Y-103197060D01*
X102402553Y-103197060D02*
X102375616Y-103116248D01*
X126713372Y-134781494D02*
X126632560Y-134808431D01*
X126632560Y-134808431D02*
X126551748Y-134889243D01*
X126551748Y-134889243D02*
X126497873Y-134996993D01*
X126497873Y-134996993D02*
X126497873Y-135104742D01*
X126497873Y-135104742D02*
X126524810Y-135185555D01*
X126524810Y-135185555D02*
X126605623Y-135320242D01*
X126605623Y-135320242D02*
X126686435Y-135401054D01*
X126686435Y-135401054D02*
X126821122Y-135481866D01*
X126821122Y-135481866D02*
X126901934Y-135508803D01*
X126901934Y-135508803D02*
X127009684Y-135508803D01*
X127009684Y-135508803D02*
X127117433Y-135454929D01*
X127117433Y-135454929D02*
X127171308Y-135401054D01*
X127171308Y-135401054D02*
X127225183Y-135293304D01*
X127225183Y-135293304D02*
X127225183Y-135239429D01*
X127225183Y-135239429D02*
X127036621Y-135050868D01*
X127036621Y-135050868D02*
X126928871Y-135158617D01*
X127521494Y-135050868D02*
X126955809Y-134485182D01*
X126955809Y-134485182D02*
X127171308Y-134269683D01*
X127171308Y-134269683D02*
X127252120Y-134242746D01*
X127252120Y-134242746D02*
X127305995Y-134242746D01*
X127305995Y-134242746D02*
X127386807Y-134269683D01*
X127386807Y-134269683D02*
X127467619Y-134350495D01*
X127467619Y-134350495D02*
X127494557Y-134431307D01*
X127494557Y-134431307D02*
X127494557Y-134485182D01*
X127494557Y-134485182D02*
X127467619Y-134565994D01*
X127467619Y-134565994D02*
X127252120Y-134781494D01*
X127548432Y-134000309D02*
X127548432Y-133946434D01*
X127548432Y-133946434D02*
X127575369Y-133865622D01*
X127575369Y-133865622D02*
X127710056Y-133730935D01*
X127710056Y-133730935D02*
X127790868Y-133703998D01*
X127790868Y-133703998D02*
X127844743Y-133703998D01*
X127844743Y-133703998D02*
X127925555Y-133730935D01*
X127925555Y-133730935D02*
X127979430Y-133784810D01*
X127979430Y-133784810D02*
X128033305Y-133892559D01*
X128033305Y-133892559D02*
X128033305Y-134539057D01*
X128033305Y-134539057D02*
X128383491Y-134188871D01*
X126613372Y-142401494D02*
X126532560Y-142428431D01*
X126532560Y-142428431D02*
X126451748Y-142509243D01*
X126451748Y-142509243D02*
X126397873Y-142616993D01*
X126397873Y-142616993D02*
X126397873Y-142724742D01*
X126397873Y-142724742D02*
X126424810Y-142805555D01*
X126424810Y-142805555D02*
X126505623Y-142940242D01*
X126505623Y-142940242D02*
X126586435Y-143021054D01*
X126586435Y-143021054D02*
X126721122Y-143101866D01*
X126721122Y-143101866D02*
X126801934Y-143128803D01*
X126801934Y-143128803D02*
X126909684Y-143128803D01*
X126909684Y-143128803D02*
X127017433Y-143074929D01*
X127017433Y-143074929D02*
X127071308Y-143021054D01*
X127071308Y-143021054D02*
X127125183Y-142913304D01*
X127125183Y-142913304D02*
X127125183Y-142859429D01*
X127125183Y-142859429D02*
X126936621Y-142670868D01*
X126936621Y-142670868D02*
X126828871Y-142778617D01*
X127421494Y-142670868D02*
X126855809Y-142105182D01*
X126855809Y-142105182D02*
X127071308Y-141889683D01*
X127071308Y-141889683D02*
X127152120Y-141862746D01*
X127152120Y-141862746D02*
X127205995Y-141862746D01*
X127205995Y-141862746D02*
X127286807Y-141889683D01*
X127286807Y-141889683D02*
X127367619Y-141970495D01*
X127367619Y-141970495D02*
X127394557Y-142051307D01*
X127394557Y-142051307D02*
X127394557Y-142105182D01*
X127394557Y-142105182D02*
X127367619Y-142185994D01*
X127367619Y-142185994D02*
X127152120Y-142401494D01*
X127529244Y-141431747D02*
X127583119Y-141377872D01*
X127583119Y-141377872D02*
X127663931Y-141350935D01*
X127663931Y-141350935D02*
X127717806Y-141350935D01*
X127717806Y-141350935D02*
X127798618Y-141377872D01*
X127798618Y-141377872D02*
X127933305Y-141458685D01*
X127933305Y-141458685D02*
X128067992Y-141593372D01*
X128067992Y-141593372D02*
X128148804Y-141728059D01*
X128148804Y-141728059D02*
X128175741Y-141808871D01*
X128175741Y-141808871D02*
X128175741Y-141862746D01*
X128175741Y-141862746D02*
X128148804Y-141943558D01*
X128148804Y-141943558D02*
X128094929Y-141997433D01*
X128094929Y-141997433D02*
X128014117Y-142024370D01*
X128014117Y-142024370D02*
X127960242Y-142024370D01*
X127960242Y-142024370D02*
X127879430Y-141997433D01*
X127879430Y-141997433D02*
X127744743Y-141916620D01*
X127744743Y-141916620D02*
X127610056Y-141781933D01*
X127610056Y-141781933D02*
X127529244Y-141647246D01*
X127529244Y-141647246D02*
X127502306Y-141566434D01*
X127502306Y-141566434D02*
X127502306Y-141512559D01*
X127502306Y-141512559D02*
X127529244Y-141431747D01*
X126597998Y-109650868D02*
X126517185Y-109677805D01*
X126517185Y-109677805D02*
X126436373Y-109758618D01*
X126436373Y-109758618D02*
X126382498Y-109866367D01*
X126382498Y-109866367D02*
X126382498Y-109974117D01*
X126382498Y-109974117D02*
X126409436Y-110054929D01*
X126409436Y-110054929D02*
X126490248Y-110189616D01*
X126490248Y-110189616D02*
X126571060Y-110270428D01*
X126571060Y-110270428D02*
X126705747Y-110351241D01*
X126705747Y-110351241D02*
X126786560Y-110378178D01*
X126786560Y-110378178D02*
X126894309Y-110378178D01*
X126894309Y-110378178D02*
X127002059Y-110324303D01*
X127002059Y-110324303D02*
X127055934Y-110270428D01*
X127055934Y-110270428D02*
X127109808Y-110162679D01*
X127109808Y-110162679D02*
X127109808Y-110108804D01*
X127109808Y-110108804D02*
X126921247Y-109920242D01*
X126921247Y-109920242D02*
X126813497Y-110027992D01*
X127406120Y-109920242D02*
X126840434Y-109354557D01*
X126840434Y-109354557D02*
X127055934Y-109139057D01*
X127055934Y-109139057D02*
X127136746Y-109112120D01*
X127136746Y-109112120D02*
X127190621Y-109112120D01*
X127190621Y-109112120D02*
X127271433Y-109139057D01*
X127271433Y-109139057D02*
X127352245Y-109219870D01*
X127352245Y-109219870D02*
X127379182Y-109300682D01*
X127379182Y-109300682D02*
X127379182Y-109354557D01*
X127379182Y-109354557D02*
X127352245Y-109435369D01*
X127352245Y-109435369D02*
X127136746Y-109650868D01*
X128268117Y-109058245D02*
X127944868Y-109381494D01*
X128106492Y-109219870D02*
X127540807Y-108654184D01*
X127540807Y-108654184D02*
X127567744Y-108788871D01*
X127567744Y-108788871D02*
X127567744Y-108896621D01*
X127567744Y-108896621D02*
X127540807Y-108977433D01*
X128052618Y-108142373D02*
X128106492Y-108088499D01*
X128106492Y-108088499D02*
X128187305Y-108061561D01*
X128187305Y-108061561D02*
X128241179Y-108061561D01*
X128241179Y-108061561D02*
X128321992Y-108088499D01*
X128321992Y-108088499D02*
X128456679Y-108169311D01*
X128456679Y-108169311D02*
X128591366Y-108303998D01*
X128591366Y-108303998D02*
X128672178Y-108438685D01*
X128672178Y-108438685D02*
X128699115Y-108519497D01*
X128699115Y-108519497D02*
X128699115Y-108573372D01*
X128699115Y-108573372D02*
X128672178Y-108654184D01*
X128672178Y-108654184D02*
X128618303Y-108708059D01*
X128618303Y-108708059D02*
X128537491Y-108734996D01*
X128537491Y-108734996D02*
X128483616Y-108734996D01*
X128483616Y-108734996D02*
X128402804Y-108708059D01*
X128402804Y-108708059D02*
X128268117Y-108627247D01*
X128268117Y-108627247D02*
X128133430Y-108492560D01*
X128133430Y-108492560D02*
X128052618Y-108357873D01*
X128052618Y-108357873D02*
X128025680Y-108277060D01*
X128025680Y-108277060D02*
X128025680Y-108223186D01*
X128025680Y-108223186D02*
X128052618Y-108142373D01*
X100489998Y-119810868D02*
X100409185Y-119837805D01*
X100409185Y-119837805D02*
X100328373Y-119918618D01*
X100328373Y-119918618D02*
X100274498Y-120026367D01*
X100274498Y-120026367D02*
X100274498Y-120134117D01*
X100274498Y-120134117D02*
X100301436Y-120214929D01*
X100301436Y-120214929D02*
X100382248Y-120349616D01*
X100382248Y-120349616D02*
X100463060Y-120430428D01*
X100463060Y-120430428D02*
X100597747Y-120511241D01*
X100597747Y-120511241D02*
X100678560Y-120538178D01*
X100678560Y-120538178D02*
X100786309Y-120538178D01*
X100786309Y-120538178D02*
X100894059Y-120484303D01*
X100894059Y-120484303D02*
X100947934Y-120430428D01*
X100947934Y-120430428D02*
X101001808Y-120322679D01*
X101001808Y-120322679D02*
X101001808Y-120268804D01*
X101001808Y-120268804D02*
X100813247Y-120080242D01*
X100813247Y-120080242D02*
X100705497Y-120187992D01*
X101298120Y-120080242D02*
X100732434Y-119514557D01*
X100732434Y-119514557D02*
X100947934Y-119299057D01*
X100947934Y-119299057D02*
X101028746Y-119272120D01*
X101028746Y-119272120D02*
X101082621Y-119272120D01*
X101082621Y-119272120D02*
X101163433Y-119299057D01*
X101163433Y-119299057D02*
X101244245Y-119379870D01*
X101244245Y-119379870D02*
X101271182Y-119460682D01*
X101271182Y-119460682D02*
X101271182Y-119514557D01*
X101271182Y-119514557D02*
X101244245Y-119595369D01*
X101244245Y-119595369D02*
X101028746Y-119810868D01*
X101325057Y-119029683D02*
X101325057Y-118975809D01*
X101325057Y-118975809D02*
X101351995Y-118894996D01*
X101351995Y-118894996D02*
X101486682Y-118760309D01*
X101486682Y-118760309D02*
X101567494Y-118733372D01*
X101567494Y-118733372D02*
X101621369Y-118733372D01*
X101621369Y-118733372D02*
X101702181Y-118760309D01*
X101702181Y-118760309D02*
X101756056Y-118814184D01*
X101756056Y-118814184D02*
X101809930Y-118921934D01*
X101809930Y-118921934D02*
X101809930Y-119568431D01*
X101809930Y-119568431D02*
X102160117Y-119218245D01*
X102079305Y-118167686D02*
X101971555Y-118275436D01*
X101971555Y-118275436D02*
X101944618Y-118356248D01*
X101944618Y-118356248D02*
X101944618Y-118410123D01*
X101944618Y-118410123D02*
X101971555Y-118544810D01*
X101971555Y-118544810D02*
X102052367Y-118679497D01*
X102052367Y-118679497D02*
X102267866Y-118894996D01*
X102267866Y-118894996D02*
X102348679Y-118921934D01*
X102348679Y-118921934D02*
X102402553Y-118921934D01*
X102402553Y-118921934D02*
X102483366Y-118894996D01*
X102483366Y-118894996D02*
X102591115Y-118787247D01*
X102591115Y-118787247D02*
X102618053Y-118706434D01*
X102618053Y-118706434D02*
X102618053Y-118652560D01*
X102618053Y-118652560D02*
X102591115Y-118571747D01*
X102591115Y-118571747D02*
X102456428Y-118437060D01*
X102456428Y-118437060D02*
X102375616Y-118410123D01*
X102375616Y-118410123D02*
X102321741Y-118410123D01*
X102321741Y-118410123D02*
X102240929Y-118437060D01*
X102240929Y-118437060D02*
X102133179Y-118544810D01*
X102133179Y-118544810D02*
X102106242Y-118625622D01*
X102106242Y-118625622D02*
X102106242Y-118679497D01*
X102106242Y-118679497D02*
X102133179Y-118760309D01*
X99022407Y-136508584D02*
X99372593Y-136158398D01*
X99372593Y-136158398D02*
X99399531Y-136562459D01*
X99399531Y-136562459D02*
X99480343Y-136481646D01*
X99480343Y-136481646D02*
X99561155Y-136454709D01*
X99561155Y-136454709D02*
X99615030Y-136454709D01*
X99615030Y-136454709D02*
X99695842Y-136481646D01*
X99695842Y-136481646D02*
X99830529Y-136616333D01*
X99830529Y-136616333D02*
X99857467Y-136697146D01*
X99857467Y-136697146D02*
X99857467Y-136751020D01*
X99857467Y-136751020D02*
X99830529Y-136831833D01*
X99830529Y-136831833D02*
X99668905Y-136993457D01*
X99668905Y-136993457D02*
X99588093Y-137020394D01*
X99588093Y-137020394D02*
X99534218Y-137020394D01*
X99534218Y-135996773D02*
X100288465Y-136373897D01*
X100288465Y-136373897D02*
X99911342Y-135619649D01*
X100046028Y-135484963D02*
X100396215Y-135134776D01*
X100396215Y-135134776D02*
X100423152Y-135538837D01*
X100423152Y-135538837D02*
X100503964Y-135458025D01*
X100503964Y-135458025D02*
X100584776Y-135431088D01*
X100584776Y-135431088D02*
X100638651Y-135431088D01*
X100638651Y-135431088D02*
X100719464Y-135458025D01*
X100719464Y-135458025D02*
X100854151Y-135592712D01*
X100854151Y-135592712D02*
X100881088Y-135673524D01*
X100881088Y-135673524D02*
X100881088Y-135727399D01*
X100881088Y-135727399D02*
X100854151Y-135808211D01*
X100854151Y-135808211D02*
X100692526Y-135969836D01*
X100692526Y-135969836D02*
X100611714Y-135996773D01*
X100611714Y-135996773D02*
X100557839Y-135996773D01*
X101123525Y-135646587D02*
X101554523Y-135215588D01*
X101339024Y-134730715D02*
X101527586Y-134542153D01*
X101904709Y-134757652D02*
X101635335Y-135027026D01*
X101635335Y-135027026D02*
X101069650Y-134461341D01*
X101069650Y-134461341D02*
X101339024Y-134191967D01*
X102147146Y-134515215D02*
X101581461Y-133949530D01*
X101581461Y-133949530D02*
X102470395Y-134191967D01*
X102470395Y-134191967D02*
X101904710Y-133626281D01*
X126586435Y-137348431D02*
X126505623Y-137375368D01*
X126505623Y-137375368D02*
X126424811Y-137456180D01*
X126424811Y-137456180D02*
X126370936Y-137563930D01*
X126370936Y-137563930D02*
X126370936Y-137671680D01*
X126370936Y-137671680D02*
X126397873Y-137752492D01*
X126397873Y-137752492D02*
X126478685Y-137887179D01*
X126478685Y-137887179D02*
X126559498Y-137967991D01*
X126559498Y-137967991D02*
X126694185Y-138048803D01*
X126694185Y-138048803D02*
X126774997Y-138075741D01*
X126774997Y-138075741D02*
X126882746Y-138075741D01*
X126882746Y-138075741D02*
X126990496Y-138021866D01*
X126990496Y-138021866D02*
X127044371Y-137967991D01*
X127044371Y-137967991D02*
X127098246Y-137860241D01*
X127098246Y-137860241D02*
X127098246Y-137806367D01*
X127098246Y-137806367D02*
X126909684Y-137617805D01*
X126909684Y-137617805D02*
X126801934Y-137725554D01*
X127394557Y-137617805D02*
X126828872Y-137052119D01*
X126828872Y-137052119D02*
X127717806Y-137294556D01*
X127717806Y-137294556D02*
X127152120Y-136728871D01*
X127987180Y-137025182D02*
X127421494Y-136459497D01*
X127421494Y-136459497D02*
X127556181Y-136324810D01*
X127556181Y-136324810D02*
X127663931Y-136270935D01*
X127663931Y-136270935D02*
X127771680Y-136270935D01*
X127771680Y-136270935D02*
X127852493Y-136297872D01*
X127852493Y-136297872D02*
X127987180Y-136378685D01*
X127987180Y-136378685D02*
X128067992Y-136459497D01*
X128067992Y-136459497D02*
X128148804Y-136594184D01*
X128148804Y-136594184D02*
X128175741Y-136674996D01*
X128175741Y-136674996D02*
X128175741Y-136782746D01*
X128175741Y-136782746D02*
X128121867Y-136890495D01*
X128121867Y-136890495D02*
X127987180Y-137025182D01*
X126613372Y-127161494D02*
X126532560Y-127188431D01*
X126532560Y-127188431D02*
X126451748Y-127269243D01*
X126451748Y-127269243D02*
X126397873Y-127376993D01*
X126397873Y-127376993D02*
X126397873Y-127484742D01*
X126397873Y-127484742D02*
X126424810Y-127565555D01*
X126424810Y-127565555D02*
X126505623Y-127700242D01*
X126505623Y-127700242D02*
X126586435Y-127781054D01*
X126586435Y-127781054D02*
X126721122Y-127861866D01*
X126721122Y-127861866D02*
X126801934Y-127888803D01*
X126801934Y-127888803D02*
X126909684Y-127888803D01*
X126909684Y-127888803D02*
X127017433Y-127834929D01*
X127017433Y-127834929D02*
X127071308Y-127781054D01*
X127071308Y-127781054D02*
X127125183Y-127673304D01*
X127125183Y-127673304D02*
X127125183Y-127619429D01*
X127125183Y-127619429D02*
X126936621Y-127430868D01*
X126936621Y-127430868D02*
X126828871Y-127538617D01*
X127421494Y-127430868D02*
X126855809Y-126865182D01*
X126855809Y-126865182D02*
X127071308Y-126649683D01*
X127071308Y-126649683D02*
X127152120Y-126622746D01*
X127152120Y-126622746D02*
X127205995Y-126622746D01*
X127205995Y-126622746D02*
X127286807Y-126649683D01*
X127286807Y-126649683D02*
X127367619Y-126730495D01*
X127367619Y-126730495D02*
X127394557Y-126811307D01*
X127394557Y-126811307D02*
X127394557Y-126865182D01*
X127394557Y-126865182D02*
X127367619Y-126945994D01*
X127367619Y-126945994D02*
X127152120Y-127161494D01*
X127690868Y-126030123D02*
X127421494Y-126299497D01*
X127421494Y-126299497D02*
X127663931Y-126595808D01*
X127663931Y-126595808D02*
X127663931Y-126541933D01*
X127663931Y-126541933D02*
X127690868Y-126461121D01*
X127690868Y-126461121D02*
X127825555Y-126326434D01*
X127825555Y-126326434D02*
X127906367Y-126299497D01*
X127906367Y-126299497D02*
X127960242Y-126299497D01*
X127960242Y-126299497D02*
X128041054Y-126326434D01*
X128041054Y-126326434D02*
X128175741Y-126461121D01*
X128175741Y-126461121D02*
X128202679Y-126541933D01*
X128202679Y-126541933D02*
X128202679Y-126595808D01*
X128202679Y-126595808D02*
X128175741Y-126676620D01*
X128175741Y-126676620D02*
X128041054Y-126811307D01*
X128041054Y-126811307D02*
X127960242Y-126838245D01*
X127960242Y-126838245D02*
X127906367Y-126838245D01*
X100489998Y-122340868D02*
X100409185Y-122367805D01*
X100409185Y-122367805D02*
X100328373Y-122448618D01*
X100328373Y-122448618D02*
X100274498Y-122556367D01*
X100274498Y-122556367D02*
X100274498Y-122664117D01*
X100274498Y-122664117D02*
X100301436Y-122744929D01*
X100301436Y-122744929D02*
X100382248Y-122879616D01*
X100382248Y-122879616D02*
X100463060Y-122960428D01*
X100463060Y-122960428D02*
X100597747Y-123041241D01*
X100597747Y-123041241D02*
X100678560Y-123068178D01*
X100678560Y-123068178D02*
X100786309Y-123068178D01*
X100786309Y-123068178D02*
X100894059Y-123014303D01*
X100894059Y-123014303D02*
X100947934Y-122960428D01*
X100947934Y-122960428D02*
X101001808Y-122852679D01*
X101001808Y-122852679D02*
X101001808Y-122798804D01*
X101001808Y-122798804D02*
X100813247Y-122610242D01*
X100813247Y-122610242D02*
X100705497Y-122717992D01*
X101298120Y-122610242D02*
X100732434Y-122044557D01*
X100732434Y-122044557D02*
X100947934Y-121829057D01*
X100947934Y-121829057D02*
X101028746Y-121802120D01*
X101028746Y-121802120D02*
X101082621Y-121802120D01*
X101082621Y-121802120D02*
X101163433Y-121829057D01*
X101163433Y-121829057D02*
X101244245Y-121909870D01*
X101244245Y-121909870D02*
X101271182Y-121990682D01*
X101271182Y-121990682D02*
X101271182Y-122044557D01*
X101271182Y-122044557D02*
X101244245Y-122125369D01*
X101244245Y-122125369D02*
X101028746Y-122340868D01*
X101325057Y-121559683D02*
X101325057Y-121505809D01*
X101325057Y-121505809D02*
X101351995Y-121424996D01*
X101351995Y-121424996D02*
X101486682Y-121290309D01*
X101486682Y-121290309D02*
X101567494Y-121263372D01*
X101567494Y-121263372D02*
X101621369Y-121263372D01*
X101621369Y-121263372D02*
X101702181Y-121290309D01*
X101702181Y-121290309D02*
X101756056Y-121344184D01*
X101756056Y-121344184D02*
X101809930Y-121451934D01*
X101809930Y-121451934D02*
X101809930Y-122098431D01*
X101809930Y-122098431D02*
X102160117Y-121748245D01*
X101782993Y-120993998D02*
X102160117Y-120616874D01*
X102160117Y-120616874D02*
X102483366Y-121424996D01*
X126713372Y-139871494D02*
X126632560Y-139898431D01*
X126632560Y-139898431D02*
X126551748Y-139979243D01*
X126551748Y-139979243D02*
X126497873Y-140086993D01*
X126497873Y-140086993D02*
X126497873Y-140194742D01*
X126497873Y-140194742D02*
X126524810Y-140275555D01*
X126524810Y-140275555D02*
X126605623Y-140410242D01*
X126605623Y-140410242D02*
X126686435Y-140491054D01*
X126686435Y-140491054D02*
X126821122Y-140571866D01*
X126821122Y-140571866D02*
X126901934Y-140598803D01*
X126901934Y-140598803D02*
X127009684Y-140598803D01*
X127009684Y-140598803D02*
X127117433Y-140544929D01*
X127117433Y-140544929D02*
X127171308Y-140491054D01*
X127171308Y-140491054D02*
X127225183Y-140383304D01*
X127225183Y-140383304D02*
X127225183Y-140329429D01*
X127225183Y-140329429D02*
X127036621Y-140140868D01*
X127036621Y-140140868D02*
X126928871Y-140248617D01*
X127521494Y-140140868D02*
X126955809Y-139575182D01*
X126955809Y-139575182D02*
X127171308Y-139359683D01*
X127171308Y-139359683D02*
X127252120Y-139332746D01*
X127252120Y-139332746D02*
X127305995Y-139332746D01*
X127305995Y-139332746D02*
X127386807Y-139359683D01*
X127386807Y-139359683D02*
X127467619Y-139440495D01*
X127467619Y-139440495D02*
X127494557Y-139521307D01*
X127494557Y-139521307D02*
X127494557Y-139575182D01*
X127494557Y-139575182D02*
X127467619Y-139655994D01*
X127467619Y-139655994D02*
X127252120Y-139871494D01*
X128383491Y-139278871D02*
X128060242Y-139602120D01*
X128221867Y-139440495D02*
X127656181Y-138874810D01*
X127656181Y-138874810D02*
X127683119Y-139009497D01*
X127683119Y-139009497D02*
X127683119Y-139117246D01*
X127683119Y-139117246D02*
X127656181Y-139198059D01*
X101338651Y-117553710D02*
X100880716Y-117472898D01*
X101015403Y-117876959D02*
X100449717Y-117311274D01*
X100449717Y-117311274D02*
X100665216Y-117095775D01*
X100665216Y-117095775D02*
X100746029Y-117068837D01*
X100746029Y-117068837D02*
X100799903Y-117068837D01*
X100799903Y-117068837D02*
X100880716Y-117095775D01*
X100880716Y-117095775D02*
X100961528Y-117176587D01*
X100961528Y-117176587D02*
X100988465Y-117257399D01*
X100988465Y-117257399D02*
X100988465Y-117311274D01*
X100988465Y-117311274D02*
X100961528Y-117392086D01*
X100961528Y-117392086D02*
X100746029Y-117607585D01*
X101015403Y-116745588D02*
X101473338Y-117203524D01*
X101473338Y-117203524D02*
X101554151Y-117230462D01*
X101554151Y-117230462D02*
X101608025Y-117230462D01*
X101608025Y-117230462D02*
X101688838Y-117203524D01*
X101688838Y-117203524D02*
X101796587Y-117095775D01*
X101796587Y-117095775D02*
X101823525Y-117014962D01*
X101823525Y-117014962D02*
X101823525Y-116961088D01*
X101823525Y-116961088D02*
X101796587Y-116880275D01*
X101796587Y-116880275D02*
X101338651Y-116422340D01*
X102173711Y-116718651D02*
X101608025Y-116152966D01*
X101608025Y-116152966D02*
X102496959Y-116395402D01*
X102496959Y-116395402D02*
X101931274Y-115829717D01*
X126613372Y-132241494D02*
X126532560Y-132268431D01*
X126532560Y-132268431D02*
X126451748Y-132349243D01*
X126451748Y-132349243D02*
X126397873Y-132456993D01*
X126397873Y-132456993D02*
X126397873Y-132564742D01*
X126397873Y-132564742D02*
X126424810Y-132645555D01*
X126424810Y-132645555D02*
X126505623Y-132780242D01*
X126505623Y-132780242D02*
X126586435Y-132861054D01*
X126586435Y-132861054D02*
X126721122Y-132941866D01*
X126721122Y-132941866D02*
X126801934Y-132968803D01*
X126801934Y-132968803D02*
X126909684Y-132968803D01*
X126909684Y-132968803D02*
X127017433Y-132914929D01*
X127017433Y-132914929D02*
X127071308Y-132861054D01*
X127071308Y-132861054D02*
X127125183Y-132753304D01*
X127125183Y-132753304D02*
X127125183Y-132699429D01*
X127125183Y-132699429D02*
X126936621Y-132510868D01*
X126936621Y-132510868D02*
X126828871Y-132618617D01*
X127421494Y-132510868D02*
X126855809Y-131945182D01*
X126855809Y-131945182D02*
X127071308Y-131729683D01*
X127071308Y-131729683D02*
X127152120Y-131702746D01*
X127152120Y-131702746D02*
X127205995Y-131702746D01*
X127205995Y-131702746D02*
X127286807Y-131729683D01*
X127286807Y-131729683D02*
X127367619Y-131810495D01*
X127367619Y-131810495D02*
X127394557Y-131891307D01*
X127394557Y-131891307D02*
X127394557Y-131945182D01*
X127394557Y-131945182D02*
X127367619Y-132025994D01*
X127367619Y-132025994D02*
X127152120Y-132241494D01*
X127367619Y-131433372D02*
X127717806Y-131083185D01*
X127717806Y-131083185D02*
X127744743Y-131487246D01*
X127744743Y-131487246D02*
X127825555Y-131406434D01*
X127825555Y-131406434D02*
X127906367Y-131379497D01*
X127906367Y-131379497D02*
X127960242Y-131379497D01*
X127960242Y-131379497D02*
X128041054Y-131406434D01*
X128041054Y-131406434D02*
X128175741Y-131541121D01*
X128175741Y-131541121D02*
X128202679Y-131621933D01*
X128202679Y-131621933D02*
X128202679Y-131675808D01*
X128202679Y-131675808D02*
X128175741Y-131756620D01*
X128175741Y-131756620D02*
X128014117Y-131918245D01*
X128014117Y-131918245D02*
X127933305Y-131945182D01*
X127933305Y-131945182D02*
X127879430Y-131945182D01*
X98655064Y-132684049D02*
X98924438Y-132414675D01*
X98762813Y-132899549D02*
X98385690Y-132145301D01*
X98385690Y-132145301D02*
X99139937Y-132522425D01*
X99328499Y-132333863D02*
X98762813Y-131768178D01*
X98762813Y-131768178D02*
X98897500Y-131633491D01*
X98897500Y-131633491D02*
X99005250Y-131579616D01*
X99005250Y-131579616D02*
X99112999Y-131579616D01*
X99112999Y-131579616D02*
X99193812Y-131606553D01*
X99193812Y-131606553D02*
X99328499Y-131687366D01*
X99328499Y-131687366D02*
X99409311Y-131768178D01*
X99409311Y-131768178D02*
X99490123Y-131902865D01*
X99490123Y-131902865D02*
X99517060Y-131983677D01*
X99517060Y-131983677D02*
X99517060Y-132091427D01*
X99517060Y-132091427D02*
X99463186Y-132199176D01*
X99463186Y-132199176D02*
X99328499Y-132333863D01*
X100163558Y-131391054D02*
X100163558Y-131444929D01*
X100163558Y-131444929D02*
X100109683Y-131552679D01*
X100109683Y-131552679D02*
X100055808Y-131606553D01*
X100055808Y-131606553D02*
X99948059Y-131660428D01*
X99948059Y-131660428D02*
X99840309Y-131660428D01*
X99840309Y-131660428D02*
X99759497Y-131633491D01*
X99759497Y-131633491D02*
X99624810Y-131552679D01*
X99624810Y-131552679D02*
X99543998Y-131471866D01*
X99543998Y-131471866D02*
X99463186Y-131337179D01*
X99463186Y-131337179D02*
X99436248Y-131256367D01*
X99436248Y-131256367D02*
X99436248Y-131148618D01*
X99436248Y-131148618D02*
X99490123Y-131040868D01*
X99490123Y-131040868D02*
X99543998Y-130986993D01*
X99543998Y-130986993D02*
X99651747Y-130933118D01*
X99651747Y-130933118D02*
X99705622Y-130933118D01*
X100379057Y-131391054D02*
X100810056Y-130960056D01*
X100244370Y-130286621D02*
X100998618Y-130663744D01*
X100998618Y-130663744D02*
X100621494Y-129909497D01*
X101698990Y-129963372D02*
X101241054Y-129882560D01*
X101375741Y-130286621D02*
X100810056Y-129720935D01*
X100810056Y-129720935D02*
X101025555Y-129505436D01*
X101025555Y-129505436D02*
X101106367Y-129478499D01*
X101106367Y-129478499D02*
X101160242Y-129478499D01*
X101160242Y-129478499D02*
X101241054Y-129505436D01*
X101241054Y-129505436D02*
X101321866Y-129586248D01*
X101321866Y-129586248D02*
X101348804Y-129667061D01*
X101348804Y-129667061D02*
X101348804Y-129720935D01*
X101348804Y-129720935D02*
X101321866Y-129801748D01*
X101321866Y-129801748D02*
X101106367Y-130017247D01*
X101645115Y-129424624D02*
X101833677Y-129236062D01*
X102210800Y-129451561D02*
X101941426Y-129720935D01*
X101941426Y-129720935D02*
X101375741Y-129155250D01*
X101375741Y-129155250D02*
X101645115Y-128885876D01*
X102345488Y-128724251D02*
X102156926Y-128912813D01*
X102453237Y-129209125D02*
X101887552Y-128643439D01*
X101887552Y-128643439D02*
X102156926Y-128374065D01*
X126586435Y-124648431D02*
X126505623Y-124675368D01*
X126505623Y-124675368D02*
X126424811Y-124756180D01*
X126424811Y-124756180D02*
X126370936Y-124863930D01*
X126370936Y-124863930D02*
X126370936Y-124971680D01*
X126370936Y-124971680D02*
X126397873Y-125052492D01*
X126397873Y-125052492D02*
X126478685Y-125187179D01*
X126478685Y-125187179D02*
X126559498Y-125267991D01*
X126559498Y-125267991D02*
X126694185Y-125348803D01*
X126694185Y-125348803D02*
X126774997Y-125375741D01*
X126774997Y-125375741D02*
X126882746Y-125375741D01*
X126882746Y-125375741D02*
X126990496Y-125321866D01*
X126990496Y-125321866D02*
X127044371Y-125267991D01*
X127044371Y-125267991D02*
X127098246Y-125160241D01*
X127098246Y-125160241D02*
X127098246Y-125106367D01*
X127098246Y-125106367D02*
X126909684Y-124917805D01*
X126909684Y-124917805D02*
X126801934Y-125025554D01*
X127394557Y-124917805D02*
X126828872Y-124352119D01*
X126828872Y-124352119D02*
X127717806Y-124594556D01*
X127717806Y-124594556D02*
X127152120Y-124028871D01*
X127987180Y-124325182D02*
X127421494Y-123759497D01*
X127421494Y-123759497D02*
X127556181Y-123624810D01*
X127556181Y-123624810D02*
X127663931Y-123570935D01*
X127663931Y-123570935D02*
X127771680Y-123570935D01*
X127771680Y-123570935D02*
X127852493Y-123597872D01*
X127852493Y-123597872D02*
X127987180Y-123678685D01*
X127987180Y-123678685D02*
X128067992Y-123759497D01*
X128067992Y-123759497D02*
X128148804Y-123894184D01*
X128148804Y-123894184D02*
X128175741Y-123974996D01*
X128175741Y-123974996D02*
X128175741Y-124082746D01*
X128175741Y-124082746D02*
X128121867Y-124190495D01*
X128121867Y-124190495D02*
X127987180Y-124325182D01*
X126586435Y-99248431D02*
X126505623Y-99275368D01*
X126505623Y-99275368D02*
X126424811Y-99356180D01*
X126424811Y-99356180D02*
X126370936Y-99463930D01*
X126370936Y-99463930D02*
X126370936Y-99571680D01*
X126370936Y-99571680D02*
X126397873Y-99652492D01*
X126397873Y-99652492D02*
X126478685Y-99787179D01*
X126478685Y-99787179D02*
X126559498Y-99867991D01*
X126559498Y-99867991D02*
X126694185Y-99948803D01*
X126694185Y-99948803D02*
X126774997Y-99975741D01*
X126774997Y-99975741D02*
X126882746Y-99975741D01*
X126882746Y-99975741D02*
X126990496Y-99921866D01*
X126990496Y-99921866D02*
X127044371Y-99867991D01*
X127044371Y-99867991D02*
X127098246Y-99760241D01*
X127098246Y-99760241D02*
X127098246Y-99706367D01*
X127098246Y-99706367D02*
X126909684Y-99517805D01*
X126909684Y-99517805D02*
X126801934Y-99625554D01*
X127394557Y-99517805D02*
X126828872Y-98952119D01*
X126828872Y-98952119D02*
X127717806Y-99194556D01*
X127717806Y-99194556D02*
X127152120Y-98628871D01*
X127987180Y-98925182D02*
X127421494Y-98359497D01*
X127421494Y-98359497D02*
X127556181Y-98224810D01*
X127556181Y-98224810D02*
X127663931Y-98170935D01*
X127663931Y-98170935D02*
X127771680Y-98170935D01*
X127771680Y-98170935D02*
X127852493Y-98197872D01*
X127852493Y-98197872D02*
X127987180Y-98278685D01*
X127987180Y-98278685D02*
X128067992Y-98359497D01*
X128067992Y-98359497D02*
X128148804Y-98494184D01*
X128148804Y-98494184D02*
X128175741Y-98574996D01*
X128175741Y-98574996D02*
X128175741Y-98682746D01*
X128175741Y-98682746D02*
X128121867Y-98790495D01*
X128121867Y-98790495D02*
X127987180Y-98925182D01*
X126513372Y-119571494D02*
X126432560Y-119598431D01*
X126432560Y-119598431D02*
X126351748Y-119679243D01*
X126351748Y-119679243D02*
X126297873Y-119786993D01*
X126297873Y-119786993D02*
X126297873Y-119894742D01*
X126297873Y-119894742D02*
X126324810Y-119975555D01*
X126324810Y-119975555D02*
X126405623Y-120110242D01*
X126405623Y-120110242D02*
X126486435Y-120191054D01*
X126486435Y-120191054D02*
X126621122Y-120271866D01*
X126621122Y-120271866D02*
X126701934Y-120298803D01*
X126701934Y-120298803D02*
X126809684Y-120298803D01*
X126809684Y-120298803D02*
X126917433Y-120244929D01*
X126917433Y-120244929D02*
X126971308Y-120191054D01*
X126971308Y-120191054D02*
X127025183Y-120083304D01*
X127025183Y-120083304D02*
X127025183Y-120029429D01*
X127025183Y-120029429D02*
X126836621Y-119840868D01*
X126836621Y-119840868D02*
X126728871Y-119948617D01*
X127321494Y-119840868D02*
X126755809Y-119275182D01*
X126755809Y-119275182D02*
X126971308Y-119059683D01*
X126971308Y-119059683D02*
X127052120Y-119032746D01*
X127052120Y-119032746D02*
X127105995Y-119032746D01*
X127105995Y-119032746D02*
X127186807Y-119059683D01*
X127186807Y-119059683D02*
X127267619Y-119140495D01*
X127267619Y-119140495D02*
X127294557Y-119221307D01*
X127294557Y-119221307D02*
X127294557Y-119275182D01*
X127294557Y-119275182D02*
X127267619Y-119355994D01*
X127267619Y-119355994D02*
X127052120Y-119571494D01*
X127267619Y-118763372D02*
X127644743Y-118386248D01*
X127644743Y-118386248D02*
X127967992Y-119194370D01*
X100489998Y-109640868D02*
X100409185Y-109667805D01*
X100409185Y-109667805D02*
X100328373Y-109748618D01*
X100328373Y-109748618D02*
X100274498Y-109856367D01*
X100274498Y-109856367D02*
X100274498Y-109964117D01*
X100274498Y-109964117D02*
X100301436Y-110044929D01*
X100301436Y-110044929D02*
X100382248Y-110179616D01*
X100382248Y-110179616D02*
X100463060Y-110260428D01*
X100463060Y-110260428D02*
X100597747Y-110341241D01*
X100597747Y-110341241D02*
X100678560Y-110368178D01*
X100678560Y-110368178D02*
X100786309Y-110368178D01*
X100786309Y-110368178D02*
X100894059Y-110314303D01*
X100894059Y-110314303D02*
X100947934Y-110260428D01*
X100947934Y-110260428D02*
X101001808Y-110152679D01*
X101001808Y-110152679D02*
X101001808Y-110098804D01*
X101001808Y-110098804D02*
X100813247Y-109910242D01*
X100813247Y-109910242D02*
X100705497Y-110017992D01*
X101298120Y-109910242D02*
X100732434Y-109344557D01*
X100732434Y-109344557D02*
X100947934Y-109129057D01*
X100947934Y-109129057D02*
X101028746Y-109102120D01*
X101028746Y-109102120D02*
X101082621Y-109102120D01*
X101082621Y-109102120D02*
X101163433Y-109129057D01*
X101163433Y-109129057D02*
X101244245Y-109209870D01*
X101244245Y-109209870D02*
X101271182Y-109290682D01*
X101271182Y-109290682D02*
X101271182Y-109344557D01*
X101271182Y-109344557D02*
X101244245Y-109425369D01*
X101244245Y-109425369D02*
X101028746Y-109640868D01*
X101325057Y-108859683D02*
X101325057Y-108805809D01*
X101325057Y-108805809D02*
X101351995Y-108724996D01*
X101351995Y-108724996D02*
X101486682Y-108590309D01*
X101486682Y-108590309D02*
X101567494Y-108563372D01*
X101567494Y-108563372D02*
X101621369Y-108563372D01*
X101621369Y-108563372D02*
X101702181Y-108590309D01*
X101702181Y-108590309D02*
X101756056Y-108644184D01*
X101756056Y-108644184D02*
X101809930Y-108751934D01*
X101809930Y-108751934D02*
X101809930Y-109398431D01*
X101809930Y-109398431D02*
X102160117Y-109048245D01*
X102698865Y-108509497D02*
X102375616Y-108832746D01*
X102537240Y-108671121D02*
X101971555Y-108105436D01*
X101971555Y-108105436D02*
X101998492Y-108240123D01*
X101998492Y-108240123D02*
X101998492Y-108347873D01*
X101998492Y-108347873D02*
X101971555Y-108428685D01*
X126613372Y-122081494D02*
X126532560Y-122108431D01*
X126532560Y-122108431D02*
X126451748Y-122189243D01*
X126451748Y-122189243D02*
X126397873Y-122296993D01*
X126397873Y-122296993D02*
X126397873Y-122404742D01*
X126397873Y-122404742D02*
X126424810Y-122485555D01*
X126424810Y-122485555D02*
X126505623Y-122620242D01*
X126505623Y-122620242D02*
X126586435Y-122701054D01*
X126586435Y-122701054D02*
X126721122Y-122781866D01*
X126721122Y-122781866D02*
X126801934Y-122808803D01*
X126801934Y-122808803D02*
X126909684Y-122808803D01*
X126909684Y-122808803D02*
X127017433Y-122754929D01*
X127017433Y-122754929D02*
X127071308Y-122701054D01*
X127071308Y-122701054D02*
X127125183Y-122593304D01*
X127125183Y-122593304D02*
X127125183Y-122539429D01*
X127125183Y-122539429D02*
X126936621Y-122350868D01*
X126936621Y-122350868D02*
X126828871Y-122458617D01*
X127421494Y-122350868D02*
X126855809Y-121785182D01*
X126855809Y-121785182D02*
X127071308Y-121569683D01*
X127071308Y-121569683D02*
X127152120Y-121542746D01*
X127152120Y-121542746D02*
X127205995Y-121542746D01*
X127205995Y-121542746D02*
X127286807Y-121569683D01*
X127286807Y-121569683D02*
X127367619Y-121650495D01*
X127367619Y-121650495D02*
X127394557Y-121731307D01*
X127394557Y-121731307D02*
X127394557Y-121785182D01*
X127394557Y-121785182D02*
X127367619Y-121865994D01*
X127367619Y-121865994D02*
X127152120Y-122081494D01*
X127663931Y-120977060D02*
X127556181Y-121084810D01*
X127556181Y-121084810D02*
X127529244Y-121165622D01*
X127529244Y-121165622D02*
X127529244Y-121219497D01*
X127529244Y-121219497D02*
X127556181Y-121354184D01*
X127556181Y-121354184D02*
X127636993Y-121488871D01*
X127636993Y-121488871D02*
X127852493Y-121704370D01*
X127852493Y-121704370D02*
X127933305Y-121731307D01*
X127933305Y-121731307D02*
X127987180Y-121731307D01*
X127987180Y-121731307D02*
X128067992Y-121704370D01*
X128067992Y-121704370D02*
X128175741Y-121596620D01*
X128175741Y-121596620D02*
X128202679Y-121515808D01*
X128202679Y-121515808D02*
X128202679Y-121461933D01*
X128202679Y-121461933D02*
X128175741Y-121381121D01*
X128175741Y-121381121D02*
X128041054Y-121246434D01*
X128041054Y-121246434D02*
X127960242Y-121219497D01*
X127960242Y-121219497D02*
X127906367Y-121219497D01*
X127906367Y-121219497D02*
X127825555Y-121246434D01*
X127825555Y-121246434D02*
X127717806Y-121354184D01*
X127717806Y-121354184D02*
X127690868Y-121434996D01*
X127690868Y-121434996D02*
X127690868Y-121488871D01*
X127690868Y-121488871D02*
X127717806Y-121569683D01*
X126586435Y-111948431D02*
X126505623Y-111975368D01*
X126505623Y-111975368D02*
X126424811Y-112056180D01*
X126424811Y-112056180D02*
X126370936Y-112163930D01*
X126370936Y-112163930D02*
X126370936Y-112271680D01*
X126370936Y-112271680D02*
X126397873Y-112352492D01*
X126397873Y-112352492D02*
X126478685Y-112487179D01*
X126478685Y-112487179D02*
X126559498Y-112567991D01*
X126559498Y-112567991D02*
X126694185Y-112648803D01*
X126694185Y-112648803D02*
X126774997Y-112675741D01*
X126774997Y-112675741D02*
X126882746Y-112675741D01*
X126882746Y-112675741D02*
X126990496Y-112621866D01*
X126990496Y-112621866D02*
X127044371Y-112567991D01*
X127044371Y-112567991D02*
X127098246Y-112460241D01*
X127098246Y-112460241D02*
X127098246Y-112406367D01*
X127098246Y-112406367D02*
X126909684Y-112217805D01*
X126909684Y-112217805D02*
X126801934Y-112325554D01*
X127394557Y-112217805D02*
X126828872Y-111652119D01*
X126828872Y-111652119D02*
X127717806Y-111894556D01*
X127717806Y-111894556D02*
X127152120Y-111328871D01*
X127987180Y-111625182D02*
X127421494Y-111059497D01*
X127421494Y-111059497D02*
X127556181Y-110924810D01*
X127556181Y-110924810D02*
X127663931Y-110870935D01*
X127663931Y-110870935D02*
X127771680Y-110870935D01*
X127771680Y-110870935D02*
X127852493Y-110897872D01*
X127852493Y-110897872D02*
X127987180Y-110978685D01*
X127987180Y-110978685D02*
X128067992Y-111059497D01*
X128067992Y-111059497D02*
X128148804Y-111194184D01*
X128148804Y-111194184D02*
X128175741Y-111274996D01*
X128175741Y-111274996D02*
X128175741Y-111382746D01*
X128175741Y-111382746D02*
X128121867Y-111490495D01*
X128121867Y-111490495D02*
X127987180Y-111625182D01*
X126643998Y-96950868D02*
X126563185Y-96977805D01*
X126563185Y-96977805D02*
X126482373Y-97058618D01*
X126482373Y-97058618D02*
X126428498Y-97166367D01*
X126428498Y-97166367D02*
X126428498Y-97274117D01*
X126428498Y-97274117D02*
X126455436Y-97354929D01*
X126455436Y-97354929D02*
X126536248Y-97489616D01*
X126536248Y-97489616D02*
X126617060Y-97570428D01*
X126617060Y-97570428D02*
X126751747Y-97651241D01*
X126751747Y-97651241D02*
X126832560Y-97678178D01*
X126832560Y-97678178D02*
X126940309Y-97678178D01*
X126940309Y-97678178D02*
X127048059Y-97624303D01*
X127048059Y-97624303D02*
X127101934Y-97570428D01*
X127101934Y-97570428D02*
X127155808Y-97462679D01*
X127155808Y-97462679D02*
X127155808Y-97408804D01*
X127155808Y-97408804D02*
X126967247Y-97220242D01*
X126967247Y-97220242D02*
X126859497Y-97327992D01*
X127452120Y-97220242D02*
X126886434Y-96654557D01*
X126886434Y-96654557D02*
X127101934Y-96439057D01*
X127101934Y-96439057D02*
X127182746Y-96412120D01*
X127182746Y-96412120D02*
X127236621Y-96412120D01*
X127236621Y-96412120D02*
X127317433Y-96439057D01*
X127317433Y-96439057D02*
X127398245Y-96519870D01*
X127398245Y-96519870D02*
X127425182Y-96600682D01*
X127425182Y-96600682D02*
X127425182Y-96654557D01*
X127425182Y-96654557D02*
X127398245Y-96735369D01*
X127398245Y-96735369D02*
X127182746Y-96950868D01*
X128314117Y-96358245D02*
X127990868Y-96681494D01*
X128152492Y-96519870D02*
X127586807Y-95954184D01*
X127586807Y-95954184D02*
X127613744Y-96088871D01*
X127613744Y-96088871D02*
X127613744Y-96196621D01*
X127613744Y-96196621D02*
X127586807Y-96277433D01*
X128421866Y-95496248D02*
X128798990Y-95873372D01*
X128071680Y-95415436D02*
X128341054Y-95954184D01*
X128341054Y-95954184D02*
X128691240Y-95603998D01*
X126597998Y-102030868D02*
X126517185Y-102057805D01*
X126517185Y-102057805D02*
X126436373Y-102138618D01*
X126436373Y-102138618D02*
X126382498Y-102246367D01*
X126382498Y-102246367D02*
X126382498Y-102354117D01*
X126382498Y-102354117D02*
X126409436Y-102434929D01*
X126409436Y-102434929D02*
X126490248Y-102569616D01*
X126490248Y-102569616D02*
X126571060Y-102650428D01*
X126571060Y-102650428D02*
X126705747Y-102731241D01*
X126705747Y-102731241D02*
X126786560Y-102758178D01*
X126786560Y-102758178D02*
X126894309Y-102758178D01*
X126894309Y-102758178D02*
X127002059Y-102704303D01*
X127002059Y-102704303D02*
X127055934Y-102650428D01*
X127055934Y-102650428D02*
X127109808Y-102542679D01*
X127109808Y-102542679D02*
X127109808Y-102488804D01*
X127109808Y-102488804D02*
X126921247Y-102300242D01*
X126921247Y-102300242D02*
X126813497Y-102407992D01*
X127406120Y-102300242D02*
X126840434Y-101734557D01*
X126840434Y-101734557D02*
X127055934Y-101519057D01*
X127055934Y-101519057D02*
X127136746Y-101492120D01*
X127136746Y-101492120D02*
X127190621Y-101492120D01*
X127190621Y-101492120D02*
X127271433Y-101519057D01*
X127271433Y-101519057D02*
X127352245Y-101599870D01*
X127352245Y-101599870D02*
X127379182Y-101680682D01*
X127379182Y-101680682D02*
X127379182Y-101734557D01*
X127379182Y-101734557D02*
X127352245Y-101815369D01*
X127352245Y-101815369D02*
X127136746Y-102030868D01*
X128268117Y-101438245D02*
X127944868Y-101761494D01*
X128106492Y-101599870D02*
X127540807Y-101034184D01*
X127540807Y-101034184D02*
X127567744Y-101168871D01*
X127567744Y-101168871D02*
X127567744Y-101276621D01*
X127567744Y-101276621D02*
X127540807Y-101357433D01*
X127890993Y-100683998D02*
X128241179Y-100333812D01*
X128241179Y-100333812D02*
X128268117Y-100737873D01*
X128268117Y-100737873D02*
X128348929Y-100657060D01*
X128348929Y-100657060D02*
X128429741Y-100630123D01*
X128429741Y-100630123D02*
X128483616Y-100630123D01*
X128483616Y-100630123D02*
X128564428Y-100657060D01*
X128564428Y-100657060D02*
X128699115Y-100791747D01*
X128699115Y-100791747D02*
X128726053Y-100872560D01*
X128726053Y-100872560D02*
X128726053Y-100926434D01*
X128726053Y-100926434D02*
X128699115Y-101007247D01*
X128699115Y-101007247D02*
X128537491Y-101168871D01*
X128537491Y-101168871D02*
X128456679Y-101195808D01*
X128456679Y-101195808D02*
X128402804Y-101195808D01*
X100986435Y-99248431D02*
X100905623Y-99275368D01*
X100905623Y-99275368D02*
X100824811Y-99356180D01*
X100824811Y-99356180D02*
X100770936Y-99463930D01*
X100770936Y-99463930D02*
X100770936Y-99571680D01*
X100770936Y-99571680D02*
X100797873Y-99652492D01*
X100797873Y-99652492D02*
X100878685Y-99787179D01*
X100878685Y-99787179D02*
X100959498Y-99867991D01*
X100959498Y-99867991D02*
X101094185Y-99948803D01*
X101094185Y-99948803D02*
X101174997Y-99975741D01*
X101174997Y-99975741D02*
X101282746Y-99975741D01*
X101282746Y-99975741D02*
X101390496Y-99921866D01*
X101390496Y-99921866D02*
X101444371Y-99867991D01*
X101444371Y-99867991D02*
X101498246Y-99760241D01*
X101498246Y-99760241D02*
X101498246Y-99706367D01*
X101498246Y-99706367D02*
X101309684Y-99517805D01*
X101309684Y-99517805D02*
X101201934Y-99625554D01*
X101794557Y-99517805D02*
X101228872Y-98952119D01*
X101228872Y-98952119D02*
X102117806Y-99194556D01*
X102117806Y-99194556D02*
X101552120Y-98628871D01*
X102387180Y-98925182D02*
X101821494Y-98359497D01*
X101821494Y-98359497D02*
X101956181Y-98224810D01*
X101956181Y-98224810D02*
X102063931Y-98170935D01*
X102063931Y-98170935D02*
X102171680Y-98170935D01*
X102171680Y-98170935D02*
X102252493Y-98197872D01*
X102252493Y-98197872D02*
X102387180Y-98278685D01*
X102387180Y-98278685D02*
X102467992Y-98359497D01*
X102467992Y-98359497D02*
X102548804Y-98494184D01*
X102548804Y-98494184D02*
X102575741Y-98574996D01*
X102575741Y-98574996D02*
X102575741Y-98682746D01*
X102575741Y-98682746D02*
X102521867Y-98790495D01*
X102521867Y-98790495D02*
X102387180Y-98925182D01*
X100986435Y-111948431D02*
X100905623Y-111975368D01*
X100905623Y-111975368D02*
X100824811Y-112056180D01*
X100824811Y-112056180D02*
X100770936Y-112163930D01*
X100770936Y-112163930D02*
X100770936Y-112271680D01*
X100770936Y-112271680D02*
X100797873Y-112352492D01*
X100797873Y-112352492D02*
X100878685Y-112487179D01*
X100878685Y-112487179D02*
X100959498Y-112567991D01*
X100959498Y-112567991D02*
X101094185Y-112648803D01*
X101094185Y-112648803D02*
X101174997Y-112675741D01*
X101174997Y-112675741D02*
X101282746Y-112675741D01*
X101282746Y-112675741D02*
X101390496Y-112621866D01*
X101390496Y-112621866D02*
X101444371Y-112567991D01*
X101444371Y-112567991D02*
X101498246Y-112460241D01*
X101498246Y-112460241D02*
X101498246Y-112406367D01*
X101498246Y-112406367D02*
X101309684Y-112217805D01*
X101309684Y-112217805D02*
X101201934Y-112325554D01*
X101794557Y-112217805D02*
X101228872Y-111652119D01*
X101228872Y-111652119D02*
X102117806Y-111894556D01*
X102117806Y-111894556D02*
X101552120Y-111328871D01*
X102387180Y-111625182D02*
X101821494Y-111059497D01*
X101821494Y-111059497D02*
X101956181Y-110924810D01*
X101956181Y-110924810D02*
X102063931Y-110870935D01*
X102063931Y-110870935D02*
X102171680Y-110870935D01*
X102171680Y-110870935D02*
X102252493Y-110897872D01*
X102252493Y-110897872D02*
X102387180Y-110978685D01*
X102387180Y-110978685D02*
X102467992Y-111059497D01*
X102467992Y-111059497D02*
X102548804Y-111194184D01*
X102548804Y-111194184D02*
X102575741Y-111274996D01*
X102575741Y-111274996D02*
X102575741Y-111382746D01*
X102575741Y-111382746D02*
X102521867Y-111490495D01*
X102521867Y-111490495D02*
X102387180Y-111625182D01*
X100020749Y-140400242D02*
X100774996Y-140777366D01*
X100774996Y-140777366D02*
X100397873Y-140023118D01*
X101098245Y-140400242D02*
X101205995Y-140346367D01*
X101205995Y-140346367D02*
X101340682Y-140211680D01*
X101340682Y-140211680D02*
X101367619Y-140130868D01*
X101367619Y-140130868D02*
X101367619Y-140076993D01*
X101367619Y-140076993D02*
X101340682Y-139996181D01*
X101340682Y-139996181D02*
X101286807Y-139942306D01*
X101286807Y-139942306D02*
X101205995Y-139915369D01*
X101205995Y-139915369D02*
X101152120Y-139915369D01*
X101152120Y-139915369D02*
X101071308Y-139942306D01*
X101071308Y-139942306D02*
X100936621Y-140023118D01*
X100936621Y-140023118D02*
X100855808Y-140050056D01*
X100855808Y-140050056D02*
X100801934Y-140050056D01*
X100801934Y-140050056D02*
X100721121Y-140023118D01*
X100721121Y-140023118D02*
X100667247Y-139969244D01*
X100667247Y-139969244D02*
X100640309Y-139888431D01*
X100640309Y-139888431D02*
X100640309Y-139834557D01*
X100640309Y-139834557D02*
X100667247Y-139753744D01*
X100667247Y-139753744D02*
X100801934Y-139619057D01*
X100801934Y-139619057D02*
X100909683Y-139565183D01*
X101529244Y-139484370D02*
X101798618Y-139753744D01*
X101044370Y-139376621D02*
X101529244Y-139484370D01*
X101529244Y-139484370D02*
X101421494Y-138999497D01*
X102121866Y-139376621D02*
X102229616Y-139322746D01*
X102229616Y-139322746D02*
X102364303Y-139188059D01*
X102364303Y-139188059D02*
X102391240Y-139107247D01*
X102391240Y-139107247D02*
X102391240Y-139053372D01*
X102391240Y-139053372D02*
X102364303Y-138972560D01*
X102364303Y-138972560D02*
X102310428Y-138918685D01*
X102310428Y-138918685D02*
X102229616Y-138891748D01*
X102229616Y-138891748D02*
X102175741Y-138891748D01*
X102175741Y-138891748D02*
X102094929Y-138918685D01*
X102094929Y-138918685D02*
X101960242Y-138999497D01*
X101960242Y-138999497D02*
X101879430Y-139026435D01*
X101879430Y-139026435D02*
X101825555Y-139026435D01*
X101825555Y-139026435D02*
X101744743Y-138999497D01*
X101744743Y-138999497D02*
X101690868Y-138945622D01*
X101690868Y-138945622D02*
X101663930Y-138864810D01*
X101663930Y-138864810D02*
X101663930Y-138810935D01*
X101663930Y-138810935D02*
X101690868Y-138730123D01*
X101690868Y-138730123D02*
X101825555Y-138595436D01*
X101825555Y-138595436D02*
X101933304Y-138541561D01*
X100489998Y-102030868D02*
X100409185Y-102057805D01*
X100409185Y-102057805D02*
X100328373Y-102138618D01*
X100328373Y-102138618D02*
X100274498Y-102246367D01*
X100274498Y-102246367D02*
X100274498Y-102354117D01*
X100274498Y-102354117D02*
X100301436Y-102434929D01*
X100301436Y-102434929D02*
X100382248Y-102569616D01*
X100382248Y-102569616D02*
X100463060Y-102650428D01*
X100463060Y-102650428D02*
X100597747Y-102731241D01*
X100597747Y-102731241D02*
X100678560Y-102758178D01*
X100678560Y-102758178D02*
X100786309Y-102758178D01*
X100786309Y-102758178D02*
X100894059Y-102704303D01*
X100894059Y-102704303D02*
X100947934Y-102650428D01*
X100947934Y-102650428D02*
X101001808Y-102542679D01*
X101001808Y-102542679D02*
X101001808Y-102488804D01*
X101001808Y-102488804D02*
X100813247Y-102300242D01*
X100813247Y-102300242D02*
X100705497Y-102407992D01*
X101298120Y-102300242D02*
X100732434Y-101734557D01*
X100732434Y-101734557D02*
X100947934Y-101519057D01*
X100947934Y-101519057D02*
X101028746Y-101492120D01*
X101028746Y-101492120D02*
X101082621Y-101492120D01*
X101082621Y-101492120D02*
X101163433Y-101519057D01*
X101163433Y-101519057D02*
X101244245Y-101599870D01*
X101244245Y-101599870D02*
X101271182Y-101680682D01*
X101271182Y-101680682D02*
X101271182Y-101734557D01*
X101271182Y-101734557D02*
X101244245Y-101815369D01*
X101244245Y-101815369D02*
X101028746Y-102030868D01*
X102160117Y-101438245D02*
X101836868Y-101761494D01*
X101998492Y-101599870D02*
X101432807Y-101034184D01*
X101432807Y-101034184D02*
X101459744Y-101168871D01*
X101459744Y-101168871D02*
X101459744Y-101276621D01*
X101459744Y-101276621D02*
X101432807Y-101357433D01*
X102160117Y-100791747D02*
X102079305Y-100818685D01*
X102079305Y-100818685D02*
X102025430Y-100818685D01*
X102025430Y-100818685D02*
X101944618Y-100791747D01*
X101944618Y-100791747D02*
X101917680Y-100764810D01*
X101917680Y-100764810D02*
X101890743Y-100683998D01*
X101890743Y-100683998D02*
X101890743Y-100630123D01*
X101890743Y-100630123D02*
X101917680Y-100549311D01*
X101917680Y-100549311D02*
X102025430Y-100441561D01*
X102025430Y-100441561D02*
X102106242Y-100414624D01*
X102106242Y-100414624D02*
X102160117Y-100414624D01*
X102160117Y-100414624D02*
X102240929Y-100441561D01*
X102240929Y-100441561D02*
X102267866Y-100468499D01*
X102267866Y-100468499D02*
X102294804Y-100549311D01*
X102294804Y-100549311D02*
X102294804Y-100603186D01*
X102294804Y-100603186D02*
X102267866Y-100683998D01*
X102267866Y-100683998D02*
X102160117Y-100791747D01*
X102160117Y-100791747D02*
X102133179Y-100872560D01*
X102133179Y-100872560D02*
X102133179Y-100926434D01*
X102133179Y-100926434D02*
X102160117Y-101007247D01*
X102160117Y-101007247D02*
X102267866Y-101114996D01*
X102267866Y-101114996D02*
X102348679Y-101141934D01*
X102348679Y-101141934D02*
X102402553Y-101141934D01*
X102402553Y-101141934D02*
X102483366Y-101114996D01*
X102483366Y-101114996D02*
X102591115Y-101007247D01*
X102591115Y-101007247D02*
X102618053Y-100926434D01*
X102618053Y-100926434D02*
X102618053Y-100872560D01*
X102618053Y-100872560D02*
X102591115Y-100791747D01*
X102591115Y-100791747D02*
X102483366Y-100683998D01*
X102483366Y-100683998D02*
X102402553Y-100657060D01*
X102402553Y-100657060D02*
X102348679Y-100657060D01*
X102348679Y-100657060D02*
X102267866Y-100683998D01*
X118390475Y-92274200D02*
X118504761Y-92312295D01*
X118504761Y-92312295D02*
X118695237Y-92312295D01*
X118695237Y-92312295D02*
X118771428Y-92274200D01*
X118771428Y-92274200D02*
X118809523Y-92236104D01*
X118809523Y-92236104D02*
X118847618Y-92159914D01*
X118847618Y-92159914D02*
X118847618Y-92083723D01*
X118847618Y-92083723D02*
X118809523Y-92007533D01*
X118809523Y-92007533D02*
X118771428Y-91969438D01*
X118771428Y-91969438D02*
X118695237Y-91931342D01*
X118695237Y-91931342D02*
X118542856Y-91893247D01*
X118542856Y-91893247D02*
X118466666Y-91855152D01*
X118466666Y-91855152D02*
X118428571Y-91817057D01*
X118428571Y-91817057D02*
X118390475Y-91740866D01*
X118390475Y-91740866D02*
X118390475Y-91664676D01*
X118390475Y-91664676D02*
X118428571Y-91588485D01*
X118428571Y-91588485D02*
X118466666Y-91550390D01*
X118466666Y-91550390D02*
X118542856Y-91512295D01*
X118542856Y-91512295D02*
X118733333Y-91512295D01*
X118733333Y-91512295D02*
X118847618Y-91550390D01*
X119114285Y-91512295D02*
X119304761Y-92312295D01*
X119304761Y-92312295D02*
X119457142Y-91740866D01*
X119457142Y-91740866D02*
X119609523Y-92312295D01*
X119609523Y-92312295D02*
X119800000Y-91512295D01*
X120561905Y-92236104D02*
X120523809Y-92274200D01*
X120523809Y-92274200D02*
X120409524Y-92312295D01*
X120409524Y-92312295D02*
X120333333Y-92312295D01*
X120333333Y-92312295D02*
X120219047Y-92274200D01*
X120219047Y-92274200D02*
X120142857Y-92198009D01*
X120142857Y-92198009D02*
X120104762Y-92121819D01*
X120104762Y-92121819D02*
X120066666Y-91969438D01*
X120066666Y-91969438D02*
X120066666Y-91855152D01*
X120066666Y-91855152D02*
X120104762Y-91702771D01*
X120104762Y-91702771D02*
X120142857Y-91626580D01*
X120142857Y-91626580D02*
X120219047Y-91550390D01*
X120219047Y-91550390D02*
X120333333Y-91512295D01*
X120333333Y-91512295D02*
X120409524Y-91512295D01*
X120409524Y-91512295D02*
X120523809Y-91550390D01*
X120523809Y-91550390D02*
X120561905Y-91588485D01*
X121285714Y-92312295D02*
X120904762Y-92312295D01*
X120904762Y-92312295D02*
X120904762Y-91512295D01*
X121552381Y-92312295D02*
X121552381Y-91512295D01*
X122009524Y-92312295D02*
X121666666Y-91855152D01*
X122009524Y-91512295D02*
X121552381Y-91969438D01*
X100489998Y-127684868D02*
X100409185Y-127711805D01*
X100409185Y-127711805D02*
X100328373Y-127792618D01*
X100328373Y-127792618D02*
X100274498Y-127900367D01*
X100274498Y-127900367D02*
X100274498Y-128008117D01*
X100274498Y-128008117D02*
X100301436Y-128088929D01*
X100301436Y-128088929D02*
X100382248Y-128223616D01*
X100382248Y-128223616D02*
X100463060Y-128304428D01*
X100463060Y-128304428D02*
X100597747Y-128385241D01*
X100597747Y-128385241D02*
X100678560Y-128412178D01*
X100678560Y-128412178D02*
X100786309Y-128412178D01*
X100786309Y-128412178D02*
X100894059Y-128358303D01*
X100894059Y-128358303D02*
X100947934Y-128304428D01*
X100947934Y-128304428D02*
X101001808Y-128196679D01*
X101001808Y-128196679D02*
X101001808Y-128142804D01*
X101001808Y-128142804D02*
X100813247Y-127954242D01*
X100813247Y-127954242D02*
X100705497Y-128061992D01*
X101298120Y-127954242D02*
X100732434Y-127388557D01*
X100732434Y-127388557D02*
X100947934Y-127173057D01*
X100947934Y-127173057D02*
X101028746Y-127146120D01*
X101028746Y-127146120D02*
X101082621Y-127146120D01*
X101082621Y-127146120D02*
X101163433Y-127173057D01*
X101163433Y-127173057D02*
X101244245Y-127253870D01*
X101244245Y-127253870D02*
X101271182Y-127334682D01*
X101271182Y-127334682D02*
X101271182Y-127388557D01*
X101271182Y-127388557D02*
X101244245Y-127469369D01*
X101244245Y-127469369D02*
X101028746Y-127684868D01*
X101325057Y-126903683D02*
X101325057Y-126849809D01*
X101325057Y-126849809D02*
X101351995Y-126768996D01*
X101351995Y-126768996D02*
X101486682Y-126634309D01*
X101486682Y-126634309D02*
X101567494Y-126607372D01*
X101567494Y-126607372D02*
X101621369Y-126607372D01*
X101621369Y-126607372D02*
X101702181Y-126634309D01*
X101702181Y-126634309D02*
X101756056Y-126688184D01*
X101756056Y-126688184D02*
X101809930Y-126795934D01*
X101809930Y-126795934D02*
X101809930Y-127442431D01*
X101809930Y-127442431D02*
X102160117Y-127092245D01*
X102160117Y-126445747D02*
X102079305Y-126472685D01*
X102079305Y-126472685D02*
X102025430Y-126472685D01*
X102025430Y-126472685D02*
X101944618Y-126445747D01*
X101944618Y-126445747D02*
X101917680Y-126418810D01*
X101917680Y-126418810D02*
X101890743Y-126337998D01*
X101890743Y-126337998D02*
X101890743Y-126284123D01*
X101890743Y-126284123D02*
X101917680Y-126203311D01*
X101917680Y-126203311D02*
X102025430Y-126095561D01*
X102025430Y-126095561D02*
X102106242Y-126068624D01*
X102106242Y-126068624D02*
X102160117Y-126068624D01*
X102160117Y-126068624D02*
X102240929Y-126095561D01*
X102240929Y-126095561D02*
X102267866Y-126122499D01*
X102267866Y-126122499D02*
X102294804Y-126203311D01*
X102294804Y-126203311D02*
X102294804Y-126257186D01*
X102294804Y-126257186D02*
X102267866Y-126337998D01*
X102267866Y-126337998D02*
X102160117Y-126445747D01*
X102160117Y-126445747D02*
X102133179Y-126526560D01*
X102133179Y-126526560D02*
X102133179Y-126580434D01*
X102133179Y-126580434D02*
X102160117Y-126661247D01*
X102160117Y-126661247D02*
X102267866Y-126768996D01*
X102267866Y-126768996D02*
X102348679Y-126795934D01*
X102348679Y-126795934D02*
X102402553Y-126795934D01*
X102402553Y-126795934D02*
X102483366Y-126768996D01*
X102483366Y-126768996D02*
X102591115Y-126661247D01*
X102591115Y-126661247D02*
X102618053Y-126580434D01*
X102618053Y-126580434D02*
X102618053Y-126526560D01*
X102618053Y-126526560D02*
X102591115Y-126445747D01*
X102591115Y-126445747D02*
X102483366Y-126337998D01*
X102483366Y-126337998D02*
X102402553Y-126311060D01*
X102402553Y-126311060D02*
X102348679Y-126311060D01*
X102348679Y-126311060D02*
X102267866Y-126337998D01*
X100489998Y-114730868D02*
X100409185Y-114757805D01*
X100409185Y-114757805D02*
X100328373Y-114838618D01*
X100328373Y-114838618D02*
X100274498Y-114946367D01*
X100274498Y-114946367D02*
X100274498Y-115054117D01*
X100274498Y-115054117D02*
X100301436Y-115134929D01*
X100301436Y-115134929D02*
X100382248Y-115269616D01*
X100382248Y-115269616D02*
X100463060Y-115350428D01*
X100463060Y-115350428D02*
X100597747Y-115431241D01*
X100597747Y-115431241D02*
X100678560Y-115458178D01*
X100678560Y-115458178D02*
X100786309Y-115458178D01*
X100786309Y-115458178D02*
X100894059Y-115404303D01*
X100894059Y-115404303D02*
X100947934Y-115350428D01*
X100947934Y-115350428D02*
X101001808Y-115242679D01*
X101001808Y-115242679D02*
X101001808Y-115188804D01*
X101001808Y-115188804D02*
X100813247Y-115000242D01*
X100813247Y-115000242D02*
X100705497Y-115107992D01*
X101298120Y-115000242D02*
X100732434Y-114434557D01*
X100732434Y-114434557D02*
X100947934Y-114219057D01*
X100947934Y-114219057D02*
X101028746Y-114192120D01*
X101028746Y-114192120D02*
X101082621Y-114192120D01*
X101082621Y-114192120D02*
X101163433Y-114219057D01*
X101163433Y-114219057D02*
X101244245Y-114299870D01*
X101244245Y-114299870D02*
X101271182Y-114380682D01*
X101271182Y-114380682D02*
X101271182Y-114434557D01*
X101271182Y-114434557D02*
X101244245Y-114515369D01*
X101244245Y-114515369D02*
X101028746Y-114730868D01*
X101325057Y-113949683D02*
X101325057Y-113895809D01*
X101325057Y-113895809D02*
X101351995Y-113814996D01*
X101351995Y-113814996D02*
X101486682Y-113680309D01*
X101486682Y-113680309D02*
X101567494Y-113653372D01*
X101567494Y-113653372D02*
X101621369Y-113653372D01*
X101621369Y-113653372D02*
X101702181Y-113680309D01*
X101702181Y-113680309D02*
X101756056Y-113734184D01*
X101756056Y-113734184D02*
X101809930Y-113841934D01*
X101809930Y-113841934D02*
X101809930Y-114488431D01*
X101809930Y-114488431D02*
X102160117Y-114138245D01*
X101863805Y-113410935D02*
X101863805Y-113357060D01*
X101863805Y-113357060D02*
X101890743Y-113276248D01*
X101890743Y-113276248D02*
X102025430Y-113141561D01*
X102025430Y-113141561D02*
X102106242Y-113114624D01*
X102106242Y-113114624D02*
X102160117Y-113114624D01*
X102160117Y-113114624D02*
X102240929Y-113141561D01*
X102240929Y-113141561D02*
X102294804Y-113195436D01*
X102294804Y-113195436D02*
X102348679Y-113303186D01*
X102348679Y-113303186D02*
X102348679Y-113949683D01*
X102348679Y-113949683D02*
X102698865Y-113599497D01*
X100489998Y-94410868D02*
X100409185Y-94437805D01*
X100409185Y-94437805D02*
X100328373Y-94518618D01*
X100328373Y-94518618D02*
X100274498Y-94626367D01*
X100274498Y-94626367D02*
X100274498Y-94734117D01*
X100274498Y-94734117D02*
X100301436Y-94814929D01*
X100301436Y-94814929D02*
X100382248Y-94949616D01*
X100382248Y-94949616D02*
X100463060Y-95030428D01*
X100463060Y-95030428D02*
X100597747Y-95111241D01*
X100597747Y-95111241D02*
X100678560Y-95138178D01*
X100678560Y-95138178D02*
X100786309Y-95138178D01*
X100786309Y-95138178D02*
X100894059Y-95084303D01*
X100894059Y-95084303D02*
X100947934Y-95030428D01*
X100947934Y-95030428D02*
X101001808Y-94922679D01*
X101001808Y-94922679D02*
X101001808Y-94868804D01*
X101001808Y-94868804D02*
X100813247Y-94680242D01*
X100813247Y-94680242D02*
X100705497Y-94787992D01*
X101298120Y-94680242D02*
X100732434Y-94114557D01*
X100732434Y-94114557D02*
X100947934Y-93899057D01*
X100947934Y-93899057D02*
X101028746Y-93872120D01*
X101028746Y-93872120D02*
X101082621Y-93872120D01*
X101082621Y-93872120D02*
X101163433Y-93899057D01*
X101163433Y-93899057D02*
X101244245Y-93979870D01*
X101244245Y-93979870D02*
X101271182Y-94060682D01*
X101271182Y-94060682D02*
X101271182Y-94114557D01*
X101271182Y-94114557D02*
X101244245Y-94195369D01*
X101244245Y-94195369D02*
X101028746Y-94410868D01*
X102160117Y-93818245D02*
X101836868Y-94141494D01*
X101998492Y-93979870D02*
X101432807Y-93414184D01*
X101432807Y-93414184D02*
X101459744Y-93548871D01*
X101459744Y-93548871D02*
X101459744Y-93656621D01*
X101459744Y-93656621D02*
X101432807Y-93737433D01*
X102079305Y-92767686D02*
X101971555Y-92875436D01*
X101971555Y-92875436D02*
X101944618Y-92956248D01*
X101944618Y-92956248D02*
X101944618Y-93010123D01*
X101944618Y-93010123D02*
X101971555Y-93144810D01*
X101971555Y-93144810D02*
X102052367Y-93279497D01*
X102052367Y-93279497D02*
X102267866Y-93494996D01*
X102267866Y-93494996D02*
X102348679Y-93521934D01*
X102348679Y-93521934D02*
X102402553Y-93521934D01*
X102402553Y-93521934D02*
X102483366Y-93494996D01*
X102483366Y-93494996D02*
X102591115Y-93387247D01*
X102591115Y-93387247D02*
X102618053Y-93306434D01*
X102618053Y-93306434D02*
X102618053Y-93252560D01*
X102618053Y-93252560D02*
X102591115Y-93171747D01*
X102591115Y-93171747D02*
X102456428Y-93037060D01*
X102456428Y-93037060D02*
X102375616Y-93010123D01*
X102375616Y-93010123D02*
X102321741Y-93010123D01*
X102321741Y-93010123D02*
X102240929Y-93037060D01*
X102240929Y-93037060D02*
X102133179Y-93144810D01*
X102133179Y-93144810D02*
X102106242Y-93225622D01*
X102106242Y-93225622D02*
X102106242Y-93279497D01*
X102106242Y-93279497D02*
X102133179Y-93360309D01*
X126613372Y-117001494D02*
X126532560Y-117028431D01*
X126532560Y-117028431D02*
X126451748Y-117109243D01*
X126451748Y-117109243D02*
X126397873Y-117216993D01*
X126397873Y-117216993D02*
X126397873Y-117324742D01*
X126397873Y-117324742D02*
X126424810Y-117405555D01*
X126424810Y-117405555D02*
X126505623Y-117540242D01*
X126505623Y-117540242D02*
X126586435Y-117621054D01*
X126586435Y-117621054D02*
X126721122Y-117701866D01*
X126721122Y-117701866D02*
X126801934Y-117728803D01*
X126801934Y-117728803D02*
X126909684Y-117728803D01*
X126909684Y-117728803D02*
X127017433Y-117674929D01*
X127017433Y-117674929D02*
X127071308Y-117621054D01*
X127071308Y-117621054D02*
X127125183Y-117513304D01*
X127125183Y-117513304D02*
X127125183Y-117459429D01*
X127125183Y-117459429D02*
X126936621Y-117270868D01*
X126936621Y-117270868D02*
X126828871Y-117378617D01*
X127421494Y-117270868D02*
X126855809Y-116705182D01*
X126855809Y-116705182D02*
X127071308Y-116489683D01*
X127071308Y-116489683D02*
X127152120Y-116462746D01*
X127152120Y-116462746D02*
X127205995Y-116462746D01*
X127205995Y-116462746D02*
X127286807Y-116489683D01*
X127286807Y-116489683D02*
X127367619Y-116570495D01*
X127367619Y-116570495D02*
X127394557Y-116651307D01*
X127394557Y-116651307D02*
X127394557Y-116705182D01*
X127394557Y-116705182D02*
X127367619Y-116785994D01*
X127367619Y-116785994D02*
X127152120Y-117001494D01*
X127744743Y-116301121D02*
X127663931Y-116328059D01*
X127663931Y-116328059D02*
X127610056Y-116328059D01*
X127610056Y-116328059D02*
X127529244Y-116301121D01*
X127529244Y-116301121D02*
X127502306Y-116274184D01*
X127502306Y-116274184D02*
X127475369Y-116193372D01*
X127475369Y-116193372D02*
X127475369Y-116139497D01*
X127475369Y-116139497D02*
X127502306Y-116058685D01*
X127502306Y-116058685D02*
X127610056Y-115950935D01*
X127610056Y-115950935D02*
X127690868Y-115923998D01*
X127690868Y-115923998D02*
X127744743Y-115923998D01*
X127744743Y-115923998D02*
X127825555Y-115950935D01*
X127825555Y-115950935D02*
X127852493Y-115977872D01*
X127852493Y-115977872D02*
X127879430Y-116058685D01*
X127879430Y-116058685D02*
X127879430Y-116112559D01*
X127879430Y-116112559D02*
X127852493Y-116193372D01*
X127852493Y-116193372D02*
X127744743Y-116301121D01*
X127744743Y-116301121D02*
X127717806Y-116381933D01*
X127717806Y-116381933D02*
X127717806Y-116435808D01*
X127717806Y-116435808D02*
X127744743Y-116516620D01*
X127744743Y-116516620D02*
X127852493Y-116624370D01*
X127852493Y-116624370D02*
X127933305Y-116651307D01*
X127933305Y-116651307D02*
X127987180Y-116651307D01*
X127987180Y-116651307D02*
X128067992Y-116624370D01*
X128067992Y-116624370D02*
X128175741Y-116516620D01*
X128175741Y-116516620D02*
X128202679Y-116435808D01*
X128202679Y-116435808D02*
X128202679Y-116381933D01*
X128202679Y-116381933D02*
X128175741Y-116301121D01*
X128175741Y-116301121D02*
X128067992Y-116193372D01*
X128067992Y-116193372D02*
X127987180Y-116166434D01*
X127987180Y-116166434D02*
X127933305Y-116166434D01*
X127933305Y-116166434D02*
X127852493Y-116193372D01*
X126743998Y-107110868D02*
X126663185Y-107137805D01*
X126663185Y-107137805D02*
X126582373Y-107218618D01*
X126582373Y-107218618D02*
X126528498Y-107326367D01*
X126528498Y-107326367D02*
X126528498Y-107434117D01*
X126528498Y-107434117D02*
X126555436Y-107514929D01*
X126555436Y-107514929D02*
X126636248Y-107649616D01*
X126636248Y-107649616D02*
X126717060Y-107730428D01*
X126717060Y-107730428D02*
X126851747Y-107811241D01*
X126851747Y-107811241D02*
X126932560Y-107838178D01*
X126932560Y-107838178D02*
X127040309Y-107838178D01*
X127040309Y-107838178D02*
X127148059Y-107784303D01*
X127148059Y-107784303D02*
X127201934Y-107730428D01*
X127201934Y-107730428D02*
X127255808Y-107622679D01*
X127255808Y-107622679D02*
X127255808Y-107568804D01*
X127255808Y-107568804D02*
X127067247Y-107380242D01*
X127067247Y-107380242D02*
X126959497Y-107487992D01*
X127552120Y-107380242D02*
X126986434Y-106814557D01*
X126986434Y-106814557D02*
X127201934Y-106599057D01*
X127201934Y-106599057D02*
X127282746Y-106572120D01*
X127282746Y-106572120D02*
X127336621Y-106572120D01*
X127336621Y-106572120D02*
X127417433Y-106599057D01*
X127417433Y-106599057D02*
X127498245Y-106679870D01*
X127498245Y-106679870D02*
X127525182Y-106760682D01*
X127525182Y-106760682D02*
X127525182Y-106814557D01*
X127525182Y-106814557D02*
X127498245Y-106895369D01*
X127498245Y-106895369D02*
X127282746Y-107110868D01*
X128414117Y-106518245D02*
X128090868Y-106841494D01*
X128252492Y-106679870D02*
X127686807Y-106114184D01*
X127686807Y-106114184D02*
X127713744Y-106248871D01*
X127713744Y-106248871D02*
X127713744Y-106356621D01*
X127713744Y-106356621D02*
X127686807Y-106437433D01*
X128952865Y-105979497D02*
X128629616Y-106302746D01*
X128791240Y-106141121D02*
X128225555Y-105575436D01*
X128225555Y-105575436D02*
X128252492Y-105710123D01*
X128252492Y-105710123D02*
X128252492Y-105817873D01*
X128252492Y-105817873D02*
X128225555Y-105898685D01*
X100986435Y-137348431D02*
X100905623Y-137375368D01*
X100905623Y-137375368D02*
X100824811Y-137456180D01*
X100824811Y-137456180D02*
X100770936Y-137563930D01*
X100770936Y-137563930D02*
X100770936Y-137671680D01*
X100770936Y-137671680D02*
X100797873Y-137752492D01*
X100797873Y-137752492D02*
X100878685Y-137887179D01*
X100878685Y-137887179D02*
X100959498Y-137967991D01*
X100959498Y-137967991D02*
X101094185Y-138048803D01*
X101094185Y-138048803D02*
X101174997Y-138075741D01*
X101174997Y-138075741D02*
X101282746Y-138075741D01*
X101282746Y-138075741D02*
X101390496Y-138021866D01*
X101390496Y-138021866D02*
X101444371Y-137967991D01*
X101444371Y-137967991D02*
X101498246Y-137860241D01*
X101498246Y-137860241D02*
X101498246Y-137806367D01*
X101498246Y-137806367D02*
X101309684Y-137617805D01*
X101309684Y-137617805D02*
X101201934Y-137725554D01*
X101794557Y-137617805D02*
X101228872Y-137052119D01*
X101228872Y-137052119D02*
X102117806Y-137294556D01*
X102117806Y-137294556D02*
X101552120Y-136728871D01*
X102387180Y-137025182D02*
X101821494Y-136459497D01*
X101821494Y-136459497D02*
X101956181Y-136324810D01*
X101956181Y-136324810D02*
X102063931Y-136270935D01*
X102063931Y-136270935D02*
X102171680Y-136270935D01*
X102171680Y-136270935D02*
X102252493Y-136297872D01*
X102252493Y-136297872D02*
X102387180Y-136378685D01*
X102387180Y-136378685D02*
X102467992Y-136459497D01*
X102467992Y-136459497D02*
X102548804Y-136594184D01*
X102548804Y-136594184D02*
X102575741Y-136674996D01*
X102575741Y-136674996D02*
X102575741Y-136782746D01*
X102575741Y-136782746D02*
X102521867Y-136890495D01*
X102521867Y-136890495D02*
X102387180Y-137025182D01*
X100590123Y-132440868D02*
X100940309Y-132090682D01*
X100940309Y-132090682D02*
X100967247Y-132494743D01*
X100967247Y-132494743D02*
X101048059Y-132413931D01*
X101048059Y-132413931D02*
X101128871Y-132386993D01*
X101128871Y-132386993D02*
X101182746Y-132386993D01*
X101182746Y-132386993D02*
X101263558Y-132413931D01*
X101263558Y-132413931D02*
X101398245Y-132548618D01*
X101398245Y-132548618D02*
X101425182Y-132629430D01*
X101425182Y-132629430D02*
X101425182Y-132683305D01*
X101425182Y-132683305D02*
X101398245Y-132764117D01*
X101398245Y-132764117D02*
X101236621Y-132925741D01*
X101236621Y-132925741D02*
X101155808Y-132952679D01*
X101155808Y-132952679D02*
X101101934Y-132952679D01*
X101101934Y-131929057D02*
X101856181Y-132306181D01*
X101856181Y-132306181D02*
X101479057Y-131551934D01*
X101613744Y-131417247D02*
X101963930Y-131067061D01*
X101963930Y-131067061D02*
X101990868Y-131471122D01*
X101990868Y-131471122D02*
X102071680Y-131390309D01*
X102071680Y-131390309D02*
X102152492Y-131363372D01*
X102152492Y-131363372D02*
X102206367Y-131363372D01*
X102206367Y-131363372D02*
X102287179Y-131390309D01*
X102287179Y-131390309D02*
X102421866Y-131524996D01*
X102421866Y-131524996D02*
X102448804Y-131605809D01*
X102448804Y-131605809D02*
X102448804Y-131659683D01*
X102448804Y-131659683D02*
X102421866Y-131740496D01*
X102421866Y-131740496D02*
X102260242Y-131902120D01*
X102260242Y-131902120D02*
X102179430Y-131929057D01*
X102179430Y-131929057D02*
X102125555Y-131929057D01*
X119798074Y-62157065D02*
X119798074Y-62794486D01*
X119798074Y-62794486D02*
X119835570Y-62869476D01*
X119835570Y-62869476D02*
X119873065Y-62906972D01*
X119873065Y-62906972D02*
X119948056Y-62944467D01*
X119948056Y-62944467D02*
X120098037Y-62944467D01*
X120098037Y-62944467D02*
X120173028Y-62906972D01*
X120173028Y-62906972D02*
X120210523Y-62869476D01*
X120210523Y-62869476D02*
X120248018Y-62794486D01*
X120248018Y-62794486D02*
X120248018Y-62157065D01*
X120547981Y-62157065D02*
X121035420Y-62157065D01*
X121035420Y-62157065D02*
X120772953Y-62457028D01*
X120772953Y-62457028D02*
X120885439Y-62457028D01*
X120885439Y-62457028D02*
X120960429Y-62494523D01*
X120960429Y-62494523D02*
X120997925Y-62532018D01*
X120997925Y-62532018D02*
X121035420Y-62607009D01*
X121035420Y-62607009D02*
X121035420Y-62794486D01*
X121035420Y-62794486D02*
X120997925Y-62869476D01*
X120997925Y-62869476D02*
X120960429Y-62906972D01*
X120960429Y-62906972D02*
X120885439Y-62944467D01*
X120885439Y-62944467D02*
X120660467Y-62944467D01*
X120660467Y-62944467D02*
X120585476Y-62906972D01*
X120585476Y-62906972D02*
X120547981Y-62869476D01*
X113931334Y-68777033D02*
X114398001Y-68777033D01*
X114598001Y-69510366D02*
X113931334Y-69510366D01*
X113931334Y-69510366D02*
X113931334Y-68110366D01*
X113931334Y-68110366D02*
X114598001Y-68110366D01*
X115131334Y-69443700D02*
X115331334Y-69510366D01*
X115331334Y-69510366D02*
X115664668Y-69510366D01*
X115664668Y-69510366D02*
X115798001Y-69443700D01*
X115798001Y-69443700D02*
X115864668Y-69377033D01*
X115864668Y-69377033D02*
X115931334Y-69243700D01*
X115931334Y-69243700D02*
X115931334Y-69110366D01*
X115931334Y-69110366D02*
X115864668Y-68977033D01*
X115864668Y-68977033D02*
X115798001Y-68910366D01*
X115798001Y-68910366D02*
X115664668Y-68843700D01*
X115664668Y-68843700D02*
X115398001Y-68777033D01*
X115398001Y-68777033D02*
X115264668Y-68710366D01*
X115264668Y-68710366D02*
X115198001Y-68643700D01*
X115198001Y-68643700D02*
X115131334Y-68510366D01*
X115131334Y-68510366D02*
X115131334Y-68377033D01*
X115131334Y-68377033D02*
X115198001Y-68243700D01*
X115198001Y-68243700D02*
X115264668Y-68177033D01*
X115264668Y-68177033D02*
X115398001Y-68110366D01*
X115398001Y-68110366D02*
X115731334Y-68110366D01*
X115731334Y-68110366D02*
X115931334Y-68177033D01*
X116531334Y-69510366D02*
X116531334Y-68110366D01*
X116531334Y-68110366D02*
X117064667Y-68110366D01*
X117064667Y-68110366D02*
X117198001Y-68177033D01*
X117198001Y-68177033D02*
X117264667Y-68243700D01*
X117264667Y-68243700D02*
X117331334Y-68377033D01*
X117331334Y-68377033D02*
X117331334Y-68577033D01*
X117331334Y-68577033D02*
X117264667Y-68710366D01*
X117264667Y-68710366D02*
X117198001Y-68777033D01*
X117198001Y-68777033D02*
X117064667Y-68843700D01*
X117064667Y-68843700D02*
X116531334Y-68843700D01*
X117798001Y-68110366D02*
X118664667Y-68110366D01*
X118664667Y-68110366D02*
X118198001Y-68643700D01*
X118198001Y-68643700D02*
X118398001Y-68643700D01*
X118398001Y-68643700D02*
X118531334Y-68710366D01*
X118531334Y-68710366D02*
X118598001Y-68777033D01*
X118598001Y-68777033D02*
X118664667Y-68910366D01*
X118664667Y-68910366D02*
X118664667Y-69243700D01*
X118664667Y-69243700D02*
X118598001Y-69377033D01*
X118598001Y-69377033D02*
X118531334Y-69443700D01*
X118531334Y-69443700D02*
X118398001Y-69510366D01*
X118398001Y-69510366D02*
X117998001Y-69510366D01*
X117998001Y-69510366D02*
X117864667Y-69443700D01*
X117864667Y-69443700D02*
X117798001Y-69377033D01*
X119198000Y-68243700D02*
X119264667Y-68177033D01*
X119264667Y-68177033D02*
X119398000Y-68110366D01*
X119398000Y-68110366D02*
X119731334Y-68110366D01*
X119731334Y-68110366D02*
X119864667Y-68177033D01*
X119864667Y-68177033D02*
X119931334Y-68243700D01*
X119931334Y-68243700D02*
X119998000Y-68377033D01*
X119998000Y-68377033D02*
X119998000Y-68510366D01*
X119998000Y-68510366D02*
X119931334Y-68710366D01*
X119931334Y-68710366D02*
X119131334Y-69510366D01*
X119131334Y-69510366D02*
X119998000Y-69510366D01*
X120598000Y-68977033D02*
X121664667Y-68977033D01*
X123131333Y-69377033D02*
X123064666Y-69443700D01*
X123064666Y-69443700D02*
X122864666Y-69510366D01*
X122864666Y-69510366D02*
X122731333Y-69510366D01*
X122731333Y-69510366D02*
X122531333Y-69443700D01*
X122531333Y-69443700D02*
X122398000Y-69310366D01*
X122398000Y-69310366D02*
X122331333Y-69177033D01*
X122331333Y-69177033D02*
X122264666Y-68910366D01*
X122264666Y-68910366D02*
X122264666Y-68710366D01*
X122264666Y-68710366D02*
X122331333Y-68443700D01*
X122331333Y-68443700D02*
X122398000Y-68310366D01*
X122398000Y-68310366D02*
X122531333Y-68177033D01*
X122531333Y-68177033D02*
X122731333Y-68110366D01*
X122731333Y-68110366D02*
X122864666Y-68110366D01*
X122864666Y-68110366D02*
X123064666Y-68177033D01*
X123064666Y-68177033D02*
X123131333Y-68243700D01*
X123664666Y-69110366D02*
X124331333Y-69110366D01*
X123531333Y-69510366D02*
X123998000Y-68110366D01*
X123998000Y-68110366D02*
X124464666Y-69510366D01*
X124931333Y-69510366D02*
X124931333Y-68110366D01*
X124931333Y-68110366D02*
X125398000Y-69110366D01*
X125398000Y-69110366D02*
X125864666Y-68110366D01*
X125864666Y-68110366D02*
X125864666Y-69510366D01*
D14*
X140793884Y-43724466D02*
X141555789Y-43724466D01*
X136043884Y-43724466D02*
X136805789Y-43724466D01*
X136424836Y-44105419D02*
X136424836Y-43343514D01*
D15*
X118396572Y-36232809D02*
X118110858Y-36232809D01*
X118253715Y-36232809D02*
X118253715Y-35732809D01*
X118253715Y-35732809D02*
X118206096Y-35804238D01*
X118206096Y-35804238D02*
X118158477Y-35851857D01*
X118158477Y-35851857D02*
X118110858Y-35875666D01*
X118610857Y-36232809D02*
X118610857Y-35732809D01*
X118610857Y-35732809D02*
X118896571Y-36232809D01*
X118896571Y-36232809D02*
X118896571Y-35732809D01*
X119348953Y-35899476D02*
X119348953Y-36232809D01*
X119229905Y-35709000D02*
X119110858Y-36066142D01*
X119110858Y-36066142D02*
X119420381Y-36066142D01*
X119706095Y-35732809D02*
X119753714Y-35732809D01*
X119753714Y-35732809D02*
X119801333Y-35756619D01*
X119801333Y-35756619D02*
X119825143Y-35780428D01*
X119825143Y-35780428D02*
X119848952Y-35828047D01*
X119848952Y-35828047D02*
X119872762Y-35923285D01*
X119872762Y-35923285D02*
X119872762Y-36042333D01*
X119872762Y-36042333D02*
X119848952Y-36137571D01*
X119848952Y-36137571D02*
X119825143Y-36185190D01*
X119825143Y-36185190D02*
X119801333Y-36209000D01*
X119801333Y-36209000D02*
X119753714Y-36232809D01*
X119753714Y-36232809D02*
X119706095Y-36232809D01*
X119706095Y-36232809D02*
X119658476Y-36209000D01*
X119658476Y-36209000D02*
X119634667Y-36185190D01*
X119634667Y-36185190D02*
X119610857Y-36137571D01*
X119610857Y-36137571D02*
X119587048Y-36042333D01*
X119587048Y-36042333D02*
X119587048Y-35923285D01*
X119587048Y-35923285D02*
X119610857Y-35828047D01*
X119610857Y-35828047D02*
X119634667Y-35780428D01*
X119634667Y-35780428D02*
X119658476Y-35756619D01*
X119658476Y-35756619D02*
X119706095Y-35732809D01*
X120182285Y-35732809D02*
X120229904Y-35732809D01*
X120229904Y-35732809D02*
X120277523Y-35756619D01*
X120277523Y-35756619D02*
X120301333Y-35780428D01*
X120301333Y-35780428D02*
X120325142Y-35828047D01*
X120325142Y-35828047D02*
X120348952Y-35923285D01*
X120348952Y-35923285D02*
X120348952Y-36042333D01*
X120348952Y-36042333D02*
X120325142Y-36137571D01*
X120325142Y-36137571D02*
X120301333Y-36185190D01*
X120301333Y-36185190D02*
X120277523Y-36209000D01*
X120277523Y-36209000D02*
X120229904Y-36232809D01*
X120229904Y-36232809D02*
X120182285Y-36232809D01*
X120182285Y-36232809D02*
X120134666Y-36209000D01*
X120134666Y-36209000D02*
X120110857Y-36185190D01*
X120110857Y-36185190D02*
X120087047Y-36137571D01*
X120087047Y-36137571D02*
X120063238Y-36042333D01*
X120063238Y-36042333D02*
X120063238Y-35923285D01*
X120063238Y-35923285D02*
X120087047Y-35828047D01*
X120087047Y-35828047D02*
X120110857Y-35780428D01*
X120110857Y-35780428D02*
X120134666Y-35756619D01*
X120134666Y-35756619D02*
X120182285Y-35732809D01*
X120777523Y-35899476D02*
X120777523Y-36232809D01*
X120658475Y-35709000D02*
X120539428Y-36066142D01*
X120539428Y-36066142D02*
X120848951Y-36066142D01*
X132277572Y-145359809D02*
X131991858Y-145359809D01*
X132134715Y-145359809D02*
X132134715Y-144859809D01*
X132134715Y-144859809D02*
X132087096Y-144931238D01*
X132087096Y-144931238D02*
X132039477Y-144978857D01*
X132039477Y-144978857D02*
X131991858Y-145002666D01*
X132491857Y-145359809D02*
X132491857Y-144859809D01*
X132491857Y-144859809D02*
X132777571Y-145359809D01*
X132777571Y-145359809D02*
X132777571Y-144859809D01*
X133229953Y-145026476D02*
X133229953Y-145359809D01*
X133110905Y-144836000D02*
X132991858Y-145193142D01*
X132991858Y-145193142D02*
X133301381Y-145193142D01*
X133587095Y-144859809D02*
X133634714Y-144859809D01*
X133634714Y-144859809D02*
X133682333Y-144883619D01*
X133682333Y-144883619D02*
X133706143Y-144907428D01*
X133706143Y-144907428D02*
X133729952Y-144955047D01*
X133729952Y-144955047D02*
X133753762Y-145050285D01*
X133753762Y-145050285D02*
X133753762Y-145169333D01*
X133753762Y-145169333D02*
X133729952Y-145264571D01*
X133729952Y-145264571D02*
X133706143Y-145312190D01*
X133706143Y-145312190D02*
X133682333Y-145336000D01*
X133682333Y-145336000D02*
X133634714Y-145359809D01*
X133634714Y-145359809D02*
X133587095Y-145359809D01*
X133587095Y-145359809D02*
X133539476Y-145336000D01*
X133539476Y-145336000D02*
X133515667Y-145312190D01*
X133515667Y-145312190D02*
X133491857Y-145264571D01*
X133491857Y-145264571D02*
X133468048Y-145169333D01*
X133468048Y-145169333D02*
X133468048Y-145050285D01*
X133468048Y-145050285D02*
X133491857Y-144955047D01*
X133491857Y-144955047D02*
X133515667Y-144907428D01*
X133515667Y-144907428D02*
X133539476Y-144883619D01*
X133539476Y-144883619D02*
X133587095Y-144859809D01*
X134063285Y-144859809D02*
X134110904Y-144859809D01*
X134110904Y-144859809D02*
X134158523Y-144883619D01*
X134158523Y-144883619D02*
X134182333Y-144907428D01*
X134182333Y-144907428D02*
X134206142Y-144955047D01*
X134206142Y-144955047D02*
X134229952Y-145050285D01*
X134229952Y-145050285D02*
X134229952Y-145169333D01*
X134229952Y-145169333D02*
X134206142Y-145264571D01*
X134206142Y-145264571D02*
X134182333Y-145312190D01*
X134182333Y-145312190D02*
X134158523Y-145336000D01*
X134158523Y-145336000D02*
X134110904Y-145359809D01*
X134110904Y-145359809D02*
X134063285Y-145359809D01*
X134063285Y-145359809D02*
X134015666Y-145336000D01*
X134015666Y-145336000D02*
X133991857Y-145312190D01*
X133991857Y-145312190D02*
X133968047Y-145264571D01*
X133968047Y-145264571D02*
X133944238Y-145169333D01*
X133944238Y-145169333D02*
X133944238Y-145050285D01*
X133944238Y-145050285D02*
X133968047Y-144955047D01*
X133968047Y-144955047D02*
X133991857Y-144907428D01*
X133991857Y-144907428D02*
X134015666Y-144883619D01*
X134015666Y-144883619D02*
X134063285Y-144859809D01*
X134658523Y-145026476D02*
X134658523Y-145359809D01*
X134539475Y-144836000D02*
X134420428Y-145193142D01*
X134420428Y-145193142D02*
X134729951Y-145193142D01*
D11*
X141175866Y-48769904D02*
X141128247Y-48722285D01*
X141128247Y-48722285D02*
X141080628Y-48627047D01*
X141080628Y-48627047D02*
X141175866Y-48436571D01*
X141175866Y-48436571D02*
X141128247Y-48341333D01*
X141128247Y-48341333D02*
X141080628Y-48293714D01*
X99922819Y-71960381D02*
X99446628Y-72293714D01*
X99922819Y-72531809D02*
X98922819Y-72531809D01*
X98922819Y-72531809D02*
X98922819Y-72150857D01*
X98922819Y-72150857D02*
X98970438Y-72055619D01*
X98970438Y-72055619D02*
X99018057Y-72008000D01*
X99018057Y-72008000D02*
X99113295Y-71960381D01*
X99113295Y-71960381D02*
X99256152Y-71960381D01*
X99256152Y-71960381D02*
X99351390Y-72008000D01*
X99351390Y-72008000D02*
X99399009Y-72055619D01*
X99399009Y-72055619D02*
X99446628Y-72150857D01*
X99446628Y-72150857D02*
X99446628Y-72531809D01*
X99399009Y-71531809D02*
X99399009Y-71198476D01*
X99922819Y-71055619D02*
X99922819Y-71531809D01*
X99922819Y-71531809D02*
X98922819Y-71531809D01*
X98922819Y-71531809D02*
X98922819Y-71055619D01*
X99875200Y-70674666D02*
X99922819Y-70531809D01*
X99922819Y-70531809D02*
X99922819Y-70293714D01*
X99922819Y-70293714D02*
X99875200Y-70198476D01*
X99875200Y-70198476D02*
X99827580Y-70150857D01*
X99827580Y-70150857D02*
X99732342Y-70103238D01*
X99732342Y-70103238D02*
X99637104Y-70103238D01*
X99637104Y-70103238D02*
X99541866Y-70150857D01*
X99541866Y-70150857D02*
X99494247Y-70198476D01*
X99494247Y-70198476D02*
X99446628Y-70293714D01*
X99446628Y-70293714D02*
X99399009Y-70484190D01*
X99399009Y-70484190D02*
X99351390Y-70579428D01*
X99351390Y-70579428D02*
X99303771Y-70627047D01*
X99303771Y-70627047D02*
X99208533Y-70674666D01*
X99208533Y-70674666D02*
X99113295Y-70674666D01*
X99113295Y-70674666D02*
X99018057Y-70627047D01*
X99018057Y-70627047D02*
X98970438Y-70579428D01*
X98970438Y-70579428D02*
X98922819Y-70484190D01*
X98922819Y-70484190D02*
X98922819Y-70246095D01*
X98922819Y-70246095D02*
X98970438Y-70103238D01*
X99399009Y-69674666D02*
X99399009Y-69341333D01*
X99922819Y-69198476D02*
X99922819Y-69674666D01*
X99922819Y-69674666D02*
X98922819Y-69674666D01*
X98922819Y-69674666D02*
X98922819Y-69198476D01*
X98922819Y-68912761D02*
X98922819Y-68341333D01*
X99922819Y-68627047D02*
X98922819Y-68627047D01*
X103422819Y-47174666D02*
X103422819Y-47746094D01*
X103422819Y-47460380D02*
X102422819Y-47460380D01*
X102422819Y-47460380D02*
X102565676Y-47555618D01*
X102565676Y-47555618D02*
X102660914Y-47650856D01*
X102660914Y-47650856D02*
X102708533Y-47746094D01*
X102422819Y-46269904D02*
X102422819Y-46746094D01*
X102422819Y-46746094D02*
X102899009Y-46793713D01*
X102899009Y-46793713D02*
X102851390Y-46746094D01*
X102851390Y-46746094D02*
X102803771Y-46650856D01*
X102803771Y-46650856D02*
X102803771Y-46412761D01*
X102803771Y-46412761D02*
X102851390Y-46317523D01*
X102851390Y-46317523D02*
X102899009Y-46269904D01*
X102899009Y-46269904D02*
X102994247Y-46222285D01*
X102994247Y-46222285D02*
X103232342Y-46222285D01*
X103232342Y-46222285D02*
X103327580Y-46269904D01*
X103327580Y-46269904D02*
X103375200Y-46317523D01*
X103375200Y-46317523D02*
X103422819Y-46412761D01*
X103422819Y-46412761D02*
X103422819Y-46650856D01*
X103422819Y-46650856D02*
X103375200Y-46746094D01*
X103375200Y-46746094D02*
X103327580Y-46793713D01*
X102422819Y-45603237D02*
X102422819Y-45507999D01*
X102422819Y-45507999D02*
X102470438Y-45412761D01*
X102470438Y-45412761D02*
X102518057Y-45365142D01*
X102518057Y-45365142D02*
X102613295Y-45317523D01*
X102613295Y-45317523D02*
X102803771Y-45269904D01*
X102803771Y-45269904D02*
X103041866Y-45269904D01*
X103041866Y-45269904D02*
X103232342Y-45317523D01*
X103232342Y-45317523D02*
X103327580Y-45365142D01*
X103327580Y-45365142D02*
X103375200Y-45412761D01*
X103375200Y-45412761D02*
X103422819Y-45507999D01*
X103422819Y-45507999D02*
X103422819Y-45603237D01*
X103422819Y-45603237D02*
X103375200Y-45698475D01*
X103375200Y-45698475D02*
X103327580Y-45746094D01*
X103327580Y-45746094D02*
X103232342Y-45793713D01*
X103232342Y-45793713D02*
X103041866Y-45841332D01*
X103041866Y-45841332D02*
X102803771Y-45841332D01*
X102803771Y-45841332D02*
X102613295Y-45793713D01*
X102613295Y-45793713D02*
X102518057Y-45746094D01*
X102518057Y-45746094D02*
X102470438Y-45698475D01*
X102470438Y-45698475D02*
X102422819Y-45603237D01*
X134899047Y-39608819D02*
X134899047Y-38608819D01*
X134899047Y-38608819D02*
X135279999Y-38608819D01*
X135279999Y-38608819D02*
X135375237Y-38656438D01*
X135375237Y-38656438D02*
X135422856Y-38704057D01*
X135422856Y-38704057D02*
X135470475Y-38799295D01*
X135470475Y-38799295D02*
X135470475Y-38942152D01*
X135470475Y-38942152D02*
X135422856Y-39037390D01*
X135422856Y-39037390D02*
X135375237Y-39085009D01*
X135375237Y-39085009D02*
X135279999Y-39132628D01*
X135279999Y-39132628D02*
X134899047Y-39132628D01*
X135803809Y-38942152D02*
X136041904Y-39608819D01*
X136279999Y-38942152D02*
X136041904Y-39608819D01*
X136041904Y-39608819D02*
X135946666Y-39846914D01*
X135946666Y-39846914D02*
X135899047Y-39894533D01*
X135899047Y-39894533D02*
X135803809Y-39942152D01*
X136660952Y-39608819D02*
X136660952Y-38942152D01*
X136660952Y-39132628D02*
X136708571Y-39037390D01*
X136708571Y-39037390D02*
X136756190Y-38989771D01*
X136756190Y-38989771D02*
X136851428Y-38942152D01*
X136851428Y-38942152D02*
X136946666Y-38942152D01*
X137422857Y-39608819D02*
X137327619Y-39561200D01*
X137327619Y-39561200D02*
X137280000Y-39513580D01*
X137280000Y-39513580D02*
X137232381Y-39418342D01*
X137232381Y-39418342D02*
X137232381Y-39132628D01*
X137232381Y-39132628D02*
X137280000Y-39037390D01*
X137280000Y-39037390D02*
X137327619Y-38989771D01*
X137327619Y-38989771D02*
X137422857Y-38942152D01*
X137422857Y-38942152D02*
X137565714Y-38942152D01*
X137565714Y-38942152D02*
X137660952Y-38989771D01*
X137660952Y-38989771D02*
X137708571Y-39037390D01*
X137708571Y-39037390D02*
X137756190Y-39132628D01*
X137756190Y-39132628D02*
X137756190Y-39418342D01*
X137756190Y-39418342D02*
X137708571Y-39513580D01*
X137708571Y-39513580D02*
X137660952Y-39561200D01*
X137660952Y-39561200D02*
X137565714Y-39608819D01*
X137565714Y-39608819D02*
X137422857Y-39608819D01*
X138708571Y-39608819D02*
X138137143Y-39608819D01*
X138422857Y-39608819D02*
X138422857Y-38608819D01*
X138422857Y-38608819D02*
X138327619Y-38751676D01*
X138327619Y-38751676D02*
X138232381Y-38846914D01*
X138232381Y-38846914D02*
X138137143Y-38894533D01*
X131565095Y-39227866D02*
X131612714Y-39180247D01*
X131612714Y-39180247D02*
X131707952Y-39132628D01*
X131707952Y-39132628D02*
X131898428Y-39227866D01*
X131898428Y-39227866D02*
X131993666Y-39180247D01*
X131993666Y-39180247D02*
X132041285Y-39132628D01*
D16*
X104048000Y-89088000D02*
X107888000Y-89088000D01*
X104048000Y-90928000D02*
X107888000Y-90928000D01*
X147738785Y-92508001D02*
G75*
G02*
X147738785Y-95508000I-6400000J-1499999D01*
G01*
X147568785Y-94008000D02*
G75*
G02*
X135108785Y-94008000I-6230000J0D01*
G01*
X135108785Y-94008000D02*
G75*
G02*
X147568785Y-94008000I6230000J0D01*
G01*
X133138000Y-107570000D02*
X133138000Y-115250000D01*
X133138000Y-107570000D02*
X135798000Y-107570000D01*
X133138000Y-115250000D02*
X135798000Y-115250000D01*
X134468000Y-104970000D02*
X135798000Y-104970000D01*
X135798000Y-104970000D02*
X135798000Y-106300000D01*
X135798000Y-107570000D02*
X135798000Y-115250000D01*
X111818000Y-39078000D02*
X111818000Y-35478000D01*
X107368000Y-37278000D02*
G75*
G02*
X111806478Y-35439522I2600000J0D01*
G01*
X111806478Y-39116478D02*
G75*
G02*
X107367999Y-37278000I-1838478J1838478D01*
G01*
X139868000Y-134100000D02*
X139868000Y-134700000D01*
X139868000Y-134700000D02*
X140468000Y-134400000D01*
X140358000Y-131790000D02*
X148778000Y-131790000D01*
X140358000Y-133010000D02*
X140358000Y-131790000D01*
X140358000Y-143290000D02*
X142558000Y-143290000D01*
X140358000Y-144510000D02*
X140358000Y-143290000D01*
X140468000Y-134400000D02*
X139868000Y-134100000D01*
X142558000Y-133010000D02*
X140358000Y-133010000D01*
X142558000Y-133010000D02*
X142558000Y-131790000D01*
X142558000Y-135570000D02*
X142558000Y-135730000D01*
X142558000Y-138070000D02*
X142558000Y-138230000D01*
X142558000Y-140570000D02*
X142558000Y-140730000D01*
X142558000Y-143290000D02*
X142558000Y-144510000D01*
X143558000Y-133010000D02*
X143558000Y-143290000D01*
X143558000Y-134080000D02*
X146978000Y-134080000D01*
X143558000Y-134400000D02*
X143558000Y-134080000D01*
X143558000Y-134720000D02*
X143558000Y-134400000D01*
X143558000Y-136580000D02*
X146978000Y-136580000D01*
X143558000Y-136900000D02*
X143558000Y-136580000D01*
X143558000Y-137220000D02*
X143558000Y-136900000D01*
X143558000Y-139080000D02*
X146978000Y-139080000D01*
X143558000Y-139400000D02*
X143558000Y-139080000D01*
X143558000Y-139720000D02*
X143558000Y-139400000D01*
X143558000Y-141580000D02*
X146978000Y-141580000D01*
X143558000Y-141900000D02*
X143558000Y-141580000D01*
X143558000Y-142220000D02*
X143558000Y-141900000D01*
X146978000Y-134080000D02*
X147058000Y-134400000D01*
X146978000Y-134720000D02*
X143558000Y-134720000D01*
X146978000Y-136580000D02*
X147058000Y-136900000D01*
X146978000Y-137220000D02*
X143558000Y-137220000D01*
X146978000Y-139080000D02*
X147058000Y-139400000D01*
X146978000Y-139720000D02*
X143558000Y-139720000D01*
X146978000Y-141580000D02*
X147058000Y-141900000D01*
X146978000Y-142220000D02*
X143558000Y-142220000D01*
X147058000Y-134400000D02*
X146978000Y-134720000D01*
X147058000Y-136900000D02*
X146978000Y-137220000D01*
X147058000Y-139400000D02*
X146978000Y-139720000D01*
X147058000Y-141900000D02*
X146978000Y-142220000D01*
X147558000Y-131790000D02*
X147558000Y-133010000D01*
X147558000Y-133010000D02*
X142558000Y-133010000D01*
X147558000Y-143290000D02*
X142558000Y-143290000D01*
X147558000Y-144510000D02*
X147558000Y-143290000D01*
X148778000Y-131790000D02*
X148778000Y-144510000D01*
X148778000Y-144510000D02*
X140358000Y-144510000D01*
X104000000Y-92650000D02*
X110800000Y-92650000D01*
X104000000Y-95450000D02*
X104000000Y-95050000D01*
X104000000Y-98050000D02*
X104000000Y-97650000D01*
X104000000Y-100550000D02*
X104000000Y-100150000D01*
X104000000Y-103050000D02*
X104000000Y-102650000D01*
X104000000Y-105650000D02*
X104000000Y-105250000D01*
X104000000Y-108150000D02*
X104000000Y-107750000D01*
X104000000Y-110750000D02*
X104000000Y-110350000D01*
X104000000Y-113250000D02*
X104000000Y-112850000D01*
X104000000Y-115850000D02*
X104000000Y-115450000D01*
X104000000Y-118350000D02*
X104000000Y-117950000D01*
X104000000Y-120850000D02*
X104000000Y-120450000D01*
X104000000Y-123450000D02*
X104000000Y-123050000D01*
X104000000Y-125950000D02*
X104000000Y-125550000D01*
X104000000Y-128550000D02*
X104000000Y-128150000D01*
X104000000Y-131050000D02*
X104000000Y-130650000D01*
X104000000Y-133550000D02*
X104000000Y-133150000D01*
X104000000Y-136150000D02*
X104000000Y-135750000D01*
X104000000Y-138650000D02*
X104000000Y-138250000D01*
X104000000Y-141250000D02*
X104000000Y-140850000D01*
X104000000Y-143650000D02*
X104000000Y-143350000D01*
X113400000Y-92650000D02*
X113000000Y-92650000D01*
X116000000Y-92650000D02*
X115600000Y-92650000D01*
X118200000Y-92650000D02*
X125000000Y-92650000D01*
X121993000Y-140983000D02*
X121993000Y-143650000D01*
X125000000Y-95450000D02*
X125000000Y-95050000D01*
X125000000Y-98050000D02*
X125000000Y-97650000D01*
X125000000Y-100550000D02*
X125000000Y-100150000D01*
X125000000Y-103050000D02*
X125000000Y-102650000D01*
X125000000Y-105650000D02*
X125000000Y-105250000D01*
X125000000Y-108150000D02*
X125000000Y-107750000D01*
X125000000Y-110750000D02*
X125000000Y-110350000D01*
X125000000Y-113250000D02*
X125000000Y-112850000D01*
X125000000Y-115850000D02*
X125000000Y-115450000D01*
X125000000Y-118350000D02*
X125000000Y-117950000D01*
X125000000Y-120850000D02*
X125000000Y-120450000D01*
X125000000Y-123450000D02*
X125000000Y-123050000D01*
X125000000Y-125950000D02*
X125000000Y-125550000D01*
X125000000Y-128550000D02*
X125000000Y-128150000D01*
X125000000Y-131050000D02*
X125000000Y-130650000D01*
X125000000Y-133550000D02*
X125000000Y-133150000D01*
X125000000Y-136150000D02*
X125000000Y-135750000D01*
X125000000Y-138650000D02*
X125000000Y-138250000D01*
X125000000Y-140983000D02*
X121993000Y-140983000D01*
X125000000Y-141250000D02*
X125000000Y-140850000D01*
X125000000Y-143650000D02*
X104000000Y-143650000D01*
X125000000Y-143650000D02*
X125000000Y-143350000D01*
D17*
X100718000Y-79218000D02*
X104218000Y-79218000D01*
X100718000Y-87718000D02*
X100718000Y-79218000D01*
X104218000Y-79218000D02*
X104218000Y-87718000D01*
X104218000Y-87718000D02*
X100718000Y-87718000D01*
D18*
X106428000Y-48618000D02*
X106428000Y-88623000D01*
X106428000Y-88623000D02*
X134368000Y-88623000D01*
X134368000Y-48618000D02*
X106428000Y-48618000D01*
X134368000Y-88623000D02*
X134368000Y-48618000D01*
X124414090Y-57508000D02*
G75*
G02*
X116381910Y-57508000I-4016090J0D01*
G01*
X116381910Y-57508000D02*
G75*
G02*
X124414090Y-57508000I4016090J0D01*
G01*
D16*
X107903000Y-42772000D02*
X107903000Y-42928000D01*
X107903000Y-45088000D02*
X107903000Y-45244000D01*
X107903000Y-42772484D02*
G75*
G02*
X111135335Y-42929392I1560000J-1235516D01*
G01*
X108422039Y-42928000D02*
G75*
G02*
X110504130Y-42928163I1040961J-1080000D01*
G01*
X110504130Y-45087837D02*
G75*
G02*
X108422039Y-45088000I-1041130J1079837D01*
G01*
X111135335Y-45086608D02*
G75*
G02*
X107903000Y-45243516I-1672335J1078608D01*
G01*
D14*
X114990000Y-40483000D02*
X142990000Y-40483000D01*
X114990000Y-44983000D02*
X114990000Y-40483000D01*
X142990000Y-40483000D02*
X142990000Y-44983000D01*
X142990000Y-44983000D02*
X114990000Y-44983000D01*
D16*
X117248000Y-34538000D02*
X117248000Y-34868000D01*
X117248000Y-37478000D02*
X117248000Y-37148000D01*
X121668000Y-37478000D02*
X121668000Y-34538000D01*
X121788000Y-37478000D02*
X121788000Y-34538000D01*
X121908000Y-37478000D02*
X121908000Y-34538000D01*
X122688000Y-34538000D02*
X117248000Y-34538000D01*
X122688000Y-34868000D02*
X122688000Y-34538000D01*
X122688000Y-37148000D02*
X122688000Y-37478000D01*
X122688000Y-37478000D02*
X117248000Y-37478000D01*
D17*
X137718000Y-52258000D02*
X146218000Y-52258000D01*
X137718000Y-55758000D02*
X137718000Y-52258000D01*
X146218000Y-52258000D02*
X146218000Y-55758000D01*
X146218000Y-55758000D02*
X137718000Y-55758000D01*
D16*
X130248000Y-143538000D02*
X135688000Y-143538000D01*
X130248000Y-143868000D02*
X130248000Y-143538000D01*
X130248000Y-146148000D02*
X130248000Y-146478000D01*
X130248000Y-146478000D02*
X135688000Y-146478000D01*
X131028000Y-143538000D02*
X131028000Y-146478000D01*
X131148000Y-143538000D02*
X131148000Y-146478000D01*
X131268000Y-143538000D02*
X131268000Y-146478000D01*
X135688000Y-143538000D02*
X135688000Y-143868000D01*
X135688000Y-146478000D02*
X135688000Y-146148000D01*
X137613000Y-48488000D02*
X137613000Y-45888000D01*
X137613000Y-51088000D02*
X137613000Y-49758000D01*
X138943000Y-51088000D02*
X137613000Y-51088000D01*
X140273000Y-45888000D02*
X137613000Y-45888000D01*
X140273000Y-48488000D02*
X137613000Y-48488000D01*
X140273000Y-48488000D02*
X140273000Y-45888000D01*
X100618000Y-73658000D02*
X100618000Y-72275000D01*
X100618000Y-73658000D02*
X102001000Y-73658000D01*
X100858000Y-66598000D02*
X102168000Y-66598000D01*
X100858000Y-73418000D02*
X100858000Y-66598000D01*
X100858000Y-73418000D02*
X102168000Y-73418000D01*
X102333000Y-68198000D02*
X102333000Y-71818000D01*
X102333000Y-70611333D02*
X103603000Y-70611333D01*
X102333000Y-71818000D02*
X103603000Y-71818000D01*
X102453000Y-71818000D02*
X102453000Y-70611333D01*
X102573000Y-71818000D02*
X102573000Y-70611333D01*
X102693000Y-71818000D02*
X102693000Y-70611333D01*
X102813000Y-71818000D02*
X102813000Y-70611333D01*
X102933000Y-71818000D02*
X102933000Y-70611333D01*
X103053000Y-71818000D02*
X103053000Y-70611333D01*
X103173000Y-71818000D02*
X103173000Y-70611333D01*
X103293000Y-71818000D02*
X103293000Y-70611333D01*
X103413000Y-71818000D02*
X103413000Y-70611333D01*
X103533000Y-71818000D02*
X103533000Y-70611333D01*
X103603000Y-68198000D02*
X102333000Y-68198000D01*
X103603000Y-71818000D02*
X103603000Y-68198000D01*
X103768000Y-66598000D02*
X105078000Y-66598000D01*
X103768000Y-73418000D02*
X105078000Y-73418000D01*
X105078000Y-73418000D02*
X105078000Y-66598000D01*
X101598000Y-43238000D02*
X101598000Y-49778000D01*
X101598000Y-49778000D02*
X104338000Y-49778000D01*
X102968000Y-42468000D02*
X102968000Y-43238000D01*
X102968000Y-50548000D02*
X102968000Y-49778000D01*
X104338000Y-43238000D02*
X101598000Y-43238000D01*
X104338000Y-49778000D02*
X104338000Y-43238000D01*
X129160000Y-32423000D02*
X129160000Y-40043000D01*
X129160000Y-33693000D02*
X139320000Y-33693000D01*
X129160000Y-40043000D02*
X139320000Y-40043000D01*
X139320000Y-32423000D02*
X129160000Y-32423000D01*
X139320000Y-40043000D02*
X139320000Y-32423000D01*
%LPC*%
D19*
X103428000Y-90008000D03*
D20*
X108508000Y-90008000D03*
D21*
X144338785Y-94008000D03*
D22*
X138338785Y-94008000D03*
D23*
X134468000Y-106300000D03*
D24*
X134468000Y-108840000D03*
X134468000Y-111380000D03*
X134468000Y-113920000D03*
D25*
X101968000Y-35008000D03*
D26*
X109968000Y-38548000D03*
D27*
X108698000Y-37278000D03*
X109968000Y-36008000D03*
D28*
X141968000Y-134400000D03*
D29*
X141968000Y-136900000D03*
X141968000Y-139400000D03*
X141968000Y-141900000D03*
D30*
X117225000Y-142150000D03*
D31*
X116925000Y-139120000D03*
X112075000Y-139120000D03*
D30*
X111775000Y-142150000D03*
D24*
X123390000Y-142280000D03*
D32*
X124290000Y-142280000D03*
D24*
X123390000Y-139740000D03*
D32*
X124290000Y-139740000D03*
D23*
X123390000Y-137200000D03*
D32*
X124290000Y-137200000D03*
D24*
X123390000Y-134660000D03*
D32*
X124290000Y-134660000D03*
D24*
X123390000Y-132120000D03*
D32*
X124290000Y-132120000D03*
D24*
X123390000Y-129580000D03*
D32*
X124290000Y-129580000D03*
D24*
X123390000Y-127040000D03*
D32*
X124290000Y-127040000D03*
D23*
X123390000Y-124500000D03*
D32*
X124290000Y-124500000D03*
D24*
X123390000Y-121960000D03*
D32*
X124290000Y-121960000D03*
D24*
X123390000Y-119420000D03*
D32*
X124290000Y-119420000D03*
D24*
X123390000Y-116880000D03*
D32*
X124290000Y-116880000D03*
D24*
X123390000Y-114340000D03*
D32*
X124290000Y-114340000D03*
D23*
X123390000Y-111800000D03*
D32*
X124290000Y-111800000D03*
D24*
X123390000Y-109260000D03*
D32*
X124290000Y-109260000D03*
D24*
X123390000Y-106720000D03*
D32*
X124290000Y-106720000D03*
D24*
X123390000Y-104180000D03*
D32*
X124290000Y-104180000D03*
D24*
X123390000Y-101640000D03*
D32*
X124290000Y-101640000D03*
D23*
X123390000Y-99100000D03*
D32*
X124290000Y-99100000D03*
D24*
X123390000Y-96560000D03*
D32*
X124290000Y-96560000D03*
D24*
X123390000Y-94020000D03*
D32*
X124290000Y-94020000D03*
D24*
X105610000Y-94020000D03*
D32*
X104710000Y-94020000D03*
D24*
X105610000Y-96560000D03*
D32*
X104710000Y-96560000D03*
D23*
X105610000Y-99100000D03*
D32*
X104710000Y-99100000D03*
D24*
X105610000Y-101640000D03*
D32*
X104710000Y-101640000D03*
D24*
X105610000Y-104180000D03*
D32*
X104710000Y-104180000D03*
D24*
X105610000Y-106720000D03*
D32*
X104710000Y-106720000D03*
D24*
X105610000Y-109260000D03*
D32*
X104710000Y-109260000D03*
D23*
X105610000Y-111800000D03*
D32*
X104710000Y-111800000D03*
D24*
X105610000Y-114340000D03*
D32*
X104710000Y-114340000D03*
D24*
X105610000Y-116880000D03*
D32*
X104710000Y-116880000D03*
D24*
X105610000Y-119420000D03*
D32*
X104710000Y-119420000D03*
D24*
X105610000Y-121960000D03*
D32*
X104710000Y-121960000D03*
D23*
X105610000Y-124500000D03*
D32*
X104710000Y-124500000D03*
D24*
X105610000Y-127040000D03*
D32*
X104710000Y-127040000D03*
D24*
X105610000Y-129580000D03*
D32*
X104710000Y-129580000D03*
D24*
X105610000Y-132120000D03*
D32*
X104710000Y-132120000D03*
D24*
X105610000Y-134660000D03*
D32*
X104710000Y-134660000D03*
D23*
X105610000Y-137200000D03*
D32*
X104710000Y-137200000D03*
D24*
X105610000Y-139740000D03*
D32*
X104710000Y-139740000D03*
D24*
X105610000Y-142280000D03*
D32*
X104710000Y-142280000D03*
D24*
X117040000Y-94250000D03*
D33*
X117040000Y-93350000D03*
D23*
X114500000Y-94250000D03*
D33*
X114500000Y-93350000D03*
D24*
X111960000Y-94250000D03*
D33*
X111960000Y-93350000D03*
D25*
X101468000Y-148008000D03*
X146968000Y-35008000D03*
D34*
X102468000Y-80928000D03*
X102468000Y-83468000D03*
X102468000Y-86008000D03*
D35*
X131828000Y-70208000D03*
D36*
X131828000Y-67668000D03*
X131828000Y-65128000D03*
X131828000Y-62588000D03*
D35*
X131828000Y-60048000D03*
D36*
X131828000Y-57508000D03*
X131828000Y-54968000D03*
X131828000Y-52428000D03*
X108968000Y-52428000D03*
D35*
X108968000Y-54968000D03*
D36*
X108968000Y-57508000D03*
X108968000Y-60048000D03*
X108968000Y-62588000D03*
X108968000Y-65128000D03*
X108968000Y-67668000D03*
X108968000Y-70208000D03*
D25*
X146468000Y-148008000D03*
D37*
X108193000Y-44008000D03*
D38*
X110733000Y-44008000D03*
D39*
X116740000Y-42233000D03*
D40*
X120240000Y-42233000D03*
D41*
X136490000Y-42233000D03*
X131740000Y-42233000D03*
X141240000Y-42233000D03*
D37*
X123778000Y-36008000D03*
D30*
X116158000Y-36008000D03*
D34*
X139428000Y-54008000D03*
X141968000Y-54008000D03*
X144508000Y-54008000D03*
D37*
X129158000Y-145008000D03*
D30*
X136778000Y-145008000D03*
D23*
X138943000Y-49758000D03*
D24*
X138943000Y-47218000D03*
D42*
X102968000Y-74313000D03*
X102968000Y-65703000D03*
D43*
X102968000Y-51588000D03*
D44*
X102968000Y-41428000D03*
D45*
X136780000Y-36233000D03*
D46*
X131700000Y-36233000D03*
D47*
X141968000Y-74163000D03*
D48*
X139428000Y-57503000D03*
D49*
X141968000Y-57503000D03*
X144508000Y-57503000D03*
D24*
X147508000Y-79508000D03*
D23*
X144968000Y-79508000D03*
D24*
X142428000Y-79508000D03*
X139888000Y-79508000D03*
%LPD*%
M02*
