%TF.GenerationSoftware,KiCad,Pcbnew,8.0.5*%
%TF.CreationDate,2024-10-11T00:49:00+02:00*%
%TF.ProjectId,RocketBoard,526f636b-6574-4426-9f61-72642e6b6963,rev?*%
%TF.SameCoordinates,Original*%
%TF.FileFunction,Soldermask,Top*%
%TF.FilePolarity,Negative*%
%FSLAX46Y46*%
G04 Gerber Fmt 4.6, Leading zero omitted, Abs format (unit mm)*
G04 Created by KiCad (PCBNEW 8.0.5) date 2024-10-11 00:49:00*
%MOMM*%
%LPD*%
G01*
G04 APERTURE LIST*
G04 Aperture macros list*
%AMRoundRect*
0 Rectangle with rounded corners*
0 $1 Rounding radius*
0 $2 $3 $4 $5 $6 $7 $8 $9 X,Y pos of 4 corners*
0 Add a 4 corners polygon primitive as box body*
4,1,4,$2,$3,$4,$5,$6,$7,$8,$9,$2,$3,0*
0 Add four circle primitives for the rounded corners*
1,1,$1+$1,$2,$3*
1,1,$1+$1,$4,$5*
1,1,$1+$1,$6,$7*
1,1,$1+$1,$8,$9*
0 Add four rect primitives between the rounded corners*
20,1,$1+$1,$2,$3,$4,$5,0*
20,1,$1+$1,$4,$5,$6,$7,0*
20,1,$1+$1,$6,$7,$8,$9,0*
20,1,$1+$1,$8,$9,$2,$3,0*%
G04 Aperture macros list end*
%ADD10C,1.400000*%
%ADD11O,1.400000X1.400000*%
%ADD12R,2.000000X2.000000*%
%ADD13C,2.000000*%
%ADD14R,1.700000X1.700000*%
%ADD15O,1.700000X1.700000*%
%ADD16C,2.100000*%
%ADD17R,1.300000X1.300000*%
%ADD18C,1.300000*%
%ADD19RoundRect,0.250000X-0.725000X0.600000X-0.725000X-0.600000X0.725000X-0.600000X0.725000X0.600000X0*%
%ADD20O,1.950000X1.700000*%
%ADD21O,1.800000X1.800000*%
%ADD22O,1.500000X1.500000*%
%ADD23R,3.500000X1.700000*%
%ADD24R,1.700000X3.500000*%
%ADD25C,1.676400*%
%ADD26RoundRect,0.102000X0.762000X0.762000X-0.762000X0.762000X-0.762000X-0.762000X0.762000X-0.762000X0*%
%ADD27O,3.252000X1.728000*%
%ADD28R,1.800000X1.800000*%
%ADD29C,1.800000*%
%ADD30R,1.524000X1.524000*%
%ADD31C,1.524000*%
%ADD32O,2.200000X1.400000*%
%ADD33R,1.120000X2.440000*%
%ADD34C,1.600000*%
%ADD35O,1.600000X1.600000*%
%ADD36R,3.000000X3.000000*%
%ADD37C,3.000000*%
%ADD38O,3.500000X3.500000*%
%ADD39R,1.905000X2.000000*%
%ADD40O,1.905000X2.000000*%
G04 APERTURE END LIST*
D10*
X103428000Y-90008000D03*
D11*
X108508000Y-90008000D03*
D12*
X144338785Y-94008000D03*
D13*
X138338785Y-94008000D03*
D14*
X134468000Y-106300000D03*
D15*
X134468000Y-108840000D03*
X134468000Y-111380000D03*
X134468000Y-113920000D03*
D16*
X101968000Y-35008000D03*
D17*
X109968000Y-38548000D03*
D18*
X108698000Y-37278000D03*
X109968000Y-36008000D03*
D19*
X141968000Y-134400000D03*
D20*
X141968000Y-136900000D03*
X141968000Y-139400000D03*
X141968000Y-141900000D03*
D21*
X117225000Y-142150000D03*
D22*
X116925000Y-139120000D03*
X112075000Y-139120000D03*
D21*
X111775000Y-142150000D03*
D15*
X123390000Y-142280000D03*
D23*
X124290000Y-142280000D03*
D15*
X123390000Y-139740000D03*
D23*
X124290000Y-139740000D03*
D14*
X123390000Y-137200000D03*
D23*
X124290000Y-137200000D03*
D15*
X123390000Y-134660000D03*
D23*
X124290000Y-134660000D03*
D15*
X123390000Y-132120000D03*
D23*
X124290000Y-132120000D03*
D15*
X123390000Y-129580000D03*
D23*
X124290000Y-129580000D03*
D15*
X123390000Y-127040000D03*
D23*
X124290000Y-127040000D03*
D14*
X123390000Y-124500000D03*
D23*
X124290000Y-124500000D03*
D15*
X123390000Y-121960000D03*
D23*
X124290000Y-121960000D03*
D15*
X123390000Y-119420000D03*
D23*
X124290000Y-119420000D03*
D15*
X123390000Y-116880000D03*
D23*
X124290000Y-116880000D03*
D15*
X123390000Y-114340000D03*
D23*
X124290000Y-114340000D03*
D14*
X123390000Y-111800000D03*
D23*
X124290000Y-111800000D03*
D15*
X123390000Y-109260000D03*
D23*
X124290000Y-109260000D03*
D15*
X123390000Y-106720000D03*
D23*
X124290000Y-106720000D03*
D15*
X123390000Y-104180000D03*
D23*
X124290000Y-104180000D03*
D15*
X123390000Y-101640000D03*
D23*
X124290000Y-101640000D03*
D14*
X123390000Y-99100000D03*
D23*
X124290000Y-99100000D03*
D15*
X123390000Y-96560000D03*
D23*
X124290000Y-96560000D03*
D15*
X123390000Y-94020000D03*
D23*
X124290000Y-94020000D03*
D15*
X105610000Y-94020000D03*
D23*
X104710000Y-94020000D03*
D15*
X105610000Y-96560000D03*
D23*
X104710000Y-96560000D03*
D14*
X105610000Y-99100000D03*
D23*
X104710000Y-99100000D03*
D15*
X105610000Y-101640000D03*
D23*
X104710000Y-101640000D03*
D15*
X105610000Y-104180000D03*
D23*
X104710000Y-104180000D03*
D15*
X105610000Y-106720000D03*
D23*
X104710000Y-106720000D03*
D15*
X105610000Y-109260000D03*
D23*
X104710000Y-109260000D03*
D14*
X105610000Y-111800000D03*
D23*
X104710000Y-111800000D03*
D15*
X105610000Y-114340000D03*
D23*
X104710000Y-114340000D03*
D15*
X105610000Y-116880000D03*
D23*
X104710000Y-116880000D03*
D15*
X105610000Y-119420000D03*
D23*
X104710000Y-119420000D03*
D15*
X105610000Y-121960000D03*
D23*
X104710000Y-121960000D03*
D14*
X105610000Y-124500000D03*
D23*
X104710000Y-124500000D03*
D15*
X105610000Y-127040000D03*
D23*
X104710000Y-127040000D03*
D15*
X105610000Y-129580000D03*
D23*
X104710000Y-129580000D03*
D15*
X105610000Y-132120000D03*
D23*
X104710000Y-132120000D03*
D15*
X105610000Y-134660000D03*
D23*
X104710000Y-134660000D03*
D14*
X105610000Y-137200000D03*
D23*
X104710000Y-137200000D03*
D15*
X105610000Y-139740000D03*
D23*
X104710000Y-139740000D03*
D15*
X105610000Y-142280000D03*
D23*
X104710000Y-142280000D03*
D15*
X117040000Y-94250000D03*
D24*
X117040000Y-93350000D03*
D14*
X114500000Y-94250000D03*
D24*
X114500000Y-93350000D03*
D15*
X111960000Y-94250000D03*
D24*
X111960000Y-93350000D03*
D16*
X101468000Y-148008000D03*
X146968000Y-35008000D03*
D25*
X102468000Y-80928000D03*
X102468000Y-83468000D03*
X102468000Y-86008000D03*
D26*
X131828000Y-70208000D03*
D27*
X131828000Y-67668000D03*
X131828000Y-65128000D03*
X131828000Y-62588000D03*
D26*
X131828000Y-60048000D03*
D27*
X131828000Y-57508000D03*
X131828000Y-54968000D03*
X131828000Y-52428000D03*
X108968000Y-52428000D03*
D26*
X108968000Y-54968000D03*
D27*
X108968000Y-57508000D03*
X108968000Y-60048000D03*
X108968000Y-62588000D03*
X108968000Y-65128000D03*
X108968000Y-67668000D03*
X108968000Y-70208000D03*
D16*
X146468000Y-148008000D03*
D28*
X108193000Y-44008000D03*
D29*
X110733000Y-44008000D03*
D30*
X116740000Y-42233000D03*
D31*
X120240000Y-42233000D03*
D32*
X136490000Y-42233000D03*
X131740000Y-42233000D03*
X141240000Y-42233000D03*
D28*
X123778000Y-36008000D03*
D21*
X116158000Y-36008000D03*
D25*
X139428000Y-54008000D03*
X141968000Y-54008000D03*
X144508000Y-54008000D03*
D28*
X129158000Y-145008000D03*
D21*
X136778000Y-145008000D03*
D14*
X138943000Y-49758000D03*
D15*
X138943000Y-47218000D03*
D33*
X102968000Y-74313000D03*
X102968000Y-65703000D03*
D34*
X102968000Y-51588000D03*
D35*
X102968000Y-41428000D03*
D36*
X136780000Y-36233000D03*
D37*
X131700000Y-36233000D03*
D38*
X141968000Y-74163000D03*
D39*
X139428000Y-57503000D03*
D40*
X141968000Y-57503000D03*
X144508000Y-57503000D03*
D15*
X147508000Y-79508000D03*
D14*
X144968000Y-79508000D03*
D15*
X142428000Y-79508000D03*
X139888000Y-79508000D03*
M02*
