G04 #@! TF.GenerationSoftware,KiCad,Pcbnew,7.0.10*
G04 #@! TF.CreationDate,2024-04-13T19:06:11+02:00*
G04 #@! TF.ProjectId,RocketBoard,526f636b-6574-4426-9f61-72642e6b6963,rev?*
G04 #@! TF.SameCoordinates,Original*
G04 #@! TF.FileFunction,Copper,L1,Top*
G04 #@! TF.FilePolarity,Positive*
%FSLAX46Y46*%
G04 Gerber Fmt 4.6, Leading zero omitted, Abs format (unit mm)*
G04 Created by KiCad (PCBNEW 7.0.10) date 2024-04-13 19:06:11*
%MOMM*%
%LPD*%
G01*
G04 APERTURE LIST*
G04 Aperture macros list*
%AMRoundRect*
0 Rectangle with rounded corners*
0 $1 Rounding radius*
0 $2 $3 $4 $5 $6 $7 $8 $9 X,Y pos of 4 corners*
0 Add a 4 corners polygon primitive as box body*
4,1,4,$2,$3,$4,$5,$6,$7,$8,$9,$2,$3,0*
0 Add four circle primitives for the rounded corners*
1,1,$1+$1,$2,$3*
1,1,$1+$1,$4,$5*
1,1,$1+$1,$6,$7*
1,1,$1+$1,$8,$9*
0 Add four rect primitives between the rounded corners*
20,1,$1+$1,$2,$3,$4,$5,0*
20,1,$1+$1,$4,$5,$6,$7,0*
20,1,$1+$1,$6,$7,$8,$9,0*
20,1,$1+$1,$8,$9,$2,$3,0*%
G04 Aperture macros list end*
G04 #@! TA.AperFunction,ComponentPad*
%ADD10O,1.700000X1.700000*%
G04 #@! TD*
G04 #@! TA.AperFunction,ComponentPad*
%ADD11R,1.700000X1.700000*%
G04 #@! TD*
G04 #@! TA.AperFunction,ComponentPad*
%ADD12C,3.000000*%
G04 #@! TD*
G04 #@! TA.AperFunction,ComponentPad*
%ADD13R,3.000000X3.000000*%
G04 #@! TD*
G04 #@! TA.AperFunction,ComponentPad*
%ADD14R,2.000000X2.000000*%
G04 #@! TD*
G04 #@! TA.AperFunction,ComponentPad*
%ADD15C,2.000000*%
G04 #@! TD*
G04 #@! TA.AperFunction,ComponentPad*
%ADD16R,1.300000X1.300000*%
G04 #@! TD*
G04 #@! TA.AperFunction,ComponentPad*
%ADD17C,1.300000*%
G04 #@! TD*
G04 #@! TA.AperFunction,ComponentPad*
%ADD18RoundRect,0.250000X-0.725000X0.600000X-0.725000X-0.600000X0.725000X-0.600000X0.725000X0.600000X0*%
G04 #@! TD*
G04 #@! TA.AperFunction,ComponentPad*
%ADD19O,1.950000X1.700000*%
G04 #@! TD*
G04 #@! TA.AperFunction,SMDPad,CuDef*
%ADD20R,3.500000X1.700000*%
G04 #@! TD*
G04 #@! TA.AperFunction,ComponentPad*
%ADD21R,1.524000X1.524000*%
G04 #@! TD*
G04 #@! TA.AperFunction,ComponentPad*
%ADD22O,3.048000X1.524000*%
G04 #@! TD*
G04 #@! TA.AperFunction,ComponentPad*
%ADD23C,1.800000*%
G04 #@! TD*
G04 #@! TA.AperFunction,ComponentPad*
%ADD24R,1.800000X1.800000*%
G04 #@! TD*
G04 #@! TA.AperFunction,ComponentPad*
%ADD25C,1.600000*%
G04 #@! TD*
G04 #@! TA.AperFunction,ComponentPad*
%ADD26O,1.600000X1.600000*%
G04 #@! TD*
G04 #@! TA.AperFunction,ComponentPad*
%ADD27R,1.980000X1.980000*%
G04 #@! TD*
G04 #@! TA.AperFunction,ComponentPad*
%ADD28C,1.980000*%
G04 #@! TD*
G04 #@! TA.AperFunction,ComponentPad*
%ADD29C,1.935000*%
G04 #@! TD*
G04 #@! TA.AperFunction,ComponentPad*
%ADD30O,1.800000X1.800000*%
G04 #@! TD*
G04 #@! TA.AperFunction,ComponentPad*
%ADD31C,1.676400*%
G04 #@! TD*
G04 #@! TA.AperFunction,SMDPad,CuDef*
%ADD32R,1.120000X2.440000*%
G04 #@! TD*
G04 #@! TA.AperFunction,ComponentPad*
%ADD33O,1.905000X2.000000*%
G04 #@! TD*
G04 #@! TA.AperFunction,ComponentPad*
%ADD34R,1.905000X2.000000*%
G04 #@! TD*
G04 #@! TA.AperFunction,Conductor*
%ADD35C,0.500000*%
G04 #@! TD*
G04 APERTURE END LIST*
D10*
X138811000Y-89154000D03*
D11*
X138811000Y-86614000D03*
D10*
X138811000Y-84074000D03*
X138811000Y-81534000D03*
D12*
X138303000Y-37846000D03*
D13*
X133223000Y-37846000D03*
D14*
X138430000Y-97282000D03*
D15*
X133430000Y-97282000D03*
D11*
X132410000Y-106300000D03*
D10*
X132410000Y-108840000D03*
X132410000Y-111380000D03*
X132410000Y-113920000D03*
D16*
X106553000Y-54737000D03*
D17*
X105283000Y-56007000D03*
X104013000Y-54737000D03*
D18*
X140167500Y-134400000D03*
D19*
X140167500Y-136900000D03*
X140167500Y-139400000D03*
X140167500Y-141900000D03*
D20*
X104710000Y-142280000D03*
D10*
X105610000Y-142280000D03*
D20*
X104710000Y-139740000D03*
D10*
X105610000Y-139740000D03*
D20*
X104710000Y-137200000D03*
D11*
X105610000Y-137200000D03*
D20*
X104710000Y-134660000D03*
D10*
X105610000Y-134660000D03*
D20*
X104710000Y-132120000D03*
D10*
X105610000Y-132120000D03*
D20*
X104710000Y-129580000D03*
D10*
X105610000Y-129580000D03*
D20*
X104710000Y-127040000D03*
D10*
X105610000Y-127040000D03*
D20*
X104710000Y-124500000D03*
D11*
X105610000Y-124500000D03*
D20*
X104710000Y-121960000D03*
D10*
X105610000Y-121960000D03*
D20*
X104710000Y-119420000D03*
D10*
X105610000Y-119420000D03*
D20*
X104710000Y-116880000D03*
D10*
X105610000Y-116880000D03*
D20*
X104710000Y-114340000D03*
D10*
X105610000Y-114340000D03*
D20*
X104710000Y-111800000D03*
D11*
X105610000Y-111800000D03*
D20*
X104710000Y-109260000D03*
D10*
X105610000Y-109260000D03*
D20*
X104710000Y-106720000D03*
D10*
X105610000Y-106720000D03*
D20*
X104710000Y-104180000D03*
D10*
X105610000Y-104180000D03*
D20*
X104710000Y-101640000D03*
D10*
X105610000Y-101640000D03*
D20*
X104710000Y-99100000D03*
D11*
X105610000Y-99100000D03*
D20*
X104710000Y-96560000D03*
D10*
X105610000Y-96560000D03*
D20*
X104710000Y-94020000D03*
D10*
X105610000Y-94020000D03*
D20*
X124290000Y-94020000D03*
D10*
X123390000Y-94020000D03*
D20*
X124290000Y-96560000D03*
D10*
X123390000Y-96560000D03*
D20*
X124290000Y-99100000D03*
D11*
X123390000Y-99100000D03*
D20*
X124290000Y-101640000D03*
D10*
X123390000Y-101640000D03*
D20*
X124290000Y-104180000D03*
D10*
X123390000Y-104180000D03*
D20*
X124290000Y-106720000D03*
D10*
X123390000Y-106720000D03*
D20*
X124290000Y-109260000D03*
D10*
X123390000Y-109260000D03*
D20*
X124290000Y-111800000D03*
D11*
X123390000Y-111800000D03*
D20*
X124290000Y-114340000D03*
D10*
X123390000Y-114340000D03*
D20*
X124290000Y-116880000D03*
D10*
X123390000Y-116880000D03*
D20*
X124290000Y-119420000D03*
D10*
X123390000Y-119420000D03*
D20*
X124290000Y-121960000D03*
D10*
X123390000Y-121960000D03*
D20*
X124290000Y-124500000D03*
D11*
X123390000Y-124500000D03*
D20*
X124290000Y-127040000D03*
D10*
X123390000Y-127040000D03*
D20*
X124290000Y-129580000D03*
D10*
X123390000Y-129580000D03*
D20*
X124290000Y-132120000D03*
D10*
X123390000Y-132120000D03*
D20*
X124290000Y-134660000D03*
D10*
X123390000Y-134660000D03*
D20*
X124290000Y-137200000D03*
D11*
X123390000Y-137200000D03*
D20*
X124290000Y-139740000D03*
D10*
X123390000Y-139740000D03*
D20*
X124290000Y-142280000D03*
D10*
X123390000Y-142280000D03*
D21*
X134112000Y-71755000D03*
D22*
X134112000Y-69215000D03*
X134112000Y-66675000D03*
X134112000Y-64135000D03*
D21*
X134112000Y-61595000D03*
D22*
X134112000Y-59055000D03*
X134112000Y-56515000D03*
X134112000Y-53975000D03*
X111252000Y-53975000D03*
D21*
X111252000Y-56515000D03*
D22*
X111252000Y-59055000D03*
X111252000Y-61595000D03*
X111252000Y-64135000D03*
X111252000Y-66675000D03*
X111252000Y-69215000D03*
X111252000Y-71755000D03*
D23*
X108199000Y-45466000D03*
D24*
X105659000Y-45466000D03*
D25*
X105029000Y-90678000D03*
D26*
X105029000Y-80518000D03*
D27*
X114423000Y-35783000D03*
D28*
X114423000Y-47783000D03*
D29*
X112423000Y-41783000D03*
D28*
X126623000Y-35783000D03*
X126623000Y-47783000D03*
D30*
X108458000Y-41275000D03*
D24*
X100838000Y-41275000D03*
D31*
X133076000Y-45618000D03*
X135616000Y-45618000D03*
X138156000Y-45618000D03*
D24*
X128778000Y-143510000D03*
D30*
X136398000Y-143510000D03*
D11*
X142875000Y-45085000D03*
D10*
X145415000Y-45085000D03*
D32*
X102743000Y-69583000D03*
X102743000Y-60973000D03*
D25*
X100711000Y-45720000D03*
D26*
X100711000Y-55880000D03*
D25*
X101473000Y-90678000D03*
D26*
X101473000Y-80518000D03*
D33*
X144526000Y-51603000D03*
X141986000Y-51603000D03*
D34*
X139446000Y-51603000D03*
D11*
X117991000Y-74778000D03*
D10*
X115451000Y-74778000D03*
X112911000Y-74778000D03*
X110371000Y-74778000D03*
X107831000Y-74778000D03*
X105291000Y-74778000D03*
X102751000Y-74778000D03*
D35*
X108867000Y-38227000D02*
X112423000Y-41783000D01*
X99060000Y-39751000D02*
X100584000Y-38227000D01*
X99060000Y-49784000D02*
X99060000Y-39751000D01*
X100584000Y-38227000D02*
X108867000Y-38227000D01*
X104013000Y-54737000D02*
X99060000Y-49784000D01*
X99060000Y-63881000D02*
X99060000Y-49784000D01*
X102743000Y-67564000D02*
X99060000Y-63881000D01*
X102743000Y-69583000D02*
X102743000Y-67564000D01*
X105659000Y-45466000D02*
X100965000Y-45466000D01*
X100965000Y-45466000D02*
X100711000Y-45720000D01*
X108458000Y-41275000D02*
X108208000Y-41525000D01*
X110617000Y-43434000D02*
X108458000Y-41275000D01*
X110617000Y-50673000D02*
X110617000Y-43434000D01*
X106553000Y-54737000D02*
X110617000Y-50673000D01*
X141773000Y-54356000D02*
X144526000Y-51603000D01*
X136129000Y-52563000D02*
X137922000Y-54356000D01*
X137922000Y-54356000D02*
X141773000Y-54356000D01*
X135636000Y-52563000D02*
X136129000Y-52563000D01*
X112664000Y-52563000D02*
X135636000Y-52563000D01*
X142342000Y-46380000D02*
X142875000Y-45847000D01*
X138156000Y-46380000D02*
X142342000Y-46380000D01*
X144145000Y-48895000D02*
X145415000Y-47625000D01*
X145415000Y-47625000D02*
X145415000Y-45847000D01*
X142154000Y-48895000D02*
X144145000Y-48895000D01*
X139446000Y-51603000D02*
X142154000Y-48895000D01*
X138303000Y-37846000D02*
X145415000Y-44958000D01*
X145415000Y-44958000D02*
X145415000Y-45847000D01*
X126623000Y-44446000D02*
X133223000Y-37846000D01*
X126623000Y-47783000D02*
X126623000Y-44446000D01*
X111252000Y-53975000D02*
X112664000Y-52563000D01*
X114423000Y-47783000D02*
X114423000Y-47236929D01*
X112423000Y-41783000D02*
X112423000Y-41374000D01*
X105778000Y-60973000D02*
X110236000Y-56515000D01*
X102743000Y-60973000D02*
X105778000Y-60973000D01*
X111252000Y-56515000D02*
X110236000Y-56515000D01*
X102751000Y-69591000D02*
X102743000Y-69583000D01*
X102751000Y-74778000D02*
X102751000Y-69591000D01*
X107696000Y-90932000D02*
X107696000Y-80645000D01*
X105610000Y-93018000D02*
X107696000Y-90932000D01*
X107696000Y-80645000D02*
X112911000Y-75430000D01*
X105610000Y-94020000D02*
X105610000Y-93018000D01*
X107823000Y-80518000D02*
X105029000Y-80518000D01*
X112911000Y-75430000D02*
X107823000Y-80518000D01*
X112911000Y-75430000D02*
X112911000Y-74778000D01*
X107552000Y-77597000D02*
X110371000Y-74778000D01*
X104394000Y-77597000D02*
X107552000Y-77597000D01*
X101473000Y-80518000D02*
X104394000Y-77597000D01*
X101092000Y-80518000D02*
X101473000Y-80518000D01*
X101473000Y-90678000D02*
X105029000Y-90678000D01*
X100838000Y-127127000D02*
X101473000Y-126492000D01*
X100838000Y-129608000D02*
X100838000Y-127127000D01*
X101473000Y-126492000D02*
X101473000Y-90678000D01*
X103350000Y-132120000D02*
X100838000Y-129608000D01*
X105610000Y-132120000D02*
X103350000Y-132120000D01*
X111506000Y-127000000D02*
X106386000Y-132120000D01*
X111506000Y-102997000D02*
X111506000Y-127000000D01*
X106386000Y-132120000D02*
X105610000Y-132120000D01*
X136155000Y-78348000D02*
X111506000Y-102997000D01*
X140834792Y-78348000D02*
X136155000Y-78348000D01*
X141997000Y-79510208D02*
X140834792Y-78348000D01*
X141997000Y-85968000D02*
X141997000Y-79510208D01*
X138811000Y-89154000D02*
X141997000Y-85968000D01*
X137608919Y-86614000D02*
X136525000Y-87697919D01*
X138811000Y-86614000D02*
X137608919Y-86614000D01*
X136525000Y-94742000D02*
X137287000Y-94742000D01*
X133237898Y-94742000D02*
X136525000Y-94742000D01*
X136525000Y-87697919D02*
X136525000Y-94742000D01*
X141097000Y-81788000D02*
X138811000Y-84074000D01*
X141097000Y-79883000D02*
X141097000Y-81788000D01*
X136652000Y-79248000D02*
X140462000Y-79248000D01*
X131826000Y-87376000D02*
X131826000Y-84074000D01*
X140462000Y-79248000D02*
X141097000Y-79883000D01*
X125182000Y-94020000D02*
X131826000Y-87376000D01*
X123390000Y-94020000D02*
X125182000Y-94020000D01*
X131826000Y-84074000D02*
X136652000Y-79248000D01*
X136652000Y-81534000D02*
X138811000Y-81534000D01*
X133604000Y-84582000D02*
X136652000Y-81534000D01*
X133604000Y-88606000D02*
X133604000Y-84582000D01*
X125650000Y-96560000D02*
X133604000Y-88606000D01*
X123390000Y-96560000D02*
X125650000Y-96560000D01*
X142292500Y-141900000D02*
X144500000Y-139692500D01*
X144500000Y-116814000D02*
X137096500Y-109410500D01*
X144500000Y-139692500D02*
X144500000Y-116814000D01*
X137096500Y-109410500D02*
X133986000Y-106300000D01*
X133986000Y-106300000D02*
X132410000Y-106300000D01*
X137096500Y-109410500D02*
X136526000Y-108840000D01*
X140167500Y-141900000D02*
X142292500Y-141900000D01*
X137287000Y-94742000D02*
X138430000Y-95885000D01*
X123390000Y-99100000D02*
X128016000Y-99100000D01*
X138150000Y-134400000D02*
X140167500Y-134400000D01*
X134090000Y-138460000D02*
X138150000Y-134400000D01*
X130650000Y-138460000D02*
X134090000Y-138460000D01*
X131261949Y-96717949D02*
X128879898Y-99100000D01*
X138430000Y-95885000D02*
X138430000Y-97282000D01*
X128879898Y-99100000D02*
X128016000Y-99100000D01*
X123390000Y-137200000D02*
X129390000Y-137200000D01*
X131261949Y-96717949D02*
X133237898Y-94742000D01*
X133166949Y-94812949D02*
X131261949Y-96717949D01*
X129390000Y-137200000D02*
X130650000Y-138460000D01*
X132410000Y-111380000D02*
X132192283Y-111380000D01*
X127532283Y-106720000D02*
X123390000Y-106720000D01*
X132192283Y-111380000D02*
X127532283Y-106720000D01*
X131207919Y-113920000D02*
X126547919Y-109260000D01*
X126547919Y-109260000D02*
X123390000Y-109260000D01*
X132410000Y-113920000D02*
X131207919Y-113920000D01*
X123390000Y-142280000D02*
X123605000Y-142495000D01*
X123605000Y-139955000D02*
X123390000Y-139740000D01*
X133430000Y-97282000D02*
X133430000Y-97710000D01*
X133430000Y-97710000D02*
X126960000Y-104180000D01*
X126960000Y-104180000D02*
X123390000Y-104180000D01*
X105610000Y-101640000D02*
X106812081Y-101640000D01*
M02*
