%TF.GenerationSoftware,KiCad,Pcbnew,8.0.5*%
%TF.CreationDate,2024-10-11T00:49:00+02:00*%
%TF.ProjectId,RocketBoard,526f636b-6574-4426-9f61-72642e6b6963,rev?*%
%TF.SameCoordinates,Original*%
%TF.FileFunction,Legend,Bot*%
%TF.FilePolarity,Positive*%
%FSLAX46Y46*%
G04 Gerber Fmt 4.6, Leading zero omitted, Abs format (unit mm)*
G04 Created by KiCad (PCBNEW 8.0.5) date 2024-10-11 00:49:00*
%MOMM*%
%LPD*%
G01*
G04 APERTURE LIST*
G04 Aperture macros list*
%AMRoundRect*
0 Rectangle with rounded corners*
0 $1 Rounding radius*
0 $2 $3 $4 $5 $6 $7 $8 $9 X,Y pos of 4 corners*
0 Add a 4 corners polygon primitive as box body*
4,1,4,$2,$3,$4,$5,$6,$7,$8,$9,$2,$3,0*
0 Add four circle primitives for the rounded corners*
1,1,$1+$1,$2,$3*
1,1,$1+$1,$4,$5*
1,1,$1+$1,$6,$7*
1,1,$1+$1,$8,$9*
0 Add four rect primitives between the rounded corners*
20,1,$1+$1,$2,$3,$4,$5,0*
20,1,$1+$1,$4,$5,$6,$7,0*
20,1,$1+$1,$6,$7,$8,$9,0*
20,1,$1+$1,$8,$9,$2,$3,0*%
G04 Aperture macros list end*
%ADD10C,0.150000*%
%ADD11C,0.120000*%
%ADD12C,1.400000*%
%ADD13O,1.400000X1.400000*%
%ADD14R,2.000000X2.000000*%
%ADD15C,2.000000*%
%ADD16R,1.700000X1.700000*%
%ADD17O,1.700000X1.700000*%
%ADD18C,2.100000*%
%ADD19R,1.300000X1.300000*%
%ADD20C,1.300000*%
%ADD21RoundRect,0.250000X-0.725000X0.600000X-0.725000X-0.600000X0.725000X-0.600000X0.725000X0.600000X0*%
%ADD22O,1.950000X1.700000*%
%ADD23O,1.800000X1.800000*%
%ADD24O,1.500000X1.500000*%
%ADD25C,1.676400*%
%ADD26RoundRect,0.102000X0.762000X0.762000X-0.762000X0.762000X-0.762000X-0.762000X0.762000X-0.762000X0*%
%ADD27O,3.252000X1.728000*%
%ADD28R,1.800000X1.800000*%
%ADD29C,1.800000*%
%ADD30R,1.524000X1.524000*%
%ADD31C,1.524000*%
%ADD32O,2.200000X1.400000*%
%ADD33C,1.600000*%
%ADD34O,1.600000X1.600000*%
%ADD35R,3.000000X3.000000*%
%ADD36C,3.000000*%
%ADD37O,3.500000X3.500000*%
%ADD38R,1.905000X2.000000*%
%ADD39O,1.905000X2.000000*%
G04 APERTURE END LIST*
D10*
X133538000Y-77857000D02*
X149413000Y-77857000D01*
X149413000Y-90430000D01*
X133538000Y-90430000D01*
X133538000Y-77857000D01*
X143817238Y-66933819D02*
X144293428Y-66933819D01*
X144293428Y-66933819D02*
X144293428Y-65933819D01*
X143579142Y-65933819D02*
X142912476Y-65933819D01*
X142912476Y-65933819D02*
X143341047Y-66933819D01*
X142388666Y-66362390D02*
X142483904Y-66314771D01*
X142483904Y-66314771D02*
X142531523Y-66267152D01*
X142531523Y-66267152D02*
X142579142Y-66171914D01*
X142579142Y-66171914D02*
X142579142Y-66124295D01*
X142579142Y-66124295D02*
X142531523Y-66029057D01*
X142531523Y-66029057D02*
X142483904Y-65981438D01*
X142483904Y-65981438D02*
X142388666Y-65933819D01*
X142388666Y-65933819D02*
X142198190Y-65933819D01*
X142198190Y-65933819D02*
X142102952Y-65981438D01*
X142102952Y-65981438D02*
X142055333Y-66029057D01*
X142055333Y-66029057D02*
X142007714Y-66124295D01*
X142007714Y-66124295D02*
X142007714Y-66171914D01*
X142007714Y-66171914D02*
X142055333Y-66267152D01*
X142055333Y-66267152D02*
X142102952Y-66314771D01*
X142102952Y-66314771D02*
X142198190Y-66362390D01*
X142198190Y-66362390D02*
X142388666Y-66362390D01*
X142388666Y-66362390D02*
X142483904Y-66410009D01*
X142483904Y-66410009D02*
X142531523Y-66457628D01*
X142531523Y-66457628D02*
X142579142Y-66552866D01*
X142579142Y-66552866D02*
X142579142Y-66743342D01*
X142579142Y-66743342D02*
X142531523Y-66838580D01*
X142531523Y-66838580D02*
X142483904Y-66886200D01*
X142483904Y-66886200D02*
X142388666Y-66933819D01*
X142388666Y-66933819D02*
X142198190Y-66933819D01*
X142198190Y-66933819D02*
X142102952Y-66886200D01*
X142102952Y-66886200D02*
X142055333Y-66838580D01*
X142055333Y-66838580D02*
X142007714Y-66743342D01*
X142007714Y-66743342D02*
X142007714Y-66552866D01*
X142007714Y-66552866D02*
X142055333Y-66457628D01*
X142055333Y-66457628D02*
X142102952Y-66410009D01*
X142102952Y-66410009D02*
X142198190Y-66362390D01*
X141388666Y-65933819D02*
X141293428Y-65933819D01*
X141293428Y-65933819D02*
X141198190Y-65981438D01*
X141198190Y-65981438D02*
X141150571Y-66029057D01*
X141150571Y-66029057D02*
X141102952Y-66124295D01*
X141102952Y-66124295D02*
X141055333Y-66314771D01*
X141055333Y-66314771D02*
X141055333Y-66552866D01*
X141055333Y-66552866D02*
X141102952Y-66743342D01*
X141102952Y-66743342D02*
X141150571Y-66838580D01*
X141150571Y-66838580D02*
X141198190Y-66886200D01*
X141198190Y-66886200D02*
X141293428Y-66933819D01*
X141293428Y-66933819D02*
X141388666Y-66933819D01*
X141388666Y-66933819D02*
X141483904Y-66886200D01*
X141483904Y-66886200D02*
X141531523Y-66838580D01*
X141531523Y-66838580D02*
X141579142Y-66743342D01*
X141579142Y-66743342D02*
X141626761Y-66552866D01*
X141626761Y-66552866D02*
X141626761Y-66314771D01*
X141626761Y-66314771D02*
X141579142Y-66124295D01*
X141579142Y-66124295D02*
X141531523Y-66029057D01*
X141531523Y-66029057D02*
X141483904Y-65981438D01*
X141483904Y-65981438D02*
X141388666Y-65933819D01*
X140150571Y-65933819D02*
X140626761Y-65933819D01*
X140626761Y-65933819D02*
X140674380Y-66410009D01*
X140674380Y-66410009D02*
X140626761Y-66362390D01*
X140626761Y-66362390D02*
X140531523Y-66314771D01*
X140531523Y-66314771D02*
X140293428Y-66314771D01*
X140293428Y-66314771D02*
X140198190Y-66362390D01*
X140198190Y-66362390D02*
X140150571Y-66410009D01*
X140150571Y-66410009D02*
X140102952Y-66505247D01*
X140102952Y-66505247D02*
X140102952Y-66743342D01*
X140102952Y-66743342D02*
X140150571Y-66838580D01*
X140150571Y-66838580D02*
X140198190Y-66886200D01*
X140198190Y-66886200D02*
X140293428Y-66933819D01*
X140293428Y-66933819D02*
X140531523Y-66933819D01*
X140531523Y-66933819D02*
X140626761Y-66886200D01*
X140626761Y-66886200D02*
X140674380Y-66838580D01*
X148539429Y-91510438D02*
X148634667Y-91462819D01*
X148634667Y-91462819D02*
X148777524Y-91462819D01*
X148777524Y-91462819D02*
X148920381Y-91510438D01*
X148920381Y-91510438D02*
X149015619Y-91605676D01*
X149015619Y-91605676D02*
X149063238Y-91700914D01*
X149063238Y-91700914D02*
X149110857Y-91891390D01*
X149110857Y-91891390D02*
X149110857Y-92034247D01*
X149110857Y-92034247D02*
X149063238Y-92224723D01*
X149063238Y-92224723D02*
X149015619Y-92319961D01*
X149015619Y-92319961D02*
X148920381Y-92415200D01*
X148920381Y-92415200D02*
X148777524Y-92462819D01*
X148777524Y-92462819D02*
X148682286Y-92462819D01*
X148682286Y-92462819D02*
X148539429Y-92415200D01*
X148539429Y-92415200D02*
X148491810Y-92367580D01*
X148491810Y-92367580D02*
X148491810Y-92034247D01*
X148491810Y-92034247D02*
X148682286Y-92034247D01*
X147872762Y-91986628D02*
X147872762Y-92462819D01*
X148206095Y-91462819D02*
X147872762Y-91986628D01*
X147872762Y-91986628D02*
X147539429Y-91462819D01*
X147206095Y-92081866D02*
X146444191Y-92081866D01*
X145634667Y-91939009D02*
X145491810Y-91986628D01*
X145491810Y-91986628D02*
X145444191Y-92034247D01*
X145444191Y-92034247D02*
X145396572Y-92129485D01*
X145396572Y-92129485D02*
X145396572Y-92272342D01*
X145396572Y-92272342D02*
X145444191Y-92367580D01*
X145444191Y-92367580D02*
X145491810Y-92415200D01*
X145491810Y-92415200D02*
X145587048Y-92462819D01*
X145587048Y-92462819D02*
X145968000Y-92462819D01*
X145968000Y-92462819D02*
X145968000Y-91462819D01*
X145968000Y-91462819D02*
X145634667Y-91462819D01*
X145634667Y-91462819D02*
X145539429Y-91510438D01*
X145539429Y-91510438D02*
X145491810Y-91558057D01*
X145491810Y-91558057D02*
X145444191Y-91653295D01*
X145444191Y-91653295D02*
X145444191Y-91748533D01*
X145444191Y-91748533D02*
X145491810Y-91843771D01*
X145491810Y-91843771D02*
X145539429Y-91891390D01*
X145539429Y-91891390D02*
X145634667Y-91939009D01*
X145634667Y-91939009D02*
X145968000Y-91939009D01*
X144968000Y-92462819D02*
X144968000Y-91462819D01*
X144968000Y-91462819D02*
X144634667Y-92177104D01*
X144634667Y-92177104D02*
X144301334Y-91462819D01*
X144301334Y-91462819D02*
X144301334Y-92462819D01*
X143825143Y-91939009D02*
X143491810Y-91939009D01*
X143348953Y-92462819D02*
X143825143Y-92462819D01*
X143825143Y-92462819D02*
X143825143Y-91462819D01*
X143825143Y-91462819D02*
X143348953Y-91462819D01*
X142920381Y-92081866D02*
X142158477Y-92081866D01*
X141729905Y-91558057D02*
X141682286Y-91510438D01*
X141682286Y-91510438D02*
X141587048Y-91462819D01*
X141587048Y-91462819D02*
X141348953Y-91462819D01*
X141348953Y-91462819D02*
X141253715Y-91510438D01*
X141253715Y-91510438D02*
X141206096Y-91558057D01*
X141206096Y-91558057D02*
X141158477Y-91653295D01*
X141158477Y-91653295D02*
X141158477Y-91748533D01*
X141158477Y-91748533D02*
X141206096Y-91891390D01*
X141206096Y-91891390D02*
X141777524Y-92462819D01*
X141777524Y-92462819D02*
X141158477Y-92462819D01*
X140587048Y-91891390D02*
X140682286Y-91843771D01*
X140682286Y-91843771D02*
X140729905Y-91796152D01*
X140729905Y-91796152D02*
X140777524Y-91700914D01*
X140777524Y-91700914D02*
X140777524Y-91653295D01*
X140777524Y-91653295D02*
X140729905Y-91558057D01*
X140729905Y-91558057D02*
X140682286Y-91510438D01*
X140682286Y-91510438D02*
X140587048Y-91462819D01*
X140587048Y-91462819D02*
X140396572Y-91462819D01*
X140396572Y-91462819D02*
X140301334Y-91510438D01*
X140301334Y-91510438D02*
X140253715Y-91558057D01*
X140253715Y-91558057D02*
X140206096Y-91653295D01*
X140206096Y-91653295D02*
X140206096Y-91700914D01*
X140206096Y-91700914D02*
X140253715Y-91796152D01*
X140253715Y-91796152D02*
X140301334Y-91843771D01*
X140301334Y-91843771D02*
X140396572Y-91891390D01*
X140396572Y-91891390D02*
X140587048Y-91891390D01*
X140587048Y-91891390D02*
X140682286Y-91939009D01*
X140682286Y-91939009D02*
X140729905Y-91986628D01*
X140729905Y-91986628D02*
X140777524Y-92081866D01*
X140777524Y-92081866D02*
X140777524Y-92272342D01*
X140777524Y-92272342D02*
X140729905Y-92367580D01*
X140729905Y-92367580D02*
X140682286Y-92415200D01*
X140682286Y-92415200D02*
X140587048Y-92462819D01*
X140587048Y-92462819D02*
X140396572Y-92462819D01*
X140396572Y-92462819D02*
X140301334Y-92415200D01*
X140301334Y-92415200D02*
X140253715Y-92367580D01*
X140253715Y-92367580D02*
X140206096Y-92272342D01*
X140206096Y-92272342D02*
X140206096Y-92081866D01*
X140206096Y-92081866D02*
X140253715Y-91986628D01*
X140253715Y-91986628D02*
X140301334Y-91939009D01*
X140301334Y-91939009D02*
X140396572Y-91891390D01*
X139587048Y-91462819D02*
X139491810Y-91462819D01*
X139491810Y-91462819D02*
X139396572Y-91510438D01*
X139396572Y-91510438D02*
X139348953Y-91558057D01*
X139348953Y-91558057D02*
X139301334Y-91653295D01*
X139301334Y-91653295D02*
X139253715Y-91843771D01*
X139253715Y-91843771D02*
X139253715Y-92081866D01*
X139253715Y-92081866D02*
X139301334Y-92272342D01*
X139301334Y-92272342D02*
X139348953Y-92367580D01*
X139348953Y-92367580D02*
X139396572Y-92415200D01*
X139396572Y-92415200D02*
X139491810Y-92462819D01*
X139491810Y-92462819D02*
X139587048Y-92462819D01*
X139587048Y-92462819D02*
X139682286Y-92415200D01*
X139682286Y-92415200D02*
X139729905Y-92367580D01*
X139729905Y-92367580D02*
X139777524Y-92272342D01*
X139777524Y-92272342D02*
X139825143Y-92081866D01*
X139825143Y-92081866D02*
X139825143Y-91843771D01*
X139825143Y-91843771D02*
X139777524Y-91653295D01*
X139777524Y-91653295D02*
X139729905Y-91558057D01*
X139729905Y-91558057D02*
X139682286Y-91510438D01*
X139682286Y-91510438D02*
X139587048Y-91462819D01*
X137729905Y-91939009D02*
X137587048Y-91986628D01*
X137587048Y-91986628D02*
X137539429Y-92034247D01*
X137539429Y-92034247D02*
X137491810Y-92129485D01*
X137491810Y-92129485D02*
X137491810Y-92272342D01*
X137491810Y-92272342D02*
X137539429Y-92367580D01*
X137539429Y-92367580D02*
X137587048Y-92415200D01*
X137587048Y-92415200D02*
X137682286Y-92462819D01*
X137682286Y-92462819D02*
X138063238Y-92462819D01*
X138063238Y-92462819D02*
X138063238Y-91462819D01*
X138063238Y-91462819D02*
X137729905Y-91462819D01*
X137729905Y-91462819D02*
X137634667Y-91510438D01*
X137634667Y-91510438D02*
X137587048Y-91558057D01*
X137587048Y-91558057D02*
X137539429Y-91653295D01*
X137539429Y-91653295D02*
X137539429Y-91748533D01*
X137539429Y-91748533D02*
X137587048Y-91843771D01*
X137587048Y-91843771D02*
X137634667Y-91891390D01*
X137634667Y-91891390D02*
X137729905Y-91939009D01*
X137729905Y-91939009D02*
X138063238Y-91939009D01*
X136634667Y-92462819D02*
X136634667Y-91939009D01*
X136634667Y-91939009D02*
X136682286Y-91843771D01*
X136682286Y-91843771D02*
X136777524Y-91796152D01*
X136777524Y-91796152D02*
X136968000Y-91796152D01*
X136968000Y-91796152D02*
X137063238Y-91843771D01*
X136634667Y-92415200D02*
X136729905Y-92462819D01*
X136729905Y-92462819D02*
X136968000Y-92462819D01*
X136968000Y-92462819D02*
X137063238Y-92415200D01*
X137063238Y-92415200D02*
X137110857Y-92319961D01*
X137110857Y-92319961D02*
X137110857Y-92224723D01*
X137110857Y-92224723D02*
X137063238Y-92129485D01*
X137063238Y-92129485D02*
X136968000Y-92081866D01*
X136968000Y-92081866D02*
X136729905Y-92081866D01*
X136729905Y-92081866D02*
X136634667Y-92034247D01*
X136158476Y-92462819D02*
X136158476Y-91796152D01*
X136158476Y-91986628D02*
X136110857Y-91891390D01*
X136110857Y-91891390D02*
X136063238Y-91843771D01*
X136063238Y-91843771D02*
X135968000Y-91796152D01*
X135968000Y-91796152D02*
X135872762Y-91796152D01*
X135396571Y-92462819D02*
X135491809Y-92415200D01*
X135491809Y-92415200D02*
X135539428Y-92367580D01*
X135539428Y-92367580D02*
X135587047Y-92272342D01*
X135587047Y-92272342D02*
X135587047Y-91986628D01*
X135587047Y-91986628D02*
X135539428Y-91891390D01*
X135539428Y-91891390D02*
X135491809Y-91843771D01*
X135491809Y-91843771D02*
X135396571Y-91796152D01*
X135396571Y-91796152D02*
X135253714Y-91796152D01*
X135253714Y-91796152D02*
X135158476Y-91843771D01*
X135158476Y-91843771D02*
X135110857Y-91891390D01*
X135110857Y-91891390D02*
X135063238Y-91986628D01*
X135063238Y-91986628D02*
X135063238Y-92272342D01*
X135063238Y-92272342D02*
X135110857Y-92367580D01*
X135110857Y-92367580D02*
X135158476Y-92415200D01*
X135158476Y-92415200D02*
X135253714Y-92462819D01*
X135253714Y-92462819D02*
X135396571Y-92462819D01*
X134634666Y-92462819D02*
X134634666Y-91796152D01*
X134634666Y-91891390D02*
X134587047Y-91843771D01*
X134587047Y-91843771D02*
X134491809Y-91796152D01*
X134491809Y-91796152D02*
X134348952Y-91796152D01*
X134348952Y-91796152D02*
X134253714Y-91843771D01*
X134253714Y-91843771D02*
X134206095Y-91939009D01*
X134206095Y-91939009D02*
X134206095Y-92462819D01*
X134206095Y-91939009D02*
X134158476Y-91843771D01*
X134158476Y-91843771D02*
X134063238Y-91796152D01*
X134063238Y-91796152D02*
X133920381Y-91796152D01*
X133920381Y-91796152D02*
X133825142Y-91843771D01*
X133825142Y-91843771D02*
X133777523Y-91939009D01*
X133777523Y-91939009D02*
X133777523Y-92462819D01*
X132920381Y-92415200D02*
X133015619Y-92462819D01*
X133015619Y-92462819D02*
X133206095Y-92462819D01*
X133206095Y-92462819D02*
X133301333Y-92415200D01*
X133301333Y-92415200D02*
X133348952Y-92319961D01*
X133348952Y-92319961D02*
X133348952Y-91939009D01*
X133348952Y-91939009D02*
X133301333Y-91843771D01*
X133301333Y-91843771D02*
X133206095Y-91796152D01*
X133206095Y-91796152D02*
X133015619Y-91796152D01*
X133015619Y-91796152D02*
X132920381Y-91843771D01*
X132920381Y-91843771D02*
X132872762Y-91939009D01*
X132872762Y-91939009D02*
X132872762Y-92034247D01*
X132872762Y-92034247D02*
X133348952Y-92129485D01*
X132587047Y-91796152D02*
X132206095Y-91796152D01*
X132444190Y-91462819D02*
X132444190Y-92319961D01*
X132444190Y-92319961D02*
X132396571Y-92415200D01*
X132396571Y-92415200D02*
X132301333Y-92462819D01*
X132301333Y-92462819D02*
X132206095Y-92462819D01*
X131491809Y-92415200D02*
X131587047Y-92462819D01*
X131587047Y-92462819D02*
X131777523Y-92462819D01*
X131777523Y-92462819D02*
X131872761Y-92415200D01*
X131872761Y-92415200D02*
X131920380Y-92319961D01*
X131920380Y-92319961D02*
X131920380Y-91939009D01*
X131920380Y-91939009D02*
X131872761Y-91843771D01*
X131872761Y-91843771D02*
X131777523Y-91796152D01*
X131777523Y-91796152D02*
X131587047Y-91796152D01*
X131587047Y-91796152D02*
X131491809Y-91843771D01*
X131491809Y-91843771D02*
X131444190Y-91939009D01*
X131444190Y-91939009D02*
X131444190Y-92034247D01*
X131444190Y-92034247D02*
X131920380Y-92129485D01*
X131015618Y-92462819D02*
X131015618Y-91796152D01*
X131015618Y-91986628D02*
X130967999Y-91891390D01*
X130967999Y-91891390D02*
X130920380Y-91843771D01*
X130920380Y-91843771D02*
X130825142Y-91796152D01*
X130825142Y-91796152D02*
X130729904Y-91796152D01*
D11*
X136848000Y-61193000D02*
X147088000Y-61193000D01*
X136848000Y-77083000D02*
X136848000Y-61193000D01*
X136848000Y-77083000D02*
X147088000Y-77083000D01*
X139428000Y-61193000D02*
X139428000Y-58653000D01*
X141968000Y-61193000D02*
X141968000Y-58653000D01*
X144508000Y-61193000D02*
X144508000Y-58653000D01*
X147088000Y-77083000D02*
X147088000Y-61193000D01*
X138558000Y-80838000D02*
X138558000Y-78178000D01*
X146238000Y-78178000D02*
X138558000Y-78178000D01*
X146238000Y-80838000D02*
X138558000Y-80838000D01*
X146238000Y-80838000D02*
X146238000Y-78178000D01*
X147508000Y-80838000D02*
X148838000Y-80838000D01*
X148838000Y-80838000D02*
X148838000Y-79508000D01*
%LPC*%
D12*
X103428000Y-90008000D03*
D13*
X108508000Y-90008000D03*
D14*
X144338785Y-94008000D03*
D15*
X138338785Y-94008000D03*
D16*
X134468000Y-106300000D03*
D17*
X134468000Y-108840000D03*
X134468000Y-111380000D03*
X134468000Y-113920000D03*
D18*
X101968000Y-35008000D03*
D19*
X109968000Y-38548000D03*
D20*
X108698000Y-37278000D03*
X109968000Y-36008000D03*
D21*
X141968000Y-134400000D03*
D22*
X141968000Y-136900000D03*
X141968000Y-139400000D03*
X141968000Y-141900000D03*
D23*
X117225000Y-142150000D03*
D24*
X116925000Y-139120000D03*
X112075000Y-139120000D03*
D23*
X111775000Y-142150000D03*
D17*
X123390000Y-142280000D03*
X123390000Y-139740000D03*
D16*
X123390000Y-137200000D03*
D17*
X123390000Y-134660000D03*
X123390000Y-132120000D03*
X123390000Y-129580000D03*
X123390000Y-127040000D03*
D16*
X123390000Y-124500000D03*
D17*
X123390000Y-121960000D03*
X123390000Y-119420000D03*
X123390000Y-116880000D03*
X123390000Y-114340000D03*
D16*
X123390000Y-111800000D03*
D17*
X123390000Y-109260000D03*
X123390000Y-106720000D03*
X123390000Y-104180000D03*
X123390000Y-101640000D03*
D16*
X123390000Y-99100000D03*
D17*
X123390000Y-96560000D03*
X123390000Y-94020000D03*
X105610000Y-94020000D03*
X105610000Y-96560000D03*
D16*
X105610000Y-99100000D03*
D17*
X105610000Y-101640000D03*
X105610000Y-104180000D03*
X105610000Y-106720000D03*
X105610000Y-109260000D03*
D16*
X105610000Y-111800000D03*
D17*
X105610000Y-114340000D03*
X105610000Y-116880000D03*
X105610000Y-119420000D03*
X105610000Y-121960000D03*
D16*
X105610000Y-124500000D03*
D17*
X105610000Y-127040000D03*
X105610000Y-129580000D03*
X105610000Y-132120000D03*
X105610000Y-134660000D03*
D16*
X105610000Y-137200000D03*
D17*
X105610000Y-139740000D03*
X105610000Y-142280000D03*
X117040000Y-94250000D03*
D16*
X114500000Y-94250000D03*
D17*
X111960000Y-94250000D03*
D18*
X101468000Y-148008000D03*
X146968000Y-35008000D03*
D25*
X102468000Y-80928000D03*
X102468000Y-83468000D03*
X102468000Y-86008000D03*
D26*
X131828000Y-70208000D03*
D27*
X131828000Y-67668000D03*
X131828000Y-65128000D03*
X131828000Y-62588000D03*
D26*
X131828000Y-60048000D03*
D27*
X131828000Y-57508000D03*
X131828000Y-54968000D03*
X131828000Y-52428000D03*
X108968000Y-52428000D03*
D26*
X108968000Y-54968000D03*
D27*
X108968000Y-57508000D03*
X108968000Y-60048000D03*
X108968000Y-62588000D03*
X108968000Y-65128000D03*
X108968000Y-67668000D03*
X108968000Y-70208000D03*
D18*
X146468000Y-148008000D03*
D28*
X108193000Y-44008000D03*
D29*
X110733000Y-44008000D03*
D30*
X116740000Y-42233000D03*
D31*
X120240000Y-42233000D03*
D32*
X136490000Y-42233000D03*
X131740000Y-42233000D03*
X141240000Y-42233000D03*
D28*
X123778000Y-36008000D03*
D23*
X116158000Y-36008000D03*
D25*
X139428000Y-54008000D03*
X141968000Y-54008000D03*
X144508000Y-54008000D03*
D28*
X129158000Y-145008000D03*
D23*
X136778000Y-145008000D03*
D16*
X138943000Y-49758000D03*
D17*
X138943000Y-47218000D03*
D33*
X102968000Y-51588000D03*
D34*
X102968000Y-41428000D03*
D35*
X136780000Y-36233000D03*
D36*
X131700000Y-36233000D03*
D37*
X141968000Y-74163000D03*
D38*
X139428000Y-57503000D03*
D39*
X141968000Y-57503000D03*
X144508000Y-57503000D03*
D17*
X147508000Y-79508000D03*
D16*
X144968000Y-79508000D03*
D17*
X142428000Y-79508000D03*
X139888000Y-79508000D03*
%LPD*%
M02*
