%TF.GenerationSoftware,KiCad,Pcbnew,8.0.5*%
%TF.CreationDate,2024-10-11T00:49:00+02:00*%
%TF.ProjectId,RocketBoard,526f636b-6574-4426-9f61-72642e6b6963,rev?*%
%TF.SameCoordinates,Original*%
%TF.FileFunction,Copper,L1,Top*%
%TF.FilePolarity,Positive*%
%FSLAX46Y46*%
G04 Gerber Fmt 4.6, Leading zero omitted, Abs format (unit mm)*
G04 Created by KiCad (PCBNEW 8.0.5) date 2024-10-11 00:49:00*
%MOMM*%
%LPD*%
G01*
G04 APERTURE LIST*
G04 Aperture macros list*
%AMRoundRect*
0 Rectangle with rounded corners*
0 $1 Rounding radius*
0 $2 $3 $4 $5 $6 $7 $8 $9 X,Y pos of 4 corners*
0 Add a 4 corners polygon primitive as box body*
4,1,4,$2,$3,$4,$5,$6,$7,$8,$9,$2,$3,0*
0 Add four circle primitives for the rounded corners*
1,1,$1+$1,$2,$3*
1,1,$1+$1,$4,$5*
1,1,$1+$1,$6,$7*
1,1,$1+$1,$8,$9*
0 Add four rect primitives between the rounded corners*
20,1,$1+$1,$2,$3,$4,$5,0*
20,1,$1+$1,$4,$5,$6,$7,0*
20,1,$1+$1,$6,$7,$8,$9,0*
20,1,$1+$1,$8,$9,$2,$3,0*%
G04 Aperture macros list end*
%TA.AperFunction,ComponentPad*%
%ADD10C,1.400000*%
%TD*%
%TA.AperFunction,ComponentPad*%
%ADD11O,1.400000X1.400000*%
%TD*%
%TA.AperFunction,ComponentPad*%
%ADD12R,2.000000X2.000000*%
%TD*%
%TA.AperFunction,ComponentPad*%
%ADD13C,2.000000*%
%TD*%
%TA.AperFunction,ComponentPad*%
%ADD14R,1.700000X1.700000*%
%TD*%
%TA.AperFunction,ComponentPad*%
%ADD15O,1.700000X1.700000*%
%TD*%
%TA.AperFunction,ComponentPad*%
%ADD16R,1.300000X1.300000*%
%TD*%
%TA.AperFunction,ComponentPad*%
%ADD17C,1.300000*%
%TD*%
%TA.AperFunction,ComponentPad*%
%ADD18RoundRect,0.250000X-0.725000X0.600000X-0.725000X-0.600000X0.725000X-0.600000X0.725000X0.600000X0*%
%TD*%
%TA.AperFunction,ComponentPad*%
%ADD19O,1.950000X1.700000*%
%TD*%
%TA.AperFunction,SMDPad,CuDef*%
%ADD20R,3.500000X1.700000*%
%TD*%
%TA.AperFunction,SMDPad,CuDef*%
%ADD21R,1.700000X3.500000*%
%TD*%
%TA.AperFunction,ComponentPad*%
%ADD22C,1.676400*%
%TD*%
%TA.AperFunction,ComponentPad*%
%ADD23R,1.524000X1.524000*%
%TD*%
%TA.AperFunction,ComponentPad*%
%ADD24O,3.048000X1.524000*%
%TD*%
%TA.AperFunction,ComponentPad*%
%ADD25R,1.800000X1.800000*%
%TD*%
%TA.AperFunction,ComponentPad*%
%ADD26C,1.800000*%
%TD*%
%TA.AperFunction,ComponentPad*%
%ADD27C,1.524000*%
%TD*%
%TA.AperFunction,ComponentPad*%
%ADD28O,2.200000X1.400000*%
%TD*%
%TA.AperFunction,ComponentPad*%
%ADD29O,1.800000X1.800000*%
%TD*%
%TA.AperFunction,SMDPad,CuDef*%
%ADD30R,1.120000X2.440000*%
%TD*%
%TA.AperFunction,ComponentPad*%
%ADD31C,1.600000*%
%TD*%
%TA.AperFunction,ComponentPad*%
%ADD32O,1.600000X1.600000*%
%TD*%
%TA.AperFunction,ComponentPad*%
%ADD33R,3.000000X3.000000*%
%TD*%
%TA.AperFunction,ComponentPad*%
%ADD34C,3.000000*%
%TD*%
%TA.AperFunction,ComponentPad*%
%ADD35R,1.905000X2.000000*%
%TD*%
%TA.AperFunction,ComponentPad*%
%ADD36O,1.905000X2.000000*%
%TD*%
%TA.AperFunction,ViaPad*%
%ADD37C,2.000000*%
%TD*%
%TA.AperFunction,Conductor*%
%ADD38C,0.400000*%
%TD*%
%TA.AperFunction,Conductor*%
%ADD39C,1.000000*%
%TD*%
%TA.AperFunction,Conductor*%
%ADD40C,1.800000*%
%TD*%
G04 APERTURE END LIST*
D10*
X103428000Y-90008000D03*
D11*
X108508000Y-90008000D03*
D12*
X144338785Y-94008000D03*
D13*
X138338785Y-94008000D03*
D14*
X134468000Y-106300000D03*
D15*
X134468000Y-108840000D03*
X134468000Y-111380000D03*
X134468000Y-113920000D03*
D16*
X109968000Y-38548000D03*
D17*
X108698000Y-37278000D03*
X109968000Y-36008000D03*
D18*
X141968000Y-134400000D03*
D19*
X141968000Y-136900000D03*
X141968000Y-139400000D03*
X141968000Y-141900000D03*
D15*
X123390000Y-142280000D03*
D20*
X124290000Y-142280000D03*
D15*
X123390000Y-139740000D03*
D20*
X124290000Y-139740000D03*
D14*
X123390000Y-137200000D03*
D20*
X124290000Y-137200000D03*
D15*
X123390000Y-134660000D03*
D20*
X124290000Y-134660000D03*
D15*
X123390000Y-132120000D03*
D20*
X124290000Y-132120000D03*
D15*
X123390000Y-129580000D03*
D20*
X124290000Y-129580000D03*
D15*
X123390000Y-127040000D03*
D20*
X124290000Y-127040000D03*
D14*
X123390000Y-124500000D03*
D20*
X124290000Y-124500000D03*
D15*
X123390000Y-121960000D03*
D20*
X124290000Y-121960000D03*
D15*
X123390000Y-119420000D03*
D20*
X124290000Y-119420000D03*
D15*
X123390000Y-116880000D03*
D20*
X124290000Y-116880000D03*
D15*
X123390000Y-114340000D03*
D20*
X124290000Y-114340000D03*
D14*
X123390000Y-111800000D03*
D20*
X124290000Y-111800000D03*
D15*
X123390000Y-109260000D03*
D20*
X124290000Y-109260000D03*
D15*
X123390000Y-106720000D03*
D20*
X124290000Y-106720000D03*
D15*
X123390000Y-104180000D03*
D20*
X124290000Y-104180000D03*
D15*
X123390000Y-101640000D03*
D20*
X124290000Y-101640000D03*
D14*
X123390000Y-99100000D03*
D20*
X124290000Y-99100000D03*
D15*
X123390000Y-96560000D03*
D20*
X124290000Y-96560000D03*
D15*
X123390000Y-94020000D03*
D20*
X124290000Y-94020000D03*
D15*
X105610000Y-94020000D03*
D20*
X104710000Y-94020000D03*
D15*
X105610000Y-96560000D03*
D20*
X104710000Y-96560000D03*
D14*
X105610000Y-99100000D03*
D20*
X104710000Y-99100000D03*
D15*
X105610000Y-101640000D03*
D20*
X104710000Y-101640000D03*
D15*
X105610000Y-104180000D03*
D20*
X104710000Y-104180000D03*
D15*
X105610000Y-106720000D03*
D20*
X104710000Y-106720000D03*
D15*
X105610000Y-109260000D03*
D20*
X104710000Y-109260000D03*
D14*
X105610000Y-111800000D03*
D20*
X104710000Y-111800000D03*
D15*
X105610000Y-114340000D03*
D20*
X104710000Y-114340000D03*
D15*
X105610000Y-116880000D03*
D20*
X104710000Y-116880000D03*
D15*
X105610000Y-119420000D03*
D20*
X104710000Y-119420000D03*
D15*
X105610000Y-121960000D03*
D20*
X104710000Y-121960000D03*
D14*
X105610000Y-124500000D03*
D20*
X104710000Y-124500000D03*
D15*
X105610000Y-127040000D03*
D20*
X104710000Y-127040000D03*
D15*
X105610000Y-129580000D03*
D20*
X104710000Y-129580000D03*
D15*
X105610000Y-132120000D03*
D20*
X104710000Y-132120000D03*
D15*
X105610000Y-134660000D03*
D20*
X104710000Y-134660000D03*
D14*
X105610000Y-137200000D03*
D20*
X104710000Y-137200000D03*
D15*
X105610000Y-139740000D03*
D20*
X104710000Y-139740000D03*
D15*
X105610000Y-142280000D03*
D20*
X104710000Y-142280000D03*
D15*
X117040000Y-94250000D03*
D21*
X117040000Y-93350000D03*
D14*
X114500000Y-94250000D03*
D21*
X114500000Y-93350000D03*
D15*
X111960000Y-94250000D03*
D21*
X111960000Y-93350000D03*
D22*
X102468000Y-80928000D03*
X102468000Y-83468000D03*
X102468000Y-86008000D03*
D23*
X131828000Y-70208000D03*
D24*
X131828000Y-67668000D03*
X131828000Y-65128000D03*
X131828000Y-62588000D03*
D23*
X131828000Y-60048000D03*
D24*
X131828000Y-57508000D03*
X131828000Y-54968000D03*
X131828000Y-52428000D03*
X108968000Y-52428000D03*
D23*
X108968000Y-54968000D03*
D24*
X108968000Y-57508000D03*
X108968000Y-60048000D03*
X108968000Y-62588000D03*
X108968000Y-65128000D03*
X108968000Y-67668000D03*
X108968000Y-70208000D03*
D25*
X108193000Y-44008000D03*
D26*
X110733000Y-44008000D03*
D23*
X116740000Y-42233000D03*
D27*
X120240000Y-42233000D03*
D28*
X136490000Y-42233000D03*
X131740000Y-42233000D03*
X141240000Y-42233000D03*
D25*
X123778000Y-36008000D03*
D29*
X116158000Y-36008000D03*
D22*
X139428000Y-54008000D03*
X141968000Y-54008000D03*
X144508000Y-54008000D03*
D25*
X129158000Y-145008000D03*
D29*
X136778000Y-145008000D03*
D14*
X138943000Y-49758000D03*
D15*
X138943000Y-47218000D03*
D30*
X102968000Y-74313000D03*
X102968000Y-65703000D03*
D31*
X102968000Y-51588000D03*
D32*
X102968000Y-41428000D03*
D33*
X136780000Y-36233000D03*
D34*
X131700000Y-36233000D03*
D35*
X139428000Y-57503000D03*
D36*
X141968000Y-57503000D03*
X144508000Y-57503000D03*
D15*
X147508000Y-79508000D03*
D14*
X144968000Y-79508000D03*
D15*
X142428000Y-79508000D03*
X139888000Y-79508000D03*
D37*
X130928000Y-82468000D03*
D38*
X133190000Y-69030000D02*
X131828000Y-67668000D01*
X133190000Y-71570000D02*
X133190000Y-69030000D01*
X122468000Y-79568000D02*
X130466000Y-71570000D01*
X130466000Y-71570000D02*
X133190000Y-71570000D01*
X122468000Y-91722000D02*
X122468000Y-79568000D01*
X105610000Y-96560000D02*
X117630000Y-96560000D01*
X117630000Y-96560000D02*
X122468000Y-91722000D01*
X131679841Y-65128000D02*
X131828000Y-65128000D01*
X129704000Y-71128081D02*
X129704000Y-67103841D01*
X106812081Y-94020000D02*
X129704000Y-71128081D01*
X129704000Y-67103841D02*
X131679841Y-65128000D01*
X105610000Y-94020000D02*
X106812081Y-94020000D01*
D39*
X102229800Y-90008000D02*
X100729800Y-90008000D01*
X100729800Y-90008000D02*
X100729800Y-91508000D01*
X100729800Y-88508000D02*
X100729800Y-90008000D01*
X102229800Y-90008000D02*
X100729800Y-88508000D01*
X100729800Y-76551200D02*
X100729800Y-88508000D01*
X102229800Y-90008000D02*
X100729800Y-91508000D01*
X103428000Y-90008000D02*
X102229800Y-90008000D01*
X100729800Y-91508000D02*
X100729800Y-96979800D01*
X145750081Y-82468000D02*
X130928000Y-82468000D01*
X147508000Y-80710081D02*
X145750081Y-82468000D01*
X120240000Y-39546000D02*
X123778000Y-36008000D01*
X110045000Y-52428000D02*
X109608000Y-52428000D01*
X120240000Y-42233000D02*
X120240000Y-39546000D01*
X120240000Y-42233000D02*
X110045000Y-52428000D01*
D38*
X129808000Y-106720000D02*
X123390000Y-106720000D01*
X134468000Y-111380000D02*
X129808000Y-106720000D01*
X134468000Y-113920000D02*
X129808000Y-109260000D01*
X129808000Y-109260000D02*
X123390000Y-109260000D01*
D39*
X147508000Y-80710081D02*
X147508000Y-79508000D01*
D38*
X128166785Y-104180000D02*
X123390000Y-104180000D01*
X138338785Y-94008000D02*
X128166785Y-104180000D01*
X130983000Y-127040000D02*
X123390000Y-127040000D01*
X140843000Y-136900000D02*
X130983000Y-127040000D01*
X141968000Y-136900000D02*
X140843000Y-136900000D01*
X132148000Y-129580000D02*
X123390000Y-129580000D01*
X141968000Y-139400000D02*
X132148000Y-129580000D01*
X108193000Y-46363000D02*
X102968000Y-51588000D01*
X108193000Y-44008000D02*
X108193000Y-46363000D01*
X103450000Y-101640000D02*
X105610000Y-101640000D01*
X110733000Y-44008000D02*
X110733000Y-47974841D01*
X110733000Y-47974841D02*
X99629800Y-59078041D01*
X99629800Y-97819800D02*
X103450000Y-101640000D01*
X99629800Y-59078041D02*
X99629800Y-97819800D01*
X107118000Y-37278000D02*
X102968000Y-41428000D01*
X108698000Y-37278000D02*
X107118000Y-37278000D01*
X128468000Y-78508000D02*
X128468000Y-94508000D01*
X139888000Y-79508000D02*
X135388000Y-75008000D01*
X128468000Y-94508000D02*
X126416000Y-96560000D01*
X131968000Y-75008000D02*
X128468000Y-78508000D01*
X135388000Y-75008000D02*
X131968000Y-75008000D01*
X126416000Y-96560000D02*
X123390000Y-96560000D01*
X131268000Y-74208000D02*
X123390000Y-82086000D01*
X123390000Y-82086000D02*
X123390000Y-94020000D01*
X142428000Y-79508000D02*
X137128000Y-74208000D01*
X137128000Y-74208000D02*
X131268000Y-74208000D01*
D39*
X116740000Y-36590000D02*
X116158000Y-36008000D01*
X113653000Y-42233000D02*
X109968000Y-38548000D01*
X116740000Y-42233000D02*
X116740000Y-36590000D01*
X116740000Y-42233000D02*
X113653000Y-42233000D01*
X107206000Y-54968000D02*
X102968000Y-59206000D01*
X102968000Y-59206000D02*
X102968000Y-65703000D01*
X108968000Y-54968000D02*
X107206000Y-54968000D01*
X135670081Y-108840000D02*
X144338785Y-100171296D01*
D40*
X141968000Y-70061781D02*
X144968000Y-73061781D01*
D39*
X141968000Y-134400000D02*
X132068000Y-124500000D01*
D40*
X144968000Y-73061781D02*
X144968000Y-79508000D01*
D39*
X132068000Y-124500000D02*
X123390000Y-124500000D01*
D40*
X141968000Y-57503000D02*
X141968000Y-70061781D01*
D39*
X102850000Y-99100000D02*
X105610000Y-99100000D01*
X144338785Y-100171296D02*
X144338785Y-94008000D01*
D40*
X141968000Y-54008000D02*
X141968000Y-57503000D01*
D39*
X134468000Y-108840000D02*
X135670081Y-108840000D01*
X100729800Y-96979800D02*
X102850000Y-99100000D01*
X102968000Y-74313000D02*
X100729800Y-76551200D01*
D40*
X136490000Y-36523000D02*
X136780000Y-36233000D01*
X136780000Y-41943000D02*
X136490000Y-42233000D01*
X136780000Y-36233000D02*
X136780000Y-41943000D01*
X138943000Y-53523000D02*
X139428000Y-54008000D01*
X138943000Y-49758000D02*
X138943000Y-53523000D01*
M02*
